  0
SECTION
  2
HEADER
  9
$ACADVER
  1
AC1014
  9
$HANDSEED
  5
FFFF
  9
$MEASUREMENT
 70
     1
  0
ENDSEC
  0
SECTION
  2
TABLES
  0
TABLE
  2
VPORT
  5
8
330
0
100
AcDbSymbolTable
 70
     4
  0
VPORT
  5
2E
330
8
100
AcDbSymbolTableRecord
100
AcDbViewportTableRecord
  2
*ACTIVE
 70
     0
 10
0.0
 20
0.0
 11
1.0
 21
1.0
 12
210.0
 22
148.5
 13
0.0
 23
0.0
 14
10.0
 24
10.0
 15
10.0
 25
10.0
 16
0.0
 26
0.0
 36
1.0
 17
0.0
 27
0.0
 37
0.0
 40
341.0
 41
1.24
 42
50.0
 43
0.0
 44
0.0
 50
0.0
 51
0.0
 71
     0
 72
   100
 73
     1
 74
     3
 75
     0
 76
     0
 77
     0
 78
     0
  0
ENDTAB
  0
TABLE
  2
LTYPE
  5
5
330
0
100
AcDbSymbolTable
 70
     1
  0
LTYPE
  5
14
330
5
100
AcDbSymbolTableRecord
100
AcDbLinetypeTableRecord
  2
BYBLOCK
 70
     0
  3

 72
    65
 73
     0
 40
0.0
  0
LTYPE
  5
15
330
5
100
AcDbSymbolTableRecord
100
AcDbLinetypeTableRecord
  2
BYLAYER
 70
     0
  3

 72
    65
 73
     0
 40
0.0
  0
LTYPE
  5
16
330
5
100
AcDbSymbolTableRecord
100
AcDbLinetypeTableRecord
  2
CONTINUOUS
 70
     0
  3
Solid line
 72
    65
 73
     0
 40
0.0
  0
ENDTAB
  0
TABLE
  2
LAYER
  5
2
100
AcDbSymbolTable
 70
2
  0
LAYER
  5
50
100
AcDbSymbolTableRecord
100
AcDbLayerTableRecord
  2
0
 70
0
  6
CONTINUOUS
  0
LAYER
  5
51
100
AcDbSymbolTableRecord
100
AcDbLayerTableRecord
  2
Layer_1
 70
0
  6
CONTINUOUS
  0
ENDTAB
  0
TABLE
  2
STYLE
  5
3
330
0
100
AcDbSymbolTable
 70
     1
  0
STYLE
  5
11
330
3
100
AcDbSymbolTableRecord
100
AcDbTextStyleTableRecord
  2
STANDARD
 70
     0
 40
0.0
 41
1.0
 50
0.0
 71
     0
 42
2.5
  3
txt
  4

  0
ENDTAB
  0
TABLE
  2
VIEW
  5
6
330
0
100
AcDbSymbolTable
 70
     0
  0
ENDTAB
  0
TABLE
  2
UCS
  5
7
330
0
100
AcDbSymbolTable
 70
     0
  0
ENDTAB
  0
TABLE
  2
APPID
  5
9
330
0
100
AcDbSymbolTable
 70
     2
  0
APPID
  5
12
330
9
100
AcDbSymbolTableRecord
100
AcDbRegAppTableRecord
  2
ACAD
 70
     0
  0
ENDTAB
  0
TABLE
  2
DIMSTYLE
  5
A
330
0
100
AcDbSymbolTable
 70
     1
  0
DIMSTYLE
105
27
330
A
100
AcDbSymbolTableRecord
100
AcDbDimStyleTableRecord
  2
ISO-25
 70
     0
  3

  4

  5

  6

  7

 40
1.0
 41
2.5
 42
0.625
 43
3.75
 44
1.25
 45
0.0
 46
0.0
 47
0.0
 48
0.0
140
2.5
141
2.5
142
0.0
143
0.03937007874016
144
1.0
145
0.0
146
1.0
147
0.625
 71
     0
 72
     0
 73
     0
 74
     0
 75
     0
 76
     0
 77
     1
 78
     8
170
     0
171
     3
172
     1
173
     0
174
     0
175
     0
176
     0
177
     0
178
     0
270
     2
271
     2
272
     2
273
     2
274
     3
340
11
275
     0
280
     0
281
     0
282
     0
283
     0
284
     8
285
     0
286
     0
287
     3
288
     0
  0
ENDTAB
  0
TABLE
  2
BLOCK_RECORD
  5
1
330
0
100
AcDbSymbolTable
 70
     1
  0
BLOCK_RECORD
  5
1F
330
1
100
AcDbSymbolTableRecord
100
AcDbBlockTableRecord
  2
*MODEL_SPACE
  0
BLOCK_RECORD
  5
1B
330
1
100
AcDbSymbolTableRecord
100
AcDbBlockTableRecord
  2
*PAPER_SPACE
  0
ENDTAB
  0
ENDSEC
  0
SECTION
  2
BLOCKS
  0
BLOCK
  5
20
330
1F
100
AcDbEntity
  8
0
100
AcDbBlockBegin
  2
*MODEL_SPACE
 70
     0
 10
0.0
 20
0.0
 30
0.0
  3
*MODEL_SPACE
  1

  0
ENDBLK
  5
21
330
1F
100
AcDbEntity
  8
0
100
AcDbBlockEnd
  0
BLOCK
  5
1C
330
1B
100
AcDbEntity
 67
     1
  8
0
100
AcDbBlockBegin
  2
*PAPER_SPACE
  1

  0
ENDBLK
  5
1D
330
1B
100
AcDbEntity
 67
     1
  8
0
100
AcDbBlockEnd
  0
ENDSEC
  0
SECTION
  2
ENTITIES
  0
SPLINE
  5
100
100
AcDbEntity
  8
Layer_1
 62
1
100
AcDbSpline
 70
0
 71
3
 72
19
 73
15
 74
13
 40
0.000000
 40
0.000000
 40
0.000000
 40
0.000000
 40
1.585167
 40
2.884470
 40
4.003593
 40
5.291514
 40
6.578598
 40
7.897466
 40
9.218795
 40
10.511987
 40
11.808484
 40
12.934895
 40
14.239866
 40
15.827317
 40
15.827317
 40
15.827317
 40
15.827317
 10
257.387254
 20
88.919449
 30
0.0
 10
257.915857
 20
88.908147
 30
0.0
 10
258.877738
 20
88.887580
 30
0.0
 10
260.203775
 20
88.717395
 30
0.0
 10
261.414882
 20
88.473178
 30
0.0
 10
262.622967
 20
88.233486
 30
0.0
 10
263.910899
 20
88.063159
 30
0.0
 10
265.220311
 20
87.997924
 30
0.0
 10
266.531743
 20
88.063346
 30
0.0
 10
267.825411
 20
88.233714
 30
0.0
 10
269.041006
 20
88.473164
 30
0.0
 10
270.259475
 20
88.717139
 30
0.0
 10
271.590594
 20
88.887433
 30
0.0
 10
272.555122
 20
88.908104
 30
0.0
 10
273.084485
 20
88.919449
 30
0.0
 11
257.387254
 21
88.919449
 31
0.0
 11
258.971098
 21
88.854723
 31
0.0
 11
260.260350
 21
88.693413
 31
0.0
 11
261.359862
 21
88.484824
 31
0.0
 11
262.625643
 21
88.247051
 31
0.0
 11
263.902074
 21
88.081796
 31
0.0
 11
265.219488
 21
88.019866
 31
0.0
 11
266.539365
 21
88.081796
 31
0.0
 11
267.821955
 21
88.247051
 31
0.0
 11
269.096462
 21
88.484824
 31
0.0
 11
270.203391
 21
88.693413
 31
0.0
 11
271.498354
 21
88.854723
 31
0.0
 11
273.084485
 21
88.919449
 31
0.0
  0
SPLINE
  5
101
100
AcDbEntity
  8
Layer_1
 62
1
100
AcDbSpline
 70
0
 71
3
 72
19
 73
15
 74
13
 40
0.000000
 40
0.000000
 40
0.000000
 40
0.000000
 40
1.585908
 40
2.887098
 40
4.008754
 40
5.299395
 40
6.588442
 40
7.908057
 40
9.228636
 40
10.519786
 40
11.813355
 40
12.937444
 40
14.240601
 40
15.827319
 40
15.827319
 40
15.827319
 40
15.827319
 10
236.457625
 20
88.919449
 30
0.0
 10
236.986476
 20
88.908134
 30
0.0
 10
237.949232
 20
88.887534
 30
0.0
 10
239.276987
 20
88.717294
 30
0.0
 10
240.490544
 20
88.473204
 30
0.0
 10
241.701088
 20
88.233551
 30
0.0
 10
242.990838
 20
88.063223
 30
0.0
 10
244.300898
 20
87.997923
 30
0.0
 10
245.611653
 20
88.063282
 30
0.0
 10
246.903409
 20
88.233629
 30
0.0
 10
248.116506
 20
88.473191
 30
0.0
 10
249.332565
 20
88.717216
 30
0.0
 10
250.662060
 20
88.887481
 30
0.0
 10
251.625740
 20
88.908118
 30
0.0
 10
252.154859
 20
88.919449
 30
0.0
 11
236.457625
 21
88.919449
 31
0.0
 11
238.042212
 21
88.854723
 31
0.0
 11
239.333365
 21
88.693413
 31
0.0
 11
240.435455
 21
88.484824
 31
0.0
 11
241.704004
 21
88.247051
 31
0.0
 11
242.982415
 21
88.081796
 31
0.0
 11
244.300575
 21
88.019866
 31
0.0
 11
245.619702
 21
88.081796
 31
0.0
 11
246.900233
 21
88.247051
 31
0.0
 11
248.171761
 21
88.484824
 31
0.0
 11
249.276327
 21
88.693413
 31
0.0
 11
250.569462
 21
88.854723
 31
0.0
 11
252.154859
 21
88.919449
 31
0.0
  0
SPLINE
  5
102
100
AcDbEntity
  8
Layer_1
 62
1
100
AcDbSpline
 70
0
 71
3
 72
19
 73
15
 74
13
 40
0.000000
 40
0.000000
 40
0.000000
 40
0.000000
 40
1.586854
 40
2.890020
 40
4.014219
 40
5.307530
 40
6.598481
 40
7.918973
 40
9.238668
 40
10.527918
 40
11.818820
 40
12.940487
 40
14.241682
 40
15.827590
 40
15.827590
 40
15.827590
 40
15.827590
 10
215.527690
 20
88.919449
 30
0.0
 10
216.056855
 20
88.908121
 30
0.0
 10
217.020584
 20
88.887491
 30
0.0
 10
218.350160
 20
88.717200
 30
0.0
 10
219.566184
 20
88.473236
 30
0.0
 10
220.779151
 20
88.233617
 30
0.0
 10
222.070727
 20
88.063278
 30
0.0
 10
223.381414
 20
87.997923
 30
0.0
 10
224.691538
 20
88.063228
 30
0.0
 10
225.981470
 20
88.233561
 30
0.0
 10
227.192183
 20
88.473176
 30
0.0
 10
228.405828
 20
88.717296
 30
0.0
 10
229.733589
 20
88.887532
 30
0.0
 10
230.696347
 20
88.908133
 30
0.0
 10
231.225197
 20
88.919449
 30
0.0
 11
215.527690
 21
88.919449
 31
0.0
 11
217.113223
 21
88.854723
 31
0.0
 11
218.406367
 21
88.693413
 31
0.0
 11
219.511045
 21
88.484824
 31
0.0
 11
220.782311
 21
88.247051
 31
0.0
 11
222.062641
 21
88.081796
 31
0.0
 11
223.381680
 21
88.019866
 31
0.0
 11
224.699922
 21
88.081796
 31
0.0
 11
225.978536
 21
88.247051
 31
0.0
 11
227.247351
 21
88.484824
 31
0.0
 11
228.349453
 21
88.693413
 31
0.0
 11
229.640610
 21
88.854723
 31
0.0
 11
231.225197
 21
88.919449
 31
0.0
  0
SPLINE
  5
103
100
AcDbEntity
  8
Layer_1
 62
1
100
AcDbSpline
 70
0
 71
3
 72
19
 73
15
 74
13
 40
0.000000
 40
0.000000
 40
0.000000
 40
0.000000
 40
1.587323
 40
2.892356
 40
4.018834
 40
5.315061
 40
6.607974
 40
7.929039
 40
9.248162
 40
10.535450
 40
11.823436
 40
12.942746
 40
14.242053
 40
15.827034
 40
15.827034
 40
15.827034
 40
15.827034
 10
194.598338
 20
88.919449
 30
0.0
 10
195.127658
 20
88.908102
 30
0.0
 10
196.092164
 20
88.887426
 30
0.0
 10
197.423282
 20
88.717132
 30
0.0
 10
198.641712
 20
88.473203
 30
0.0
 10
199.857135
 20
88.233711
 30
0.0
 10
201.150531
 20
88.063344
 30
0.0
 10
202.461867
 20
87.997923
 30
0.0
 10
203.771343
 20
88.063161
 30
0.0
 10
205.059454
 20
88.233468
 30
0.0
 10
206.267687
 20
88.473198
 30
0.0
 10
207.478889
 20
88.717372
 30
0.0
 10
208.804924
 20
88.887576
 30
0.0
 10
209.766745
 20
88.908146
 30
0.0
 10
210.295287
 20
88.919449
 30
0.0
 11
194.598338
 21
88.919449
 31
0.0
 11
196.184341
 21
88.854723
 31
0.0
 11
197.479366
 21
88.693413
 31
0.0
 11
198.586364
 21
88.484824
 31
0.0
 11
199.860596
 21
88.247051
 31
0.0
 11
201.142905
 21
88.081796
 31
0.0
 11
202.462517
 21
88.019866
 31
0.0
 11
203.780185
 21
88.081796
 31
0.0
 11
205.056822
 21
88.247051
 31
0.0
 11
206.322670
 21
88.484824
 31
0.0
 11
207.422373
 21
88.693413
 31
0.0
 11
208.711628
 21
88.854723
 31
0.0
 11
210.295287
 21
88.919449
 31
0.0
  0
SPLINE
  5
104
100
AcDbEntity
  8
Layer_1
 62
1
100
AcDbSpline
 70
0
 71
3
 72
13
 73
9
 74
7
 40
0.000000
 40
0.000000
 40
0.000000
 40
0.000000
 40
1.322762
 40
2.616764
 40
3.913227
 40
5.039244
 40
6.343974
 40
7.932096
 40
7.932096
 40
7.932096
 40
7.932096
 10
275.742445
 20
91.738511
 30
0.0
 10
275.301422
 20
91.725841
 30
0.0
 10
274.428963
 20
91.700778
 30
0.0
 10
273.134558
 20
91.523079
 30
0.0
 10
271.918830
 20
91.285528
 30
0.0
 10
270.700631
 20
91.040876
 30
0.0
 10
269.369485
 20
90.870788
 30
0.0
 10
268.404814
 20
90.850130
 30
0.0
 10
267.875227
 20
90.838789
 30
0.0
 11
275.742445
 21
91.738511
 31
0.0
 11
274.421136
 21
91.676543
 31
0.0
 11
273.137737
 21
91.511227
 31
0.0
 11
271.863267
 21
91.273439
 31
0.0
 11
270.756754
 21
91.064769
 31
0.0
 11
269.462032
 21
90.903485
 31
0.0
 11
267.875227
 21
90.838789
 31
0.0
  0
SPLINE
  5
105
100
AcDbEntity
  8
Layer_1
 62
1
100
AcDbSpline
 70
0
 71
3
 72
13
 73
9
 74
7
 40
0.000000
 40
0.000000
 40
0.000000
 40
0.000000
 40
1.320199
 40
2.608850
 40
3.898244
 40
5.018792
 40
6.319272
 40
7.905682
 40
7.905682
 40
7.905682
 40
7.905682
 10
275.715730
 20
89.939070
 30
0.0
 10
275.275559
 20
89.951710
 30
0.0
 10
274.405734
 20
89.976689
 30
0.0
 10
273.116341
 20
90.154315
 30
0.0
 10
271.906748
 20
90.392177
 30
0.0
 10
270.694262
 20
90.636882
 30
0.0
 10
269.366932
 20
90.806904
 30
0.0
 10
268.404245
 20
90.827481
 30
0.0
 10
267.875227
 20
90.838789
 30
0.0
 11
275.715730
 21
89.939070
 31
0.0
 11
274.396986
 21
90.001036
 31
0.0
 11
273.118984
 21
90.166356
 31
0.0
 11
271.851710
 21
90.404167
 31
0.0
 11
270.750758
 21
90.612815
 31
0.0
 11
269.460318
 21
90.774093
 31
0.0
 11
267.875227
 21
90.838789
 31
0.0
  0
SPLINE
  5
106
100
AcDbEntity
  8
Layer_1
 62
1
100
AcDbSpline
 70
0
 71
3
 72
13
 73
9
 74
7
 40
0.000000
 40
0.000000
 40
0.000000
 40
0.000000
 40
1.321668
 40
2.613928
 40
3.908594
 40
5.033622
 40
6.337669
 40
7.925536
 40
7.925536
 40
7.925536
 40
7.925536
 10
254.778643
 20
89.939070
 30
0.0
 10
255.219302
 20
89.951731
 30
0.0
 10
256.090817
 20
89.976772
 30
0.0
 10
257.383667
 20
90.154481
 30
0.0
 10
258.597831
 20
90.392164
 30
0.0
 10
259.814868
 20
90.636733
 30
0.0
 10
261.145370
 20
90.806810
 30
0.0
 10
262.109729
 20
90.827454
 30
0.0
 10
262.639231
 20
90.838789
 30
0.0
 11
254.778643
 21
89.939070
 31
0.0
 11
256.098857
 21
90.001036
 31
0.0
 11
257.380498
 21
90.166356
 31
0.0
 11
258.653136
 21
90.404167
 31
0.0
 11
259.758647
 21
90.612815
 31
0.0
 11
261.052682
 21
90.774093
 31
0.0
 11
262.639231
 21
90.838789
 31
0.0
  0
SPLINE
  5
107
100
AcDbEntity
  8
Layer_1
 62
1
100
AcDbSpline
 70
0
 71
3
 72
13
 73
9
 74
7
 40
0.000000
 40
0.000000
 40
0.000000
 40
0.000000
 40
1.321715
 40
2.612067
 40
3.903152
 40
5.024674
 40
6.325825
 40
7.912487
 40
7.912487
 40
7.912487
 40
7.912487
 10
254.791856
 20
91.738511
 30
0.0
 10
255.232533
 20
91.725868
 30
0.0
 10
256.103430
 20
91.700883
 30
0.0
 10
257.394469
 20
91.523252
 30
0.0
 10
258.605568
 20
91.285505
 30
0.0
 10
259.819173
 20
91.040728
 30
0.0
 10
261.147137
 20
90.870693
 30
0.0
 10
262.110130
 20
90.850102
 30
0.0
 10
262.639231
 20
90.838789
 30
0.0
 11
254.791856
 21
91.738511
 31
0.0
 11
256.112118
 21
91.676543
 31
0.0
 11
257.391836
 21
91.511227
 31
0.0
 11
258.660835
 21
91.273439
 31
0.0
 11
259.762773
 21
91.064769
 31
0.0
 11
261.053890
 21
90.903485
 31
0.0
 11
262.639231
 21
90.838789
 31
0.0
  0
SPLINE
  5
108
100
AcDbEntity
  8
Layer_1
 62
1
100
AcDbSpline
 70
0
 71
3
 72
19
 73
15
 74
13
 40
0.000000
 40
0.000000
 40
0.000000
 40
0.000000
 40
1.586678
 40
2.889908
 40
4.014499
 40
5.309296
 40
6.601677
 40
7.923109
 40
9.243816
 40
10.532876
 40
11.822448
 40
12.942411
 40
14.242118
 40
15.827395
 40
15.827395
 40
15.827395
 40
15.827395
 10
257.387254
 20
88.919449
 30
0.0
 10
257.916359
 20
88.930766
 30
0.0
 10
258.880049
 20
88.951378
 30
0.0
 10
260.209739
 20
89.121528
 30
0.0
 10
261.426391
 20
89.365661
 30
0.0
 10
262.640484
 20
89.605268
 30
0.0
 10
263.933340
 20
89.775708
 30
0.0
 10
265.245153
 20
89.841124
 30
0.0
 10
266.555867
 20
89.775830
 30
0.0
 10
267.845628
 20
89.605445
 30
0.0
 10
269.055216
 20
89.365675
 30
0.0
 10
270.267288
 20
89.121356
 30
0.0
 10
271.593795
 20
88.951289
 30
0.0
 10
272.555845
 20
88.930741
 30
0.0
 10
273.084485
 20
88.919449
 30
0.0
 11
257.387254
 21
88.919449
 31
0.0
 11
258.972614
 21
88.984109
 31
0.0
 11
260.265834
 21
89.145327
 31
0.0
 11
261.370902
 21
89.353961
 31
0.0
 11
262.643658
 21
89.591850
 31
0.0
 11
263.925418
 21
89.757201
 31
0.0
 11
265.245396
 21
89.819171
 31
0.0
 11
266.564649
 21
89.757201
 31
0.0
 11
267.843059
 21
89.591850
 31
0.0
 11
269.110500
 21
89.353961
 31
0.0
 11
270.210858
 21
89.145327
 31
0.0
 11
271.500527
 21
88.984109
 31
0.0
 11
273.084485
 21
88.919449
 31
0.0
  0
SPLINE
  5
109
100
AcDbEntity
  8
Layer_1
 62
1
100
AcDbSpline
 70
0
 71
3
 72
19
 73
15
 74
13
 40
0.000000
 40
0.000000
 40
0.000000
 40
0.000000
 40
1.587735
 40
2.889767
 40
4.011798
 40
5.302744
 40
6.592753
 40
7.914119
 40
9.237069
 40
10.530893
 40
11.827372
 40
12.954009
 40
14.259544
 40
15.848672
 40
15.848672
 40
15.848672
 40
15.848672
 10
257.419224
 20
92.758123
 30
0.0
 10
257.948683
 20
92.746829
 30
0.0
 10
258.912327
 20
92.726273
 30
0.0
 10
260.241128
 20
92.556198
 30
0.0
 10
261.455187
 20
92.312011
 30
0.0
 10
262.666255
 20
92.072183
 30
0.0
 10
263.957027
 20
91.901863
 30
0.0
 10
265.268782
 20
91.836599
 30
0.0
 10
266.581801
 20
91.901975
 30
0.0
 10
267.876226
 20
92.072345
 30
0.0
 10
269.092069
 20
92.311988
 30
0.0
 10
270.310790
 20
92.556031
 30
0.0
 10
271.642759
 20
92.726183
 30
0.0
 10
272.608033
 20
92.746803
 30
0.0
 10
273.137955
 20
92.758123
 30
0.0
 11
257.419224
 21
92.758123
 31
0.0
 11
259.005642
 21
92.693464
 31
0.0
 11
260.297654
 21
92.532247
 31
0.0
 11
261.400118
 21
92.323617
 31
0.0
 11
262.668963
 21
92.085760
 31
0.0
 11
263.948339
 21
91.920474
 31
0.0
 11
265.268253
 21
91.858540
 31
0.0
 11
266.589752
 21
91.920474
 31
0.0
 11
267.872975
 21
92.085760
 31
0.0
 11
269.147448
 21
92.323617
 31
0.0
 11
270.254600
 21
92.532247
 31
0.0
 11
271.550142
 21
92.693464
 31
0.0
 11
273.137955
 21
92.758123
 31
0.0
  0
SPLINE
  5
10a
100
AcDbEntity
  8
Layer_1
 62
1
100
AcDbSpline
 70
0
 71
3
 72
13
 73
9
 74
7
 40
0.000000
 40
0.000000
 40
0.000000
 40
0.000000
 40
0.816861
 40
1.623636
 40
2.410231
 40
3.950604
 40
5.681669
 40
7.925263
 40
7.925263
 40
7.925263
 40
7.925263
 10
254.799589
 20
91.738511
 30
0.0
 10
254.527269
 20
91.734704
 30
0.0
 10
253.985991
 20
91.727138
 30
0.0
 10
253.184498
 20
91.665692
 30
0.0
 10
252.147319
 20
91.535227
 30
0.0
 10
250.825673
 20
91.245258
 30
0.0
 10
249.016104
 20
90.900337
 30
0.0
 10
247.689294
 20
90.860996
 30
0.0
 10
246.940344
 20
90.838789
 30
0.0
 11
254.799589
 21
91.738511
 31
0.0
 11
253.982972
 21
91.718529
 31
0.0
 11
253.178428
 21
91.658585
 31
0.0
 11
252.398203
 21
91.558679
 31
0.0
 11
250.886017
 21
91.265349
 31
0.0
 11
249.179974
 21
90.972081
 31
0.0
 11
246.940344
 21
90.838789
 31
0.0
  0
SPLINE
  5
10b
100
AcDbEntity
  8
Layer_1
 62
1
100
AcDbSpline
 70
0
 71
3
 72
13
 73
9
 74
7
 40
0.000000
 40
0.000000
 40
0.000000
 40
0.000000
 40
0.816861
 40
1.623638
 40
2.410246
 40
3.950600
 40
5.681660
 40
7.925253
 40
7.925253
 40
7.925253
 40
7.925253
 10
254.799589
 20
89.939070
 30
0.0
 10
254.527269
 20
89.942877
 30
0.0
 10
253.985991
 20
89.950444
 30
0.0
 10
253.184491
 20
90.011899
 30
0.0
 10
252.147340
 20
90.142561
 30
0.0
 10
250.825659
 20
90.432302
 30
0.0
 10
249.016104
 20
90.777253
 30
0.0
 10
247.689295
 20
90.816586
 30
0.0
 10
246.940344
 20
90.838789
 30
0.0
 11
254.799589
 21
89.939070
 31
0.0
 11
253.982972
 21
89.959054
 31
0.0
 11
253.178428
 21
90.019030
 31
0.0
 11
252.398203
 21
90.119032
 31
0.0
 11
250.886017
 21
90.412265
 31
0.0
 11
249.179974
 21
90.705500
 31
0.0
 11
246.940344
 21
90.838789
 31
0.0
  0
SPLINE
  5
10c
100
AcDbEntity
  8
Layer_1
 62
1
100
AcDbSpline
 70
0
 71
3
 72
13
 73
9
 74
7
 40
0.000000
 40
0.000000
 40
0.000000
 40
0.000000
 40
0.816961
 40
1.623672
 40
2.410230
 40
3.950602
 40
5.681723
 40
7.925492
 40
7.925492
 40
7.925492
 40
7.925492
 10
233.841282
 20
89.939070
 30
0.0
 10
234.113635
 20
89.942876
 30
0.0
 10
234.654924
 20
89.950440
 30
0.0
 10
235.456419
 20
90.011900
 30
0.0
 10
236.493536
 20
90.142569
 30
0.0
 10
237.815227
 20
90.432305
 30
0.0
 10
239.624869
 20
90.777259
 30
0.0
 10
240.951757
 20
90.816588
 30
0.0
 10
241.700767
 20
90.838789
 30
0.0
 11
233.841282
 21
89.939070
 31
0.0
 11
234.657998
 21
89.959054
 31
0.0
 11
235.462477
 21
90.019030
 31
0.0
 11
236.242651
 21
90.119032
 31
0.0
 11
237.754855
 21
90.412265
 31
0.0
 11
239.460960
 21
90.705500
 31
0.0
 11
241.700767
 21
90.838789
 31
0.0
  0
SPLINE
  5
10d
100
AcDbEntity
  8
Layer_1
 62
1
100
AcDbSpline
 70
0
 71
3
 72
13
 73
9
 74
7
 40
0.000000
 40
0.000000
 40
0.000000
 40
0.000000
 40
0.816961
 40
1.623670
 40
2.410215
 40
3.950606
 40
5.681732
 40
7.925502
 40
7.925502
 40
7.925502
 40
7.925502
 10
233.841282
 20
91.738511
 30
0.0
 10
234.113635
 20
91.734705
 30
0.0
 10
234.654924
 20
91.727143
 30
0.0
 10
235.456412
 20
91.665692
 30
0.0
 10
236.493557
 20
91.535219
 30
0.0
 10
237.815213
 20
91.245255
 30
0.0
 10
239.624868
 20
90.900332
 30
0.0
 10
240.951758
 20
90.860994
 30
0.0
 10
241.700767
 20
90.838789
 30
0.0
 11
233.841282
 21
91.738511
 31
0.0
 11
234.657998
 21
91.718529
 31
0.0
 11
235.462477
 21
91.658585
 31
0.0
 11
236.242651
 21
91.558679
 31
0.0
 11
237.754855
 21
91.265349
 31
0.0
 11
239.460960
 21
90.972081
 31
0.0
 11
241.700767
 21
90.838789
 31
0.0
  0
SPLINE
  5
10e
100
AcDbEntity
  8
Layer_1
 62
1
100
AcDbSpline
 70
0
 71
3
 72
16
 73
12
 74
10
 40
0.000000
 40
0.000000
 40
0.000000
 40
0.000000
 40
2.243629
 40
3.974736
 40
5.514963
 40
7.107669
 40
8.740944
 40
10.333823
 40
11.874072
 40
13.605260
 40
15.849097
 40
15.849097
 40
15.849097
 40
15.849097
 10
236.461210
 20
88.919449
 30
0.0
 10
237.210177
 20
88.941624
 30
0.0
 10
238.537023
 20
88.980909
 30
0.0
 10
240.346515
 20
89.326118
 30
0.0
 10
241.930910
 20
89.672325
 30
0.0
 10
243.516375
 20
89.825710
 30
0.0
 10
245.124346
 20
89.825700
 30
0.0
 10
246.709878
 20
89.672341
 30
0.0
 10
248.294363
 20
89.326110
 30
0.0
 10
250.103961
 20
88.980904
 30
0.0
 10
251.430903
 20
88.941623
 30
0.0
 10
252.179940
 20
88.919449
 30
0.0
 11
236.461210
 21
88.919449
 31
0.0
 11
238.700876
 21
89.052731
 31
0.0
 11
240.406974
 21
89.345928
 31
0.0
 11
241.919049
 21
89.639062
 31
0.0
 11
243.503694
 21
89.799097
 31
0.0
 11
245.136970
 21
89.799097
 31
0.0
 11
246.721788
 21
89.639062
 31
0.0
 11
248.233886
 21
89.345928
 31
0.0
 11
249.940065
 21
89.052731
 31
0.0
 11
252.179940
 21
88.919449
 31
0.0
  0
SPLINE
  5
10f
100
AcDbEntity
  8
Layer_1
 62
1
100
AcDbSpline
 70
0
 71
3
 72
16
 73
12
 74
10
 40
0.000000
 40
0.000000
 40
0.000000
 40
0.000000
 40
2.243627
 40
3.974736
 40
5.514993
 40
7.107680
 40
8.740956
 40
10.333816
 40
11.874095
 40
13.605284
 40
15.849119
 40
15.849119
 40
15.849119
 40
15.849119
 10
236.461210
 20
92.758123
 30
0.0
 10
237.210176
 20
92.735950
 30
0.0
 10
238.537019
 20
92.696669
 30
0.0
 10
240.346539
 20
92.351550
 30
0.0
 10
241.930876
 20
92.004997
 30
0.0
 10
243.516394
 20
91.851968
 30
0.0
 10
245.124327
 20
91.851978
 30
0.0
 10
246.709912
 20
92.004982
 30
0.0
 10
248.294339
 20
92.351558
 30
0.0
 10
250.103965
 20
92.696673
 30
0.0
 10
251.430905
 20
92.735951
 30
0.0
 10
252.179940
 20
92.758123
 30
0.0
 11
236.461210
 21
92.758123
 31
0.0
 11
238.700876
 21
92.624866
 31
0.0
 11
240.406974
 21
92.331665
 31
0.0
 11
241.919049
 21
92.038372
 31
0.0
 11
243.503694
 21
91.878519
 31
0.0
 11
245.136970
 21
91.878519
 31
0.0
 11
246.721788
 21
92.038372
 31
0.0
 11
248.233886
 21
92.331665
 31
0.0
 11
249.940065
 21
92.624866
 31
0.0
 11
252.179940
 21
92.758123
 31
0.0
  0
SPLINE
  5
110
100
AcDbEntity
  8
Layer_1
 62
1
100
AcDbSpline
 70
0
 71
3
 72
13
 73
9
 74
7
 40
0.000000
 40
0.000000
 40
0.000000
 40
0.000000
 40
1.322032
 40
2.613669
 40
3.906692
 40
5.029647
 40
6.332003
 40
7.919022
 40
7.919022
 40
7.919022
 40
7.919022
 10
233.841282
 20
91.738511
 30
0.0
 10
233.400500
 20
91.725858
 30
0.0
 10
232.529070
 20
91.700845
 30
0.0
 10
231.236850
 20
91.523183
 30
0.0
 10
230.024150
 20
91.285539
 30
0.0
 10
228.808990
 20
91.040766
 30
0.0
 10
227.480024
 20
90.870734
 30
0.0
 10
226.516511
 20
90.850114
 30
0.0
 10
225.987291
 20
90.838789
 30
0.0
 11
233.841282
 21
91.738511
 31
0.0
 11
232.520703
 21
91.676543
 31
0.0
 11
231.239689
 21
91.511227
 31
0.0
 11
229.968719
 21
91.273439
 31
0.0
 11
228.865321
 21
91.064769
 31
0.0
 11
227.572991
 21
90.903485
 31
0.0
 11
225.987291
 21
90.838789
 31
0.0
  0
SPLINE
  5
111
100
AcDbEntity
  8
Layer_1
 62
1
100
AcDbSpline
 70
0
 71
3
 72
13
 73
9
 74
7
 40
0.000000
 40
0.000000
 40
0.000000
 40
0.000000
 40
1.321254
 40
2.612351
 40
3.905323
 40
5.028860
 40
6.331756
 40
7.919013
 40
7.919013
 40
7.919013
 40
7.919013
 10
233.841282
 20
89.939070
 30
0.0
 10
233.400759
 20
89.951724
 30
0.0
 10
232.529769
 20
89.976742
 30
0.0
 10
231.238012
 20
90.154429
 30
0.0
 10
230.025334
 20
90.392161
 30
0.0
 10
228.809781
 20
90.636787
 30
0.0
 10
227.480363
 20
90.806832
 30
0.0
 10
226.516590
 20
90.827460
 30
0.0
 10
225.987291
 20
90.838789
 30
0.0
 11
233.841282
 21
89.939070
 31
0.0
 11
232.521481
 21
90.001036
 31
0.0
 11
231.241012
 21
90.166356
 31
0.0
 11
229.970099
 21
90.404167
 31
0.0
 11
228.866105
 21
90.612815
 31
0.0
 11
227.573230
 21
90.774093
 31
0.0
 11
225.987291
 21
90.838789
 31
0.0
  0
SPLINE
  5
112
100
AcDbEntity
  8
Layer_1
 62
1
100
AcDbSpline
 70
0
 71
3
 72
13
 73
9
 74
7
 40
0.000000
 40
0.000000
 40
0.000000
 40
0.000000
 40
1.320624
 40
2.610500
 40
3.901782
 40
5.023761
 40
6.325438
 40
7.912202
 40
7.912202
 40
7.912202
 40
7.912202
 10
212.904180
 20
89.939070
 30
0.0
 10
213.344493
 20
89.951718
 30
0.0
 10
214.214867
 20
89.976718
 30
0.0
 10
215.505439
 20
90.154385
 30
0.0
 10
216.716594
 20
90.392149
 30
0.0
 10
217.930616
 20
90.636843
 30
0.0
 10
219.258944
 20
90.806863
 30
0.0
 10
220.222146
 20
90.827469
 30
0.0
 10
220.751281
 20
90.838789
 30
0.0
 11
212.904180
 21
89.939070
 31
0.0
 11
214.223350
 21
90.001036
 31
0.0
 11
215.502588
 21
90.166356
 31
0.0
 11
216.771782
 21
90.404167
 31
0.0
 11
217.874190
 21
90.612815
 31
0.0
 11
219.165837
 21
90.774093
 31
0.0
 11
220.751281
 21
90.838789
 31
0.0
  0
SPLINE
  5
113
100
AcDbEntity
  8
Layer_1
 62
1
100
AcDbSpline
 70
0
 71
3
 72
13
 73
9
 74
7
 40
0.000000
 40
0.000000
 40
0.000000
 40
0.000000
 40
1.322456
 40
2.615244
 40
3.909960
 40
5.034588
 40
6.338095
 40
7.925542
 40
7.925542
 40
7.925542
 40
7.925542
 10
212.890693
 20
91.738511
 30
0.0
 10
213.331615
 20
91.725851
 30
0.0
 10
214.203568
 20
91.700815
 30
0.0
 10
215.496882
 20
91.523134
 30
0.0
 10
216.711119
 20
91.285511
 30
0.0
 10
217.927834
 20
91.040843
 30
0.0
 10
219.257880
 20
90.870760
 30
0.0
 10
220.221919
 20
90.850122
 30
0.0
 10
220.751281
 20
90.838789
 30
0.0
 11
212.890693
 21
91.738511
 31
0.0
 11
214.211696
 21
91.676543
 31
0.0
 11
215.493870
 21
91.511227
 31
0.0
 11
216.766563
 21
91.273439
 31
0.0
 11
217.871663
 21
91.064769
 31
0.0
 11
219.165153
 21
90.903485
 31
0.0
 11
220.751281
 21
90.838789
 31
0.0
  0
SPLINE
  5
114
100
AcDbEntity
  8
Layer_1
 62
1
100
AcDbSpline
 70
0
 71
3
 72
19
 73
15
 74
13
 40
0.000000
 40
0.000000
 40
0.000000
 40
0.000000
 40
1.585904
 40
2.886845
 40
4.008507
 40
5.299497
 40
6.589434
 40
7.910312
 40
9.231751
 40
10.523176
 40
11.816186
 40
12.939286
 40
14.241421
 40
15.827673
 40
15.827673
 40
15.827673
 40
15.827673
 10
215.527690
 20
88.919449
 30
0.0
 10
216.056538
 20
88.930746
 30
0.0
 10
217.019209
 20
88.951310
 30
0.0
 10
218.346898
 20
89.121432
 30
0.0
 10
219.560476
 20
89.365611
 30
0.0
 10
220.771416
 20
89.605403
 30
0.0
 10
222.062002
 20
89.775796
 30
0.0
 10
223.373065
 20
89.841123
 30
0.0
 10
224.684621
 20
89.775749
 30
0.0
 10
225.976568
 20
89.605348
 30
0.0
 10
227.189206
 20
89.365652
 30
0.0
 10
228.404364
 20
89.121471
 30
0.0
 10
229.733050
 20
88.951350
 30
0.0
 10
230.696233
 20
88.930758
 30
0.0
 10
231.225197
 20
88.919449
 30
0.0
 11
215.527690
 21
88.919449
 31
0.0
 11
217.112274
 21
88.984109
 31
0.0
 11
218.403188
 21
89.145327
 31
0.0
 11
219.505276
 21
89.353961
 31
0.0
 11
220.774159
 21
89.591850
 31
0.0
 11
222.053454
 21
89.757201
 31
0.0
 11
223.372878
 21
89.819171
 31
0.0
 11
224.692863
 21
89.757201
 31
0.0
 11
225.973658
 21
89.591850
 31
0.0
 11
227.244597
 21
89.353961
 31
0.0
 11
228.348148
 21
89.145327
 31
0.0
 11
229.640264
 21
88.984109
 31
0.0
 11
231.225197
 21
88.919449
 31
0.0
  0
SPLINE
  5
115
100
AcDbEntity
  8
Layer_1
 62
1
100
AcDbSpline
 70
0
 71
3
 72
19
 73
15
 74
13
 40
0.000000
 40
0.000000
 40
0.000000
 40
0.000000
 40
1.588651
 40
2.892978
 40
4.018064
 40
5.312621
 40
6.605070
 40
7.927191
 40
9.249283
 40
10.540795
 40
11.833890
 40
12.957403
 40
14.260514
 40
15.848669
 40
15.848669
 40
15.848669
 40
15.848669
 10
215.502885
 20
92.758123
 30
0.0
 10
216.032648
 20
92.746812
 30
0.0
 10
216.997361
 20
92.726215
 30
0.0
 10
218.328251
 20
92.556084
 30
0.0
 10
219.545374
 20
92.312002
 30
0.0
 10
220.759558
 20
92.072293
 30
0.0
 10
222.052604
 20
91.901946
 30
0.0
 10
223.365132
 20
91.836597
 30
0.0
 10
224.677352
 20
91.901903
 30
0.0
 10
225.969585
 20
92.072249
 30
0.0
 10
227.182419
 20
92.311962
 30
0.0
 10
228.398079
 20
92.556145
 30
0.0
 10
229.727874
 20
92.726244
 30
0.0
 10
230.692018
 20
92.746821
 30
0.0
 10
231.221616
 20
92.758123
 30
0.0
 11
215.502885
 21
92.758123
 31
0.0
 11
217.090219
 21
92.693464
 31
0.0
 11
218.384545
 21
92.532247
 31
0.0
 11
219.490118
 21
92.323617
 31
0.0
 11
220.762637
 21
92.085760
 31
0.0
 11
222.044472
 21
91.920474
 31
0.0
 11
223.365142
 21
91.858540
 31
0.0
 11
224.685783
 21
91.920474
 31
0.0
 11
225.966675
 21
92.085760
 31
0.0
 11
227.237705
 21
92.323617
 31
0.0
 11
228.341678
 21
92.532247
 31
0.0
 11
229.634778
 21
92.693464
 31
0.0
 11
231.221616
 21
92.758123
 31
0.0
  0
SPLINE
  5
116
100
AcDbEntity
  8
Layer_1
 62
1
100
AcDbSpline
 70
0
 71
3
 72
13
 73
9
 74
7
 40
0.000000
 40
0.000000
 40
0.000000
 40
0.000000
 40
1.321540
 40
2.611890
 40
3.903161
 40
5.024611
 40
6.325818
 40
7.912219
 40
7.912219
 40
7.912219
 40
7.912219
 10
212.890693
 20
91.738511
 30
0.0
 10
212.450074
 20
91.725867
 30
0.0
 10
211.579236
 20
91.700878
 30
0.0
 10
210.288198
 20
91.523228
 30
0.0
 10
209.077050
 20
91.285538
 30
0.0
 10
207.863397
 20
91.040711
 30
0.0
 10
206.535521
 20
90.870712
 30
0.0
 10
205.572597
 20
90.850108
 30
0.0
 10
205.043583
 20
90.838789
 30
0.0
 11
212.890693
 21
91.738511
 31
0.0
 11
211.570606
 21
91.676543
 31
0.0
 11
210.290890
 21
91.511227
 31
0.0
 11
209.021703
 21
91.273439
 31
0.0
 11
207.919837
 21
91.064769
 31
0.0
 11
206.628664
 21
90.903485
 31
0.0
 11
205.043583
 21
90.838789
 31
0.0
  0
SPLINE
  5
117
100
AcDbEntity
  8
Layer_1
 62
1
100
AcDbSpline
 70
0
 71
3
 72
13
 73
9
 74
7
 40
0.000000
 40
0.000000
 40
0.000000
 40
0.000000
 40
1.321875
 40
2.614264
 40
3.909123
 40
5.034033
 40
6.338008
 40
7.925543
 40
7.925543
 40
7.925543
 40
7.925543
 10
212.904180
 20
89.939070
 30
0.0
 10
212.463451
 20
89.951730
 30
0.0
 10
211.591824
 20
89.976766
 30
0.0
 10
210.298799
 20
90.154493
 30
0.0
 10
209.084557
 20
90.392126
 30
0.0
 10
207.867528
 20
90.636744
 30
0.0
 10
206.537198
 20
90.806796
 30
0.0
 10
205.572974
 20
90.827450
 30
0.0
 10
205.043583
 20
90.838789
 30
0.0
 11
212.904180
 21
89.939070
 31
0.0
 11
211.583758
 21
90.001036
 31
0.0
 11
210.301987
 21
90.166356
 31
0.0
 11
209.029153
 21
90.404167
 31
0.0
 11
207.923763
 21
90.612815
 31
0.0
 11
206.629799
 21
90.774093
 31
0.0
 11
205.043583
 21
90.838789
 31
0.0
  0
SPLINE
  5
118
100
AcDbEntity
  8
Layer_1
 62
1
100
AcDbSpline
 70
0
 71
3
 72
13
 73
9
 74
7
 40
0.000000
 40
0.000000
 40
0.000000
 40
0.000000
 40
1.320323
 40
2.608982
 40
3.898515
 40
5.018930
 40
6.319399
 40
7.905674
 40
7.905674
 40
7.905674
 40
7.905674
 10
191.966819
 20
89.939070
 30
0.0
 10
192.407032
 20
89.951708
 30
0.0
 10
193.276902
 20
89.976680
 30
0.0
 10
194.566381
 20
90.154334
 30
0.0
 10
195.775989
 20
90.392142
 30
0.0
 10
196.988463
 20
90.636900
 30
0.0
 10
198.315704
 20
90.806894
 30
0.0
 10
199.278341
 20
90.827478
 30
0.0
 10
199.807314
 20
90.838789
 30
0.0
 11
191.966819
 21
89.939070
 31
0.0
 11
193.285687
 21
90.001036
 31
0.0
 11
194.563698
 21
90.166356
 31
0.0
 11
195.831113
 21
90.404167
 31
0.0
 11
196.931929
 21
90.612815
 31
0.0
 11
198.222359
 21
90.774093
 31
0.0
 11
199.807314
 21
90.838789
 31
0.0
  0
SPLINE
  5
119
100
AcDbEntity
  8
Layer_1
 62
1
100
AcDbSpline
 70
0
 71
3
 72
13
 73
9
 74
7
 40
0.000000
 40
0.000000
 40
0.000000
 40
0.000000
 40
1.322965
 40
2.617043
 40
3.913511
 40
5.039524
 40
6.344183
 40
7.932108
 40
7.932108
 40
7.932108
 40
7.932108
 10
191.940084
 20
91.738511
 30
0.0
 10
192.381175
 20
91.725843
 30
0.0
 10
193.253727
 20
91.700783
 30
0.0
 10
194.548228
 20
91.523086
 30
0.0
 10
195.763981
 20
91.285529
 30
0.0
 10
196.982158
 20
91.040882
 30
0.0
 10
198.313211
 20
90.870792
 30
0.0
 10
199.277793
 20
90.850131
 30
0.0
 10
199.807314
 20
90.838789
 30
0.0
 11
191.940084
 21
91.738511
 31
0.0
 11
193.261597
 21
91.676543
 31
0.0
 11
194.545072
 21
91.511227
 31
0.0
 11
195.819547
 21
91.273439
 31
0.0
 11
196.926056
 21
91.064769
 31
0.0
 11
198.220707
 21
90.903485
 31
0.0
 11
199.807314
 21
90.838789
 31
0.0
  0
SPLINE
  5
11a
100
AcDbEntity
  8
Layer_1
 62
1
100
AcDbSpline
 70
0
 71
3
 72
19
 73
15
 74
13
 40
0.000000
 40
0.000000
 40
0.000000
 40
0.000000
 40
1.585085
 40
2.884787
 40
4.004927
 40
5.294231
 40
6.582941
 40
7.903190
 40
9.225259
 40
10.517919
 40
11.812639
 40
12.937275
 40
14.240562
 40
15.827115
 40
15.827115
 40
15.827115
 40
15.827115
 10
194.598338
 20
88.919449
 30
0.0
 10
195.126914
 20
88.930741
 30
0.0
 10
196.088899
 20
88.951291
 30
0.0
 10
197.415394
 20
89.121382
 30
0.0
 10
198.627449
 20
89.365620
 30
0.0
 10
199.836876
 20
89.605444
 30
0.0
 10
201.126277
 20
89.775828
 30
0.0
 10
202.436935
 20
89.841123
 30
0.0
 10
203.748900
 20
89.775716
 30
0.0
 10
205.042043
 20
89.605306
 30
0.0
 10
206.256210
 20
89.365643
 30
0.0
 10
207.472875
 20
89.121530
 30
0.0
 10
208.802556
 20
88.951386
 30
0.0
 10
209.766223
 20
88.930768
 30
0.0
 10
210.295287
 20
88.919449
 30
0.0
 11
194.598338
 21
88.919449
 31
0.0
 11
196.182103
 21
88.984109
 31
0.0
 11
197.471767
 21
89.145327
 31
0.0
 11
198.572306
 21
89.353961
 31
0.0
 11
199.839474
 21
89.591850
 31
0.0
 11
201.117533
 21
89.757201
 31
0.0
 11
202.436326
 21
89.819171
 31
0.0
 11
203.756942
 21
89.757201
 31
0.0
 11
205.038983
 21
89.591850
 31
0.0
 11
206.311661
 21
89.353961
 31
0.0
 11
207.416775
 21
89.145327
 31
0.0
 11
208.710052
 21
88.984109
 31
0.0
 11
210.295287
 21
88.919449
 31
0.0
  0
SPLINE
  5
11b
100
AcDbEntity
  8
Layer_1
 62
1
100
AcDbSpline
 70
0
 71
3
 72
19
 73
15
 74
13
 40
0.000000
 40
0.000000
 40
0.000000
 40
0.000000
 40
1.589192
 40
2.894798
 40
4.021335
 40
5.317600
 40
6.611271
 40
7.933998
 40
9.255665
 40
10.545955
 40
11.837164
 40
12.959183
 40
14.261137
 40
15.848672
 40
15.848672
 40
15.848672
 40
15.848672
 10
194.544577
 20
92.758123
 30
0.0
 10
195.074520
 20
92.746802
 30
0.0
 10
196.039839
 20
92.726179
 30
0.0
 10
197.371823
 20
92.556048
 30
0.0
 10
198.590460
 20
92.311998
 30
0.0
 10
199.806142
 20
92.072338
 30
0.0
 10
201.100370
 20
91.901978
 30
0.0
 10
202.413363
 20
91.836598
 30
0.0
 10
203.725238
 20
91.901864
 30
0.0
 10
205.016293
 20
92.072184
 30
0.0
 10
206.227548
 20
92.311980
 30
0.0
 10
207.441660
 20
92.556196
 30
0.0
 10
208.770365
 20
92.726268
 30
0.0
 10
209.733916
 20
92.746827
 30
0.0
 10
210.263308
 20
92.758123
 30
0.0
 11
194.544577
 21
92.758123
 31
0.0
 11
196.132454
 21
92.693464
 31
0.0
 11
197.428067
 21
92.532247
 31
0.0
 11
198.535118
 21
92.323617
 31
0.0
 11
199.809373
 21
92.085760
 31
0.0
 11
201.092442
 21
91.920474
 31
0.0
 11
202.413718
 21
91.858540
 31
0.0
 11
203.733933
 21
91.920474
 31
0.0
 11
205.013593
 21
92.085760
 31
0.0
 11
206.282705
 21
92.323617
 31
0.0
 11
207.385156
 21
92.532247
 31
0.0
 11
208.677091
 21
92.693464
 31
0.0
 11
210.263308
 21
92.758123
 31
0.0
  0
SPLINE
  5
11c
100
AcDbEntity
  8
Layer_1
 62
1
100
AcDbSpline
 70
0
 71
3
 72
13
 73
9
 74
7
 40
0.000000
 40
0.000000
 40
0.000000
 40
0.000000
 40
1.324030
 40
2.618330
 40
3.914611
 40
5.040693
 40
6.345925
 40
7.935418
 40
7.935418
 40
7.935418
 40
7.935418
 10
275.782408
 20
95.577588
 30
0.0
 10
275.340961
 20
95.564936
 30
0.0
 10
274.467979
 20
95.539916
 30
0.0
 10
273.173093
 20
95.362298
 30
0.0
 10
271.957340
 20
95.124552
 30
0.0
 10
270.739012
 20
94.879893
 30
0.0
 10
269.407223
 20
94.709733
 30
0.0
 10
268.441926
 20
94.689084
 30
0.0
 10
267.911882
 20
94.677745
 30
0.0
 11
275.782408
 21
95.577588
 31
0.0
 11
274.459827
 21
95.515651
 31
0.0
 11
273.176124
 21
95.350364
 31
0.0
 11
271.901852
 21
95.112508
 31
0.0
 11
270.795279
 21
94.903811
 31
0.0
 11
269.500056
 21
94.742471
 31
0.0
 11
267.911882
 21
94.677745
 31
0.0
  0
SPLINE
  5
11d
100
AcDbEntity
  8
Layer_1
 62
1
100
AcDbSpline
 70
0
 71
3
 72
13
 73
9
 74
7
 40
0.000000
 40
0.000000
 40
0.000000
 40
0.000000
 40
1.322296
 40
2.613405
 40
3.905631
 40
5.028386
 40
6.331099
 40
7.919596
 40
7.919596
 40
7.919596
 40
7.919596
 10
275.766440
 20
93.778162
 30
0.0
 10
275.325570
 20
93.790796
 30
0.0
 10
274.454228
 20
93.815768
 30
0.0
 10
273.162345
 20
93.993335
 30
0.0
 10
271.950212
 20
94.231237
 30
0.0
 10
270.735245
 20
94.475892
 30
0.0
 10
269.405720
 20
94.645855
 30
0.0
 10
268.441595
 20
94.666437
 30
0.0
 10
267.911882
 20
94.677745
 30
0.0
 11
275.766440
 21
93.778162
 31
0.0
 11
274.445595
 21
93.840091
 31
0.0
 11
273.165108
 21
94.005369
 31
0.0
 11
271.894963
 21
94.243233
 31
0.0
 11
270.791760
 21
94.451853
 31
0.0
 11
269.499062
 21
94.613078
 31
0.0
 11
267.911882
 21
94.677745
 31
0.0
  0
SPLINE
  5
11e
100
AcDbEntity
  8
Layer_1
 62
1
100
AcDbSpline
 70
0
 71
3
 72
13
 73
9
 74
7
 40
0.000000
 40
0.000000
 40
0.000000
 40
0.000000
 40
1.323071
 40
2.616286
 40
3.911621
 40
5.037097
 40
6.341962
 40
7.931036
 40
7.931036
 40
7.931036
 40
7.931036
 10
254.803983
 20
93.778162
 30
0.0
 10
255.245111
 20
93.790810
 30
0.0
 10
256.117411
 20
93.815821
 30
0.0
 10
257.411295
 20
93.993433
 30
0.0
 10
258.626140
 20
94.231239
 30
0.0
 10
259.843838
 20
94.475799
 30
0.0
 10
261.175181
 20
94.645786
 30
0.0
 10
262.140214
 20
94.666417
 30
0.0
 10
262.670118
 20
94.677745
 30
0.0
 11
254.803983
 21
93.778162
 31
0.0
 11
256.125604
 21
93.840091
 31
0.0
 11
257.408214
 21
94.005369
 31
0.0
 11
258.681522
 21
94.243233
 31
0.0
 11
259.787494
 21
94.451853
 31
0.0
 11
261.082361
 21
94.613078
 31
0.0
 11
262.670118
 21
94.677745
 31
0.0
  0
SPLINE
  5
11f
100
AcDbEntity
  8
Layer_1
 62
1
100
AcDbSpline
 70
0
 71
3
 72
13
 73
9
 74
7
 40
0.000000
 40
0.000000
 40
0.000000
 40
0.000000
 40
1.323073
 40
2.615268
 40
3.908618
 40
5.031959
 40
6.335081
 40
7.923429
 40
7.923429
 40
7.923429
 40
7.923429
 10
254.811716
 20
95.577588
 30
0.0
 10
255.252845
 20
95.564948
 30
0.0
 10
256.124808
 20
95.539964
 30
0.0
 10
257.417688
 20
95.362374
 30
0.0
 10
258.630792
 20
95.124579
 30
0.0
 10
259.846452
 20
94.879791
 30
0.0
 10
261.176243
 20
94.709693
 30
0.0
 10
262.140455
 20
94.689072
 30
0.0
 10
262.670118
 20
94.677745
 30
0.0
 11
254.811716
 21
95.577588
 31
0.0
 11
256.133339
 21
95.515651
 31
0.0
 11
257.414919
 21
95.350364
 31
0.0
 11
258.686210
 21
95.112508
 31
0.0
 11
259.789994
 21
94.903811
 31
0.0
 11
261.083090
 21
94.742471
 31
0.0
 11
262.670118
 21
94.677745
 31
0.0
  0
SPLINE
  5
120
100
AcDbEntity
  8
Layer_1
 62
1
100
AcDbSpline
 70
0
 71
3
 72
19
 73
15
 74
13
 40
0.000000
 40
0.000000
 40
0.000000
 40
0.000000
 40
1.588659
 40
2.893081
 40
4.018370
 40
5.313562
 40
6.606839
 40
7.929975
 40
9.252348
 40
10.543645
 40
11.836100
 40
12.958725
 40
14.260982
 40
15.848749
 40
15.848749
 40
15.848749
 40
15.848749
 10
257.419224
 20
92.758123
 30
0.0
 10
257.948990
 20
92.769451
 30
0.0
 10
258.913738
 20
92.790081
 30
0.0
 10
260.244712
 20
92.960388
 30
0.0
 10
261.462093
 20
93.204762
 30
0.0
 10
262.676887
 20
93.444250
 30
0.0
 10
263.970762
 20
93.614595
 30
0.0
 10
265.283999
 20
93.679922
 30
0.0
 10
266.596582
 20
93.614659
 30
0.0
 10
267.888622
 20
93.444313
 30
0.0
 10
269.100904
 20
93.204802
 30
0.0
 10
270.315689
 20
92.960297
 30
0.0
 10
271.644755
 20
92.790025
 30
0.0
 10
272.608485
 20
92.769435
 30
0.0
 10
273.137955
 20
92.758123
 30
0.0
 11
257.419224
 21
92.758123
 31
0.0
 11
259.006564
 21
92.822860
 31
0.0
 11
260.300963
 21
92.984243
 31
0.0
 11
261.406713
 21
93.193030
 31
0.0
 11
262.679893
 21
93.430804
 31
0.0
 11
263.962569
 21
93.596058
 31
0.0
 11
265.284255
 21
93.657989
 31
0.0
 11
266.605177
 21
93.596058
 31
0.0
 11
267.885856
 21
93.430804
 31
0.0
 11
269.156251
 21
93.193030
 31
0.0
 11
270.259290
 21
92.984243
 31
0.0
 11
271.551508
 21
92.822860
 31
0.0
 11
273.137955
 21
92.758123
 31
0.0
  0
SPLINE
  5
121
100
AcDbEntity
  8
Layer_1
 62
1
100
AcDbSpline
 70
0
 71
3
 72
19
 73
15
 74
13
 40
0.000000
 40
0.000000
 40
0.000000
 40
0.000000
 40
1.589066
 40
2.892666
 40
4.016189
 40
5.309378
 40
6.601296
 40
7.924222
 40
9.248212
 40
10.542443
 40
11.838813
 40
12.965129
 40
14.270821
 40
15.860721
 40
15.860721
 40
15.860721
 40
15.860721
 10
257.438240
 20
96.597336
 30
0.0
 10
257.968141
 20
96.586032
 30
0.0
 10
258.932750
 20
96.565454
 30
0.0
 10
260.263029
 20
96.395398
 30
0.0
 10
261.478847
 20
96.150990
 30
0.0
 10
262.691884
 20
95.911429
 30
0.0
 10
263.984566
 20
95.741086
 30
0.0
 10
265.297824
 20
95.675817
 30
0.0
 10
266.611847
 20
95.741153
 30
0.0
 10
267.906724
 20
95.911507
 30
0.0
 10
269.122589
 20
96.150998
 30
0.0
 10
270.341170
 20
96.395291
 30
0.0
 10
271.673354
 20
96.565403
 30
0.0
 10
272.638936
 20
96.586017
 30
0.0
 10
273.169115
 20
96.597336
 30
0.0
 11
257.438240
 21
96.597336
 31
0.0
 11
259.025990
 21
96.532671
 31
0.0
 11
260.319579
 21
96.371422
 31
0.0
 11
261.423545
 21
96.162711
 31
0.0
 11
262.694687
 21
95.924937
 31
0.0
 11
263.975993
 21
95.759683
 31
0.0
 11
265.297468
 21
95.697753
 31
0.0
 11
266.620009
 21
95.759683
 31
0.0
 11
267.903646
 21
95.924937
 31
0.0
 11
269.178024
 21
96.162711
 31
0.0
 11
270.284834
 21
96.371422
 31
0.0
 11
271.580531
 21
96.532671
 31
0.0
 11
273.169115
 21
96.597336
 31
0.0
  0
SPLINE
  5
122
100
AcDbEntity
  8
Layer_1
 62
1
100
AcDbSpline
 70
0
 71
3
 72
13
 73
9
 74
7
 40
0.000000
 40
0.000000
 40
0.000000
 40
0.000000
 40
0.817791
 40
1.625258
 40
2.412433
 40
3.953806
 40
5.686307
 40
7.931816
 40
7.931816
 40
7.931816
 40
7.931816
 10
254.816401
 20
95.577588
 30
0.0
 10
254.543772
 20
95.573789
 30
0.0
 10
254.001954
 20
95.566239
 30
0.0
 10
253.199717
 20
95.504843
 30
0.0
 10
252.161821
 20
95.374022
 30
0.0
 10
250.839092
 20
95.084394
 30
0.0
 10
249.028078
 20
94.739304
 30
0.0
 10
247.700150
 20
94.699956
 30
0.0
 10
246.950560
 20
94.677745
 30
0.0
 11
254.816401
 21
95.577588
 31
0.0
 11
253.998854
 21
95.557630
 31
0.0
 11
253.193616
 21
95.497676
 31
0.0
 11
252.412827
 21
95.397606
 31
0.0
 11
250.899597
 21
95.104407
 31
0.0
 11
249.192106
 21
94.811092
 31
0.0
 11
246.950560
 21
94.677745
 31
0.0
  0
SPLINE
  5
123
100
AcDbEntity
  8
Layer_1
 62
1
100
AcDbSpline
 70
0
 71
3
 72
13
 73
9
 74
7
 40
0.000000
 40
0.000000
 40
0.000000
 40
0.000000
 40
0.817791
 40
1.625254
 40
2.412396
 40
3.953795
 40
5.686288
 40
7.931794
 40
7.931794
 40
7.931794
 40
7.931794
 10
254.816401
 20
93.778162
 30
0.0
 10
254.543771
 20
93.781965
 30
0.0
 10
254.001954
 20
93.789525
 30
0.0
 10
253.199737
 20
93.850949
 30
0.0
 10
252.161774
 20
93.981231
 30
0.0
 10
250.839125
 20
94.271329
 30
0.0
 10
249.028067
 20
94.616185
 30
0.0
 10
247.700146
 20
94.655533
 30
0.0
 10
246.950560
 20
94.677745
 30
0.0
 11
254.816401
 21
93.778162
 31
0.0
 11
253.998854
 21
93.798136
 31
0.0
 11
253.193616
 21
93.858042
 31
0.0
 11
252.412827
 21
93.957850
 31
0.0
 11
250.899597
 21
94.251181
 31
0.0
 11
249.192106
 21
94.544451
 31
0.0
 11
246.950560
 21
94.677745
 31
0.0
  0
SPLINE
  5
124
100
AcDbEntity
  8
Layer_1
 62
1
100
AcDbSpline
 70
0
 71
3
 72
13
 73
9
 74
7
 40
0.000000
 40
0.000000
 40
0.000000
 40
0.000000
 40
0.817590
 40
1.624975
 40
2.412123
 40
3.953498
 40
5.685991
 40
7.931520
 40
7.931520
 40
7.931520
 40
7.931520
 10
233.841282
 20
93.778162
 30
0.0
 10
234.113845
 20
93.781966
 30
0.0
 10
234.655569
 20
93.789527
 30
0.0
 10
235.457693
 20
93.850954
 30
0.0
 10
236.495626
 20
93.981228
 30
0.0
 10
237.818268
 20
94.271333
 30
0.0
 10
239.629326
 20
94.616185
 30
0.0
 10
240.957255
 20
94.655533
 30
0.0
 10
241.706849
 20
94.677745
 30
0.0
 11
233.841282
 21
93.778162
 31
0.0
 11
234.658628
 21
93.798136
 31
0.0
 11
235.463787
 21
93.858042
 31
0.0
 11
236.244582
 21
93.957850
 31
0.0
 11
237.757788
 21
94.251181
 31
0.0
 11
239.465279
 21
94.544451
 31
0.0
 11
241.706849
 21
94.677745
 31
0.0
  0
SPLINE
  5
125
100
AcDbEntity
  8
Layer_1
 62
1
100
AcDbSpline
 70
0
 71
3
 72
13
 73
9
 74
7
 40
0.000000
 40
0.000000
 40
0.000000
 40
0.000000
 40
0.817590
 40
1.624978
 40
2.412159
 40
3.953509
 40
5.686011
 40
7.931543
 40
7.931543
 40
7.931543
 40
7.931543
 10
233.841282
 20
95.577588
 30
0.0
 10
234.113844
 20
95.573788
 30
0.0
 10
234.655569
 20
95.566236
 30
0.0
 10
235.457714
 20
95.504838
 30
0.0
 10
236.495578
 20
95.374026
 30
0.0
 10
237.818301
 20
95.084390
 30
0.0
 10
239.629315
 20
94.739303
 30
0.0
 10
240.957251
 20
94.699956
 30
0.0
 10
241.706849
 20
94.677745
 30
0.0
 11
233.841282
 21
95.577588
 31
0.0
 11
234.658628
 21
95.557630
 31
0.0
 11
235.463787
 21
95.497676
 31
0.0
 11
236.244582
 21
95.397606
 31
0.0
 11
237.757788
 21
95.104407
 31
0.0
 11
239.465279
 21
94.811092
 31
0.0
 11
241.706849
 21
94.677745
 31
0.0
  0
SPLINE
  5
126
100
AcDbEntity
  8
Layer_1
 62
1
100
AcDbSpline
 70
0
 71
3
 72
16
 73
12
 74
10
 40
0.000000
 40
0.000000
 40
0.000000
 40
0.000000
 40
2.245462
 40
3.977904
 40
5.519392
 40
7.113569
 40
8.748085
 40
10.342077
 40
11.883582
 40
13.616017
 40
15.861472
 40
15.861472
 40
15.861472
 40
15.861472
 10
236.463120
 20
92.758123
 30
0.0
 10
237.212699
 20
92.780304
 30
0.0
 10
238.540600
 20
92.819599
 30
0.0
 10
240.351574
 20
93.164914
 30
0.0
 10
241.937311
 20
93.511368
 30
0.0
 10
243.524133
 20
93.664527
 30
0.0
 10
245.133364
 20
93.664539
 30
0.0
 10
246.720127
 20
93.511348
 30
0.0
 10
248.305808
 20
93.164919
 30
0.0
 10
250.116782
 20
92.819598
 30
0.0
 10
251.444679
 20
92.780304
 30
0.0
 10
252.194255
 20
92.758123
 30
0.0
 11
236.463120
 21
92.758123
 31
0.0
 11
238.704621
 21
92.891448
 31
0.0
 11
240.412054
 21
93.184749
 31
0.0
 11
241.925388
 21
93.478018
 31
0.0
 11
243.511521
 21
93.637961
 31
0.0
 11
245.146037
 21
93.637961
 31
0.0
 11
246.731985
 21
93.478018
 31
0.0
 11
248.245335
 21
93.184749
 31
0.0
 11
249.952762
 21
92.891448
 31
0.0
 11
252.194255
 21
92.758123
 31
0.0
  0
SPLINE
  5
127
100
AcDbEntity
  8
Layer_1
 62
1
100
AcDbSpline
 70
0
 71
3
 72
16
 73
12
 74
10
 40
0.000000
 40
0.000000
 40
0.000000
 40
0.000000
 40
2.245459
 40
3.977884
 40
5.519345
 40
7.113532
 40
8.748049
 40
10.342051
 40
11.883529
 40
13.615946
 40
15.861398
 40
15.861398
 40
15.861398
 40
15.861398
 10
236.463120
 20
96.597336
 30
0.0
 10
237.212698
 20
96.575164
 30
0.0
 10
238.540592
 20
96.535885
 30
0.0
 10
240.351564
 20
96.190656
 30
0.0
 10
241.937335
 20
95.844448
 30
0.0
 10
243.524122
 20
95.691081
 30
0.0
 10
245.133375
 20
95.691069
 30
0.0
 10
246.720103
 20
95.844468
 30
0.0
 10
248.305818
 20
96.190651
 30
0.0
 10
250.116791
 20
96.535886
 30
0.0
 10
251.444680
 20
96.575164
 30
0.0
 10
252.194255
 20
96.597336
 30
0.0
 11
236.463120
 21
96.597336
 31
0.0
 11
238.704621
 21
96.464053
 31
0.0
 11
240.412054
 21
96.170856
 31
0.0
 11
241.925388
 21
95.877726
 31
0.0
 11
243.511521
 21
95.717683
 31
0.0
 11
245.146037
 21
95.717683
 31
0.0
 11
246.731985
 21
95.877726
 31
0.0
 11
248.245335
 21
96.170856
 31
0.0
 11
249.952762
 21
96.464053
 31
0.0
 11
252.194255
 21
96.597336
 31
0.0
  0
SPLINE
  5
128
100
AcDbEntity
  8
Layer_1
 62
1
100
AcDbSpline
 70
0
 71
3
 72
13
 73
9
 74
7
 40
0.000000
 40
0.000000
 40
0.000000
 40
0.000000
 40
1.323337
 40
2.616134
 40
3.910251
 40
5.034643
 40
6.338584
 40
7.927243
 40
7.927243
 40
7.927243
 40
7.927243
 10
233.841282
 20
95.577588
 30
0.0
 10
233.400065
 20
95.564944
 30
0.0
 10
232.527815
 20
95.539947
 30
0.0
 10
231.234385
 20
95.362366
 30
0.0
 10
230.020468
 20
95.124527
 30
0.0
 10
228.803894
 20
94.879834
 30
0.0
 10
227.473377
 20
94.709713
 30
0.0
 10
226.508788
 20
94.689078
 30
0.0
 10
225.979022
 20
94.677745
 30
0.0
 11
233.841282
 21
95.577588
 31
0.0
 11
232.519395
 21
95.515651
 31
0.0
 11
231.237207
 21
95.350364
 31
0.0
 11
229.965137
 21
95.112508
 31
0.0
 11
228.860283
 21
94.903811
 31
0.0
 11
227.566362
 21
94.742471
 31
0.0
 11
225.979022
 21
94.677745
 31
0.0
  0
SPLINE
  5
129
100
AcDbEntity
  8
Layer_1
 62
1
100
AcDbSpline
 70
0
 71
3
 72
13
 73
9
 74
7
 40
0.000000
 40
0.000000
 40
0.000000
 40
0.000000
 40
1.322820
 40
2.615361
 40
3.909716
 40
5.034229
 40
6.338411
 40
7.927206
 40
7.927206
 40
7.927206
 40
7.927206
 10
233.841282
 20
93.778162
 30
0.0
 10
233.400238
 20
93.790805
 30
0.0
 10
232.528245
 20
93.815803
 30
0.0
 10
231.234999
 20
93.993405
 30
0.0
 10
230.021044
 20
94.231224
 30
0.0
 10
228.804249
 20
94.475841
 30
0.0
 10
227.473546
 20
94.645801
 30
0.0
 10
226.508833
 20
94.666421
 30
0.0
 10
225.979022
 20
94.677745
 30
0.0
 11
233.841282
 21
93.778162
 31
0.0
 11
232.519912
 21
93.840091
 31
0.0
 11
231.237982
 21
94.005369
 31
0.0
 11
229.965671
 21
94.243233
 31
0.0
 11
228.860679
 21
94.451853
 31
0.0
 11
227.566501
 21
94.613078
 31
0.0
 11
225.979022
 21
94.677745
 31
0.0
  0
SPLINE
  5
12a
100
AcDbEntity
  8
Layer_1
 62
1
100
AcDbSpline
 70
0
 71
3
 72
13
 73
9
 74
7
 40
0.000000
 40
0.000000
 40
0.000000
 40
0.000000
 40
1.322743
 40
2.614598
 40
3.907795
 40
5.031599
 40
6.335055
 40
7.923666
 40
7.923666
 40
7.923666
 40
7.923666
 10
212.878549
 20
93.778162
 30
0.0
 10
213.319567
 20
93.790800
 30
0.0
 10
214.191306
 20
93.815781
 30
0.0
 10
215.483914
 20
93.993352
 30
0.0
 10
216.696984
 20
94.231266
 30
0.0
 10
217.912905
 20
94.475844
 30
0.0
 10
219.243063
 20
94.645831
 30
0.0
 10
220.207474
 20
94.666430
 30
0.0
 10
220.737224
 20
94.677745
 30
0.0
 11
212.878549
 21
93.778162
 31
0.0
 11
214.199841
 21
93.840091
 31
0.0
 11
215.481080
 21
94.005369
 31
0.0
 11
216.752212
 21
94.243233
 31
0.0
 11
217.856483
 21
94.451853
 31
0.0
 11
219.149930
 21
94.613078
 31
0.0
 11
220.737224
 21
94.677745
 31
0.0
  0
SPLINE
  5
12b
100
AcDbEntity
  8
Layer_1
 62
1
100
AcDbSpline
 70
0
 71
3
 72
13
 73
9
 74
7
 40
0.000000
 40
0.000000
 40
0.000000
 40
0.000000
 40
1.323583
 40
2.617133
 40
3.912428
 40
5.037721
 40
6.342275
 40
7.931310
 40
7.931310
 40
7.931310
 40
7.931310
 10
212.870850
 20
95.577588
 30
0.0
 10
213.312148
 20
95.564939
 30
0.0
 10
214.184731
 20
95.539928
 30
0.0
 10
215.478886
 20
95.362322
 30
0.0
 10
216.693776
 20
95.124543
 30
0.0
 10
217.911269
 20
94.879872
 30
0.0
 10
219.242414
 20
94.709721
 30
0.0
 10
220.207332
 20
94.689080
 30
0.0
 10
220.737224
 20
94.677745
 30
0.0
 11
212.870850
 21
95.577588
 31
0.0
 11
214.192983
 21
95.515651
 31
0.0
 11
215.475929
 21
95.350364
 31
0.0
 11
216.749198
 21
95.112508
 31
0.0
 11
217.854969
 21
94.903811
 31
0.0
 11
219.149508
 21
94.742471
 31
0.0
 11
220.737224
 21
94.677745
 31
0.0
  0
SPLINE
  5
12c
100
AcDbEntity
  8
Layer_1
 62
1
100
AcDbSpline
 70
0
 71
3
 72
19
 73
15
 74
13
 40
0.000000
 40
0.000000
 40
0.000000
 40
0.000000
 40
1.588097
 40
2.891101
 40
4.014572
 40
5.307804
 40
6.599645
 40
7.922073
 40
9.245216
 40
10.538010
 40
11.832304
 40
12.956622
 40
14.260354
 40
15.848752
 40
15.848752
 40
15.848752
 40
15.848752
 10
215.502885
 20
92.758123
 30
0.0
 10
216.032464
 20
92.769441
 30
0.0
 10
216.996553
 20
92.790045
 30
0.0
 10
218.326262
 20
92.960322
 30
0.0
 10
219.541861
 20
93.204780
 30
0.0
 10
220.754879
 20
93.444295
 30
0.0
 10
222.047380
 20
93.614635
 30
0.0
 10
223.360162
 20
93.679923
 30
0.0
 10
224.673261
 20
93.614617
 30
0.0
 10
225.966678
 20
93.444285
 30
0.0
 10
227.180672
 20
93.204788
 30
0.0
 10
228.397170
 20
92.960345
 30
0.0
 10
229.727506
 20
92.790065
 30
0.0
 10
230.691937
 20
92.769447
 30
0.0
 10
231.221616
 20
92.758123
 30
0.0
 11
215.502885
 21
92.758123
 31
0.0
 11
217.089662
 21
92.822860
 31
0.0
 11
218.382633
 21
92.984243
 31
0.0
 11
219.486534
 21
93.193030
 31
0.0
 11
220.757719
 21
93.430804
 31
0.0
 11
222.038947
 21
93.596058
 31
0.0
 11
223.359924
 21
93.657989
 31
0.0
 11
224.681616
 21
93.596058
 31
0.0
 11
225.963805
 21
93.430804
 31
0.0
 11
227.236071
 21
93.193030
 31
0.0
 11
228.340833
 21
92.984243
 31
0.0
 11
229.634537
 21
92.822860
 31
0.0
 11
231.221616
 21
92.758123
 31
0.0
  0
SPLINE
  5
12d
100
AcDbEntity
  8
Layer_1
 62
1
100
AcDbSpline
 70
0
 71
3
 72
19
 73
15
 74
13
 40
0.000000
 40
0.000000
 40
0.000000
 40
0.000000
 40
1.589760
 40
2.894771
 40
4.020240
 40
5.315265
 40
6.608606
 40
7.932125
 40
9.255458
 40
10.548388
 40
11.842881
 40
12.967313
 40
14.271522
 40
15.860959
 40
15.860959
 40
15.860959
 40
15.860959
 10
215.488294
 20
96.597336
 30
0.0
 10
216.018427
 20
96.586025
 30
0.0
 10
216.983737
 20
96.565429
 30
0.0
 10
218.315363
 20
96.395313
 30
0.0
 10
219.532971
 20
96.151040
 30
0.0
 10
220.747772
 20
95.911458
 30
0.0
 10
222.041747
 20
95.741134
 30
0.0
 10
223.355453
 20
95.675814
 30
0.0
 10
224.669025
 20
95.741119
 30
0.0
 10
225.962619
 20
95.911459
 30
0.0
 10
227.176762
 20
96.150963
 30
0.0
 10
228.393541
 20
96.395360
 30
0.0
 10
229.724448
 20
96.565446
 30
0.0
 10
230.689384
 20
96.586030
 30
0.0
 10
231.219409
 20
96.597336
 30
0.0
 11
215.488294
 21
96.597336
 31
0.0
 11
217.076739
 21
96.532671
 31
0.0
 11
218.371749
 21
96.371422
 31
0.0
 11
219.477697
 21
96.162711
 31
0.0
 11
220.750706
 21
95.924937
 31
0.0
 11
222.033446
 21
95.759683
 31
0.0
 11
223.355515
 21
95.697753
 31
0.0
 11
224.677399
 21
95.759683
 31
0.0
 11
225.959725
 21
95.924937
 31
0.0
 11
227.232193
 21
96.162711
 31
0.0
 11
228.337085
 21
96.371422
 31
0.0
 11
229.631287
 21
96.532671
 31
0.0
 11
231.219409
 21
96.597336
 31
0.0
  0
SPLINE
  5
12e
100
AcDbEntity
  8
Layer_1
 62
1
100
AcDbSpline
 70
0
 71
3
 72
13
 73
9
 74
7
 40
0.000000
 40
0.000000
 40
0.000000
 40
0.000000
 40
1.323023
 40
2.615086
 40
3.908361
 40
5.031848
 40
6.335048
 40
7.923704
 40
7.923704
 40
7.923704
 40
7.923704
 10
212.870850
 20
95.577588
 30
0.0
 10
212.429737
 20
95.564949
 30
0.0
 10
211.557835
 20
95.539968
 30
0.0
 10
210.265042
 20
95.362373
 30
0.0
 10
209.051963
 20
95.124552
 30
0.0
 10
207.836246
 20
94.879803
 30
0.0
 10
206.506279
 20
94.709681
 30
0.0
 10
205.541937
 20
94.689069
 30
0.0
 10
205.012171
 20
94.677745
 30
0.0
 11
212.870850
 21
95.577588
 31
0.0
 11
211.549277
 21
95.515651
 31
0.0
 11
210.267830
 21
95.350364
 31
0.0
 11
208.996616
 21
95.112508
 31
0.0
 11
207.892682
 21
94.903811
 31
0.0
 11
206.599508
 21
94.742471
 31
0.0
 11
205.012171
 21
94.677745
 31
0.0
  0
SPLINE
  5
12f
100
AcDbEntity
  8
Layer_1
 62
1
100
AcDbSpline
 70
0
 71
3
 72
13
 73
9
 74
7
 40
0.000000
 40
0.000000
 40
0.000000
 40
0.000000
 40
1.322940
 40
2.616212
 40
3.911589
 40
5.037035
 40
6.341908
 40
7.931278
 40
7.931278
 40
7.931278
 40
7.931278
 10
212.878549
 20
93.778162
 30
0.0
 10
212.437465
 20
93.790812
 30
0.0
 10
211.565190
 20
93.815830
 30
0.0
 10
210.271316
 20
93.993432
 30
0.0
 10
209.056446
 20
94.231231
 30
0.0
 10
207.838744
 20
94.475804
 30
0.0
 10
206.507309
 20
94.645797
 30
0.0
 10
205.542174
 20
94.666420
 30
0.0
 10
205.012171
 20
94.677745
 30
0.0
 11
212.878549
 21
93.778162
 31
0.0
 11
211.557059
 21
93.840091
 31
0.0
 11
210.274391
 21
94.005369
 31
0.0
 11
209.001041
 21
94.243233
 31
0.0
 11
207.895100
 21
94.451853
 31
0.0
 11
206.600225
 21
94.613078
 31
0.0
 11
205.012171
 21
94.677745
 31
0.0
  0
SPLINE
  5
130
100
AcDbEntity
  8
Layer_1
 62
1
100
AcDbSpline
 70
0
 71
3
 72
13
 73
9
 74
7
 40
0.000000
 40
0.000000
 40
0.000000
 40
0.000000
 40
1.322290
 40
2.613385
 40
3.905597
 40
5.028425
 40
6.331207
 40
7.919572
 40
7.919572
 40
7.919572
 40
7.919572
 10
191.916123
 20
93.778162
 30
0.0
 10
192.356991
 20
93.790796
 30
0.0
 10
193.228327
 20
93.815768
 30
0.0
 10
194.520198
 20
93.993333
 30
0.0
 10
195.732344
 20
94.231248
 30
0.0
 10
196.947357
 20
94.475889
 30
0.0
 10
198.276886
 20
94.645846
 30
0.0
 10
199.240990
 20
94.666434
 30
0.0
 10
199.770659
 20
94.677745
 30
0.0
 11
191.916123
 21
93.778162
 31
0.0
 11
193.236962
 21
93.840091
 31
0.0
 11
194.517435
 21
94.005369
 31
0.0
 11
195.787566
 21
94.243233
 31
0.0
 11
196.890842
 21
94.451853
 31
0.0
 11
198.183610
 21
94.613078
 31
0.0
 11
199.770659
 21
94.677745
 31
0.0
  0
SPLINE
  5
131
100
AcDbEntity
  8
Layer_1
 62
1
100
AcDbSpline
 70
0
 71
3
 72
13
 73
9
 74
7
 40
0.000000
 40
0.000000
 40
0.000000
 40
0.000000
 40
1.323913
 40
2.618193
 40
3.914329
 40
5.040493
 40
6.345790
 40
7.935145
 40
7.935145
 40
7.935145
 40
7.935145
 10
191.900406
 20
95.577588
 30
0.0
 10
192.341814
 20
95.564934
 30
0.0
 10
193.214749
 20
95.539909
 30
0.0
 10
194.509544
 20
95.362314
 30
0.0
 10
195.725261
 20
95.124523
 30
0.0
 10
196.943597
 20
94.879900
 30
0.0
 10
198.275389
 20
94.709740
 30
0.0
 10
199.240660
 20
94.689086
 30
0.0
 10
199.770659
 20
94.677745
 30
0.0
 11
191.900406
 21
95.577588
 31
0.0
 11
193.222870
 21
95.515651
 31
0.0
 11
194.506552
 21
95.350364
 31
0.0
 11
195.780677
 21
95.112508
 31
0.0
 11
196.887335
 21
94.903811
 31
0.0
 11
198.182622
 21
94.742471
 31
0.0
 11
199.770659
 21
94.677745
 31
0.0
  0
SPLINE
  5
132
100
AcDbEntity
  8
Layer_1
 62
1
100
AcDbSpline
 70
0
 71
3
 72
19
 73
15
 74
13
 40
0.000000
 40
0.000000
 40
0.000000
 40
0.000000
 40
1.587830
 40
2.890152
 40
4.012651
 40
5.304914
 40
6.596082
 40
7.918252
 40
9.241531
 40
10.535134
 40
11.830659
 40
12.955817
 40
14.260226
 40
15.848749
 40
15.848749
 40
15.848749
 40
15.848749
 10
194.544577
 20
92.758123
 30
0.0
 10
195.074068
 20
92.769437
 30
0.0
 10
196.037840
 20
92.790030
 30
0.0
 10
197.366910
 20
92.960278
 30
0.0
 10
198.581607
 20
93.204799
 30
0.0
 10
199.793736
 20
93.444320
 30
0.0
 10
201.085601
 20
93.614656
 30
0.0
 10
202.398120
 20
93.679924
 30
0.0
 10
203.711445
 20
93.614585
 30
0.0
 10
205.005589
 20
93.444242
 30
0.0
 10
206.220575
 20
93.204818
 30
0.0
 10
207.438005
 20
92.960368
 30
0.0
 10
208.768891
 20
92.790091
 30
0.0
 10
209.733588
 20
92.769455
 30
0.0
 10
210.263308
 20
92.758123
 30
0.0
 11
194.544577
 21
92.758123
 31
0.0
 11
196.131087
 21
92.822860
 31
0.0
 11
197.423371
 21
92.984243
 31
0.0
 11
198.526281
 21
93.193030
 31
0.0
 11
199.796482
 21
93.430804
 31
0.0
 11
201.077031
 21
93.596058
 31
0.0
 11
202.397749
 21
93.657989
 31
0.0
 11
203.719578
 21
93.596058
 31
0.0
 11
205.002583
 21
93.430804
 31
0.0
 11
206.276101
 21
93.193030
 31
0.0
 11
207.381718
 21
92.984243
 31
0.0
 11
208.676105
 21
92.822860
 31
0.0
 11
210.263308
 21
92.758123
 31
0.0
  0
SPLINE
  5
133
100
AcDbEntity
  8
Layer_1
 62
1
100
AcDbSpline
 70
0
 71
3
 72
19
 73
15
 74
13
 40
0.000000
 40
0.000000
 40
0.000000
 40
0.000000
 40
1.590016
 40
2.895710
 40
4.022165
 40
5.318329
 40
6.612336
 40
7.935915
 40
9.259004
 40
10.551190
 40
11.844505
 40
12.968160
 40
14.271763
 40
15.860957
 40
15.860957
 40
15.860957
 40
15.860957
 10
194.513451
 20
96.597336
 30
0.0
 10
195.043669
 20
96.586020
 30
0.0
 10
196.009292
 20
96.565412
 30
0.0
 10
197.341557
 20
96.395271
 30
0.0
 10
198.560128
 20
96.151040
 30
0.0
 10
199.775885
 20
95.911503
 30
0.0
 10
201.070481
 20
95.741162
 30
0.0
 10
202.384346
 20
95.675813
 30
0.0
 10
203.697610
 20
95.741098
 30
0.0
 10
204.990483
 20
95.911413
 30
0.0
 10
206.203694
 20
96.150996
 30
0.0
 10
207.419605
 20
96.395383
 30
0.0
 10
208.749969
 20
96.565463
 30
0.0
 10
209.714622
 20
96.586035
 30
0.0
 10
210.244566
 20
96.597336
 30
0.0
 11
194.513451
 21
96.597336
 31
0.0
 11
196.102151
 21
96.532671
 31
0.0
 11
197.397851
 21
96.371422
 31
0.0
 11
198.504802
 21
96.162711
 31
0.0
 11
199.778969
 21
95.924937
 31
0.0
 11
201.062382
 21
95.759683
 31
0.0
 11
202.384510
 21
95.697753
 31
0.0
 11
203.706150
 21
95.759683
 31
0.0
 11
204.987725
 21
95.924937
 31
0.0
 11
206.258995
 21
96.162711
 31
0.0
 11
207.363097
 21
96.371422
 31
0.0
 11
208.656689
 21
96.532671
 31
0.0
 11
210.244566
 21
96.597336
 31
0.0
  0
SPLINE
  5
134
100
AcDbEntity
  8
Layer_1
 62
1
100
AcDbSpline
 70
0
 71
3
 72
13
 73
9
 74
7
 40
0.000000
 40
0.000000
 40
0.000000
 40
0.000000
 40
1.324306
 40
2.618741
 40
3.914903
 40
5.040840
 40
6.346211
 40
7.936263
 40
7.936263
 40
7.936263
 40
7.936263
 10
275.804198
 20
99.416931
 30
0.0
 10
275.362659
 20
99.404272
 30
0.0
 10
274.489541
 20
99.379241
 30
0.0
 10
273.194561
 20
99.201578
 30
0.0
 10
271.978869
 20
98.963740
 30
0.0
 10
270.760574
 20
98.719124
 30
0.0
 10
269.428588
 20
98.549050
 30
0.0
 10
268.463059
 20
98.528420
 30
0.0
 10
267.932829
 20
98.517090
 30
0.0
 11
275.804198
 21
99.416931
 31
0.0
 11
274.481342
 21
99.354964
 31
0.0
 11
273.197511
 21
99.189617
 31
0.0
 11
271.923369
 21
98.951715
 31
0.0
 11
270.816934
 21
98.743066
 31
0.0
 11
269.521564
 21
98.581786
 31
0.0
 11
267.932829
 21
98.517090
 31
0.0
  0
SPLINE
  5
135
100
AcDbEntity
  8
Layer_1
 62
1
100
AcDbSpline
 70
0
 71
3
 72
13
 73
9
 74
7
 40
0.000000
 40
0.000000
 40
0.000000
 40
0.000000
 40
1.323462
 40
2.616213
 40
3.910295
 40
5.034459
 40
6.338540
 40
7.928092
 40
7.928092
 40
7.928092
 40
7.928092
 10
275.795932
 20
97.617231
 30
0.0
 10
275.354674
 20
97.629882
 30
0.0
 10
274.482397
 20
97.654892
 30
0.0
 10
273.188961
 20
97.832567
 30
0.0
 10
271.975192
 20
98.070621
 30
0.0
 10
270.758622
 20
98.315130
 30
0.0
 10
269.427826
 20
98.485169
 30
0.0
 10
268.462893
 20
98.505772
 30
0.0
 10
267.932829
 20
98.517090
 30
0.0
 11
275.795932
 21
97.617231
 31
0.0
 11
274.473922
 21
97.679206
 31
0.0
 11
273.191794
 21
97.844595
 31
0.0
 11
271.919785
 21
98.082587
 31
0.0
 11
270.815137
 21
98.291151
 31
0.0
 11
269.521064
 21
98.452399
 31
0.0
 11
267.932829
 21
98.517090
 31
0.0
  0
SPLINE
  5
136
100
AcDbEntity
  8
Layer_1
 62
1
100
AcDbSpline
 70
0
 71
3
 72
13
 73
9
 74
7
 40
0.000000
 40
0.000000
 40
0.000000
 40
0.000000
 40
1.323857
 40
2.617691
 40
3.913290
 40
5.038927
 40
6.344088
 40
7.934070
 40
7.934070
 40
7.934070
 40
7.934070
 10
254.818605
 20
97.617231
 30
0.0
 10
255.259994
 20
97.629890
 30
0.0
 10
256.132763
 20
97.654922
 30
0.0
 10
257.427201
 20
97.832607
 30
0.0
 10
258.642357
 20
98.070643
 30
0.0
 10
259.860325
 20
98.315069
 30
0.0
 10
261.192113
 20
98.485143
 30
0.0
 10
262.157549
 20
98.505765
 30
0.0
 10
262.687757
 20
98.517090
 30
0.0
 11
254.818605
 21
97.617231
 31
0.0
 11
256.141011
 21
97.679206
 31
0.0
 11
257.424231
 21
97.844595
 31
0.0
 11
258.697784
 21
98.082587
 31
0.0
 11
259.803929
 21
98.291151
 31
0.0
 11
261.099092
 21
98.452399
 31
0.0
 11
262.687757
 21
98.517090
 31
0.0
  0
SPLINE
  5
137
100
AcDbEntity
  8
Layer_1
 62
1
100
AcDbSpline
 70
0
 71
3
 72
13
 73
9
 74
7
 40
0.000000
 40
0.000000
 40
0.000000
 40
0.000000
 40
1.323807
 40
2.617032
 40
3.911653
 40
5.036070
 40
6.340355
 40
7.930000
 40
7.930000
 40
7.930000
 40
7.930000
 10
254.822723
 20
99.416931
 30
0.0
 10
255.264096
 20
99.404281
 30
0.0
 10
256.136646
 20
99.379273
 30
0.0
 10
257.430536
 20
99.201606
 30
0.0
 10
258.644777
 20
98.963767
 30
0.0
 10
259.861646
 20
98.719058
 30
0.0
 10
261.192630
 20
98.549024
 30
0.0
 10
262.157662
 20
98.528413
 30
0.0
 10
262.687757
 20
98.517090
 30
0.0
 11
254.822723
 21
99.416931
 31
0.0
 11
256.145079
 21
99.354964
 31
0.0
 11
257.427690
 21
99.189617
 31
0.0
 11
258.700264
 21
98.951715
 31
0.0
 11
259.805154
 21
98.743066
 31
0.0
 11
261.099428
 21
98.581786
 31
0.0
 11
262.687757
 21
98.517090
 31
0.0
  0
SPLINE
  5
138
100
AcDbEntity
  8
Layer_1
 62
1
100
AcDbSpline
 70
0
 71
3
 72
19
 73
15
 74
13
 40
0.000000
 40
0.000000
 40
0.000000
 40
0.000000
 40
1.589575
 40
2.894539
 40
4.020011
 40
5.315499
 40
6.609187
 40
7.932974
 40
9.256673
 40
10.549551
 40
11.843530
 40
12.967674
 40
14.271621
 40
15.860798
 40
15.860798
 40
15.860798
 40
15.860798
 10
257.438240
 20
96.597336
 30
0.0
 10
257.968311
 20
96.608661
 30
0.0
 10
258.933546
 20
96.629283
 30
0.0
 10
260.265071
 20
96.799565
 30
0.0
 10
261.482832
 20
97.043777
 30
0.0
 10
262.697890
 20
97.283457
 30
0.0
 10
263.992225
 20
97.453816
 30
0.0
 10
265.306257
 20
97.519108
 30
0.0
 10
266.620029
 20
97.453937
 30
0.0
 10
267.913558
 20
97.283552
 30
0.0
 10
269.127358
 20
97.043772
 30
0.0
 10
270.343801
 20
96.799519
 30
0.0
 10
271.674412
 20
96.629256
 30
0.0
 10
272.639175
 20
96.608653
 30
0.0
 10
273.169115
 20
96.597336
 30
0.0
 11
257.438240
 21
96.597336
 31
0.0
 11
259.026496
 21
96.662068
 31
0.0
 11
260.321448
 21
96.823413
 31
0.0
 11
261.427403
 21
97.032099
 31
0.0
 11
262.700865
 21
97.269970
 31
0.0
 11
263.983951
 21
97.435260
 31
0.0
 11
265.306288
 21
97.497196
 31
0.0
 11
266.628541
 21
97.435326
 31
0.0
 11
267.910805
 21
97.270003
 31
0.0
 11
269.182726
 21
97.032099
 31
0.0
 11
270.287330
 21
96.823413
 31
0.0
 11
271.581256
 21
96.662068
 31
0.0
 11
273.169115
 21
96.597336
 31
0.0
  0
SPLINE
  5
139
100
AcDbEntity
  8
Layer_1
 62
1
100
AcDbSpline
 70
0
 71
3
 72
19
 73
15
 74
13
 40
0.000000
 40
0.000000
 40
0.000000
 40
0.000000
 40
1.589994
 40
2.894695
 40
4.019471
 40
5.313694
 40
6.606765
 40
7.930549
 40
9.254779
 40
10.549139
 40
11.845424
 40
12.971443
 40
14.277093
 40
15.867606
 40
15.867606
 40
15.867606
 40
15.867606
 10
257.448163
 20
100.436825
 30
0.0
 10
257.978374
 20
100.425507
 30
0.0
 10
258.943661
 20
100.404903
 30
0.0
 10
260.275010
 20
100.234639
 30
0.0
 10
261.492019
 20
99.990443
 30
0.0
 10
262.706176
 20
99.750628
 30
0.0
 10
263.999888
 20
99.580323
 30
0.0
 10
265.313893
 20
99.515018
 30
0.0
 10
266.628326
 20
99.580360
 30
0.0
 10
267.923301
 20
99.750712
 30
0.0
 10
269.139049
 20
99.990370
 30
0.0
 10
270.357495
 20
100.234603
 30
0.0
 10
271.689750
 20
100.404881
 30
0.0
 10
272.655526
 20
100.425501
 30
0.0
 10
273.185910
 20
100.436825
 30
0.0
 11
257.448163
 21
100.436825
 31
0.0
 11
259.036839
 21
100.372094
 31
0.0
 11
260.331525
 21
100.210749
 31
0.0
 11
261.436773
 21
100.002065
 31
0.0
 11
262.708947
 21
99.764188
 31
0.0
 11
263.991410
 21
99.598895
 31
0.0
 11
265.313744
 21
99.536960
 31
0.0
 11
266.636525
 21
99.598895
 31
0.0
 11
267.920287
 21
99.764188
 31
0.0
 11
269.194559
 21
100.002065
 31
0.0
 11
270.301072
 21
100.210749
 31
0.0
 11
271.596714
 21
100.372094
 31
0.0
 11
273.185910
 21
100.436825
 31
0.0
  0
SPLINE
  5
13a
100
AcDbEntity
  8
Layer_1
 62
1
100
AcDbSpline
 70
0
 71
3
 72
13
 73
9
 74
7
 40
0.000000
 40
0.000000
 40
0.000000
 40
0.000000
 40
0.818001
 40
1.625677
 40
2.413246
 40
3.955308
 40
5.688498
 40
7.935087
 40
7.935087
 40
7.935087
 40
7.935087
 10
254.825204
 20
99.416931
 30
0.0
 10
254.552504
 20
99.413124
 30
0.0
 10
254.010546
 20
99.405560
 30
0.0
 10
253.208044
 20
99.344074
 30
0.0
 10
252.169715
 20
99.213269
 30
0.0
 10
250.846378
 20
98.923650
 30
0.0
 10
249.034521
 20
98.578620
 30
0.0
 10
247.706004
 20
98.539292
 30
0.0
 10
246.956055
 20
98.517090
 30
0.0
 11
254.825204
 21
99.416931
 31
0.0
 11
254.007446
 21
99.396940
 31
0.0
 11
253.202003
 21
99.336931
 31
0.0
 11
252.420820
 21
99.236847
 31
0.0
 11
250.906884
 21
98.943664
 31
0.0
 11
249.198685
 21
98.650404
 31
0.0
 11
246.956055
 21
98.517090
 31
0.0
  0
SPLINE
  5
13b
100
AcDbEntity
  8
Layer_1
 62
1
100
AcDbSpline
 70
0
 71
3
 72
13
 73
9
 74
7
 40
0.000000
 40
0.000000
 40
0.000000
 40
0.000000
 40
0.818001
 40
1.625675
 40
2.413234
 40
3.955312
 40
5.688508
 40
7.935097
 40
7.935097
 40
7.935097
 40
7.935097
 10
254.825204
 20
97.617231
 30
0.0
 10
254.552504
 20
97.621036
 30
0.0
 10
254.010546
 20
97.628599
 30
0.0
 10
253.208050
 20
97.690073
 30
0.0
 10
252.169697
 20
97.820720
 30
0.0
 10
250.846388
 20
98.110527
 30
0.0
 10
249.034523
 20
98.455547
 30
0.0
 10
247.706004
 20
98.494884
 30
0.0
 10
246.956055
 20
98.517090
 30
0.0
 11
254.825204
 21
97.617231
 31
0.0
 11
254.007446
 21
97.637217
 31
0.0
 11
253.202003
 21
97.697198
 31
0.0
 11
252.420820
 21
97.797204
 31
0.0
 11
250.906884
 21
98.090470
 31
0.0
 11
249.198685
 21
98.383767
 31
0.0
 11
246.956055
 21
98.517090
 31
0.0
  0
SPLINE
  5
13c
100
AcDbEntity
  8
Layer_1
 62
1
100
AcDbSpline
 70
0
 71
3
 72
13
 73
9
 74
7
 40
0.000000
 40
0.000000
 40
0.000000
 40
0.000000
 40
0.817880
 40
1.625615
 40
2.413233
 40
3.955311
 40
5.688509
 40
7.935100
 40
7.935100
 40
7.935100
 40
7.935100
 10
233.841282
 20
97.617231
 30
0.0
 10
234.113941
 20
97.621037
 30
0.0
 10
234.655879
 20
97.628603
 30
0.0
 10
235.458375
 20
97.690074
 30
0.0
 10
236.496769
 20
97.820711
 30
0.0
 10
237.820097
 20
98.110529
 30
0.0
 10
239.631964
 20
98.455546
 30
0.0
 10
240.960483
 20
98.494884
 30
0.0
 10
241.710433
 20
98.517090
 30
0.0
 11
233.841282
 21
97.617231
 31
0.0
 11
234.658918
 21
97.637217
 31
0.0
 11
235.464423
 21
97.697198
 31
0.0
 11
236.245665
 21
97.797204
 31
0.0
 11
237.759601
 21
98.090470
 31
0.0
 11
239.467801
 21
98.383767
 31
0.0
 11
241.710433
 21
98.517090
 31
0.0
  0
SPLINE
  5
13d
100
AcDbEntity
  8
Layer_1
 62
1
100
AcDbSpline
 70
0
 71
3
 72
13
 73
9
 74
7
 40
0.000000
 40
0.000000
 40
0.000000
 40
0.000000
 40
0.817880
 40
1.625618
 40
2.413245
 40
3.955308
 40
5.688498
 40
7.935089
 40
7.935089
 40
7.935089
 40
7.935089
 10
233.841282
 20
99.416931
 30
0.0
 10
234.113941
 20
99.413123
 30
0.0
 10
234.655879
 20
99.405555
 30
0.0
 10
235.458381
 20
99.344073
 30
0.0
 10
236.496752
 20
99.213277
 30
0.0
 10
237.820107
 20
98.923648
 30
0.0
 10
239.631965
 20
98.578621
 30
0.0
 10
240.960483
 20
98.539292
 30
0.0
 10
241.710433
 20
98.517090
 30
0.0
 11
233.841282
 21
99.416931
 31
0.0
 11
234.658918
 21
99.396940
 31
0.0
 11
235.464423
 21
99.336931
 31
0.0
 11
236.245665
 21
99.236847
 31
0.0
 11
237.759601
 21
98.943664
 31
0.0
 11
239.467801
 21
98.650404
 31
0.0
 11
241.710433
 21
98.517090
 31
0.0
  0
SPLINE
  5
13e
100
AcDbEntity
  8
Layer_1
 62
1
100
AcDbSpline
 70
0
 71
3
 72
16
 73
12
 74
10
 40
0.000000
 40
0.000000
 40
0.000000
 40
0.000000
 40
2.246463
 40
3.979642
 40
5.521573
 40
7.116473
 40
8.751882
 40
10.346769
 40
11.888803
 40
13.621855
 40
15.868069
 40
15.868069
 40
15.868069
 40
15.868069
 10
236.464224
 20
96.597336
 30
0.0
 10
237.214135
 20
96.619517
 30
0.0
 10
238.542615
 20
96.658812
 30
0.0
 10
240.354332
 20
97.004108
 30
0.0
 10
241.940714
 20
97.350565
 30
0.0
 10
243.528211
 20
97.503861
 30
0.0
 10
245.138284
 20
97.503865
 30
0.0
 10
246.725808
 20
97.350550
 30
0.0
 10
248.312186
 20
97.004138
 30
0.0
 10
250.123805
 20
96.658812
 30
0.0
 10
251.452159
 20
96.619517
 30
0.0
 10
252.201988
 20
96.597336
 30
0.0
 11
236.464224
 21
96.597336
 31
0.0
 11
238.706727
 21
96.730661
 31
0.0
 11
240.414908
 21
97.023961
 31
0.0
 11
241.928695
 21
97.317223
 31
0.0
 11
243.515545
 21
97.477265
 31
0.0
 11
245.150954
 21
97.477265
 31
0.0
 11
246.737790
 21
97.317223
 31
0.0
 11
248.251682
 21
97.023961
 31
0.0
 11
249.959735
 21
96.730661
 31
0.0
 11
252.201988
 21
96.597336
 31
0.0
  0
SPLINE
  5
13f
100
AcDbEntity
  8
Layer_1
 62
1
100
AcDbSpline
 70
0
 71
3
 72
16
 73
12
 74
10
 40
0.000000
 40
0.000000
 40
0.000000
 40
0.000000
 40
2.246463
 40
3.979642
 40
5.521573
 40
7.116473
 40
8.751882
 40
10.346768
 40
11.888803
 40
13.621855
 40
15.868068
 40
15.868068
 40
15.868068
 40
15.868068
 10
236.464224
 20
100.436825
 30
0.0
 10
237.214135
 20
100.414644
 30
0.0
 10
238.542615
 20
100.375350
 30
0.0
 10
240.354332
 20
100.030055
 30
0.0
 10
241.940714
 20
99.683595
 30
0.0
 10
243.528211
 20
99.530303
 30
0.0
 10
245.138284
 20
99.530299
 30
0.0
 10
246.725808
 20
99.683610
 30
0.0
 10
248.312186
 20
100.030025
 30
0.0
 10
250.123805
 20
100.375350
 30
0.0
 10
251.452159
 20
100.414644
 30
0.0
 10
252.201988
 20
100.436825
 30
0.0
 11
236.464224
 21
100.436825
 31
0.0
 11
238.706727
 21
100.303501
 31
0.0
 11
240.414908
 21
100.010202
 31
0.0
 11
241.928695
 21
99.716938
 31
0.0
 11
243.515545
 21
99.556898
 31
0.0
 11
245.150954
 21
99.556898
 31
0.0
 11
246.737790
 21
99.716938
 31
0.0
 11
248.251682
 21
100.010202
 31
0.0
 11
249.959735
 21
100.303501
 31
0.0
 11
252.201988
 21
100.436825
 31
0.0
  0
SPLINE
  5
140
100
AcDbEntity
  8
Layer_1
 62
1
100
AcDbSpline
 70
0
 71
3
 72
13
 73
9
 74
7
 40
0.000000
 40
0.000000
 40
0.000000
 40
0.000000
 40
1.323970
 40
2.617524
 40
3.912452
 40
5.037545
 40
6.342244
 40
7.932161
 40
7.932161
 40
7.932161
 40
7.932161
 10
233.841282
 20
99.416931
 30
0.0
 10
233.399855
 20
99.404277
 30
0.0
 10
232.527141
 20
99.379262
 30
0.0
 10
231.232980
 20
99.201616
 30
0.0
 10
230.018306
 20
98.963710
 30
0.0
 10
228.800944
 20
98.719100
 30
0.0
 10
227.469510
 20
98.549025
 30
0.0
 10
226.504249
 20
98.528412
 30
0.0
 10
225.974063
 20
98.517090
 30
0.0
 11
233.841282
 21
99.416931
 31
0.0
 11
232.518763
 21
99.354964
 31
0.0
 11
231.235820
 21
99.189617
 31
0.0
 11
229.962933
 21
98.951715
 31
0.0
 11
228.857356
 21
98.743066
 31
0.0
 11
227.562663
 21
98.581786
 31
0.0
 11
225.974063
 21
98.517090
 31
0.0
  0
SPLINE
  5
141
100
AcDbEntity
  8
Layer_1
 62
1
100
AcDbSpline
 70
0
 71
3
 72
13
 73
9
 74
7
 40
0.000000
 40
0.000000
 40
0.000000
 40
0.000000
 40
1.323712
 40
2.617137
 40
3.912200
 40
5.037346
 40
6.342172
 40
7.932161
 40
7.932161
 40
7.932161
 40
7.932161
 10
233.841282
 20
97.617231
 30
0.0
 10
233.399940
 20
97.629887
 30
0.0
 10
232.527357
 20
97.654910
 30
0.0
 10
231.233283
 20
97.832595
 30
0.0
 10
230.018617
 20
98.070639
 30
0.0
 10
228.801116
 20
98.315091
 30
0.0
 10
227.469601
 20
98.485157
 30
0.0
 10
226.504273
 20
98.505769
 30
0.0
 10
225.974063
 20
98.517090
 30
0.0
 11
233.841282
 21
97.617231
 31
0.0
 11
232.519021
 21
97.679206
 31
0.0
 11
231.236214
 21
97.844595
 31
0.0
 11
229.963207
 21
98.082587
 31
0.0
 11
228.857560
 21
98.291151
 31
0.0
 11
227.562735
 21
98.452399
 31
0.0
 11
225.974063
 21
98.517090
 31
0.0
  0
SPLINE
  5
142
100
AcDbEntity
  8
Layer_1
 62
1
100
AcDbSpline
 70
0
 71
3
 72
13
 73
9
 74
7
 40
0.000000
 40
0.000000
 40
0.000000
 40
0.000000
 40
1.323605
 40
2.616760
 40
3.911366
 40
5.036040
 40
6.340522
 40
7.930238
 40
7.930238
 40
7.930238
 40
7.930238
 10
212.863958
 20
97.617231
 30
0.0
 10
213.305263
 20
97.629885
 30
0.0
 10
214.177722
 20
97.654904
 30
0.0
 10
215.471517
 20
97.832578
 30
0.0
 10
216.685775
 20
98.070629
 30
0.0
 10
217.902838
 20
98.315111
 30
0.0
 10
219.233991
 20
98.485159
 30
0.0
 10
220.199113
 20
98.505769
 30
0.0
 10
220.729231
 20
98.517090
 30
0.0
 11
212.863958
 21
97.617231
 31
0.0
 11
214.186111
 21
97.679206
 31
0.0
 11
215.468646
 21
97.844595
 31
0.0
 11
216.741189
 21
98.082587
 31
0.0
 11
217.846355
 21
98.291151
 31
0.0
 11
219.140833
 21
98.452399
 31
0.0
 11
220.729231
 21
98.517090
 31
0.0
  0
SPLINE
  5
143
100
AcDbEntity
  8
Layer_1
 62
1
100
AcDbSpline
 70
0
 71
3
 72
13
 73
9
 74
7
 40
0.000000
 40
0.000000
 40
0.000000
 40
0.000000
 40
1.324256
 40
2.618230
 40
3.913833
 40
5.039422
 40
6.344447
 40
7.934341
 40
7.934341
 40
7.934341
 40
7.934341
 10
212.859806
 20
99.416931
 30
0.0
 10
213.301329
 20
99.404277
 30
0.0
 10
214.174277
 20
99.379259
 30
0.0
 10
215.468898
 20
99.201589
 30
0.0
 10
216.684120
 20
98.963722
 30
0.0
 10
217.901993
 20
98.719121
 30
0.0
 10
219.233692
 20
98.549039
 30
0.0
 10
220.199053
 20
98.528416
 30
0.0
 10
220.729231
 20
98.517090
 30
0.0
 11
212.859806
 21
99.416931
 31
0.0
 11
214.182611
 21
99.354964
 31
0.0
 11
215.465978
 21
99.189617
 31
0.0
 11
216.739552
 21
98.951715
 31
0.0
 11
217.845633
 21
98.743066
 31
0.0
 11
219.140654
 21
98.581786
 31
0.0
 11
220.729231
 21
98.517090
 31
0.0
  0
SPLINE
  5
144
100
AcDbEntity
  8
Layer_1
 62
1
100
AcDbSpline
 70
0
 71
3
 72
19
 73
15
 74
13
 40
0.000000
 40
0.000000
 40
0.000000
 40
0.000000
 40
1.589385
 40
2.893608
 40
4.018340
 40
5.312685
 40
6.605625
 40
7.929141
 40
9.253050
 40
10.546620
 40
11.841876
 40
12.966819
 40
14.271437
 40
15.861036
 40
15.861036
 40
15.861036
 40
15.861036
 10
215.488294
 20
96.597336
 30
0.0
 10
216.018303
 20
96.608652
 30
0.0
 10
216.983229
 20
96.629253
 30
0.0
 10
218.314192
 20
96.799559
 30
0.0
 10
219.531065
 20
97.043742
 30
0.0
 10
220.745215
 20
97.283499
 30
0.0
 10
222.038831
 20
97.453837
 30
0.0
 10
223.352594
 20
97.519107
 30
0.0
 10
224.666575
 20
97.453918
 30
0.0
 10
225.960827
 20
97.283490
 30
0.0
 10
227.175587
 20
97.043815
 30
0.0
 10
228.392959
 20
96.799537
 30
0.0
 10
229.724202
 20
96.629270
 30
0.0
 10
230.689329
 20
96.608657
 30
0.0
 10
231.219409
 20
96.597336
 30
0.0
 11
215.488294
 21
96.597336
 31
0.0
 11
217.076361
 21
96.662068
 31
0.0
 11
218.370565
 21
96.823413
 31
0.0
 11
219.475767
 21
97.032099
 31
0.0
 11
220.748067
 21
97.269970
 31
0.0
 11
222.030398
 21
97.435260
 31
0.0
 11
223.352464
 21
97.497196
 31
0.0
 11
224.674927
 21
97.435326
 31
0.0
 11
225.957889
 21
97.270003
 31
0.0
 11
227.231109
 21
97.032099
 31
0.0
 11
228.336526
 21
96.823413
 31
0.0
 11
229.631128
 21
96.662068
 31
0.0
 11
231.219409
 21
96.597336
 31
0.0
  0
SPLINE
  5
145
100
AcDbEntity
  8
Layer_1
 62
1
100
AcDbSpline
 70
0
 71
3
 72
19
 73
15
 74
13
 40
0.000000
 40
0.000000
 40
0.000000
 40
0.000000
 40
1.590420
 40
2.895791
 40
4.021349
 40
5.316922
 40
6.610739
 40
7.934601
 40
9.258707
 40
10.552345
 40
11.847606
 40
12.972825
 40
14.277794
 40
15.867860
 40
15.867860
 40
15.867860
 40
15.867860
 10
215.480302
 20
100.436825
 30
0.0
 10
216.010655
 20
100.425503
 30
0.0
 10
216.976306
 20
100.404888
 30
0.0
 10
218.308284
 20
100.234624
 30
0.0
 10
219.526237
 20
99.990389
 30
0.0
 10
220.741395
 20
99.750694
 30
0.0
 10
222.035828
 20
99.580349
 30
0.0
 10
223.350065
 20
99.515019
 30
0.0
 10
224.664244
 20
99.580331
 30
0.0
 10
225.958594
 20
99.750682
 30
0.0
 10
227.173469
 20
99.990381
 30
0.0
 10
228.391062
 20
100.234624
 30
0.0
 10
229.722673
 20
100.404894
 30
0.0
 10
230.688073
 20
100.425505
 30
0.0
 10
231.218308
 20
100.436825
 30
0.0
 11
215.480302
 21
100.436825
 31
0.0
 11
217.069403
 21
100.372094
 31
0.0
 11
218.364766
 21
100.210749
 31
0.0
 11
219.470808
 21
100.002065
 31
0.0
 11
220.744357
 21
99.764188
 31
0.0
 11
222.027571
 21
99.598895
 31
0.0
 11
223.349984
 21
99.536960
 31
0.0
 11
224.672641
 21
99.598895
 31
0.0
 11
225.955675
 21
99.764188
 31
0.0
 11
227.228905
 21
100.002065
 31
0.0
 11
228.334603
 21
100.210749
 31
0.0
 11
229.629560
 21
100.372094
 31
0.0
 11
231.218308
 21
100.436825
 31
0.0
  0
SPLINE
  5
146
100
AcDbEntity
  8
Layer_1
 62
1
100
AcDbSpline
 70
0
 71
3
 72
13
 73
9
 74
7
 40
0.000000
 40
0.000000
 40
0.000000
 40
0.000000
 40
1.323795
 40
2.616945
 40
3.911363
 40
5.035982
 40
6.340332
 40
7.929964
 40
7.929964
 40
7.929964
 40
7.929964
 10
212.859806
 20
99.416931
 30
0.0
 10
212.418437
 20
99.404280
 30
0.0
 10
211.545916
 20
99.379272
 30
0.0
 10
210.252120
 20
99.201626
 30
0.0
 10
209.037919
 20
98.963715
 30
0.0
 10
207.821014
 20
98.719080
 30
0.0
 10
206.489949
 20
98.549023
 30
0.0
 10
205.524900
 20
98.528412
 30
0.0
 10
204.994809
 20
98.517090
 30
0.0
 11
212.859806
 21
99.416931
 31
0.0
 11
211.537462
 21
99.354964
 31
0.0
 11
210.254927
 21
99.189617
 31
0.0
 11
208.982558
 21
98.951715
 31
0.0
 11
207.877465
 21
98.743066
 31
0.0
 11
206.583124
 21
98.581786
 31
0.0
 11
204.994809
 21
98.517090
 31
0.0
  0
SPLINE
  5
147
100
AcDbEntity
  8
Layer_1
 62
1
100
AcDbSpline
 70
0
 71
3
 72
13
 73
9
 74
7
 40
0.000000
 40
0.000000
 40
0.000000
 40
0.000000
 40
1.323817
 40
2.617595
 40
3.913314
 40
5.038834
 40
6.344048
 40
7.934067
 40
7.934067
 40
7.934067
 40
7.934067
 10
212.863958
 20
97.617231
 30
0.0
 10
212.422582
 20
97.629888
 30
0.0
 10
211.549845
 20
97.654917
 30
0.0
 10
210.255403
 20
97.832629
 30
0.0
 10
209.040255
 20
98.070611
 30
0.0
 10
207.822278
 20
98.315091
 30
0.0
 10
206.490494
 20
98.485137
 30
0.0
 10
205.525029
 20
98.505763
 30
0.0
 10
204.994809
 20
98.517090
 30
0.0
 11
212.863958
 21
97.617231
 31
0.0
 11
211.541592
 21
97.679206
 31
0.0
 11
210.258429
 21
97.844595
 31
0.0
 11
208.984754
 21
98.082587
 31
0.0
 11
207.878727
 21
98.291151
 31
0.0
 11
206.583511
 21
98.452399
 31
0.0
 11
204.994809
 21
98.517090
 31
0.0
  0
SPLINE
  5
148
100
AcDbEntity
  8
Layer_1
 62
1
100
AcDbSpline
 70
0
 71
3
 72
13
 73
9
 74
7
 40
0.000000
 40
0.000000
 40
0.000000
 40
0.000000
 40
1.323568
 40
2.616249
 40
3.910277
 40
5.034434
 40
6.338512
 40
7.928068
 40
7.928068
 40
7.928068
 40
7.928068
 10
191.886634
 20
97.617231
 30
0.0
 10
192.327928
 20
97.629880
 30
0.0
 10
193.200217
 20
97.654884
 30
0.0
 10
194.493646
 20
97.832568
 30
0.0
 10
195.707369
 20
98.070626
 30
0.0
 10
196.923918
 20
98.315130
 30
0.0
 10
198.254712
 20
98.485169
 30
0.0
 10
199.219646
 20
98.505772
 30
0.0
 10
199.749712
 20
98.517090
 30
0.0
 11
191.886634
 21
97.617231
 31
0.0
 11
193.208750
 21
97.679206
 31
0.0
 11
194.490807
 21
97.844595
 31
0.0
 11
195.762761
 21
98.082587
 31
0.0
 11
196.867402
 21
98.291151
 31
0.0
 11
198.161473
 21
98.452399
 31
0.0
 11
199.749712
 21
98.517090
 31
0.0
  0
SPLINE
  5
149
100
AcDbEntity
  8
Layer_1
 62
1
100
AcDbSpline
 70
0
 71
3
 72
13
 73
9
 74
7
 40
0.000000
 40
0.000000
 40
0.000000
 40
0.000000
 40
1.324231
 40
2.618596
 40
3.914879
 40
5.040809
 40
6.346181
 40
7.936240
 40
7.936240
 40
7.936240
 40
7.936240
 10
191.878365
 20
99.416931
 30
0.0
 10
192.319879
 20
99.404273
 30
0.0
 10
193.192949
 20
99.379244
 30
0.0
 10
194.487917
 20
99.201556
 30
0.0
 10
195.703631
 20
98.963757
 30
0.0
 10
196.921962
 20
98.719121
 30
0.0
 10
198.253948
 20
98.549051
 30
0.0
 10
199.219480
 20
98.528420
 30
0.0
 10
199.749712
 20
98.517090
 30
0.0
 11
191.878365
 21
99.416931
 31
0.0
 11
193.201145
 21
99.354964
 31
0.0
 11
194.484905
 21
99.189617
 31
0.0
 11
195.759172
 21
98.951715
 31
0.0
 11
196.865599
 21
98.743066
 31
0.0
 11
198.160970
 21
98.581786
 31
0.0
 11
199.749712
 21
98.517090
 31
0.0
  0
SPLINE
  5
14a
100
AcDbEntity
  8
Layer_1
 62
1
100
AcDbSpline
 70
0
 71
3
 72
19
 73
15
 74
13
 40
0.000000
 40
0.000000
 40
0.000000
 40
0.000000
 40
1.589216
 40
2.892968
 40
4.016987
 40
5.310986
 40
6.603596
 40
7.926971
 40
9.251041
 40
10.545074
 40
11.841030
 40
12.966444
 40
14.271342
 40
15.861034
 40
15.861034
 40
15.861034
 40
15.861034
 10
194.513451
 20
96.597336
 30
0.0
 10
195.043404
 20
96.608649
 30
0.0
 10
196.008116
 20
96.629245
 30
0.0
 10
197.338631
 20
96.799519
 30
0.0
 10
198.554967
 20
97.043799
 30
0.0
 10
199.768657
 20
97.283491
 30
0.0
 10
201.061995
 20
97.453851
 30
0.0
 10
202.375656
 20
97.519106
 30
0.0
 10
203.689798
 20
97.453904
 30
0.0
 10
204.984491
 20
97.283465
 30
0.0
 10
206.199814
 20
97.043832
 30
0.0
 10
207.417680
 20
96.799559
 30
0.0
 10
208.749203
 20
96.629276
 30
0.0
 10
209.714455
 20
96.608659
 30
0.0
 10
210.244566
 20
96.597336
 30
0.0
 11
194.513451
 21
96.597336
 31
0.0
 11
196.101348
 21
96.662068
 31
0.0
 11
197.395078
 21
96.823413
 31
0.0
 11
198.499555
 21
97.032099
 31
0.0
 11
199.771502
 21
97.269970
 31
0.0
 11
201.053501
 21
97.435260
 31
0.0
 11
202.375426
 21
97.497196
 31
0.0
 11
203.698049
 21
97.435326
 31
0.0
 11
204.981478
 21
97.270003
 31
0.0
 11
206.255411
 21
97.032099
 31
0.0
 11
207.361307
 21
96.823413
 31
0.0
 11
208.656192
 21
96.662068
 31
0.0
 11
210.244566
 21
96.597336
 31
0.0
  0
SPLINE
  5
14b
100
AcDbEntity
  8
Layer_1
 62
1
100
AcDbSpline
 70
0
 71
3
 72
19
 73
15
 74
13
 40
0.000000
 40
0.000000
 40
0.000000
 40
0.000000
 40
1.590455
 40
2.896304
 40
4.022460
 40
5.318476
 40
6.612570
 40
7.936524
 40
9.260524
 40
10.553805
 40
11.848403
 40
12.973245
 40
14.277825
 40
15.867886
 40
15.867886
 40
15.867886
 40
15.867886
 10
194.496631
 20
100.436825
 30
0.0
 10
195.026995
 20
100.425498
 30
0.0
 10
195.992818
 20
100.404870
 30
0.0
 10
197.325166
 20
100.234601
 30
0.0
 10
198.543645
 20
99.990418
 30
0.0
 10
199.759246
 20
99.750705
 30
0.0
 10
201.053951
 20
99.580359
 30
0.0
 10
202.368275
 20
99.515018
 30
0.0
 10
203.682331
 20
99.580322
 30
0.0
 10
204.976308
 20
99.750649
 30
0.0
 10
206.190697
 20
99.990409
 30
0.0
 10
207.407810
 20
100.234625
 30
0.0
 10
208.739159
 20
100.404914
 30
0.0
 10
209.704429
 20
100.425511
 30
0.0
 10
210.234663
 20
100.436825
 30
0.0
 11
194.496631
 21
100.436825
 31
0.0
 11
196.085768
 21
100.372094
 31
0.0
 11
197.381611
 21
100.210749
 31
0.0
 11
198.488263
 21
100.002065
 31
0.0
 11
199.762261
 21
99.764188
 31
0.0
 11
201.045756
 21
99.598895
 31
0.0
 11
202.368260
 21
99.536960
 31
0.0
 11
203.690810
 21
99.598895
 31
0.0
 11
204.973486
 21
99.764188
 31
0.0
 11
206.246041
 21
100.002065
 31
0.0
 11
207.351356
 21
100.210749
 31
0.0
 11
208.645921
 21
100.372094
 31
0.0
 11
210.234663
 21
100.436825
 31
0.0
  0
SPLINE
  5
14c
100
AcDbEntity
  8
Layer_1
 62
1
100
AcDbSpline
 70
0
 71
3
 72
13
 73
9
 74
7
 40
0.000000
 40
0.000000
 40
0.000000
 40
0.000000
 40
1.324534
 40
2.618781
 40
3.914637
 40
5.040479
 40
6.346046
 40
7.936553
 40
7.936553
 40
7.936553
 40
7.936553
 10
275.814948
 20
103.256285
 30
0.0
 10
275.373333
 20
103.243631
 30
0.0
 10
274.500200
 20
103.218614
 30
0.0
 10
273.205311
 20
103.040936
 30
0.0
 10
271.989820
 20
102.803098
 30
0.0
 10
270.771616
 20
102.558357
 30
0.0
 10
269.439427
 20
102.388381
 30
0.0
 10
268.473683
 20
102.367764
 30
0.0
 10
267.943302
 20
102.356442
 30
0.0
 11
275.814948
 21
103.256285
 31
0.0
 11
274.491864
 21
103.194318
 31
0.0
 11
273.208223
 21
103.028969
 31
0.0
 11
271.934392
 21
102.791067
 31
0.0
 11
270.828064
 21
102.582356
 31
0.0
 11
269.532493
 21
102.421107
 31
0.0
 11
267.943302
 21
102.356442
 31
0.0
  0
SPLINE
  5
14d
100
AcDbEntity
  8
Layer_1
 62
1
100
AcDbSpline
 70
0
 71
3
 72
13
 73
9
 74
7
 40
0.000000
 40
0.000000
 40
0.000000
 40
0.000000
 40
1.324085
 40
2.617585
 40
3.912478
 40
5.037507
 40
6.342470
 40
7.932734
 40
7.932734
 40
7.932734
 40
7.932734
 10
275.811090
 20
101.456573
 30
0.0
 10
275.369625
 20
101.469219
 30
0.0
 10
274.496891
 20
101.494217
 30
0.0
 10
273.202712
 20
101.671813
 30
0.0
 10
271.988110
 20
101.909827
 30
0.0
 10
270.770678
 20
102.154363
 30
0.0
 10
269.439068
 20
102.324487
 30
0.0
 10
268.473603
 20
102.345112
 30
0.0
 10
267.943302
 20
102.356442
 30
0.0
 11
275.811090
 21
101.456573
 31
0.0
 11
274.488455
 21
101.518516
 31
0.0
 11
273.205564
 21
101.683840
 31
0.0
 11
271.932722
 21
101.921791
 31
0.0
 11
270.827202
 21
102.130397
 31
0.0
 11
269.532248
 21
102.291714
 31
0.0
 11
267.943302
 21
102.356442
 31
0.0
  0
SPLINE
  5
14e
100
AcDbEntity
  8
Layer_1
 62
1
100
AcDbSpline
 70
0
 71
3
 72
13
 73
9
 74
7
 40
0.000000
 40
0.000000
 40
0.000000
 40
0.000000
 40
1.324254
 40
2.618225
 40
3.913838
 40
5.039579
 40
6.345013
 40
7.935439
 40
7.935439
 40
7.935439
 40
7.935439
 10
254.826307
 20
101.456573
 30
0.0
 10
255.267829
 20
101.469222
 30
0.0
 10
256.140775
 20
101.494230
 30
0.0
 10
257.435408
 20
101.671836
 30
0.0
 10
258.650658
 20
101.909839
 30
0.0
 10
259.868746
 20
102.154329
 30
0.0
 10
261.200802
 20
102.324476
 30
0.0
 10
262.166478
 20
102.345110
 30
0.0
 10
262.696833
 20
102.356442
 30
0.0
 11
254.826307
 21
101.456573
 31
0.0
 11
256.149111
 21
101.518516
 31
0.0
 11
257.432477
 21
101.683840
 31
0.0
 11
258.706053
 21
101.921791
 31
0.0
 11
259.812297
 21
102.130397
 31
0.0
 11
261.107726
 21
102.291714
 31
0.0
 11
262.696833
 21
102.356442
 31
0.0
  0
SPLINE
  5
14f
100
AcDbEntity
  8
Layer_1
 62
1
100
AcDbSpline
 70
0
 71
3
 72
13
 73
9
 74
7
 40
0.000000
 40
0.000000
 40
0.000000
 40
0.000000
 40
1.324169
 40
2.617873
 40
3.913020
 40
5.038370
 40
6.343334
 40
7.933536
 40
7.933536
 40
7.933536
 40
7.933536
 10
254.828235
 20
103.256285
 30
0.0
 10
255.269728
 20
103.243633
 30
0.0
 10
256.142558
 20
103.218620
 30
0.0
 10
257.436907
 20
103.040955
 30
0.0
 10
258.651800
 20
102.803080
 30
0.0
 10
259.869394
 20
102.558362
 30
0.0
 10
261.201110
 20
102.388361
 30
0.0
 10
262.166553
 20
102.367758
 30
0.0
 10
262.696833
 20
102.356442
 30
0.0
 11
254.828235
 21
103.256285
 31
0.0
 11
256.150953
 21
103.194318
 31
0.0
 11
257.434047
 21
103.028969
 31
0.0
 11
258.707156
 21
102.791067
 31
0.0
 11
259.812984
 21
102.582356
 31
0.0
 11
261.107946
 21
102.421107
 31
0.0
 11
262.696833
 21
102.356442
 31
0.0
  0
SPLINE
  5
150
100
AcDbEntity
  8
Layer_1
 62
1
100
AcDbSpline
 70
0
 71
3
 72
19
 73
15
 74
13
 40
0.000000
 40
0.000000
 40
0.000000
 40
0.000000
 40
1.590171
 40
2.895399
 40
4.021052
 40
5.316643
 40
6.610613
 40
7.934868
 40
9.259039
 40
10.552732
 40
11.847868
 40
12.972764
 40
14.277455
 40
15.867567
 40
15.867567
 40
15.867567
 40
15.867567
 10
257.448163
 20
100.436825
 30
0.0
 10
257.978433
 20
100.448138
 30
0.0
 10
258.943955
 20
100.468737
 30
0.0
 10
260.275836
 20
100.638939
 30
0.0
 10
261.493823
 20
100.882947
 30
0.0
 10
262.709053
 20
101.122734
 30
0.0
 10
264.003669
 20
101.293134
 30
0.0
 10
265.318110
 20
101.358502
 30
0.0
 10
266.632460
 20
101.293147
 30
0.0
 10
267.926800
 20
101.122735
 30
0.0
 10
269.141539
 20
100.883025
 30
0.0
 10
270.358891
 20
100.638801
 30
0.0
 10
271.690338
 20
100.468703
 30
0.0
 10
272.655659
 20
100.448128
 30
0.0
 10
273.185910
 20
100.436825
 30
0.0
 11
257.448163
 21
100.436825
 31
0.0
 11
259.037018
 21
100.501517
 31
0.0
 11
260.332247
 21
100.662766
 31
0.0
 11
261.438410
 21
100.871329
 31
0.0
 11
262.711972
 21
101.109224
 31
0.0
 11
263.995334
 21
101.274576
 31
0.0
 11
265.318138
 21
101.336547
 31
0.0
 11
266.640858
 21
101.274576
 31
0.0
 11
267.923941
 21
101.109224
 31
0.0
 11
269.197040
 21
100.871329
 31
0.0
 11
270.302421
 21
100.662700
 31
0.0
 11
271.597113
 21
100.501485
 31
0.0
 11
273.185910
 21
100.436825
 31
0.0
  0
SPLINE
  5
151
100
AcDbEntity
  8
Layer_1
 62
1
100
AcDbSpline
 70
0
 71
3
 72
19
 73
15
 74
13
 40
0.000000
 40
0.000000
 40
0.000000
 40
0.000000
 40
1.590377
 40
2.895349
 40
4.020531
 40
5.315650
 40
6.609347
 40
7.933511
 40
9.258064
 40
10.552384
 40
11.848441
 40
12.974392
 40
14.279972
 40
15.870604
 40
15.870604
 40
15.870604
 40
15.870604
 10
257.452865
 20
104.276032
 30
0.0
 10
257.983204
 20
104.264722
 30
0.0
 10
258.948708
 20
104.244132
 30
0.0
 10
260.280421
 20
104.073945
 30
0.0
 10
261.497964
 20
103.829740
 30
0.0
 10
262.712804
 20
103.590079
 30
0.0
 10
264.007127
 20
103.419600
 30
0.0
 10
265.321576
 20
103.354210
 30
0.0
 10
266.636230
 20
103.419588
 30
0.0
 10
267.931216
 20
103.590010
 30
0.0
 10
269.146832
 20
103.829757
 30
0.0
 10
270.365170
 20
104.073912
 30
0.0
 10
271.697427
 20
104.244119
 30
0.0
 10
272.663219
 20
104.264719
 30
0.0
 10
273.193643
 20
104.276032
 30
0.0
 11
257.452865
 21
104.276032
 31
0.0
 11
259.041925
 21
104.211337
 31
0.0
 11
260.336893
 21
104.050060
 31
0.0
 11
261.442561
 21
103.841416
 31
0.0
 11
262.715653
 21
103.603568
 31
0.0
 11
263.998734
 21
103.438177
 31
0.0
 11
265.321446
 21
103.376173
 31
0.0
 11
266.644548
 21
103.438144
 31
0.0
 11
267.928262
 21
103.603503
 31
0.0
 11
269.202295
 21
103.841416
 31
0.0
 11
270.308746
 21
104.050060
 31
0.0
 11
271.604326
 21
104.211337
 31
0.0
 11
273.193643
 21
104.276032
 31
0.0
  0
SPLINE
  5
152
100
AcDbEntity
  8
Layer_1
 62
1
100
AcDbSpline
 70
0
 71
3
 72
13
 73
9
 74
7
 40
0.000000
 40
0.000000
 40
0.000000
 40
0.000000
 40
0.817955
 40
1.625833
 40
2.413518
 40
3.955872
 40
5.689327
 40
7.936184
 40
7.936184
 40
7.936184
 40
7.936184
 10
254.829079
 20
103.256285
 30
0.0
 10
254.556394
 20
103.252469
 30
0.0
 10
254.014384
 20
103.244885
 30
0.0
 10
253.211799
 20
103.183348
 30
0.0
 10
252.173223
 20
103.052856
 30
0.0
 10
250.849714
 20
102.762894
 30
0.0
 10
249.037558
 20
102.417981
 30
0.0
 10
247.708866
 20
102.378646
 30
0.0
 10
246.958829
 20
102.356442
 30
0.0
 11
254.829079
 21
103.256285
 31
0.0
 11
254.011368
 21
103.236265
 31
0.0
 11
253.205723
 21
103.176252
 31
0.0
 11
252.424404
 21
103.076311
 31
0.0
 11
250.910197
 21
102.782996
 31
0.0
 11
249.201729
 21
102.489733
 31
0.0
 11
246.958829
 21
102.356442
 31
0.0
  0
SPLINE
  5
153
100
AcDbEntity
  8
Layer_1
 62
1
100
AcDbSpline
 70
0
 71
3
 72
13
 73
9
 74
7
 40
0.000000
 40
0.000000
 40
0.000000
 40
0.000000
 40
0.817954
 40
1.625827
 40
2.413507
 40
3.955873
 40
5.689339
 40
7.936198
 40
7.936198
 40
7.936198
 40
7.936198
 10
254.829079
 20
101.456573
 30
0.0
 10
254.556394
 20
101.460380
 30
0.0
 10
254.014386
 20
101.467946
 30
0.0
 10
253.211799
 20
101.529397
 30
0.0
 10
252.173215
 20
101.659845
 30
0.0
 10
250.849715
 20
101.949889
 30
0.0
 10
249.037565
 20
102.294881
 30
0.0
 10
247.708867
 20
102.334230
 30
0.0
 10
246.958829
 20
102.356442
 30
0.0
 11
254.829079
 21
101.456573
 31
0.0
 11
254.011368
 21
101.476555
 31
0.0
 11
253.205723
 21
101.536501
 31
0.0
 11
252.424404
 21
101.636408
 31
0.0
 11
250.910197
 21
101.929778
 31
0.0
 11
249.201729
 21
102.223114
 31
0.0
 11
246.958829
 21
102.356442
 31
0.0
  0
SPLINE
  5
154
100
AcDbEntity
  8
Layer_1
 62
1
100
AcDbSpline
 70
0
 71
3
 72
13
 73
9
 74
7
 40
0.000000
 40
0.000000
 40
0.000000
 40
0.000000
 40
0.818019
 40
1.626013
 40
2.413769
 40
3.956129
 40
5.689608
 40
7.936477
 40
7.936477
 40
7.936477
 40
7.936477
 10
233.841282
 20
101.456573
 30
0.0
 10
234.113988
 20
101.460380
 30
0.0
 10
234.656058
 20
101.467947
 30
0.0
 10
235.458732
 20
101.529395
 30
0.0
 10
236.497382
 20
101.659834
 30
0.0
 10
237.820908
 20
101.949893
 30
0.0
 10
239.633064
 20
102.294879
 30
0.0
 10
240.961769
 20
102.334229
 30
0.0
 10
241.711810
 20
102.356442
 30
0.0
 11
233.841282
 21
101.456573
 31
0.0
 11
234.659057
 21
101.476555
 31
0.0
 11
235.464824
 21
101.536501
 31
0.0
 11
236.246218
 21
101.636408
 31
0.0
 11
237.760421
 21
101.929778
 31
0.0
 11
239.468900
 21
102.223114
 31
0.0
 11
241.711810
 21
102.356442
 31
0.0
  0
SPLINE
  5
155
100
AcDbEntity
  8
Layer_1
 62
1
100
AcDbSpline
 70
0
 71
3
 72
13
 73
9
 74
7
 40
0.000000
 40
0.000000
 40
0.000000
 40
0.000000
 40
0.818020
 40
1.626019
 40
2.413779
 40
3.956129
 40
5.689595
 40
7.936462
 40
7.936462
 40
7.936462
 40
7.936462
 10
233.841282
 20
103.256285
 30
0.0
 10
234.113988
 20
103.252469
 30
0.0
 10
234.656060
 20
103.244883
 30
0.0
 10
235.458732
 20
103.183350
 30
0.0
 10
236.497374
 20
103.052866
 30
0.0
 10
237.820909
 20
102.762890
 30
0.0
 10
239.633071
 20
102.417983
 30
0.0
 10
240.961770
 20
102.378647
 30
0.0
 10
241.711810
 20
102.356442
 30
0.0
 11
233.841282
 21
103.256285
 31
0.0
 11
234.659057
 21
103.236265
 31
0.0
 11
235.464824
 21
103.176252
 31
0.0
 11
236.246218
 21
103.076311
 31
0.0
 11
237.760421
 21
102.782996
 31
0.0
 11
239.468900
 21
102.489733
 31
0.0
 11
241.711810
 21
102.356442
 31
0.0
  0
SPLINE
  5
156
100
AcDbEntity
  8
Layer_1
 62
1
100
AcDbSpline
 70
0
 71
3
 72
16
 73
12
 74
10
 40
0.000000
 40
0.000000
 40
0.000000
 40
0.000000
 40
2.246920
 40
3.980430
 40
5.522646
 40
7.117775
 40
8.753384
 40
10.348353
 40
11.890746
 40
13.624334
 40
15.871271
 40
15.871271
 40
15.871271
 40
15.871271
 10
236.464791
 20
100.436825
 30
0.0
 10
237.214854
 20
100.459001
 30
0.0
 10
238.543595
 20
100.498286
 30
0.0
 10
240.355692
 20
100.843481
 30
0.0
 10
241.942366
 20
101.189938
 30
0.0
 10
243.530116
 20
101.343087
 30
0.0
 10
245.140353
 20
101.343101
 30
0.0
 10
246.728103
 20
101.189903
 30
0.0
 10
248.314818
 20
100.843498
 30
0.0
 10
250.127005
 20
100.498287
 30
0.0
 10
251.455777
 20
100.459001
 30
0.0
 10
252.205846
 20
100.436825
 30
0.0
 11
236.464791
 21
100.436825
 31
0.0
 11
238.707754
 21
100.570114
 31
0.0
 11
240.416283
 21
100.863348
 31
0.0
 11
241.930366
 21
101.156577
 31
0.0
 11
243.517456
 21
101.316519
 31
0.0
 11
245.153065
 21
101.316519
 31
0.0
 11
246.739994
 21
101.156577
 31
0.0
 11
248.254258
 21
100.863348
 31
0.0
 11
249.962865
 21
100.570114
 31
0.0
 11
252.205846
 21
100.436825
 31
0.0
  0
SPLINE
  5
157
100
AcDbEntity
  8
Layer_1
 62
1
100
AcDbSpline
 70
0
 71
3
 72
16
 73
12
 74
10
 40
0.000000
 40
0.000000
 40
0.000000
 40
0.000000
 40
2.246920
 40
3.980436
 40
5.522671
 40
7.117800
 40
8.753409
 40
10.348378
 40
11.890790
 40
13.624383
 40
15.871321
 40
15.871321
 40
15.871321
 40
15.871321
 10
236.464791
 20
104.276032
 30
0.0
 10
237.214854
 20
104.253856
 30
0.0
 10
238.543596
 20
104.214569
 30
0.0
 10
240.355702
 20
103.869369
 30
0.0
 10
241.942354
 20
103.522753
 30
0.0
 10
243.530118
 20
103.369640
 30
0.0
 10
245.140351
 20
103.369625
 30
0.0
 10
246.728115
 20
103.522788
 30
0.0
 10
248.314808
 20
103.869352
 30
0.0
 10
250.127003
 20
104.214568
 30
0.0
 10
251.455777
 20
104.253855
 30
0.0
 10
252.205846
 20
104.276032
 30
0.0
 11
236.464791
 21
104.276032
 31
0.0
 11
238.707754
 21
104.142740
 31
0.0
 11
240.416283
 21
103.849473
 31
0.0
 11
241.930366
 21
103.556146
 31
0.0
 11
243.517456
 21
103.396201
 31
0.0
 11
245.153065
 21
103.396201
 31
0.0
 11
246.739994
 21
103.556146
 31
0.0
 11
248.254258
 21
103.849473
 31
0.0
 11
249.962865
 21
104.142740
 31
0.0
 11
252.205846
 21
104.276032
 31
0.0
  0
SPLINE
  5
158
100
AcDbEntity
  8
Layer_1
 62
1
100
AcDbSpline
 70
0
 71
3
 72
13
 73
9
 74
7
 40
0.000000
 40
0.000000
 40
0.000000
 40
0.000000
 40
1.324255
 40
2.618229
 40
3.913834
 40
5.039259
 40
6.344363
 40
7.934641
 40
7.934641
 40
7.934641
 40
7.934641
 10
233.841282
 20
103.256285
 30
0.0
 10
233.399759
 20
103.243632
 30
0.0
 10
232.526811
 20
103.218615
 30
0.0
 10
231.232192
 20
103.040930
 30
0.0
 10
230.017014
 20
102.803124
 30
0.0
 10
228.799202
 20
102.558351
 30
0.0
 10
227.467385
 20
102.388368
 30
0.0
 10
226.501871
 20
102.367760
 30
0.0
 10
225.971566
 20
102.356442
 30
0.0
 11
233.841282
 21
103.256285
 31
0.0
 11
232.518477
 21
103.194318
 31
0.0
 11
231.235111
 21
103.028969
 31
0.0
 11
229.961536
 21
102.791067
 31
0.0
 11
228.855632
 21
102.582356
 31
0.0
 11
227.560528
 21
102.421107
 31
0.0
 11
225.971566
 21
102.356442
 31
0.0
  0
SPLINE
  5
159
100
AcDbEntity
  8
Layer_1
 62
1
100
AcDbSpline
 70
0
 71
3
 72
13
 73
9
 74
7
 40
0.000000
 40
0.000000
 40
0.000000
 40
0.000000
 40
1.324186
 40
2.618025
 40
3.913547
 40
5.039043
 40
6.344288
 40
7.934637
 40
7.934637
 40
7.934637
 40
7.934637
 10
233.841282
 20
101.456573
 30
0.0
 10
233.399782
 20
101.469220
 30
0.0
 10
232.526903
 20
101.494225
 30
0.0
 10
231.232369
 20
101.671843
 30
0.0
 10
230.017272
 20
101.909816
 30
0.0
 10
228.799369
 20
102.154341
 30
0.0
 10
227.467483
 20
102.324480
 30
0.0
 10
226.501896
 20
102.345111
 30
0.0
 10
225.971566
 20
102.356442
 30
0.0
 11
233.841282
 21
101.456573
 31
0.0
 11
232.518545
 21
101.518516
 31
0.0
 11
231.235312
 21
101.683840
 31
0.0
 11
229.961829
 21
101.921791
 31
0.0
 11
228.855835
 21
102.130397
 31
0.0
 11
227.560597
 21
102.291714
 31
0.0
 11
225.971566
 21
102.356442
 31
0.0
  0
SPLINE
  5
15a
100
AcDbEntity
  8
Layer_1
 62
1
100
AcDbSpline
 70
0
 71
3
 72
13
 73
9
 74
7
 40
0.000000
 40
0.000000
 40
0.000000
 40
0.000000
 40
1.324040
 40
2.617794
 40
3.913003
 40
5.038245
 40
6.343351
 40
7.933808
 40
7.933808
 40
7.933808
 40
7.933808
 10
212.856499
 20
101.456573
 30
0.0
 10
213.297949
 20
101.469222
 30
0.0
 10
214.170751
 20
101.494231
 30
0.0
 10
215.465107
 20
101.671820
 30
0.0
 10
216.679978
 20
101.909819
 30
0.0
 10
217.897638
 20
102.154354
 30
0.0
 10
219.229430
 20
102.324489
 30
0.0
 10
220.195007
 20
102.345113
 30
0.0
 10
220.725373
 20
102.356442
 30
0.0
 11
212.856499
 21
101.456573
 31
0.0
 11
214.179089
 21
101.518516
 31
0.0
 11
215.462236
 21
101.683840
 31
0.0
 11
216.735400
 21
101.921791
 31
0.0
 11
217.841137
 21
102.130397
 31
0.0
 11
219.136234
 21
102.291714
 31
0.0
 11
220.725373
 21
102.356442
 31
0.0
  0
SPLINE
  5
15b
100
AcDbEntity
  8
Layer_1
 62
1
100
AcDbSpline
 70
0
 71
3
 72
13
 73
9
 74
7
 40
0.000000
 40
0.000000
 40
0.000000
 40
0.000000
 40
1.324275
 40
2.618387
 40
3.914359
 40
5.039861
 40
6.345160
 40
7.935700
 40
7.935700
 40
7.935700
 40
7.935700
 10
212.854588
 20
103.256285
 30
0.0
 10
213.296117
 20
103.243632
 30
0.0
 10
214.169119
 20
103.218614
 30
0.0
 10
215.463909
 20
103.040902
 30
0.0
 10
216.679296
 20
102.803158
 30
0.0
 10
217.897317
 20
102.558337
 30
0.0
 10
219.229315
 20
102.388371
 30
0.0
 10
220.194981
 20
102.367761
 30
0.0
 10
220.725373
 20
102.356442
 30
0.0
 11
212.854588
 21
103.256285
 31
0.0
 11
214.177413
 21
103.194318
 31
0.0
 11
215.460918
 21
103.028969
 31
0.0
 11
216.734867
 21
102.791067
 31
0.0
 11
217.840848
 21
102.582356
 31
0.0
 11
219.136149
 21
102.421107
 31
0.0
 11
220.725373
 21
102.356442
 31
0.0
  0
SPLINE
  5
15c
100
AcDbEntity
  8
Layer_1
 62
1
100
AcDbSpline
 70
0
 71
3
 72
19
 73
15
 74
13
 40
0.000000
 40
0.000000
 40
0.000000
 40
0.000000
 40
1.590261
 40
2.895287
 40
4.020511
 40
5.315572
 40
6.609141
 40
7.933236
 40
9.257616
 40
10.551596
 40
11.847310
 40
12.972721
 40
14.277750
 40
15.867824
 40
15.867824
 40
15.867824
 40
15.867824
 10
215.480302
 20
100.436825
 30
0.0
 10
216.010602
 20
100.448136
 30
0.0
 10
216.976086
 20
100.468728
 30
0.0
 10
218.307790
 20
100.638912
 30
0.0
 10
219.525379
 20
100.882945
 30
0.0
 10
220.740143
 20
101.122745
 30
0.0
 10
222.034394
 20
101.293148
 30
0.0
 10
223.348718
 20
101.358500
 30
0.0
 10
224.663180
 20
101.293145
 30
0.0
 10
225.957877
 20
101.122707
 30
0.0
 10
227.173089
 20
100.883024
 30
0.0
 10
228.390932
 20
100.638825
 30
0.0
 10
229.722649
 20
100.468718
 30
0.0
 10
230.688071
 20
100.448132
 30
0.0
 10
231.218308
 20
100.436825
 30
0.0
 11
215.480302
 21
100.436825
 31
0.0
 11
217.069247
 21
100.501517
 31
0.0
 11
218.364272
 21
100.662766
 31
0.0
 11
219.469998
 21
100.871329
 31
0.0
 11
220.743022
 21
101.109224
 31
0.0
 11
222.025979
 21
101.274576
 31
0.0
 11
223.348623
 21
101.336547
 31
0.0
 11
224.671553
 21
101.274576
 31
0.0
 11
225.954924
 21
101.109224
 31
0.0
 11
227.228612
 21
100.871329
 31
0.0
 11
228.334516
 21
100.662700
 31
0.0
 11
229.629549
 21
100.501485
 31
0.0
 11
231.218308
 21
100.436825
 31
0.0
  0
SPLINE
  5
15d
100
AcDbEntity
  8
Layer_1
 62
1
100
AcDbSpline
 70
0
 71
3
 72
19
 73
15
 74
13
 40
0.000000
 40
0.000000
 40
0.000000
 40
0.000000
 40
1.590544
 40
2.895926
 40
4.021622
 40
5.317202
 40
6.611172
 40
7.935416
 40
9.259866
 40
10.553909
 40
11.849512
 40
12.974947
 40
14.280130
 40
15.870604
 40
15.870604
 40
15.870604
 40
15.870604
 10
215.476994
 20
104.276032
 30
0.0
 10
216.007389
 20
104.264720
 30
0.0
 10
216.973085
 20
104.244122
 30
0.0
 10
218.305162
 20
104.073926
 30
0.0
 10
219.523182
 20
103.829755
 30
0.0
 10
220.738446
 20
103.590094
 30
0.0
 10
222.033041
 20
103.419609
 30
0.0
 10
223.347572
 20
103.354210
 30
0.0
 10
224.662126
 20
103.419579
 30
0.0
 10
225.956834
 20
103.589996
 30
0.0
 10
227.172027
 20
103.829741
 30
0.0
 10
228.389894
 20
104.073933
 30
0.0
 10
229.721794
 20
104.244128
 30
0.0
 10
230.687401
 20
104.264721
 30
0.0
 10
231.217772
 20
104.276032
 30
0.0
 11
215.476994
 21
104.276032
 31
0.0
 11
217.066222
 21
104.211337
 31
0.0
 11
218.361603
 21
104.050060
 31
0.0
 11
219.467794
 21
103.841416
 31
0.0
 11
220.741355
 21
103.603568
 31
0.0
 11
222.024711
 21
103.438177
 31
0.0
 11
223.347503
 21
103.376173
 31
0.0
 11
224.670502
 21
103.438144
 31
0.0
 11
225.953936
 21
103.603503
 31
0.0
 11
227.227508
 21
103.841416
 31
0.0
 11
228.333434
 21
104.050060
 31
0.0
 11
229.628614
 21
104.211337
 31
0.0
 11
231.217772
 21
104.276032
 31
0.0
  0
SPLINE
  5
15e
100
AcDbEntity
  8
Layer_1
 62
1
100
AcDbSpline
 70
0
 71
3
 72
13
 73
9
 74
7
 40
0.000000
 40
0.000000
 40
0.000000
 40
0.000000
 40
1.324178
 40
2.617956
 40
3.913298
 40
5.038470
 40
6.343439
 40
7.933828
 40
7.933828
 40
7.933828
 40
7.933828
 10
212.854588
 20
103.256285
 30
0.0
 10
212.413091
 20
103.243633
 30
0.0
 10
211.540233
 20
103.218620
 30
0.0
 10
210.245795
 20
103.040935
 30
0.0
 10
209.030859
 20
102.803128
 30
0.0
 10
207.813270
 20
102.558336
 30
0.0
 10
206.481545
 20
102.388360
 30
0.0
 10
205.516039
 20
102.367758
 30
0.0
 10
204.985696
 20
102.356442
 30
0.0
 11
212.854588
 21
103.256285
 31
0.0
 11
211.531861
 21
103.194318
 31
0.0
 11
210.248692
 21
103.028969
 31
0.0
 11
208.975384
 21
102.791067
 31
0.0
 11
207.869738
 21
102.582356
 31
0.0
 11
206.574770
 21
102.421107
 31
0.0
 11
204.985696
 21
102.356442
 31
0.0
  0
SPLINE
  5
15f
100
AcDbEntity
  8
Layer_1
 62
1
100
AcDbSpline
 70
0
 71
3
 72
13
 73
9
 74
7
 40
0.000000
 40
0.000000
 40
0.000000
 40
0.000000
 40
1.324325
 40
2.618425
 40
3.914101
 40
5.039785
 40
6.345163
 40
7.935714
 40
7.935714
 40
7.935714
 40
7.935714
 10
212.856499
 20
101.456573
 30
0.0
 10
212.414954
 20
101.469223
 30
0.0
 10
211.541941
 20
101.494233
 30
0.0
 10
210.247218
 20
101.671831
 30
0.0
 10
209.031920
 20
101.909825
 30
0.0
 10
207.813853
 20
102.154332
 30
0.0
 10
206.481793
 20
102.324484
 30
0.0
 10
205.516094
 20
102.345112
 30
0.0
 10
204.985696
 20
102.356442
 30
0.0
 11
212.856499
 21
101.456573
 31
0.0
 11
211.533623
 21
101.518516
 31
0.0
 11
210.250127
 21
101.683840
 31
0.0
 11
208.976488
 21
101.921791
 31
0.0
 11
207.870302
 21
102.130397
 31
0.0
 11
206.574929
 21
102.291714
 31
0.0
 11
204.985696
 21
102.356442
 31
0.0
  0
SPLINE
  5
160
100
AcDbEntity
  8
Layer_1
 62
1
100
AcDbSpline
 70
0
 71
3
 72
13
 73
9
 74
7
 40
0.000000
 40
0.000000
 40
0.000000
 40
0.000000
 40
1.324074
 40
2.617631
 40
3.912705
 40
5.037676
 40
6.342515
 40
7.932698
 40
7.932698
 40
7.932698
 40
7.932698
 10
191.871484
 20
101.456573
 30
0.0
 10
192.312946
 20
101.469219
 30
0.0
 10
193.185695
 20
101.494218
 30
0.0
 10
194.479948
 20
101.671830
 30
0.0
 10
195.694619
 20
101.909798
 30
0.0
 10
196.912046
 20
102.154362
 30
0.0
 10
198.243567
 20
102.324489
 30
0.0
 10
199.208964
 20
102.345113
 30
0.0
 10
199.739239
 20
102.356442
 30
0.0
 11
191.871484
 21
101.456573
 31
0.0
 11
193.194109
 21
101.518516
 31
0.0
 11
194.477057
 21
101.683840
 31
0.0
 11
195.750084
 21
101.921791
 31
0.0
 11
196.855544
 21
102.130397
 31
0.0
 11
198.150373
 21
102.291714
 31
0.0
 11
199.739239
 21
102.356442
 31
0.0
  0
SPLINE
  5
161
100
AcDbEntity
  8
Layer_1
 62
1
100
AcDbSpline
 70
0
 71
3
 72
13
 73
9
 74
7
 40
0.000000
 40
0.000000
 40
0.000000
 40
0.000000
 40
1.324332
 40
2.618577
 40
3.914633
 40
5.040398
 40
6.345830
 40
7.936253
 40
7.936253
 40
7.936253
 40
7.936253
 10
191.867892
 20
103.256285
 30
0.0
 10
192.309440
 20
103.243630
 30
0.0
 10
193.182504
 20
103.218608
 30
0.0
 10
194.477389
 20
103.040911
 30
0.0
 10
195.692932
 20
102.803132
 30
0.0
 10
196.911124
 20
102.558356
 30
0.0
 10
198.243214
 20
102.388379
 30
0.0
 10
199.208885
 20
102.367763
 30
0.0
 10
199.739239
 20
102.356442
 30
0.0
 11
191.867892
 21
103.256285
 31
0.0
 11
193.190773
 21
103.194318
 31
0.0
 11
194.474413
 21
103.028969
 31
0.0
 11
195.748447
 21
102.791067
 31
0.0
 11
196.854695
 21
102.582356
 31
0.0
 11
198.150131
 21
102.421107
 31
0.0
 11
199.739239
 21
102.356442
 31
0.0
  0
SPLINE
  5
162
100
AcDbEntity
  8
Layer_1
 62
1
100
AcDbSpline
 70
0
 71
3
 72
19
 73
15
 74
13
 40
0.000000
 40
0.000000
 40
0.000000
 40
0.000000
 40
1.589991
 40
2.894821
 40
4.019969
 40
5.314644
 40
6.608069
 40
7.932144
 40
9.256609
 40
10.550722
 40
11.846508
 40
12.972179
 40
14.277478
 40
15.867851
 40
15.867851
 40
15.867851
 40
15.867851
 10
194.496631
 20
100.436825
 30
0.0
 10
195.026841
 20
100.448135
 30
0.0
 10
195.992171
 20
100.468726
 30
0.0
 10
197.323690
 20
100.638927
 30
0.0
 10
198.541064
 20
100.882908
 30
0.0
 10
199.755611
 20
101.122774
 30
0.0
 10
201.049682
 20
101.293150
 30
0.0
 10
202.363979
 20
101.358501
 30
0.0
 10
203.678506
 20
101.293140
 30
0.0
 10
204.973303
 20
101.122717
 30
0.0
 10
206.188666
 20
100.882997
 30
0.0
 10
207.406720
 20
100.638831
 30
0.0
 10
208.738714
 20
100.468717
 30
0.0
 10
209.704326
 20
100.448132
 30
0.0
 10
210.234663
 20
100.436825
 30
0.0
 11
194.496631
 21
100.436825
 31
0.0
 11
196.085305
 21
100.501517
 31
0.0
 11
197.380134
 21
100.662766
 31
0.0
 11
198.485783
 21
100.871329
 31
0.0
 11
199.758413
 21
101.109224
 31
0.0
 11
201.041225
 21
101.274576
 31
0.0
 11
202.363849
 21
101.336547
 31
0.0
 11
203.686864
 21
101.274576
 31
0.0
 11
204.970369
 21
101.109224
 31
0.0
 11
206.244131
 21
100.871329
 31
0.0
 11
207.350299
 21
100.662700
 31
0.0
 11
208.645605
 21
100.501485
 31
0.0
 11
210.234663
 21
100.436825
 31
0.0
  0
SPLINE
  5
163
100
AcDbEntity
  8
Layer_1
 62
1
100
AcDbSpline
 70
0
 71
3
 72
19
 73
15
 74
13
 40
0.000000
 40
0.000000
 40
0.000000
 40
0.000000
 40
1.590690
 40
2.896320
 40
4.022143
 40
5.317999
 40
6.612185
 40
7.936526
 40
9.260896
 40
10.554806
 40
11.850331
 40
12.975440
 40
14.280537
 40
15.870879
 40
15.870879
 40
15.870879
 40
15.870879
 10
194.488920
 20
104.276032
 30
0.0
 10
195.019363
 20
104.264717
 30
0.0
 10
195.985190
 20
104.244113
 30
0.0
 10
197.317445
 20
104.073937
 30
0.0
 10
198.535681
 20
103.829739
 30
0.0
 10
199.751159
 20
103.590102
 30
0.0
 10
201.045951
 20
103.419615
 30
0.0
 10
202.360559
 20
103.354211
 30
0.0
 10
203.675077
 20
103.419573
 30
0.0
 10
204.969684
 20
103.590007
 30
0.0
 10
206.184703
 20
103.829704
 30
0.0
 10
207.402391
 20
104.073965
 30
0.0
 10
208.734115
 20
104.244120
 30
0.0
 10
209.699648
 20
104.264718
 30
0.0
 10
210.229975
 20
104.276032
 30
0.0
 11
194.488920
 21
104.276032
 31
0.0
 11
196.078294
 21
104.211337
 31
0.0
 11
197.373925
 21
104.050060
 31
0.0
 11
198.480245
 21
103.841416
 31
0.0
 11
199.754087
 21
103.603568
 31
0.0
 11
201.037661
 21
103.438177
 31
0.0
 11
202.360550
 21
103.376173
 31
0.0
 11
203.683469
 21
103.438144
 31
0.0
 11
204.966769
 21
103.603503
 31
0.0
 11
206.240261
 21
103.841416
 31
0.0
 11
207.345856
 21
104.050060
 31
0.0
 11
208.640949
 21
104.211337
 31
0.0
 11
210.229975
 21
104.276032
 31
0.0
  0
SPLINE
  5
164
100
AcDbEntity
  8
Layer_1
 62
1
100
AcDbSpline
 70
0
 71
3
 72
13
 73
9
 74
7
 40
0.000000
 40
0.000000
 40
0.000000
 40
0.000000
 40
1.324646
 40
2.618833
 40
3.914641
 40
5.040329
 40
6.345699
 40
7.936246
 40
7.936246
 40
7.936246
 40
7.936246
 10
275.819066
 20
107.095514
 30
0.0
 10
275.377413
 20
107.082862
 30
0.0
 10
274.504263
 20
107.057847
 30
0.0
 10
273.209373
 20
106.880156
 30
0.0
 10
271.993977
 20
106.642288
 30
0.0
 10
270.775887
 20
106.397665
 30
0.0
 10
269.443816
 20
106.227600
 30
0.0
 10
268.478123
 20
106.206982
 30
0.0
 10
267.947727
 20
106.195657
 30
0.0
 11
275.819066
 21
107.095514
 31
0.0
 11
274.495870
 21
107.033543
 31
0.0
 11
273.212290
 21
106.868184
 31
0.0
 11
271.938510
 21
106.630274
 31
0.0
 11
270.832327
 21
106.421630
 31
0.0
 11
269.536958
 21
106.260353
 31
0.0
 11
267.947727
 21
106.195657
 31
0.0
  0
SPLINE
  5
165
100
AcDbEntity
  8
Layer_1
 62
1
100
AcDbSpline
 70
0
 71
3
 72
13
 73
9
 74
7
 40
0.000000
 40
0.000000
 40
0.000000
 40
0.000000
 40
1.324367
 40
2.618205
 40
3.913544
 40
5.039166
 40
6.344405
 40
7.934881
 40
7.934881
 40
7.934881
 40
7.934881
 10
275.817686
 20
105.295789
 30
0.0
 10
275.376126
 20
105.308442
 30
0.0
 10
274.503185
 20
105.333456
 30
0.0
 10
273.208662
 20
105.511134
 30
0.0
 10
271.993569
 20
105.749024
 30
0.0
 10
270.775704
 20
105.993636
 30
0.0
 10
269.443726
 20
106.163719
 30
0.0
 10
268.478099
 20
106.184334
 30
0.0
 10
267.947727
 20
106.195657
 30
0.0
 11
275.817686
 21
105.295789
 31
0.0
 11
274.494769
 21
105.357761
 31
0.0
 11
273.211541
 21
105.523116
 31
0.0
 11
271.938234
 21
105.761007
 31
0.0
 11
270.832122
 21
105.969673
 31
0.0
 11
269.536886
 21
106.130960
 31
0.0
 11
267.947727
 21
106.195657
 31
0.0
  0
SPLINE
  5
166
100
AcDbEntity
  8
Layer_1
 62
1
100
AcDbSpline
 70
0
 71
3
 72
13
 73
9
 74
7
 40
0.000000
 40
0.000000
 40
0.000000
 40
0.000000
 40
1.324397
 40
2.618453
 40
3.914376
 40
5.039877
 40
6.345177
 40
7.935715
 40
7.935715
 40
7.935715
 40
7.935715
 10
254.829615
 20
105.295789
 30
0.0
 10
255.271185
 20
105.308441
 30
0.0
 10
256.144209
 20
105.333457
 30
0.0
 10
257.439003
 20
105.511183
 30
0.0
 10
258.654352
 20
105.748937
 30
0.0
 10
259.872373
 20
105.993666
 30
0.0
 10
261.204359
 20
106.163711
 30
0.0
 10
262.170025
 20
106.184331
 30
0.0
 10
262.700417
 20
106.195657
 30
0.0
 11
254.829615
 21
105.295789
 31
0.0
 11
256.152561
 21
105.357761
 31
0.0
 11
257.436009
 21
105.523116
 31
0.0
 11
258.709911
 21
105.761007
 31
0.0
 11
259.815899
 21
105.969673
 31
0.0
 11
261.111196
 21
106.130960
 31
0.0
 11
262.700417
 21
106.195657
 31
0.0
  0
SPLINE
  5
167
100
AcDbEntity
  8
Layer_1
 62
1
100
AcDbSpline
 70
0
 71
3
 72
13
 73
9
 74
7
 40
0.000000
 40
0.000000
 40
0.000000
 40
0.000000
 40
1.324448
 40
2.618486
 40
3.914079
 40
5.039396
 40
6.344628
 40
7.935155
 40
7.935155
 40
7.935155
 40
7.935155
 10
254.830182
 20
107.095514
 30
0.0
 10
255.271769
 20
107.082861
 30
0.0
 10
256.144803
 20
107.057845
 30
0.0
 10
257.439505
 20
106.880159
 30
0.0
 10
258.654656
 20
106.642314
 30
0.0
 10
259.872489
 20
106.397634
 30
0.0
 10
261.204388
 20
106.227600
 30
0.0
 10
262.170028
 20
106.206982
 30
0.0
 10
262.700417
 20
106.195657
 30
0.0
 11
254.830182
 21
107.095514
 31
0.0
 11
256.153180
 21
107.033543
 31
0.0
 11
257.436609
 21
106.868184
 31
0.0
 11
258.710170
 21
106.630274
 31
0.0
 11
259.815976
 21
106.421630
 31
0.0
 11
261.111206
 21
106.260353
 31
0.0
 11
262.700417
 21
106.195657
 31
0.0
  0
SPLINE
  5
168
100
AcDbEntity
  8
Layer_1
 62
1
100
AcDbSpline
 70
0
 71
3
 72
19
 73
15
 74
13
 40
0.000000
 40
0.000000
 40
0.000000
 40
0.000000
 40
1.590468
 40
2.895711
 40
4.021337
 40
5.316938
 40
6.610913
 40
7.935169
 40
9.259798
 40
10.553907
 40
11.849539
 40
12.974846
 40
14.280087
 40
15.870622
 40
15.870622
 40
15.870622
 40
15.870622
 10
257.452865
 20
104.276032
 30
0.0
 10
257.983234
 20
104.287344
 30
0.0
 10
258.948859
 20
104.307938
 30
0.0
 10
260.280839
 20
104.478151
 30
0.0
 10
261.498789
 20
104.722348
 30
0.0
 10
262.714027
 20
104.962068
 30
0.0
 10
264.008645
 20
105.132494
 30
0.0
 10
265.323241
 20
105.197848
 30
0.0
 10
266.637882
 20
105.132526
 30
0.0
 10
267.932692
 20
104.962168
 30
0.0
 10
269.147864
 20
104.722373
 30
0.0
 10
270.365705
 20
104.478117
 30
0.0
 10
271.697605
 20
104.307941
 30
0.0
 10
272.663251
 20
104.287345
 30
0.0
 10
273.193643
 20
104.276032
 30
0.0
 11
257.452865
 21
104.276032
 31
0.0
 11
259.042017
 21
104.340729
 31
0.0
 11
260.337256
 21
104.502015
 31
0.0
 11
261.443371
 21
104.710683
 31
0.0
 11
262.716945
 21
104.948574
 31
0.0
 11
264.000312
 21
105.113928
 31
0.0
 11
265.323117
 21
105.175901
 31
0.0
 11
266.646297
 21
105.113960
 31
0.0
 11
267.929802
 21
104.948638
 31
0.0
 11
269.203396
 21
104.710683
 31
0.0
 11
270.309187
 21
104.502015
 31
0.0
 11
271.604424
 21
104.340729
 31
0.0
 11
273.193643
 21
104.276032
 31
0.0
  0
SPLINE
  5
169
100
AcDbEntity
  8
Layer_1
 62
1
100
AcDbSpline
 70
0
 71
3
 72
19
 73
15
 74
13
 40
0.000000
 40
0.000000
 40
0.000000
 40
0.000000
 40
1.590546
 40
2.895861
 40
4.021368
 40
5.316712
 40
6.610554
 40
7.934930
 40
9.259645
 40
10.553968
 40
11.849858
 40
12.975621
 40
14.281130
 40
15.871753
 40
15.871753
 40
15.871753
 40
15.871753
 10
257.454225
 20
108.115384
 30
0.0
 10
257.984620
 20
108.104072
 30
0.0
 10
258.950295
 20
108.083476
 30
0.0
 10
260.282287
 20
107.913282
 30
0.0
 10
261.500142
 20
107.669123
 30
0.0
 10
262.715189
 20
107.429312
 30
0.0
 10
264.009709
 20
107.258827
 30
0.0
 10
265.324331
 20
107.193439
 30
0.0
 10
266.639111
 20
107.258836
 30
0.0
 10
267.934089
 20
107.429322
 30
0.0
 10
269.149580
 20
107.669095
 30
0.0
 10
270.367769
 20
107.913276
 30
0.0
 10
271.699938
 20
108.083470
 30
0.0
 10
272.665703
 20
108.104070
 30
0.0
 10
273.196123
 20
108.115384
 30
0.0
 11
257.454225
 21
108.115384
 31
0.0
 11
259.043455
 21
108.050688
 31
0.0
 11
260.338768
 21
107.889408
 31
0.0
 11
261.444765
 21
107.680759
 31
0.0
 11
262.718069
 21
107.442821
 31
0.0
 11
264.001294
 21
107.277407
 31
0.0
 11
265.324217
 21
107.215405
 31
0.0
 11
266.647481
 21
107.277407
 31
0.0
 11
267.931190
 21
107.442821
 31
0.0
 11
269.205050
 21
107.680759
 31
0.0
 11
270.311308
 21
107.889408
 31
0.0
 11
271.606817
 21
108.050688
 31
0.0
 11
273.196123
 21
108.115384
 31
0.0
  0
SPLINE
  5
16a
100
AcDbEntity
  8
Layer_1
 62
1
100
AcDbSpline
 70
0
 71
3
 72
13
 73
9
 74
7
 40
0.000000
 40
0.000000
 40
0.000000
 40
0.000000
 40
0.818085
 40
1.625967
 40
2.413801
 40
3.956203
 40
5.689799
 40
7.936731
 40
7.936731
 40
7.936731
 40
7.936731
 10
254.830459
 20
107.095514
 30
0.0
 10
254.557731
 20
107.091709
 30
0.0
 10
254.015676
 20
107.084145
 30
0.0
 10
253.212990
 20
107.022674
 30
0.0
 10
252.174367
 20
106.892031
 30
0.0
 10
250.850699
 20
106.602315
 30
0.0
 10
249.038486
 20
106.257227
 30
0.0
 10
247.709720
 20
106.217872
 30
0.0
 10
246.959656
 20
106.195657
 30
0.0
 11
254.830459
 21
107.095514
 31
0.0
 11
254.012618
 21
107.075530
 31
0.0
 11
253.206965
 21
107.015552
 31
0.0
 11
252.425505
 21
106.915544
 31
0.0
 11
250.911227
 21
106.622342
 31
0.0
 11
249.202628
 21
106.329012
 31
0.0
 11
246.959656
 21
106.195657
 31
0.0
  0
SPLINE
  5
16b
100
AcDbEntity
  8
Layer_1
 62
1
100
AcDbSpline
 70
0
 71
3
 72
13
 73
9
 74
7
 40
0.000000
 40
0.000000
 40
0.000000
 40
0.000000
 40
0.818086
 40
1.625970
 40
2.413796
 40
3.956210
 40
5.689802
 40
7.936732
 40
7.936732
 40
7.936732
 40
7.936732
 10
254.830459
 20
105.295789
 30
0.0
 10
254.557730
 20
105.299603
 30
0.0
 10
254.015674
 20
105.307182
 30
0.0
 10
253.212997
 20
105.368728
 30
0.0
 10
252.174351
 20
105.499213
 30
0.0
 10
250.850714
 20
105.789111
 30
0.0
 10
249.038481
 20
106.134094
 30
0.0
 10
247.709718
 20
106.173444
 30
0.0
 10
246.959656
 20
106.195657
 30
0.0
 11
254.830459
 21
105.295789
 31
0.0
 11
254.012618
 21
105.315806
 31
0.0
 11
253.206965
 21
105.375817
 31
0.0
 11
252.425505
 21
105.475762
 31
0.0
 11
250.911227
 21
105.769030
 31
0.0
 11
249.202628
 21
106.062332
 31
0.0
 11
246.959656
 21
106.195657
 31
0.0
  0
SPLINE
  5
16c
100
AcDbEntity
  8
Layer_1
 62
1
100
AcDbSpline
 70
0
 71
3
 72
13
 73
9
 74
7
 40
0.000000
 40
0.000000
 40
0.000000
 40
0.000000
 40
0.818135
 40
1.626077
 40
2.413780
 40
3.956197
 40
5.689863
 40
7.936991
 40
7.936991
 40
7.936991
 40
7.936991
 10
233.841282
 20
105.295789
 30
0.0
 10
234.114026
 20
105.299603
 30
0.0
 10
234.656118
 20
105.307185
 30
0.0
 10
235.458791
 20
105.368715
 30
0.0
 10
236.497412
 20
105.499232
 30
0.0
 10
237.821035
 20
105.789116
 30
0.0
 10
239.633362
 20
106.134100
 30
0.0
 10
240.962216
 20
106.173446
 30
0.0
 10
241.712344
 20
106.195657
 30
0.0
 11
233.841282
 21
105.295789
 31
0.0
 11
234.659172
 21
105.315806
 31
0.0
 11
235.464881
 21
105.375817
 31
0.0
 11
236.246218
 21
105.475762
 31
0.0
 11
237.760499
 21
105.769030
 31
0.0
 11
239.469174
 21
106.062332
 31
0.0
 11
241.712344
 21
106.195657
 31
0.0
  0
SPLINE
  5
16d
100
AcDbEntity
  8
Layer_1
 62
1
100
AcDbSpline
 70
0
 71
3
 72
13
 73
9
 74
7
 40
0.000000
 40
0.000000
 40
0.000000
 40
0.000000
 40
0.818135
 40
1.626073
 40
2.413785
 40
3.956189
 40
5.689860
 40
7.936990
 40
7.936990
 40
7.936990
 40
7.936990
 10
233.841282
 20
107.095514
 30
0.0
 10
234.114026
 20
107.091708
 30
0.0
 10
234.656116
 20
107.084142
 30
0.0
 10
235.458798
 20
107.022686
 30
0.0
 10
236.497396
 20
106.892012
 30
0.0
 10
237.821050
 20
106.602310
 30
0.0
 10
239.633356
 20
106.257221
 30
0.0
 10
240.962214
 20
106.217870
 30
0.0
 10
241.712344
 20
106.195657
 30
0.0
 11
233.841282
 21
107.095514
 31
0.0
 11
234.659172
 21
107.075530
 31
0.0
 11
235.464881
 21
107.015552
 31
0.0
 11
236.246218
 21
106.915544
 31
0.0
 11
237.760499
 21
106.622342
 31
0.0
 11
239.469174
 21
106.329012
 31
0.0
 11
241.712344
 21
106.195657
 31
0.0
  0
SPLINE
  5
16e
100
AcDbEntity
  8
Layer_1
 62
1
100
AcDbSpline
 70
0
 71
3
 72
16
 73
12
 74
10
 40
0.000000
 40
0.000000
 40
0.000000
 40
0.000000
 40
2.247121
 40
3.980786
 40
5.523195
 40
7.118476
 40
8.754091
 40
10.349177
 40
11.891600
 40
13.625274
 40
15.872408
 40
15.872408
 40
15.872408
 40
15.872408
 10
236.464791
 20
104.276032
 30
0.0
 10
237.214922
 20
104.298214
 30
0.0
 10
238.543782
 20
104.337508
 30
0.0
 10
240.356048
 20
104.682801
 30
0.0
 10
241.942885
 20
105.029293
 30
0.0
 10
243.530754
 20
105.182436
 30
0.0
 10
245.141081
 20
105.182448
 30
0.0
 10
246.728886
 20
105.029272
 30
0.0
 10
248.315669
 20
104.682803
 30
0.0
 10
250.127947
 20
104.337508
 30
0.0
 10
251.456814
 20
104.298214
 30
0.0
 10
252.206949
 20
104.276032
 30
0.0
 11
236.464791
 21
104.276032
 31
0.0
 11
238.707954
 21
104.409357
 31
0.0
 11
240.416628
 21
104.702658
 31
0.0
 11
241.930899
 21
104.995928
 31
0.0
 11
243.518142
 21
105.155872
 31
0.0
 11
245.153757
 21
105.155872
 31
0.0
 11
246.740804
 21
104.995928
 31
0.0
 11
248.255090
 21
104.702658
 31
0.0
 11
249.963774
 21
104.409357
 31
0.0
 11
252.206949
 21
104.276032
 31
0.0
  0
SPLINE
  5
16f
100
AcDbEntity
  8
Layer_1
 62
1
100
AcDbSpline
 70
0
 71
3
 72
16
 73
12
 74
10
 40
0.000000
 40
0.000000
 40
0.000000
 40
0.000000
 40
2.247121
 40
3.980785
 40
5.523193
 40
7.118474
 40
8.754090
 40
10.349176
 40
11.891599
 40
13.625272
 40
15.872406
 40
15.872406
 40
15.872406
 40
15.872406
 10
236.464791
 20
108.115384
 30
0.0
 10
237.214922
 20
108.093202
 30
0.0
 10
238.543782
 20
108.053909
 30
0.0
 10
240.356048
 20
107.708621
 30
0.0
 10
241.942885
 20
107.362132
 30
0.0
 10
243.530754
 20
107.208988
 30
0.0
 10
245.141081
 20
107.208976
 30
0.0
 10
246.728886
 20
107.362153
 30
0.0
 10
248.315668
 20
107.708619
 30
0.0
 10
250.127947
 20
108.053909
 30
0.0
 10
251.456814
 20
108.093203
 30
0.0
 10
252.206949
 20
108.115384
 30
0.0
 11
236.464791
 21
108.115384
 31
0.0
 11
238.707954
 21
107.982061
 31
0.0
 11
240.416628
 21
107.688764
 31
0.0
 11
241.930899
 21
107.395497
 31
0.0
 11
243.518142
 21
107.235552
 31
0.0
 11
245.153757
 21
107.235552
 31
0.0
 11
246.740804
 21
107.395497
 31
0.0
 11
248.255090
 21
107.688764
 31
0.0
 11
249.963774
 21
107.982061
 31
0.0
 11
252.206949
 21
108.115384
 31
0.0
  0
SPLINE
  5
170
100
AcDbEntity
  8
Layer_1
 62
1
100
AcDbSpline
 70
0
 71
3
 72
13
 73
9
 74
7
 40
0.000000
 40
0.000000
 40
0.000000
 40
0.000000
 40
1.324457
 40
2.618499
 40
3.914109
 40
5.039798
 40
6.345172
 40
7.935732
 40
7.935732
 40
7.935732
 40
7.935732
 10
233.841282
 20
107.095514
 30
0.0
 10
233.399692
 20
107.082861
 30
0.0
 10
232.526654
 20
107.057844
 30
0.0
 10
231.231940
 20
106.880165
 30
0.0
 10
230.016666
 20
106.642265
 30
0.0
 10
228.798637
 20
106.397667
 30
0.0
 10
227.466561
 20
106.227599
 30
0.0
 10
226.500862
 20
106.206981
 30
0.0
 10
225.970462
 20
106.195657
 30
0.0
 11
233.841282
 21
107.095514
 31
0.0
 11
232.518275
 21
107.033543
 31
0.0
 11
231.234842
 21
106.868184
 31
0.0
 11
229.961262
 21
106.630274
 31
0.0
 11
228.855078
 21
106.421630
 31
0.0
 11
227.559705
 21
106.260353
 31
0.0
 11
225.970462
 21
106.195657
 31
0.0
  0
SPLINE
  5
171
100
AcDbEntity
  8
Layer_1
 62
1
100
AcDbSpline
 70
0
 71
3
 72
13
 73
9
 74
7
 40
0.000000
 40
0.000000
 40
0.000000
 40
0.000000
 40
1.324457
 40
2.618498
 40
3.914105
 40
5.039670
 40
6.345110
 40
7.935735
 40
7.935735
 40
7.935735
 40
7.935735
 10
233.841282
 20
105.295789
 30
0.0
 10
233.399692
 20
105.308442
 30
0.0
 10
232.526653
 20
105.333459
 30
0.0
 10
231.231944
 20
105.511146
 30
0.0
 10
230.016701
 20
105.748983
 30
0.0
 10
228.798708
 20
105.993666
 30
0.0
 10
227.466625
 20
106.163708
 30
0.0
 10
226.500883
 20
106.184331
 30
0.0
 10
225.970462
 20
106.195657
 30
0.0
 11
233.841282
 21
105.295789
 31
0.0
 11
232.518275
 21
105.357761
 31
0.0
 11
231.234842
 21
105.523116
 31
0.0
 11
229.961262
 21
105.761007
 31
0.0
 11
228.855209
 21
105.969673
 31
0.0
 11
227.559770
 21
106.130960
 31
0.0
 11
225.970462
 21
106.195657
 31
0.0
  0
SPLINE
  5
172
100
AcDbEntity
  8
Layer_1
 62
1
100
AcDbSpline
 70
0
 71
3
 72
13
 73
9
 74
7
 40
0.000000
 40
0.000000
 40
0.000000
 40
0.000000
 40
1.324368
 40
2.618276
 40
3.913798
 40
5.039312
 40
6.344615
 40
7.935152
 40
7.935152
 40
7.935152
 40
7.935152
 10
212.853211
 20
105.295789
 30
0.0
 10
213.294771
 20
105.308442
 30
0.0
 10
214.167736
 20
105.333456
 30
0.0
 10
215.462341
 20
105.511150
 30
0.0
 10
216.677492
 20
105.748987
 30
0.0
 10
217.895394
 20
105.993658
 30
0.0
 10
219.227383
 20
106.163713
 30
0.0
 10
220.193051
 20
106.184332
 30
0.0
 10
220.723443
 20
106.195657
 30
0.0
 11
212.853211
 21
105.295789
 31
0.0
 11
214.176128
 21
105.357761
 31
0.0
 11
215.459427
 21
105.523116
 31
0.0
 11
216.732920
 21
105.761007
 31
0.0
 11
217.838921
 21
105.969673
 31
0.0
 11
219.134222
 21
106.130960
 31
0.0
 11
220.723443
 21
106.195657
 31
0.0
  0
SPLINE
  5
173
100
AcDbEntity
  8
Layer_1
 62
1
100
AcDbSpline
 70
0
 71
3
 72
13
 73
9
 74
7
 40
0.000000
 40
0.000000
 40
0.000000
 40
0.000000
 40
1.324651
 40
2.618765
 40
3.914388
 40
5.040075
 40
6.345444
 40
7.935990
 40
7.935990
 40
7.935990
 40
7.935990
 10
212.852364
 20
107.095514
 30
0.0
 10
213.294019
 20
107.082862
 30
0.0
 10
214.167146
 20
107.057849
 30
0.0
 10
215.461953
 20
106.880170
 30
0.0
 10
216.677255
 20
106.642266
 30
0.0
 10
217.895285
 20
106.397668
 30
0.0
 10
219.227354
 20
106.227599
 30
0.0
 10
220.193048
 20
106.206981
 30
0.0
 10
220.723443
 20
106.195657
 30
0.0
 11
212.852364
 21
107.095514
 31
0.0
 11
214.175565
 21
107.033543
 31
0.0
 11
215.459071
 21
106.868184
 31
0.0
 11
216.732663
 21
106.630274
 31
0.0
 11
217.838845
 21
106.421630
 31
0.0
 11
219.134213
 21
106.260353
 31
0.0
 11
220.723443
 21
106.195657
 31
0.0
  0
SPLINE
  5
174
100
AcDbEntity
  8
Layer_1
 62
1
100
AcDbSpline
 70
0
 71
3
 72
19
 73
15
 74
13
 40
0.000000
 40
0.000000
 40
0.000000
 40
0.000000
 40
1.590462
 40
2.895637
 40
4.021064
 40
5.316593
 40
6.610503
 40
7.934881
 40
9.259351
 40
10.553460
 40
11.849252
 40
12.974761
 40
14.280075
 40
15.870621
 40
15.870621
 40
15.870621
 40
15.870621
 10
215.476994
 20
104.276032
 30
0.0
 10
216.007361
 20
104.287344
 30
0.0
 10
216.972961
 20
104.307938
 30
0.0
 10
218.304853
 20
104.478133
 30
0.0
 10
219.522681
 20
104.722367
 30
0.0
 10
220.737809
 20
104.962066
 30
0.0
 10
222.032420
 20
105.132503
 30
0.0
 10
223.346983
 20
105.197847
 30
0.0
 10
224.661611
 20
105.132521
 30
0.0
 10
225.956419
 20
104.962154
 30
0.0
 10
227.171716
 20
104.722365
 30
0.0
 10
228.389709
 20
104.478133
 30
0.0
 10
229.721703
 20
104.307942
 30
0.0
 10
230.687377
 20
104.287345
 30
0.0
 10
231.217772
 20
104.276032
 30
0.0
 11
215.476994
 21
104.276032
 31
0.0
 11
217.066139
 21
104.340729
 31
0.0
 11
218.361311
 21
104.502015
 31
0.0
 11
219.467224
 21
104.710683
 31
0.0
 11
220.740725
 21
104.948574
 31
0.0
 11
222.024025
 21
105.113928
 31
0.0
 11
223.346953
 21
105.175901
 31
0.0
 11
224.669973
 21
105.113960
 31
0.0
 11
225.953479
 21
104.948638
 31
0.0
 11
227.227234
 21
104.710683
 31
0.0
 11
228.333231
 21
104.502015
 31
0.0
 11
229.628543
 21
104.340729
 31
0.0
 11
231.217772
 21
104.276032
 31
0.0
  0
SPLINE
  5
175
100
AcDbEntity
  8
Layer_1
 62
1
100
AcDbSpline
 70
0
 71
3
 72
19
 73
15
 74
13
 40
0.000000
 40
0.000000
 40
0.000000
 40
0.000000
 40
1.590556
 40
2.895942
 40
4.021640
 40
5.317227
 40
6.611201
 40
7.935457
 40
9.260183
 40
10.554435
 40
11.850113
 40
12.975737
 40
14.280987
 40
15.871479
 40
15.871479
 40
15.871479
 40
15.871479
 10
215.475874
 20
108.115384
 30
0.0
 10
216.006272
 20
108.104072
 30
0.0
 10
216.971975
 20
108.083476
 30
0.0
 10
218.304056
 20
107.913269
 30
0.0
 10
219.522084
 20
107.669121
 30
0.0
 10
220.737326
 20
107.429323
 30
0.0
 10
222.031931
 20
107.258839
 30
0.0
 10
223.346559
 20
107.193437
 30
0.0
 10
224.661280
 20
107.258835
 30
0.0
 10
225.956169
 20
107.429306
 30
0.0
 10
227.171512
 20
107.669103
 30
0.0
 10
228.389496
 20
107.913266
 30
0.0
 10
229.721485
 20
108.083480
 30
0.0
 10
230.687121
 20
108.104073
 30
0.0
 10
231.217498
 20
108.115384
 30
0.0
 11
215.475874
 21
108.115384
 31
0.0
 11
217.065113
 21
108.050688
 31
0.0
 11
218.360499
 21
107.889408
 31
0.0
 11
219.466691
 21
107.680759
 31
0.0
 11
220.740241
 21
107.442821
 31
0.0
 11
222.023599
 21
107.277407
 31
0.0
 11
223.346402
 21
107.215405
 31
0.0
 11
224.669677
 21
107.277407
 31
0.0
 11
225.953315
 21
107.442821
 31
0.0
 11
227.226958
 21
107.680759
 31
0.0
 11
228.333074
 21
107.889408
 31
0.0
 11
229.628323
 21
108.050688
 31
0.0
 11
231.217498
 21
108.115384
 31
0.0
  0
SPLINE
  5
176
100
AcDbEntity
  8
Layer_1
 62
1
100
AcDbSpline
 70
0
 71
3
 72
13
 73
9
 74
7
 40
0.000000
 40
0.000000
 40
0.000000
 40
0.000000
 40
1.324304
 40
2.618331
 40
3.913802
 40
5.039319
 40
6.344628
 40
7.935168
 40
7.935168
 40
7.935168
 40
7.935168
 10
212.852364
 20
107.095514
 30
0.0
 10
212.410826
 20
107.082858
 30
0.0
 10
211.537844
 20
107.057836
 30
0.0
 10
210.243231
 20
106.880176
 30
0.0
 10
209.028068
 20
106.642272
 30
0.0
 10
207.810170
 20
106.397654
 30
0.0
 10
206.478179
 20
106.227599
 30
0.0
 10
205.512508
 20
106.206981
 30
0.0
 10
204.982115
 20
106.195657
 30
0.0
 11
212.852364
 21
107.095514
 31
0.0
 11
211.529511
 21
107.033543
 31
0.0
 11
210.246093
 21
106.868184
 31
0.0
 11
208.972655
 21
106.630274
 31
0.0
 11
207.866645
 21
106.421630
 31
0.0
 11
206.571338
 21
106.260353
 31
0.0
 11
204.982115
 21
106.195657
 31
0.0
  0
SPLINE
  5
177
100
AcDbEntity
  8
Layer_1
 62
1
100
AcDbSpline
 70
0
 71
3
 72
13
 73
9
 74
7
 40
0.000000
 40
0.000000
 40
0.000000
 40
0.000000
 40
1.324533
 40
2.618707
 40
3.914366
 40
5.040077
 40
6.345457
 40
7.936007
 40
7.936007
 40
7.936007
 40
7.936007
 10
212.853211
 20
105.295789
 30
0.0
 10
212.411596
 20
105.308444
 30
0.0
 10
211.538489
 20
105.333464
 30
0.0
 10
210.243689
 20
105.511136
 30
0.0
 10
209.028338
 20
105.748999
 30
0.0
 10
207.810292
 20
105.993642
 30
0.0
 10
206.478209
 20
106.163713
 30
0.0
 10
205.512511
 20
106.184332
 30
0.0
 10
204.982115
 20
106.195657
 30
0.0
 11
212.853211
 21
105.295789
 31
0.0
 11
211.530129
 21
105.357761
 31
0.0
 11
210.246562
 21
105.523116
 31
0.0
 11
208.972929
 21
105.761007
 31
0.0
 11
207.866726
 21
105.969673
 31
0.0
 11
206.571348
 21
106.130960
 31
0.0
 11
204.982115
 21
106.195657
 31
0.0
  0
SPLINE
  5
178
100
AcDbEntity
  8
Layer_1
 62
1
100
AcDbSpline
 70
0
 71
3
 72
13
 73
9
 74
7
 40
0.000000
 40
0.000000
 40
0.000000
 40
0.000000
 40
1.324443
 40
2.618411
 40
3.913819
 40
5.039252
 40
6.344434
 40
7.934908
 40
7.934908
 40
7.934908
 40
7.934908
 10
191.864852
 20
105.295789
 30
0.0
 10
192.306437
 20
105.308442
 30
0.0
 10
193.179446
 20
105.333458
 30
0.0
 10
194.474062
 20
105.511132
 30
0.0
 10
195.689164
 20
105.748991
 30
0.0
 10
196.906959
 20
105.993655
 30
0.0
 10
198.238858
 20
106.163718
 30
0.0
 10
199.204465
 20
106.184334
 30
0.0
 10
199.734836
 20
106.195657
 30
0.0
 11
191.864852
 21
105.295789
 31
0.0
 11
193.187844
 21
105.357761
 31
0.0
 11
194.471204
 21
105.523116
 31
0.0
 11
195.744581
 21
105.761007
 31
0.0
 11
196.850500
 21
105.969673
 31
0.0
 11
198.145678
 21
106.130960
 31
0.0
 11
199.734836
 21
106.195657
 31
0.0
  0
SPLINE
  5
179
100
AcDbEntity
  8
Layer_1
 62
1
100
AcDbSpline
 70
0
 71
3
 72
13
 73
9
 74
7
 40
0.000000
 40
0.000000
 40
0.000000
 40
0.000000
 40
1.324340
 40
2.618513
 40
3.914358
 40
5.039941
 40
6.345383
 40
7.935996
 40
7.935996
 40
7.935996
 40
7.935996
 10
191.863749
 20
107.095514
 30
0.0
 10
192.305299
 20
107.082858
 30
0.0
 10
193.178342
 20
107.057835
 30
0.0
 10
194.473137
 20
106.880148
 30
0.0
 10
195.688511
 20
106.642308
 30
0.0
 10
196.906594
 20
106.397644
 30
0.0
 10
198.238680
 20
106.227605
 30
0.0
 10
199.204419
 20
106.206984
 30
0.0
 10
199.734836
 20
106.195657
 30
0.0
 11
191.863749
 21
107.095514
 31
0.0
 11
193.186638
 21
107.033543
 31
0.0
 11
194.470204
 21
106.868184
 31
0.0
 11
195.744022
 21
106.630274
 31
0.0
 11
196.850098
 21
106.421630
 31
0.0
 11
198.145539
 21
106.260353
 31
0.0
 11
199.734836
 21
106.195657
 31
0.0
  0
SPLINE
  5
17a
100
AcDbEntity
  8
Layer_1
 62
1
100
AcDbSpline
 70
0
 71
3
 72
19
 73
15
 74
13
 40
0.000000
 40
0.000000
 40
0.000000
 40
0.000000
 40
1.590539
 40
2.895841
 40
4.021338
 40
5.316682
 40
6.610521
 40
7.934891
 40
9.259301
 40
10.553604
 40
11.849531
 40
12.975092
 40
14.280460
 40
15.870894
 40
15.870894
 40
15.870894
 40
15.870894
 10
194.488920
 20
104.276032
 30
0.0
 10
195.019313
 20
104.287345
 30
0.0
 10
195.984981
 20
104.307941
 30
0.0
 10
197.316965
 20
104.478133
 30
0.0
 10
198.534803
 20
104.722336
 30
0.0
 10
199.749859
 20
104.962082
 30
0.0
 10
201.044384
 20
105.132503
 30
0.0
 10
202.358901
 20
105.197850
 30
0.0
 10
203.673570
 20
105.132507
 30
0.0
 10
204.968471
 20
104.962159
 30
0.0
 10
206.183897
 20
104.722373
 30
0.0
 10
207.401970
 20
104.478132
 30
0.0
 10
208.733963
 20
104.307949
 30
0.0
 10
209.699618
 20
104.287347
 30
0.0
 10
210.229975
 20
104.276032
 30
0.0
 11
194.488920
 21
104.276032
 31
0.0
 11
196.078143
 21
104.340729
 31
0.0
 11
197.373442
 21
104.502015
 31
0.0
 11
198.479427
 21
104.710683
 31
0.0
 11
199.752739
 21
104.948574
 31
0.0
 11
201.035968
 21
105.113928
 31
0.0
 11
202.358887
 21
105.175901
 31
0.0
 11
203.681848
 21
105.113960
 31
0.0
 11
204.965549
 21
104.948638
 31
0.0
 11
206.239443
 21
104.710683
 31
0.0
 11
207.345492
 21
104.502015
 31
0.0
 11
208.640858
 21
104.340729
 31
0.0
 11
210.229975
 21
104.276032
 31
0.0
  0
SPLINE
  5
17b
100
AcDbEntity
  8
Layer_1
 62
1
100
AcDbSpline
 70
0
 71
3
 72
19
 73
15
 74
13
 40
0.000000
 40
0.000000
 40
0.000000
 40
0.000000
 40
1.590790
 40
2.896300
 40
4.021901
 40
5.317564
 40
6.611665
 40
7.935988
 40
9.260655
 40
10.554845
 40
11.850643
 40
12.976155
 40
14.281465
 40
15.872011
 40
15.872011
 40
15.872011
 40
15.872011
 10
194.486440
 20
108.115384
 30
0.0
 10
195.016916
 20
108.104071
 30
0.0
 10
195.982737
 20
108.083474
 30
0.0
 10
197.314910
 20
107.913293
 30
0.0
 10
198.532965
 20
107.669098
 30
0.0
 10
199.748247
 20
107.429321
 30
0.0
 10
201.042944
 20
107.258843
 30
0.0
 10
202.357616
 20
107.193438
 30
0.0
 10
203.672320
 20
107.258831
 30
0.0
 10
204.967204
 20
107.429329
 30
0.0
 10
206.182538
 20
107.669072
 30
0.0
 10
207.400536
 20
107.913288
 30
0.0
 10
208.732530
 20
108.083475
 30
0.0
 10
209.698203
 20
108.104071
 30
0.0
 10
210.228598
 20
108.115384
 30
0.0
 11
194.486440
 21
108.115384
 31
0.0
 11
196.075914
 21
108.050688
 31
0.0
 11
197.371423
 21
107.889408
 31
0.0
 11
198.477516
 21
107.680759
 31
0.0
 11
199.751145
 21
107.442821
 31
0.0
 11
201.034631
 21
107.277407
 31
0.0
 11
202.357502
 21
107.215405
 31
0.0
 11
203.680716
 21
107.277407
 31
0.0
 11
204.964292
 21
107.442821
 31
0.0
 11
206.238057
 21
107.680759
 31
0.0
 11
207.344060
 21
107.889408
 31
0.0
 11
208.639368
 21
108.050688
 31
0.0
 11
210.228598
 21
108.115384
 31
0.0
  0
SPLINE
  5
17c
100
AcDbEntity
  8
Layer_1
 62
1
100
AcDbSpline
 70
0
 71
3
 72
13
 73
9
 74
7
 40
0.000000
 40
0.000000
 40
0.000000
 40
0.000000
 40
1.324437
 40
2.618471
 40
3.914055
 40
5.039769
 40
6.345229
 40
7.935968
 40
7.935968
 40
7.935968
 40
7.935968
 10
275.819893
 20
110.934868
 30
0.0
 10
275.378309
 20
110.922216
 30
0.0
 10
274.505280
 20
110.897201
 30
0.0
 10
273.210586
 20
110.719536
 30
0.0
 10
271.995284
 20
110.481798
 30
0.0
 10
270.777243
 20
110.237112
 30
0.0
 10
269.445078
 20
110.066971
 30
0.0
 10
268.479290
 20
110.046340
 30
0.0
 10
267.948831
 20
110.035008
 30
0.0
 11
275.819893
 21
110.934868
 31
0.0
 11
274.496906
 21
110.872902
 31
0.0
 11
273.213476
 21
110.707581
 31
0.0
 11
271.939904
 21
110.469772
 31
0.0
 11
270.833703
 21
110.261086
 31
0.0
 11
269.538251
 21
110.099740
 31
0.0
 11
267.948831
 21
110.035008
 31
0.0
  0
SPLINE
  5
17d
100
AcDbEntity
  8
Layer_1
 62
1
100
AcDbSpline
 70
0
 71
3
 72
13
 73
9
 74
7
 40
0.000000
 40
0.000000
 40
0.000000
 40
0.000000
 40
1.324378
 40
2.618284
 40
3.913797
 40
5.039524
 40
6.344981
 40
7.935718
 40
7.935718
 40
7.935718
 40
7.935718
 10
275.819633
 20
109.135140
 30
0.0
 10
275.378069
 20
109.147791
 30
0.0
 10
274.505102
 20
109.172803
 30
0.0
 10
273.210498
 20
109.350491
 30
0.0
 10
271.995251
 20
109.588188
 30
0.0
 10
270.777255
 20
109.832997
 30
0.0
 10
269.445074
 20
110.003062
 30
0.0
 10
268.479289
 20
110.023683
 30
0.0
 10
267.948831
 20
110.035008
 30
0.0
 11
275.819633
 21
109.135140
 31
0.0
 11
274.496706
 21
109.197108
 31
0.0
 11
273.213405
 21
109.362431
 31
0.0
 11
271.939904
 21
109.600237
 31
0.0
 11
270.833703
 21
109.808990
 31
0.0
 11
269.538251
 21
109.970307
 31
0.0
 11
267.948831
 21
110.035008
 31
0.0
  0
SPLINE
  5
17e
100
AcDbEntity
  8
Layer_1
 62
1
100
AcDbSpline
 70
0
 71
3
 72
13
 73
9
 74
7
 40
0.000000
 40
0.000000
 40
0.000000
 40
0.000000
 40
1.324508
 40
2.618677
 40
3.914343
 40
5.040061
 40
6.345510
 40
7.936263
 40
7.936263
 40
7.936263
 40
7.936263
 10
254.830459
 20
109.135140
 30
0.0
 10
255.272065
 20
109.147793
 30
0.0
 10
256.145164
 20
109.172810
 30
0.0
 10
257.439952
 20
109.350482
 30
0.0
 10
258.655340
 20
109.588171
 30
0.0
 10
259.873379
 20
109.832999
 30
0.0
 10
261.205560
 20
110.003063
 30
0.0
 10
262.171348
 20
110.023683
 30
0.0
 10
262.701811
 20
110.035008
 30
0.0
 11
254.830459
 21
109.135140
 31
0.0
 11
256.153516
 21
109.197108
 31
0.0
 11
257.437082
 21
109.362431
 31
0.0
 11
258.710738
 21
109.600237
 31
0.0
 11
259.816931
 21
109.808990
 31
0.0
 11
261.112375
 21
109.970307
 31
0.0
 11
262.701811
 21
110.035008
 31
0.0
  0
SPLINE
  5
17f
100
AcDbEntity
  8
Layer_1
 62
1
100
AcDbSpline
 70
0
 71
3
 72
13
 73
9
 74
7
 40
0.000000
 40
0.000000
 40
0.000000
 40
0.000000
 40
1.324630
 40
2.618739
 40
3.914344
 40
5.040050
 40
6.345503
 40
7.936257
 40
7.936257
 40
7.936257
 40
7.936257
 10
254.830459
 20
110.934868
 30
0.0
 10
255.272106
 20
110.922217
 30
0.0
 10
256.145225
 20
110.897206
 30
0.0
 10
257.440017
 20
110.719541
 30
0.0
 10
258.655349
 20
110.481801
 30
0.0
 10
259.873390
 20
110.237111
 30
0.0
 10
261.205556
 20
110.066970
 30
0.0
 10
262.171347
 20
110.046339
 30
0.0
 10
262.701811
 20
110.035008
 30
0.0
 11
254.830459
 21
110.934868
 31
0.0
 11
256.153639
 21
110.872902
 31
0.0
 11
257.437144
 21
110.707581
 31
0.0
 11
258.710738
 21
110.469772
 31
0.0
 11
259.816931
 21
110.261086
 31
0.0
 11
261.112375
 21
110.099740
 31
0.0
 11
262.701811
 21
110.035008
 31
0.0
  0
SPLINE
  5
180
100
AcDbEntity
  8
Layer_1
 62
1
100
AcDbSpline
 70
0
 71
3
 72
19
 73
15
 74
13
 40
0.000000
 40
0.000000
 40
0.000000
 40
0.000000
 40
1.590556
 40
2.895943
 40
4.021644
 40
5.317222
 40
6.611188
 40
7.935444
 40
9.260107
 40
10.554291
 40
11.850081
 40
12.975780
 40
14.281166
 40
15.871722
 40
15.871722
 40
15.871722
 40
15.871722
 10
257.454225
 20
108.115384
 30
0.0
 10
257.984624
 20
108.126696
 30
0.0
 10
258.950326
 20
108.147293
 30
0.0
 10
260.282410
 20
108.317498
 30
0.0
 10
261.500428
 20
108.561687
 30
0.0
 10
262.715678
 20
108.801423
 30
0.0
 10
264.010285
 20
108.971843
 30
0.0
 10
265.324889
 20
109.037207
 30
0.0
 10
266.639567
 20
108.971850
 30
0.0
 10
267.934455
 20
108.801420
 30
0.0
 10
269.149855
 20
108.561711
 30
0.0
 10
270.367939
 20
108.317495
 30
0.0
 10
271.700023
 20
108.147294
 30
0.0
 10
272.665725
 20
108.126697
 30
0.0
 10
273.196123
 20
108.115384
 30
0.0
 11
257.454225
 21
108.115384
 31
0.0
 11
259.043465
 21
108.180080
 31
0.0
 11
260.338850
 21
108.341366
 31
0.0
 11
261.445042
 21
108.550034
 31
0.0
 11
262.718592
 21
108.787925
 31
0.0
 11
264.001949
 21
108.953279
 31
0.0
 11
265.324754
 21
109.015252
 31
0.0
 11
266.647967
 21
108.953279
 31
0.0
 11
267.931543
 21
108.787925
 31
0.0
 11
269.205309
 21
108.550034
 31
0.0
 11
270.311499
 21
108.341366
 31
0.0
 11
271.606884
 21
108.180080
 31
0.0
 11
273.196123
 21
108.115384
 31
0.0
  0
SPLINE
  5
181
100
AcDbEntity
  8
Layer_1
 62
1
100
AcDbSpline
 70
0
 71
3
 72
19
 73
15
 74
13
 40
0.000000
 40
0.000000
 40
0.000000
 40
0.000000
 40
1.590747
 40
2.896199
 40
4.021890
 40
5.317301
 40
6.611270
 40
7.935709
 40
9.260250
 40
10.554493
 40
11.850344
 40
12.976027
 40
14.281409
 40
15.871962
 40
15.871962
 40
15.871962
 40
15.871962
 10
257.454225
 20
111.954737
 30
0.0
 10
257.984688
 20
111.943421
 30
0.0
 10
258.950477
 20
111.922818
 30
0.0
 10
260.282630
 20
111.752534
 30
0.0
 10
261.500643
 20
111.508516
 30
0.0
 10
262.715815
 20
111.268679
 30
0.0
 10
264.010437
 20
111.098304
 30
0.0
 10
265.325062
 20
111.032949
 30
0.0
 10
266.639778
 20
111.098310
 30
0.0
 10
267.934671
 20
111.268702
 30
0.0
 10
269.150097
 20
111.508464
 30
0.0
 10
270.368222
 20
111.752535
 30
0.0
 10
271.700284
 20
111.922812
 30
0.0
 10
272.665985
 20
111.943419
 30
0.0
 10
273.196383
 20
111.954737
 30
0.0
 11
257.454225
 21
111.954737
 31
0.0
 11
259.043654
 21
111.890011
 31
0.0
 11
260.339102
 21
111.728701
 31
0.0
 11
261.445299
 21
111.520112
 31
0.0
 11
262.718678
 21
111.282212
 31
0.0
 11
264.002039
 21
111.116868
 31
0.0
 11
265.325027
 21
111.054903
 31
0.0
 11
266.648119
 21
111.116868
 31
0.0
 11
267.931756
 21
111.282212
 31
0.0
 11
269.205583
 21
111.520112
 31
0.0
 11
270.311771
 21
111.728701
 31
0.0
 11
271.607148
 21
111.890011
 31
0.0
 11
273.196383
 21
111.954737
 31
0.0
  0
SPLINE
  5
182
100
AcDbEntity
  8
Layer_1
 62
1
100
AcDbSpline
 70
0
 71
3
 72
13
 73
9
 74
7
 40
0.000000
 40
0.000000
 40
0.000000
 40
0.000000
 40
0.818133
 40
1.626071
 40
2.413782
 40
3.956206
 40
5.689867
 40
7.936992
 40
7.936992
 40
7.936992
 40
7.936992
 10
254.830715
 20
110.934868
 30
0.0
 10
254.557972
 20
110.931061
 30
0.0
 10
254.015883
 20
110.923495
 30
0.0
 10
253.213202
 20
110.862032
 30
0.0
 10
252.174595
 20
110.731375
 30
0.0
 10
250.850959
 20
110.441562
 30
0.0
 10
249.038634
 20
110.096557
 30
0.0
 10
247.709783
 20
110.057216
 30
0.0
 10
246.959656
 20
110.035008
 30
0.0
 11
254.830715
 21
110.934868
 31
0.0
 11
254.012827
 21
110.914882
 31
0.0
 11
253.207118
 21
110.854901
 31
0.0
 11
252.425781
 21
110.754895
 31
0.0
 11
250.911494
 21
110.461628
 31
0.0
 11
249.202822
 21
110.168331
 31
0.0
 11
246.959656
 21
110.035008
 31
0.0
  0
SPLINE
  5
183
100
AcDbEntity
  8
Layer_1
 62
1
100
AcDbSpline
 70
0
 71
3
 72
13
 73
9
 74
7
 40
0.000000
 40
0.000000
 40
0.000000
 40
0.000000
 40
0.818134
 40
1.626077
 40
2.413792
 40
3.956210
 40
5.689861
 40
7.936983
 40
7.936983
 40
7.936983
 40
7.936983
 10
254.830715
 20
109.135140
 30
0.0
 10
254.557971
 20
109.138955
 30
0.0
 10
254.015880
 20
109.146539
 30
0.0
 10
253.213202
 20
109.208086
 30
0.0
 10
252.174601
 20
109.338789
 30
0.0
 10
250.850959
 20
109.628548
 30
0.0
 10
249.038628
 20
109.973479
 30
0.0
 10
247.709782
 20
110.012808
 30
0.0
 10
246.959656
 20
110.035008
 30
0.0
 11
254.830715
 21
109.135140
 31
0.0
 11
254.012827
 21
109.155162
 31
0.0
 11
253.207118
 21
109.215210
 31
0.0
 11
252.425781
 21
109.315251
 31
0.0
 11
250.911494
 21
109.608485
 31
0.0
 11
249.202822
 21
109.901720
 31
0.0
 11
246.959656
 21
110.035008
 31
0.0
  0
SPLINE
  5
184
100
AcDbEntity
  8
Layer_1
 62
1
100
AcDbSpline
 70
0
 71
3
 72
13
 73
9
 74
7
 40
0.000000
 40
0.000000
 40
0.000000
 40
0.000000
 40
0.818136
 40
1.626079
 40
2.413795
 40
3.956205
 40
5.689860
 40
7.936986
 40
7.936986
 40
7.936986
 40
7.936986
 10
233.841282
 20
109.135140
 30
0.0
 10
234.114026
 20
109.138955
 30
0.0
 10
234.656118
 20
109.146539
 30
0.0
 10
235.458797
 20
109.208086
 30
0.0
 10
236.497396
 20
109.338789
 30
0.0
 10
237.821036
 20
109.628549
 30
0.0
 10
239.633368
 20
109.973479
 30
0.0
 10
240.962217
 20
110.012807
 30
0.0
 10
241.712344
 20
110.035008
 30
0.0
 11
233.841282
 21
109.135140
 31
0.0
 11
234.659172
 21
109.155162
 31
0.0
 11
235.464881
 21
109.215210
 31
0.0
 11
236.246218
 21
109.315251
 31
0.0
 11
237.760499
 21
109.608485
 31
0.0
 11
239.469174
 21
109.901720
 31
0.0
 11
241.712344
 21
110.035008
 31
0.0
  0
SPLINE
  5
185
100
AcDbEntity
  8
Layer_1
 62
1
100
AcDbSpline
 70
0
 71
3
 72
13
 73
9
 74
7
 40
0.000000
 40
0.000000
 40
0.000000
 40
0.000000
 40
0.818135
 40
1.626073
 40
2.413785
 40
3.956201
 40
5.689867
 40
7.936995
 40
7.936995
 40
7.936995
 40
7.936995
 10
233.841282
 20
110.934868
 30
0.0
 10
234.114026
 20
110.931061
 30
0.0
 10
234.656116
 20
110.923495
 30
0.0
 10
235.458797
 20
110.862032
 30
0.0
 10
236.497403
 20
110.731376
 30
0.0
 10
237.821037
 20
110.441560
 30
0.0
 10
239.633362
 20
110.096557
 30
0.0
 10
240.962216
 20
110.057216
 30
0.0
 10
241.712344
 20
110.035008
 30
0.0
 11
233.841282
 21
110.934868
 31
0.0
 11
234.659172
 21
110.914882
 31
0.0
 11
235.464881
 21
110.854901
 31
0.0
 11
236.246218
 21
110.754895
 31
0.0
 11
237.760499
 21
110.461628
 31
0.0
 11
239.469174
 21
110.168331
 31
0.0
 11
241.712344
 21
110.035008
 31
0.0
  0
SPLINE
  5
186
100
AcDbEntity
  8
Layer_1
 62
1
100
AcDbSpline
 70
0
 71
3
 72
16
 73
12
 74
10
 40
0.000000
 40
0.000000
 40
0.000000
 40
0.000000
 40
2.247120
 40
3.980779
 40
5.523200
 40
7.118552
 40
8.754305
 40
10.349475
 40
11.891896
 40
13.625556
 40
15.872674
 40
15.872674
 40
15.872674
 40
15.872674
 10
236.464791
 20
108.115384
 30
0.0
 10
237.214921
 20
108.137560
 30
0.0
 10
238.543777
 20
108.176845
 30
0.0
 10
240.356060
 20
108.522056
 30
0.0
 10
241.942899
 20
108.868675
 30
0.0
 10
243.530850
 20
109.021783
 30
0.0
 10
245.141271
 20
109.021794
 30
0.0
 10
246.729157
 20
108.868657
 30
0.0
 10
248.315937
 20
108.522057
 30
0.0
 10
250.128221
 20
108.176844
 30
0.0
 10
251.457077
 20
108.137559
 30
0.0
 10
252.207206
 20
108.115384
 30
0.0
 11
236.464791
 21
108.115384
 31
0.0
 11
238.707954
 21
108.248676
 31
0.0
 11
240.416628
 21
108.541946
 31
0.0
 11
241.930899
 21
108.835279
 31
0.0
 11
243.518214
 21
108.995224
 31
0.0
 11
245.153967
 21
108.995224
 31
0.0
 11
246.741098
 21
108.835279
 31
0.0
 11
248.255370
 21
108.541946
 31
0.0
 11
249.964044
 21
108.248676
 31
0.0
 11
252.207206
 21
108.115384
 31
0.0
  0
SPLINE
  5
187
100
AcDbEntity
  8
Layer_1
 62
1
100
AcDbSpline
 70
0
 71
3
 72
16
 73
12
 74
10
 40
0.000000
 40
0.000000
 40
0.000000
 40
0.000000
 40
2.247121
 40
3.980786
 40
5.523195
 40
7.118555
 40
8.754308
 40
10.349484
 40
11.891894
 40
13.625560
 40
15.872680
 40
15.872680
 40
15.872680
 40
15.872680
 10
236.464791
 20
111.954737
 30
0.0
 10
237.214922
 20
111.932557
 30
0.0
 10
238.543782
 20
111.893264
 30
0.0
 10
240.356048
 20
111.547966
 30
0.0
 10
241.942913
 20
111.201487
 30
0.0
 10
243.530843
 20
111.048245
 30
0.0
 10
245.141278
 20
111.048233
 30
0.0
 10
246.729144
 20
111.201505
 30
0.0
 10
248.315950
 20
111.547965
 30
0.0
 10
250.128215
 20
111.893264
 30
0.0
 10
251.457075
 20
111.932557
 30
0.0
 10
252.207206
 20
111.954737
 30
0.0
 11
236.464791
 21
111.954737
 31
0.0
 11
238.707954
 21
111.821414
 31
0.0
 11
240.416628
 21
111.528113
 31
0.0
 11
241.930899
 21
111.234839
 31
0.0
 11
243.518214
 21
111.074827
 31
0.0
 11
245.153967
 21
111.074827
 31
0.0
 11
246.741098
 21
111.234839
 31
0.0
 11
248.255370
 21
111.528113
 31
0.0
 11
249.964044
 21
111.821414
 31
0.0
 11
252.207206
 21
111.954737
 31
0.0
  0
SPLINE
  5
188
100
AcDbEntity
  8
Layer_1
 62
1
100
AcDbSpline
 70
0
 71
3
 72
13
 73
9
 74
7
 40
0.000000
 40
0.000000
 40
0.000000
 40
0.000000
 40
1.324467
 40
2.618575
 40
3.914358
 40
5.039864
 40
6.345175
 40
7.935726
 40
7.935726
 40
7.935726
 40
7.935726
 10
233.841282
 20
110.934868
 30
0.0
 10
233.399688
 20
110.922216
 30
0.0
 10
232.526624
 20
110.897202
 30
0.0
 10
231.231832
 20
110.719516
 30
0.0
 10
230.016493
 20
110.481849
 30
0.0
 10
228.798520
 20
110.237097
 30
0.0
 10
227.466534
 20
110.066975
 30
0.0
 10
226.500859
 20
110.046341
 30
0.0
 10
225.970462
 20
110.035008
 30
0.0
 11
233.841282
 21
110.934868
 31
0.0
 11
232.518265
 21
110.872902
 31
0.0
 11
231.234760
 21
110.707581
 31
0.0
 11
229.960986
 21
110.469772
 31
0.0
 11
228.854996
 21
110.261086
 31
0.0
 11
227.559695
 21
110.099740
 31
0.0
 11
225.970462
 21
110.035008
 31
0.0
  0
SPLINE
  5
189
100
AcDbEntity
  8
Layer_1
 62
1
100
AcDbSpline
 70
0
 71
3
 72
13
 73
9
 74
7
 40
0.000000
 40
0.000000
 40
0.000000
 40
0.000000
 40
1.324467
 40
2.618575
 40
3.914358
 40
5.039876
 40
6.345184
 40
7.935733
 40
7.935733
 40
7.935733
 40
7.935733
 10
233.841282
 20
109.135140
 30
0.0
 10
233.399688
 20
109.147792
 30
0.0
 10
232.526623
 20
109.172805
 30
0.0
 10
231.231834
 20
109.350506
 30
0.0
 10
230.016484
 20
109.588129
 30
0.0
 10
228.798532
 20
109.833013
 30
0.0
 10
227.466530
 20
110.003058
 30
0.0
 10
226.500858
 20
110.023681
 30
0.0
 10
225.970462
 20
110.035008
 30
0.0
 11
233.841282
 21
109.135140
 31
0.0
 11
232.518265
 21
109.197108
 31
0.0
 11
231.234760
 21
109.362431
 31
0.0
 11
229.960986
 21
109.600237
 31
0.0
 11
228.854996
 21
109.808990
 31
0.0
 11
227.559695
 21
109.970307
 31
0.0
 11
225.970462
 21
110.035008
 31
0.0
  0
SPLINE
  5
18a
100
AcDbEntity
  8
Layer_1
 62
1
100
AcDbSpline
 70
0
 71
3
 72
13
 73
9
 74
7
 40
0.000000
 40
0.000000
 40
0.000000
 40
0.000000
 40
1.324508
 40
2.618673
 40
3.914326
 40
5.039851
 40
6.345167
 40
7.935701
 40
7.935701
 40
7.935701
 40
7.935701
 10
212.852107
 20
109.135140
 30
0.0
 10
213.293714
 20
109.147793
 30
0.0
 10
214.166811
 20
109.172809
 30
0.0
 10
215.461594
 20
109.350485
 30
0.0
 10
216.676915
 20
109.588147
 30
0.0
 10
217.894831
 20
109.833010
 30
0.0
 10
219.226832
 20
110.003057
 30
0.0
 10
220.192502
 20
110.023681
 30
0.0
 10
220.722893
 20
110.035008
 30
0.0
 11
212.852107
 21
109.135140
 31
0.0
 11
214.175165
 21
109.197108
 31
0.0
 11
215.458727
 21
109.362431
 31
0.0
 11
216.732369
 21
109.600237
 31
0.0
 11
217.838366
 21
109.808990
 31
0.0
 11
219.133675
 21
109.970307
 31
0.0
 11
220.722893
 21
110.035008
 31
0.0
  0
SPLINE
  5
18b
100
AcDbEntity
  8
Layer_1
 62
1
100
AcDbSpline
 70
0
 71
3
 72
13
 73
9
 74
7
 40
0.000000
 40
0.000000
 40
0.000000
 40
0.000000
 40
1.324643
 40
2.618751
 40
3.914347
 40
5.040049
 40
6.345439
 40
7.935984
 40
7.935984
 40
7.935984
 40
7.935984
 10
212.851814
 20
110.934868
 30
0.0
 10
213.293466
 20
110.922217
 30
0.0
 10
214.166589
 20
110.897206
 30
0.0
 10
215.461381
 20
110.719542
 30
0.0
 10
216.676709
 20
110.481800
 30
0.0
 10
217.894725
 20
110.237117
 30
0.0
 10
219.226798
 20
110.066974
 30
0.0
 10
220.192498
 20
110.046341
 30
0.0
 10
220.722893
 20
110.035008
 30
0.0
 11
212.851814
 21
110.934868
 31
0.0
 11
214.175007
 21
110.872902
 31
0.0
 11
215.458512
 21
110.707581
 31
0.0
 11
216.732096
 21
110.469772
 31
0.0
 11
217.838285
 21
110.261086
 31
0.0
 11
219.133665
 21
110.099740
 31
0.0
 11
220.722893
 21
110.035008
 31
0.0
  0
SPLINE
  5
18c
100
AcDbEntity
  8
Layer_1
 62
1
100
AcDbSpline
 70
0
 71
3
 72
19
 73
15
 74
13
 40
0.000000
 40
0.000000
 40
0.000000
 40
0.000000
 40
1.590545
 40
2.895857
 40
4.021355
 40
5.317079
 40
6.611064
 40
7.935445
 40
9.259979
 40
10.554227
 40
11.850080
 40
12.975707
 40
14.280959
 40
15.871451
 40
15.871451
 40
15.871451
 40
15.871451
 10
215.475874
 20
108.115384
 30
0.0
 10
216.006268
 20
108.126697
 30
0.0
 10
216.971941
 20
108.147295
 30
0.0
 10
218.303932
 20
108.317477
 30
0.0
 10
219.521893
 20
108.561732
 30
0.0
 10
220.737143
 20
108.801404
 30
0.0
 10
222.031843
 20
108.971851
 30
0.0
 10
223.346454
 20
109.037206
 30
0.0
 10
224.661151
 20
108.971841
 30
0.0
 10
225.956038
 20
108.801418
 30
0.0
 10
227.171460
 20
108.561727
 30
0.0
 10
228.389493
 20
108.317498
 30
0.0
 10
229.721485
 20
108.147290
 30
0.0
 10
230.687121
 20
108.126695
 30
0.0
 10
231.217498
 20
108.115384
 30
0.0
 11
215.475874
 21
108.115384
 31
0.0
 11
217.065103
 21
108.180080
 31
0.0
 11
218.360412
 21
108.341366
 31
0.0
 11
219.466397
 21
108.550034
 31
0.0
 11
220.740096
 21
108.787925
 31
0.0
 11
222.023472
 21
108.953279
 31
0.0
 11
223.346402
 21
109.015252
 31
0.0
 11
224.669486
 21
108.953279
 31
0.0
 11
225.953127
 21
108.787925
 31
0.0
 11
227.226958
 21
108.550034
 31
0.0
 11
228.333074
 21
108.341366
 31
0.0
 11
229.628323
 21
108.180080
 31
0.0
 11
231.217498
 21
108.115384
 31
0.0
  0
SPLINE
  5
18d
100
AcDbEntity
  8
Layer_1
 62
1
100
AcDbSpline
 70
0
 71
3
 72
19
 73
15
 74
13
 40
0.000000
 40
0.000000
 40
0.000000
 40
0.000000
 40
1.590727
 40
2.896108
 40
4.021601
 40
5.317214
 40
6.611255
 40
7.935692
 40
9.260226
 40
10.554472
 40
11.850327
 40
12.975826
 40
14.281138
 40
15.871689
 40
15.871689
 40
15.871689
 40
15.871689
 10
215.475617
 20
111.954737
 30
0.0
 10
216.006073
 20
111.943420
 30
0.0
 10
216.971831
 20
111.922815
 30
0.0
 10
218.303891
 20
111.752555
 30
0.0
 10
219.521867
 20
111.508465
 30
0.0
 10
220.737078
 20
111.268700
 30
0.0
 10
222.031788
 20
111.098304
 30
0.0
 10
223.346435
 20
111.032950
 30
0.0
 10
224.661149
 20
111.098309
 30
0.0
 10
225.956041
 20
111.268706
 30
0.0
 10
227.171413
 20
111.508439
 30
0.0
 10
228.389445
 20
111.752551
 30
0.0
 10
229.721425
 20
111.922812
 30
0.0
 10
230.687101
 20
111.943419
 30
0.0
 10
231.217498
 20
111.954737
 30
0.0
 11
215.475617
 21
111.954737
 31
0.0
 11
217.065027
 21
111.890011
 31
0.0
 11
218.360402
 21
111.728701
 31
0.0
 11
219.466397
 21
111.520112
 31
0.0
 11
220.739982
 21
111.282212
 31
0.0
 11
222.023415
 21
111.116868
 31
0.0
 11
223.346402
 21
111.054903
 31
0.0
 11
224.669486
 21
111.116868
 31
0.0
 11
225.953127
 21
111.282212
 31
0.0
 11
227.226958
 21
111.520112
 31
0.0
 11
228.332959
 21
111.728701
 31
0.0
 11
229.628265
 21
111.890011
 31
0.0
 11
231.217498
 21
111.954737
 31
0.0
  0
SPLINE
  5
18e
100
AcDbEntity
  8
Layer_1
 62
1
100
AcDbSpline
 70
0
 71
3
 72
13
 73
9
 74
7
 40
0.000000
 40
0.000000
 40
0.000000
 40
0.000000
 40
1.324449
 40
2.618488
 40
3.914080
 40
5.039653
 40
6.345097
 40
7.935710
 40
7.935710
 40
7.935710
 40
7.935710
 10
212.851814
 20
110.934868
 30
0.0
 10
212.410227
 20
110.922216
 30
0.0
 10
211.537191
 20
110.897202
 30
0.0
 10
210.242490
 20
110.719533
 30
0.0
 10
209.027226
 20
110.481818
 30
0.0
 10
207.809244
 20
110.237095
 30
0.0
 10
206.477169
 20
110.066979
 30
0.0
 10
205.511429
 20
110.046342
 30
0.0
 10
204.981011
 20
110.035008
 30
0.0
 11
212.851814
 21
110.934868
 31
0.0
 11
211.528815
 21
110.872902
 31
0.0
 11
210.245380
 21
110.707581
 31
0.0
 11
208.971800
 21
110.469772
 31
0.0
 11
207.865742
 21
110.261086
 31
0.0
 11
206.570307
 21
110.099740
 31
0.0
 11
204.981011
 21
110.035008
 31
0.0
  0
SPLINE
  5
18f
100
AcDbEntity
  8
Layer_1
 62
1
100
AcDbSpline
 70
0
 71
3
 72
13
 73
9
 74
7
 40
0.000000
 40
0.000000
 40
0.000000
 40
0.000000
 40
1.324582
 40
2.618560
 40
3.914090
 40
5.039872
 40
6.345386
 40
7.936009
 40
7.936009
 40
7.936009
 40
7.936009
 10
212.852107
 20
109.135140
 30
0.0
 10
212.410476
 20
109.147790
 30
0.0
 10
211.537416
 20
109.172797
 30
0.0
 10
210.242713
 20
109.350484
 30
0.0
 10
209.027420
 20
109.588194
 30
0.0
 10
207.809378
 20
109.832995
 30
0.0
 10
206.477197
 20
110.003055
 30
0.0
 10
205.511432
 20
110.023680
 30
0.0
 10
204.981011
 20
110.035008
 30
0.0
 11
212.852107
 21
109.135140
 31
0.0
 11
211.528976
 21
109.197108
 31
0.0
 11
210.245602
 21
109.362431
 31
0.0
 11
208.972085
 21
109.600237
 31
0.0
 11
207.865826
 21
109.808990
 31
0.0
 11
206.570318
 21
109.970307
 31
0.0
 11
204.981011
 21
110.035008
 31
0.0
  0
SPLINE
  5
190
100
AcDbEntity
  8
Layer_1
 62
1
100
AcDbSpline
 70
0
 71
3
 72
13
 73
9
 74
7
 40
0.000000
 40
0.000000
 40
0.000000
 40
0.000000
 40
1.324325
 40
2.618418
 40
3.914051
 40
5.039653
 40
6.345095
 40
7.935691
 40
7.935691
 40
7.935691
 40
7.935691
 10
191.862933
 20
109.135140
 30
0.0
 10
192.304479
 20
109.147794
 30
0.0
 10
193.177491
 20
109.172814
 30
0.0
 10
194.472181
 20
109.350488
 30
0.0
 10
195.687495
 20
109.588158
 30
0.0
 10
196.905476
 20
109.833012
 30
0.0
 10
198.237566
 20
110.003053
 30
0.0
 10
199.203299
 20
110.023680
 30
0.0
 10
199.733710
 20
110.035008
 30
0.0
 11
191.862933
 21
109.135140
 31
0.0
 11
193.185808
 21
109.197108
 31
0.0
 11
194.469297
 21
109.362431
 31
0.0
 11
195.742918
 21
109.600237
 31
0.0
 11
196.848994
 21
109.808990
 31
0.0
 11
198.144430
 21
109.970307
 31
0.0
 11
199.733710
 21
110.035008
 31
0.0
  0
SPLINE
  5
191
100
AcDbEntity
  8
Layer_1
 62
1
100
AcDbSpline
 70
0
 71
3
 72
13
 73
9
 74
7
 40
0.000000
 40
0.000000
 40
0.000000
 40
0.000000
 40
1.324464
 40
2.618569
 40
3.914333
 40
5.039924
 40
6.345369
 40
7.935966
 40
7.935966
 40
7.935966
 40
7.935966
 10
191.862648
 20
110.934868
 30
0.0
 10
192.304240
 20
110.922216
 30
0.0
 10
193.177303
 20
110.897202
 30
0.0
 10
194.472087
 20
110.719520
 30
0.0
 10
195.687443
 20
110.481836
 30
0.0
 10
196.905487
 20
110.237095
 30
0.0
 10
198.237563
 20
110.066980
 30
0.0
 10
199.203298
 20
110.046343
 30
0.0
 10
199.733710
 20
110.035008
 30
0.0
 11
191.862648
 21
110.934868
 31
0.0
 11
193.185662
 21
110.872902
 31
0.0
 11
194.469164
 21
110.707581
 31
0.0
 11
195.742918
 21
110.469772
 31
0.0
 11
196.848994
 21
110.261086
 31
0.0
 11
198.144430
 21
110.099740
 31
0.0
 11
199.733710
 21
110.035008
 31
0.0
  0
SPLINE
  5
192
100
AcDbEntity
  8
Layer_1
 62
1
100
AcDbSpline
 70
0
 71
3
 72
19
 73
15
 74
13
 40
0.000000
 40
0.000000
 40
0.000000
 40
0.000000
 40
1.590735
 40
2.896191
 40
4.021903
 40
5.317311
 40
6.611274
 40
7.935694
 40
9.260233
 40
10.554479
 40
11.850329
 40
12.975922
 40
14.281366
 40
15.871984
 40
15.871984
 40
15.871984
 40
15.871984
 10
194.486440
 20
108.115384
 30
0.0
 10
195.016898
 20
108.126695
 30
0.0
 10
195.982683
 20
108.147289
 30
0.0
 10
197.314854
 20
108.317496
 30
0.0
 10
198.532845
 20
108.561665
 30
0.0
 10
199.748032
 20
108.801443
 30
0.0
 10
201.042640
 20
108.971847
 30
0.0
 10
202.357256
 20
109.037207
 30
0.0
 10
203.671968
 20
108.971842
 30
0.0
 10
204.966855
 20
108.801418
 30
0.0
 10
206.182265
 20
108.561733
 30
0.0
 10
207.400346
 20
108.317475
 30
0.0
 10
208.732438
 20
108.147299
 30
0.0
 10
209.698179
 20
108.126698
 30
0.0
 10
210.228598
 20
108.115384
 30
0.0
 11
194.486440
 21
108.115384
 31
0.0
 11
196.075858
 21
108.180080
 31
0.0
 11
197.371313
 21
108.341366
 31
0.0
 11
198.477516
 21
108.550034
 31
0.0
 11
199.750893
 21
108.787925
 31
0.0
 11
201.034248
 21
108.953279
 31
0.0
 11
202.357217
 21
109.015252
 31
0.0
 11
203.680305
 21
108.953279
 31
0.0
 11
204.963945
 21
108.787925
 31
0.0
 11
206.237772
 21
108.550034
 31
0.0
 11
207.343854
 21
108.341366
 31
0.0
 11
208.639297
 21
108.180080
 31
0.0
 11
210.228598
 21
108.115384
 31
0.0
  0
SPLINE
  5
193
100
AcDbEntity
  8
Layer_1
 62
1
100
AcDbSpline
 70
0
 71
3
 72
19
 73
15
 74
13
 40
0.000000
 40
0.000000
 40
0.000000
 40
0.000000
 40
1.590425
 40
2.895866
 40
4.021607
 40
5.317019
 40
6.610990
 40
7.935434
 40
9.260075
 40
10.554257
 40
11.850071
 40
12.975626
 40
14.281065
 40
15.871679
 40
15.871679
 40
15.871679
 40
15.871679
 10
194.486440
 20
111.954737
 30
0.0
 10
195.016795
 20
111.943418
 30
0.0
 10
195.982473
 20
111.922806
 30
0.0
 10
197.314531
 20
111.752526
 30
0.0
 10
198.532560
 20
111.508523
 30
0.0
 10
199.747748
 20
111.268678
 30
0.0
 10
201.042373
 20
111.098303
 30
0.0
 10
202.357034
 20
111.032951
 30
0.0
 10
203.671766
 20
111.098300
 30
0.0
 10
204.966657
 20
111.268707
 30
0.0
 10
206.182010
 20
111.508450
 30
0.0
 10
207.400092
 20
111.752556
 30
0.0
 10
208.732155
 20
111.922807
 30
0.0
 10
209.697895
 20
111.943417
 30
0.0
 10
210.228313
 20
111.954737
 30
0.0
 11
194.486440
 21
111.954737
 31
0.0
 11
196.075548
 21
111.890011
 31
0.0
 11
197.370983
 21
111.728701
 31
0.0
 11
198.477231
 21
111.520112
 31
0.0
 11
199.750611
 21
111.282212
 31
0.0
 11
201.033974
 21
111.116868
 31
0.0
 11
202.356968
 21
111.054903
 31
0.0
 11
203.680159
 21
111.116868
 31
0.0
 11
204.963735
 21
111.282212
 31
0.0
 11
206.237524
 21
111.520112
 31
0.0
 11
207.343582
 21
111.728701
 31
0.0
 11
208.639017
 21
111.890011
 31
0.0
 11
210.228313
 21
111.954737
 31
0.0
  0
ENDSEC
  0
SECTION
  2
OBJECTS
  0
DICTIONARY
  5
C
330
0
100
AcDbDictionary
  3
ACAD_GROUP
350
D
  3
ACAD_MLINESTYLE
350
17
  0
DICTIONARY
  5
D
330
C
100
AcDbDictionary
  0
DICTIONARY
  5
1A
330
C
100
AcDbDictionary
  0
DICTIONARY
  5
17
330
C
100
AcDbDictionary
  3
STANDARD
350
18
  0
DICTIONARY
  5
19
330
C
100
AcDbDictionary
  0
ENDSEC
  0
EOF
