<?xml version="1.0" encoding="UTF-8" standalone="no"?>
<svg
   xmlns:dc="http://purl.org/dc/elements/1.1/"
   xmlns:cc="http://creativecommons.org/ns#"
   xmlns:rdf="http://www.w3.org/1999/02/22-rdf-syntax-ns#"
   xmlns:svg="http://www.w3.org/2000/svg"
   xmlns="http://www.w3.org/2000/svg"
   xmlns:sodipodi="http://sodipodi.sourceforge.net/DTD/sodipodi-0.dtd"
   xmlns:inkscape="http://www.inkscape.org/namespaces/inkscape"
   id="svg106"
   version="1.1"
   viewBox="0 0 209.76379 76.53543"
   height="27mm"
   width="74mm"
   inkscape:version="0.91 r13725"
   sodipodi:docname="HLSBM.svg"
   style="fill-rule:evenodd">
  <sodipodi:namedview
     pagecolor="#ffffff"
     bordercolor="#666666"
     borderopacity="1"
     objecttolerance="10"
     gridtolerance="10"
     guidetolerance="10"
     inkscape:pageopacity="0"
     inkscape:pageshadow="2"
     inkscape:window-width="1920"
     inkscape:window-height="1147"
     id="namedview57"
     showgrid="false"
     fit-margin-top="0"
     fit-margin-left="0"
     fit-margin-right="0"
     fit-margin-bottom="0"
     units="mm"
     inkscape:zoom="4"
     inkscape:cx="140.74703"
     inkscape:cy="29.38034"
     inkscape:window-x="-8"
     inkscape:window-y="-8"
     inkscape:window-maximized="1"
     inkscape:current-layer="svg106" />
  <metadata
     id="metadata112">
    <rdf:RDF>
      <cc:Work
         rdf:about="">
        <dc:format>image/svg+xml</dc:format>
        <dc:type
           rdf:resource="http://purl.org/dc/dcmitype/StillImage" />
        <dc:title></dc:title>
      </cc:Work>
    </rdf:RDF>
  </metadata>
  <defs
     id="defs110" />
  <path
     inkscape:connector-curvature="0"
     style="fill:none;stroke:#000000;stroke-width:0.56692922;stroke-miterlimit:4;stroke-dasharray:none;stroke-opacity:1"
     d="m 19.84523,14.17521 0,14.175"
     id="path2" />
  <path
     inkscape:connector-curvature="0"
     style="fill:none;stroke:#000000;stroke-width:0.56692922;stroke-miterlimit:4;stroke-dasharray:none;stroke-opacity:1"
     d="m 76.53623,14.17521 0,14.175"
     id="path4" />
  <path
     inkscape:connector-curvature="0"
     style="fill:none;stroke:#000000;stroke-width:0.56692922;stroke-miterlimit:4;stroke-dasharray:none;stroke-opacity:1"
     d="m 48.18923,18.42921 0,9.921"
     id="path6" />
  <path
     inkscape:connector-curvature="0"
     style="fill:none;stroke:#000000;stroke-width:0.56692922;stroke-miterlimit:4;stroke-dasharray:none;stroke-opacity:1"
     d="m 25.51323,22.67921 0,5.671"
     id="path8" />
  <path
     inkscape:connector-curvature="0"
     style="fill:none;stroke:#000000;stroke-width:0.56692922;stroke-miterlimit:4;stroke-dasharray:none;stroke-opacity:1"
     d="m 31.18123,22.67921 0,5.671"
     id="path10" />
  <path
     inkscape:connector-curvature="0"
     style="fill:none;stroke:#000000;stroke-width:0.56692922;stroke-miterlimit:4;stroke-dasharray:none;stroke-opacity:1"
     d="m 36.85323,22.67921 0,5.671"
     id="path12" />
  <path
     inkscape:connector-curvature="0"
     style="fill:none;stroke:#000000;stroke-width:0.56692922;stroke-miterlimit:4;stroke-dasharray:none;stroke-opacity:1"
     d="m 42.52123,22.67921 0,5.671"
     id="path14" />
  <path
     inkscape:connector-curvature="0"
     style="fill:none;stroke:#000000;stroke-width:0.56692922;stroke-miterlimit:4;stroke-dasharray:none;stroke-opacity:1"
     d="m 53.86123,22.67921 0,5.671"
     id="path16" />
  <path
     inkscape:connector-curvature="0"
     style="fill:none;stroke:#000000;stroke-width:0.56692922;stroke-miterlimit:4;stroke-dasharray:none;stroke-opacity:1"
     d="m 59.52823,22.67921 0,5.671"
     id="path18" />
  <path
     inkscape:connector-curvature="0"
     style="fill:none;stroke:#000000;stroke-width:0.56692922;stroke-miterlimit:4;stroke-dasharray:none;stroke-opacity:1"
     d="m 65.19623,22.67921 0,5.671"
     id="path20" />
  <path
     inkscape:connector-curvature="0"
     style="fill:none;stroke:#000000;stroke-width:0.56692922;stroke-miterlimit:4;stroke-dasharray:none;stroke-opacity:1"
     d="m 70.86823,22.67921 0,5.671"
     id="path22" />
  <path
     inkscape:connector-curvature="0"
     style="fill:none;stroke:#000000;stroke-width:0.56692922;stroke-miterlimit:4;stroke-dasharray:none;stroke-opacity:1"
     d="m 133.22523,14.17521 0,14.175"
     id="path24" />
  <path
     inkscape:connector-curvature="0"
     style="fill:none;stroke:#000000;stroke-width:0.56692922;stroke-miterlimit:4;stroke-dasharray:none;stroke-opacity:1"
     d="m 104.88423,18.42921 0,9.921"
     id="path26" />
  <path
     inkscape:connector-curvature="0"
     style="fill:none;stroke:#000000;stroke-width:0.56692922;stroke-miterlimit:4;stroke-dasharray:none;stroke-opacity:1"
     d="m 82.20423,22.67921 0,5.671"
     id="path28" />
  <path
     inkscape:connector-curvature="0"
     style="fill:none;stroke:#000000;stroke-width:0.56692922;stroke-miterlimit:4;stroke-dasharray:none;stroke-opacity:1"
     d="m 87.87623,22.67921 0,5.671"
     id="path30" />
  <path
     inkscape:connector-curvature="0"
     style="fill:none;stroke:#000000;stroke-width:0.56692922;stroke-miterlimit:4;stroke-dasharray:none;stroke-opacity:1"
     d="m 93.54423,22.67921 0,5.671"
     id="path32" />
  <path
     inkscape:connector-curvature="0"
     style="fill:none;stroke:#000000;stroke-width:0.56692922;stroke-miterlimit:4;stroke-dasharray:none;stroke-opacity:1"
     d="m 99.21223,22.67921 0,5.671"
     id="path34" />
  <path
     inkscape:connector-curvature="0"
     style="fill:none;stroke:#000000;stroke-width:0.56692922;stroke-miterlimit:4;stroke-dasharray:none;stroke-opacity:1"
     d="m 110.55223,22.67921 0,5.671"
     id="path36" />
  <path
     inkscape:connector-curvature="0"
     style="fill:none;stroke:#000000;stroke-width:0.56692922;stroke-miterlimit:4;stroke-dasharray:none;stroke-opacity:1"
     d="m 116.21523,22.67921 0,5.671"
     id="path38" />
  <path
     inkscape:connector-curvature="0"
     style="fill:none;stroke:#000000;stroke-width:0.56692922;stroke-miterlimit:4;stroke-dasharray:none;stroke-opacity:1"
     d="m 121.89523,22.67921 0,5.671"
     id="path40" />
  <path
     inkscape:connector-curvature="0"
     style="fill:none;stroke:#000000;stroke-width:0.56692922;stroke-miterlimit:4;stroke-dasharray:none;stroke-opacity:1"
     d="m 127.55523,22.67921 0,5.671"
     id="path42" />
  <path
     inkscape:connector-curvature="0"
     style="fill:none;stroke:#000000;stroke-width:0.56692922;stroke-miterlimit:4;stroke-dasharray:none;stroke-opacity:1"
     d="m 189.92523,14.17521 0,14.175"
     id="path44" />
  <path
     inkscape:connector-curvature="0"
     style="fill:none;stroke:#000000;stroke-width:0.56692922;stroke-miterlimit:4;stroke-dasharray:none;stroke-opacity:1"
     d="m 161.57523,18.42921 0,9.921"
     id="path46" />
  <path
     inkscape:connector-curvature="0"
     style="fill:none;stroke:#000000;stroke-width:0.56692922;stroke-miterlimit:4;stroke-dasharray:none;stroke-opacity:1"
     d="m 138.89523,22.67921 0,5.671"
     id="path48" />
  <path
     inkscape:connector-curvature="0"
     style="fill:none;stroke:#000000;stroke-width:0.56692922;stroke-miterlimit:4;stroke-dasharray:none;stroke-opacity:1"
     d="m 144.56523,22.67921 0,5.671"
     id="path50" />
  <path
     inkscape:connector-curvature="0"
     style="fill:none;stroke:#000000;stroke-width:0.56692922;stroke-miterlimit:4;stroke-dasharray:none;stroke-opacity:1"
     d="m 150.23523,22.67921 0,5.671"
     id="path52" />
  <path
     inkscape:connector-curvature="0"
     style="fill:none;stroke:#000000;stroke-width:0.56692922;stroke-miterlimit:4;stroke-dasharray:none;stroke-opacity:1"
     d="m 155.90523,22.67921 0,5.671"
     id="path54" />
  <path
     inkscape:connector-curvature="0"
     style="fill:none;stroke:#000000;stroke-width:0.56692922;stroke-miterlimit:4;stroke-dasharray:none;stroke-opacity:1"
     d="m 167.24523,22.67921 0,5.671"
     id="path56" />
  <path
     inkscape:connector-curvature="0"
     style="fill:none;stroke:#000000;stroke-width:0.56692922;stroke-miterlimit:4;stroke-dasharray:none;stroke-opacity:1"
     d="m 172.91523,22.67921 0,5.671"
     id="path58" />
  <path
     inkscape:connector-curvature="0"
     style="fill:none;stroke:#000000;stroke-width:0.56692922;stroke-miterlimit:4;stroke-dasharray:none;stroke-opacity:1"
     d="m 178.58523,22.67921 0,5.671"
     id="path60" />
  <path
     inkscape:connector-curvature="0"
     style="fill:none;stroke:#000000;stroke-width:0.56692922;stroke-miterlimit:4;stroke-dasharray:none;stroke-opacity:1"
     d="m 184.25523,22.67921 0,5.671"
     id="path62" />
  <path
     inkscape:connector-curvature="0"
     style="fill:none;stroke:#000000;stroke-width:0.56692922;stroke-miterlimit:4;stroke-dasharray:none;stroke-opacity:1"
     d="m 127.55523,28.35021 0,8.504 m -5.38,-8.504 0,5.668 m -5.39,-5.668 0,8.504 m -5.382,-8.504 0,5.668 m -5.386,-5.668 0,8.504 m -5.387,-8.504 0,5.668 m -5.387,-5.668 0,8.504 m -5.382,-8.504 0,5.668 m -5.387,-5.668 0,8.504 m -5.387,-8.504 0,5.668 m -5.387,-5.668 0,8.504 m -5.382,-8.504 0,5.668 m -5.387,-5.668 0,8.504 m -5.387,-8.504 0,5.668 m -5.387,-5.668 0,8.504 m -5.382,-8.504 0,5.668 m -5.387,-5.668 0,8.504 m -5.387,-8.504 0,5.668 m -5.387,-5.668 0,8.504 m -5.386,-8.504 0,5.668 m -5.383,-5.668 0,8.504"
     id="path64" />
  <path
     inkscape:connector-curvature="0"
     style="fill:none;stroke:#ff0000;stroke-opacity:1;stroke-width:0.00283465;stroke-miterlimit:4;stroke-dasharray:none"
     d="m 133.22523,28.35021 0,31.629 m 62.37,-1.246 -181.422,3.629 0,-34.012 181.422,0 0,30.383 z"
     id="path66" />
  <path
     inkscape:connector-curvature="0"
     style="fill:#2c2c2b;stroke:none"
     d="m 33.69323,52.85821 c 0,0.145 -0.516,0.848 -1.547,2.117 -1.035,1.274 -1.547,2 -1.539,2.192 l -0.457,-0.059 c -0.004,-0.144 0.511,-0.847 1.543,-2.105 1.031,-1.262 1.543,-1.988 1.543,-2.195 l 0.457,0.05 z m -2.672,2.231 -0.426,0.008 c 0.004,-0.344 0.004,-0.676 0,-0.997 -0.008,-0.214 -0.016,-0.421 -0.027,-0.625 l -0.622,0.333 -0.089,-0.211 0.867,-0.606 0.254,-0.008 c -0.008,0.297 -0.008,0.668 0.008,1.11 0,0.312 0.011,0.644 0.035,0.996 z m 2.945,1.554 -0.035,0.321 -1.262,0.023 0.027,-0.281 c 0.102,-0.07 0.2,-0.152 0.29,-0.242 0.085,-0.086 0.164,-0.18 0.234,-0.274 0.074,-0.101 0.133,-0.211 0.176,-0.324 0.035,-0.105 0.054,-0.215 0.054,-0.316 -0.007,-0.27 -0.168,-0.399 -0.48,-0.395 -0.074,0.004 -0.18,0.024 -0.313,0.051 l 0.028,-0.309 c 0.051,-0.011 0.113,-0.031 0.183,-0.039 0.067,-0.004 0.141,-0.008 0.227,-0.011 0.234,-0.004 0.422,0.05 0.558,0.168 0.129,0.121 0.196,0.269 0.2,0.449 0.004,0.23 -0.063,0.445 -0.203,0.648 -0.141,0.203 -0.321,0.387 -0.532,0.539 l 0,0.032 c 0.133,0 0.278,-0.004 0.43,-0.012 0.145,-0.004 0.285,-0.02 0.418,-0.028 z m 2.906,0.262 -0.601,0.016 c 0.019,-0.688 0.023,-1.461 0.011,-2.332 -0.019,-0.836 -0.062,-1.528 -0.132,-2.067 l 0.632,-0.043 c -0.031,0.571 -0.039,1.27 -0.015,2.094 0.011,0.863 0.047,1.641 0.105,2.332 z m 3.203,-0.058 -0.488,0.027 c -0.031,-0.102 -0.043,-0.195 -0.043,-0.289 l -0.031,0 c -0.254,0.234 -0.602,0.355 -1.039,0.371 -0.242,0 -0.449,-0.063 -0.625,-0.195 -0.176,-0.137 -0.266,-0.336 -0.27,-0.602 -0.011,-0.316 0.117,-0.574 0.387,-0.777 0.266,-0.196 0.766,-0.313 1.504,-0.34 0,-0.051 0.004,-0.106 0.008,-0.176 -0.008,-0.254 -0.078,-0.422 -0.215,-0.508 -0.141,-0.078 -0.352,-0.117 -0.625,-0.117 -0.328,0.016 -0.649,0.063 -0.961,0.145 l 0.043,-0.43 c 0.308,-0.098 0.668,-0.145 1.078,-0.156 0.367,-0.004 0.652,0.062 0.859,0.211 0.204,0.148 0.313,0.41 0.321,0.773 0,0.106 -0.004,0.281 -0.004,0.535 -0.008,0.262 -0.008,0.43 -0.004,0.516 0.004,0.383 0.039,0.723 0.105,1.012 z m -0.562,-0.594 c -0.02,-0.317 -0.031,-0.606 -0.035,-0.856 -0.395,0.008 -0.692,0.043 -0.891,0.106 -0.34,0.109 -0.508,0.312 -0.5,0.605 0,0.289 0.203,0.422 0.609,0.414 0.34,-0.004 0.614,-0.093 0.817,-0.269 z m 3.32,-0.313 c 0.012,0.614 -0.371,0.918 -1.148,0.938 -0.344,0.004 -0.664,-0.024 -0.961,-0.082 l 0.086,-0.461 c 0.269,0.101 0.562,0.144 0.883,0.137 0.453,-0.004 0.679,-0.137 0.675,-0.403 -0.004,-0.121 -0.058,-0.215 -0.16,-0.293 -0.105,-0.066 -0.273,-0.148 -0.504,-0.242 -0.304,-0.105 -0.519,-0.215 -0.652,-0.32 -0.199,-0.153 -0.301,-0.348 -0.305,-0.574 -0.008,-0.239 0.074,-0.446 0.254,-0.618 0.172,-0.172 0.445,-0.261 0.817,-0.269 0.355,-0.004 0.644,0.019 0.863,0.066 l -0.086,0.453 c -0.231,-0.082 -0.492,-0.121 -0.785,-0.117 -0.403,0.016 -0.598,0.129 -0.594,0.363 0,0.118 0.047,0.211 0.141,0.278 0.089,0.07 0.265,0.152 0.531,0.25 0.281,0.105 0.492,0.215 0.633,0.308 0.199,0.168 0.304,0.364 0.312,0.586 z m 3.246,-1.05 c 0,0.089 0,0.214 -0.004,0.363 l -2.148,0.082 c 0.027,0.305 0.148,0.555 0.371,0.758 0.215,0.203 0.504,0.3 0.859,0.289 0.313,-0.004 0.606,-0.047 0.887,-0.133 l -0.043,0.437 c -0.203,0.086 -0.5,0.129 -0.883,0.137 -0.547,0.012 -0.961,-0.125 -1.25,-0.414 -0.289,-0.285 -0.437,-0.644 -0.445,-1.07 -0.012,-0.453 0.109,-0.852 0.363,-1.188 0.25,-0.332 0.594,-0.504 1.035,-0.508 0.403,-0.007 0.711,0.106 0.926,0.336 0.211,0.239 0.321,0.543 0.332,0.911 z m -0.519,0.015 c -0.016,-0.586 -0.266,-0.871 -0.754,-0.859 -0.5,0.012 -0.789,0.316 -0.867,0.929 l 1.621,-0.07 z m 3.109,-1.207 -0.129,0.5 c -0.164,-0.051 -0.316,-0.086 -0.453,-0.086 -0.394,0.012 -0.644,0.199 -0.754,0.574 0.02,0.961 0.039,1.633 0.059,2.008 l -0.551,0.016 c 0.02,-0.656 0.023,-1.176 0.02,-1.539 -0.016,-0.492 -0.075,-0.961 -0.176,-1.414 l 0.543,-0.09 c 0.043,0.23 0.066,0.383 0.07,0.457 l 0.023,0 c 0.219,-0.332 0.477,-0.508 0.778,-0.516 0.156,0 0.347,0.035 0.57,0.09 z m 2.414,2.074 c 0.012,0.614 -0.371,0.918 -1.148,0.938 -0.344,0.004 -0.664,-0.024 -0.961,-0.082 l 0.086,-0.461 c 0.269,0.101 0.562,0.144 0.883,0.137 0.453,-0.004 0.679,-0.137 0.675,-0.403 -0.004,-0.121 -0.058,-0.215 -0.16,-0.293 -0.105,-0.066 -0.273,-0.148 -0.504,-0.242 -0.304,-0.105 -0.519,-0.215 -0.652,-0.32 -0.199,-0.153 -0.301,-0.348 -0.305,-0.574 -0.008,-0.239 0.074,-0.446 0.254,-0.618 0.172,-0.171 0.445,-0.261 0.817,-0.269 0.355,-0.004 0.644,0.019 0.863,0.066 l -0.086,0.453 c -0.231,-0.082 -0.492,-0.121 -0.785,-0.117 -0.403,0.016 -0.598,0.129 -0.594,0.363 0,0.118 0.047,0.211 0.141,0.278 0.089,0.07 0.265,0.152 0.531,0.25 0.281,0.105 0.492,0.215 0.633,0.308 0.199,0.168 0.304,0.364 0.312,0.586 z m 3.367,0.786 -0.57,0.007 c 0.035,-0.543 0.047,-1.136 0.035,-1.793 -0.012,-0.312 -0.082,-0.535 -0.211,-0.648 -0.133,-0.117 -0.32,-0.176 -0.558,-0.168 -0.301,0.008 -0.571,0.117 -0.813,0.34 0.012,0.711 0.031,1.476 0.059,2.304 l -0.571,0.008 c 0.02,-0.703 0.028,-1.215 0.024,-1.539 -0.016,-0.48 -0.07,-0.953 -0.164,-1.414 l 0.547,-0.09 0.066,0.379 0.027,0 c 0.301,-0.285 0.629,-0.426 0.981,-0.433 0.344,-0.004 0.613,0.062 0.809,0.214 0.191,0.149 0.289,0.418 0.3,0.805 -0.004,0.039 -0.004,0.117 -0.004,0.238 -0.004,0.118 -0.004,0.196 0,0.235 0.004,0.351 0.02,0.871 0.043,1.555 z m 3.34,-1.907 c 0,0.098 0,0.215 -0.004,0.367 l -2.148,0.082 c 0.027,0.301 0.148,0.551 0.371,0.754 0.215,0.207 0.504,0.301 0.859,0.293 0.313,-0.004 0.606,-0.047 0.887,-0.132 l -0.043,0.441 c -0.203,0.086 -0.5,0.129 -0.883,0.137 -0.547,0.007 -0.961,-0.125 -1.25,-0.414 -0.289,-0.289 -0.437,-0.653 -0.445,-1.075 -0.012,-0.457 0.109,-0.847 0.363,-1.183 0.25,-0.332 0.594,-0.504 1.035,-0.516 0.403,-0.008 0.711,0.11 0.926,0.344 0.211,0.23 0.32,0.535 0.332,0.902 z m -0.519,0.024 c -0.016,-0.586 -0.266,-0.871 -0.754,-0.864 -0.5,0.008 -0.789,0.321 -0.867,0.926 l 1.621,-0.062 z m 3.972,1.742 -0.465,0.023 c -0.019,-0.086 -0.031,-0.179 -0.031,-0.285 l -0.035,0 c -0.219,0.242 -0.539,0.367 -0.965,0.375 -0.398,0.004 -0.719,-0.129 -0.957,-0.406 -0.242,-0.281 -0.363,-0.633 -0.371,-1.035 -0.008,-0.457 0.113,-0.86 0.367,-1.196 0.25,-0.335 0.614,-0.507 1.09,-0.527 0.336,-0.004 0.578,0.063 0.731,0.195 l 0.023,0 c -0.016,-0.511 -0.039,-1.019 -0.074,-1.519 l 0.594,-0.035 c -0.032,0.527 -0.039,1.222 -0.02,2.078 0.016,0.875 0.055,1.648 0.113,2.332 z m -0.515,-0.606 c -0.016,-0.644 -0.047,-1.269 -0.09,-1.875 -0.176,-0.128 -0.387,-0.195 -0.637,-0.195 -0.351,0.016 -0.613,0.137 -0.785,0.367 -0.172,0.242 -0.254,0.539 -0.242,0.891 0.004,0.316 0.09,0.586 0.262,0.797 0.167,0.219 0.402,0.316 0.699,0.308 0.363,-0.004 0.629,-0.101 0.793,-0.293 z m 3.875,-1.293 c 0,0.09 0,0.211 -0.004,0.364 l -2.149,0.082 c 0.028,0.304 0.149,0.554 0.371,0.758 0.215,0.203 0.504,0.3 0.86,0.289 0.312,-0.004 0.605,-0.047 0.887,-0.133 l -0.043,0.437 c -0.204,0.086 -0.5,0.129 -0.883,0.141 -0.547,0.008 -0.961,-0.125 -1.25,-0.414 -0.289,-0.289 -0.438,-0.649 -0.446,-1.074 -0.011,-0.453 0.11,-0.852 0.364,-1.188 0.25,-0.332 0.593,-0.504 1.035,-0.508 0.402,-0.007 0.711,0.106 0.926,0.336 0.211,0.239 0.32,0.539 0.332,0.91 z m -0.52,0.016 c -0.015,-0.586 -0.265,-0.867 -0.754,-0.859 -0.5,0.011 -0.789,0.316 -0.867,0.929 l 1.621,-0.07 z m 4.082,0.141 c 0.004,0.461 -0.117,0.855 -0.367,1.191 -0.254,0.348 -0.609,0.52 -1.059,0.527 -0.386,0.004 -0.648,-0.054 -0.785,-0.187 l -0.023,0 -0.078,0.117 -0.457,0.016 c 0.007,-0.715 0.004,-1.492 -0.008,-2.332 -0.02,-0.75 -0.067,-1.442 -0.145,-2.067 l 0.618,-0.043 c -0.016,0.364 -0.012,0.926 0.003,1.707 l 0.024,-0.004 c 0.199,-0.238 0.519,-0.363 0.965,-0.371 0.383,-0.007 0.695,0.129 0.937,0.414 0.238,0.286 0.363,0.629 0.375,1.032 z m -0.554,0.086 c -0.008,-0.313 -0.098,-0.575 -0.266,-0.789 -0.168,-0.211 -0.395,-0.321 -0.684,-0.317 -0.375,0.016 -0.644,0.129 -0.8,0.36 0.011,0.742 0.042,1.339 0.085,1.796 0.172,0.149 0.391,0.211 0.665,0.204 0.335,-0.004 0.589,-0.129 0.757,-0.372 0.164,-0.246 0.246,-0.539 0.243,-0.882 z m 3.14,-1.5 -0.129,0.5 c -0.164,-0.055 -0.316,-0.086 -0.453,-0.086 -0.394,0.008 -0.644,0.199 -0.754,0.574 0.02,0.961 0.039,1.633 0.059,2.008 l -0.551,0.011 c 0.02,-0.66 0.023,-1.171 0.02,-1.539 -0.016,-0.496 -0.075,-0.961 -0.176,-1.418 l 0.543,-0.086 c 0.043,0.231 0.066,0.379 0.07,0.458 l 0.023,0 c 0.219,-0.333 0.477,-0.504 0.778,-0.512 0.156,0 0.347,0.027 0.57,0.09 z m 2.973,1.074 c 0,0.094 0,0.215 -0.004,0.359 l -2.149,0.082 c 0.028,0.309 0.149,0.559 0.372,0.758 0.214,0.203 0.503,0.305 0.859,0.289 0.312,-0.004 0.605,-0.047 0.887,-0.133 l -0.043,0.446 c -0.203,0.086 -0.5,0.129 -0.883,0.136 -0.547,0.004 -0.961,-0.125 -1.25,-0.418 -0.289,-0.289 -0.438,-0.644 -0.445,-1.074 -0.012,-0.449 0.109,-0.844 0.363,-1.18 0.25,-0.332 0.594,-0.503 1.035,-0.511 0.402,-0.008 0.711,0.101 0.926,0.34 0.211,0.23 0.32,0.539 0.332,0.906 z m -0.52,0.019 c -0.015,-0.586 -0.265,-0.875 -0.754,-0.867 -0.5,0.016 -0.789,0.324 -0.867,0.934 l 1.621,-0.067 z m 3.809,-0.086 c 0,0.09 0,0.211 -0.004,0.364 l -2.148,0.082 c 0.027,0.304 0.148,0.554 0.371,0.758 0.214,0.203 0.504,0.3 0.859,0.289 0.312,-0.004 0.605,-0.047 0.887,-0.133 l -0.043,0.437 c -0.203,0.086 -0.5,0.129 -0.883,0.141 -0.547,0.008 -0.961,-0.125 -1.25,-0.414 -0.289,-0.289 -0.438,-0.649 -0.445,-1.074 -0.012,-0.453 0.109,-0.852 0.363,-1.188 0.25,-0.332 0.594,-0.504 1.035,-0.508 0.402,-0.007 0.711,0.106 0.926,0.336 0.211,0.239 0.32,0.539 0.332,0.91 z m -0.52,0.016 c -0.015,-0.586 -0.265,-0.867 -0.754,-0.859 -0.5,0.011 -0.789,0.316 -0.867,0.929 l 1.621,-0.07 z m 3.973,1.746 -0.465,0.031 c -0.019,-0.089 -0.031,-0.183 -0.031,-0.289 l -0.035,0 c -0.219,0.246 -0.539,0.368 -0.965,0.375 -0.399,0.004 -0.719,-0.125 -0.957,-0.41 -0.242,-0.277 -0.363,-0.629 -0.371,-1.031 -0.008,-0.457 0.113,-0.856 0.367,-1.195 0.25,-0.336 0.613,-0.508 1.09,-0.528 0.336,-0.004 0.578,0.063 0.73,0.196 l 0.024,0 c -0.016,-0.512 -0.039,-1.024 -0.075,-1.524 l 0.594,-0.031 c -0.031,0.527 -0.039,1.226 -0.019,2.074 0.015,0.875 0.054,1.656 0.113,2.332 z m -0.516,-0.601 c -0.015,-0.649 -0.047,-1.274 -0.089,-1.871 -0.176,-0.133 -0.387,-0.2 -0.637,-0.2 -0.352,0.016 -0.613,0.133 -0.785,0.371 -0.172,0.239 -0.254,0.536 -0.243,0.883 0.004,0.324 0.09,0.586 0.262,0.797 0.168,0.223 0.403,0.32 0.699,0.316 0.364,-0.007 0.629,-0.109 0.793,-0.296 z m 3.051,0.129 -0.031,0.406 c -0.164,0.058 -0.32,0.09 -0.465,0.097 -0.379,0 -0.637,-0.082 -0.773,-0.269 -0.145,-0.188 -0.219,-0.524 -0.227,-1.02 -0.008,-0.316 -0.016,-0.73 -0.019,-1.25 -0.118,0.008 -0.29,0.02 -0.512,0.036 l 0.008,-0.454 c 0.195,0.008 0.371,0.008 0.531,0.004 -0.008,-0.125 0,-0.422 0.015,-0.886 l 0.489,-0.067 c -0.031,0.445 -0.043,0.754 -0.035,0.945 0.199,0 0.5,-0.015 0.898,-0.046 l -0.012,0.464 c -0.379,-0.003 -0.679,-0.003 -0.902,0 0,0.317 0.004,0.668 0.016,1.063 0.004,0.43 0.054,0.711 0.152,0.848 0.09,0.132 0.262,0.203 0.508,0.199 0.078,0 0.195,-0.024 0.359,-0.07 z m 3.121,-1.469 c 0,0.094 0,0.215 -0.004,0.359 l -2.148,0.082 c 0.027,0.309 0.148,0.559 0.371,0.762 0.215,0.199 0.504,0.301 0.859,0.289 0.313,-0.008 0.606,-0.051 0.887,-0.137 l -0.043,0.446 c -0.203,0.085 -0.5,0.128 -0.883,0.132 -0.547,0.008 -0.961,-0.125 -1.25,-0.414 -0.289,-0.289 -0.437,-0.644 -0.445,-1.074 -0.012,-0.449 0.109,-0.848 0.363,-1.18 0.25,-0.332 0.594,-0.504 1.035,-0.511 0.403,-0.008 0.711,0.101 0.926,0.34 0.211,0.234 0.321,0.539 0.332,0.906 z m -0.519,0.015 c -0.016,-0.582 -0.266,-0.871 -0.754,-0.863 -0.5,0.016 -0.789,0.32 -0.867,0.934 l 1.621,-0.071 z m 5.168,-0.082 c -0.008,-0.332 -0.071,-0.547 -0.188,-0.66 -0.117,-0.097 -0.308,-0.148 -0.574,-0.148 -0.223,0.008 -0.453,0.121 -0.684,0.344 -0.007,0.253 -0.004,0.503 0.004,0.746 0.008,0.347 0.024,0.867 0.051,1.55 l -0.57,0.012 c 0.031,-0.594 0.043,-1.191 0.031,-1.805 -0.008,-0.332 -0.07,-0.55 -0.188,-0.66 -0.121,-0.101 -0.304,-0.152 -0.554,-0.148 -0.262,0.008 -0.504,0.121 -0.727,0.344 0.012,0.66 0.031,1.425 0.059,2.3 l -0.567,0.008 c 0.024,-0.699 0.036,-1.219 0.028,-1.539 -0.012,-0.476 -0.071,-0.945 -0.168,-1.41 l 0.547,-0.094 0.066,0.375 0.031,0 c 0.258,-0.273 0.559,-0.422 0.895,-0.429 0.492,-0.008 0.812,0.125 0.961,0.398 l 0.031,0 c 0.305,-0.281 0.613,-0.43 0.926,-0.438 0.344,0 0.609,0.071 0.797,0.215 0.179,0.153 0.277,0.418 0.285,0.813 0,0.039 -0.004,0.113 -0.004,0.23 -0.004,0.121 -0.004,0.199 0,0.239 0.004,0.347 0.019,0.871 0.043,1.55 l -0.566,0.016 c 0.035,-0.547 0.046,-1.145 0.035,-1.809 z m 3.875,-0.105 c 0,0.094 0,0.215 -0.004,0.359 l -2.149,0.082 c 0.028,0.309 0.149,0.559 0.371,0.758 0.215,0.203 0.504,0.305 0.86,0.289 0.312,-0.004 0.605,-0.047 0.887,-0.133 l -0.043,0.446 c -0.204,0.086 -0.5,0.129 -0.883,0.136 -0.547,0.004 -0.961,-0.125 -1.25,-0.418 -0.289,-0.289 -0.438,-0.644 -0.446,-1.074 -0.011,-0.453 0.11,-0.844 0.364,-1.179 0.25,-0.333 0.593,-0.504 1.035,-0.512 0.402,-0.012 0.711,0.101 0.926,0.34 0.211,0.23 0.32,0.539 0.332,0.906 z m -0.52,0.019 c -0.015,-0.586 -0.265,-0.875 -0.754,-0.867 -0.5,0.016 -0.789,0.324 -0.867,0.934 l 1.621,-0.067 z m 2.985,1.336 -0.032,0.407 c -0.164,0.058 -0.32,0.089 -0.465,0.093 -0.378,0.004 -0.636,-0.082 -0.773,-0.265 -0.145,-0.188 -0.219,-0.528 -0.227,-1.024 -0.007,-0.312 -0.015,-0.726 -0.019,-1.246 -0.117,0.012 -0.289,0.02 -0.512,0.035 l 0.008,-0.457 c 0.195,0.016 0.371,0.016 0.531,0.008 -0.008,-0.125 0,-0.422 0.016,-0.887 l 0.488,-0.062 c -0.031,0.437 -0.043,0.754 -0.035,0.937 0.199,0 0.5,-0.011 0.898,-0.043 l -0.011,0.461 c -0.379,0 -0.68,0 -0.903,0 0,0.321 0.004,0.672 0.016,1.067 0.004,0.429 0.055,0.711 0.152,0.847 0.09,0.133 0.262,0.204 0.508,0.2 0.078,0 0.195,-0.028 0.36,-0.071 z m 3.121,-1.464 c 0,0.089 0,0.214 -0.004,0.363 l -2.149,0.082 c 0.028,0.305 0.149,0.555 0.371,0.758 0.215,0.203 0.504,0.3 0.86,0.289 0.312,-0.004 0.605,-0.047 0.886,-0.133 l -0.043,0.437 c -0.203,0.086 -0.5,0.129 -0.882,0.137 -0.547,0.012 -0.961,-0.125 -1.25,-0.41 -0.289,-0.289 -0.438,-0.648 -0.446,-1.074 -0.011,-0.453 0.11,-0.852 0.364,-1.188 0.25,-0.332 0.593,-0.504 1.035,-0.508 0.402,-0.007 0.711,0.106 0.926,0.336 0.211,0.239 0.32,0.539 0.332,0.911 z m -0.52,0.015 c -0.016,-0.586 -0.266,-0.867 -0.754,-0.859 -0.5,0.011 -0.789,0.316 -0.867,0.929 l 1.621,-0.07 z m 3.106,-1.207 -0.129,0.5 c -0.164,-0.055 -0.317,-0.086 -0.453,-0.086 -0.395,0.012 -0.645,0.199 -0.754,0.574 0.019,0.961 0.039,1.633 0.058,2.008 l -0.551,0.016 c 0.02,-0.656 0.024,-1.172 0.02,-1.539 -0.016,-0.492 -0.074,-0.961 -0.176,-1.414 l 0.543,-0.09 c 0.043,0.226 0.067,0.383 0.07,0.457 l 0.024,0 c 0.219,-0.332 0.476,-0.508 0.777,-0.516 0.156,0 0.348,0.035 0.571,0.09 z m 3.484,4.156 -0.223,0.27 c -0.312,-0.141 -0.574,-0.324 -0.789,-0.563 -0.535,-0.582 -0.812,-1.379 -0.828,-2.394 -0.027,-1.098 0.223,-1.977 0.742,-2.649 0.219,-0.269 0.481,-0.496 0.785,-0.664 l 0.164,0.258 c -0.238,0.199 -0.441,0.434 -0.605,0.695 -0.402,0.641 -0.594,1.422 -0.57,2.344 0.011,0.793 0.238,1.485 0.675,2.067 0.09,0.125 0.188,0.238 0.297,0.343 0.102,0.102 0.219,0.2 0.352,0.293 z"
     id="path68" />
  <path
     inkscape:connector-curvature="0"
     style="fill:#2c2c2b;stroke:none"
     d="m 110.15323,55.01121 -0.031,0.418 c -0.156,0.054 -0.301,0.086 -0.441,0.089 -0.297,0.004 -0.492,-0.121 -0.582,-0.371 l -0.039,0 c -0.258,0.258 -0.524,0.387 -0.797,0.399 -0.41,0.004 -0.692,-0.113 -0.844,-0.363 l -0.031,0 c 0.012,0.699 0.148,1.226 0.41,1.593 l -0.492,0.246 c -0.153,-0.226 -0.231,-0.472 -0.235,-0.746 -0.003,-0.125 0,-0.367 0.016,-0.722 0.012,-0.364 0.02,-0.653 0.016,-0.875 -0.016,-0.782 -0.071,-1.504 -0.157,-2.168 l 0.598,-0.051 c -0.027,0.277 -0.035,0.644 -0.023,1.09 0.007,0.609 0.07,1.023 0.187,1.246 0.11,0.222 0.317,0.328 0.613,0.316 0.297,-0.004 0.536,-0.125 0.715,-0.371 -0.023,-1.082 -0.058,-1.832 -0.105,-2.25 l 0.613,-0.074 c -0.043,0.547 -0.058,1.058 -0.047,1.531 0.004,0.481 0.039,0.793 0.106,0.949 0.043,0.125 0.125,0.184 0.25,0.176 0.086,0.008 0.187,-0.015 0.3,-0.062 z"
     id="path70" />
  <path
     inkscape:connector-curvature="0"
     style="fill:#2c2c2b;stroke:none"
     d="m 114.55523,53.54621 c -0.01,-0.328 -0.07,-0.547 -0.19,-0.656 -0.11,-0.106 -0.31,-0.157 -0.57,-0.157 -0.22,0.008 -0.45,0.121 -0.68,0.348 -0.01,0.254 -0.01,0.504 0,0.742 0.01,0.356 0.02,0.867 0.05,1.559 l -0.57,0.011 c 0.031,-0.593 0.043,-1.199 0.031,-1.808 -0.008,-0.332 -0.07,-0.555 -0.187,-0.656 -0.121,-0.11 -0.305,-0.157 -0.555,-0.157 -0.262,0.008 -0.504,0.125 -0.727,0.344 0.012,0.66 0.032,1.434 0.059,2.305 l -0.566,0.012 c 0.023,-0.704 0.035,-1.219 0.027,-1.54 -0.012,-0.484 -0.07,-0.953 -0.168,-1.414 l 0.547,-0.089 0.066,0.375 0.031,0 c 0.258,-0.282 0.559,-0.422 0.895,-0.434 0.492,-0.012 0.813,0.125 0.957,0.398 l 0.04,0 c 0.3,-0.285 0.61,-0.425 0.92,-0.437 0.34,0 0.61,0.066 0.8,0.219 0.18,0.144 0.27,0.418 0.28,0.804 0,0.039 0,0.121 0,0.239 -0.01,0.117 -0.01,0.195 0,0.23 0,0.356 0.02,0.871 0.04,1.559 l -0.56,0.011 c 0.03,-0.543 0.04,-1.144 0.03,-1.808 z m 2.93,-0.02 c 0.02,1.102 -0.23,1.981 -0.74,2.649 -0.22,0.269 -0.48,0.496 -0.79,0.668 l -0.16,-0.262 c 0.23,-0.195 0.43,-0.43 0.6,-0.688 0.4,-0.652 0.59,-1.429 0.58,-2.351 -0.02,-0.793 -0.24,-1.481 -0.68,-2.063 -0.18,-0.246 -0.4,-0.457 -0.65,-0.636 l 0.22,-0.274 c 0.3,0.141 0.57,0.328 0.79,0.567 0.53,0.582 0.81,1.379 0.83,2.39 z"
     id="path72" />
  <path
     inkscape:connector-curvature="0"
     style="fill:#2c2c2b;stroke:none"
     d="m 21.24323,42.51521 c 0,0.308 -0.027,0.593 -0.074,0.847 -0.055,0.262 -0.137,0.481 -0.246,0.66 -0.117,0.192 -0.266,0.332 -0.445,0.434 -0.188,0.102 -0.41,0.148 -0.676,0.148 -0.258,0 -0.473,-0.043 -0.645,-0.132 -0.171,-0.09 -0.312,-0.223 -0.418,-0.407 -0.109,-0.168 -0.183,-0.386 -0.226,-0.644 -0.047,-0.262 -0.07,-0.555 -0.067,-0.891 -0.003,-0.301 0.02,-0.59 0.075,-0.844 0.047,-0.257 0.129,-0.476 0.242,-0.664 0.109,-0.179 0.258,-0.328 0.441,-0.425 0.184,-0.106 0.41,-0.157 0.68,-0.157 0.254,0 0.469,0.047 0.644,0.141 0.172,0.09 0.309,0.223 0.418,0.398 0.102,0.172 0.18,0.387 0.227,0.649 0.047,0.258 0.07,0.555 0.07,0.887 z m -0.55,0.039 c 0,-0.204 -0.008,-0.383 -0.024,-0.543 -0.016,-0.161 -0.039,-0.301 -0.062,-0.426 -0.032,-0.121 -0.067,-0.231 -0.11,-0.32 -0.047,-0.086 -0.101,-0.161 -0.16,-0.219 -0.066,-0.059 -0.137,-0.102 -0.215,-0.125 -0.082,-0.024 -0.172,-0.035 -0.269,-0.039 -0.18,0.004 -0.325,0.043 -0.434,0.125 -0.113,0.086 -0.199,0.203 -0.262,0.343 -0.062,0.149 -0.105,0.321 -0.129,0.512 -0.023,0.199 -0.035,0.41 -0.035,0.629 0,0.309 0.016,0.567 0.047,0.777 0.031,0.211 0.078,0.379 0.149,0.512 0.062,0.137 0.148,0.235 0.257,0.289 0.102,0.067 0.231,0.098 0.387,0.09 0.113,0.008 0.219,-0.012 0.309,-0.055 0.086,-0.035 0.16,-0.086 0.226,-0.16 0.059,-0.066 0.11,-0.148 0.157,-0.25 0.039,-0.094 0.074,-0.207 0.101,-0.32 0.024,-0.117 0.039,-0.246 0.051,-0.391 0.008,-0.136 0.016,-0.285 0.016,-0.429 z"
     id="path74" />
  <path
     inkscape:connector-curvature="0"
     style="fill:#2c2c2b;stroke:none"
     d="m 31.89223,44.33521 c -0.004,0.039 -0.008,0.07 -0.012,0.101 -0.008,0.028 -0.016,0.043 -0.023,0.063 -0.012,0.016 -0.024,0.023 -0.039,0.031 -0.016,0.012 -0.032,0.016 -0.04,0.016 l -2.113,0 c -0.019,0 -0.035,-0.004 -0.043,-0.016 -0.015,-0.008 -0.027,-0.015 -0.035,-0.031 -0.016,-0.02 -0.023,-0.035 -0.027,-0.063 -0.008,-0.031 -0.012,-0.062 -0.008,-0.101 -0.004,-0.039 0,-0.07 0.008,-0.102 0.004,-0.023 0.011,-0.047 0.023,-0.062 0.008,-0.02 0.02,-0.028 0.035,-0.039 0.012,-0.008 0.028,-0.016 0.047,-0.02 l 0.844,0 0,-3.078 -0.781,0.473 c -0.043,0.019 -0.075,0.035 -0.098,0.039 -0.027,0.004 -0.047,0 -0.059,-0.02 -0.015,-0.008 -0.023,-0.035 -0.027,-0.066 -0.008,-0.027 -0.012,-0.067 -0.008,-0.117 -0.004,-0.035 -0.004,-0.071 0.004,-0.09 0,-0.024 0.008,-0.043 0.016,-0.067 0.004,-0.011 0.012,-0.031 0.023,-0.039 0.012,-0.011 0.028,-0.023 0.047,-0.043 l 0.934,-0.593 c 0.004,-0.004 0.015,-0.008 0.031,-0.012 0.012,-0.008 0.027,-0.012 0.047,-0.02 0.015,0 0.035,0 0.062,-0.004 0.024,0.004 0.059,0.004 0.098,0 0.047,0.004 0.086,0.004 0.121,0.004 0.031,0.008 0.059,0.012 0.078,0.02 0.02,0.008 0.031,0.016 0.039,0.023 l 0.012,0.039 0,3.551 0.73,0 c 0.012,0.004 0.028,0.012 0.043,0.02 0.012,0.011 0.024,0.019 0.04,0.039 0.007,0.015 0.015,0.039 0.023,0.062 0,0.032 0.004,0.063 0.008,0.102 z"
     id="path76" />
  <path
     inkscape:connector-curvature="0"
     style="fill:#2c2c2b;stroke:none"
     d="m 42.65023,44.31121 c -0.004,0.043 -0.008,0.075 -0.008,0.106 -0.008,0.027 -0.016,0.058 -0.024,0.07 -0.011,0.028 -0.023,0.035 -0.035,0.043 -0.019,0.012 -0.035,0.016 -0.051,0.016 l -2.234,0 c -0.031,0 -0.055,-0.004 -0.078,-0.016 -0.024,-0.008 -0.043,-0.015 -0.055,-0.031 -0.019,-0.02 -0.031,-0.039 -0.035,-0.07 -0.012,-0.032 -0.016,-0.075 -0.012,-0.118 -0.004,-0.039 -0.004,-0.078 0.004,-0.113 0,-0.023 0.008,-0.051 0.024,-0.082 0.007,-0.016 0.023,-0.043 0.039,-0.066 0.015,-0.028 0.035,-0.051 0.062,-0.078 l 0.809,-0.832 c 0.183,-0.196 0.332,-0.368 0.449,-0.516 0.109,-0.149 0.195,-0.285 0.258,-0.414 0.058,-0.121 0.101,-0.235 0.121,-0.344 0.019,-0.098 0.027,-0.195 0.031,-0.285 -0.004,-0.094 -0.019,-0.176 -0.047,-0.258 -0.031,-0.074 -0.074,-0.144 -0.129,-0.211 -0.062,-0.054 -0.132,-0.105 -0.214,-0.14 -0.09,-0.036 -0.188,-0.051 -0.297,-0.055 -0.133,0.004 -0.25,0.019 -0.352,0.055 -0.105,0.035 -0.199,0.074 -0.273,0.113 -0.082,0.043 -0.149,0.082 -0.2,0.113 -0.054,0.039 -0.093,0.063 -0.117,0.059 -0.015,0.004 -0.027,0 -0.039,-0.016 -0.015,-0.008 -0.027,-0.019 -0.031,-0.043 -0.008,-0.012 -0.012,-0.039 -0.016,-0.07 -0.007,-0.028 -0.011,-0.067 -0.007,-0.113 -0.004,-0.032 0,-0.055 0.003,-0.082 0,-0.024 0.004,-0.04 0.012,-0.059 0.004,-0.016 0.008,-0.027 0.02,-0.051 0.004,-0.012 0.023,-0.027 0.05,-0.051 0.024,-0.019 0.067,-0.047 0.129,-0.086 0.063,-0.039 0.137,-0.078 0.231,-0.117 0.09,-0.035 0.195,-0.058 0.308,-0.09 0.11,-0.019 0.227,-0.039 0.352,-0.039 0.195,0 0.363,0.032 0.512,0.082 0.144,0.059 0.269,0.133 0.367,0.231 0.094,0.101 0.164,0.211 0.215,0.336 0.047,0.125 0.07,0.261 0.074,0.398 -0.004,0.137 -0.016,0.266 -0.035,0.391 -0.028,0.133 -0.074,0.269 -0.145,0.418 -0.074,0.144 -0.179,0.312 -0.32,0.496 -0.141,0.187 -0.328,0.394 -0.555,0.629 l -0.64,0.668 1.757,0 c 0.016,0 0.032,0.008 0.047,0.015 0.016,0.008 0.028,0.024 0.039,0.043 0.012,0.02 0.02,0.039 0.028,0.071 0,0.023 0.004,0.058 0.008,0.093 z"
     id="path78" />
  <path
     inkscape:connector-curvature="0"
     style="fill:#2c2c2b;stroke:none"
     d="m 53.39223,43.39021 c -0.004,0.183 -0.035,0.351 -0.098,0.503 -0.066,0.153 -0.16,0.278 -0.277,0.379 -0.125,0.11 -0.274,0.192 -0.446,0.246 -0.179,0.055 -0.378,0.086 -0.601,0.086 -0.137,0 -0.262,-0.011 -0.379,-0.039 -0.117,-0.015 -0.223,-0.043 -0.316,-0.074 -0.094,-0.023 -0.172,-0.055 -0.227,-0.094 -0.062,-0.031 -0.098,-0.05 -0.113,-0.066 -0.016,-0.016 -0.028,-0.027 -0.035,-0.047 -0.008,-0.012 -0.016,-0.027 -0.024,-0.055 -0.008,-0.011 -0.015,-0.043 -0.015,-0.074 -0.008,-0.027 -0.008,-0.062 -0.004,-0.109 -0.004,-0.071 0.004,-0.125 0.023,-0.156 0.012,-0.032 0.035,-0.04 0.066,-0.043 0.016,0.003 0.051,0.015 0.11,0.05 0.055,0.036 0.129,0.071 0.219,0.106 0.089,0.043 0.191,0.078 0.312,0.105 0.117,0.039 0.25,0.059 0.395,0.051 0.14,0.008 0.265,-0.012 0.375,-0.055 0.105,-0.035 0.195,-0.082 0.265,-0.144 0.071,-0.063 0.125,-0.141 0.164,-0.231 0.035,-0.086 0.051,-0.183 0.055,-0.293 -0.004,-0.113 -0.027,-0.211 -0.07,-0.304 -0.047,-0.09 -0.114,-0.172 -0.203,-0.239 -0.09,-0.07 -0.2,-0.121 -0.329,-0.156 -0.132,-0.031 -0.281,-0.051 -0.441,-0.051 l -0.398,0 c -0.024,0 -0.039,0 -0.051,-0.011 -0.02,-0.004 -0.035,-0.02 -0.043,-0.035 -0.016,-0.012 -0.024,-0.036 -0.028,-0.067 -0.011,-0.023 -0.015,-0.058 -0.011,-0.105 -0.004,-0.035 0,-0.071 0.008,-0.102 0.007,-0.019 0.015,-0.047 0.027,-0.058 0.012,-0.016 0.023,-0.032 0.039,-0.036 0.012,-0.007 0.031,-0.011 0.051,-0.011 l 0.355,0 c 0.133,0 0.254,-0.02 0.367,-0.051 0.106,-0.035 0.2,-0.086 0.278,-0.152 0.074,-0.071 0.133,-0.149 0.176,-0.243 0.039,-0.086 0.058,-0.191 0.062,-0.308 -0.004,-0.082 -0.016,-0.16 -0.043,-0.239 -0.027,-0.078 -0.07,-0.14 -0.121,-0.203 -0.055,-0.05 -0.121,-0.097 -0.207,-0.129 -0.086,-0.035 -0.184,-0.046 -0.293,-0.05 -0.121,0.004 -0.234,0.019 -0.332,0.05 -0.106,0.043 -0.195,0.082 -0.27,0.122 -0.082,0.046 -0.144,0.085 -0.195,0.117 -0.055,0.039 -0.094,0.054 -0.109,0.054 -0.02,0 -0.032,0 -0.043,-0.007 -0.012,0 -0.024,-0.012 -0.028,-0.036 -0.007,-0.007 -0.011,-0.031 -0.015,-0.058 -0.004,-0.024 -0.004,-0.067 -0.004,-0.113 0,-0.032 0,-0.055 0.004,-0.082 0,-0.024 0.004,-0.04 0.012,-0.067 0.003,-0.012 0.011,-0.027 0.023,-0.047 0.004,-0.008 0.016,-0.027 0.039,-0.047 0.016,-0.019 0.059,-0.047 0.121,-0.086 0.063,-0.039 0.137,-0.078 0.227,-0.117 0.086,-0.035 0.187,-0.058 0.304,-0.09 0.114,-0.019 0.239,-0.039 0.375,-0.039 0.184,0 0.348,0.028 0.493,0.075 0.136,0.046 0.253,0.117 0.351,0.203 0.094,0.093 0.164,0.199 0.215,0.312 0.043,0.125 0.066,0.262 0.07,0.406 -0.004,0.125 -0.019,0.247 -0.051,0.356 -0.035,0.105 -0.082,0.207 -0.144,0.293 -0.066,0.086 -0.148,0.156 -0.238,0.215 -0.098,0.058 -0.203,0.097 -0.325,0.121 l 0,0.008 c 0.137,0.011 0.262,0.05 0.379,0.101 0.114,0.063 0.215,0.125 0.301,0.207 0.082,0.086 0.145,0.188 0.195,0.293 0.043,0.113 0.067,0.235 0.071,0.36 z"
     id="path80" />
  <path
     inkscape:connector-curvature="0"
     style="fill:#2c2c2b;stroke:none"
     d="m 64.36423,43.39721 c 0,0.071 -0.011,0.125 -0.031,0.161 -0.023,0.042 -0.051,0.058 -0.086,0.054 l -0.457,0 0,0.856 c 0,0.015 -0.008,0.031 -0.015,0.043 -0.012,0.011 -0.024,0.019 -0.043,0.031 -0.024,0.008 -0.051,0.012 -0.082,0.016 -0.036,0.003 -0.082,0.003 -0.133,0.003 -0.055,0 -0.098,0 -0.129,-0.003 -0.039,-0.004 -0.067,-0.008 -0.082,-0.016 -0.024,-0.012 -0.035,-0.02 -0.043,-0.031 -0.008,-0.012 -0.012,-0.028 -0.012,-0.043 l 0,-0.856 -1.652,0 c -0.028,0.004 -0.051,0 -0.063,-0.008 -0.019,0 -0.035,-0.007 -0.047,-0.031 -0.015,-0.012 -0.023,-0.043 -0.027,-0.07 -0.008,-0.031 -0.012,-0.07 -0.008,-0.121 -0.004,-0.039 0,-0.074 0.004,-0.11 0,-0.031 0.004,-0.058 0.012,-0.086 0.008,-0.027 0.016,-0.046 0.027,-0.078 0.008,-0.015 0.02,-0.043 0.035,-0.074 l 1.442,-2.453 c 0.008,-0.02 0.023,-0.031 0.047,-0.047 0.019,-0.012 0.047,-0.016 0.078,-0.027 0.031,-0.008 0.07,-0.02 0.117,-0.024 0.047,0 0.102,0 0.168,-0.004 0.066,0.004 0.125,0.004 0.18,0.008 0.047,0.012 0.089,0.02 0.125,0.024 0.031,0.011 0.054,0.019 0.074,0.035 0.015,0.015 0.027,0.027 0.027,0.047 l 0,2.582 0.457,0 c 0.031,0 0.059,0.015 0.082,0.054 0.024,0.039 0.035,0.09 0.035,0.168 z m -1.113,-2.441 -0.004,0 -1.301,2.219 1.305,0 0,-2.219 z"
     id="path82" />
  <path
     inkscape:connector-curvature="0"
     style="fill:#2c2c2b;stroke:none"
     d="m 74.94623,43.24121 c -0.003,0.223 -0.039,0.414 -0.109,0.578 -0.074,0.172 -0.176,0.317 -0.309,0.434 -0.132,0.113 -0.292,0.207 -0.476,0.262 -0.188,0.058 -0.391,0.089 -0.613,0.089 -0.125,0 -0.246,-0.011 -0.356,-0.031 -0.117,-0.015 -0.215,-0.031 -0.301,-0.058 -0.089,-0.028 -0.164,-0.051 -0.218,-0.079 -0.059,-0.027 -0.094,-0.043 -0.106,-0.058 -0.019,-0.016 -0.031,-0.024 -0.035,-0.039 -0.008,-0.008 -0.012,-0.028 -0.016,-0.047 -0.007,-0.02 -0.011,-0.039 -0.011,-0.067 l 0,-0.097 c 0,-0.031 0,-0.067 0.004,-0.098 0,-0.019 0.003,-0.047 0.015,-0.066 0.008,-0.02 0.02,-0.031 0.031,-0.039 0.008,-0.008 0.02,-0.016 0.04,-0.016 0.015,0 0.05,0.02 0.097,0.039 0.043,0.031 0.102,0.063 0.176,0.086 0.07,0.031 0.16,0.063 0.273,0.09 0.106,0.023 0.235,0.043 0.391,0.035 0.137,0.008 0.266,-0.012 0.383,-0.051 0.113,-0.027 0.215,-0.082 0.301,-0.152 0.086,-0.066 0.152,-0.156 0.199,-0.27 0.047,-0.105 0.07,-0.238 0.074,-0.39 -0.004,-0.125 -0.023,-0.242 -0.062,-0.348 -0.04,-0.094 -0.102,-0.176 -0.188,-0.242 -0.086,-0.063 -0.195,-0.109 -0.32,-0.145 -0.133,-0.035 -0.285,-0.046 -0.461,-0.05 -0.129,0.004 -0.238,0.007 -0.328,0.015 -0.094,0.02 -0.18,0.028 -0.258,0.024 -0.059,0.004 -0.102,-0.008 -0.125,-0.039 -0.027,-0.028 -0.039,-0.078 -0.035,-0.161 l 0,-1.644 c -0.004,-0.066 0.011,-0.117 0.047,-0.152 0.027,-0.032 0.074,-0.051 0.14,-0.051 l 1.789,0 c 0.012,0 0.028,0.008 0.047,0.015 0.012,0.008 0.024,0.024 0.039,0.04 0.008,0.015 0.016,0.042 0.024,0.074 0,0.027 0.004,0.062 0.007,0.097 -0.003,0.082 -0.015,0.137 -0.031,0.176 -0.023,0.043 -0.051,0.067 -0.082,0.067 l -1.445,0 0,1.132 c 0.066,-0.007 0.137,-0.011 0.215,-0.015 0.07,0 0.156,-0.004 0.254,-0.004 0.222,0 0.418,0.023 0.586,0.082 0.164,0.055 0.3,0.133 0.414,0.23 0.109,0.106 0.195,0.231 0.254,0.371 0.054,0.149 0.082,0.301 0.085,0.473 z"
     id="path84" />
  <path
     inkscape:connector-curvature="0"
     style="fill:#2c2c2b;stroke:none"
     d="m 85.84123,43.23321 c -0.004,0.184 -0.031,0.356 -0.082,0.52 -0.059,0.168 -0.141,0.308 -0.25,0.433 -0.113,0.129 -0.258,0.235 -0.43,0.301 -0.176,0.078 -0.379,0.117 -0.613,0.117 -0.168,0 -0.316,-0.019 -0.445,-0.062 -0.133,-0.039 -0.246,-0.102 -0.34,-0.18 -0.094,-0.07 -0.176,-0.168 -0.238,-0.281 -0.067,-0.109 -0.118,-0.238 -0.153,-0.387 -0.043,-0.14 -0.07,-0.297 -0.082,-0.469 -0.019,-0.167 -0.027,-0.351 -0.023,-0.55 -0.004,-0.172 0.008,-0.352 0.027,-0.528 0.016,-0.172 0.047,-0.343 0.098,-0.511 0.047,-0.161 0.113,-0.317 0.195,-0.461 0.082,-0.145 0.184,-0.274 0.309,-0.379 0.121,-0.11 0.269,-0.196 0.445,-0.262 0.172,-0.059 0.375,-0.094 0.605,-0.094 0.079,0 0.157,0.008 0.235,0.02 0.078,0.015 0.148,0.023 0.219,0.039 0.062,0.019 0.121,0.031 0.168,0.051 0.046,0.015 0.074,0.035 0.089,0.047 0.012,0.007 0.024,0.019 0.036,0.035 0.003,0.015 0.011,0.027 0.015,0.043 0.004,0.015 0.004,0.039 0.008,0.054 0,0.024 0.004,0.043 0.004,0.075 l 0,0.093 c 0,0.032 -0.004,0.051 -0.012,0.071 -0.008,0.015 -0.019,0.031 -0.031,0.035 -0.012,0.012 -0.027,0.015 -0.043,0.012 -0.027,0.003 -0.059,-0.004 -0.094,-0.024 -0.043,-0.012 -0.09,-0.027 -0.144,-0.051 -0.059,-0.011 -0.125,-0.031 -0.203,-0.043 -0.083,-0.011 -0.176,-0.019 -0.282,-0.023 -0.195,0.004 -0.363,0.043 -0.5,0.117 -0.14,0.078 -0.254,0.188 -0.34,0.32 -0.089,0.129 -0.156,0.289 -0.199,0.461 -0.043,0.176 -0.066,0.364 -0.074,0.551 0.055,-0.023 0.113,-0.055 0.184,-0.094 0.062,-0.023 0.136,-0.05 0.222,-0.082 0.078,-0.019 0.164,-0.043 0.254,-0.058 0.09,-0.016 0.188,-0.024 0.289,-0.028 0.219,0.004 0.403,0.036 0.551,0.09 0.148,0.063 0.27,0.145 0.363,0.246 0.094,0.11 0.16,0.235 0.199,0.375 0.04,0.145 0.059,0.297 0.063,0.461 z m -0.547,0.051 c -0.004,-0.117 -0.016,-0.226 -0.035,-0.328 -0.027,-0.098 -0.066,-0.184 -0.121,-0.25 -0.059,-0.07 -0.133,-0.121 -0.223,-0.16 -0.097,-0.031 -0.215,-0.055 -0.347,-0.059 -0.082,0.004 -0.161,0.016 -0.235,0.024 -0.078,0.011 -0.152,0.031 -0.222,0.05 -0.075,0.028 -0.141,0.055 -0.204,0.086 -0.066,0.039 -0.125,0.075 -0.179,0.11 0,0.269 0.015,0.496 0.05,0.676 0.032,0.175 0.083,0.324 0.149,0.429 0.066,0.113 0.148,0.192 0.246,0.238 0.098,0.047 0.211,0.071 0.344,0.071 0.129,0 0.246,-0.024 0.347,-0.074 0.098,-0.047 0.176,-0.118 0.243,-0.2 0.062,-0.086 0.109,-0.175 0.14,-0.289 0.028,-0.097 0.043,-0.211 0.047,-0.324 z"
     id="path86" />
  <path
     inkscape:connector-curvature="0"
     style="fill:#2c2c2b;stroke:none"
     d="m 96.56823,40.72921 c -0.004,0.043 -0.004,0.079 -0.004,0.106 -0.004,0.031 -0.008,0.062 -0.012,0.09 -0.008,0.023 -0.016,0.054 -0.024,0.078 -0.007,0.023 -0.019,0.055 -0.031,0.082 l -1.457,3.355 c -0.012,0.032 -0.027,0.047 -0.039,0.063 -0.019,0.019 -0.039,0.027 -0.058,0.039 -0.028,0.008 -0.059,0.012 -0.094,0.016 -0.039,0.003 -0.082,0.003 -0.137,0.003 -0.07,0 -0.125,-0.003 -0.164,-0.007 -0.039,-0.008 -0.07,-0.012 -0.086,-0.032 -0.023,-0.004 -0.031,-0.023 -0.023,-0.047 0,-0.019 0.007,-0.042 0.019,-0.074 l 1.531,-3.426 -1.937,0 c -0.047,0.004 -0.078,-0.019 -0.094,-0.066 -0.023,-0.035 -0.031,-0.098 -0.027,-0.176 -0.004,-0.039 0,-0.066 0.008,-0.097 0.004,-0.032 0.011,-0.055 0.023,-0.075 0.008,-0.019 0.02,-0.035 0.035,-0.043 0.016,-0.007 0.031,-0.015 0.055,-0.015 l 2.355,0 c 0.024,0 0.051,0.004 0.075,0.012 0.023,0.007 0.039,0.015 0.05,0.035 0.012,0.015 0.02,0.043 0.028,0.066 0,0.031 0.004,0.07 0.008,0.113 z"
     id="path88" />
  <path
     inkscape:connector-curvature="0"
     style="fill:#2c2c2b;stroke:none"
     d="m 107.37223,43.50721 c -0.004,0.179 -0.035,0.336 -0.094,0.468 -0.066,0.137 -0.156,0.254 -0.269,0.34 -0.121,0.102 -0.266,0.168 -0.438,0.215 -0.171,0.051 -0.371,0.074 -0.593,0.074 -0.211,0 -0.399,-0.019 -0.559,-0.062 -0.168,-0.043 -0.305,-0.109 -0.418,-0.195 -0.117,-0.086 -0.207,-0.196 -0.262,-0.321 -0.062,-0.125 -0.089,-0.261 -0.089,-0.426 0,-0.121 0.019,-0.242 0.062,-0.347 0.039,-0.106 0.098,-0.203 0.18,-0.293 0.074,-0.094 0.172,-0.18 0.289,-0.254 0.113,-0.078 0.242,-0.152 0.387,-0.227 -0.129,-0.058 -0.239,-0.125 -0.332,-0.203 -0.098,-0.066 -0.18,-0.144 -0.247,-0.23 -0.066,-0.082 -0.117,-0.172 -0.148,-0.274 -0.035,-0.089 -0.051,-0.199 -0.051,-0.312 0,-0.141 0.024,-0.274 0.074,-0.399 0.051,-0.125 0.129,-0.226 0.231,-0.324 0.101,-0.09 0.23,-0.164 0.394,-0.215 0.157,-0.05 0.344,-0.082 0.559,-0.082 0.199,0 0.375,0.032 0.527,0.078 0.149,0.047 0.274,0.118 0.371,0.2 0.094,0.086 0.165,0.179 0.211,0.297 0.047,0.117 0.071,0.238 0.071,0.367 0,0.105 -0.02,0.215 -0.051,0.304 -0.039,0.106 -0.09,0.196 -0.152,0.282 -0.071,0.09 -0.153,0.172 -0.247,0.246 -0.101,0.078 -0.21,0.148 -0.332,0.215 0.145,0.078 0.278,0.152 0.395,0.222 0.117,0.078 0.215,0.16 0.293,0.246 0.078,0.09 0.137,0.188 0.176,0.286 0.039,0.097 0.058,0.21 0.062,0.324 z m -0.676,-2.074 c -0.003,-0.083 -0.019,-0.161 -0.046,-0.239 -0.032,-0.066 -0.075,-0.133 -0.133,-0.179 -0.059,-0.047 -0.129,-0.086 -0.215,-0.118 -0.086,-0.019 -0.184,-0.035 -0.293,-0.039 -0.227,0.004 -0.398,0.059 -0.516,0.157 -0.117,0.101 -0.175,0.246 -0.172,0.418 -0.003,0.085 0.012,0.16 0.043,0.222 0.028,0.074 0.071,0.145 0.133,0.199 0.059,0.071 0.133,0.129 0.223,0.188 0.09,0.062 0.199,0.117 0.324,0.183 0.211,-0.109 0.371,-0.222 0.484,-0.359 0.11,-0.129 0.165,-0.269 0.168,-0.433 z m 0.133,2.128 c 0,-0.089 -0.019,-0.179 -0.054,-0.257 -0.036,-0.079 -0.09,-0.153 -0.161,-0.219 -0.074,-0.063 -0.164,-0.129 -0.269,-0.195 -0.109,-0.067 -0.231,-0.129 -0.371,-0.204 -0.133,0.071 -0.25,0.133 -0.348,0.2 -0.101,0.062 -0.183,0.132 -0.242,0.199 -0.066,0.066 -0.113,0.14 -0.145,0.215 -0.035,0.078 -0.05,0.164 -0.046,0.254 -0.004,0.203 0.066,0.355 0.207,0.468 0.136,0.114 0.343,0.164 0.621,0.164 0.265,0 0.465,-0.054 0.601,-0.168 0.137,-0.113 0.207,-0.257 0.207,-0.457 z"
     id="path90" />
  <path
     inkscape:connector-curvature="0"
     style="fill:#2c2c2b;stroke:none"
     d="m 118.08523,42.36221 c 0,0.18 -0.01,0.36 -0.03,0.535 -0.03,0.176 -0.06,0.352 -0.11,0.512 -0.05,0.176 -0.12,0.328 -0.2,0.473 -0.09,0.144 -0.19,0.269 -0.32,0.379 -0.13,0.105 -0.28,0.195 -0.46,0.254 -0.18,0.058 -0.38,0.089 -0.61,0.089 -0.09,0 -0.18,-0.007 -0.26,-0.019 -0.09,-0.016 -0.16,-0.024 -0.23,-0.039 -0.07,-0.02 -0.13,-0.031 -0.17,-0.055 -0.05,-0.016 -0.08,-0.035 -0.1,-0.055 -0.02,-0.015 -0.04,-0.039 -0.05,-0.078 -0.01,-0.027 -0.01,-0.078 -0.01,-0.129 0,-0.043 0,-0.082 0,-0.105 0.01,-0.027 0.01,-0.051 0.02,-0.063 0.01,-0.011 0.01,-0.027 0.02,-0.035 0.02,-0.004 0.03,-0.004 0.05,-0.004 0.02,0 0.05,0.008 0.09,0.024 0.04,0.015 0.1,0.035 0.16,0.051 0.06,0.015 0.14,0.035 0.23,0.05 0.08,0.012 0.18,0.024 0.29,0.024 0.19,0 0.36,-0.039 0.51,-0.117 0.14,-0.079 0.26,-0.18 0.36,-0.317 0.09,-0.129 0.16,-0.277 0.21,-0.457 0.04,-0.172 0.07,-0.351 0.07,-0.547 -0.11,0.071 -0.24,0.125 -0.4,0.172 -0.15,0.059 -0.33,0.078 -0.53,0.074 -0.22,0.004 -0.41,-0.023 -0.56,-0.086 -0.16,-0.062 -0.28,-0.144 -0.37,-0.253 -0.1,-0.106 -0.16,-0.235 -0.2,-0.379 -0.04,-0.149 -0.06,-0.301 -0.06,-0.481 0,-0.176 0.02,-0.344 0.08,-0.508 0.04,-0.164 0.13,-0.3 0.24,-0.425 0.1,-0.118 0.24,-0.215 0.42,-0.293 0.17,-0.075 0.37,-0.114 0.61,-0.114 0.17,0 0.32,0.028 0.45,0.067 0.13,0.047 0.24,0.101 0.34,0.179 0.09,0.086 0.17,0.18 0.24,0.293 0.07,0.118 0.12,0.246 0.17,0.387 0.03,0.149 0.06,0.305 0.08,0.469 0.02,0.168 0.03,0.344 0.03,0.527 z m -0.55,-0.058 c 0,-0.262 -0.02,-0.489 -0.05,-0.672 -0.04,-0.184 -0.09,-0.328 -0.16,-0.446 -0.07,-0.105 -0.16,-0.187 -0.25,-0.242 -0.11,-0.047 -0.22,-0.07 -0.35,-0.078 -0.13,0.008 -0.25,0.031 -0.34,0.074 -0.11,0.051 -0.18,0.121 -0.24,0.203 -0.07,0.082 -0.11,0.172 -0.14,0.278 -0.03,0.105 -0.04,0.215 -0.04,0.316 0,0.129 0.01,0.242 0.04,0.344 0.02,0.105 0.07,0.191 0.13,0.258 0.05,0.07 0.13,0.129 0.23,0.164 0.09,0.043 0.2,0.058 0.34,0.058 0.15,0 0.3,-0.019 0.45,-0.074 0.15,-0.043 0.27,-0.101 0.38,-0.183 z"
     id="path92" />
  <path
     inkscape:connector-curvature="0"
     style="fill:#2c2c2b;stroke:none"
     d="m 128.96523,42.51521 c 0,0.308 -0.03,0.593 -0.08,0.847 -0.05,0.262 -0.13,0.481 -0.24,0.66 -0.12,0.192 -0.27,0.332 -0.45,0.434 -0.19,0.102 -0.41,0.148 -0.67,0.148 -0.26,0 -0.48,-0.043 -0.65,-0.132 -0.17,-0.09 -0.31,-0.223 -0.42,-0.407 -0.11,-0.168 -0.18,-0.386 -0.22,-0.644 -0.05,-0.262 -0.07,-0.555 -0.07,-0.891 0,-0.301 0.02,-0.59 0.07,-0.844 0.05,-0.257 0.13,-0.476 0.25,-0.664 0.11,-0.179 0.25,-0.328 0.44,-0.425 0.18,-0.106 0.41,-0.157 0.68,-0.157 0.25,0 0.47,0.047 0.64,0.141 0.17,0.09 0.31,0.223 0.42,0.398 0.1,0.172 0.18,0.387 0.23,0.649 0.04,0.258 0.07,0.555 0.07,0.887 z m -0.55,0.039 c 0,-0.204 -0.01,-0.383 -0.03,-0.543 -0.01,-0.161 -0.04,-0.301 -0.06,-0.426 -0.03,-0.121 -0.07,-0.231 -0.11,-0.32 -0.05,-0.086 -0.1,-0.161 -0.16,-0.219 -0.07,-0.059 -0.14,-0.102 -0.21,-0.125 -0.09,-0.024 -0.18,-0.035 -0.27,-0.039 -0.18,0.004 -0.33,0.043 -0.44,0.125 -0.11,0.086 -0.2,0.203 -0.26,0.343 -0.06,0.149 -0.1,0.321 -0.13,0.512 -0.02,0.199 -0.03,0.41 -0.03,0.629 0,0.309 0.01,0.567 0.04,0.777 0.04,0.211 0.08,0.379 0.15,0.512 0.07,0.137 0.15,0.235 0.26,0.289 0.1,0.067 0.23,0.098 0.39,0.09 0.11,0.008 0.22,-0.012 0.31,-0.055 0.08,-0.035 0.16,-0.086 0.22,-0.16 0.06,-0.066 0.11,-0.148 0.16,-0.25 0.04,-0.094 0.07,-0.207 0.1,-0.32 0.02,-0.117 0.04,-0.246 0.05,-0.391 0.01,-0.136 0.02,-0.285 0.02,-0.429 z"
     id="path94" />
  <path
     inkscape:connector-curvature="0"
     style="fill:#2c2c2b;stroke:none"
     d="m 26.91123,17.00321 c 0,0.308 -0.027,0.597 -0.074,0.851 -0.055,0.254 -0.137,0.477 -0.246,0.661 -0.117,0.183 -0.266,0.332 -0.445,0.425 -0.188,0.106 -0.41,0.153 -0.676,0.153 -0.258,0 -0.473,-0.043 -0.645,-0.133 -0.172,-0.094 -0.312,-0.227 -0.418,-0.402 -0.109,-0.172 -0.183,-0.391 -0.226,-0.653 -0.047,-0.258 -0.07,-0.551 -0.067,-0.883 -0.003,-0.304 0.02,-0.589 0.075,-0.847 0.047,-0.258 0.129,-0.481 0.242,-0.664 0.109,-0.18 0.258,-0.325 0.441,-0.426 0.184,-0.106 0.41,-0.152 0.68,-0.152 0.254,0 0.469,0.046 0.644,0.132 0.172,0.09 0.309,0.227 0.418,0.403 0.102,0.175 0.18,0.386 0.227,0.644 0.047,0.262 0.07,0.559 0.07,0.891 z m -0.55,0.039 c 0,-0.203 -0.008,-0.387 -0.024,-0.543 -0.016,-0.16 -0.039,-0.305 -0.062,-0.43 -0.032,-0.121 -0.067,-0.226 -0.11,-0.316 -0.047,-0.086 -0.101,-0.156 -0.16,-0.223 -0.066,-0.051 -0.137,-0.094 -0.215,-0.125 -0.082,-0.019 -0.172,-0.031 -0.269,-0.039 -0.18,0.008 -0.325,0.043 -0.434,0.125 -0.113,0.09 -0.199,0.203 -0.262,0.348 -0.062,0.144 -0.105,0.316 -0.129,0.515 -0.023,0.2 -0.035,0.407 -0.035,0.625 0,0.305 0.016,0.567 0.047,0.778 0.031,0.211 0.078,0.383 0.149,0.515 0.062,0.129 0.148,0.231 0.257,0.289 0.102,0.063 0.231,0.09 0.387,0.086 0.113,0.004 0.219,-0.011 0.309,-0.05 0.086,-0.036 0.16,-0.09 0.226,-0.161 0.059,-0.074 0.11,-0.156 0.157,-0.25 0.039,-0.097 0.074,-0.207 0.101,-0.328 0.024,-0.117 0.039,-0.246 0.051,-0.383 0.008,-0.14 0.016,-0.289 0.016,-0.433 z"
     id="path96" />
  <path
     inkscape:connector-curvature="0"
     style="fill:#2c2c2b;stroke:none"
     d="m 83.16123,18.81921 c -0.004,0.039 -0.008,0.078 -0.011,0.106 -0.008,0.023 -0.016,0.047 -0.024,0.058 -0.012,0.02 -0.023,0.032 -0.039,0.039 -0.016,0.004 -0.031,0.008 -0.039,0.008 l -2.113,0 c -0.02,0 -0.035,-0.004 -0.043,-0.008 -0.016,-0.007 -0.028,-0.019 -0.035,-0.039 -0.016,-0.011 -0.024,-0.035 -0.028,-0.058 -0.008,-0.028 -0.011,-0.067 -0.008,-0.106 -0.003,-0.039 0,-0.066 0.008,-0.094 0.004,-0.031 0.012,-0.05 0.024,-0.07 0.008,-0.012 0.019,-0.023 0.035,-0.039 0.012,-0.008 0.027,-0.012 0.047,-0.012 l 0.843,0 0,-3.082 -0.781,0.469 c -0.043,0.027 -0.074,0.035 -0.097,0.039 -0.028,0.004 -0.047,0 -0.059,-0.012 -0.016,-0.011 -0.023,-0.039 -0.027,-0.074 -0.008,-0.023 -0.012,-0.062 -0.008,-0.113 -0.004,-0.035 -0.004,-0.066 0.004,-0.094 0,-0.019 0.008,-0.043 0.015,-0.058 0.004,-0.02 0.012,-0.032 0.024,-0.043 0.012,-0.012 0.027,-0.028 0.047,-0.039 l 0.933,-0.598 c 0.004,-0.008 0.016,-0.012 0.032,-0.016 0.011,-0.004 0.027,-0.004 0.046,-0.011 0.016,0 0.036,-0.004 0.063,-0.008 0.023,0.004 0.058,0.004 0.098,0 0.046,0.004 0.085,0.008 0.121,0.008 0.031,0.007 0.058,0.007 0.078,0.011 0.019,0.008 0.031,0.02 0.039,0.032 0.004,0.007 0.008,0.019 0.012,0.035 l 0,3.554 0.73,0 c 0.012,0 0.027,0.004 0.043,0.012 0.012,0.016 0.023,0.027 0.039,0.039 0.008,0.02 0.016,0.039 0.023,0.07 0,0.028 0.004,0.055 0.008,0.094 z m 3.375,-1.816 c 0,0.308 -0.027,0.597 -0.074,0.851 -0.055,0.254 -0.137,0.477 -0.246,0.661 -0.117,0.183 -0.266,0.332 -0.445,0.425 -0.188,0.106 -0.41,0.153 -0.676,0.153 -0.258,0 -0.473,-0.043 -0.645,-0.133 -0.172,-0.094 -0.312,-0.227 -0.418,-0.402 -0.109,-0.172 -0.183,-0.391 -0.226,-0.653 -0.047,-0.258 -0.07,-0.551 -0.067,-0.883 -0.003,-0.304 0.02,-0.589 0.075,-0.847 0.047,-0.258 0.129,-0.481 0.242,-0.664 0.109,-0.18 0.258,-0.325 0.441,-0.426 0.184,-0.106 0.41,-0.152 0.68,-0.152 0.254,0 0.469,0.046 0.644,0.132 0.172,0.09 0.309,0.227 0.418,0.403 0.102,0.175 0.18,0.386 0.227,0.644 0.047,0.262 0.07,0.559 0.07,0.891 z m -0.55,0.039 c 0,-0.203 -0.008,-0.387 -0.024,-0.543 -0.016,-0.16 -0.039,-0.305 -0.062,-0.43 -0.032,-0.121 -0.067,-0.226 -0.11,-0.316 -0.047,-0.086 -0.101,-0.156 -0.16,-0.223 -0.066,-0.051 -0.137,-0.094 -0.215,-0.125 -0.082,-0.019 -0.172,-0.031 -0.269,-0.039 -0.18,0.008 -0.325,0.043 -0.434,0.125 -0.113,0.09 -0.199,0.203 -0.262,0.348 -0.062,0.144 -0.105,0.316 -0.129,0.515 -0.023,0.2 -0.035,0.407 -0.035,0.625 0,0.305 0.016,0.567 0.047,0.778 0.031,0.211 0.078,0.383 0.149,0.515 0.062,0.129 0.148,0.231 0.257,0.289 0.102,0.063 0.231,0.09 0.387,0.086 0.113,0.004 0.219,-0.011 0.309,-0.05 0.086,-0.036 0.16,-0.09 0.226,-0.161 0.059,-0.074 0.11,-0.156 0.157,-0.25 0.039,-0.097 0.074,-0.207 0.101,-0.328 0.024,-0.117 0.039,-0.246 0.051,-0.383 0.008,-0.14 0.016,-0.289 0.016,-0.433 z m 3.8,-0.039 c 0,0.308 -0.027,0.597 -0.074,0.851 -0.055,0.254 -0.137,0.477 -0.246,0.661 -0.117,0.183 -0.266,0.332 -0.445,0.425 -0.188,0.106 -0.41,0.153 -0.676,0.153 -0.258,0 -0.473,-0.043 -0.645,-0.133 -0.172,-0.094 -0.312,-0.227 -0.418,-0.402 -0.109,-0.172 -0.183,-0.391 -0.226,-0.653 -0.047,-0.258 -0.07,-0.551 -0.067,-0.883 -0.003,-0.304 0.02,-0.589 0.075,-0.847 0.047,-0.258 0.129,-0.481 0.242,-0.664 0.109,-0.18 0.258,-0.325 0.441,-0.426 0.184,-0.106 0.41,-0.152 0.68,-0.152 0.254,0 0.469,0.046 0.644,0.132 0.172,0.09 0.309,0.227 0.418,0.403 0.102,0.175 0.18,0.386 0.227,0.644 0.047,0.262 0.07,0.559 0.07,0.891 z m -0.55,0.039 c 0,-0.203 -0.008,-0.387 -0.024,-0.543 -0.016,-0.16 -0.039,-0.305 -0.062,-0.43 -0.032,-0.121 -0.067,-0.226 -0.11,-0.316 -0.047,-0.086 -0.101,-0.156 -0.16,-0.223 -0.066,-0.051 -0.137,-0.094 -0.215,-0.125 -0.082,-0.019 -0.172,-0.031 -0.269,-0.039 -0.18,0.008 -0.325,0.043 -0.434,0.125 -0.113,0.09 -0.199,0.203 -0.262,0.348 -0.062,0.144 -0.105,0.316 -0.129,0.515 -0.023,0.2 -0.035,0.407 -0.035,0.625 0,0.305 0.016,0.567 0.047,0.778 0.031,0.211 0.078,0.383 0.149,0.515 0.062,0.129 0.148,0.231 0.257,0.289 0.102,0.063 0.231,0.09 0.387,0.086 0.113,0.004 0.219,-0.011 0.309,-0.05 0.086,-0.036 0.16,-0.09 0.226,-0.161 0.059,-0.074 0.11,-0.156 0.157,-0.25 0.039,-0.097 0.074,-0.207 0.101,-0.328 0.024,-0.117 0.039,-0.246 0.051,-0.383 0.008,-0.14 0.016,-0.289 0.016,-0.433 z"
     id="path98" />
  <path
     inkscape:connector-curvature="0"
     style="fill:#2c2c2b;stroke:none"
     d="m 140.03523,18.80421 c -0.01,0.039 -0.01,0.07 -0.01,0.097 -0.01,0.035 -0.02,0.063 -0.02,0.078 -0.02,0.024 -0.03,0.036 -0.04,0.043 -0.02,0.004 -0.03,0.008 -0.05,0.008 l -2.23,0 c -0.03,0 -0.06,-0.004 -0.08,-0.008 -0.03,-0.007 -0.04,-0.019 -0.06,-0.039 -0.02,-0.011 -0.03,-0.039 -0.03,-0.066 -0.01,-0.031 -0.02,-0.07 -0.01,-0.117 -0.01,-0.039 -0.01,-0.075 0,-0.114 0,-0.027 0.01,-0.05 0.02,-0.082 0.01,-0.015 0.03,-0.043 0.04,-0.07 0.02,-0.019 0.04,-0.051 0.07,-0.074 l 0.8,-0.832 c 0.19,-0.192 0.34,-0.363 0.45,-0.52 0.11,-0.144 0.2,-0.285 0.26,-0.414 0.06,-0.121 0.1,-0.23 0.12,-0.34 0.02,-0.097 0.03,-0.199 0.03,-0.289 0,-0.086 -0.02,-0.168 -0.04,-0.254 -0.04,-0.078 -0.08,-0.144 -0.13,-0.207 -0.06,-0.058 -0.14,-0.113 -0.22,-0.144 -0.09,-0.035 -0.19,-0.055 -0.29,-0.059 -0.14,0.004 -0.25,0.024 -0.36,0.059 -0.1,0.031 -0.19,0.07 -0.27,0.109 -0.08,0.043 -0.15,0.082 -0.2,0.117 -0.05,0.043 -0.09,0.063 -0.12,0.055 -0.01,0.008 -0.02,0 -0.03,-0.012 -0.02,-0.004 -0.03,-0.019 -0.04,-0.043 0,-0.011 -0.01,-0.039 -0.01,-0.074 -0.01,-0.023 -0.01,-0.062 -0.01,-0.109 0,-0.028 0,-0.059 0,-0.082 0,-0.024 0.01,-0.039 0.02,-0.063 0,-0.008 0,-0.023 0.02,-0.047 0,-0.007 0.02,-0.031 0.05,-0.05 0.02,-0.024 0.06,-0.047 0.12,-0.086 0.07,-0.035 0.14,-0.075 0.24,-0.114 0.09,-0.039 0.19,-0.062 0.3,-0.089 0.11,-0.028 0.23,-0.039 0.36,-0.039 0.19,0 0.36,0.027 0.51,0.082 0.14,0.05 0.27,0.132 0.36,0.222 0.1,0.106 0.17,0.211 0.22,0.336 0.05,0.125 0.07,0.266 0.07,0.406 0,0.129 -0.01,0.258 -0.03,0.383 -0.03,0.137 -0.08,0.274 -0.15,0.418 -0.07,0.153 -0.18,0.32 -0.32,0.496 -0.14,0.192 -0.32,0.399 -0.55,0.629 l -0.64,0.668 1.76,0 c 0.01,0 0.03,0.012 0.04,0.02 0.02,0.011 0.03,0.019 0.04,0.043 0.01,0.015 0.02,0.043 0.03,0.07 0,0.023 0,0.062 0.01,0.098 z m 3.38,-1.801 c 0,0.308 -0.02,0.597 -0.07,0.851 -0.06,0.254 -0.14,0.477 -0.25,0.661 -0.11,0.183 -0.26,0.332 -0.44,0.425 -0.19,0.106 -0.41,0.153 -0.68,0.153 -0.25,0 -0.47,-0.043 -0.64,-0.133 -0.17,-0.094 -0.31,-0.227 -0.42,-0.402 -0.11,-0.172 -0.18,-0.391 -0.23,-0.653 -0.04,-0.258 -0.07,-0.551 -0.06,-0.883 -0.01,-0.304 0.02,-0.589 0.07,-0.847 0.05,-0.258 0.13,-0.481 0.24,-0.664 0.11,-0.18 0.26,-0.325 0.45,-0.426 0.18,-0.106 0.4,-0.152 0.68,-0.152 0.25,0 0.46,0.046 0.64,0.132 0.17,0.09 0.31,0.227 0.42,0.403 0.1,0.175 0.18,0.386 0.22,0.644 0.05,0.262 0.07,0.559 0.07,0.891 z m -0.55,0.039 c 0,-0.203 0,-0.387 -0.02,-0.543 -0.02,-0.16 -0.04,-0.305 -0.06,-0.43 -0.03,-0.121 -0.07,-0.226 -0.11,-0.316 -0.05,-0.086 -0.1,-0.156 -0.16,-0.223 -0.07,-0.051 -0.14,-0.094 -0.22,-0.125 -0.08,-0.019 -0.17,-0.031 -0.27,-0.039 -0.18,0.008 -0.32,0.043 -0.43,0.125 -0.11,0.09 -0.2,0.203 -0.26,0.348 -0.06,0.144 -0.11,0.316 -0.13,0.515 -0.02,0.2 -0.04,0.407 -0.04,0.625 0,0.305 0.02,0.567 0.05,0.778 0.03,0.211 0.08,0.383 0.15,0.515 0.06,0.129 0.15,0.231 0.26,0.289 0.1,0.063 0.23,0.09 0.38,0.086 0.12,0.004 0.22,-0.011 0.31,-0.05 0.09,-0.036 0.16,-0.09 0.23,-0.161 0.06,-0.074 0.11,-0.156 0.16,-0.25 0.03,-0.097 0.07,-0.207 0.1,-0.328 0.02,-0.117 0.04,-0.246 0.05,-0.383 0.01,-0.14 0.01,-0.289 0.01,-0.433 z m 3.8,-0.039 c 0,0.308 -0.02,0.597 -0.07,0.851 -0.06,0.254 -0.14,0.477 -0.25,0.661 -0.11,0.183 -0.26,0.332 -0.44,0.425 -0.19,0.106 -0.41,0.153 -0.68,0.153 -0.25,0 -0.47,-0.043 -0.64,-0.133 -0.17,-0.094 -0.31,-0.227 -0.42,-0.402 -0.11,-0.172 -0.18,-0.391 -0.23,-0.653 -0.04,-0.258 -0.07,-0.551 -0.06,-0.883 -0.01,-0.304 0.02,-0.589 0.07,-0.847 0.05,-0.258 0.13,-0.481 0.24,-0.664 0.11,-0.18 0.26,-0.325 0.44,-0.426 0.19,-0.106 0.42,-0.152 0.68,-0.152 0.26,0 0.47,0.046 0.65,0.132 0.17,0.09 0.31,0.227 0.42,0.403 0.1,0.175 0.18,0.386 0.22,0.644 0.05,0.262 0.07,0.559 0.07,0.891 z m -0.55,0.039 c 0,-0.203 0,-0.387 -0.02,-0.543 -0.02,-0.16 -0.04,-0.305 -0.06,-0.43 -0.03,-0.121 -0.07,-0.226 -0.11,-0.316 -0.05,-0.086 -0.1,-0.156 -0.16,-0.223 -0.07,-0.051 -0.14,-0.094 -0.22,-0.125 -0.08,-0.019 -0.17,-0.031 -0.27,-0.039 -0.18,0.008 -0.32,0.043 -0.43,0.125 -0.11,0.09 -0.2,0.203 -0.26,0.348 -0.06,0.144 -0.11,0.316 -0.13,0.515 -0.02,0.2 -0.04,0.407 -0.04,0.625 0,0.305 0.02,0.567 0.05,0.778 0.03,0.211 0.08,0.383 0.15,0.515 0.06,0.129 0.15,0.231 0.26,0.289 0.1,0.063 0.23,0.09 0.38,0.086 0.12,0.004 0.22,-0.011 0.31,-0.05 0.09,-0.036 0.16,-0.09 0.23,-0.161 0.06,-0.074 0.11,-0.156 0.15,-0.25 0.04,-0.097 0.08,-0.207 0.11,-0.328 0.02,-0.117 0.04,-0.246 0.05,-0.383 0.01,-0.14 0.01,-0.289 0.01,-0.433 z"
     id="path100" />
  <path
     inkscape:connector-curvature="0"
     style="fill:none;stroke:#000000;stroke-width:1.13385844;stroke-miterlimit:4;stroke-dasharray:none;stroke-opacity:1"
     d="m 159.02523,37.83921 12.03,12.023 m 0,-12.023 -12.03,12.023 m 12.03,0 c -3.32,3.324 -8.71,3.324 -12.03,0 -3.32,-3.32 -3.32,-8.703 0,-12.023 3.32,-3.324 8.71,-3.324 12.03,0 3.32,3.32 3.32,8.703 0,12.023 z"
     id="path102" />
</svg>
