<?xml version="1.0" encoding="UTF-8" standalone="no"?>
<svg
   xmlns:dc="http://purl.org/dc/elements/1.1/"
   xmlns:cc="http://creativecommons.org/ns#"
   xmlns:rdf="http://www.w3.org/1999/02/22-rdf-syntax-ns#"
   xmlns:svg="http://www.w3.org/2000/svg"
   xmlns="http://www.w3.org/2000/svg"
   xmlns:sodipodi="http://sodipodi.sourceforge.net/DTD/sodipodi-0.dtd"
   xmlns:inkscape="http://www.inkscape.org/namespaces/inkscape"
   id="svg2"
   height="76"
   width="210"
   version="1.1"
   inkscape:version="0.91 r13725"
   sodipodi:docname="hlsbm.svg">
  <defs
     id="defs63" />
  <sodipodi:namedview
     pagecolor="#ffffff"
     bordercolor="#666666"
     borderopacity="1"
     objecttolerance="10"
     gridtolerance="10"
     guidetolerance="10"
     inkscape:pageopacity="0"
     inkscape:pageshadow="2"
     inkscape:window-width="1280"
     inkscape:window-height="737"
     id="namedview61"
     showgrid="false"
     inkscape:zoom="1.5666667"
     inkscape:cx="105"
     inkscape:cy="38"
     inkscape:window-x="0"
     inkscape:window-y="30"
     inkscape:window-maximized="1"
     inkscape:current-layer="svg2" />
  <metadata
     id="metadata110">
    <rdf:RDF>
      <cc:Work
         rdf:about="">
        <dc:format>image/svg+xml</dc:format>
        <dc:type
           rdf:resource="http://purl.org/dc/dcmitype/StillImage" />
        <dc:title />
      </cc:Work>
    </rdf:RDF>
  </metadata>
  <g
     id="g4"
     fill="none">
    <g
       id="g6"
       stroke-width=".5666"
       stroke="#000">
      <path
         id="path4"
         d="m19.844 13.376v14.175" />
      <path
         id="path6"
         d="m76.535 13.376v14.175" />
      <path
         id="path8"
         d="m48.188 17.63v9.921" />
      <path
         id="path10"
         d="m25.512 21.88v5.671" />
      <path
         id="path12"
         d="m31.18 21.88v5.671" />
      <path
         id="path14"
         d="m36.852 21.88v5.671" />
      <path
         id="path16"
         d="m42.52 21.88v5.671" />
      <path
         id="path18"
         d="m53.86 21.88v5.671" />
      <path
         id="path20"
         d="m59.527 21.88v5.671" />
      <path
         id="path22"
         d="m65.195 21.88v5.671" />
      <path
         id="path24"
         d="m70.867 21.88v5.671" />
      <path
         id="path26"
         d="m133.23 13.376v14.175" />
      <path
         id="path28"
         d="m104.88 17.63v9.921" />
      <path
         id="path30"
         d="m82.203 21.88v5.671" />
      <path
         id="path32"
         d="m87.875 21.88v5.671" />
      <path
         id="path34"
         d="m93.543 21.88v5.671" />
      <path
         id="path36"
         d="m99.211 21.88v5.671" />
      <path
         id="path38"
         d="m110.55 21.88v5.671" />
      <path
         id="path40"
         d="m116.22 21.88v5.671" />
      <path
         id="path42"
         d="m121.89 21.88v5.671" />
      <path
         id="path44"
         d="m127.56 21.88v5.671" />
      <path
         id="path46"
         d="m189.92 13.376v14.175" />
      <path
         id="path48"
         d="m161.57 17.63v9.921" />
      <path
         id="path50"
         d="m138.9 21.88v5.671" />
      <path
         id="path52"
         d="m144.57 21.88v5.671" />
      <path
         id="path54"
         d="m150.23 21.88v5.671" />
      <path
         id="path56"
         d="m155.91 21.88v5.671" />
      <path
         id="path58"
         d="m167.24 21.88v5.671" />
      <path
         id="path60"
         d="m172.91 21.88v5.671" />
      <path
         id="path62"
         d="m178.58 21.88v5.671" />
      <path
         id="path64"
         d="m184.25 21.88v5.671" />
      <path
         id="path66"
         d="m127.56 27.551v8.504m-5.39-8.504v5.668m-5.38-5.668v8.504m-5.39-8.504v5.668m-5.38-5.668v8.504m-5.39-8.504v5.668m-5.388-5.668v8.504m-5.382-8.504v5.668m-5.387-5.668v8.504m-5.387-8.504v5.668m-5.387-5.668v8.504m-5.382-8.504v5.668m-5.387-5.668v8.504m-5.387-8.504v5.668m-5.387-5.668v8.504m-5.382-8.504v5.668m-5.387-5.668v8.504m-5.387-8.504v5.668m-5.387-5.668v8.504m-5.386-8.504v5.668m-5.383-5.668v8.504" />
    </g>
    <path
       id="path68"
       d="m133.23 27.551v31.629zm62.36 30.383l-181.42 3.629 0.002-34.012h181.42v30.383z"
       stroke-width=".5"
       stroke="#f00" />
  </g>
  <g
     id="g41"
     fill-rule="evenodd">
    <path
       id="path70"
       d="m33.692 52.059c0 0.145-0.516 0.848-1.547 2.117-1.035 1.274-1.547 2-1.539 2.192l-0.457-0.059c-0.004-0.144 0.511-0.847 1.543-2.105 1.031-1.262 1.543-1.988 1.543-2.195l0.457 0.05zm-2.672 2.231l-0.426 0.008c0.004-0.344 0.004-0.676 0-0.997-0.008-0.214-0.016-0.421-0.027-0.625l-0.622 0.333-0.089-0.211 0.867-0.606 0.254-0.008c-0.008 0.297-0.008 0.668 0.008 1.11 0 0.312 0.011 0.644 0.035 0.996zm2.945 1.554l-0.035 0.321-1.262 0.023 0.027-0.281c0.102-0.07 0.2-0.152 0.29-0.242 0.085-0.086 0.164-0.18 0.234-0.274 0.074-0.101 0.133-0.211 0.176-0.324 0.035-0.105 0.054-0.215 0.054-0.316-0.007-0.27-0.168-0.399-0.48-0.395-0.074 0.004-0.18 0.024-0.313 0.051l0.028-0.309c0.051-0.011 0.113-0.031 0.183-0.039 0.067-0.004 0.141-0.008 0.227-0.011 0.234-0.004 0.422 0.05 0.558 0.168 0.129 0.121 0.196 0.269 0.2 0.449 0.004 0.23-0.063 0.445-0.203 0.648-0.141 0.203-0.321 0.387-0.532 0.539v0.032c0.133 0 0.278-0.004 0.43-0.012 0.145-0.004 0.285-0.02 0.418-0.028zm2.906 0.262l-0.601 0.016c0.019-0.688 0.023-1.461 0.011-2.332-0.019-0.836-0.062-1.528-0.132-2.067l0.632-0.043c-0.031 0.571-0.039 1.27-0.015 2.094 0.011 0.863 0.047 1.641 0.105 2.332zm3.203-0.058l-0.488 0.027c-0.031-0.102-0.043-0.195-0.043-0.289h-0.031c-0.254 0.234-0.602 0.355-1.039 0.371-0.242 0-0.449-0.063-0.625-0.195-0.176-0.137-0.266-0.336-0.27-0.602-0.011-0.316 0.117-0.574 0.387-0.777 0.266-0.196 0.766-0.313 1.504-0.34 0-0.051 0.004-0.106 0.008-0.176-0.008-0.254-0.078-0.422-0.215-0.508-0.141-0.078-0.352-0.117-0.625-0.117-0.328 0.016-0.649 0.063-0.961 0.145l0.043-0.43c0.308-0.098 0.668-0.145 1.078-0.156 0.367-0.004 0.652 0.062 0.859 0.211 0.204 0.148 0.313 0.41 0.321 0.773 0 0.106-0.004 0.281-0.004 0.535-0.008 0.262-0.008 0.43-0.004 0.516 0.004 0.383 0.039 0.723 0.105 1.012zm-0.562-0.594c-0.02-0.317-0.031-0.606-0.035-0.856-0.395 0.008-0.692 0.043-0.891 0.106-0.34 0.109-0.508 0.312-0.5 0.605 0 0.289 0.203 0.422 0.609 0.414 0.34-0.004 0.614-0.093 0.817-0.269zm3.32-0.313c0.012 0.614-0.371 0.918-1.148 0.938-0.344 0.004-0.664-0.024-0.961-0.082l0.086-0.461c0.269 0.101 0.562 0.144 0.883 0.137 0.453-0.004 0.679-0.137 0.675-0.403-0.004-0.121-0.058-0.215-0.16-0.293-0.105-0.066-0.273-0.148-0.504-0.242-0.304-0.105-0.519-0.215-0.652-0.32-0.199-0.153-0.301-0.348-0.305-0.574-0.008-0.239 0.074-0.446 0.254-0.618 0.172-0.172 0.445-0.261 0.817-0.269 0.355-0.004 0.644 0.019 0.863 0.066l-0.086 0.453c-0.231-0.082-0.492-0.121-0.785-0.117-0.403 0.016-0.598 0.129-0.594 0.363 0 0.118 0.047 0.211 0.141 0.278 0.089 0.07 0.265 0.152 0.531 0.25 0.281 0.105 0.492 0.215 0.633 0.308 0.199 0.168 0.304 0.364 0.312 0.586zm3.246-1.05c0 0.089 0 0.214-0.004 0.363l-2.148 0.082c0.027 0.305 0.148 0.555 0.371 0.758 0.215 0.203 0.504 0.3 0.859 0.289 0.313-0.004 0.606-0.047 0.887-0.133l-0.043 0.437c-0.203 0.086-0.5 0.129-0.883 0.137-0.547 0.012-0.961-0.125-1.25-0.414-0.289-0.285-0.437-0.644-0.445-1.07-0.012-0.453 0.109-0.852 0.363-1.188 0.25-0.332 0.594-0.504 1.035-0.508 0.403-0.007 0.711 0.106 0.926 0.336 0.211 0.239 0.321 0.543 0.332 0.911zm-0.519 0.015c-0.016-0.586-0.266-0.871-0.754-0.859-0.5 0.012-0.789 0.316-0.867 0.929l1.621-0.07zm3.109-1.207l-0.129 0.5c-0.164-0.051-0.316-0.086-0.453-0.086-0.394 0.012-0.644 0.199-0.754 0.574 0.02 0.961 0.039 1.633 0.059 2.008l-0.551 0.016c0.02-0.656 0.023-1.176 0.02-1.539-0.016-0.492-0.075-0.961-0.176-1.414l0.543-0.09c0.043 0.23 0.066 0.383 0.07 0.457h0.023c0.219-0.332 0.477-0.508 0.778-0.516 0.156 0 0.347 0.035 0.57 0.09zm2.414 2.074c0.012 0.614-0.371 0.918-1.148 0.938-0.344 0.004-0.664-0.024-0.961-0.082l0.086-0.461c0.269 0.101 0.562 0.144 0.883 0.137 0.453-0.004 0.679-0.137 0.675-0.403-0.004-0.121-0.058-0.215-0.16-0.293-0.105-0.066-0.273-0.148-0.504-0.242-0.304-0.105-0.519-0.215-0.652-0.32-0.199-0.153-0.301-0.348-0.305-0.574-0.008-0.239 0.074-0.446 0.254-0.618 0.172-0.171 0.445-0.261 0.817-0.269 0.355-0.004 0.644 0.019 0.863 0.066l-0.086 0.453c-0.231-0.082-0.492-0.121-0.785-0.117-0.403 0.016-0.598 0.129-0.594 0.363 0 0.118 0.047 0.211 0.141 0.278 0.089 0.07 0.265 0.152 0.531 0.25 0.281 0.105 0.492 0.215 0.633 0.308 0.199 0.168 0.304 0.364 0.312 0.586zm3.367 0.786l-0.57 0.007c0.035-0.543 0.047-1.136 0.035-1.793-0.012-0.312-0.082-0.535-0.211-0.648-0.133-0.117-0.32-0.176-0.558-0.168-0.301 0.008-0.571 0.117-0.813 0.34 0.012 0.711 0.031 1.476 0.059 2.304l-0.571 0.008c0.02-0.703 0.028-1.215 0.024-1.539-0.016-0.48-0.07-0.953-0.164-1.414l0.547-0.09 0.066 0.379h0.027c0.301-0.285 0.629-0.426 0.981-0.433 0.344-0.004 0.613 0.062 0.809 0.214 0.191 0.149 0.289 0.418 0.3 0.805-0.004 0.039-0.004 0.117-0.004 0.238-0.004 0.118-0.004 0.196 0 0.235 0.004 0.351 0.02 0.871 0.043 1.555zm3.34-1.907c0 0.098 0 0.215-0.004 0.367l-2.148 0.082c0.027 0.301 0.148 0.551 0.371 0.754 0.215 0.207 0.504 0.301 0.859 0.293 0.313-0.004 0.606-0.047 0.887-0.132l-0.043 0.441c-0.203 0.086-0.5 0.129-0.883 0.137-0.547 0.007-0.961-0.125-1.25-0.414s-0.437-0.653-0.445-1.075c-0.012-0.457 0.109-0.847 0.363-1.183 0.25-0.332 0.594-0.504 1.035-0.516 0.403-0.008 0.711 0.11 0.926 0.344 0.211 0.23 0.32 0.535 0.332 0.902zm-0.519 0.024c-0.016-0.586-0.266-0.871-0.754-0.864-0.5 0.008-0.789 0.321-0.867 0.926l1.621-0.062zm3.972 1.742l-0.465 0.023c-0.019-0.086-0.031-0.179-0.031-0.285h-0.035c-0.219 0.242-0.539 0.367-0.965 0.375-0.398 0.004-0.719-0.129-0.957-0.406-0.242-0.281-0.363-0.633-0.371-1.035-0.008-0.457 0.113-0.86 0.367-1.196 0.25-0.335 0.614-0.507 1.09-0.527 0.336-0.004 0.578 0.063 0.731 0.195h0.023c-0.016-0.511-0.039-1.019-0.074-1.519l0.594-0.035c-0.032 0.527-0.039 1.222-0.02 2.078 0.016 0.875 0.055 1.648 0.113 2.332zm-0.515-0.606c-0.016-0.644-0.047-1.269-0.09-1.875-0.176-0.128-0.387-0.195-0.637-0.195-0.351 0.016-0.613 0.137-0.785 0.367-0.172 0.242-0.254 0.539-0.242 0.891 0.004 0.316 0.09 0.586 0.262 0.797 0.167 0.219 0.402 0.316 0.699 0.308 0.363-0.004 0.629-0.101 0.793-0.293zm3.875-1.293c0 0.09 0 0.211-0.004 0.364l-2.149 0.082c0.028 0.304 0.149 0.554 0.371 0.758 0.215 0.203 0.504 0.3 0.86 0.289 0.312-0.004 0.605-0.047 0.887-0.133l-0.043 0.437c-0.204 0.086-0.5 0.129-0.883 0.141-0.547 0.008-0.961-0.125-1.25-0.414s-0.438-0.649-0.446-1.074c-0.011-0.453 0.11-0.852 0.364-1.188 0.25-0.332 0.593-0.504 1.035-0.508 0.402-0.007 0.711 0.106 0.926 0.336 0.211 0.239 0.32 0.539 0.332 0.91zm-0.52 0.016c-0.015-0.586-0.265-0.867-0.754-0.859-0.5 0.011-0.789 0.316-0.867 0.929l1.621-0.07zm4.082 0.141c0.004 0.461-0.117 0.855-0.367 1.191-0.254 0.348-0.609 0.52-1.059 0.527-0.386 0.004-0.648-0.054-0.785-0.187h-0.023l-0.078 0.117-0.457 0.016c0.007-0.715 0.004-1.492-0.008-2.332-0.02-0.75-0.067-1.442-0.145-2.067l0.618-0.043c-0.016 0.364-0.012 0.926 0.003 1.707l0.024-0.004c0.199-0.238 0.519-0.363 0.965-0.371 0.383-0.007 0.695 0.129 0.937 0.414 0.238 0.286 0.363 0.629 0.375 1.032zm-0.554 0.086c-0.008-0.313-0.098-0.575-0.266-0.789-0.168-0.211-0.395-0.321-0.684-0.317-0.375 0.016-0.644 0.129-0.8 0.36 0.011 0.742 0.042 1.339 0.085 1.796 0.172 0.149 0.391 0.211 0.665 0.204 0.335-0.004 0.589-0.129 0.757-0.372 0.164-0.246 0.246-0.539 0.243-0.882zm3.14-1.5l-0.129 0.5c-0.164-0.055-0.316-0.086-0.453-0.086-0.394 0.008-0.644 0.199-0.754 0.574 0.02 0.961 0.039 1.633 0.059 2.008l-0.551 0.011c0.02-0.66 0.023-1.171 0.02-1.539-0.016-0.496-0.075-0.961-0.176-1.418l0.543-0.086c0.043 0.231 0.066 0.379 0.07 0.458h0.023c0.219-0.333 0.477-0.504 0.778-0.512 0.156 0 0.347 0.027 0.57 0.09zm2.973 1.074c0 0.094 0 0.215-0.004 0.359l-2.149 0.082c0.028 0.309 0.149 0.559 0.372 0.758 0.214 0.203 0.503 0.305 0.859 0.289 0.312-0.004 0.605-0.047 0.887-0.133l-0.043 0.446c-0.203 0.086-0.5 0.129-0.883 0.136-0.547 0.004-0.961-0.125-1.25-0.418-0.289-0.289-0.438-0.644-0.445-1.074-0.012-0.449 0.109-0.844 0.363-1.18 0.25-0.332 0.594-0.503 1.035-0.511 0.402-0.008 0.711 0.101 0.926 0.34 0.211 0.23 0.32 0.539 0.332 0.906zm-0.52 0.019c-0.015-0.586-0.265-0.875-0.754-0.867-0.5 0.016-0.789 0.324-0.867 0.934l1.621-0.067zm3.809-0.086c0 0.09 0 0.211-0.004 0.364l-2.148 0.082c0.027 0.304 0.148 0.554 0.371 0.758 0.214 0.203 0.504 0.3 0.859 0.289 0.312-0.004 0.605-0.047 0.887-0.133l-0.043 0.437c-0.203 0.086-0.5 0.129-0.883 0.141-0.547 0.008-0.961-0.125-1.25-0.414s-0.438-0.649-0.445-1.074c-0.012-0.453 0.109-0.852 0.363-1.188 0.25-0.332 0.594-0.504 1.035-0.508 0.402-0.007 0.711 0.106 0.926 0.336 0.211 0.239 0.32 0.539 0.332 0.91zm-0.52 0.016c-0.015-0.586-0.265-0.867-0.754-0.859-0.5 0.011-0.789 0.316-0.867 0.929l1.621-0.07zm3.973 1.746l-0.465 0.031c-0.019-0.089-0.031-0.183-0.031-0.289h-0.035c-0.219 0.246-0.539 0.368-0.965 0.375-0.399 0.004-0.719-0.125-0.957-0.41-0.242-0.277-0.363-0.629-0.371-1.031-0.008-0.457 0.113-0.856 0.367-1.195 0.25-0.336 0.613-0.508 1.09-0.528 0.336-0.004 0.578 0.063 0.73 0.196h0.024c-0.016-0.512-0.039-1.024-0.075-1.524l0.594-0.031c-0.031 0.527-0.039 1.226-0.019 2.074 0.015 0.875 0.054 1.656 0.113 2.332zm-0.516-0.601c-0.015-0.649-0.047-1.274-0.089-1.871-0.176-0.133-0.387-0.2-0.637-0.2-0.352 0.016-0.613 0.133-0.785 0.371-0.172 0.239-0.254 0.536-0.243 0.883 0.004 0.324 0.09 0.586 0.262 0.797 0.168 0.223 0.403 0.32 0.699 0.316 0.364-0.007 0.629-0.109 0.793-0.296zm3.051 0.129l-0.031 0.406c-0.164 0.058-0.32 0.09-0.465 0.097-0.379 0-0.637-0.082-0.773-0.269-0.145-0.188-0.219-0.524-0.227-1.02-0.008-0.316-0.016-0.73-0.019-1.25-0.118 0.008-0.29 0.02-0.512 0.036l0.008-0.454c0.195 0.008 0.371 0.008 0.531 0.004-0.008-0.125 0-0.422 0.015-0.886l0.489-0.067c-0.031 0.445-0.043 0.754-0.035 0.945 0.199 0 0.5-0.015 0.898-0.046l-0.012 0.464c-0.379-0.003-0.679-0.003-0.902 0 0 0.317 0.004 0.668 0.016 1.063 0.004 0.43 0.054 0.711 0.152 0.848 0.09 0.132 0.262 0.203 0.508 0.199 0.078 0 0.195-0.024 0.359-0.07zm3.121-1.469c0 0.094 0 0.215-0.004 0.359l-2.148 0.082c0.027 0.309 0.148 0.559 0.371 0.762 0.215 0.199 0.504 0.301 0.859 0.289 0.313-0.008 0.606-0.051 0.887-0.137l-0.043 0.446c-0.203 0.085-0.5 0.128-0.883 0.132-0.547 0.008-0.961-0.125-1.25-0.414s-0.437-0.644-0.445-1.074c-0.012-0.449 0.109-0.848 0.363-1.18 0.25-0.332 0.594-0.504 1.035-0.511 0.403-0.008 0.711 0.101 0.926 0.34 0.211 0.234 0.321 0.539 0.332 0.906zm-0.519 0.015c-0.016-0.582-0.266-0.871-0.754-0.863-0.5 0.016-0.789 0.32-0.867 0.934l1.621-0.071zm5.168-0.082c-0.008-0.332-0.071-0.547-0.188-0.66-0.117-0.097-0.308-0.148-0.574-0.148-0.223 0.008-0.453 0.121-0.684 0.344-0.007 0.253-0.004 0.503 0.004 0.746 0.008 0.347 0.024 0.867 0.051 1.55l-0.57 0.012c0.031-0.594 0.043-1.191 0.031-1.805-0.008-0.332-0.07-0.55-0.188-0.66-0.121-0.101-0.304-0.152-0.554-0.148-0.262 0.008-0.504 0.121-0.727 0.344 0.012 0.66 0.031 1.425 0.059 2.3l-0.567 0.008c0.024-0.699 0.036-1.219 0.028-1.539-0.012-0.476-0.071-0.945-0.168-1.41l0.547-0.094 0.066 0.375h0.031c0.258-0.273 0.559-0.422 0.895-0.429 0.492-0.008 0.812 0.125 0.961 0.398h0.031c0.305-0.281 0.613-0.43 0.926-0.438 0.344 0 0.609 0.071 0.797 0.215 0.179 0.153 0.277 0.418 0.285 0.813 0 0.039-0.004 0.113-0.004 0.23-0.004 0.121-0.004 0.199 0 0.239 0.004 0.347 0.019 0.871 0.043 1.55l-0.566 0.016c0.035-0.547 0.046-1.145 0.035-1.809zm3.875-0.105c0 0.094 0 0.215-0.004 0.359l-2.149 0.082c0.028 0.309 0.149 0.559 0.371 0.758 0.215 0.203 0.504 0.305 0.86 0.289 0.312-0.004 0.605-0.047 0.887-0.133l-0.043 0.446c-0.204 0.086-0.5 0.129-0.883 0.136-0.547 0.004-0.961-0.125-1.25-0.418-0.289-0.289-0.438-0.644-0.446-1.074-0.011-0.453 0.11-0.844 0.364-1.179 0.25-0.333 0.593-0.504 1.035-0.512 0.402-0.012 0.711 0.101 0.926 0.34 0.211 0.23 0.32 0.539 0.332 0.906zm-0.52 0.019c-0.015-0.586-0.265-0.875-0.754-0.867-0.5 0.016-0.789 0.324-0.867 0.934l1.621-0.067zm2.985 1.336l-0.032 0.407c-0.164 0.058-0.32 0.089-0.465 0.093-0.378 0.004-0.636-0.082-0.773-0.265-0.145-0.188-0.219-0.528-0.227-1.024-0.007-0.312-0.015-0.726-0.019-1.246-0.117 0.012-0.289 0.02-0.512 0.035l0.008-0.457c0.195 0.016 0.371 0.016 0.531 0.008-0.008-0.125 0-0.422 0.016-0.887l0.488-0.062c-0.031 0.437-0.043 0.754-0.035 0.937 0.199 0 0.5-0.011 0.898-0.043l-0.011 0.461h-0.903c0 0.321 0.004 0.672 0.016 1.067 0.004 0.429 0.055 0.711 0.152 0.847 0.09 0.133 0.262 0.204 0.508 0.2 0.078 0 0.195-0.028 0.36-0.071zm3.12-1.464v0.363l-2.152 0.082c0.028 0.305 0.149 0.555 0.371 0.758 0.215 0.203 0.504 0.3 0.86 0.289 0.312-0.004 0.605-0.047 0.881-0.133l-0.04 0.437c-0.201 0.086-0.498 0.129-0.88 0.137-0.547 0.012-0.961-0.125-1.25-0.41-0.289-0.289-0.438-0.648-0.446-1.074-0.011-0.453 0.11-0.852 0.364-1.188 0.25-0.332 0.593-0.504 1.035-0.508 0.402-0.007 0.711 0.106 0.926 0.336 0.211 0.239 0.321 0.539 0.331 0.911zm-0.519 0.015c-0.016-0.586-0.266-0.867-0.754-0.859-0.5 0.011-0.789 0.316-0.867 0.929l1.621-0.07zm3.109-1.207l-0.13 0.5c-0.17-0.055-0.32-0.086-0.45-0.086-0.4 0.012-0.65 0.199-0.76 0.574 0.02 0.961 0.04 1.633 0.06 2.008l-0.55 0.016c0.02-0.656 0.02-1.172 0.02-1.539-0.02-0.492-0.08-0.961-0.18-1.414l0.55-0.09c0.04 0.226 0.06 0.383 0.06 0.457h0.03c0.22-0.332 0.48-0.508 0.78-0.516 0.15 0 0.34 0.035 0.57 0.09zm3.48 4.156l-0.22 0.27c-0.31-0.141-0.58-0.324-0.79-0.563-0.54-0.582-0.81-1.379-0.83-2.394-0.03-1.098 0.22-1.977 0.74-2.649 0.22-0.269 0.48-0.496 0.79-0.664l0.16 0.258c-0.24 0.199-0.44 0.434-0.6 0.695-0.4 0.641-0.6 1.422-0.57 2.344 0.01 0.793 0.23 1.485 0.67 2.067 0.09 0.125 0.19 0.238 0.3 0.343 0.1 0.102 0.22 0.2 0.35 0.293z" />
    <path
       id="path72"
       d="m110.15 54.212l-0.03 0.418c-0.15 0.054-0.3 0.086-0.44 0.089-0.3 0.004-0.49-0.121-0.58-0.371h-0.04c-0.26 0.258-0.52 0.387-0.8 0.399-0.41 0.004-0.69-0.113-0.84-0.363h-0.03c0.01 0.699 0.15 1.226 0.41 1.593l-0.49 0.246c-0.16-0.226-0.24-0.472-0.24-0.746 0-0.125 0-0.367 0.02-0.722 0.01-0.364 0.02-0.653 0.01-0.875-0.01-0.782-0.07-1.504-0.15-2.168l0.59-0.051c-0.02 0.277-0.03 0.644-0.02 1.09 0.01 0.609 0.07 1.023 0.19 1.246 0.11 0.222 0.31 0.328 0.61 0.316 0.3-0.004 0.54-0.125 0.72-0.371-0.03-1.082-0.06-1.832-0.11-2.25l0.61-0.074c-0.04 0.547-0.06 1.058-0.04 1.531 0 0.481 0.03 0.793 0.1 0.949 0.05 0.125 0.13 0.184 0.25 0.176 0.09 0.008 0.19-0.015 0.3-0.062z" />
    <path
       id="path74"
       d="m114.56 52.747c-0.01-0.328-0.08-0.547-0.19-0.656-0.12-0.106-0.31-0.157-0.58-0.157-0.22 0.008-0.45 0.121-0.68 0.348-0.01 0.254 0 0.504 0 0.742 0.01 0.356 0.03 0.867 0.05 1.559l-0.57 0.011c0.03-0.593 0.05-1.199 0.03-1.808 0-0.332-0.07-0.555-0.18-0.656-0.12-0.11-0.31-0.157-0.56-0.157-0.26 0.008-0.5 0.125-0.72 0.344 0.01 0.66 0.03 1.434 0.05 2.305l-0.56 0.012c0.02-0.704 0.03-1.219 0.03-1.54-0.02-0.484-0.07-0.953-0.17-1.414l0.55-0.089 0.06 0.375h0.03c0.26-0.282 0.56-0.422 0.9-0.434 0.49-0.012 0.81 0.125 0.96 0.398h0.03c0.3-0.285 0.61-0.425 0.93-0.437 0.34 0 0.6 0.066 0.79 0.219 0.18 0.144 0.28 0.418 0.29 0.804 0 0.039-0.01 0.121-0.01 0.239v0.23c0.01 0.356 0.02 0.871 0.05 1.559l-0.57 0.011c0.04-0.543 0.05-1.144 0.04-1.808zm2.93-0.02c0.01 1.102-0.23 1.981-0.75 2.649-0.22 0.269-0.48 0.496-0.78 0.668l-0.17-0.262c0.24-0.195 0.44-0.43 0.61-0.688 0.4-0.652 0.59-1.429 0.57-2.351-0.02-0.793-0.24-1.481-0.67-2.063-0.19-0.246-0.41-0.457-0.66-0.636l0.22-0.274c0.31 0.141 0.57 0.328 0.8 0.567 0.53 0.582 0.8 1.379 0.83 2.39z" />
    <path
       id="path76"
       d="m21.242 41.716c0 0.308-0.027 0.593-0.074 0.847-0.055 0.262-0.137 0.481-0.246 0.66-0.117 0.192-0.266 0.332-0.445 0.434-0.188 0.102-0.41 0.148-0.676 0.148-0.258 0-0.473-0.043-0.645-0.132-0.171-0.09-0.312-0.223-0.418-0.407-0.109-0.168-0.183-0.386-0.226-0.644-0.047-0.262-0.07-0.555-0.067-0.891-0.003-0.301 0.02-0.59 0.075-0.844 0.047-0.257 0.129-0.476 0.242-0.664 0.109-0.179 0.258-0.328 0.441-0.425 0.184-0.106 0.41-0.157 0.68-0.157 0.254 0 0.469 0.047 0.644 0.141 0.172 0.09 0.309 0.223 0.418 0.398 0.102 0.172 0.18 0.387 0.227 0.649 0.047 0.258 0.07 0.555 0.07 0.887zm-0.55 0.039c0-0.204-0.008-0.383-0.024-0.543-0.016-0.161-0.039-0.301-0.062-0.426-0.032-0.121-0.067-0.231-0.11-0.32-0.047-0.086-0.101-0.161-0.16-0.219-0.066-0.059-0.137-0.102-0.215-0.125-0.082-0.024-0.172-0.035-0.269-0.039-0.18 0.004-0.325 0.043-0.434 0.125-0.113 0.086-0.199 0.203-0.262 0.343-0.062 0.149-0.105 0.321-0.129 0.512-0.023 0.199-0.035 0.41-0.035 0.629 0 0.309 0.016 0.567 0.047 0.777 0.031 0.211 0.078 0.379 0.149 0.512 0.062 0.137 0.148 0.235 0.257 0.289 0.102 0.067 0.231 0.098 0.387 0.09 0.113 0.008 0.219-0.012 0.309-0.055 0.086-0.035 0.16-0.086 0.226-0.16 0.059-0.066 0.11-0.148 0.157-0.25 0.039-0.094 0.074-0.207 0.101-0.32 0.024-0.117 0.039-0.246 0.051-0.391 0.008-0.136 0.016-0.285 0.016-0.429z" />
    <path
       id="path78"
       d="m31.891 43.536c-0.004 0.039-0.008 0.07-0.012 0.101-0.008 0.028-0.016 0.043-0.023 0.063-0.012 0.016-0.024 0.023-0.039 0.031-0.016 0.012-0.032 0.016-0.04 0.016h-2.113c-0.019 0-0.035-0.004-0.043-0.016-0.015-0.008-0.027-0.015-0.035-0.031-0.016-0.02-0.023-0.035-0.027-0.063-0.008-0.031-0.012-0.062-0.008-0.101-0.004-0.039 0-0.07 0.008-0.102 0.004-0.023 0.011-0.047 0.023-0.062 0.008-0.02 0.02-0.028 0.035-0.039 0.012-0.008 0.028-0.016 0.047-0.02h0.844v-3.078l-0.781 0.473c-0.043 0.019-0.075 0.035-0.098 0.039-0.027 0.004-0.047 0-0.059-0.02-0.015-0.008-0.023-0.035-0.027-0.066-0.008-0.027-0.012-0.067-0.008-0.117-0.004-0.035-0.004-0.071 0.004-0.09 0-0.024 0.008-0.043 0.016-0.067 0.004-0.011 0.012-0.031 0.023-0.039 0.012-0.011 0.028-0.023 0.047-0.043l0.934-0.593c0.004-0.004 0.015-0.008 0.031-0.012 0.012-0.008 0.027-0.012 0.047-0.02 0.015 0 0.035 0 0.062-0.004 0.024 0.004 0.059 0.004 0.098 0 0.047 0.004 0.086 0.004 0.121 0.004 0.031 0.008 0.059 0.012 0.078 0.02 0.02 0.008 0.031 0.016 0.039 0.023l0.012 0.039v3.551h0.73c0.012 0.004 0.028 0.012 0.043 0.02 0.012 0.011 0.024 0.019 0.04 0.039 0.007 0.015 0.015 0.039 0.023 0.062 0 0.032 0.004 0.063 0.008 0.102z" />
    <path
       id="path80"
       d="m42.649 43.512c-0.004 0.043-0.008 0.075-0.008 0.106-0.008 0.027-0.016 0.058-0.024 0.07-0.011 0.028-0.023 0.035-0.035 0.043-0.019 0.012-0.035 0.016-0.051 0.016h-2.234c-0.031 0-0.055-0.004-0.078-0.016-0.024-0.008-0.043-0.015-0.055-0.031-0.019-0.02-0.031-0.039-0.035-0.07-0.012-0.032-0.016-0.075-0.012-0.118-0.004-0.039-0.004-0.078 0.004-0.113 0-0.023 0.008-0.051 0.024-0.082 0.007-0.016 0.023-0.043 0.039-0.066 0.015-0.028 0.035-0.051 0.062-0.078l0.809-0.832c0.183-0.196 0.332-0.368 0.449-0.516 0.109-0.149 0.195-0.285 0.258-0.414 0.058-0.121 0.101-0.235 0.121-0.344 0.019-0.098 0.027-0.195 0.031-0.285-0.004-0.094-0.019-0.176-0.047-0.258-0.031-0.074-0.074-0.144-0.129-0.211-0.062-0.054-0.132-0.105-0.214-0.14-0.09-0.036-0.188-0.051-0.297-0.055-0.133 0.004-0.25 0.019-0.352 0.055-0.105 0.035-0.199 0.074-0.273 0.113-0.082 0.043-0.149 0.082-0.2 0.113-0.054 0.039-0.093 0.063-0.117 0.059-0.015 0.004-0.027 0-0.039-0.016-0.015-0.008-0.027-0.019-0.031-0.043-0.008-0.012-0.012-0.039-0.016-0.07-0.007-0.028-0.011-0.067-0.007-0.113-0.004-0.032 0-0.055 0.003-0.082 0-0.024 0.004-0.04 0.012-0.059 0.004-0.016 0.008-0.027 0.02-0.051 0.004-0.012 0.023-0.027 0.05-0.051 0.024-0.019 0.067-0.047 0.129-0.086 0.063-0.039 0.137-0.078 0.231-0.117 0.09-0.035 0.195-0.058 0.308-0.09 0.11-0.019 0.227-0.039 0.352-0.039 0.195 0 0.363 0.032 0.512 0.082 0.144 0.059 0.269 0.133 0.367 0.231 0.094 0.101 0.164 0.211 0.215 0.336 0.047 0.125 0.07 0.261 0.074 0.398-0.004 0.137-0.016 0.266-0.035 0.391-0.028 0.133-0.074 0.269-0.145 0.418-0.074 0.144-0.179 0.312-0.32 0.496-0.141 0.187-0.328 0.394-0.555 0.629l-0.64 0.668h1.757c0.016 0 0.032 0.008 0.047 0.015 0.016 0.008 0.028 0.024 0.039 0.043 0.012 0.02 0.02 0.039 0.028 0.071 0 0.023 0.004 0.058 0.008 0.093z" />
    <path
       id="path82"
       d="m53.391 42.591c-0.004 0.183-0.035 0.351-0.098 0.503-0.066 0.153-0.16 0.278-0.277 0.379-0.125 0.11-0.274 0.192-0.446 0.246-0.179 0.055-0.378 0.086-0.601 0.086-0.137 0-0.262-0.011-0.379-0.039-0.117-0.015-0.223-0.043-0.316-0.074-0.094-0.023-0.172-0.055-0.227-0.094-0.062-0.031-0.098-0.05-0.113-0.066-0.016-0.016-0.028-0.027-0.035-0.047-0.008-0.012-0.016-0.027-0.024-0.055-0.008-0.011-0.015-0.043-0.015-0.074-0.008-0.027-0.008-0.062-0.004-0.109-0.004-0.071 0.004-0.125 0.023-0.156 0.012-0.032 0.035-0.04 0.066-0.043 0.016 0.003 0.051 0.015 0.11 0.05 0.055 0.036 0.129 0.071 0.219 0.106 0.089 0.043 0.191 0.078 0.312 0.105 0.117 0.039 0.25 0.059 0.395 0.051 0.14 0.008 0.265-0.012 0.375-0.055 0.105-0.035 0.195-0.082 0.265-0.144 0.071-0.063 0.125-0.141 0.164-0.231 0.035-0.086 0.051-0.183 0.055-0.293-0.004-0.113-0.027-0.211-0.07-0.304-0.047-0.09-0.114-0.172-0.203-0.239-0.09-0.07-0.2-0.121-0.329-0.156-0.132-0.031-0.281-0.051-0.441-0.051h-0.398c-0.024 0-0.039 0-0.051-0.011-0.02-0.004-0.035-0.02-0.043-0.035-0.016-0.012-0.024-0.036-0.028-0.067-0.011-0.023-0.015-0.058-0.011-0.105-0.004-0.035 0-0.071 0.008-0.102 0.007-0.019 0.015-0.047 0.027-0.058 0.012-0.016 0.023-0.032 0.039-0.036 0.012-0.007 0.031-0.011 0.051-0.011h0.355c0.133 0 0.254-0.02 0.367-0.051 0.106-0.035 0.2-0.086 0.278-0.152 0.074-0.071 0.133-0.149 0.176-0.243 0.039-0.086 0.058-0.191 0.062-0.308-0.004-0.082-0.016-0.16-0.043-0.239-0.027-0.078-0.07-0.14-0.121-0.203-0.055-0.05-0.121-0.097-0.207-0.129-0.086-0.035-0.184-0.046-0.293-0.05-0.121 0.004-0.234 0.019-0.332 0.05-0.106 0.043-0.195 0.082-0.27 0.122-0.082 0.046-0.144 0.085-0.195 0.117-0.055 0.039-0.094 0.054-0.109 0.054-0.02 0-0.032 0-0.043-0.007-0.012 0-0.024-0.012-0.028-0.036-0.007-0.007-0.011-0.031-0.015-0.058-0.004-0.024-0.004-0.067-0.004-0.113 0-0.032 0-0.055 0.004-0.082 0-0.024 0.004-0.04 0.012-0.067 0.003-0.012 0.011-0.027 0.023-0.047 0.004-0.008 0.016-0.027 0.039-0.047 0.016-0.019 0.059-0.047 0.121-0.086 0.063-0.039 0.137-0.078 0.227-0.117 0.086-0.035 0.187-0.058 0.304-0.09 0.114-0.019 0.239-0.039 0.375-0.039 0.184 0 0.348 0.028 0.493 0.075 0.136 0.046 0.253 0.117 0.351 0.203 0.094 0.093 0.164 0.199 0.215 0.312 0.043 0.125 0.066 0.262 0.07 0.406-0.004 0.125-0.019 0.247-0.051 0.356-0.035 0.105-0.082 0.207-0.144 0.293-0.066 0.086-0.148 0.156-0.238 0.215-0.098 0.058-0.203 0.097-0.325 0.121v0.008c0.137 0.011 0.262 0.05 0.379 0.101 0.114 0.063 0.215 0.125 0.301 0.207 0.082 0.086 0.145 0.188 0.195 0.293 0.043 0.113 0.067 0.235 0.071 0.36z" />
    <path
       id="path84"
       d="m64.363 42.598c0 0.071-0.011 0.125-0.031 0.161-0.023 0.042-0.051 0.058-0.086 0.054h-0.457v0.856c0 0.015-0.008 0.031-0.015 0.043-0.012 0.011-0.024 0.019-0.043 0.031-0.024 0.008-0.051 0.012-0.082 0.016-0.036 0.003-0.082 0.003-0.133 0.003-0.055 0-0.098 0-0.129-0.003-0.039-0.004-0.067-0.008-0.082-0.016-0.024-0.012-0.035-0.02-0.043-0.031-0.008-0.012-0.012-0.028-0.012-0.043v-0.856h-1.652c-0.028 0.004-0.051 0-0.063-0.008-0.019 0-0.035-0.007-0.047-0.031-0.015-0.012-0.023-0.043-0.027-0.07-0.008-0.031-0.012-0.07-0.008-0.121-0.004-0.039 0-0.074 0.004-0.11 0-0.031 0.004-0.058 0.012-0.086 0.008-0.027 0.016-0.046 0.027-0.078 0.008-0.015 0.02-0.043 0.035-0.074l1.442-2.453c0.008-0.02 0.023-0.031 0.047-0.047 0.019-0.012 0.047-0.016 0.078-0.027 0.031-0.008 0.07-0.02 0.117-0.024 0.047 0 0.102 0 0.168-0.004 0.066 0.004 0.125 0.004 0.18 0.008 0.047 0.012 0.089 0.02 0.125 0.024 0.031 0.011 0.054 0.019 0.074 0.035 0.015 0.015 0.027 0.027 0.027 0.047v2.582h0.457c0.031 0 0.059 0.015 0.082 0.054 0.024 0.039 0.035 0.09 0.035 0.168zm-1.113-2.441h-0.004l-1.301 2.219h1.305v-2.219z" />
    <path
       id="path86"
       d="m74.945 42.442c-0.003 0.223-0.039 0.414-0.109 0.578-0.074 0.172-0.176 0.317-0.309 0.434-0.132 0.113-0.292 0.207-0.476 0.262-0.188 0.058-0.391 0.089-0.613 0.089-0.125 0-0.246-0.011-0.356-0.031-0.117-0.015-0.215-0.031-0.301-0.058-0.089-0.028-0.164-0.051-0.218-0.079-0.059-0.027-0.094-0.043-0.106-0.058-0.019-0.016-0.031-0.024-0.035-0.039-0.008-0.008-0.012-0.028-0.016-0.047-0.007-0.02-0.011-0.039-0.011-0.067v-0.097c0-0.031 0-0.067 0.004-0.098 0-0.019 0.003-0.047 0.015-0.066 0.008-0.02 0.02-0.031 0.031-0.039 0.008-0.008 0.02-0.016 0.04-0.016 0.015 0 0.05 0.02 0.097 0.039 0.043 0.031 0.102 0.063 0.176 0.086 0.07 0.031 0.16 0.063 0.273 0.09 0.106 0.023 0.235 0.043 0.391 0.035 0.137 0.008 0.266-0.012 0.383-0.051 0.113-0.027 0.215-0.082 0.301-0.152 0.086-0.066 0.152-0.156 0.199-0.27 0.047-0.105 0.07-0.238 0.074-0.39-0.004-0.125-0.023-0.242-0.062-0.348-0.04-0.094-0.102-0.176-0.188-0.242-0.086-0.063-0.195-0.109-0.32-0.145-0.133-0.035-0.285-0.046-0.461-0.05-0.129 0.004-0.238 0.007-0.328 0.015-0.094 0.02-0.18 0.028-0.258 0.024-0.059 0.004-0.102-0.008-0.125-0.039-0.027-0.028-0.039-0.078-0.035-0.161v-1.644c-0.004-0.066 0.011-0.117 0.047-0.152 0.027-0.032 0.074-0.051 0.14-0.051h1.789c0.012 0 0.028 0.008 0.047 0.015 0.012 0.008 0.024 0.024 0.039 0.04 0.008 0.015 0.016 0.042 0.024 0.074 0 0.027 0.004 0.062 0.007 0.097-0.003 0.082-0.015 0.137-0.031 0.176-0.023 0.043-0.051 0.067-0.082 0.067h-1.445v1.132c0.066-0.007 0.137-0.011 0.215-0.015 0.07 0 0.156-0.004 0.254-0.004 0.222 0 0.418 0.023 0.586 0.082 0.164 0.055 0.3 0.133 0.414 0.23 0.109 0.106 0.195 0.231 0.254 0.371 0.054 0.149 0.082 0.301 0.085 0.473z" />
    <path
       id="path88"
       d="m85.84 42.434c-0.004 0.184-0.031 0.356-0.082 0.52-0.059 0.168-0.141 0.308-0.25 0.433-0.113 0.129-0.258 0.235-0.43 0.301-0.176 0.078-0.379 0.117-0.613 0.117-0.168 0-0.316-0.019-0.445-0.062-0.133-0.039-0.246-0.102-0.34-0.18-0.094-0.07-0.176-0.168-0.238-0.281-0.067-0.109-0.118-0.238-0.153-0.387-0.043-0.14-0.07-0.297-0.082-0.469-0.019-0.167-0.027-0.351-0.023-0.55-0.004-0.172 0.008-0.352 0.027-0.528 0.016-0.172 0.047-0.343 0.098-0.511 0.047-0.161 0.113-0.317 0.195-0.461 0.082-0.145 0.184-0.274 0.309-0.379 0.121-0.11 0.269-0.196 0.445-0.262 0.172-0.059 0.375-0.094 0.605-0.094 0.079 0 0.157 0.008 0.235 0.02 0.078 0.015 0.148 0.023 0.219 0.039 0.062 0.019 0.121 0.031 0.168 0.051 0.046 0.015 0.074 0.035 0.089 0.047 0.012 0.007 0.024 0.019 0.036 0.035 0.003 0.015 0.011 0.027 0.015 0.043 0.004 0.015 0.004 0.039 0.008 0.054 0 0.024 0.004 0.043 0.004 0.075v0.093c0 0.032-0.004 0.051-0.012 0.071-0.008 0.015-0.019 0.031-0.031 0.035-0.012 0.012-0.027 0.015-0.043 0.012-0.027 0.003-0.059-0.004-0.094-0.024-0.043-0.012-0.09-0.027-0.144-0.051-0.059-0.011-0.125-0.031-0.203-0.043-0.083-0.011-0.176-0.019-0.282-0.023-0.195 0.004-0.363 0.043-0.5 0.117-0.14 0.078-0.254 0.188-0.34 0.32-0.089 0.129-0.156 0.289-0.199 0.461-0.043 0.176-0.066 0.364-0.074 0.551 0.055-0.023 0.113-0.055 0.184-0.094 0.062-0.023 0.136-0.05 0.222-0.082 0.078-0.019 0.164-0.043 0.254-0.058 0.09-0.016 0.188-0.024 0.289-0.028 0.219 0.004 0.403 0.036 0.551 0.09 0.148 0.063 0.27 0.145 0.363 0.246 0.094 0.11 0.16 0.235 0.199 0.375 0.04 0.145 0.059 0.297 0.063 0.461zm-0.547 0.051c-0.004-0.117-0.016-0.226-0.035-0.328-0.027-0.098-0.066-0.184-0.121-0.25-0.059-0.07-0.133-0.121-0.223-0.16-0.097-0.031-0.215-0.055-0.347-0.059-0.082 0.004-0.161 0.016-0.235 0.024-0.078 0.011-0.152 0.031-0.222 0.05-0.075 0.028-0.141 0.055-0.204 0.086-0.066 0.039-0.125 0.075-0.179 0.11 0 0.269 0.015 0.496 0.05 0.676 0.032 0.175 0.083 0.324 0.149 0.429 0.066 0.113 0.148 0.192 0.246 0.238 0.098 0.047 0.211 0.071 0.344 0.071 0.129 0 0.246-0.024 0.347-0.074 0.098-0.047 0.176-0.118 0.243-0.2 0.062-0.086 0.109-0.175 0.14-0.289 0.028-0.097 0.043-0.211 0.047-0.324z" />
    <path
       id="path90"
       d="m96.567 39.93c-0.004 0.043-0.004 0.079-0.004 0.106-0.004 0.031-0.008 0.062-0.012 0.09-0.008 0.023-0.016 0.054-0.024 0.078-0.007 0.023-0.019 0.055-0.031 0.082l-1.457 3.355c-0.012 0.032-0.027 0.047-0.039 0.063-0.019 0.019-0.039 0.027-0.058 0.039-0.028 0.008-0.059 0.012-0.094 0.016-0.039 0.003-0.082 0.003-0.137 0.003-0.07 0-0.125-0.003-0.164-0.007-0.039-0.008-0.07-0.012-0.086-0.032-0.023-0.004-0.031-0.023-0.023-0.047 0-0.019 0.007-0.042 0.019-0.074l1.531-3.426h-1.937c-0.047 0.004-0.078-0.019-0.094-0.066-0.023-0.035-0.031-0.098-0.027-0.176-0.004-0.039 0-0.066 0.008-0.097 0.004-0.032 0.011-0.055 0.023-0.075 0.008-0.019 0.02-0.035 0.035-0.043 0.016-0.007 0.031-0.015 0.055-0.015h2.355c0.024 0 0.051 0.004 0.075 0.012 0.023 0.007 0.039 0.015 0.05 0.035 0.012 0.015 0.02 0.043 0.028 0.066 0 0.031 0.004 0.07 0.008 0.113z" />
    <path
       id="path92"
       d="m107.37 42.708c0 0.179-0.03 0.336-0.09 0.468-0.07 0.137-0.16 0.254-0.27 0.34-0.12 0.102-0.27 0.168-0.44 0.215-0.17 0.051-0.37 0.074-0.59 0.074-0.21 0-0.4-0.019-0.56-0.062-0.17-0.043-0.31-0.109-0.42-0.195-0.12-0.086-0.21-0.196-0.26-0.321-0.06-0.125-0.09-0.261-0.09-0.426 0-0.121 0.02-0.242 0.06-0.347 0.04-0.106 0.1-0.203 0.18-0.293 0.08-0.094 0.17-0.18 0.29-0.254 0.11-0.078 0.24-0.152 0.39-0.227-0.13-0.058-0.24-0.125-0.34-0.203-0.09-0.066-0.18-0.144-0.24-0.23-0.07-0.082-0.12-0.172-0.15-0.274-0.04-0.089-0.05-0.199-0.05-0.312 0-0.141 0.02-0.274 0.07-0.399s0.13-0.226 0.23-0.324c0.11-0.09 0.23-0.164 0.4-0.215 0.16-0.05 0.34-0.082 0.56-0.082 0.2 0 0.37 0.032 0.52 0.078 0.15 0.047 0.28 0.118 0.38 0.2 0.09 0.086 0.16 0.179 0.21 0.297 0.04 0.117 0.07 0.238 0.07 0.367 0 0.105-0.02 0.215-0.05 0.304-0.04 0.106-0.09 0.196-0.16 0.282-0.07 0.09-0.15 0.172-0.24 0.246-0.1 0.078-0.21 0.148-0.33 0.215 0.14 0.078 0.27 0.152 0.39 0.222 0.12 0.078 0.22 0.16 0.29 0.246 0.08 0.09 0.14 0.188 0.18 0.286 0.04 0.097 0.06 0.21 0.06 0.324zm-0.67-2.074c-0.01-0.083-0.02-0.161-0.05-0.239-0.03-0.066-0.08-0.133-0.13-0.179-0.06-0.047-0.13-0.086-0.22-0.118-0.09-0.019-0.18-0.035-0.29-0.039-0.23 0.004-0.4 0.059-0.52 0.157-0.11 0.101-0.17 0.246-0.17 0.418 0 0.085 0.01 0.16 0.04 0.222 0.03 0.074 0.07 0.145 0.14 0.199 0.06 0.071 0.13 0.129 0.22 0.188 0.09 0.062 0.2 0.117 0.32 0.183 0.21-0.109 0.37-0.222 0.49-0.359 0.11-0.129 0.16-0.269 0.17-0.433zm0.13 2.128c0-0.089-0.02-0.179-0.06-0.257-0.03-0.079-0.09-0.153-0.16-0.219-0.07-0.063-0.16-0.129-0.27-0.195-0.1-0.067-0.23-0.129-0.37-0.204-0.13 0.071-0.25 0.133-0.35 0.2-0.1 0.062-0.18 0.132-0.24 0.199-0.06 0.066-0.11 0.14-0.14 0.215-0.04 0.078-0.05 0.164-0.05 0.254 0 0.203 0.07 0.355 0.21 0.468 0.13 0.114 0.34 0.164 0.62 0.164 0.26 0 0.46-0.054 0.6-0.168 0.14-0.113 0.21-0.257 0.21-0.457z" />
    <path
       id="path94"
       d="m118.08 41.563c0 0.18-0.01 0.36-0.03 0.535-0.02 0.176-0.06 0.352-0.11 0.512-0.04 0.176-0.11 0.328-0.2 0.473-0.08 0.144-0.19 0.269-0.31 0.379-0.13 0.105-0.29 0.195-0.46 0.254-0.18 0.058-0.39 0.089-0.61 0.089-0.1 0-0.18-0.007-0.27-0.019-0.08-0.016-0.16-0.024-0.22-0.039-0.07-0.02-0.13-0.031-0.17-0.055-0.06-0.016-0.09-0.035-0.11-0.055-0.02-0.015-0.03-0.039-0.04-0.078-0.02-0.027-0.02-0.078-0.02-0.129 0-0.043 0-0.082 0.01-0.105 0-0.027 0.01-0.051 0.02-0.063 0-0.011 0.01-0.027 0.02-0.035 0.01-0.004 0.03-0.004 0.05-0.004 0.01 0 0.05 0.008 0.09 0.024 0.04 0.015 0.09 0.035 0.16 0.051 0.06 0.015 0.14 0.035 0.22 0.05 0.09 0.012 0.18 0.024 0.29 0.024 0.2 0 0.37-0.039 0.52-0.117 0.14-0.079 0.26-0.18 0.35-0.317 0.1-0.129 0.16-0.277 0.21-0.457 0.04-0.172 0.07-0.351 0.08-0.547-0.12 0.071-0.25 0.125-0.4 0.172-0.16 0.059-0.33 0.078-0.53 0.074-0.23 0.004-0.42-0.023-0.57-0.086-0.16-0.062-0.28-0.144-0.37-0.253-0.09-0.106-0.16-0.235-0.2-0.379-0.04-0.149-0.06-0.301-0.06-0.481 0-0.176 0.03-0.344 0.08-0.508s0.13-0.3 0.24-0.425c0.11-0.118 0.25-0.215 0.42-0.293 0.17-0.075 0.38-0.114 0.62-0.114 0.16 0 0.31 0.028 0.45 0.067 0.13 0.047 0.23 0.101 0.33 0.179 0.1 0.086 0.18 0.18 0.24 0.293 0.07 0.118 0.13 0.246 0.17 0.387 0.04 0.149 0.07 0.305 0.08 0.469 0.02 0.168 0.03 0.344 0.03 0.527zm-0.54-0.058c-0.01-0.262-0.03-0.489-0.06-0.672-0.04-0.184-0.09-0.328-0.16-0.446-0.07-0.105-0.15-0.187-0.25-0.242-0.1-0.047-0.21-0.07-0.34-0.078-0.14 0.008-0.26 0.031-0.35 0.074-0.1 0.051-0.18 0.121-0.24 0.203s-0.11 0.172-0.13 0.278c-0.03 0.105-0.05 0.215-0.05 0.316 0 0.129 0.01 0.242 0.04 0.344 0.03 0.105 0.07 0.191 0.13 0.258 0.06 0.07 0.14 0.129 0.23 0.164 0.09 0.043 0.21 0.058 0.34 0.058 0.16 0 0.31-0.019 0.46-0.074 0.14-0.043 0.27-0.101 0.38-0.183z" />
    <path
       id="path96"
       d="m128.96 41.716c0 0.308-0.03 0.593-0.07 0.847-0.06 0.262-0.14 0.481-0.25 0.66-0.12 0.192-0.26 0.332-0.44 0.434-0.19 0.102-0.42 0.148-0.68 0.148s-0.47-0.043-0.65-0.132c-0.17-0.09-0.31-0.223-0.41-0.407-0.11-0.168-0.19-0.386-0.23-0.644-0.05-0.262-0.07-0.555-0.07-0.891 0-0.301 0.02-0.59 0.08-0.844 0.04-0.257 0.13-0.476 0.24-0.664 0.11-0.179 0.26-0.328 0.44-0.425 0.19-0.106 0.41-0.157 0.68-0.157 0.26 0 0.47 0.047 0.65 0.141 0.17 0.09 0.31 0.223 0.41 0.398 0.11 0.172 0.18 0.387 0.23 0.649 0.05 0.258 0.07 0.555 0.07 0.887zm-0.55 0.039c0-0.204-0.01-0.383-0.02-0.543-0.02-0.161-0.04-0.301-0.07-0.426-0.03-0.121-0.06-0.231-0.11-0.32-0.04-0.086-0.1-0.161-0.15-0.219-0.07-0.059-0.14-0.102-0.22-0.125-0.08-0.024-0.17-0.035-0.27-0.039-0.18 0.004-0.32 0.043-0.43 0.125-0.12 0.086-0.2 0.203-0.27 0.343-0.06 0.149-0.1 0.321-0.12 0.512-0.03 0.199-0.04 0.41-0.04 0.629 0 0.309 0.02 0.567 0.05 0.777 0.03 0.211 0.08 0.379 0.15 0.512 0.06 0.137 0.14 0.235 0.25 0.289 0.11 0.067 0.24 0.098 0.39 0.09 0.11 0.008 0.22-0.012 0.31-0.055 0.08-0.035 0.16-0.086 0.23-0.16 0.06-0.066 0.11-0.148 0.15-0.25 0.04-0.094 0.08-0.207 0.1-0.32 0.03-0.117 0.04-0.246 0.05-0.391 0.01-0.136 0.02-0.285 0.02-0.429z" />
    <path
       id="path98"
       d="m26.91 16.204c0 0.308-0.027 0.597-0.074 0.851-0.055 0.254-0.137 0.477-0.246 0.661-0.117 0.183-0.266 0.332-0.445 0.425-0.188 0.106-0.41 0.153-0.676 0.153-0.258 0-0.473-0.043-0.645-0.133-0.172-0.094-0.312-0.227-0.418-0.402-0.109-0.172-0.183-0.391-0.226-0.653-0.047-0.258-0.07-0.551-0.067-0.883-0.003-0.304 0.02-0.589 0.075-0.847 0.047-0.258 0.129-0.481 0.242-0.664 0.109-0.18 0.258-0.325 0.441-0.426 0.184-0.106 0.41-0.152 0.68-0.152 0.254 0 0.469 0.046 0.644 0.132 0.172 0.09 0.309 0.227 0.418 0.403 0.102 0.175 0.18 0.386 0.227 0.644 0.047 0.262 0.07 0.559 0.07 0.891zm-0.55 0.039c0-0.203-0.008-0.387-0.024-0.543-0.016-0.16-0.039-0.305-0.062-0.43-0.032-0.121-0.067-0.226-0.11-0.316-0.047-0.086-0.101-0.156-0.16-0.223-0.066-0.051-0.137-0.094-0.215-0.125-0.082-0.019-0.172-0.031-0.269-0.039-0.18 0.008-0.325 0.043-0.434 0.125-0.113 0.09-0.199 0.203-0.262 0.348-0.062 0.144-0.105 0.316-0.129 0.515-0.023 0.2-0.035 0.407-0.035 0.625 0 0.305 0.016 0.567 0.047 0.778s0.078 0.383 0.149 0.515c0.062 0.129 0.148 0.231 0.257 0.289 0.102 0.063 0.231 0.09 0.387 0.086 0.113 0.004 0.219-0.011 0.309-0.05 0.086-0.036 0.16-0.09 0.226-0.161 0.059-0.074 0.11-0.156 0.157-0.25 0.039-0.097 0.074-0.207 0.101-0.328 0.024-0.117 0.039-0.246 0.051-0.383 0.008-0.14 0.016-0.289 0.016-0.433z" />
    <path
       id="path100"
       d="m83.16 18.02c-0.004 0.039-0.008 0.078-0.011 0.106-0.008 0.023-0.016 0.047-0.024 0.058-0.012 0.02-0.023 0.032-0.039 0.039-0.016 0.004-0.031 0.008-0.039 0.008h-2.113c-0.02 0-0.035-0.004-0.043-0.008-0.016-0.007-0.028-0.019-0.035-0.039-0.016-0.011-0.024-0.035-0.028-0.058-0.008-0.028-0.011-0.067-0.008-0.106-0.003-0.039 0-0.066 0.008-0.094 0.004-0.031 0.012-0.05 0.024-0.07 0.008-0.012 0.019-0.023 0.035-0.039 0.012-0.008 0.027-0.012 0.047-0.012h0.843v-3.082l-0.781 0.469c-0.043 0.027-0.074 0.035-0.097 0.039-0.028 0.004-0.047 0-0.059-0.012-0.016-0.011-0.023-0.039-0.027-0.074-0.008-0.023-0.012-0.062-0.008-0.113-0.004-0.035-0.004-0.066 0.004-0.094 0-0.019 0.008-0.043 0.015-0.058 0.004-0.02 0.012-0.032 0.024-0.043 0.012-0.012 0.027-0.028 0.047-0.039l0.933-0.598c0.004-0.008 0.016-0.012 0.032-0.016 0.011-0.004 0.027-0.004 0.046-0.011 0.016 0 0.036-0.004 0.063-0.008 0.023 0.004 0.058 0.004 0.098 0 0.046 0.004 0.085 0.008 0.121 0.008 0.031 0.007 0.058 0.007 0.078 0.011 0.019 0.008 0.031 0.02 0.039 0.032 0.004 0.007 0.008 0.019 0.012 0.035v3.554h0.73c0.012 0 0.027 0.004 0.043 0.012 0.012 0.016 0.023 0.027 0.039 0.039 0.008 0.02 0.016 0.039 0.023 0.07 0 0.028 0.004 0.055 0.008 0.094zm3.375-1.816c0 0.308-0.027 0.597-0.074 0.851-0.055 0.254-0.137 0.477-0.246 0.661-0.117 0.183-0.266 0.332-0.445 0.425-0.188 0.106-0.41 0.153-0.676 0.153-0.258 0-0.473-0.043-0.645-0.133-0.172-0.094-0.312-0.227-0.418-0.402-0.109-0.172-0.183-0.391-0.226-0.653-0.047-0.258-0.07-0.551-0.067-0.883-0.003-0.304 0.02-0.589 0.075-0.847 0.047-0.258 0.129-0.481 0.242-0.664 0.109-0.18 0.258-0.325 0.441-0.426 0.184-0.106 0.41-0.152 0.68-0.152 0.254 0 0.469 0.046 0.644 0.132 0.172 0.09 0.309 0.227 0.418 0.403 0.102 0.175 0.18 0.386 0.227 0.644 0.047 0.262 0.07 0.559 0.07 0.891zm-0.55 0.039c0-0.203-0.008-0.387-0.024-0.543-0.016-0.16-0.039-0.305-0.062-0.43-0.032-0.121-0.067-0.226-0.11-0.316-0.047-0.086-0.101-0.156-0.16-0.223-0.066-0.051-0.137-0.094-0.215-0.125-0.082-0.019-0.172-0.031-0.269-0.039-0.18 0.008-0.325 0.043-0.434 0.125-0.113 0.09-0.199 0.203-0.262 0.348-0.062 0.144-0.105 0.316-0.129 0.515-0.023 0.2-0.035 0.407-0.035 0.625 0 0.305 0.016 0.567 0.047 0.778s0.078 0.383 0.149 0.515c0.062 0.129 0.148 0.231 0.257 0.289 0.102 0.063 0.231 0.09 0.387 0.086 0.113 0.004 0.219-0.011 0.309-0.05 0.086-0.036 0.16-0.09 0.226-0.161 0.059-0.074 0.11-0.156 0.157-0.25 0.039-0.097 0.074-0.207 0.101-0.328 0.024-0.117 0.039-0.246 0.051-0.383 0.008-0.14 0.016-0.289 0.016-0.433zm3.8-0.039c0 0.308-0.027 0.597-0.074 0.851-0.055 0.254-0.137 0.477-0.246 0.661-0.117 0.183-0.266 0.332-0.445 0.425-0.188 0.106-0.41 0.153-0.676 0.153-0.258 0-0.473-0.043-0.645-0.133-0.172-0.094-0.312-0.227-0.418-0.402-0.109-0.172-0.183-0.391-0.226-0.653-0.047-0.258-0.07-0.551-0.067-0.883-0.003-0.304 0.02-0.589 0.075-0.847 0.047-0.258 0.129-0.481 0.242-0.664 0.109-0.18 0.258-0.325 0.441-0.426 0.184-0.106 0.41-0.152 0.68-0.152 0.254 0 0.469 0.046 0.644 0.132 0.172 0.09 0.309 0.227 0.418 0.403 0.102 0.175 0.18 0.386 0.227 0.644 0.047 0.262 0.07 0.559 0.07 0.891zm-0.55 0.039c0-0.203-0.008-0.387-0.024-0.543-0.016-0.16-0.039-0.305-0.062-0.43-0.032-0.121-0.067-0.226-0.11-0.316-0.047-0.086-0.101-0.156-0.16-0.223-0.066-0.051-0.137-0.094-0.215-0.125-0.082-0.019-0.172-0.031-0.269-0.039-0.18 0.008-0.325 0.043-0.434 0.125-0.113 0.09-0.199 0.203-0.262 0.348-0.062 0.144-0.105 0.316-0.129 0.515-0.023 0.2-0.035 0.407-0.035 0.625 0 0.305 0.016 0.567 0.047 0.778s0.078 0.383 0.149 0.515c0.062 0.129 0.148 0.231 0.257 0.289 0.102 0.063 0.231 0.09 0.387 0.086 0.113 0.004 0.219-0.011 0.309-0.05 0.086-0.036 0.16-0.09 0.226-0.161 0.059-0.074 0.11-0.156 0.157-0.25 0.039-0.097 0.074-0.207 0.101-0.328 0.024-0.117 0.039-0.246 0.051-0.383 0.008-0.14 0.016-0.289 0.016-0.433z" />
    <path
       id="path102"
       d="m140.03 18.005c0 0.039-0.01 0.07-0.01 0.097 0 0.035-0.01 0.063-0.02 0.078-0.01 0.024-0.02 0.036-0.04 0.043-0.02 0.004-0.03 0.008-0.05 0.008h-2.23c-0.03 0-0.06-0.004-0.08-0.008-0.02-0.007-0.04-0.019-0.05-0.039-0.02-0.011-0.03-0.039-0.04-0.066-0.01-0.031-0.01-0.07-0.01-0.117v-0.114c0-0.027 0.01-0.05 0.03-0.082 0-0.015 0.02-0.043 0.04-0.07 0.01-0.019 0.03-0.051 0.06-0.074l0.81-0.832c0.18-0.192 0.33-0.363 0.45-0.52 0.11-0.144 0.19-0.285 0.25-0.414 0.06-0.121 0.11-0.23 0.13-0.34 0.01-0.097 0.02-0.199 0.03-0.289-0.01-0.086-0.02-0.168-0.05-0.254-0.03-0.078-0.07-0.144-0.13-0.207-0.06-0.058-0.13-0.113-0.21-0.144-0.09-0.035-0.19-0.055-0.3-0.059-0.13 0.004-0.25 0.024-0.35 0.059-0.11 0.031-0.2 0.07-0.28 0.109-0.08 0.043-0.14 0.082-0.2 0.117-0.05 0.043-0.09 0.063-0.11 0.055-0.02 0.008-0.03 0-0.04-0.012-0.02-0.004-0.03-0.019-0.03-0.043-0.01-0.011-0.01-0.039-0.02-0.074-0.01-0.023-0.01-0.062-0.01-0.109 0-0.028 0-0.059 0.01-0.082 0-0.024 0-0.039 0.01-0.063 0-0.008 0.01-0.023 0.02-0.047 0-0.007 0.02-0.031 0.05-0.05 0.02-0.024 0.07-0.047 0.13-0.086 0.06-0.035 0.14-0.075 0.23-0.114s0.19-0.062 0.31-0.089c0.11-0.028 0.23-0.039 0.35-0.039 0.2 0 0.36 0.027 0.51 0.082 0.15 0.05 0.27 0.132 0.37 0.222 0.09 0.106 0.16 0.211 0.21 0.336s0.07 0.266 0.08 0.406c-0.01 0.129-0.02 0.258-0.04 0.383-0.03 0.137-0.07 0.274-0.14 0.418-0.08 0.153-0.18 0.32-0.32 0.496-0.14 0.192-0.33 0.399-0.56 0.629l-0.64 0.668h1.76c0.02 0 0.03 0.012 0.05 0.02 0.01 0.011 0.02 0.019 0.04 0.043 0.01 0.015 0.02 0.043 0.02 0.07 0 0.023 0.01 0.062 0.01 0.098zm3.39-1.801c0 0.308-0.03 0.597-0.08 0.851s-0.13 0.477-0.24 0.661c-0.12 0.183-0.27 0.332-0.45 0.425-0.19 0.106-0.41 0.153-0.67 0.153s-0.48-0.043-0.65-0.133c-0.17-0.094-0.31-0.227-0.42-0.402-0.11-0.172-0.18-0.391-0.22-0.653-0.05-0.258-0.07-0.551-0.07-0.883 0-0.304 0.02-0.589 0.07-0.847s0.13-0.481 0.25-0.664c0.11-0.18 0.26-0.325 0.44-0.426 0.18-0.106 0.41-0.152 0.68-0.152 0.25 0 0.47 0.046 0.64 0.132 0.18 0.09 0.31 0.227 0.42 0.403 0.1 0.175 0.18 0.386 0.23 0.644 0.04 0.262 0.07 0.559 0.07 0.891zm-0.55 0.039c0-0.203-0.01-0.387-0.03-0.543-0.01-0.16-0.03-0.305-0.06-0.43-0.03-0.121-0.07-0.226-0.11-0.316-0.04-0.086-0.1-0.156-0.16-0.223-0.06-0.051-0.13-0.094-0.21-0.125-0.09-0.019-0.18-0.031-0.27-0.039-0.18 0.008-0.33 0.043-0.44 0.125-0.11 0.09-0.2 0.203-0.26 0.348-0.06 0.144-0.1 0.316-0.13 0.515-0.02 0.2-0.03 0.407-0.03 0.625 0 0.305 0.01 0.567 0.04 0.778 0.04 0.211 0.08 0.383 0.15 0.515 0.07 0.129 0.15 0.231 0.26 0.289 0.1 0.063 0.23 0.09 0.39 0.086 0.11 0.004 0.22-0.011 0.31-0.05 0.08-0.036 0.16-0.09 0.22-0.161 0.06-0.074 0.11-0.156 0.16-0.25 0.04-0.097 0.07-0.207 0.1-0.328 0.02-0.117 0.04-0.246 0.05-0.383 0.01-0.14 0.02-0.289 0.02-0.433zm3.8-0.039c0 0.308-0.03 0.597-0.08 0.851s-0.13 0.477-0.24 0.661c-0.12 0.183-0.27 0.332-0.45 0.425-0.18 0.106-0.41 0.153-0.67 0.153s-0.48-0.043-0.65-0.133c-0.17-0.094-0.31-0.227-0.42-0.402-0.11-0.172-0.18-0.391-0.22-0.653-0.05-0.258-0.07-0.551-0.07-0.883 0-0.304 0.02-0.589 0.07-0.847s0.13-0.481 0.25-0.664c0.11-0.18 0.25-0.325 0.44-0.426 0.18-0.106 0.41-0.152 0.68-0.152 0.25 0 0.47 0.046 0.64 0.132 0.17 0.09 0.31 0.227 0.42 0.403 0.1 0.175 0.18 0.386 0.23 0.644 0.04 0.262 0.07 0.559 0.07 0.891zm-0.55 0.039c0-0.203-0.01-0.387-0.03-0.543-0.01-0.16-0.03-0.305-0.06-0.43-0.03-0.121-0.07-0.226-0.11-0.316-0.04-0.086-0.1-0.156-0.16-0.223-0.06-0.051-0.14-0.094-0.21-0.125-0.08-0.019-0.18-0.031-0.27-0.039-0.18 0.008-0.33 0.043-0.44 0.125-0.11 0.09-0.2 0.203-0.26 0.348-0.06 0.144-0.1 0.316-0.13 0.515-0.02 0.2-0.03 0.407-0.03 0.625 0 0.305 0.01 0.567 0.04 0.778 0.04 0.211 0.08 0.383 0.15 0.515 0.07 0.129 0.15 0.231 0.26 0.289 0.1 0.063 0.23 0.09 0.39 0.086 0.11 0.004 0.22-0.011 0.31-0.05 0.08-0.036 0.16-0.09 0.22-0.161 0.06-0.074 0.11-0.156 0.16-0.25 0.04-0.097 0.07-0.207 0.1-0.328 0.02-0.117 0.04-0.246 0.05-0.383 0.01-0.14 0.02-0.289 0.02-0.433z" />
  </g>
  <path
     id="path104"
     d="m159.03 37.04l12.03 12.023m0-12.023l-12.03 12.023zm0 12.023c-3.33 3.324-8.71 3.324-12.03 0-3.32-3.32-3.32-8.703 0-12.023 3.32-3.324 8.7-3.324 12.02 0 3.33 3.32 3.33 8.703 0.01 12.023z"
     stroke-width="1.4173"
     stroke="#000"
     fill="none"
     style="stroke:#0000ff;stroke-opacity:1" />
</svg>
