<?xml version="1.0" encoding="UTF-8" standalone="no"?>
<!-- Created with Inkscape (http://www.inkscape.org/) -->

<svg
   xmlns:dc="http://purl.org/dc/elements/1.1/"
   xmlns:cc="http://creativecommons.org/ns#"
   xmlns:rdf="http://www.w3.org/1999/02/22-rdf-syntax-ns#"
   xmlns:svg="http://www.w3.org/2000/svg"
   xmlns="http://www.w3.org/2000/svg"
   xmlns:sodipodi="http://sodipodi.sourceforge.net/DTD/sodipodi-0.dtd"
   xmlns:inkscape="http://www.inkscape.org/namespaces/inkscape"
   id="svg5011"
   version="1.1"
   inkscape:version="0.91 r"
   width="475.88525"
   height="531.49603"
   viewBox="0 0 475.88525 531.49603"
   sodipodi:docname="rose.svg">
  <metadata
     id="metadata5017">
    <rdf:RDF>
      <cc:Work
         rdf:about="">
        <dc:format>image/svg+xml</dc:format>
        <dc:type
           rdf:resource="http://purl.org/dc/dcmitype/StillImage" />
        <dc:title></dc:title>
      </cc:Work>
    </rdf:RDF>
  </metadata>
  <defs
     id="defs5015" />
  <sodipodi:namedview
     pagecolor="#ffffff"
     bordercolor="#666666"
     borderopacity="1"
     objecttolerance="10"
     gridtolerance="10"
     guidetolerance="10"
     inkscape:pageopacity="0"
     inkscape:pageshadow="2"
     inkscape:window-width="1366"
     inkscape:window-height="716"
     id="namedview5013"
     showgrid="false"
     fit-margin-top="0"
     fit-margin-left="0"
     fit-margin-right="0"
     fit-margin-bottom="0"
     inkscape:zoom="0.79662447"
     inkscape:cx="182.98172"
     inkscape:cy="100.6007"
     inkscape:window-x="0"
     inkscape:window-y="0"
     inkscape:window-maximized="1"
     inkscape:current-layer="svg5011" />
  <g
     id="g5624"
     style="stroke-width:0.5;stroke-miterlimit:4;stroke-dasharray:none"
     transform="matrix(1.8080632,0,0,1.8078793,-0.02271089,-2.0116426)">
    <path
       id="path5622"
       d="M 150.39322,286.77852 C 139.91775,274.92915 133.6989,265.55563 127.4631,252.21649 l -5.48499,-11.73307 -8.95259,6.42319 c -17.889367,12.83504 -39.275551,21.15555 -58.161671,22.62838 -12.368834,0.96458 -14.972532,-0.28657 -13.993508,-6.72425 2.655553,-17.46193 12.62409,-44.41905 20.533257,-55.52645 L 64.192563,203.36755 60.533781,200.36 C 49.512717,191.30061 45.768379,189.40458 38.72185,189.31501 c -8.315972,-0.10575 -13.677821,-2.93835 -18.36529,-9.70237 -5.774995,-8.33332 -5.28233,-23.25049 1.066947,-32.3056 3.182739,-4.53912 2.983954,-5.28049 -2.060916,-7.68622 C 13.36666,136.76156 4.4122487,128.2953 1.9938807,123.19897 -1.114634,116.64826 -0.41936525,111.06512 5.0537093,98.62795 7.8332494,92.311645 11.775396,81.203561 13.814035,73.943319 16.751474,63.482169 18.509166,59.576605 22.284227,55.12269 31.64085,44.083506 42.460375,38.783374 59.350354,36.965204 c 5.192246,-0.558934 7.825741,-1.45914 8.622594,-2.947455 2.174667,-4.061722 11.658791,-12.366461 17.168831,-15.033825 3.037911,-1.470628 10.129412,-3.820222 15.758891,-5.221319 5.62948,-1.401097 14.87192,-4.7896099 20.53875,-7.5300275 9.22567,-4.4614299 11.29082,-4.9824744 19.74445,-4.9815914 12.79046,0.00134 21.48397,4.1683733 32.56613,15.6098449 6.42879,6.637215 10.53455,9.548486 19.6669,13.945186 15.97379,7.690464 18.4581,11.059861 18.4581,25.034181 l 0,10.409802 5,0.01225 c 19.00656,0.04641 35.05781,23.565214 25.04354,36.6946 -3.79779,4.97916 -10.5716,19.73736 -14.42052,31.41819 -1.58574,4.8125 -3.92685,11.19969 -5.20243,14.19375 l -2.31926,5.44374 11.08603,10.80626 c 10.85594,10.58195 19.62634,22.5828 24.88509,34.05115 5.3958,11.76724 8.64861,29.99205 6.40588,35.89087 l -1.18518,3.11728 -14.02157,-0.76595 c -16.14069,-0.8817 -32.23123,-3.69654 -41.08919,-7.18803 -9.99178,-3.93838 -10.68195,-3.61947 -11.66135,5.38843 -2.05589,18.90872 -11.09642,39.4299 -22.93934,52.07025 -9.58754,10.2331 -11.53203,10.17732 -21.06348,-0.60423 z"
       style="fill:none;stroke:#ff0000;stroke-width:0.27655306;stroke-miterlimit:4;stroke-dasharray:none"
       inkscape:connector-curvature="0" />
    <path
       id="path5620"
       d="m 166.18395,285.53596 c 13.1024,-11.83722 22.18913,-32.71472 24.48372,-56.25342 l 0.86199,-8.84246 -6.07734,-3.89857 c -7.60142,-4.87626 -30.39223,-15.51987 -32.04938,-14.96748 -0.67823,0.22607 6.43491,4.00359 15.80696,8.39451 9.37206,4.39091 17.0401,8.4075 17.0401,8.92575 0,0.51825 -7.06294,-2.39596 -15.69541,-6.47601 C 161.9221,208.33823 154.4971,205 154.05459,205 c -2.29737,0 2.82776,2.8622 13.44541,7.50878 12.11192,5.30052 20.5115,9.89638 19.65407,10.75382 -0.26258,0.26258 -7.71547,-2.87829 -16.56197,-6.9797 -15.14516,-7.02161 -20.36884,-8.58138 -14.87585,-4.44182 1.32481,0.99838 7.86605,4.13668 14.53609,6.97401 6.67002,2.83731 12.78577,5.95213 13.59055,6.92184 2.11256,2.54548 1.54219,2.3565 -12.03093,-3.98625 -14.76531,-6.89987 -19.17781,-8.64829 -17.43696,-6.90925 0.6875,0.68677 7.71875,4.14857 15.625,7.69288 7.90625,3.54432 14.9375,7.01852 15.625,7.72044 2.05574,2.09889 -3.59565,-0.0125 -17.84132,-6.66412 -7.23269,-3.37735 -13.44284,-5.84813 -13.80034,-5.49063 -0.9519,0.9519 -0.82574,1.02451 14.14166,8.13953 7.5625,3.59497 13.15164,6.76745 12.42031,7.04995 -0.73132,0.28251 -6.51628,-2.02955 -12.85545,-5.13792 C 155.21525,222.03474 155,221.95783 155,223.61686 c 0,0.61427 6.75,4.07229 15,7.68449 8.25,3.6122 15,7.05466 15,7.64992 0,1.12282 -1.32648,0.62173 -18.3275,-6.92337 -5.61138,-2.49035 -10.77326,-4.5279 -11.47085,-4.5279 -0.69759,0 -1.45021,-0.90584 -1.6725,-2.01296 -0.25751,-1.28263 -2.55836,1.08493 -6.34165,6.52556 -3.26562,4.69619 -5.9375,7.81974 -5.9375,6.94125 0,-0.8785 2.5865,-5.29776 5.74779,-9.82057 5.60071,-8.01288 5.72592,-8.39828 4.8934,-15.06158 l -0.85439,-6.83829 -3.20587,4.8208 c -6.5641,9.87067 -15.66304,21.78035 -16.21692,21.22648 -0.5304,-0.53042 14.07899,-22.58163 18.02234,-27.20268 2.07506,-2.43167 1.75851,-16.2519 -0.38844,-16.95912 -0.75741,-0.24949 -4.28648,3.92482 -7.84242,9.27625 -3.55593,5.35142 -7.85531,11.41736 -9.5542,13.47986 -5.82836,7.07584 -3.09708,1.58997 5.1099,-10.26336 7.26586,-10.49409 9.11585,-15.36164 5.83843,-15.36164 -0.56585,0 -2.51862,3.03764 -4.3395,6.75031 -1.91985,3.91451 -5.70512,8.75185 -9.01038,11.51471 -5.04437,4.21657 -5.69865,5.34479 -5.6903,9.81218 0.0368,19.66516 8.93882,44.01377 22.18245,60.6728 6.05693,7.61897 13.09755,15 14.3082,15 0.54599,0 3.21622,-2.00881 5.93386,-4.46404 z"
       style="fill:none;stroke:#0000ff;stroke-width:0.27655306;stroke-miterlimit:4;stroke-dasharray:none"
       inkscape:connector-curvature="0" />
    <path
       id="path5618"
       d="m 158.40401,281.25 c -0.47842,-1.71875 -0.87756,-4.4778 -0.88695,-6.13124 -0.0166,-2.92692 -0.083,-2.94653 -2.51706,-0.74376 -1.375,1.24436 -2.5,1.68166 -2.5,0.97179 0,-0.70988 0.84375,-1.99093 1.875,-2.84679 1.18924,-0.98698 1.85642,-3.67171 1.8242,-7.34055 l -0.0507,-5.78445 -3.47774,4.0625 c -5.17282,6.04262 -5.81066,4.91422 -1.14137,-2.01923 3.55357,-5.2767 4.03837,-6.93127 3.66257,-12.49999 -0.23828,-3.53006 -0.88277,-6.41828 -1.43225,-6.41828 -0.54947,0 -2.77607,2.76926 -4.94801,6.15392 -4.5532,7.09557 -9.16316,11.72565 -6.31846,6.34608 0.90886,-1.71875 3.54648,-5.61521 5.86137,-8.65881 2.31489,-3.04359 4.53685,-6.84047 4.93768,-8.4375 0.85146,-3.3925 1.99505,-3.5763 6.5149,-1.04707 1.82482,1.02114 7.76362,3.841 13.19732,6.26637 5.43371,2.42536 9.56133,4.72788 9.17249,5.11673 -0.38885,0.38884 -6.10955,-1.67171 -12.71266,-4.57901 -6.60313,-2.9073 -12.36095,-4.93072 -12.79518,-4.4965 -0.43422,0.43423 3.93446,3.00713 9.7082,5.71755 5.77373,2.71043 9.65394,4.97039 8.62269,5.02215 -1.03125,0.0517 -5.47049,-1.60682 -9.86498,-3.68575 -4.39448,-2.07894 -8.28511,-3.48474 -8.64583,-3.12401 -0.88058,0.88056 -1.2473,0.67566 12.48893,6.9779 6.65672,3.05413 11.61108,5.72963 11.00969,5.94555 -0.60139,0.21594 -5.65316,-1.61219 -11.22616,-4.0625 -11.12431,-4.89105 -11.2617,-4.93223 -11.2617,-3.37493 0,0.5941 2.67187,2.08157 5.9375,3.30549 8.25353,3.09333 15.67862,6.91488 14.91635,7.67715 -0.35113,0.35113 -5.18688,-1.3327 -10.74613,-3.74182 -13.3129,-5.7692 -13.20343,-2.94199 0.12669,3.27213 12.33183,5.74877 12.34669,7.42577 0.0192,2.17999 C 157.88434,257.07331 157.5,256.97874 157.5,258.75 c 0,0.6875 0.6537,1.25 1.45267,1.25 1.99934,0 12.63722,6.32677 11.89159,7.0724 -0.3311,0.3311 -2.96101,-0.60148 -5.84426,-2.0724 -2.88325,-1.47092 -5.52494,-2.39173 -5.87043,-2.04624 -0.34548,0.34549 2.2962,2.11004 5.87043,3.92124 7.88849,3.9974 7.48345,5.59054 -0.52111,2.04974 -6.70214,-2.96468 -7.41703,-2.45675 -1.66639,1.18398 l 4.0625,2.57197 -4.375,-0.77424 c -4.57655,-0.80991 -4.24216,-0.17084 2.07922,3.97377 1.95024,1.27867 1.65507,1.3904 -1.96108,0.74238 -3.05209,-0.54695 -4.00409,-0.35385 -3.36373,0.68227 0.49123,0.79483 1.70369,1.44513 2.69436,1.44513 0.99068,0 1.80123,0.62268 1.80123,1.38374 0,0.76105 -0.80851,1.07347 -1.79669,0.69427 -1.05981,-0.40668 -1.9777,0.17929 -2.23805,1.42878 -0.32386,1.55428 -0.67295,1.28626 -1.31125,-1.00679 z"
       style="fill:none;stroke:#0000ff;stroke-width:0.27655306;stroke-miterlimit:4;stroke-dasharray:none"
       inkscape:connector-curvature="0" />
    <path
       id="path5616"
       d="M 177.5,241.58181 C 169.85247,238.6418 154.81266,231.02066 155.43336,230.39996 156.2362,229.59714 180,240.64506 180,241.82114 c 0,0.37337 -0.14063,0.63445 -0.3125,0.58017 -0.17188,-0.0542 -1.15625,-0.42305 -2.1875,-0.8195 z"
       style="fill:none;stroke:#0000ff;stroke-width:0.27655306;stroke-miterlimit:4;stroke-dasharray:none"
       inkscape:connector-curvature="0" />
    <path
       id="path5614"
       d="m 63.75,263.18606 c 18.262072,-3.53262 31.50604,-9.46645 49.0625,-21.98197 7.04528,-5.02238 10.9375,-8.62567 10.9375,-10.12556 0,-2.94517 -2.1034,-3.04512 -2.96779,-0.14103 -0.3581,1.20312 -0.33652,-3.15625 0.048,-9.6875 0.78337,-13.30733 -0.15082,-15.02114 -1.36274,-2.5 -0.90014,9.29997 -1.70658,12.5 -3.15012,12.5 -0.55783,0 -0.48343,-2.48875 0.16532,-5.53055 0.64876,-3.0418 1.00244,-7.68243 0.78597,-10.3125 -0.29245,-3.55319 -0.9401,-1.40938 -2.52045,8.34305 l -2.12685,13.125 0.48519,-12.5 c 0.49074,-12.64275 -0.52452,-11.68534 -2.65106,2.5 l -0.93694,6.25 -0.73912,-5 -0.73913,-5 -1.01039,7.39023 c -0.55571,4.06462 -1.48536,8.56462 -2.06588,10 -1.02222,2.52751 -1.05769,2.53096 -1.12529,0.10974 -0.063,-2.25543 1.21727,-11.68178 3.11498,-22.93553 0.419,-2.48478 0.22583,-3.88892 -0.47538,-3.45555 -0.64964,0.40151 -1.56664,4.84352 -2.03777,9.87115 -0.47112,5.02762 -1.42783,9.95761 -2.12602,10.95553 -0.89702,1.2821 -1.05883,-0.0191 -0.55156,-4.4356 2.05492,-17.89073 2.04291,-17.68483 0.81369,-13.95423 -0.64257,1.95016 -1.79486,8.70016 -2.56066,15 -0.765786,6.29982 -1.827486,11.8897 -2.359328,12.42192 -0.531842,0.53223 -0.570221,-2.56152 -0.08529,-6.875 2.021987,-17.98549 2.333969,-23.46766 1.335504,-23.46766 -0.580156,0 -1.669413,5.41038 -2.420569,12.02306 -1.277297,11.2445 -2.007256,14.1406 -3.244569,12.87278 -0.279564,-0.28647 0.27169,-5.30209 1.22501,-11.14584 2.045749,-12.54024 2.208852,-15.9592 0.68278,-14.3125 -0.60528,0.65313 -1.752891,6.8125 -2.550249,13.6875 -2.42709,20.92695 -2.830241,23.12977 -4.090542,22.35086 -0.666198,-0.41172 -0.913476,-1.95286 -0.549509,-3.42472 0.363968,-1.47188 1.273843,-7.73864 2.021943,-13.92614 0.748101,-6.1875 1.650012,-12.375 2.004248,-13.75 0.595718,-2.31234 0.514065,-2.3392 -1.087737,-0.35794 -0.952491,1.17814 -2.463906,7.92814 -3.3587,15 -0.894794,7.07186 -2.104195,13.98294 -2.68756,15.35794 -0.767599,1.80925 -0.907636,1.29117 -0.506828,-1.875 0.304609,-2.40625 0.892348,-8.3125 1.306087,-13.125 0.413737,-4.8125 1.062321,-9.875 1.441297,-11.25 0.530804,-1.92586 0.341286,-2.17015 -0.825227,-1.06372 -0.83285,0.78996 -1.993915,5.71325 -2.580145,10.94066 -0.586229,5.2274 -1.682388,10.48732 -2.435906,11.68871 -1.240851,1.97837 -1.313956,1.94861 -0.775298,-0.31565 1.512311,-6.35705 2.219065,-18.69249 1.002656,-17.5 -0.701291,0.6875 -1.936135,6.875 -2.744096,13.75 -0.807961,6.875 -2.010941,13.34375 -2.673287,14.375 -0.849677,1.32291 -1.015254,0.5868 -0.562337,-2.5 0.353062,-2.40625 0.9796,-8.59375 1.39231,-13.75 1.017265,-12.70938 -1.321515,-8.9171 -3.062225,4.96532 -0.719356,5.73699 -1.671873,10.7636 -2.116705,11.17028 -0.989691,0.90479 0.455196,-16.31303 1.62472,-19.36076 0.547279,-1.42618 0.36097,-1.88985 -0.536493,-1.33519 -0.756218,0.46736 -1.724249,4.07526 -2.151183,8.01755 -1.424673,13.15539 -2.109174,16.5428 -3.342833,16.5428 -0.673398,0 -0.944427,-0.98438 -0.602284,-2.1875 0.342142,-1.20313 0.907347,-5.5625 1.256012,-9.6875 0.689158,-8.15331 -0.478024,-5.59949 -2.856459,6.25 l -1.254502,6.25 0.547425,-8.125 c 0.629545,-9.34383 -0.999003,-7.00315 -2.609092,3.75 -1.007757,6.73041 -1.047056,6.78299 -1.868647,2.5 -0.69113,-3.60289 -0.890273,-3.82349 -1.128394,-1.25 L 58.5008,258.125 57.5,255 l -1.0008,-3.125 -0.1246,3.36372 c -0.06853,1.85005 -0.78269,3.77045 -1.587024,4.26757 -0.971467,0.6004 -1.204862,0.23263 -0.695221,-1.09548 0.421961,-1.09961 0.150035,-2.20501 -0.60428,-2.45645 -0.873325,-0.29111 -0.529561,-1.7421 0.946414,-3.99472 2.314327,-3.53212 2.31366,-3.53622 -0.433295,-2.66437 -1.567633,0.49755 -2.751194,0.34194 -2.751194,-0.36172 0,-0.6792 1.602347,-1.58685 3.560772,-2.01699 1.958426,-0.43014 5.400627,-2.68032 7.649337,-5.0004 l 4.088562,-4.21833 -5.461835,0.50701 c -5.43249,0.50428 -5.421538,0.49346 2.038164,-2.01498 7.427115,-2.49748 14.480008,-7.44762 10.590278,-7.43289 -1.012153,0.004 -4.002399,0.60734 -6.644992,1.34112 -8.353826,2.31965 -6.34565,0.28793 2.54168,-2.57147 7.678889,-2.4706 17.573073,-8.25825 16.29783,-9.5335 -0.277421,-0.27741 -2.142491,0.0141 -4.144599,0.6479 -6.703953,2.12212 -11.205457,2.84807 -9.890197,1.59498 0.6875,-0.65501 5.609375,-2.46425 10.9375,-4.02055 5.328125,-1.5563 9.6875,-3.29948 9.6875,-3.87373 0,-2.3367 -7.187732,-2.6544 -14.965426,-0.66148 -4.487765,1.14991 -8.722074,2.07742 -9.409574,2.06111 -2.246541,-0.0533 2.38742,-2.46088 7.40939,-3.84961 l 4.90939,-1.3576 -4.170279,-2.64043 -4.17028,-2.64044 -4.280122,4.93587 C 58.38575,219.07235 50.55353,236.89179 47.110856,255.3125 l -1.81051,9.6875 4.537328,-2.1e-4 c 2.495528,-1.3e-4 8.756076,-0.81629 13.912326,-1.81373 z"
       style="fill:none;stroke:#0000ff;stroke-width:0.27655306;stroke-miterlimit:4;stroke-dasharray:none"
       inkscape:connector-curvature="0" />
    <path
       id="path5612"
       d="m 258.74829,230.9375 c -9.4e-4,-0.85938 -0.81272,-6.1708 -1.80395,-11.80316 -3.41568,-19.40839 -16.16933,-40.70759 -32.84732,-54.85654 -8.50821,-7.21803 -9.6967,-7.7755 -10.74617,-5.04063 -0.44656,1.16373 0.64401,2.05378 3.30377,2.69629 l 3.97038,0.95911 -5,0.87634 -5,0.87633 5.9375,0.17737 c 8.33642,0.24905 7.41639,2.45983 -1.25,3.00365 -6.95013,0.43613 -6.87789,0.46295 2.1875,0.81199 10.8904,0.4193 7.9083,2.27876 -3.98873,2.48715 -3.91255,0.0685 -7.44948,0.66785 -7.85983,1.33182 -0.45674,0.73902 4.48402,1.36327 12.73872,1.60953 l 13.48484,0.4023 -13.4375,0.26547 c -18.19267,0.35943 -17.8566,2.76548 0.38627,2.76548 8.89754,0 13.54847,0.44545 13.05123,1.25 -0.4249,0.6875 -5.55379,1.25 -11.39754,1.25 -7.16867,0 -10.35851,0.4312 -9.80577,1.32554 0.54931,0.8888 5.1039,1.03852 13.82376,0.45441 9.38845,-0.6289 13.00455,-0.47611 13.00455,0.54946 0,0.9758 -4.36139,1.42059 -13.9295,1.42059 l -13.9295,0 0.80807,8.4375 c 0.44444,4.64062 1.16097,10.6875 1.59229,13.4375 0.60509,3.85784 0.44158,4.68025 -0.71582,3.60025 -0.82503,-0.76988 -2.06162,-7.46074 -2.74797,-14.86861 -1.06131,-11.45474 -1.65576,-13.8022 -3.97525,-15.69812 -2.65021,-2.16622 -2.82788,-2.1346 -6.28395,1.11862 -3.26428,3.07268 -3.49287,3.86157 -2.781,9.59786 0.4266,3.4375 1.03593,10.75 1.35407,16.25 0.75875,13.11706 -1.24487,7.33734 -2.44312,-7.04758 -1.16001,-13.92581 -1.69718,-14.70907 -7.58992,-11.06716 -4.48131,2.7696 -4.6192,3.06614 -3.89224,8.36999 0.47775,3.48549 0.30155,5.21922 -0.48124,4.73542 -0.67921,-0.41976 -1.23492,-2.09026 -1.23492,-3.71221 0,-5.47205 -1.1504,-6.87945 -4.56273,-5.58208 -1.70501,0.64823 -5.3134,1.17862 -8.01865,1.17862 -2.70523,0 -4.91862,0.33556 -4.91862,0.74569 0,1.68856 10.4528,12.44584 17.1699,17.67004 17.77499,13.82442 40.51254,20.97368 68.1426,21.42577 7.00201,0.11463 9.68702,-0.27464 9.68579,-1.404 z"
       style="fill:none;stroke:#0000ff;stroke-width:0.27655306;stroke-miterlimit:4;stroke-dasharray:none"
       inkscape:connector-curvature="0" />
    <path
       id="path5610"
       d="m 239.57599,227.8125 c -0.31437,-0.51563 -0.9688,-4.67098 -1.45432,-9.23411 -0.8449,-7.941 -1.17115,-8.58144 -7.61122,-14.94152 l -6.72848,-6.6449 0.57708,13.69152 c 0.36469,8.65227 0.17462,12.54133 -0.51639,10.56651 -0.6014,-1.71875 -1.14954,-6.95404 -1.21806,-11.63398 -0.14433,-9.85557 -2.14679,-18.91336 -4.63847,-20.98128 -3.40744,-2.82792 -1.60145,-3.63352 7.95137,-3.54688 6.28075,0.057 8.80834,0.44617 7.1875,1.10676 -2.2435,0.91438 -2.11525,1.10897 1.25,1.89649 6.64252,1.55446 6.40107,1.70988 -2.8125,1.8102 -12.69165,0.13821 -11.5938,2.55978 1.25,2.75719 l 10.3125,0.15851 -7.96138,1.03204 c -4.37876,0.56762 -8.26938,1.34005 -8.64583,1.7165 -0.37645,0.37645 4.04992,0.79621 9.83637,0.93282 l 10.52084,0.24837 -9.10194,0.43219 c -10.36356,0.49209 -11.29141,2.81026 -1.13679,2.84021 4.65042,0.0138 5.95753,0.36243 4.61373,1.23086 -1.03125,0.66645 -3.28125,1.31489 -5,1.44099 -1.71875,0.12611 0.25,0.60266 4.375,1.05901 l 7.5,0.82972 -6.77084,0.21014 c -3.72395,0.11563 -6.38051,0.60047 -5.90345,1.07751 0.47705,0.47707 3.10205,0.73553 5.83333,0.57437 2.79393,-0.16485 4.96596,0.27586 4.96596,1.00762 0,0.71535 -1.82813,1.30925 -4.0625,1.31978 -2.87898,0.0136 -3.54751,0.34513 -2.29478,1.13811 0.97226,0.61543 3.57262,0.82608 5.77859,0.46809 2.28864,-0.37139 4.37914,-0.055 4.86855,0.7369 0.56819,0.91935 -0.66884,1.38776 -3.66486,1.38776 -5.57731,0 -4.66636,2.4207 1.01127,2.68729 3.81007,0.1789 3.8338,0.21071 0.53004,0.71007 -4.08938,0.61811 -3.33842,2.85264 0.95869,2.85264 3.87798,0 5.41261,2.46157 1.63627,2.6246 -2.65037,0.11437 -2.68193,0.19104 -0.38627,0.9375 2.19122,0.7125 3.99371,6.53877 1.97425,6.3815 -0.39834,-0.031 -3.45916,-3.54665 -6.80184,-7.8125 l -6.07759,-7.7561 0.88783,7.8125 c 0.81036,7.13092 0.47734,9.35016 -1.03166,6.875 z"
       style="fill:none;stroke:#0000ff;stroke-width:0.27655306;stroke-miterlimit:4;stroke-dasharray:none"
       inkscape:connector-curvature="0" />
    <path
       id="path5608"
       d="m 224.6875,187.88834 c -1.20313,-0.3144 -3.17188,-0.3144 -4.375,0 -1.20313,0.31441 -0.21875,0.57166 2.1875,0.57166 2.40625,0 3.39062,-0.25725 2.1875,-0.57166 z"
       style="fill:none;stroke:#0000ff;stroke-width:0.27655306;stroke-miterlimit:4;stroke-dasharray:none"
       inkscape:connector-curvature="0" />
    <path
       id="path5606"
       d="m 109.60885,215.29792 c -0.31287,-1.19511 -0.55749,0.0771 -0.54362,2.82708 0.0139,2.75 0.26985,3.72781 0.56885,2.17292 0.29899,-1.55488 0.28764,-3.80488 -0.0252,-5 z"
       style="fill:none;stroke:#0000ff;stroke-width:0.27655306;stroke-miterlimit:4;stroke-dasharray:none"
       inkscape:connector-curvature="0" />
    <path
       id="path5604"
       d="m 115.96796,209.34295 c 13.11199,-3.89384 22.76345,-15.44974 24.61974,-29.47771 l 0.76217,-5.75976 -8.47668,-0.86847 c -5.61168,-0.57493 -12.91638,-2.70496 -21.61244,-6.3021 -19.000208,-7.85949 -20.361184,-8.18471 -34.259779,-8.18685 -14.490735,-0.002 -19.798362,-1.86726 -23.869461,-8.38741 -1.378581,-2.20789 -3.42219,-4.03601 -4.541355,-4.0625 -1.119165,-0.0265 -4.129336,-0.92329 -6.689271,-1.99289 -2.559934,-1.06961 -6.425504,-1.77274 -8.590155,-1.5625 -3.437401,0.33384 -4.480141,1.411 -8.235438,8.50724 -6.916915,13.07064 -5.360955,23.81817 4.409418,30.45731 3.402685,2.31219 5.554717,2.88185 9.093641,2.40718 6.012985,-0.80652 11.325237,1.49442 21.532621,9.32657 19.881149,15.25486 39.361187,20.80063 55.856989,15.90189 z"
       style="fill:none;stroke:#0000ff;stroke-width:0.27655306;stroke-miterlimit:4;stroke-dasharray:none"
       inkscape:connector-curvature="0" />
    <path
       id="path5602"
       d="m 172.5,206.34077 c 0,-0.63757 -3.23438,-2.62822 -7.1875,-4.42368 -3.95313,-1.79545 -8.22665,-3.84403 -9.49673,-4.55239 -1.27007,-0.70835 -2.67632,-0.89069 -3.125,-0.40517 -0.44867,0.48549 -0.25327,1.11006 0.43423,1.3879 0.6875,0.27782 5.1875,2.40247 10,4.72143 4.8125,2.31895 8.89062,4.26463 9.0625,4.32372 0.17187,0.0591 0.3125,-0.41423 0.3125,-1.05181 z"
       style="fill:none;stroke:#0000ff;stroke-width:0.27655306;stroke-miterlimit:4;stroke-dasharray:none"
       inkscape:connector-curvature="0" />
    <path
       id="path5600"
       d="m 165,198.88374 c 0,-0.61395 -0.70313,-1.40662 -1.5625,-1.76149 -0.85938,-0.35487 -3.8125,-1.59918 -6.5625,-2.76511 -6.21745,-2.63605 -4.73058,-0.90915 2.28596,2.65498 2.86773,1.4567 5.35466,2.72489 5.52654,2.81822 0.17187,0.0932 0.3125,-0.33266 0.3125,-0.9466 z"
       style="fill:none;stroke:#0000ff;stroke-width:0.27655306;stroke-miterlimit:4;stroke-dasharray:none"
       inkscape:connector-curvature="0" />
    <path
       id="path5598"
       d="m 183.75,186.97001 c 17.85086,-9.24071 27.48582,-22.89055 40.19189,-56.93979 2.68758,-7.20213 7.39671,-17.73731 10.4647,-23.41152 5.46642,-10.110086 5.55105,-10.443195 4.22438,-16.629216 -2.60555,-12.149263 -10.43256,-17.949486 -24.30053,-18.007959 -7.09018,-0.0299 -10.14588,0.624054 -15.76725,3.374339 l -6.97269,3.411419 2.39176,8.428858 c 2.97955,10.500279 2.69275,27.412729 -0.57775,34.068879 -3.78155,7.69624 -19.666,26.30347 -25.42305,29.78084 -3.03121,1.83093 -5.83547,4.35034 -6.23169,5.59868 -1.19861,3.77651 -8.10001,10.85578 -13.03975,13.37586 -5.05591,2.57932 -6.21002,4.46369 -6.21002,10.13934 0,3.2393 0.82529,4.09865 6.5625,6.83335 5.86609,2.79612 7.82267,3.08103 18.4375,2.68488 8.31567,-0.31035 13.18634,-1.12202 16.25,-2.70796 z"
       style="fill:none;stroke:#0000ff;stroke-width:0.27655306;stroke-miterlimit:4;stroke-dasharray:none"
       inkscape:connector-curvature="0" />
    <path
       id="path5596"
       d="m 145.96059,169.31534 c 5.47559,-2.28784 9.85268,-6.14439 12.28948,-10.82796 1.75161,-3.36659 1.72952,-3.39638 -3.55626,-4.79831 -2.92535,-0.77586 -10.09726,-3.63891 -15.9376,-6.36231 -11.02898,-5.14293 -9.85573,-4.90713 -51.88121,-10.42731 -8.25,-1.08366 -18.375,-2.77077 -22.5,-3.74914 -6.608257,-1.56734 -7.670699,-1.55535 -8.935666,0.10088 -2.603939,3.40935 -3.126089,10.13214 -1.153609,14.85295 2.551278,6.10606 6.991906,7.65345 25.031136,8.72238 12.244182,0.72555 16.757808,1.57508 24.999999,4.70537 27.94997,10.61506 32.72895,11.50828 41.64373,7.78345 z"
       style="fill:none;stroke:#0000ff;stroke-width:0.27655306;stroke-miterlimit:4;stroke-dasharray:none"
       inkscape:connector-curvature="0" />
    <path
       id="path5594"
       d="m 170.28035,146.6943 c 2.25205,-2.50562 7.12511,-7.66908 10.82901,-11.47434 12.02314,-12.35214 16.69227,-28.57123 12.17534,-42.293365 -1.0956,-3.328377 -3.36734,-11.50393 -5.04829,-18.167896 -3.57426,-14.169733 -6.54396,-18.7727 -13.93194,-21.594196 -9.02668,-3.44732 -21.48582,0.661937 -27.72936,9.145655 l -2.79989,3.804487 2.79989,4.29522 c 1.53994,2.362371 4.23023,5.27221 5.97843,6.46631 1.7482,1.1941 4.39212,4.022423 5.87538,6.28516 10.95353,16.709786 7.80389,40.592445 -7.60068,57.633455 -4.3648,4.82849 -5.41909,6.72341 -4.25327,7.64466 2.63968,2.08594 5.04514,2.60966 12.45538,2.71186 6.70249,0.0925 7.41449,-0.18963 11.25,-4.45701 z"
       style="fill:none;stroke:#0000ff;stroke-width:0.27655306;stroke-miterlimit:4;stroke-dasharray:none"
       inkscape:connector-curvature="0" />
    <path
       id="path5592"
       d="m 147.56949,142.1875 c 4.77438,-5.03511 10.26548,-13.69108 12.81107,-20.19491 3.70664,-9.47024 3.55662,-24.484476 -0.32477,-32.502336 l -2.9442,-6.08192 -1.3683,4.178535 c -0.81725,2.495769 -3.58053,5.862322 -6.86158,8.359606 -6.91445,5.262755 -14.08828,14.342055 -16.78675,21.245565 -1.1431,2.92437 -2.43906,9.19818 -2.87994,13.94181 l -0.80158,8.62479 5.48077,2.51535 c 7.25069,3.32764 10.45715,3.30736 13.67528,-0.0865 z"
       style="fill:none;stroke:#0000ff;stroke-width:0.27655306;stroke-miterlimit:4;stroke-dasharray:none"
       inkscape:connector-curvature="0" />
    <path
       id="path5590"
       d="m 51.257701,139.61372 c 0.0043,-1.5063 0.813173,-4.2828 1.797639,-6.17 1.687711,-3.2353 1.50763,-3.9135 -3.153136,-11.87499 C 44.765258,112.79383 42.510232,106.5878 42.519182,101.25 42.528801,95.513289 48.336519,85.723827 57.721526,75.625 71.167222,61.15663 82.858232,45.368942 80.984234,44.210747 78.174945,42.474511 58.558909,42.14543 51.409899,43.714604 34.88737,47.341221 22.991494,57.980074 18.746364,72.926621 17.348525,77.848229 13.68375,88.702738 10.602419,97.04775 7.5210888,105.39276 5,113.71757 5,115.54733 c 0,6.88848 7.178046,15.43681 17.297229,20.59922 7.055901,3.59965 25.24711,7.90915 28.015271,6.63681 0.515625,-0.237 0.940965,-1.66334 0.945201,-3.16964 z"
       style="fill:none;stroke:#0000ff;stroke-width:0.27655306;stroke-miterlimit:4;stroke-dasharray:none"
       inkscape:connector-curvature="0" />
    <path
       id="path5588"
       d="m 126.2717,136.5625 c 0.0457,-7.23784 3.873,-21.14641 7.36457,-26.76317 3.37434,-5.42819 3.48987,-6.0002 1.56383,-7.74325 -5.70931,-5.16685 -11.76621,-4.67515 -13.97503,1.1345 -1.45543,3.82806 -8.84052,6.9945 -16.70378,7.16193 -5.387086,0.11469 -6.52981,-0.34693 -9.732847,-3.93175 -1.996022,-2.23393 -3.977011,-5.8011 -4.402197,-7.927029 -0.717873,-3.589366 -0.893122,-3.701142 -2.454656,-1.565619 -2.053745,2.808664 -2.176535,8.534308 -0.261992,12.216568 0.780778,1.50168 4.341845,5.82407 7.913481,9.60532 3.571635,3.78125 7.972521,9.21834 9.779751,12.08242 3.97993,6.30737 4.4707,6.63282 11.88752,7.88317 9.04208,1.52433 8.99808,1.53483 9.02135,-2.15309 z"
       style="fill:none;stroke:#0000ff;stroke-width:0.27655306;stroke-miterlimit:4;stroke-dasharray:none"
       inkscape:connector-curvature="0" />
    <path
       id="path5586"
       d="M 103.82344,132.1875 C 98.262712,124.59884 77.571876,102.5 76.027455,102.5 c -3.90845,0 4.458579,17.6226 12.577462,26.4906 5.266473,5.7524 7.401108,7.20886 11.142302,7.60238 2.545281,0.26772 5.379571,0.58132 6.298421,0.69689 0.96192,0.121 0.0192,-2.04353 -2.2222,-5.10237 z"
       style="fill:none;stroke:#0000ff;stroke-width:0.27655306;stroke-miterlimit:4;stroke-dasharray:none"
       inkscape:connector-curvature="0" />
    <path
       id="path5584"
       d="M 86.370169,130.57089 C 81.477182,124.99809 75.846074,113.92016 73.09379,104.45264 68.884744,89.974027 73.26534,73.327019 82.515179,68.649762 87.615894,66.070545 94.09707,65.156225 99.375,66.271294 c 2.93614,0.620318 4.48656,0.119737 7.14381,-2.306518 2.79325,-2.550435 4.85175,-3.150646 11.63286,-3.391876 7.08459,-0.252026 8.73086,0.120737 11.74898,2.660319 5.06459,4.26157 11.30512,3.786786 14.79502,-1.125616 2.31562,-3.259478 2.44437,-4.073908 0.97558,-6.170902 -2.72433,-3.889523 -5.6589,-5.420376 -17.00498,-8.870851 -5.88979,-1.791156 -12.63979,-4.661859 -14.99999,-6.379339 C 107.11665,35.92046 103.5908,34.72766 98.125,35.428888 92.41219,36.161805 90.189644,38.378152 72.858431,60.625 66.966932,68.1875 58.858604,78.115588 54.839925,82.687418 46.691737,91.957161 45,95.384349 45,102.62152 c 0,5.92514 2.424802,12.16565 7.820419,20.12675 3.558378,5.25029 4.78003,6.07693 11.517587,7.79337 10.584109,2.69638 18.192802,4.16833 22.353984,4.3245 L 90.25898,135 86.370169,130.57089 Z"
       style="fill:none;stroke:#0000ff;stroke-width:0.27655306;stroke-miterlimit:4;stroke-dasharray:none"
       inkscape:connector-curvature="0" />
    <path
       id="path5582"
       d="m 116.5625,105.44509 c 3.21194,-1.64385 4.62051,-4.06538 2.5,-4.29788 -8.89023,-0.97473 -18.14838,-4.80734 -23.125,-9.573093 L 92.5,88.282272 l 0,5.94104 c 0,3.267573 0.60679,7.074838 1.348421,8.460588 3.10053,5.79339 14.162049,7.13806 22.714079,2.76119 z"
       style="fill:none;stroke:#0000ff;stroke-width:0.27655306;stroke-miterlimit:4;stroke-dasharray:none"
       inkscape:connector-curvature="0" />
    <path
       id="path5580"
       d="m 87.172691,94.660316 c 1.40657,-1.531924 2.967126,-4.754066 3.467903,-7.160316 1.232585,-5.922624 3.840752,-10.783501 6.290408,-11.723524 3.217688,-1.234741 9.094308,-0.901295 10.002098,0.56753 0.53293,0.862296 1.87589,0.362049 3.74695,-1.395725 2.18911,-2.056562 4.0264,-2.610136 7.36813,-2.220007 3.96229,0.462575 4.45182,0.203695 4.45182,-2.354275 0,-3.81778 -4.22182,-7.873999 -8.19546,-7.873999 -1.95025,0 -4.51935,1.449466 -6.5928,3.719609 -3.2258,3.531791 -3.63686,3.6461 -8.140775,2.263807 -5.486191,-1.68376 -14.781337,0.189389 -18.750335,3.77855 C 76.620902,76.059775 73.75,83.347252 73.75,90.209999 c 0,5.892147 0.47696,7.048666 4.6875,11.366131 l 4.6875,4.80654 0.745146,-4.46852 c 0.40983,-2.457685 1.895975,-5.72191 3.302545,-7.253834 z"
       style="fill:none;stroke:#0000ff;stroke-width:0.27655306;stroke-miterlimit:4;stroke-dasharray:none"
       inkscape:connector-curvature="0" />
    <path
       id="path5578"
       d="m 153.89394,87.739441 c 0.3249,-4.772469 -0.53905,-6.97228 -4.28403,-10.908164 l -3.93496,-4.135563 -3.44575,11.464642 c -1.89516,6.305554 -3.45328,12.763145 -3.46248,14.350203 -0.0156,2.690161 0.49115,2.494761 7.48328,-2.885559 4.125,-3.174115 7.56477,-6.722616 7.64394,-7.885559 z"
       style="fill:none;stroke:#0000ff;stroke-width:0.27655306;stroke-miterlimit:4;stroke-dasharray:none"
       inkscape:connector-curvature="0" />
    <path
       id="path5576"
       d="m 137.59606,95.9375 c 0.0529,-2.234375 0.79308,-6.3125 1.64498,-9.0625 1.37216,-4.429455 1.27951,-5.35659 -0.81193,-8.125 -1.29845,-1.71875 -3.98461,-5.780431 -5.96926,-9.025959 -2.28809,-3.741747 -4.79176,-6.197953 -6.84236,-6.712621 -4.27662,-1.073364 -5.05938,-0.04685 -2.61999,3.435879 2.88689,4.121611 2.50087,8.294696 -1.88966,20.428536 -2.14069,5.916081 -3.54973,11.098939 -3.13121,11.517461 0.41852,0.418524 3.07378,-0.0024 5.90057,-0.935277 4.49646,-1.483968 5.55309,-1.44535 8.44371,0.308594 4.7183,2.862927 5.16789,2.707037 5.27515,-1.829113 z"
       style="fill:none;stroke:#0000ff;stroke-width:0.27655306;stroke-miterlimit:4;stroke-dasharray:none"
       inkscape:connector-curvature="0" />
    <path
       id="path5574"
       d="m 118.4171,88.4375 c 1.46736,-4.984375 3.01985,-9.977475 3.44997,-11.095777 1.2027,-3.126974 -5.05904,-4.244882 -9.06704,-1.618739 -2.79993,1.834581 -2.93513,2.22703 -1.11764,3.244148 2.74377,1.535493 2.88724,12.546524 0.19261,14.782868 -2.7072,2.24678 -2.30651,3.75 0.99958,3.75 2.48979,0 3.23172,-1.213119 5.54252,-9.0625 z"
       style="fill:none;stroke:#0000ff;stroke-width:0.27655306;stroke-miterlimit:4;stroke-dasharray:none"
       inkscape:connector-curvature="0" />
    <path
       id="path5572"
       d="m 110.87689,91.25 c 1.36969,-2.735941 1.26678,-3.261076 -0.8266,-4.217992 -5.84972,-2.674001 -12.865619,2.817912 -8.07496,6.320928 3.34675,2.447205 7.06316,1.569228 8.90156,-2.102936 z"
       style="fill:none;stroke:#0000ff;stroke-width:0.27655306;stroke-miterlimit:4;stroke-dasharray:none"
       inkscape:connector-curvature="0" />
    <path
       id="path5570"
       d="m 107.50628,84.806623 c 4.0622,0.239687 4.81717,-0.06222 4.19699,-1.678413 C 110.75941,80.66857 104.78886,77.5 101.098,77.5 c -2.734696,0 -7.348,3.209699 -7.348,5.11236 0,0.53619 0.57971,2.499644 1.288244,4.36323 l 1.288245,3.388339 3.113289,-2.924784 c 2.348252,-2.206069 4.330452,-2.852965 8.066502,-2.632522 z"
       style="fill:none;stroke:#0000ff;stroke-width:0.27655306;stroke-miterlimit:4;stroke-dasharray:none"
       inkscape:connector-curvature="0" />
    <path
       id="path5568"
       d="m 142.5,73.710769 c 0,-5.517697 -2.11084,-7.325804 -6.34321,-5.43349 -2.33898,1.045766 -2.27224,1.319578 1.41002,5.785221 2.12586,2.578125 4.1055,4.6875 4.39919,4.6875 0.2937,0 0.534,-2.267654 0.534,-5.039231 z"
       style="fill:none;stroke:#0000ff;stroke-width:0.27655306;stroke-miterlimit:4;stroke-dasharray:none"
       inkscape:connector-curvature="0" />
    <path
       id="path5563"
       d="m 197.30757,73.22251 c 7.60485,-3.853673 8.76404,-5.322068 9.7227,-12.316279 1.79163,-13.071357 -2.39246,-19.942955 -15.45652,-25.384526 -6.216,-2.58915 -10.98248,-5.909204 -18.03639,-12.563113 -5.2732,-4.974175 -12.5857,-10.763219 -16.25,-12.864543 -5.69879,-3.2680219 -7.94189,-3.8222854 -15.5093,-3.8323189 -7.633,-0.010125 -10.4631,0.693506 -20.625,5.1278459 -6.47794,2.826767 -16.15876,6.198349 -21.51295,7.492406 -5.35419,1.294057 -11.54169,3.262972 -13.75,4.375366 -5.099996,2.569026 -11.837159,8.882309 -14.111915,13.224042 -1.967371,3.755039 -1.921829,3.788527 7.256112,5.335814 4.129912,0.696251 5.385394,0.211561 11.049747,-4.265851 8.384083,-6.627237 11.740856,-6.569968 23.692086,0.404207 5.14187,3.000558 10.47386,5.779578 11.84886,6.1756 1.375,0.396021 4.9225,1.346284 7.88334,2.111696 2.96085,0.765412 7.53465,3.335224 10.16401,5.710694 l 4.78065,4.319039 6.711,-3.124084 c 7.59739,-3.536712 15.70874,-4.054198 20.96252,-1.337359 7.33008,3.790529 13.84097,14.238458 13.8665,22.251354 0.009,2.793905 0.18282,2.773935 7.31455,-0.83999 z"
       style="fill:none;stroke:#0000ff;stroke-width:0.27655306;stroke-miterlimit:4;stroke-dasharray:none"
       inkscape:connector-curvature="0" />
  </g>
</svg>
