<?xml version="1.0" encoding="UTF-8" standalone="no"?>
<!-- Created with Inkscape (http://www.inkscape.org/) -->

<svg
   xmlns:dc="http://purl.org/dc/elements/1.1/"
   xmlns:cc="http://creativecommons.org/ns#"
   xmlns:rdf="http://www.w3.org/1999/02/22-rdf-syntax-ns#"
   xmlns:svg="http://www.w3.org/2000/svg"
   xmlns="http://www.w3.org/2000/svg"
   xmlns:sodipodi="http://sodipodi.sourceforge.net/DTD/sodipodi-0.dtd"
   xmlns:inkscape="http://www.inkscape.org/namespaces/inkscape"
   width="210mm"
   height="297mm"
   viewBox="0 0 744.09448819 1052.3622047"
   id="svg15033"
   version="1.1"
   inkscape:version="0.91 r13725"
   sodipodi:docname="butterfly.svg">
  <defs
     id="defs15035" />
  <sodipodi:namedview
     id="base"
     pagecolor="#ffffff"
     bordercolor="#666666"
     borderopacity="1.0"
     inkscape:pageopacity="0.0"
     inkscape:pageshadow="2"
     inkscape:zoom="3.959798"
     inkscape:cx="-97.643891"
     inkscape:cy="11.75831"
     inkscape:document-units="px"
     inkscape:current-layer="layer1"
     showgrid="false"
     inkscape:window-width="1280"
     inkscape:window-height="737"
     inkscape:window-x="0"
     inkscape:window-y="30"
     inkscape:window-maximized="1" />
  <metadata
     id="metadata15038">
    <rdf:RDF>
      <cc:Work
         rdf:about="">
        <dc:format>image/svg+xml</dc:format>
        <dc:type
           rdf:resource="http://purl.org/dc/dcmitype/StillImage" />
        <dc:title></dc:title>
      </cc:Work>
    </rdf:RDF>
  </metadata>
  <g
     inkscape:label="Layer 1"
     inkscape:groupmode="layer"
     id="layer1">
    <path
       inkscape:connector-curvature="0"
       d="m -170.59649,980.51977 c -0.7337,0.037 -1.464,0.1229 -2.186,0.2581"
       style="fill:none;stroke:#0000ff"
       id="path11702" />
    <path
       inkscape:connector-curvature="0"
       d="m -172.78249,980.77787 c -0.099,0.015 -0.2225,0.012 -0.3153,0.029"
       style="fill:none;stroke:#0000ff"
       id="path11704" />
    <path
       inkscape:connector-curvature="0"
       d="m -173.09779,980.80717 c -0.1357,0.026 -0.2842,0.083 -0.422,0.1135"
       style="fill:none;stroke:#0000ff"
       id="path11706" />
    <path
       inkscape:connector-curvature="0"
       d="m -173.51979,980.92067 c -0.3413,0.08 -0.6798,0.1714 -1.0152,0.2735"
       style="fill:none;stroke:#0000ff"
       id="path11708" />
    <path
       inkscape:connector-curvature="0"
       d="m -174.53499,981.19417 c -1.1618,0.3273 -2.3499,0.7448 -3.5145,1.3674"
       style="fill:none;stroke:#0000ff"
       id="path11710" />
    <path
       inkscape:connector-curvature="0"
       d="m -178.04949,982.56157 c -3.2972,1.763 -5.9821,4.7196 -7.551,7.5756"
       style="fill:none;stroke:#0000ff"
       id="path11712" />
    <path
       inkscape:connector-curvature="0"
       d="m -185.60049,990.13717 c -3.1379,5.7119 -3.3652,10.72663 -3.0853,17.39093"
       style="fill:none;stroke:#0000ff"
       id="path11714" />
    <path
       inkscape:connector-curvature="0"
       d="m -188.68579,1007.5281 c 0.1658,3.9491 0.1523,9.5169 0.9334,15.5198"
       style="fill:none;stroke:#0000ff"
       id="path11716" />
    <path
       inkscape:connector-curvature="0"
       d="m -187.75239,1023.0479 c 0.618,4.7497 0.782,10.9644 5.9284,16.8016"
       style="fill:none;stroke:#0000ff"
       id="path11718" />
    <path
       inkscape:connector-curvature="0"
       d="m -181.82399,1039.8495 c -1.6719,3.5121 -2.4878,7.2059 -2.6124,10.3836"
       style="fill:none;stroke:#0000ff"
       id="path11720" />
    <path
       inkscape:connector-curvature="0"
       d="m -184.43639,1050.2331 c -0.2503,6.3898 1.304,11.8268 3.6078,16.8857"
       style="fill:none;stroke:#0000ff"
       id="path11722" />
    <path
       inkscape:connector-curvature="0"
       d="m -180.82859,1067.1188 c 4.6075,10.1178 12.3468,20.5391 27.325,22.5623"
       style="fill:none;stroke:#0000ff"
       id="path11724" />
    <path
       inkscape:connector-curvature="0"
       d="m -153.50359,1089.6811 c 12.5736,1.6995 23.1371,-4.2379 30.881,-12.8685"
       style="fill:none;stroke:#0000ff"
       id="path11726" />
    <path
       inkscape:connector-curvature="0"
       d="m -122.62499,1001.9319 c -0.5876,0 -1.318,0.02 -2.1918,0.1076"
       style="fill:none;stroke:#0000ff"
       id="path11728" />
    <path
       inkscape:connector-curvature="0"
       d="m -124.81679,1002.0395 c -0.014,10e-4 -0.027,0 -0.04,0"
       style="fill:none;stroke:#0000ff"
       id="path11730" />
    <path
       inkscape:connector-curvature="0"
       d="m -124.85709,1002.043 c -0.3175,0.032 -0.6352,0.072 -0.9527,0.1202"
       style="fill:none;stroke:#0000ff"
       id="path11732" />
    <path
       inkscape:connector-curvature="0"
       d="m -125.80979,1002.1632 c -0.09,0.017 -0.1796,0.035 -0.2692,0.054"
       style="fill:none;stroke:#0000ff"
       id="path11734" />
    <path
       inkscape:connector-curvature="0"
       d="m -126.07899,1002.2175 c -1.5558,-1.4415 -3.2058,-2.91763 -5.0458,-4.47153"
       style="fill:none;stroke:#0000ff"
       id="path11736" />
    <path
       inkscape:connector-curvature="0"
       d="m -131.12479,997.74597 c -9.3102,-7.8623 -21.678,-16.2496 -37.8091,-17.2083"
       style="fill:none;stroke:#0000ff"
       id="path11738" />
    <path
       inkscape:connector-curvature="0"
       d="m -168.93689,980.53767 c -0.011,0 -0.022,0 -0.033,0"
       style="fill:none;stroke:#0000ff"
       id="path11740" />
    <path
       inkscape:connector-curvature="0"
       d="m -168.97009,980.53467 c -0.5417,-0.032 -1.0847,-0.036 -1.627,-0.014"
       style="fill:none;stroke:#0000ff"
       id="path11742" />
    <path
       inkscape:connector-curvature="0"
       d="m -74.648761,980.51977 c 0.73366,0.037 1.46399,0.1229 2.186,0.2581"
       style="fill:none;stroke:#0000ff"
       id="path11744" />
    <path
       inkscape:connector-curvature="0"
       d="m -72.462761,980.77787 c 0.0992,0.015 0.22247,0.012 0.3153,0.029"
       style="fill:none;stroke:#0000ff"
       id="path11746" />
    <path
       inkscape:connector-curvature="0"
       d="m -72.147461,980.80717 c 0.13569,0.026 0.28419,0.083 0.42203,0.1135"
       style="fill:none;stroke:#0000ff"
       id="path11748" />
    <path
       inkscape:connector-curvature="0"
       d="m -71.725431,980.92067 c 0.34123,0.08 0.67979,0.1714 1.01513,0.2735"
       style="fill:none;stroke:#0000ff"
       id="path11750" />
    <path
       inkscape:connector-curvature="0"
       d="m -70.710301,981.19417 c 1.16186,0.3273 2.34995,0.7448 3.51452,1.3674"
       style="fill:none;stroke:#0000ff"
       id="path11752" />
    <path
       inkscape:connector-curvature="0"
       d="m -67.195781,982.56157 c 3.29718,1.763 5.98212,4.7196 7.55104,7.5756"
       style="fill:none;stroke:#0000ff"
       id="path11754" />
    <path
       inkscape:connector-curvature="0"
       d="m -59.644741,990.13717 c 3.13784,5.7119 3.36521,10.72663 3.0853,17.39093"
       style="fill:none;stroke:#0000ff"
       id="path11756" />
    <path
       inkscape:connector-curvature="0"
       d="m -56.559441,1007.5281 c -0.16582,3.9491 -0.15233,9.5169 -0.93341,15.5198"
       style="fill:none;stroke:#0000ff"
       id="path11758" />
    <path
       inkscape:connector-curvature="0"
       d="m -57.492851,1023.0479 c -0.61804,4.7497 -0.78206,10.9644 -5.92837,16.8016"
       style="fill:none;stroke:#0000ff"
       id="path11760" />
    <path
       inkscape:connector-curvature="0"
       d="m -63.421221,1039.8495 c 1.67181,3.5121 2.48776,7.2059 2.61236,10.3836"
       style="fill:none;stroke:#0000ff"
       id="path11762" />
    <path
       inkscape:connector-curvature="0"
       d="m -60.808861,1050.2331 c 0.25032,6.3898 -1.30403,11.8268 -3.60779,16.8857"
       style="fill:none;stroke:#0000ff"
       id="path11764" />
    <path
       inkscape:connector-curvature="0"
       d="m -64.416651,1067.1188 c -4.60749,10.1178 -12.34684,20.5391 -27.32504,22.5623"
       style="fill:none;stroke:#0000ff"
       id="path11766" />
    <path
       inkscape:connector-curvature="0"
       d="m -91.741691,1089.6811 c -12.573499,1.6995 -23.136999,-4.2379 -30.880899,-12.8685"
       style="fill:none;stroke:#0000ff"
       id="path11768" />
    <path
       inkscape:connector-curvature="0"
       d="m -122.62019,1001.9319 c 0.5876,0 1.318,0.02 2.1918,0.1076"
       style="fill:none;stroke:#0000ff"
       id="path11770" />
    <path
       inkscape:connector-curvature="0"
       d="m -120.42839,1002.0395 c 0.014,10e-4 0.027,0 0.04,0"
       style="fill:none;stroke:#0000ff"
       id="path11772" />
    <path
       inkscape:connector-curvature="0"
       d="m -120.38809,1002.043 c 0.3175,0.032 0.6352,0.072 0.9527,0.1202"
       style="fill:none;stroke:#0000ff"
       id="path11774" />
    <path
       inkscape:connector-curvature="0"
       d="m -119.43539,1002.1632 c 0.09,0.017 0.1796,0.035 0.2692,0.054"
       style="fill:none;stroke:#0000ff"
       id="path11776" />
    <path
       inkscape:connector-curvature="0"
       d="m -119.16619,1002.2175 c 1.5558,-1.4415 3.2058,-2.91763 5.0458,-4.47153"
       style="fill:none;stroke:#0000ff"
       id="path11778" />
    <path
       inkscape:connector-curvature="0"
       d="m -114.12039,997.74597 c 9.3102,-7.8623 21.677999,-16.2496 37.809049,-17.2083"
       style="fill:none;stroke:#0000ff"
       id="path11780" />
    <path
       inkscape:connector-curvature="0"
       d="m -76.308391,980.53767 c 0.0113,0 0.0219,0 0.0332,0"
       style="fill:none;stroke:#0000ff"
       id="path11782" />
    <path
       inkscape:connector-curvature="0"
       d="m -76.275221,980.53467 c 0.54176,-0.032 1.08478,-0.036 1.627,-0.014"
       style="fill:none;stroke:#0000ff"
       id="path11784" />
    <path
       inkscape:connector-curvature="0"
       d="m -122.62249,1001.9319 0,0"
       style="fill:none;stroke:#0000ff"
       id="path12038" />
    <path
       inkscape:connector-curvature="0"
       d="m -168.93389,980.53767 0,0"
       style="fill:none;stroke:#0000ff"
       id="path12040" />
    <path
       inkscape:connector-curvature="0"
       d="m -170.59709,980.52067 6e-4,-9e-4"
       style="fill:none;stroke:#0000ff"
       id="path12042" />
    <path
       inkscape:connector-curvature="0"
       d="m -122.62269,1001.9319 0,0"
       style="fill:none;stroke:#0000ff"
       id="path12044" />
    <path
       inkscape:connector-curvature="0"
       d="m -76.311341,980.53767 0.003,0"
       style="fill:none;stroke:#0000ff"
       id="path12046" />
    <path
       inkscape:connector-curvature="0"
       d="m -74.648221,980.52067 -5.4e-4,-9e-4"
       style="fill:none;stroke:#0000ff"
       id="path12048" />
    <path
       inkscape:connector-curvature="0"
       d="m -69.533981,1011.6147 c -0.0888,0.099 -0.18664,0.1921 -0.29538,0.2797"
       style="fill:none;stroke:#00ffff"
       id="path12684" />
    <path
       inkscape:connector-curvature="0"
       d="m -69.829361,1011.8944 c -1.68,1.3472 -4.01371,1.7477 -6.01353,2.4033"
       style="fill:none;stroke:#00ffff"
       id="path12686" />
    <path
       inkscape:connector-curvature="0"
       d="m -75.842891,1014.2977 c -2.63713,0.8647 -38.263799,15.148 -39.640399,13.8783"
       style="fill:none;stroke:#00ffff"
       id="path12688" />
    <path
       inkscape:connector-curvature="0"
       d="m -115.48329,1028.176 c -0.017,-0.037 -0.025,-0.077 -0.023,-0.1171"
       style="fill:none;stroke:#00ffff"
       id="path12690" />
    <path
       inkscape:connector-curvature="0"
       d="m -115.50659,1028.0589 c 1.7564,-1.0463 20.461199,-12.0179 22.524999,-13.3672"
       style="fill:none;stroke:#00ffff"
       id="path12692" />
    <path
       inkscape:connector-curvature="0"
       d="m -92.981591,1014.6917 c 2.0707,-1.3381 4.1742,-2.6969 6.27797,-4.056"
       style="fill:none;stroke:#00ffff"
       id="path12694" />
    <path
       inkscape:connector-curvature="0"
       d="m -86.703621,1010.6357 c 4.21822,-2.6997 8.43676,-5.3998 12.39118,-7.931"
       style="fill:none;stroke:#00ffff"
       id="path12696" />
    <path
       inkscape:connector-curvature="0"
       d="m -74.312441,1002.7047 c 0.81056,-0.5188 1.64945,-0.9819 2.46871,-1.457"
       style="fill:none;stroke:#00ffff"
       id="path12698" />
    <path
       inkscape:connector-curvature="0"
       d="m -71.843731,1001.2477 c 0.58391,-0.3384 1.37843,-1.37333 2.11731,-1.2337"
       style="fill:none;stroke:#00ffff"
       id="path12700" />
    <path
       inkscape:connector-curvature="0"
       d="m -69.726421,1000.014 c 1.09753,0.2081 0.71229,4.8941 0.7374,5.8557"
       style="fill:none;stroke:#00ffff"
       id="path12702" />
    <path
       inkscape:connector-curvature="0"
       d="m -68.989021,1005.8697 c 0.0455,1.7353 0.72285,4.3265 -0.54499,5.745"
       style="fill:none;stroke:#00ffff"
       id="path12704" />
    <path
       inkscape:connector-curvature="0"
       d="m -70.242681,1021.4535 c -0.21537,0.8975 -0.15969,1.8532 -0.92873,2.4945"
       style="fill:none;stroke:#00ffff"
       id="path12706" />
    <path
       inkscape:connector-curvature="0"
       d="m -71.171411,1023.948 c -1.00299,0.8364 -42.572579,7.3221 -42.491479,5.4711"
       style="fill:none;stroke:#00ffff"
       id="path12708" />
    <path
       inkscape:connector-curvature="0"
       d="m -113.66289,1029.4191 c 0.028,-0.637 14.576899,-4.6922 16.793399,-5.4631"
       style="fill:none;stroke:#00ffff"
       id="path12710" />
    <path
       inkscape:connector-curvature="0"
       d="m -96.869491,1023.956 c 2.2127,-0.7843 4.4853,-1.6326 6.7888,-2.5119"
       style="fill:none;stroke:#00ffff"
       id="path12712" />
    <path
       inkscape:connector-curvature="0"
       d="m -90.080691,1021.4441 c 2.3079,-0.867 4.65291,-1.7477 6.99718,-2.6281"
       style="fill:none;stroke:#00ffff"
       id="path12714" />
    <path
       inkscape:connector-curvature="0"
       d="m -83.083511,1018.816 c 2.40032,-0.9015 4.79627,-1.8495 7.22241,-2.6775"
       style="fill:none;stroke:#00ffff"
       id="path12716" />
    <path
       inkscape:connector-curvature="0"
       d="m -75.861101,1016.1385 c 1.6858,-0.5752 3.36109,-2.0278 5.27462,-1.6895"
       style="fill:none;stroke:#00ffff"
       id="path12718" />
    <path
       inkscape:connector-curvature="0"
       d="m -70.586481,1014.449 c 0.86478,0.1532 1.12159,0.5777 1.21074,1.3835"
       style="fill:none;stroke:#00ffff"
       id="path12720" />
    <path
       inkscape:connector-curvature="0"
       d="m -69.375741,1015.8325 c 0.19825,1.7993 -0.44965,3.8806 -0.86694,5.621"
       style="fill:none;stroke:#00ffff"
       id="path12722" />
    <path
       inkscape:connector-curvature="0"
       d="m -75.059651,1028.6286 c -3.95299,0.6974 -37.625739,13.4473 -41.006139,2.7645"
       style="fill:none;stroke:#00ffff"
       id="path12724" />
    <path
       inkscape:connector-curvature="0"
       d="m -116.06579,1031.3931 c 0.7123,-0.034 1.4868,-0.075 2.3218,-0.123"
       style="fill:none;stroke:#00ffff"
       id="path12726" />
    <path
       inkscape:connector-curvature="0"
       d="m -113.74399,1031.2701 c 1.5254,-0.094 3.2465,-0.199 5.12,-0.3496"
       style="fill:none;stroke:#00ffff"
       id="path12728" />
    <path
       inkscape:connector-curvature="0"
       d="m -108.62399,1030.9205 c 0.9368,-0.075 1.9128,-0.1532 2.9224,-0.2336"
       style="fill:none;stroke:#00ffff"
       id="path12730" />
    <path
       inkscape:connector-curvature="0"
       d="m -105.70159,1030.6869 c 1.0084,-0.094 2.051,-0.191 3.1224,-0.2906"
       style="fill:none;stroke:#00ffff"
       id="path12732" />
    <path
       inkscape:connector-curvature="0"
       d="m -102.57919,1030.3963 c 2.1445,-0.1917 4.399399,-0.4453 6.729499,-0.7273"
       style="fill:none;stroke:#00ffff"
       id="path12734" />
    <path
       inkscape:connector-curvature="0"
       d="m -95.849691,1029.669 c 2.3286,-0.2957 4.73,-0.6413 7.1678,-1.0102"
       style="fill:none;stroke:#00ffff"
       id="path12736" />
    <path
       inkscape:connector-curvature="0"
       d="m -88.681891,1028.6588 c 2.43959,-0.3565 4.91773,-0.7181 7.3959,-1.0797"
       style="fill:none;stroke:#00ffff"
       id="path12738" />
    <path
       inkscape:connector-curvature="0"
       d="m -81.285991,1027.5791 c 3.07768,-0.4359 6.15541,-0.872 9.15923,-1.2973"
       style="fill:none;stroke:#00ffff"
       id="path12740" />
    <path
       inkscape:connector-curvature="0"
       d="m -72.126761,1026.2818 c -0.84983,1.3562 -1.83972,2.1537 -2.93289,2.3468"
       style="fill:none;stroke:#00ffff"
       id="path12742" />
    <path
       inkscape:connector-curvature="0"
       d="m -115.86309,1037.2986 c 0,0 14.9908,1.1146 34.906679,-3.8796"
       style="fill:none;stroke:#00ffff"
       id="path12744" />
    <path
       inkscape:connector-curvature="0"
       d="m -80.956411,1033.419 c 0,0 9.37173,10.7254 -34.906679,3.8796"
       style="fill:none;stroke:#00ffff"
       id="path12746" />
    <path
       inkscape:connector-curvature="0"
       d="m -73.880601,1050.6287 c 1.50174,10.1404 -29.523289,-1.7018 -41.982489,-10.0189"
       style="fill:none;stroke:#00ffff"
       id="path12748" />
    <path
       inkscape:connector-curvature="0"
       d="m -115.86309,1040.6098 c 0,0 40.480739,-0.1215 41.982489,10.0189"
       style="fill:none;stroke:#00ffff"
       id="path12750" />
    <path
       inkscape:connector-curvature="0"
       d="m -117.16919,1042.5001 c 0,0 31.703929,18.6906 41.965099,14.5557"
       style="fill:none;stroke:#00ffff"
       id="path12752" />
    <path
       inkscape:connector-curvature="0"
       d="m -75.204091,1057.0558 c 6.24927,-2.5181 -16.6348,30.2451 -41.965099,-14.5557"
       style="fill:none;stroke:#00ffff"
       id="path12754" />
    <path
       inkscape:connector-curvature="0"
       d="m -115.86309,1048.5492 c 0,0 11.2543,20.1197 25.914399,19.2815"
       style="fill:none;stroke:#00ffff"
       id="path12756" />
    <path
       inkscape:connector-curvature="0"
       d="m -89.948691,1067.8307 c 14.6602,-0.8378 -17.802899,22.684 -25.914399,-19.2815"
       style="fill:none;stroke:#00ffff"
       id="path12758" />
    <path
       inkscape:connector-curvature="0"
       d="m -110.75079,1019.3602 c 1.7804,-2.158 3.6984,-4.2072 5.7804,-6.0771"
       style="fill:none;stroke:#00ffff"
       id="path12760" />
    <path
       inkscape:connector-curvature="0"
       d="m -104.97039,1013.2831 c 6.849799,-6.1521 14.795099,-11.7677 23.326049,-15.32603"
       style="fill:none;stroke:#00ffff"
       id="path12762" />
    <path
       inkscape:connector-curvature="0"
       d="m -81.644341,997.95707 c 2.6539,-1.107 6.10594,-2.5389 9.05774,-1.967"
       style="fill:none;stroke:#00ffff"
       id="path12764" />
    <path
       inkscape:connector-curvature="0"
       d="m -72.586601,995.99007 c 5.23208,1.0139 -0.69043,4.39753 -2.49779,5.45623"
       style="fill:none;stroke:#00ffff"
       id="path12766" />
    <path
       inkscape:connector-curvature="0"
       d="m -75.084391,1001.4463 c -4.04831,2.3785 -8.36655,4.9159 -12.6844,7.453"
       style="fill:none;stroke:#00ffff"
       id="path12768" />
    <path
       inkscape:connector-curvature="0"
       d="m -87.768791,1008.8993 c -2.1645,1.2595 -4.3291,2.5189 -6.4602,3.7588"
       style="fill:none;stroke:#00ffff"
       id="path12770" />
    <path
       inkscape:connector-curvature="0"
       d="m -94.228991,1012.6581 c -2.138,1.2285 -4.2324,2.4526 -6.238699,3.671"
       style="fill:none;stroke:#00ffff"
       id="path12772" />
    <path
       inkscape:connector-curvature="0"
       d="m -100.46769,1016.3291 c -1.9995,1.23 -3.9221,2.4352 -5.7196,3.6198"
       style="fill:none;stroke:#00ffff"
       id="path12774" />
    <path
       inkscape:connector-curvature="0"
       d="m -106.18729,1019.9489 c -0.9008,0.5889 -1.7771,1.1623 -2.6244,1.7163"
       style="fill:none;stroke:#00ffff"
       id="path12776" />
    <path
       inkscape:connector-curvature="0"
       d="m -108.81169,1021.6652 c -0.6141,0.4133 -4.3736,3.7424 -5.1794,3.0977"
       style="fill:none;stroke:#00ffff"
       id="path12778" />
    <path
       inkscape:connector-curvature="0"
       d="m -113.99109,1024.7629 c -0.7974,-0.6384 2.7685,-4.8304 3.2403,-5.4027"
       style="fill:none;stroke:#00ffff"
       id="path12780" />
    <path
       inkscape:connector-curvature="0"
       d="m -170.04049,1057.0558 c 10.2612,4.1349 41.9651,-14.5557 41.9651,-14.5557"
       style="fill:none;stroke:#00ffff"
       id="path12782" />
    <path
       inkscape:connector-curvature="0"
       d="m -128.07539,1042.5001 c -25.3306,44.8008 -48.2143,12.0376 -41.9651,14.5557"
       style="fill:none;stroke:#00ffff"
       id="path12784" />
    <path
       inkscape:connector-curvature="0"
       d="m -155.29589,1067.8307 c 14.6602,0.8382 25.9142,-19.2815 25.9142,-19.2815"
       style="fill:none;stroke:#00ffff"
       id="path12786" />
    <path
       inkscape:connector-curvature="0"
       d="m -129.38169,1048.5492 c -8.1116,41.9655 -40.5744,18.4437 -25.9142,19.2815"
       style="fill:none;stroke:#00ffff"
       id="path12788" />
    <path
       inkscape:connector-curvature="0"
       d="m -171.36399,1050.6287 c 1.5018,-10.1404 41.9823,-10.0189 41.9823,-10.0189"
       style="fill:none;stroke:#00ffff"
       id="path12790" />
    <path
       inkscape:connector-curvature="0"
       d="m -129.38169,1040.6098 c -12.4593,8.3171 -43.484,20.1593 -41.9823,10.0189"
       style="fill:none;stroke:#00ffff"
       id="path12792" />
    <path
       inkscape:connector-curvature="0"
       d="m -164.28819,1033.419 c 19.9156,4.9942 34.9065,3.8796 34.9065,3.8796"
       style="fill:none;stroke:#00ffff"
       id="path12794" />
    <path
       inkscape:connector-curvature="0"
       d="m -129.38169,1037.2986 c -44.2785,6.8458 -34.9065,-3.8796 -34.9065,-3.8796"
       style="fill:none;stroke:#00ffff"
       id="path12796" />
    <path
       inkscape:connector-curvature="0"
       d="m -170.18489,1028.6286 c -1.0936,-0.1931 -2.0831,-0.9906 -2.9329,-2.3468"
       style="fill:none;stroke:#00ffff"
       id="path12798" />
    <path
       inkscape:connector-curvature="0"
       d="m -173.11779,1026.2818 c 3.0035,0.4253 6.0811,0.8614 9.1589,1.2973"
       style="fill:none;stroke:#00ffff"
       id="path12800" />
    <path
       inkscape:connector-curvature="0"
       d="m -163.95889,1027.5791 c 2.4785,0.3616 4.9563,0.7232 7.3959,1.0797"
       style="fill:none;stroke:#00ffff"
       id="path12802" />
    <path
       inkscape:connector-curvature="0"
       d="m -156.56299,1028.6588 c 2.4381,0.3689 4.8392,0.7145 7.1682,1.0102"
       style="fill:none;stroke:#00ffff"
       id="path12804" />
    <path
       inkscape:connector-curvature="0"
       d="m -149.39479,1029.669 c 2.3301,0.282 4.585,0.5356 6.7295,0.7273"
       style="fill:none;stroke:#00ffff"
       id="path12806" />
    <path
       inkscape:connector-curvature="0"
       d="m -142.66529,1030.3963 c 1.0714,0.1 2.1136,0.1968 3.1225,0.2906"
       style="fill:none;stroke:#00ffff"
       id="path12808" />
    <path
       inkscape:connector-curvature="0"
       d="m -139.54279,1030.6869 c 1.0094,0.08 1.9855,0.1587 2.9223,0.2336"
       style="fill:none;stroke:#00ffff"
       id="path12810" />
    <path
       inkscape:connector-curvature="0"
       d="m -136.62049,1030.9205 c 1.8732,0.1506 3.5946,0.2558 5.12,0.3496"
       style="fill:none;stroke:#00ffff"
       id="path12812" />
    <path
       inkscape:connector-curvature="0"
       d="m -131.50049,1031.2701 c 0.8349,0.048 1.6095,0.089 2.3217,0.123"
       style="fill:none;stroke:#00ffff"
       id="path12814" />
    <path
       inkscape:connector-curvature="0"
       d="m -129.17879,1031.3931 c -3.3803,10.6828 -37.0535,-2.0671 -41.0061,-2.7645"
       style="fill:none;stroke:#00ffff"
       id="path12816" />
    <path
       inkscape:connector-curvature="0"
       d="m -174.07309,1023.948 c -0.7695,-0.6413 -0.7134,-1.597 -0.9288,-2.4945"
       style="fill:none;stroke:#00ffff"
       id="path12818" />
    <path
       inkscape:connector-curvature="0"
       d="m -175.00189,1021.4535 c -0.4176,-1.7404 -1.0656,-3.8217 -0.867,-5.621"
       style="fill:none;stroke:#00ffff"
       id="path12820" />
    <path
       inkscape:connector-curvature="0"
       d="m -175.86889,1015.8325 c 0.089,-0.8058 0.3457,-1.2303 1.2104,-1.3835"
       style="fill:none;stroke:#00ffff"
       id="path12822" />
    <path
       inkscape:connector-curvature="0"
       d="m -174.65849,1014.449 c 1.9139,-0.3383 3.5888,1.1143 5.2746,1.6895"
       style="fill:none;stroke:#00ffff"
       id="path12824" />
    <path
       inkscape:connector-curvature="0"
       d="m -169.38389,1016.1385 c 2.4262,0.828 4.8225,1.776 7.2229,2.6775"
       style="fill:none;stroke:#00ffff"
       id="path12826" />
    <path
       inkscape:connector-curvature="0"
       d="m -162.16099,1018.816 c 2.3442,0.8804 4.6889,1.7611 6.9968,2.6281"
       style="fill:none;stroke:#00ffff"
       id="path12828" />
    <path
       inkscape:connector-curvature="0"
       d="m -155.16419,1021.4441 c 2.3036,0.8793 4.5761,1.7276 6.7888,2.5119"
       style="fill:none;stroke:#00ffff"
       id="path12830" />
    <path
       inkscape:connector-curvature="0"
       d="m -148.37539,1023.956 c 2.2169,0.7709 16.7654,4.8261 16.7934,5.4631"
       style="fill:none;stroke:#00ffff"
       id="path12832" />
    <path
       inkscape:connector-curvature="0"
       d="m -131.58199,1029.4191 c 0.082,1.851 -41.4885,-4.6347 -42.4911,-5.4711"
       style="fill:none;stroke:#00ffff"
       id="path12834" />
    <path
       inkscape:connector-curvature="0"
       d="m -175.51809,1000.014 c 0.7385,-0.13963 1.5334,0.8953 2.1169,1.2337"
       style="fill:none;stroke:#00ffff"
       id="path12836" />
    <path
       inkscape:connector-curvature="0"
       d="m -173.40119,1001.2477 c 0.8192,0.4751 1.6585,0.9382 2.4687,1.457"
       style="fill:none;stroke:#00ffff"
       id="path12838" />
    <path
       inkscape:connector-curvature="0"
       d="m -170.93249,1002.7047 c 3.9548,2.5312 8.173,5.2313 12.3915,7.931"
       style="fill:none;stroke:#00ffff"
       id="path12840" />
    <path
       inkscape:connector-curvature="0"
       d="m -158.54099,1010.6357 c 2.1035,1.3591 4.207,2.7179 6.278,4.056"
       style="fill:none;stroke:#00ffff"
       id="path12842" />
    <path
       inkscape:connector-curvature="0"
       d="m -152.26299,1014.6917 c 2.0639,1.3493 20.7687,12.3209 22.5251,13.3672"
       style="fill:none;stroke:#00ffff"
       id="path12844" />
    <path
       inkscape:connector-curvature="0"
       d="m -129.73789,1028.0589 c 0,0.04 -0.01,0.08 -0.024,0.1171"
       style="fill:none;stroke:#00ffff"
       id="path12846" />
    <path
       inkscape:connector-curvature="0"
       d="m -129.76149,1028.176 c -1.3762,1.2697 -37.0034,-13.0136 -39.6405,-13.8783"
       style="fill:none;stroke:#00ffff"
       id="path12848" />
    <path
       inkscape:connector-curvature="0"
       d="m -169.40199,1014.2977 c -1.9998,-0.6556 -4.3335,-1.0561 -6.0135,-2.4033"
       style="fill:none;stroke:#00ffff"
       id="path12850" />
    <path
       inkscape:connector-curvature="0"
       d="m -175.41549,1011.8944 c -0.1088,-0.088 -0.2063,-0.1808 -0.2951,-0.2797"
       style="fill:none;stroke:#00ffff"
       id="path12852" />
    <path
       inkscape:connector-curvature="0"
       d="m -175.71059,1011.6147 c -1.2681,-1.4185 -0.5904,-4.0097 -0.545,-5.745"
       style="fill:none;stroke:#00ffff"
       id="path12854" />
    <path
       inkscape:connector-curvature="0"
       d="m -176.25559,1005.8697 c 0.025,-0.9616 -0.3604,-5.6476 0.7375,-5.8557"
       style="fill:none;stroke:#00ffff"
       id="path12856" />
    <path
       inkscape:connector-curvature="0"
       d="m -172.65839,995.99007 c 2.9522,-0.5719 6.4043,0.86 9.0582,1.967"
       style="fill:none;stroke:#00ffff"
       id="path12858" />
    <path
       inkscape:connector-curvature="0"
       d="m -163.60019,997.95707 c 8.531,3.55833 16.4762,9.17393 23.3262,15.32603"
       style="fill:none;stroke:#00ffff"
       id="path12860" />
    <path
       inkscape:connector-curvature="0"
       d="m -140.27399,1013.2831 c 2.0816,1.8699 3.9998,3.9191 5.7802,6.0771"
       style="fill:none;stroke:#00ffff"
       id="path12862" />
    <path
       inkscape:connector-curvature="0"
       d="m -134.49379,1019.3602 c 0.4716,0.5723 4.0374,4.7643 3.2404,5.4027"
       style="fill:none;stroke:#00ffff"
       id="path12864" />
    <path
       inkscape:connector-curvature="0"
       d="m -131.25339,1024.7629 c -0.8058,0.6447 -4.5653,-2.6844 -5.1798,-3.0977"
       style="fill:none;stroke:#00ffff"
       id="path12866" />
    <path
       inkscape:connector-curvature="0"
       d="m -136.43319,1021.6652 c -0.8472,-0.554 -1.7236,-1.1274 -2.6239,-1.7163"
       style="fill:none;stroke:#00ffff"
       id="path12868" />
    <path
       inkscape:connector-curvature="0"
       d="m -139.05709,1019.9489 c -1.7979,-1.1846 -3.7202,-2.3898 -5.7196,-3.6198"
       style="fill:none;stroke:#00ffff"
       id="path12870" />
    <path
       inkscape:connector-curvature="0"
       d="m -144.77669,1016.3291 c -2.0068,-1.2184 -4.1011,-2.4425 -6.2392,-3.671"
       style="fill:none;stroke:#00ffff"
       id="path12872" />
    <path
       inkscape:connector-curvature="0"
       d="m -151.01589,1012.6581 c -2.1307,-1.2399 -4.2952,-2.4993 -6.4598,-3.7588"
       style="fill:none;stroke:#00ffff"
       id="path12874" />
    <path
       inkscape:connector-curvature="0"
       d="m -157.47569,1008.8993 c -4.3179,-2.5371 -8.6365,-5.0745 -12.6848,-7.453"
       style="fill:none;stroke:#00ffff"
       id="path12876" />
    <path
       inkscape:connector-curvature="0"
       d="m -170.16049,1001.4463 c -1.807,-1.0587 -7.7299,-4.44233 -2.4979,-5.45623"
       style="fill:none;stroke:#00ffff"
       id="path12878" />
    <path
       inkscape:connector-curvature="0"
       d="m -69.205111,991.81227 c -23.39738,1.374 -45.494579,27.76803 -48.971679,33.62403"
       style="fill:none;stroke:#00ffff"
       id="path12880" />
    <path
       inkscape:connector-curvature="0"
       d="m -118.17679,1025.4363 c -0.4468,-0.7978 -1.1922,-1.4948 -2.4186,-1.8564"
       style="fill:none;stroke:#00ffff"
       id="path12882" />
    <path
       inkscape:connector-curvature="0"
       d="m -120.59539,1023.5799 c 0.8902,-0.4919 1.7364,-1.4992 1.7383,-3.5558"
       style="fill:none;stroke:#00ffff"
       id="path12884" />
    <path
       inkscape:connector-curvature="0"
       d="m -118.85709,1020.0241 c 0,-1.2041 -0.2863,-2.0652 -0.7036,-2.6674"
       style="fill:none;stroke:#00ffff"
       id="path12886" />
    <path
       inkscape:connector-curvature="0"
       d="m -121.25779,1016.185 c 0,0 -0.3295,-0.094 -0.4984,-0.1193"
       style="fill:none;stroke:#00ffff"
       id="path12888" />
    <path
       inkscape:connector-curvature="0"
       d="m -121.75619,1016.0657 c -0.2862,-0.043 -0.5771,-0.057 -0.8666,-0.057"
       style="fill:none;stroke:#00ffff"
       id="path12890" />
    <path
       inkscape:connector-curvature="0"
       d="m -122.62279,1016.0083 c -0.2893,0 -0.5801,0.014 -0.8662,0.058"
       style="fill:none;stroke:#00ffff"
       id="path12892" />
    <path
       inkscape:connector-curvature="0"
       d="m -123.48899,1016.0657 c -0.169,0.026 -0.4987,0.1193 -0.4987,0.1193"
       style="fill:none;stroke:#00ffff"
       id="path12894" />
    <path
       inkscape:connector-curvature="0"
       d="m -123.98769,1016.185 c -0.1643,0.039 -0.3331,0.095 -0.5015,0.1707"
       style="fill:none;stroke:#00ffff"
       id="path12896" />
    <path
       inkscape:connector-curvature="0"
       d="m -126.38809,1020.0241 c 0,2.0566 0.8481,3.0639 1.7383,3.5558"
       style="fill:none;stroke:#00ffff"
       id="path12898" />
    <path
       inkscape:connector-curvature="0"
       d="m -124.64979,1023.5799 c -1.2264,0.3616 -1.9718,1.0586 -2.4185,1.8564"
       style="fill:none;stroke:#00ffff"
       id="path12900" />
    <path
       inkscape:connector-curvature="0"
       d="m -127.06829,1025.4363 c -3.4772,-5.856 -25.5745,-32.25003 -48.9722,-33.62403"
       style="fill:none;stroke:#00ffff"
       id="path12902" />
    <path
       inkscape:connector-curvature="0"
       d="m -176.04049,991.81227 c 0,0 -3.3087,-0.2015 -2.8231,11.36313"
       style="fill:none;stroke:#00ffff"
       id="path12904" />
    <path
       inkscape:connector-curvature="0"
       d="m -178.86359,1003.1754 c 0.4162,9.9112 0.1838,23.5164 5.533,27.1245"
       style="fill:none;stroke:#00ffff"
       id="path12906" />
    <path
       inkscape:connector-curvature="0"
       d="m -173.33059,1030.2999 c 0.5955,0.4016 1.2598,0.6821 2.0031,0.8163"
       style="fill:none;stroke:#00ffff"
       id="path12908" />
    <path
       inkscape:connector-curvature="0"
       d="m -171.32749,1031.1162 c 0,0 0.083,0.1608 0.2324,0.4464"
       style="fill:none;stroke:#00ffff"
       id="path12910" />
    <path
       inkscape:connector-curvature="0"
       d="m -171.09509,1031.5626 c 0.5049,0.9626 1.8073,3.4179 3.5761,6.5356"
       style="fill:none;stroke:#00ffff"
       id="path12912" />
    <path
       inkscape:connector-curvature="0"
       d="m -167.51899,1038.0982 c 0.6857,1.2092 2.0059,2.4639 4.22,2.6451"
       style="fill:none;stroke:#00ffff"
       id="path12914" />
    <path
       inkscape:connector-curvature="0"
       d="m -163.29899,1040.7433 c -3.1177,1.8405 -5.7734,3.5245 -6.9703,4.3365"
       style="fill:none;stroke:#00ffff"
       id="path12916" />
    <path
       inkscape:connector-curvature="0"
       d="m -170.26929,1045.0798 c -9.9843,6.7702 1.2867,31.5434 15.2328,33.4271"
       style="fill:none;stroke:#00ffff"
       id="path12918" />
    <path
       inkscape:connector-curvature="0"
       d="m -155.03649,1078.5069 c 12.5997,1.7041 29.9559,-13.9635 28.7198,-38.8335"
       style="fill:none;stroke:#00ffff"
       id="path12920" />
    <path
       inkscape:connector-curvature="0"
       d="m -126.31669,1039.6734 c 1.7112,11.1008 3.491,11.3366 3.6939,11.326"
       style="fill:none;stroke:#00ffff"
       id="path12922" />
    <path
       inkscape:connector-curvature="0"
       d="m -122.62279,1050.9994 c 0.2034,0.01 1.9831,-0.2252 3.6943,-11.326"
       style="fill:none;stroke:#00ffff"
       id="path12924" />
    <path
       inkscape:connector-curvature="0"
       d="m -118.92849,1039.6734 c -1.2361,24.87 16.1201,40.5376 28.719799,38.8335"
       style="fill:none;stroke:#00ffff"
       id="path12926" />
    <path
       inkscape:connector-curvature="0"
       d="m -90.208691,1078.5069 c 13.94598,-1.8837 25.21667,-26.6569 15.23271,-33.4271"
       style="fill:none;stroke:#00ffff"
       id="path12928" />
    <path
       inkscape:connector-curvature="0"
       d="m -74.975981,1045.0798 c -1.19688,-0.812 -3.85256,-2.496 -6.97028,-4.3365"
       style="fill:none;stroke:#00ffff"
       id="path12930" />
    <path
       inkscape:connector-curvature="0"
       d="m -81.946261,1040.7433 c 2.21403,-0.1812 3.53428,-1.4359 4.21962,-2.6451"
       style="fill:none;stroke:#00ffff"
       id="path12932" />
    <path
       inkscape:connector-curvature="0"
       d="m -77.726641,1038.0982 c 1.76917,-3.1177 3.07156,-5.573 3.57648,-6.5356"
       style="fill:none;stroke:#00ffff"
       id="path12934" />
    <path
       inkscape:connector-curvature="0"
       d="m -74.150161,1031.5626 c 0.14951,-0.2856 0.2321,-0.4464 0.2321,-0.4464"
       style="fill:none;stroke:#00ffff"
       id="path12936" />
    <path
       inkscape:connector-curvature="0"
       d="m -73.918061,1031.1162 c 0.74322,-0.1342 1.40751,-0.4147 2.00341,-0.8163"
       style="fill:none;stroke:#00ffff"
       id="path12938" />
    <path
       inkscape:connector-curvature="0"
       d="m -71.914651,1030.2999 c 5.34886,-3.6081 5.11676,-17.2133 5.53294,-27.1245"
       style="fill:none;stroke:#00ffff"
       id="path12940" />
    <path
       inkscape:connector-curvature="0"
       d="m -66.381711,1003.1754 c 0.48568,-11.56463 -2.8234,-11.36313 -2.8234,-11.36313"
       style="fill:none;stroke:#00ffff"
       id="path12942" />
    <path
       inkscape:connector-curvature="0"
       d="m -125.68479,1017.3564 c -0.3721,-0.4353 -0.7611,-0.8892 -1.1521,-1.3328"
       style="fill:none;stroke:#00ffff"
       id="path12944" />
    <path
       inkscape:connector-curvature="0"
       d="m -126.83689,1016.0236 c -0.3983,-0.4519 -0.7878,-0.8808 -1.1814,-1.293"
       style="fill:none;stroke:#00ffff"
       id="path12946" />
    <path
       inkscape:connector-curvature="0"
       d="m -128.01829,1014.7306 c -0.7792,-0.8112 -1.4678,-1.4757 -2.2302,-2.0101"
       style="fill:none;stroke:#00ffff"
       id="path12948" />
    <path
       inkscape:connector-curvature="0"
       d="m -130.24849,1012.7205 c -0.7056,-0.4714 -1.2872,-0.7863 -1.8804,-0.8154"
       style="fill:none;stroke:#00ffff"
       id="path12950" />
    <path
       inkscape:connector-curvature="0"
       d="m -132.12889,1011.9051 c -0.02,0 -0.038,0 -0.055,0"
       style="fill:none;stroke:#00ffff"
       id="path12952" />
    <path
       inkscape:connector-curvature="0"
       d="m -132.18419,1011.9069 c 0.041,0.084 0.092,0.1713 0.1438,0.2567"
       style="fill:none;stroke:#00ffff"
       id="path12954" />
    <path
       inkscape:connector-curvature="0"
       d="m -132.04039,1012.1636 c 0.2203,0.3589 0.4534,0.6598 0.6231,0.9095"
       style="fill:none;stroke:#00ffff"
       id="path12956" />
    <path
       inkscape:connector-curvature="0"
       d="m -131.41729,1013.0731 c 0.1094,0.161 0.1906,0.2894 0.2494,0.4062"
       style="fill:none;stroke:#00ffff"
       id="path12958" />
    <path
       inkscape:connector-curvature="0"
       d="m -131.16789,1013.4793 c 0.033,0.065 0.056,0.1205 0.069,0.1701"
       style="fill:none;stroke:#00ffff"
       id="path12960" />
    <path
       inkscape:connector-curvature="0"
       d="m -131.09859,1013.6494 c 0.022,0.085 0.017,0.1363 -0.018,0.1575"
       style="fill:none;stroke:#00ffff"
       id="path12962" />
    <path
       inkscape:connector-curvature="0"
       d="m -131.11679,1013.8069 c -0.026,0.015 -0.085,0.014 -0.1489,-0.012"
       style="fill:none;stroke:#00ffff"
       id="path12964" />
    <path
       inkscape:connector-curvature="0"
       d="m -131.26569,1013.795 c -0.041,-0.015 -0.096,-0.04 -0.155,-0.072"
       style="fill:none;stroke:#00ffff"
       id="path12966" />
    <path
       inkscape:connector-curvature="0"
       d="m -131.42069,1013.7232 c -0.1022,-0.055 -0.2452,-0.1415 -0.3999,-0.2486"
       style="fill:none;stroke:#00ffff"
       id="path12968" />
    <path
       inkscape:connector-curvature="0"
       d="m -131.82059,1013.4746 c -0.2331,-0.1605 -0.582,-0.423 -0.912,-0.7636"
       style="fill:none;stroke:#00ffff"
       id="path12970" />
    <path
       inkscape:connector-curvature="0"
       d="m -132.73259,1012.711 c -0.119,-0.1213 -0.2502,-0.2728 -0.3698,-0.4631"
       style="fill:none;stroke:#00ffff"
       id="path12972" />
    <path
       inkscape:connector-curvature="0"
       d="m -133.10239,1012.2479 c -0.089,-0.1184 -0.1733,-0.3137 -0.193,-0.6003"
       style="fill:none;stroke:#00ffff"
       id="path12974" />
    <path
       inkscape:connector-curvature="0"
       d="m -133.29539,1011.6476 c 0,-0.1229 0.029,-0.2573 0.1021,-0.3968"
       style="fill:none;stroke:#00ffff"
       id="path12976" />
    <path
       inkscape:connector-curvature="0"
       d="m -133.19329,1011.2508 c 0.085,-0.1397 0.1876,-0.2436 0.298,-0.3069"
       style="fill:none;stroke:#00ffff"
       id="path12978" />
    <path
       inkscape:connector-curvature="0"
       d="m -132.89529,1010.9439 c 0.2941,-0.1589 0.5664,-0.2121 0.7629,-0.2036"
       style="fill:none;stroke:#00ffff"
       id="path12980" />
    <path
       inkscape:connector-curvature="0"
       d="m -132.13239,1010.7403 c 0.9082,-0.033 1.8154,0.2706 2.6503,0.7981"
       style="fill:none;stroke:#00ffff"
       id="path12982" />
    <path
       inkscape:connector-curvature="0"
       d="m -129.48209,1011.5384 c 0.9241,0.5594 1.7522,1.2714 2.5785,2.1025"
       style="fill:none;stroke:#00ffff"
       id="path12984" />
    <path
       inkscape:connector-curvature="0"
       d="m -126.90359,1013.6409 c 0.4249,0.425 0.8398,0.8707 1.2517,1.3377"
       style="fill:none;stroke:#00ffff"
       id="path12986" />
    <path
       inkscape:connector-curvature="0"
       d="m -125.65189,1014.9786 c 0.4069,0.4611 0.7952,0.9254 1.1627,1.3771"
       style="fill:none;stroke:#00ffff"
       id="path12988" />
    <path
       inkscape:connector-curvature="0"
       d="m -120.75619,1016.3558 c 0.3676,-0.4517 0.756,-0.916 1.1629,-1.3772"
       style="fill:none;stroke:#00ffff"
       id="path12990" />
    <path
       inkscape:connector-curvature="0"
       d="m -119.59329,1014.9786 c 0.4119,-0.467 0.8268,-0.9127 1.2517,-1.3377"
       style="fill:none;stroke:#00ffff"
       id="path12992" />
    <path
       inkscape:connector-curvature="0"
       d="m -118.34159,1013.6409 c 0.8263,-0.8311 1.6544,-1.5431 2.5784,-2.1025"
       style="fill:none;stroke:#00ffff"
       id="path12994" />
    <path
       inkscape:connector-curvature="0"
       d="m -115.76319,1011.5384 c 0.835,-0.5275 1.7422,-0.8313 2.6504,-0.7981"
       style="fill:none;stroke:#00ffff"
       id="path12996" />
    <path
       inkscape:connector-curvature="0"
       d="m -113.11279,1010.7403 c 0.1965,-0.01 0.4687,0.045 0.7629,0.2036"
       style="fill:none;stroke:#00ffff"
       id="path12998" />
    <path
       inkscape:connector-curvature="0"
       d="m -112.34989,1010.9439 c 0.1104,0.063 0.2125,0.1672 0.298,0.3069"
       style="fill:none;stroke:#00ffff"
       id="path13000" />
    <path
       inkscape:connector-curvature="0"
       d="m -112.05189,1011.2508 c 0.073,0.1395 0.1051,0.2739 0.1021,0.3968"
       style="fill:none;stroke:#00ffff"
       id="path13002" />
    <path
       inkscape:connector-curvature="0"
       d="m -111.94979,1011.6476 c -0.02,0.2866 -0.1038,0.4819 -0.193,0.6003"
       style="fill:none;stroke:#00ffff"
       id="path13004" />
    <path
       inkscape:connector-curvature="0"
       d="m -112.14279,1012.2479 c -0.1196,0.1903 -0.2508,0.3418 -0.3698,0.4631"
       style="fill:none;stroke:#00ffff"
       id="path13006" />
    <path
       inkscape:connector-curvature="0"
       d="m -112.51259,1012.711 c -0.33,0.3406 -0.6789,0.6031 -0.912,0.7636"
       style="fill:none;stroke:#00ffff"
       id="path13008" />
    <path
       inkscape:connector-curvature="0"
       d="m -113.42459,1013.4746 c -0.1547,0.1071 -0.2978,0.194 -0.3999,0.2486"
       style="fill:none;stroke:#00ffff"
       id="path13010" />
    <path
       inkscape:connector-curvature="0"
       d="m -113.82449,1013.7232 c -0.059,0.032 -0.1138,0.057 -0.155,0.072"
       style="fill:none;stroke:#00ffff"
       id="path13012" />
    <path
       inkscape:connector-curvature="0"
       d="m -113.97949,1013.795 c -0.063,0.026 -0.1229,0.027 -0.1489,0.012"
       style="fill:none;stroke:#00ffff"
       id="path13014" />
    <path
       inkscape:connector-curvature="0"
       d="m -114.12839,1013.8069 c -0.036,-0.021 -0.04,-0.073 -0.018,-0.1575"
       style="fill:none;stroke:#00ffff"
       id="path13016" />
    <path
       inkscape:connector-curvature="0"
       d="m -114.14669,1013.6494 c 0.014,-0.05 0.037,-0.1051 0.069,-0.1701"
       style="fill:none;stroke:#00ffff"
       id="path13018" />
    <path
       inkscape:connector-curvature="0"
       d="m -114.07729,1013.4793 c 0.059,-0.1168 0.14,-0.2452 0.2494,-0.4062"
       style="fill:none;stroke:#00ffff"
       id="path13020" />
    <path
       inkscape:connector-curvature="0"
       d="m -113.82789,1013.0731 c 0.1696,-0.2497 0.4028,-0.5506 0.6231,-0.9095"
       style="fill:none;stroke:#00ffff"
       id="path13022" />
    <path
       inkscape:connector-curvature="0"
       d="m -113.20479,1012.1636 c 0.052,-0.086 0.103,-0.1723 0.1438,-0.2567"
       style="fill:none;stroke:#00ffff"
       id="path13024" />
    <path
       inkscape:connector-curvature="0"
       d="m -113.11629,1011.9051 c -0.5932,0.029 -1.1748,0.344 -1.8804,0.8154"
       style="fill:none;stroke:#00ffff"
       id="path13026" />
    <path
       inkscape:connector-curvature="0"
       d="m -114.99669,1012.7205 c -0.7624,0.5344 -1.451,1.1989 -2.2302,2.0101"
       style="fill:none;stroke:#00ffff"
       id="path13028" />
    <path
       inkscape:connector-curvature="0"
       d="m -117.22689,1014.7306 c -0.3936,0.4122 -0.7831,0.8411 -1.1814,1.2929"
       style="fill:none;stroke:#00ffff"
       id="path13030" />
    <path
       inkscape:connector-curvature="0"
       d="m -118.40829,1016.0235 c -0.3911,0.4438 -0.7802,0.8979 -1.1524,1.3332"
       style="fill:none;stroke:#00ffff"
       id="path13032" />
    <path
       inkscape:connector-curvature="0"
       d="m -113.06099,1011.9069 c -0.017,0 -0.036,-6e-4 -0.055,0"
       style="fill:none;stroke:#00ffff"
       id="path13034" />
    <path
       inkscape:connector-curvature="0"
       d="m -120.75619,1016.3558 c -0.1684,-0.075 -0.3373,-0.1314 -0.5016,-0.1708"
       style="fill:none;stroke:#00ffff"
       id="path13036" />
    <path
       inkscape:connector-curvature="0"
       d="m -125.68479,1017.3564 c -0.4175,0.6022 -0.7038,1.4634 -0.7033,2.6677"
       style="fill:none;stroke:#00ffff"
       id="path13038" />
    <path
       inkscape:connector-curvature="0"
       d="m -131.09859,1013.6494 0,0"
       style="fill:none;stroke:#00ffff"
       id="path13040" />
    <path
       inkscape:connector-curvature="0"
       d="m -131.09859,1013.6494 0,0"
       style="fill:none;stroke:#00ffff"
       id="path13042" />
    <path
       inkscape:connector-curvature="0"
       d="m -131.26569,1013.795 0,0"
       style="fill:none;stroke:#00ffff"
       id="path13044" />
    <path
       inkscape:connector-curvature="0"
       d="m -131.26569,1013.795 0,0"
       style="fill:none;stroke:#00ffff"
       id="path13046" />
    <path
       inkscape:connector-curvature="0"
       d="m -133.19329,1011.2508 0,0"
       style="fill:none;stroke:#00ffff"
       id="path13048" />
    <path
       inkscape:connector-curvature="0"
       d="m -133.19329,1011.2508 0,0"
       style="fill:none;stroke:#00ffff"
       id="path13050" />
    <path
       inkscape:connector-curvature="0"
       d="m -112.05189,1011.2508 0,0"
       style="fill:none;stroke:#00ffff"
       id="path13052" />
    <path
       inkscape:connector-curvature="0"
       d="m -112.05189,1011.2508 0,0"
       style="fill:none;stroke:#00ffff"
       id="path13054" />
    <path
       inkscape:connector-curvature="0"
       d="m -113.97949,1013.795 0,0"
       style="fill:none;stroke:#00ffff"
       id="path13056" />
    <path
       inkscape:connector-curvature="0"
       d="m -113.97949,1013.795 0,0"
       style="fill:none;stroke:#00ffff"
       id="path13058" />
    <path
       inkscape:connector-curvature="0"
       d="m -114.14669,1013.6494 0,0"
       style="fill:none;stroke:#00ffff"
       id="path13060" />
    <path
       inkscape:connector-curvature="0"
       d="m -114.14669,1013.6494 0,0"
       style="fill:none;stroke:#00ffff"
       id="path13062" />
  </g>
</svg>
