<?xml version="1.0" encoding="UTF-8" standalone="no"?>
<!-- Created with Inkscape (http://www.inkscape.org/) -->

<svg
   xmlns:dc="http://purl.org/dc/elements/1.1/"
   xmlns:cc="http://creativecommons.org/ns#"
   xmlns:rdf="http://www.w3.org/1999/02/22-rdf-syntax-ns#"
   xmlns:svg="http://www.w3.org/2000/svg"
   xmlns="http://www.w3.org/2000/svg"
   xmlns:sodipodi="http://sodipodi.sourceforge.net/DTD/sodipodi-0.dtd"
   xmlns:inkscape="http://www.inkscape.org/namespaces/inkscape"
   width="210mm"
   height="297mm"
   viewBox="0 0 744.09448819 1052.3622047"
   id="svg16428"
   version="1.1"
   inkscape:version="0.91 r13725"
   sodipodi:docname="butterfly-inside.svg">
  <defs
     id="defs16430" />
  <sodipodi:namedview
     id="base"
     pagecolor="#ffffff"
     bordercolor="#666666"
     borderopacity="1.0"
     inkscape:pageopacity="0.0"
     inkscape:pageshadow="2"
     inkscape:zoom="2.8"
     inkscape:cx="490.45413"
     inkscape:cy="-105.18133"
     inkscape:document-units="px"
     inkscape:current-layer="layer1"
     showgrid="false"
     inkscape:window-width="1280"
     inkscape:window-height="737"
     inkscape:window-x="0"
     inkscape:window-y="30"
     inkscape:window-maximized="1" />
  <metadata
     id="metadata16433">
    <rdf:RDF>
      <cc:Work
         rdf:about="">
        <dc:format>image/svg+xml</dc:format>
        <dc:type
           rdf:resource="http://purl.org/dc/dcmitype/StillImage" />
        <dc:title></dc:title>
      </cc:Work>
    </rdf:RDF>
  </metadata>
  <g
     inkscape:label="Layer 1"
     inkscape:groupmode="layer"
     id="layer1">
    <path
       id="path13062"
       style="color:#000000;font-style:normal;font-variant:normal;font-weight:normal;font-stretch:normal;font-size:medium;line-height:normal;font-family:sans-serif;text-indent:0;text-align:start;text-decoration:none;text-decoration-line:none;text-decoration-style:solid;text-decoration-color:#000000;letter-spacing:normal;word-spacing:normal;text-transform:none;direction:ltr;block-progression:tb;writing-mode:lr-tb;baseline-shift:baseline;text-anchor:start;white-space:normal;clip-rule:nonzero;display:inline;overflow:visible;visibility:visible;opacity:1;isolation:auto;mix-blend-mode:normal;color-interpolation:sRGB;color-interpolation-filters:linearRGB;solid-color:#000000;solid-opacity:1;fill:#00ffff;fill-opacity:1;fill-rule:nonzero;stroke:none;stroke-width:1;stroke-linecap:butt;stroke-linejoin:miter;stroke-miterlimit:4;stroke-dasharray:none;stroke-dashoffset:0;stroke-opacity:1;color-rendering:auto;image-rendering:auto;shape-rendering:auto;text-rendering:auto;enable-background:accumulate"
       d="m 505.26088,1137.4146 0,1 0,-1 z m 0,0 0,1 0,-1 z m 0.16797,0.1465 0,1 0,-1 z m 0,0 0,1 0,-1 z m 1.92774,-2.5449 0,1 0,-1 z m 0,0 0,1 0,-1 z m -21.14063,0 0,1 0,-1 z m 0,0 0,1 0,-1 z m 1.92578,2.5449 0,1 0,-1 z m 0,0 0,1 0,-1 z m 0.16797,-0.1465 0,1 0,-1 z m 0,0 0,1 0,-1 z m 5.00195,3.9219 c -0.48369,0.6977 -0.79154,1.6695 -0.79101,2.9531 l 1,0 c -4.7e-4,-1.125 0.26197,-1.8761 0.61328,-2.3828 l -0.82227,-0.5703 z m 4.95508,-1.3711 -0.23242,0.9726 c 0.13464,0.032 0.27406,0.078 0.41406,0.1407 l 0.40625,-0.9141 c -0.1968,-0.088 -0.39393,-0.1527 -0.58789,-0.1992 z m 8.00977,-4.293 0.0312,1 c -0.002,10e-5 0.0103,0 0.0391,0 l 0,-1 c -0.005,0 -0.0303,0 -0.0703,0 z m -5.65235,4.2871 c -0.39419,0.4473 -0.78381,0.9023 -1.15625,1.3379 l 0.75977,0.6504 c 0.37196,-0.435 0.76043,-0.8878 1.14844,-1.3281 l -0.75196,-0.6602 z m 1.19532,-1.3086 c -0.39946,0.4184 -0.79389,0.8533 -1.19532,1.3086 l 0.75,0.6602 c 0.39518,-0.4483 0.78023,-0.8713 1.16797,-1.2774 l -0.72265,-0.6914 z m 2.30468,-2.0742 c -0.80605,0.565 -1.51608,1.2553 -2.30273,2.0742 l 0.7207,0.6914 c 0.77175,-0.8034 1.43751,-1.4434 2.15625,-1.9472 l -0.57422,-0.8184 z m 2.14258,-0.9043 c -0.75365,0.037 -1.40723,0.4137 -2.13281,0.8985 l 0.55469,0.832 c 0.68562,-0.4581 1.1942,-0.7113 1.62695,-0.7324 l -0.0488,-0.9981 z m -0.36914,0.2832 c -0.0279,0.058 -0.0708,0.1317 -0.12109,0.2149 l 0.85547,0.5175 c 0.0537,-0.089 0.11228,-0.1857 0.16601,-0.2968 l -0.90039,-0.4356 z m -0.12109,0.2129 c -0.20319,0.331 -0.42498,0.6172 -0.60938,0.8887 l 0.82618,0.5625 c 0.1548,-0.2279 0.3993,-0.541 0.63671,-0.9278 l -0.85351,-0.5234 z m -0.60938,0.8887 c -0.11437,0.1683 -0.20765,0.3133 -0.2832,0.4629 l 0.89258,0.4511 c 0.0425,-0.084 0.11237,-0.1978 0.2168,-0.3515 l -0.82618,-0.5625 z m -0.28515,0.4668 c -0.0395,0.08 -0.0749,0.1608 -0.10157,0.2558 l 0.9629,0.2696 c 10e-4,0 0.0107,-0.034 0.0352,-0.084 l -0.89648,-0.4414 z m -0.10352,0.2656 c -0.0192,0.074 -0.0407,0.1539 -0.0273,0.2813 0.0134,0.1274 0.11115,0.3366 0.27734,0.4336 l 0.33008,-0.5645 -0.58008,-0.1504 z m 0.5918,0.1289 -0.33985,0.5879 c 0.16113,0.093 0.25428,0.08 0.3418,0.074 0.0875,-0.01 0.16698,-0.023 0.24805,-0.057 l -0.25,-0.6055 z m -0.0254,-0.3691 c -0.0409,0.022 -0.0806,0.038 -0.0879,0.041 l 0.34375,0.9414 c 0.0751,-0.027 0.14358,-0.062 0.2207,-0.1035 l -0.47656,-0.8789 z m 0.35351,-0.2207 c -0.14012,0.097 -0.27073,0.1765 -0.34961,0.2187 l 0.47071,0.8828 c 0.12532,-0.067 0.27994,-0.1621 0.44922,-0.2793 l -0.57032,-0.8222 z m 0.83789,-0.6992 c -0.29678,0.3063 -0.62062,0.5509 -0.83593,0.6992 l 0.5664,0.8242 c 0.25089,-0.1728 0.62507,-0.4533 0.98828,-0.8281 l -0.71875,-0.6953 z m 0.30664,-0.3809 c -0.0956,0.152 -0.20277,0.275 -0.30468,0.3789 l 0.71484,0.6992 c 0.13609,-0.1387 0.2919,-0.3183 0.43555,-0.5469 l -0.84571,-0.5312 z m 0.11719,-0.3691 c -0.0143,0.2055 -0.073,0.3064 -0.0937,0.3339 l 0.79883,0.6016 c 0.15764,-0.2093 0.26731,-0.4996 0.29297,-0.8672 l -0.99805,-0.068 z m 0.83985,-0.5938 -0.88672,0.4629 c 0.0397,0.076 0.0456,0.1253 0.0449,0.1523 l 1,0.025 c 0.005,-0.2188 -0.0519,-0.4376 -0.1582,-0.6406 z m -0.49414,-0.5098 -0.4961,0.8672 c 0.0195,0.011 0.0703,0.052 0.1211,0.1348 l 0.85156,-0.5215 c -0.12023,-0.1964 -0.27529,-0.3656 -0.47656,-0.4805 z m -1.03516,-0.2695 0.0508,1 c 0.0802,0 0.27669,0.022 0.5,0.1426 l 0.47461,-0.8789 c -0.36509,-0.1968 -0.71255,-0.2796 -1.02539,-0.2637 z m 0.043,0 c -1.03163,-0.038 -2.03558,0.3065 -2.93555,0.875 l 0.5332,0.8457 c 0.77004,-0.4865 1.58047,-0.7494 2.36524,-0.7207 l 0.0371,-1 z m -2.92774,0.8711 c -0.97157,0.5882 -1.83043,1.3294 -2.67383,2.1777 l 0.70899,0.7032 c 0.8092,-0.8139 1.60599,-1.4948 2.48242,-2.0254 l -0.51758,-0.8555 z m -2.67187,2.1758 c -0.43341,0.4335 -0.85575,0.8877 -1.27344,1.3613 l 0.75,0.6602 c 0.40611,-0.4605 0.81408,-0.898 1.23047,-1.3145 l -0.70703,-0.707 z m -1.27344,1.3613 c -0.41261,0.4677 -0.80523,0.9353 -1.17578,1.3906 l 0.77539,0.6328 c 0.36464,-0.448 0.7492,-0.9085 1.15039,-1.3632 l -0.75,-0.6602 z m -5.30859,0 -0.75,0.6602 c 0.40114,0.4545 0.78389,0.9152 1.14843,1.3632 l 0.77735,-0.6328 c -0.37046,-0.4553 -0.76312,-0.923 -1.17578,-1.3906 z m -1.27344,-1.3613 -0.70703,0.707 c 0.41639,0.4165 0.82435,0.854 1.23047,1.3145 l 0.75,-0.6602 c -0.41769,-0.4736 -0.84003,-0.9278 -1.27344,-1.3613 z m -2.67383,-2.1758 -0.51758,0.8555 c 0.87652,0.5306 1.67322,1.2115 2.48242,2.0254 l 0.70899,-0.7032 c -0.8434,-0.8483 -1.70214,-1.5895 -2.67383,-2.1777 z m -2.92773,-0.8711 0.0371,1 c 0.78491,-0.029 1.59536,0.2343 2.36523,0.7207 l 0.5332,-0.8457 c -0.89993,-0.5686 -1.90406,-0.9125 -2.93554,-0.875 z m 0.041,0 c -0.30642,-0.013 -0.65684,0.066 -1.02344,0.2637 l 0.47657,0.8789 c 0.2216,-0.1198 0.41732,-0.1463 0.5039,-0.1426 l 0.043,-1 z m -1.0332,0.2695 c -0.19925,0.1143 -0.35592,0.2822 -0.47656,0.4805 l 0.85351,0.5195 c 0.0494,-0.081 0.0976,-0.1204 0.11914,-0.1328 l -0.49609,-0.8672 z m -0.49219,0.5078 c -0.10915,0.2083 -0.16015,0.4274 -0.16015,0.629 l 1,0 c 0,-0.044 0.008,-0.093 0.0449,-0.1641 l -0.88477,-0.4649 z m 0.83985,0.5958 -0.99805,0.068 c 0.0253,0.3685 0.13445,0.6589 0.29101,0.8672 l 0.80079,-0.6016 c -0.0214,-0.028 -0.0797,-0.1292 -0.0937,-0.3339 z m 0.11718,0.3691 -0.84765,0.5312 c 0.14364,0.2286 0.30141,0.4082 0.4375,0.5469 l 0.71289,-0.6992 c -0.10191,-0.1039 -0.20718,-0.2269 -0.30274,-0.3789 z m 0.30469,0.3809 -0.7168,0.6953 c 0.36322,0.3748 0.73544,0.6553 0.98633,0.8281 l 0.56836,-0.8242 c -0.21531,-0.1483 -0.54111,-0.3929 -0.83789,-0.6992 z m 0.83789,0.6992 -0.56836,0.8222 c 0.16967,0.1175 0.32381,0.2129 0.44727,0.2793 l 0.47265,-0.8808 c -0.0809,-0.044 -0.21183,-0.124 -0.35156,-0.2207 z m 0.35352,0.2207 -0.47657,0.8789 c 0.0775,0.042 0.14881,0.075 0.22266,0.1015 l 0.3418,-0.9394 c -0.008,0 -0.0474,-0.019 -0.0879,-0.041 z m -0.0234,0.3672 -0.24805,0.6074 c 0.0796,0.032 0.15853,0.051 0.2461,0.057 0.0876,0.01 0.18283,0.017 0.34179,-0.074 l -0.33984,-0.5898 z m 0.5918,-0.127 -0.58204,0.1523 0.3379,0.5586 c 0.16133,-0.098 0.25559,-0.3012 0.26953,-0.4277 0.0139,-0.1265 -0.006,-0.2082 -0.0254,-0.2832 z m -0.10743,-0.2715 -0.89257,0.4531 c 0.0234,0.046 0.0317,0.072 0.0312,0.07 l 0.96679,-0.2539 c -0.0265,-0.1011 -0.0629,-0.1858 -0.10547,-0.2696 z m -0.28125,-0.4609 -0.82812,0.5625 c 0.10458,0.1539 0.17495,0.2665 0.2168,0.3496 l 0.89257,-0.4492 c -0.0757,-0.1505 -0.16703,-0.2948 -0.28125,-0.4629 z m -0.61132,-0.8887 -0.85157,0.5234 c 0.23738,0.3868 0.47975,0.6997 0.63477,0.9278 l 0.82812,-0.5625 c -0.18438,-0.2713 -0.4081,-0.5576 -0.61132,-0.8887 z m -0.1211,-0.2148 -0.89844,0.4375 c 0.0528,0.1081 0.11133,0.2067 0.16602,0.2968 l 0.85547,-0.5175 c -0.0489,-0.081 -0.0938,-0.157 -0.12305,-0.2168 z m -0.44922,-0.2832 0,1 0.0566,0 0,-1 -0.0566,0 z m 0.0801,0 -0.0488,0.9981 c 0.43287,0.021 0.94136,0.2744 1.62696,0.7324 l 0.55468,-0.832 c -0.7256,-0.4848 -1.37927,-0.8615 -2.13281,-0.8985 z m 2.14258,0.9043 -0.57422,0.8184 c 0.71875,0.5038 1.38645,1.1438 2.1582,1.9472 l 0.72071,-0.6914 c -0.78665,-0.8189 -1.49864,-1.5092 -2.30469,-2.0742 z m 2.30469,2.0742 -0.72266,0.6914 c 0.38775,0.4061 0.77282,0.8291 1.16797,1.2774 l 0.75,-0.6602 c -0.40145,-0.4554 -0.79586,-0.8902 -1.19531,-1.3086 z m 1.19531,1.3086 -0.75,0.6602 c 0.3879,0.4401 0.77467,0.8931 1.14648,1.3281 l 0.75977,-0.6504 c -0.37239,-0.4356 -0.76215,-0.8908 -1.15625,-1.3379 z m 57.22656,-24.3808 0.0606,0.998 c 0,0 -0.026,0 0.0176,0.01 0.0436,0.01 0.12176,0.03 0.22656,0.086 0.2096,0.1121 0.53535,0.3673 0.88086,0.9961 0.69101,1.2577 1.40882,4.021 1.16797,9.7559 l 1,0.041 c 0.24483,-5.8298 -0.44891,-8.7466 -1.29102,-10.2793 -0.42105,-0.7664 -0.89143,-1.1849 -1.28711,-1.3965 -0.19784,-0.1058 -0.37432,-0.1597 -0.50976,-0.1855 -0.13545,-0.026 -0.26563,-0.022 -0.26563,-0.022 z m 2.35352,11.8418 c -0.20866,4.969 -0.25548,10.8375 -0.91211,15.8828 -0.65663,5.0453 -1.97028,9.2084 -4.40039,10.8476 l 0.55859,0.8301 c 2.91875,-1.9688 4.16541,-6.4117 4.83399,-11.5488 0.66858,-5.1371 0.71239,-11.0286 0.91992,-15.9707 l -1,-0.041 z m -5.3125,26.7304 c -0.54257,0.3657 -1.13791,0.6165 -1.8125,0.7383 l 0.17773,0.9844 c 0.81185,-0.1466 1.54413,-0.455 2.19336,-0.8926 l -0.55859,-0.8301 z m -2.16797,1.002 c 0,0 -0.0816,0.159 -0.23047,0.4433 l 0.88477,0.4649 c 0.15018,-0.2869 0.23437,-0.4512 0.23437,-0.4512 l -0.88867,-0.457 z m -0.23047,0.4433 c -0.50309,0.9592 -1.80282,3.4102 -3.56836,6.5215 l 0.86914,0.4922 c 1.7728,-3.1241 3.07724,-5.5827 3.58399,-6.5488 l -0.88477,-0.4649 z m -3.56836,6.5215 c -0.62267,1.0987 -1.78305,2.2254 -3.82617,2.3926 l 0.082,0.9981 c 2.38494,-0.1952 3.86528,-1.5787 4.61328,-2.8985 l -0.86914,-0.4922 z m -3.53125,2.461 -0.50781,0.8613 c 3.10978,1.8358 5.76505,3.5209 6.94336,4.3203 l 0.5625,-0.8281 c -1.21546,-0.8246 -3.87239,-2.5083 -6.99805,-4.3535 z m 6.99609,4.3535 -0.56054,0.8281 c 2.34259,1.5885 3.44893,4.2224 3.57422,7.4199 0.12529,3.1976 -0.75988,6.9229 -2.39063,10.5039 -3.2615,7.1622 -9.50057,13.6885 -16.20312,14.5938 l 0.13476,0.9902 c 7.24343,-0.9784 13.61417,-7.7819 16.97852,-15.1699 1.68217,-3.694 2.6141,-7.5466 2.48047,-10.957 -0.13363,-3.4104 -1.36429,-6.4124 -4.01368,-8.209 z m -44.73242,-5.0176 c -0.62406,12.5561 3.44597,22.819 9.28907,29.7305 5.84309,6.9115 13.46629,10.5064 19.99804,9.623 l -0.13476,-0.9902 c -6.06795,0.8207 -13.42371,-2.5656 -19.09961,-9.2793 -5.67591,-6.7138 -9.66477,-16.7212 -9.05274,-29.0352 l -1,-0.049 z m 0.006,-0.051 c -0.8517,5.5252 -1.72467,8.3262 -2.37109,9.6914 -0.32321,0.6827 -0.58954,1.0007 -0.73633,1.1289 -0.14679,0.1283 -0.14924,0.078 -0.0684,0.082 l -0.0488,0.998 c 0.18258,0.01 0.47781,-0.066 0.77539,-0.3262 0.29759,-0.2599 0.62139,-0.6925 0.98243,-1.455 0.72207,-1.5251 1.59558,-4.3912 2.45507,-9.9668 l -0.98828,-0.1524 z m -6.40039,0 -0.98828,0.1524 c 0.8595,5.5756 1.73305,8.4417 2.45508,9.9668 0.36101,0.7625 0.68488,1.1951 0.98242,1.455 0.29754,0.26 0.59214,0.3359 0.77734,0.3262 l -0.0527,-0.998 c 0.0838,0 0.0803,0.046 -0.0664,-0.082 -0.14671,-0.1281 -0.41312,-0.4462 -0.73632,-1.1289 -0.6464,-1.3653 -1.51939,-4.1662 -2.3711,-9.6914 z m 0.006,0.051 -0.99805,0.049 c 0.61204,12.314 -3.37878,22.3214 -9.05468,29.0352 -5.67591,6.7137 -13.03167,10.1 -19.09961,9.2793 l -0.13477,0.9902 c 6.53176,0.8834 14.15495,-2.7115 19.99805,-9.623 5.84309,-6.9115 9.91313,-17.1744 9.28906,-29.7305 z m -44.73242,5.0176 c -2.64947,1.7966 -3.87807,4.7986 -4.01172,8.209 -0.13365,3.4104 0.79827,7.263 2.48047,10.957 3.36439,7.388 9.73503,14.1915 16.97852,15.1699 l 0.13281,-0.9902 c -6.70262,-0.9053 -12.93962,-7.4316 -16.20117,-14.5938 -1.63078,-3.581 -2.51789,-7.3063 -2.39258,-10.5039 0.12531,-3.1975 1.23154,-5.8314 3.57422,-7.4199 l -0.56055,-0.8281 z m 6.99609,-4.3535 c -3.12563,1.8452 -5.78062,3.5289 -6.99609,4.3535 l 0.56055,0.8281 c 1.17832,-0.7994 3.83554,-2.4845 6.94531,-4.3203 l -0.50977,-0.8613 z m -3.53125,-2.461 -0.86914,0.4922 c 0.74833,1.3197 2.23023,2.7033 4.61524,2.8985 l 0.0801,-0.9981 c -2.04319,-0.1672 -3.2031,-1.2938 -3.82617,-2.3926 z m -3.5664,-6.5215 -0.88672,0.4649 c 0.50673,0.9661 1.81157,3.4247 3.58398,6.5488 l 0.86914,-0.4922 c -1.76518,-3.1113 -3.06334,-5.5624 -3.5664,-6.5215 z m -0.23243,-0.4433 -0.88867,0.459 c 0,0 0.0845,0.1627 0.23438,0.4492 l 0.88672,-0.4649 c -0.14893,-0.2846 -0.23243,-0.4433 -0.23243,-0.4433 z m -2.16796,-1.002 -0.5586,0.8301 c 0.64893,0.4376 1.38144,0.746 2.19336,0.8926 l 0.17774,-0.9844 c -0.67468,-0.1218 -1.27044,-0.3727 -1.8125,-0.7383 z m -5.3125,-26.7304 -0.99805,0.041 c 0.20753,4.9421 0.25137,10.8336 0.91992,15.9707 0.66855,5.1371 1.91311,9.58 4.83203,11.5488 l 0.5586,-0.8301 c -2.43028,-1.6392 -3.74184,-5.8023 -4.39844,-10.8476 -0.6566,-5.0453 -0.7054,-10.9138 -0.91406,-15.8828 z m 2.35351,-11.8418 c 0,0 -0.13019,0 -0.26562,0.022 -0.13544,0.026 -0.31195,0.08 -0.50977,0.1855 -0.39565,0.2116 -0.8661,0.6301 -1.28711,1.3965 -0.84201,1.5327 -1.53385,4.4495 -1.28906,10.2793 l 0.99805,-0.041 c -0.24081,-5.7349 0.47703,-8.4982 1.16796,-9.7559 0.34547,-0.6288 0.67326,-0.884 0.88282,-0.9961 0.10478,-0.056 0.181,-0.078 0.22461,-0.086 0.0436,-0.01 0.0176,-0.01 0.0176,-0.01 l 0.0605,-0.998 z m 0,0 -0.0586,0.998 c 11.521,0.6766 22.82298,7.551 31.66211,15.0156 8.83912,7.4647 15.23863,15.5535 16.9082,18.3653 l 0.86133,-0.5098 c -1.80763,-3.0442 -8.1948,-11.0812 -17.12305,-18.6211 -8.92825,-7.5399 -20.3733,-14.5506 -32.25,-15.248 z m 51.21875,31.7871 c -1.34086,0.3953 -2.211,1.1954 -2.71289,2.0918 l 0.87305,0.4883 c 0.39151,-0.6993 1.01111,-1.2933 2.12304,-1.6211 l -0.2832,-0.959 z m -2.0957,-3.0762 c 0,2.1941 0.97065,3.4275 1.99609,3.9941 l 0.48438,-0.875 c -0.75496,-0.4171 -1.48047,-1.2 -1.48047,-3.1191 l -1,0 z m 2.78516,-4.3242 c -0.19408,0.046 -0.39354,0.1101 -0.5918,0.1992 l 0.41015,0.9121 c 0.13855,-0.062 0.27759,-0.1067 0.41211,-0.1387 l -0.23046,-0.9726 z m 0.5371,-0.1289 c -0.25008,0.039 -0.55859,0.1328 -0.55859,0.1328 l 0.27344,0.9629 c 0,0 0.34958,-0.092 0.4375,-0.1055 l -0.15235,-0.9902 z m 0.94336,-0.062 c -0.30543,0 -0.62269,0.015 -0.94336,0.064 l 0.15235,0.9883 c 0.25154,-0.039 0.51784,-0.053 0.79101,-0.053 l 0,-1 z m 0,0 0,1 c 0.27338,0 0.53828,0.015 0.79102,0.053 l 0.14844,-0.9902 c -0.31966,-0.048 -0.63384,-0.062 -0.93946,-0.062 z m 0.93946,0.062 -0.14844,0.9902 c 0.0837,0.013 0.43555,0.1055 0.43555,0.1055 l 0.27539,-0.9629 c 0,0 -0.30838,-0.095 -0.5625,-0.1328 z m 2.5332,1.5019 -0.82227,0.5684 c 0.35119,0.5068 0.61524,1.258 0.61524,2.3828 l 1,0 c 0,-1.2834 -0.30955,-2.2536 -0.79297,-2.9512 z m -0.20703,2.9512 c -0.002,1.9196 -0.72578,2.7021 -1.48047,3.1191 l 0.48242,0.875 c 1.02571,-0.5667 1.99602,-1.8005 1.99805,-3.9941 l -1,0 z m -1.09766,3.0762 -0.2832,0.959 c 1.11194,0.3278 1.73338,0.9218 2.125,1.6211 l 0.87109,-0.4883 c -0.50198,-0.8964 -1.37203,-1.6965 -2.71289,-2.0918 z m 51.21875,-31.7871 c -11.87654,0.6974 -23.31987,7.7081 -32.24804,15.248 -8.92818,7.5399 -15.31547,15.5769 -17.12305,18.6211 l 0.85937,0.5098 c 1.66953,-2.8118 8.06916,-10.9006 16.90821,-18.3653 8.83904,-7.4646 20.14126,-14.339 31.66211,-15.0156 l -0.0586,-0.998 z m -103.51758,4.1855 c -0.68814,0.1334 -1.21595,0.3064 -1.62304,0.5391 -0.40709,0.2327 -0.70733,0.5476 -0.83008,0.9316 -0.12275,0.3841 -0.0488,0.7815 0.10937,1.1231 0.15816,0.3415 0.39855,0.6538 0.68555,0.955 1.148,1.2052 3.09968,2.3038 3.99805,2.8301 l 0.50586,-0.8633 c -0.90863,-0.5323 -2.8221,-1.6533 -3.7793,-2.6582 -0.2393,-0.2512 -0.41538,-0.4924 -0.50391,-0.6836 -0.0885,-0.1911 -0.092,-0.3061 -0.0625,-0.3984 0.0295,-0.092 0.10967,-0.2166 0.37305,-0.3672 0.26338,-0.1505 0.69655,-0.3056 1.31641,-0.4258 l -0.18946,-0.9824 z m 2.84571,5.5176 -0.50586,0.8613 c 4.04829,2.3785 8.3657,4.9161 12.68359,7.4531 l 0.50781,-0.8613 c -4.3179,-2.5371 -8.63724,-5.0746 -12.68554,-7.4531 z m 12.68359,7.4512 -0.5039,0.8652 c 2.1646,1.2595 4.33025,2.5179 6.46093,3.7578 l 0.50196,-0.8633 c -2.13072,-1.2399 -4.29439,-2.5002 -6.45899,-3.7597 z m 6.45703,3.7578 -0.49804,0.8672 c 2.13599,1.2273 4.22663,2.4486 6.22851,3.664 l 0.51953,-0.8535 c -2.01172,-1.2214 -4.10979,-2.448 -6.25,-3.6777 z m 6.25196,3.6777 -0.52344,0.8516 c 1.99707,1.2285 3.9138,2.4311 5.70508,3.6113 l 0.55078,-0.834 c -1.80453,-1.1889 -3.73069,-2.3975 -5.73242,-3.6289 z m 5.73046,3.627 -0.54687,0.8379 c 0.90027,0.5888 1.77773,1.1627 2.625,1.7168 l 0.54687,-0.8379 c -0.84713,-0.554 -1.72467,-1.1279 -2.625,-1.7168 z m 2.63086,1.7207 -0.55859,0.83 c 0.0916,0.062 0.46823,0.3628 0.92188,0.7247 0.45364,0.3619 1.01334,0.8006 1.58398,1.2109 0.57064,0.4102 1.14813,0.7929 1.67383,1.0449 0.26285,0.126 0.51061,0.2209 0.76758,0.2637 0.25696,0.043 0.56749,0.034 0.82421,-0.1719 l -0.625,-0.7793 c 0.0553,-0.044 0.0701,-0.018 -0.0351,-0.035 -0.10527,-0.018 -0.28748,-0.078 -0.5,-0.1797 -0.42504,-0.2038 -0.97666,-0.5601 -1.52344,-0.9532 -0.54677,-0.3931 -1.0937,-0.8232 -1.54297,-1.1816 -0.44927,-0.3584 -0.77068,-0.6284 -0.98633,-0.7734 z m 2.04493,-2.209 -0.77149,0.6367 c 0.24809,0.3011 1.24104,1.4739 2.07422,2.6484 0.41659,0.5873 0.79118,1.1764 0.99609,1.6153 0.10246,0.2194 0.15894,0.4045 0.16993,0.4922 0.011,0.088 -10e-4,-10e-5 0.0742,-0.061 l 0.625,0.7793 c 0.27482,-0.2201 0.32628,-0.5778 0.29297,-0.8437 -0.0333,-0.266 -0.12873,-0.5188 -0.25586,-0.7911 -0.25426,-0.5445 -0.65175,-1.1574 -1.08593,-1.7695 -0.86837,-1.2241 -1.89563,-2.4358 -2.11914,-2.707 z m -5.83204,-6.1309 -0.66796,0.7442 c 2.0601,1.8506 3.96142,3.8815 5.72851,6.0234 l 0.77149,-0.6367 c -1.79371,-2.1741 -3.72894,-4.2417 -5.83204,-6.1309 z m -23.46679,-15.414 -0.38477,0.9218 c 8.4603,3.5288 16.36406,9.1116 23.1836,15.2364 l 0.66796,-0.7442 c -6.88046,-6.1794 -14.86509,-11.8262 -23.46679,-15.414 z m -6.91992,-2.0996 c -0.81768,-0.072 -1.63163,-0.052 -2.42579,0.1015 l 0.18946,0.9824 c 2.72777,-0.5284 6.11838,0.8309 8.77148,1.9375 l 0.38477,-0.9218 c -1.99102,-0.8305 -4.4669,-1.8842 -6.91992,-2.0996 z m -5.28321,4.1269 c -0.30853,0.059 -0.53579,0.2742 -0.67578,0.4961 -0.13999,0.2219 -0.22587,0.4687 -0.29297,0.7422 -0.13419,0.5469 -0.1864,1.2047 -0.20898,1.8808 -0.0452,1.3524 0.0434,2.82 0.0332,3.2129 l 1,0.027 c 0.0148,-0.5686 -0.078,-1.924 -0.0351,-3.2071 0.0214,-0.6415 0.0805,-1.2555 0.18359,-1.6757 0.0515,-0.2102 0.11684,-0.3693 0.16601,-0.4473 0.0492,-0.078 0.0497,-0.053 0.0156,-0.047 l -0.18555,-0.9824 z m -1.14453,6.332 c -0.0212,0.8092 -0.20328,1.9038 -0.2207,2.9981 -0.0174,1.0943 0.12821,2.2387 0.89258,3.0937 l 0.74574,-0.6641 c -0.50373,-0.5635 -0.65443,-1.4224 -0.63867,-2.4121 0.0157,-0.9897 0.19647,-2.0602 0.2207,-2.9863 l -1,-0.027 z m 1.41602,5.4258 -0.74414,0.668 c 0.10647,0.1186 0.22464,0.2297 0.35351,0.334 l 0.62891,-0.7774 c -0.0887,-0.072 -0.16716,-0.1454 -0.23828,-0.2246 z m 0.23633,0.2227 -0.625,0.7812 c 1.81857,1.4583 4.22226,1.8498 6.16992,2.4883 l 0.31054,-0.9512 c -2.05194,-0.6727 -4.31404,-1.0822 -5.85546,-2.3183 z m 5.85546,2.3183 -0.31054,0.9512 c 0.58875,0.1931 3.35517,1.2622 7.08789,2.7031 3.73271,1.441 8.47829,3.2681 13.18554,5.0293 4.70726,1.7613 9.37521,3.4546 12.96289,4.6328 1.79385,0.5892 3.31592,1.0496 4.45118,1.3262 0.56763,0.1383 1.03654,0.2322 1.41406,0.2715 0.18876,0.02 0.35315,0.027 0.51367,0.012 0.16052,-0.015 0.33482,-0.035 0.51953,-0.2051 l -0.67773,-0.7343 c 0.0987,-0.091 0.11963,-0.062 0.0644,-0.057 -0.0552,0.01 -0.16798,0.01 -0.3164,-0.01 -0.29685,-0.031 -0.73785,-0.1157 -1.28126,-0.2481 -1.08681,-0.2648 -2.59406,-0.7198 -4.375,-1.3047 -3.56187,-1.1698 -8.22457,-2.8621 -12.92578,-4.6211 -4.7012,-1.7589 -9.44175,-3.5847 -13.17382,-5.0254 -3.73208,-1.4407 -6.40888,-2.4814 -7.13868,-2.7207 z m 39.17383,14.2364 0.7793,0.2929 c 0.0281,-0.075 0.0566,-0.1696 0.0566,-0.2929 l -0.83594,0 z m -21.91601,-13.7852 -0.54688,0.8359 c 1.09147,0.7136 6.24212,3.7679 11.39649,6.8106 5.15436,3.0427 10.27857,6.0513 11.14648,6.5684 l 0.51172,-0.8594 c -0.88849,-0.5293 -5.99728,-3.5284 -11.15039,-6.5703 -5.15311,-3.042 -10.38499,-6.1495 -11.35742,-6.7852 z m -6.28125,-4.0586 -0.54102,0.8399 c 2.10353,1.3591 4.20637,2.7185 6.27734,4.0566 l 0.54297,-0.8398 c -2.07103,-1.3382 -4.17582,-2.6976 -6.27929,-4.0567 z m -12.39258,-7.9316 -0.53906,0.8418 c 3.95478,2.5312 8.17405,5.2319 12.39257,7.9316 l 0.53711,-0.8418 c -4.21847,-2.6997 -8.43581,-5.4004 -12.39062,-7.9316 z m -2.48633,-1.4688 -0.50195,0.8653 c 0.82543,0.4787 1.65728,0.9382 2.44922,1.4453 l 0.53906,-0.8418 c -0.82847,-0.5305 -1.67336,-0.9973 -2.48633,-1.4688 z m -2.46094,-1.2929 0.18555,0.9843 c 0.1155,-0.022 0.38647,0.082 0.7168,0.3399 0.33032,0.2573 0.65877,0.6032 1.05664,0.834 l 0.50195,-0.8653 c -0.18564,-0.1076 -0.54769,-0.448 -0.94531,-0.7578 -0.39762,-0.3098 -0.89263,-0.6529 -1.51563,-0.5351 z m 1.85742,24.0429 -0.64062,0.7676 c 0.16396,0.1368 0.24138,0.1401 0.36914,0.1836 0.12776,0.043 0.28178,0.088 0.46875,0.1367 0.37395,0.097 0.87717,0.2081 1.49805,0.336 1.24176,0.2556 2.95097,0.571 4.97265,0.9199 4.04337,0.6978 9.33503,1.5293 14.59375,2.2773 5.25873,0.748 10.48379,1.4132 14.40039,1.7754 1.9583,0.1811 3.58518,0.2872 4.7461,0.2891 0.58046,9e-4 1.04022,-0.022 1.39843,-0.086 0.17911,-0.032 0.33348,-0.07 0.49415,-0.1582 0.16067,-0.088 0.38196,-0.3199 0.36914,-0.6093 l -0.99805,0.045 c -0.008,-0.1738 0.13838,-0.3061 0.14648,-0.3106 0.008,0 -0.0684,0.027 -0.18945,0.049 -0.24221,0.043 -0.6684,0.071 -1.21875,0.07 -1.10069,0 -2.71318,-0.1055 -4.65625,-0.2852 -3.88614,-0.3594 -9.10259,-1.0229 -14.35156,-1.7695 -5.24898,-0.7466 -10.53394,-1.5759 -14.56445,-2.2715 -2.01526,-0.3478 -3.71625,-0.6622 -4.93946,-0.9141 -0.6116,-0.1259 -1.10411,-0.2369 -1.44922,-0.3261 -0.17255,-0.045 -0.31009,-0.085 -0.39843,-0.1153 -0.0883,-0.03 -0.15208,-0.088 -0.0508,0 z m 25.54102,-0.08 -0.32812,0.9434 c 1.17204,0.4076 5.32353,1.6008 9.23632,2.7891 1.9564,0.5941 3.84369,1.1824 5.23438,1.6601 0.69534,0.2389 1.26951,0.4513 1.65234,0.6153 0.19142,0.082 0.33695,0.1535 0.41016,0.1972 0.0366,0.022 0.0554,0.039 0.041,0.025 -0.0144,-0.013 -0.10581,-0.059 -0.11523,-0.2734 l 0.99805,-0.045 c -0.0112,-0.2543 -0.13191,-0.348 -0.20313,-0.4141 -0.0712,-0.066 -0.13695,-0.1074 -0.20898,-0.1504 -0.14406,-0.086 -0.31589,-0.1684 -0.5293,-0.2598 -0.42681,-0.1827 -1.0116,-0.3977 -1.71875,-0.6406 -1.4143,-0.4858 -3.30819,-1.0762 -5.26953,-1.6719 -3.92268,-1.1913 -8.15436,-2.412 -9.19922,-2.7754 z m -6.77344,-2.5078 -0.35742,0.9336 c 2.30586,0.8802 4.58268,1.7314 6.80078,2.5176 l 0.33399,-0.9434 c -2.2073,-0.7823 -4.476,-1.6293 -6.77735,-2.5078 z m -7,-2.6289 -0.35156,0.9356 c 2.34419,0.8804 4.68821,1.7619 6.99609,2.6289 l 0.35157,-0.9356 c -2.30792,-0.867 -4.65188,-1.7485 -6.9961,-2.6289 z m -7.23633,-2.6836 -0.32421,0.9473 c 2.41103,0.8228 4.80311,1.7683 7.20898,2.6719 l 0.35156,-0.9356 c -2.39492,-0.8994 -4.79496,-1.8504 -7.23633,-2.6836 z m -5.52343,-1.707 0.17382,0.9844 c 0.81155,-0.1435 1.5979,0.089 2.42969,0.4648 0.8318,0.3761 1.67896,0.8923 2.59571,1.2051 l 0.32421,-0.9473 c -0.76905,-0.2624 -1.60223,-0.7585 -2.50781,-1.1679 -0.90558,-0.4095 -1.91326,-0.734 -3.01562,-0.5391 z m 0,0 c -0.5021,0.089 -0.92245,0.2844 -1.19727,0.623 -0.27481,0.3387 -0.37462,0.7518 -0.42383,1.1973 l 0.99414,0.1094 c 0.0398,-0.3603 0.11312,-0.5625 0.20508,-0.6758 0.092,-0.1133 0.2331,-0.2053 0.5957,-0.2695 l -0.17382,-0.9844 z m -1.6211,1.8203 c -0.21622,1.959 0.46759,4.0788 0.87891,5.793 l 0.9707,-0.2344 c -0.42388,-1.7666 -1.03644,-3.8096 -0.85547,-5.4492 l -0.99414,-0.1094 z m 1.84961,5.5586 -0.9707,0.2344 c 0.096,0.4 0.13494,0.8638 0.25781,1.3496 0.12287,0.4857 0.35276,1.0094 0.83594,1.4121 l 0.64062,-0.7676 c -0.28632,-0.2386 -0.4125,-0.5138 -0.50781,-0.8906 -0.0953,-0.3768 -0.13646,-0.8404 -0.25586,-1.3379 z m 4.41797,6.8008 -0.17383,0.9844 c 0.85106,0.1501 3.77152,1.0866 7.54297,2.2148 3.77146,1.1282 8.46911,2.4571 13.16016,3.4316 4.69104,0.9746 9.37018,1.6001 13.15234,1.2969 1.89108,-0.1515 3.56347,-0.5338 4.9043,-1.2539 1.34083,-0.7201 2.34768,-1.8048 2.81055,-3.2676 l -0.95313,-0.3007 c -0.38221,1.2078 -1.16696,2.0628 -2.33008,2.6875 -1.16312,0.6246 -2.70882,0.9922 -4.51172,1.1367 -3.60579,0.289 -8.22527,-0.3126 -12.86914,-1.2774 -4.64386,-0.9647 -9.3166,-2.2874 -13.07617,-3.4121 -3.75957,-1.1247 -6.531,-2.0417 -7.65625,-2.2402 z m 38.62695,2.6348 -0.0566,0.998 c 0.83631,0.048 1.6121,0.089 2.32618,0.123 l 0.0469,-1 c -0.71032,-0.034 -1.48291,-0.073 -2.31641,-0.121 z m -5.10937,-0.3497 -0.0801,0.9961 c 1.87905,0.1511 3.6056,0.2578 5.13086,0.3516 l 0.0605,-0.998 c -1.52554,-0.094 -3.24398,-0.1995 -5.11133,-0.3497 z m -2.92188,-0.2343 -0.0801,0.998 c 1.00896,0.08 1.98484,0.1575 2.92187,0.2324 l 0.0801,-0.9961 c -0.93657,-0.075 -1.91204,-0.1543 -2.92188,-0.2343 z m -3.11523,-0.2891 -0.0937,0.9961 c 1.07155,0.1 2.11418,0.1953 3.12305,0.2891 l 0.0918,-0.9942 c -1.00893,-0.094 -2.04984,-0.191 -3.12109,-0.291 z m -6.7168,-0.7266 -0.11914,0.9942 c 2.3328,0.2823 4.59165,0.5361 6.74414,0.7285 l 0.0898,-0.9961 c -2.13651,-0.191 -4.38745,-0.4449 -6.71485,-0.7266 z m -7.15234,-1.0078 -0.15039,0.9883 c 2.44044,0.3693 4.84499,0.7153 7.17969,1.0117 l 0.12695,-0.9922 c -2.32331,-0.2949 -4.72049,-0.6392 -7.15625,-1.0078 z m -7.40039,-1.08 -0.14258,0.9902 c 2.47849,0.3616 4.955,0.7216 7.39453,1.0781 l 0.14453,-0.9883 c -2.43966,-0.3565 -4.91797,-0.7184 -7.39648,-1.08 z m -9.16016,-1.2969 -0.14062,0.9902 c 3.00346,0.4253 6.08233,0.861 9.16015,1.2969 l 0.13868,-0.9902 c -3.07778,-0.4359 -6.15467,-0.8716 -9.15821,-1.2969 z m 0.35352,0.2285 -0.84766,0.5312 c 0.8957,1.4295 1.99465,2.3492 3.26953,2.5743 l 0.17383,-0.9844 c -0.91232,-0.1611 -1.7918,-0.8382 -2.5957,-2.1211 z m 8.0293,7.0742 c 0,0 -0.66569,0.7429 -0.88477,1.7969 -0.10954,0.527 -0.10318,1.1511 0.17578,1.7695 0.27896,0.6185 0.81892,1.2075 1.68555,1.7031 1.73325,0.9914 4.77786,1.6776 10.16797,1.7207 5.3901,0.043 13.12836,-0.573 24.21484,-2.2871 l -0.15234,-0.9882 c -11.05278,1.7088 -18.74872,2.3178 -24.05469,2.2753 -5.30597,-0.042 -8.21918,-0.7536 -9.67774,-1.5878 -0.72928,-0.4172 -1.09205,-0.8484 -1.27148,-1.2461 -0.17943,-0.3978 -0.18661,-0.7847 -0.10938,-1.1563 0.15447,-0.7431 0.66016,-1.3418 0.66016,-1.3418 l -0.7539,-0.6582 z m 0.49804,-0.1562 -0.24219,0.9707 c 19.99005,5.0128 35.06446,3.8925 35.06446,3.8925 l -0.0742,-0.998 c 0,0 -14.90689,1.1103 -34.74805,-3.8652 z m 34.50781,7.2597 c -6.16139,4.113 -17.02323,9.1537 -26.09179,11.8692 -4.53429,1.3577 -8.635,2.1273 -11.40625,1.9492 -1.38563,-0.089 -2.41664,-0.4198 -3.01758,-0.9395 -0.60095,-0.5197 -0.86578,-1.2199 -0.69531,-2.3711 l -0.98828,-0.1464 c -0.20496,1.3839 0.17234,2.5323 1.02929,3.2734 0.85696,0.7411 2.10099,1.0848 3.60742,1.1816 3.01288,0.1936 7.16623,-0.6153 11.75782,-1.9902 9.18318,-2.7498 20.06147,-7.79 26.35937,-11.9941 l -0.55469,-0.8321 z m 0.2793,-0.084 c 0,0 -10.14298,-0.031 -20.49023,1.211 -5.17363,0.6209 -10.39771,1.5573 -14.4668,2.9941 -2.03454,0.7184 -3.78225,1.5589 -5.09766,2.5762 -1.3154,1.0172 -2.21224,2.2354 -2.42382,3.6641 l 0.98828,0.1464 c 0.16387,-1.1064 0.86104,-2.1024 2.04687,-3.0195 1.18583,-0.917 2.84667,-1.7296 4.81836,-2.4258 3.94339,-1.3924 9.11969,-2.3271 14.25391,-2.9433 10.26844,-1.2325 20.36719,-1.2032 20.36718,-1.2032 l 0.004,-1 z m -0.49219,8.3438 c -2.01445,10.4218 -5.53012,16.7149 -9.38476,20.3301 -3.85464,3.6152 -8.05856,4.5863 -11.58594,4.3301 -3.52738,-0.2563 -6.3802,-1.823 -7.33398,-3.0547 -0.23845,-0.308 -0.3508,-0.5823 -0.36914,-0.7715 -0.0183,-0.1893 0.0154,-0.2965 0.16796,-0.4434 0.30507,-0.2937 1.28149,-0.6149 3.05274,-0.5137 l 0.0586,-0.998 c -1.8938,-0.1082 -3.11069,0.1227 -3.80469,0.791 -0.34699,0.3342 -0.51462,0.8087 -0.4707,1.2617 0.0439,0.4531 0.2584,0.8793 0.57422,1.2871 1.2633,1.6315 4.28299,3.1657 8.05274,3.4395 3.76974,0.2738 8.2864,-0.7942 12.34179,-4.5977 4.0554,-3.8034 7.6403,-10.3082 9.68164,-20.8691 l -0.98047,-0.1914 z m 0.0547,-0.1484 c 0,0 -2.78815,4.9806 -7.38672,9.8554 -4.59856,4.8749 -10.96729,9.5776 -18.0625,9.1719 l -0.0586,0.998 c 7.56499,0.4326 14.15417,-4.5069 18.84766,-9.4824 4.69348,-4.9754 7.53125,-10.0547 7.53124,-10.0547 l -0.87109,-0.4882 z m 1.30664,-6.0508 c -6.30392,11.1494 -12.43515,17.4283 -17.93945,20.6347 -5.5043,3.2065 -10.37872,3.3687 -14.31445,2.2637 -3.93574,-1.105 -6.93398,-3.5127 -8.53125,-5.4512 -0.79864,-0.9692 -1.22999,-1.8619 -1.2793,-2.2246 -0.004,-0.032 0,-0.028 0,-0.049 0.006,0.01 0.0723,-0.019 0.34766,0.092 l 0.37304,-0.9277 c -0.4532,-0.1827 -0.86229,-0.2742 -1.25781,-0.062 -0.19776,0.1058 -0.34928,0.303 -0.41406,0.5 -0.0648,0.1969 -0.0653,0.389 -0.0391,0.582 0.10496,0.7721 0.63435,1.6784 1.49805,2.7266 1.72741,2.0964 4.86089,4.6064 9.03125,5.7773 4.17037,1.1709 9.37451,0.9661 15.08984,-2.3633 5.71534,-3.3294 11.94527,-9.7548 18.30665,-21.0058 l -0.8711,-0.4922 z m 0.18164,-0.1856 c 0,0 -7.90734,4.6625 -17.08593,8.8047 -4.5893,2.0711 -9.49579,4.0108 -13.86719,5.1699 -4.3714,1.1592 -8.21088,1.5004 -10.57227,0.5489 l -0.37304,0.9277 c 2.76921,1.1159 6.74212,0.6726 11.20117,-0.5098 4.45904,-1.1824 9.40215,-3.1419 14.02148,-5.2265 9.23866,-4.1694 17.18359,-8.8535 17.18359,-8.8535 l -0.50781,-0.8614 z m 17.19336,-23.0273 c -0.22376,0.2714 -1.25077,1.4829 -2.11914,2.707 -0.43419,0.6121 -0.83172,1.225 -1.08594,1.7695 -0.12711,0.2723 -0.22259,0.5251 -0.25586,0.7911 -0.0333,0.266 0.0181,0.6237 0.29297,0.8437 l 0.625,-0.7793 c 0.0755,0.061 0.0633,0.1482 0.0742,0.061 0.011,-0.088 0.0675,-0.2728 0.16992,-0.4922 0.20486,-0.4389 0.57951,-1.028 0.9961,-1.6153 0.83317,-1.1745 1.82618,-2.3475 2.07422,-2.6484 l -0.77149,-0.6367 z m 2.04492,2.209 c -0.21542,0.145 -0.53907,0.415 -0.98828,0.7734 -0.4492,0.3584 -0.99622,0.7886 -1.54297,1.1816 -0.54674,0.3931 -1.09645,0.7494 -1.52148,0.9532 -0.21252,0.1019 -0.39474,0.1621 -0.5,0.1797 -0.10527,0.017 -0.0904,-0.01 -0.0352,0.035 l -0.625,0.7793 c 0.25673,0.2054 0.56725,0.2146 0.82422,0.1719 0.25697,-0.043 0.50473,-0.1377 0.76758,-0.2637 0.5257,-0.252 1.10321,-0.6347 1.67383,-1.0449 0.57061,-0.4103 1.13039,-0.849 1.58398,-1.2109 0.4536,-0.3619 0.83025,-0.663 0.92188,-0.7247 l -0.5586,-0.83 z m 2.63086,-1.7207 c -0.90091,0.5889 -1.7778,1.1628 -2.625,1.7168 l 0.54688,0.8379 c 0.8474,-0.5541 1.72431,-1.128 2.625,-1.7168 l -0.54688,-0.8379 z m 5.73047,-3.627 c -2.00182,1.2314 -3.92824,2.4399 -5.73242,3.6289 l 0.54883,0.834 c 1.79082,-1.1802 3.70985,-2.3828 5.70703,-3.6113 l -0.52344,-0.8516 z m 6.25196,-3.6777 c -2.1401,1.2297 -4.23875,2.4563 -6.25,3.6777 l 0.51953,0.8535 c 2.00134,-1.2154 4.09261,-2.4367 6.22851,-3.664 l -0.49804,-0.8672 z m 6.45703,-3.7578 c -2.16449,1.2595 -4.32789,2.5198 -6.45899,3.7597 l 0.50196,0.8633 c 2.1311,-1.2399 4.29642,-2.4983 6.46093,-3.7578 l -0.5039,-0.8652 z m 12.68323,-7.4494 c -4.04833,2.3785 -8.3677,4.916 -12.68555,7.4531 l 0.50782,0.8613 c 4.31785,-2.5371 8.6353,-5.0746 12.68359,-7.4531 l -0.50586,-0.8613 z m 2.8457,-5.5176 -0.1914,0.9824 c 0.61986,0.1202 1.053,0.2753 1.3164,0.4258 0.2634,0.1506 0.3455,0.2749 0.375,0.3672 0.0295,0.092 0.0241,0.2073 -0.0644,0.3984 -0.0885,0.1912 -0.26267,0.4324 -0.50195,0.6836 -0.95713,1.0049 -2.87055,2.1259 -3.7793,2.6582 l 0.50586,0.8633 c 0.89861,-0.5264 2.8501,-1.6249 3.99805,-2.8301 0.28698,-0.3012 0.52741,-0.6135 0.68554,-0.955 0.15814,-0.3416 0.23021,-0.739 0.10743,-1.1231 -0.12279,-0.384 -0.42298,-0.6989 -0.83008,-0.9316 -0.40711,-0.2327 -0.93294,-0.4057 -1.6211,-0.5391 z m -2.42773,-0.1015 c -2.45284,0.2154 -4.92695,1.2691 -6.91797,2.0996 l 0.38477,0.9218 c 2.6531,-1.1066 6.04219,-2.4659 8.76953,-1.9375 l 0.1914,-0.9824 c -0.79406,-0.1538 -1.61012,-0.1734 -2.42773,-0.1015 z m -6.91797,2.0996 c -8.60165,3.5878 -16.58653,9.2346 -23.4668,15.414 l 0.66797,0.7442 c 6.81933,-6.1248 14.72335,-11.7076 23.1836,-15.2364 l -0.38477,-0.9218 z m -23.4668,15.414 c -2.10353,1.8893 -4.03833,3.9568 -5.83203,6.1309 l 0.77149,0.6367 c 1.7671,-2.1419 3.66804,-4.1729 5.72851,-6.0234 l -0.66797,-0.7442 z m -10.06836,35.543 -0.98242,0.1914 c 2.04132,10.5609 5.62623,17.0657 9.68164,20.8691 4.05541,3.8035 8.57202,4.8715 12.3418,4.5977 3.76977,-0.2738 6.79136,-1.808 8.05469,-3.4395 0.31583,-0.4078 0.52833,-0.834 0.57226,-1.2871 0.0439,-0.453 -0.12175,-0.9275 -0.46875,-1.2617 -0.69399,-0.6683 -1.91088,-0.8992 -3.80468,-0.791 l 0.0566,0.998 c 1.77124,-0.1012 2.74768,0.22 3.05273,0.5137 0.15253,0.1469 0.18827,0.2541 0.16992,0.4434 -0.0184,0.1892 -0.13069,0.4635 -0.36914,0.7715 -0.95381,1.2317 -3.80852,2.7984 -7.33594,3.0547 -3.52741,0.2562 -7.73128,-0.715 -11.58593,-4.3301 -3.85466,-3.6152 -7.36839,-9.9083 -9.38282,-20.3301 z m -0.0547,-0.1484 -0.87305,0.4882 c 0,0 2.83965,5.0793 7.5332,10.0547 4.69355,4.9755 11.28076,9.915 18.84571,9.4824 l -0.0566,-0.998 c -7.09516,0.4057 -13.46388,-4.297 -18.0625,-9.1719 -4.59863,-4.8748 -7.38672,-9.8554 -7.38672,-9.8554 z m -1.30664,-6.0508 -0.8711,0.4922 c 6.3613,11.251 12.59131,17.6764 18.30664,21.0058 5.71533,3.3294 10.9175,3.5342 15.08789,2.3633 4.17039,-1.1709 7.30577,-3.6809 9.03321,-5.7773 0.86371,-1.0482 1.39308,-1.9545 1.49804,-2.7266 0.0262,-0.193 0.0257,-0.3851 -0.0391,-0.582 -0.0648,-0.197 -0.2163,-0.3942 -0.41406,-0.5 -0.39552,-0.2117 -0.80656,-0.1202 -1.25977,0.062 l 0.375,0.9277 c 0.27535,-0.1109 0.34178,-0.083 0.34766,-0.092 0,0.021 0.004,0.016 0,0.049 -0.0493,0.3627 -0.48065,1.2554 -1.2793,2.2246 -1.59729,1.9385 -4.59549,4.3462 -8.53125,5.4512 -3.93576,1.105 -8.81211,0.9428 -14.3164,-2.2637 -5.5043,-3.2064 -11.63366,-9.4853 -17.9375,-20.6347 z m -0.18164,-0.1856 -0.50782,0.8614 c 0,0 7.94298,4.6841 17.18164,8.8535 4.61933,2.0846 9.5644,4.0441 14.02344,5.2265 4.45904,1.1824 8.43197,1.6257 11.20117,0.5098 l -0.375,-0.9277 c -2.36138,0.9515 -6.19891,0.6103 -10.57031,-0.5489 -4.3714,-1.1591 -9.27789,-3.0988 -13.86719,-5.1699 -9.17859,-4.1422 -17.08594,-8.8047 -17.08593,-8.8047 z m 1.05078,-1.959 0.002,1 c 0,0 10.09869,-0.029 20.36719,1.2032 5.13425,0.6162 10.3105,1.5509 14.2539,2.9433 1.97171,0.6962 3.63449,1.5088 4.82032,2.4258 1.18583,0.9171 1.88105,1.9131 2.04492,3.0195 l 0.99023,-0.1464 c -0.21157,-1.4287 -1.10842,-2.6469 -2.42383,-3.6641 -1.3154,-1.0173 -3.0631,-1.8578 -5.09765,-2.5762 -4.0691,-1.4368 -9.2951,-2.3732 -14.46875,-2.9941 -10.34731,-1.2419 -20.48828,-1.211 -20.48828,-1.211 z m 0.27929,0.084 -0.55664,0.8321 c 6.29786,4.2041 17.17808,9.2443 26.36133,11.9941 4.59162,1.3749 8.74491,2.1838 11.75781,1.9902 1.50645,-0.097 2.75047,-0.4405 3.60743,-1.1816 0.85695,-0.7411 1.23425,-1.8895 1.02929,-3.2734 l -0.99023,0.1464 c 0.17047,1.1512 -0.0924,1.8514 -0.69336,2.3711 -0.60095,0.5197 -1.63194,0.8505 -3.01758,0.9395 -2.77128,0.1781 -6.87193,-0.5915 -11.40625,-1.9492 -9.06863,-2.7155 -19.93045,-7.7562 -26.0918,-11.8692 z m 35.00586,-7.1035 -0.7539,0.6582 c 0,0 0.50571,0.5987 0.66015,1.3418 0.0772,0.3716 0.0701,0.7585 -0.10937,1.1563 -0.17944,0.3977 -0.54219,0.8289 -1.27149,1.2461 -1.45859,0.8342 -4.3737,1.5454 -9.67968,1.5878 -5.30599,0.043 -12.99999,-0.5665 -24.05274,-2.2753 l -0.1543,0.9882 c 11.08646,1.7141 18.82473,2.3303 24.21485,2.2871 5.39012,-0.043 8.43469,-0.7293 10.16797,-1.7207 0.86664,-0.4956 1.40852,-1.0847 1.6875,-1.7031 0.27897,-0.6184 0.2853,-1.2425 0.17578,-1.7695 -0.21905,-1.054 -0.88477,-1.7969 -0.88477,-1.7969 z m -0.49804,-0.1562 c -19.84144,4.9755 -34.74805,3.8652 -34.74805,3.8652 l -0.0742,0.998 c 0,0 15.07413,1.1203 35.06445,-3.8925 l -0.24218,-0.9707 z m 8.52734,-6.918 c -0.8039,1.2829 -1.68579,1.96 -2.59766,2.1211 l 0.17383,0.9844 c 1.27448,-0.2252 2.37572,-1.1448 3.27149,-2.5743 l -0.84766,-0.5312 z m 0.35351,-0.2285 c -3.00385,0.4253 -6.08249,0.861 -9.16015,1.2969 l 0.14062,0.9902 c 3.0777,-0.4359 6.15442,-0.8716 9.15821,-1.2969 l -0.13868,-0.9902 z m -9.1621,1.2969 c -2.47817,0.3616 -4.95683,0.7235 -7.39649,1.08 l 0.14453,0.9883 c 2.43952,-0.3565 4.91832,-0.7165 7.39649,-1.0781 l -0.14453,-0.9902 z m -7.39844,1.08 c -2.43545,0.3686 -4.83333,0.7129 -7.15625,1.0078 l 0.12695,0.9922 c 2.33428,-0.2964 4.73954,-0.6424 7.17969,-1.0117 l -0.15039,-0.9883 z m -7.15235,1.0078 c -2.32739,0.2817 -4.57833,0.5356 -6.71484,0.7266 l 0.0898,0.9961 c 2.1525,-0.1924 4.41134,-0.4462 6.74415,-0.7285 l -0.11915,-0.9942 z m -6.71679,0.7266 c -1.07143,0.1 -2.11263,0.197 -3.1211,0.291 l 0.0918,0.9942 c 1.00834,-0.094 2.05167,-0.1895 3.12305,-0.2891 l -0.0937,-0.9961 z m -3.11524,0.2891 c -1.00975,0.08 -1.98509,0.1593 -2.92187,0.2343 l 0.0781,0.9961 c 0.93682,-0.075 1.91439,-0.152 2.92383,-0.2324 l -0.0801,-0.998 z m -2.92382,0.2343 c -1.86763,0.1502 -3.58375,0.2556 -5.10938,0.3497 l 0.0606,0.998 c 1.52517,-0.094 3.25148,-0.2005 5.13086,-0.3516 l -0.082,-0.9961 z m -5.10743,0.3497 c -0.8336,0.048 -1.60598,0.087 -2.3164,0.121 l 0.0469,1 c 0.71418,-0.034 1.48977,-0.075 2.32617,-0.123 l -0.0566,-0.998 z m 38.625,-2.6348 c -1.12534,0.1985 -3.89471,1.1155 -7.65429,2.2402 -3.75959,1.1247 -8.43429,2.4474 -13.07813,3.4121 -4.64384,0.9648 -9.26337,1.5664 -12.86914,1.2774 -1.80288,-0.1445 -3.34665,-0.5121 -4.50977,-1.1367 -1.16311,-0.6247 -1.94785,-1.4797 -2.33007,-2.6875 l -0.95313,0.3007 c 0.46288,1.4628 1.46972,2.5475 2.81055,3.2676 1.34083,0.7201 3.01127,1.1024 4.90234,1.2539 3.78214,0.3032 8.46328,-0.3223 13.1543,-1.2969 4.69102,-0.9745 9.38673,-2.3034 13.1582,-3.4316 3.77147,-1.1282 6.69182,-2.0647 7.54297,-2.2148 l -0.17383,-0.9844 z m 6.26953,-12.3594 -0.99414,0.1094 c 0.18067,1.6397 -0.43384,3.6826 -0.85742,5.4492 l 0.97266,0.2344 c 0.411,-1.7142 1.09474,-3.8341 0.8789,-5.793 z m -1.62109,-1.8203 -0.17383,0.9844 c 0.36266,0.064 0.50174,0.1561 0.59375,0.2695 0.092,0.1134 0.16717,0.3155 0.20703,0.6758 l 0.99414,-0.1094 c -0.0493,-0.4455 -0.14895,-0.8586 -0.42382,-1.1973 -0.27488,-0.3386 -0.69514,-0.534 -1.19727,-0.623 z m 0,0 c -1.10221,-0.1949 -2.11,0.1296 -3.01562,0.5391 -0.90563,0.4094 -1.73875,0.9055 -2.50782,1.1679 l 0.32227,0.9473 c 0.91674,-0.3128 1.7658,-0.829 2.59766,-1.2051 0.83185,-0.3761 1.61836,-0.6083 2.42968,-0.4648 l 0.17383,-0.9844 z m -5.52344,1.707 c -2.44131,0.8332 -4.84149,1.7842 -7.23633,2.6836 l 0.35157,0.9356 c 2.4058,-0.9036 4.79606,-1.8491 7.20703,-2.6719 l -0.32227,-0.9473 z m -7.23633,2.6836 c -2.34427,0.8804 -4.69011,1.7619 -6.99804,2.6289 l 0.35156,0.9356 c 2.30787,-0.867 4.65378,-1.7485 6.99805,-2.6289 l -0.35157,-0.9356 z m -7,2.6289 c -2.30123,0.8785 -4.57003,1.7255 -6.77734,2.5078 l 0.33399,0.9434 c 2.21809,-0.7862 4.49306,-1.6374 6.79882,-2.5176 l -0.35547,-0.9336 z m -6.77539,2.5078 c -1.04458,0.3633 -5.27453,1.5841 -9.19726,2.7754 -1.96137,0.5957 -3.8552,1.1861 -5.26953,1.6719 -0.70717,0.2429 -1.29389,0.4579 -1.72071,0.6406 -0.21341,0.091 -0.38523,0.1738 -0.52929,0.2598 -0.072,0.043 -0.13581,0.084 -0.20703,0.1504 -0.0712,0.066 -0.19391,0.1598 -0.20508,0.4141 l 1,0.045 c -0.009,0.2144 -0.10085,0.2601 -0.11524,0.2734 -0.0144,0.013 0.004,0 0.041,-0.025 0.0732,-0.044 0.21874,-0.1153 0.41016,-0.1972 0.38284,-0.164 0.95502,-0.3764 1.65039,-0.6153 1.39072,-0.4777 3.27795,-1.066 5.23437,-1.6601 3.91284,-1.1883 8.06441,-2.3815 9.23633,-2.7891 l -0.32813,-0.9434 z m 25.54297,0.08 c 0.10123,-0.084 0.0376,-0.026 -0.0508,0 -0.0884,0.03 -0.22588,0.071 -0.39844,0.1153 -0.34512,0.089 -0.8376,0.2002 -1.44921,0.3261 -1.22323,0.2519 -2.92616,0.5663 -4.94141,0.9141 -4.0305,0.6956 -9.31356,1.5249 -14.5625,2.2715 -5.24894,0.7466 -10.46538,1.4101 -14.35156,1.7695 -1.9431,0.1797 -3.5555,0.2834 -4.65625,0.2852 -0.55038,9e-4 -0.97844,-0.027 -1.22071,-0.07 -0.12113,-0.022 -0.19555,-0.053 -0.1875,-0.049 0.008,0 0.1541,0.1367 0.14649,0.3106 l -1,-0.045 c -0.0127,0.2895 0.21043,0.5209 0.37109,0.6093 0.16067,0.088 0.31502,0.126 0.49414,0.1582 0.35825,0.064 0.816,0.087 1.39649,0.086 1.16097,0 2.78972,-0.108 4.74804,-0.2891 3.91665,-0.3622 9.1417,-1.0274 14.40039,-1.7754 5.2587,-0.748 10.54845,-1.5795 14.5918,-2.2773 2.02168,-0.3489 3.73088,-0.6643 4.97266,-0.9199 0.62088,-0.1279 1.12408,-0.2393 1.49804,-0.336 0.18699,-0.048 0.34099,-0.093 0.46875,-0.1367 0.12777,-0.043 0.20718,-0.047 0.3711,-0.1836 l -0.64063,-0.7676 z m 0.76172,-2.2285 c -0.11936,0.4974 -0.15855,0.9611 -0.2539,1.3379 -0.0954,0.3768 -0.22168,0.652 -0.50782,0.8906 l 0.64063,0.7676 c 0.4829,-0.4027 0.71303,-0.9264 0.83594,-1.4121 0.1229,-0.4857 0.1618,-0.9495 0.25781,-1.3496 l -0.97266,-0.2344 z m 2.24024,-15.4805 -1,0.027 c 0.0243,0.9261 0.20498,1.9966 0.2207,2.9863 0.0157,0.9897 -0.13504,1.8486 -0.63867,2.4121 l 0.74609,0.666 c 0.76421,-0.855 0.90995,-1.9994 0.89258,-3.0937 -0.0174,-1.0943 -0.19949,-2.1889 -0.2207,-2.9981 z m -1.14454,-6.332 -0.18554,0.9824 c -0.0342,-0.01 -0.0335,-0.031 0.0156,0.047 0.0492,0.078 0.11448,0.2371 0.16602,0.4473 0.10308,0.4202 0.16021,1.0342 0.18164,1.6757 0.0429,1.2831 -0.048,2.6384 -0.0332,3.2071 l 1,-0.027 c -0.0103,-0.3929 0.0784,-1.8605 0.0332,-3.2129 -0.0226,-0.6761 -0.0768,-1.3339 -0.21094,-1.8808 -0.0671,-0.2735 -0.15107,-0.5203 -0.29101,-0.7422 -0.13995,-0.2219 -0.36724,-0.4376 -0.67579,-0.4961 z m 0,0 c -0.62303,-0.1178 -1.11995,0.2253 -1.51757,0.5351 -0.39763,0.3098 -0.7576,0.6502 -0.94336,0.7578 l 0.50195,0.8653 c 0.39815,-0.2308 0.72631,-0.5767 1.05664,-0.834 0.33033,-0.2574 0.60096,-0.3618 0.7168,-0.3399 l 0.18554,-0.9843 z m -2.46093,1.2929 c -0.8131,0.4716 -1.65763,0.9384 -2.48633,1.4688 l 0.53906,0.8418 c 0.79242,-0.5072 1.6238,-0.9667 2.44922,-1.4453 l -0.50195,-0.8653 z m -2.48633,1.4688 c -3.95441,2.5312 -8.17437,5.2319 -12.39258,7.9316 l 0.53906,0.8418 c 4.21823,-2.6997 8.43815,-5.4004 12.39258,-7.9316 l -0.53906,-0.8418 z m -12.39453,7.9316 c -2.10376,1.3591 -4.2066,2.7185 -6.27735,4.0567 l 0.54297,0.8398 c 2.07066,-1.3381 4.17357,-2.6975 6.27735,-4.0566 l -0.54297,-0.8399 z m -6.2793,4.0586 c -0.97235,0.6357 -6.20628,3.7432 -11.35937,6.7852 -5.1531,3.0419 -10.25995,6.041 -11.14844,6.5703 l 0.51172,0.8594 c 0.86791,-0.5171 5.99213,-3.5257 11.14648,-6.5684 5.15435,-3.0427 10.30504,-6.097 11.39649,-6.8106 l -0.54688,-0.8359 z m -22.75,13.7598 c -0.006,0.1228 0.0172,0.2444 0.0664,0.3515 l 0.68164,-0.3125 -0.74805,-0.039 z m 40.00586,-14.211 c -0.72981,0.2393 -3.40468,1.28 -7.13672,2.7207 -3.73204,1.4407 -8.47461,3.2665 -13.17578,5.0254 -4.70117,1.759 -9.36194,3.4513 -12.92383,4.6211 -1.78094,0.5849 -3.28816,1.0399 -4.375,1.3047 -0.54342,0.1324 -0.98439,0.2172 -1.28125,0.2481 -0.14843,0.015 -0.2612,0.015 -0.3164,0.01 -0.0552,-0.01 -0.0342,-0.034 0.0644,0.057 l -0.67969,0.7343 c 0.18471,0.1704 0.35901,0.19 0.51953,0.2051 0.16053,0.015 0.32686,0.01 0.51563,-0.012 0.37754,-0.039 0.84642,-0.1332 1.41406,-0.2715 1.13528,-0.2766 2.65732,-0.737 4.45117,-1.3262 3.5877,-1.1782 8.25568,-2.8715 12.96289,-4.6328 4.70722,-1.7612 9.45092,-3.5883 13.1836,-5.0293 3.73267,-1.4409 6.50109,-2.51 7.08984,-2.7031 l -0.3125,-0.9512 z m 5.85742,-2.3183 c -1.54142,1.2361 -3.80546,1.6456 -5.85742,2.3183 l 0.3125,0.9512 c 1.94768,-0.6385 4.35135,-1.03 6.16992,-2.4883 l -0.625,-0.7812 z m 0.23633,-0.2227 c -0.0709,0.079 -0.15021,0.1517 -0.23828,0.2227 l 0.62695,0.7793 c 0.12942,-0.1043 0.24882,-0.2151 0.35547,-0.334 l -0.74414,-0.668 z"
       inkscape:connector-curvature="0" />
  </g>
</svg>
