<?xml version="1.0" encoding="UTF-8" standalone="no"?>
<!-- Created with Inkscape (http://www.inkscape.org/) -->

<svg
   xmlns:dc="http://purl.org/dc/elements/1.1/"
   xmlns:cc="http://creativecommons.org/ns#"
   xmlns:rdf="http://www.w3.org/1999/02/22-rdf-syntax-ns#"
   xmlns:svg="http://www.w3.org/2000/svg"
   xmlns="http://www.w3.org/2000/svg"
   xmlns:sodipodi="http://sodipodi.sourceforge.net/DTD/sodipodi-0.dtd"
   xmlns:inkscape="http://www.inkscape.org/namespaces/inkscape"
   width="210mm"
   height="297mm"
   viewBox="0 0 744.09448819 1052.3622047"
   id="svg5599"
   version="1.1"
   inkscape:version="0.91 r13725"
   sodipodi:docname="Butterfly-coaster.svg">
  <defs
     id="defs5601" />
  <sodipodi:namedview
     id="base"
     pagecolor="#000000"
     bordercolor="#666666"
     borderopacity="1.0"
     inkscape:pageopacity="0"
     inkscape:pageshadow="2"
     inkscape:zoom="2.8"
     inkscape:cx="357.41815"
     inkscape:cy="639.68573"
     inkscape:document-units="px"
     inkscape:current-layer="layer1"
     showgrid="false"
     inkscape:window-width="1280"
     inkscape:window-height="737"
     inkscape:window-x="0"
     inkscape:window-y="30"
     inkscape:window-maximized="1" />
  <metadata
     id="metadata5604">
    <rdf:RDF>
      <cc:Work
         rdf:about="">
        <dc:format>image/svg+xml</dc:format>
        <dc:type
           rdf:resource="http://purl.org/dc/dcmitype/StillImage" />
        <dc:title></dc:title>
      </cc:Work>
    </rdf:RDF>
  </metadata>
  <g
     inkscape:label="Layer 1"
     inkscape:groupmode="layer"
     id="layer1">
    <path
       style="fill:none;fill-opacity:1;stroke:#ff0000;stroke-width:1;stroke-miterlimit:4;stroke-dasharray:none;stroke-opacity:1"
       d="m 259.36683,539.44044 c -12.2167,-1.16383 -24.4111,-7.55069 -35.2568,-18.46584 -15.1519,-15.24892 -25.8799,-37.25501 -27.6399,-56.69676 -0.3034,-3.35072 -0.1093,-9.70285 0.3841,-12.55755 1.6485,-9.54206 5.7008,-16.10451 12.9572,-20.98327 2.8988,-1.94892 8.417,-5.45292 13.0779,-8.30414 l 2.9906,-1.82945 -1.326,-0.69886 c -2.4891,-1.31191 -4.3156,-2.79848 -5.9218,-4.81986 -1.2682,-1.59585 -6.7224,-11.22375 -11.8162,-20.85879 l -1.2979,-2.45462 -0.9382,-0.24452 c -1.6764,-0.43685 -4.8072,-2.1279 -6.4351,-3.47586 -9.449,-7.82413 -13.9704,-24.03175 -15.6521,-56.10576 -1.0165,-19.38865 -1.4375,-40.15913 -0.919,-45.34414 1.1767,-11.76531 3.9687,-18.45633 8.6079,-20.62862 0.9889,-0.46298 1.3266,-0.51917 2.883,-0.47962 5.1448,0.13077 13.4977,1.44817 20.8977,3.29595 26.6214,6.64738 55.5444,23.25429 83.8865,48.16581 17.5237,15.40259 35.6212,34.99377 45.7318,49.50635 l 1.053,1.51147 0.5072,-0.39524 c 0.279,-0.21737 0.9259,-0.70747 1.4377,-1.08912 0.5117,-0.38165 0.9303,-0.72673 0.9303,-0.76686 0,-0.04 -0.3496,-0.61396 -0.777,-1.27519 -1.4921,-2.30858 -2.1641,-4.68564 -2.3032,-8.14706 -0.1405,-3.49591 0.2636,-6.00819 1.3997,-8.70164 0.2266,-0.53701 -6.6743,-8.15829 -9.9733,-11.01456 -1.1501,-0.99576 -1.3801,-1.12553 -1.4293,-0.8065 -0.1336,0.86563 -0.7298,1.8803 -1.3188,2.24432 -1.3292,0.82148 -2.8895,0.27352 -5.8877,-2.06762 -3.5433,-2.76684 -4.8777,-5.36405 -4.111,-8.00144 1.0101,-3.47491 5.2697,-4.68606 10.6459,-3.02703 4.7416,1.46316 10.1736,5.71079 16.7435,13.09273 1.2943,1.45436 2.4541,2.7539 2.5772,2.8879 0.1782,0.19398 0.5021,0.1847 1.5891,-0.0456 1.7879,-0.37872 5.4019,-0.37595 7.2489,0.005 l 1.4599,0.30157 0.6374,-0.73682 c 4.2538,-4.91723 6.4037,-7.15035 9.2165,-9.57334 5.2761,-4.54506 9.5208,-6.55695 13.9461,-6.61015 2.6144,-0.0314 3.7424,0.34902 5.1203,1.7269 1.1887,1.18866 1.537,2.1609 1.3841,3.86354 -0.1462,1.62726 -0.7974,2.78245 -2.5787,4.57442 -2.3208,2.33462 -4.9264,3.98386 -6.3092,3.99344 -1.2037,0.009 -2.4153,-1.16616 -2.4153,-2.34124 0,-0.20544 -0.074,-0.4194 -0.1649,-0.47547 -0.4297,-0.26554 -6.2644,5.57055 -10.3595,10.36205 l -1.1718,1.37109 0.3778,0.88142 c 0.8455,1.97253 1.2034,4.06943 1.2034,7.05136 0,4.08846 -0.7889,7.02005 -2.5479,9.46845 l -0.7119,0.99098 0.4656,0.30364 c 0.2561,0.167 0.9372,0.6854 1.5136,1.15199 0.5763,0.46659 1.0683,0.81915 1.0931,0.78349 0.025,-0.0356 0.5614,-0.81407 1.1923,-1.72977 8.4859,-12.31681 25.4316,-31.0273 40.6495,-44.88303 37.4453,-34.0934 74.3517,-53.12229 108.2094,-55.79261 2.2055,-0.17394 2.671,-0.15743 3.5256,0.12508 4.8289,1.59618 7.8765,7.88037 9.2476,19.06824 0.4348,3.54737 0.4869,16.82416 0.1053,26.83432 -0.5426,14.23268 -0.6433,16.69156 -0.8386,20.46853 -1.7889,34.59158 -7.1577,51.42329 -18.4913,57.97134 -0.5347,0.30896 -1.7687,0.845 -2.7422,1.19124 l -1.7699,0.62951 -0.697,1.24745 c -0.3833,0.68608 -2.0059,3.67134 -3.6058,6.63389 -4.1696,7.72103 -7.2846,13.23663 -8.2414,14.59239 -1.5772,2.23495 -4.8664,4.97935 -7.0729,5.90127 -0.5936,0.24802 -0.666,0.33819 -0.4385,0.54575 0.1499,0.13675 2.1236,1.3811 4.3859,2.76523 5.106,3.12399 10.8722,6.82645 12.8817,8.27135 2.1506,1.54635 4.9821,4.54211 6.539,6.91826 6.8133,10.39869 7.2936,25.85866 1.3534,43.56538 -5.0202,14.96456 -13.9654,29.26433 -24.9584,39.89846 -9.4974,9.1874 -19.9139,14.90253 -30.6808,16.83334 -2.254,0.4042 -3.1422,0.45594 -7.7369,0.45056 -5.79,-0.006 -7.8897,-0.25921 -13.1761,-1.58388 -14.5916,-3.65638 -29.1293,-13.03256 -41.2579,-26.60957 -16.3074,-18.25483 -27.0076,-42.85321 -30.0765,-69.14247 -0.5367,-4.598 -0.4226,-4.48367 -1.3688,-1.37109 -2.6623,8.75765 -5.5295,13.03037 -8.7392,13.02359 -1.1294,-0.002 -2.6094,-0.84254 -3.6898,-2.09452 -1.2986,-1.50482 -3.1665,-5.47188 -4.4254,-9.39834 -0.6153,-1.91919 -1.1789,-3.65287 -1.2523,-3.85263 -0.073,-0.19976 -0.3769,1.6037 -0.6744,4.00767 -4.4912,36.29692 -22.5369,67.78049 -48.9024,85.31801 -3.1456,2.09231 -5.5392,3.44592 -9.4512,5.34464 -9.1648,4.44828 -17.6468,6.51709 -26.392,6.43716 -1.886,-0.0172 -3.7375,-0.0608 -4.1145,-0.0967 z"
       id="path6158"
       inkscape:connector-curvature="0" />
    <path
       id="path13062"
       style="color:#000000;font-style:normal;font-variant:normal;font-weight:normal;font-stretch:normal;font-size:medium;line-height:normal;font-family:sans-serif;text-indent:0;text-align:start;text-decoration:none;text-decoration-line:none;text-decoration-style:solid;text-decoration-color:#000000;letter-spacing:normal;word-spacing:normal;text-transform:none;direction:ltr;block-progression:tb;writing-mode:lr-tb;baseline-shift:baseline;text-anchor:start;white-space:normal;clip-rule:nonzero;display:inline;overflow:visible;visibility:visible;opacity:1;isolation:auto;mix-blend-mode:normal;color-interpolation:sRGB;color-interpolation-filters:linearRGB;solid-color:#000000;solid-opacity:1;fill:none;fill-opacity:1;fill-rule:nonzero;stroke:#0000ff;stroke-width:0.5;stroke-linecap:butt;stroke-linejoin:miter;stroke-miterlimit:4;stroke-dasharray:none;stroke-dashoffset:0;stroke-opacity:1;color-rendering:auto;image-rendering:auto;shape-rendering:auto;text-rendering:auto;enable-background:accumulate"
       d="m 514.82781,330.75894 c -0.21071,0.23479 -0.44642,0.45085 -0.70816,0.66187 l 1.86329,2.31607 c 0.38464,-0.30998 0.73949,-0.63927 1.05646,-0.99264 l -2.21159,-1.9853 z m -0.70237,0.66187 c -4.5811,3.67368 -11.30982,4.89072 -17.40825,6.88998 l 0.92875,2.82697 c 5.78851,-1.89762 12.93221,-3.06116 18.337,-7.39523 l -1.8575,-2.32172 z m -17.40825,6.88998 c -2.16899,0.7112 -10.1187,3.80416 -21.21032,8.08592 -11.09162,4.28176 -25.18654,9.70804 -39.15841,14.93549 -13.97188,5.22774 -27.82368,10.25726 -38.40962,13.7339 -5.29295,1.73832 -9.77241,3.09058 -13.0025,3.87757 -1.61504,0.39349 -2.9256,0.64552 -3.80787,0.73735 -0.44113,0.0446 -0.77629,0.0446 -0.94034,0.0297 -0.16406,-0.0297 -0.10164,-0.10104 0.1914,0.16941 l -2.02004,2.18234 c 0.54896,0.50643 1.06697,0.56468 1.54404,0.60955 0.47709,0.0446 0.97143,0.0297 1.53245,-0.0357 1.12205,-0.11591 2.51556,-0.39587 4.20259,-0.8069 3.37405,-0.82205 7.89755,-2.19036 13.22887,-3.94146 10.66264,-3.50161 24.53588,-8.5341 38.5257,-13.76868 13.98986,-5.23429 28.08813,-10.66443 39.18165,-14.94708 11.0935,-4.28235 19.32124,-7.45972 21.071,-8.03361 l -0.92875,-2.82697 z M 377.8198,380.54588 c -0.0178,0.36496 0.0511,0.72635 0.19734,1.04465 l 2.02584,-0.92875 -2.22321,-0.1159 z m 67.61299,-40.89412 c -2.88983,1.8893 -18.44506,11.12479 -33.76004,20.16561 -15.31501,9.04052 -30.49257,17.95385 -33.13316,19.52693 l 1.52083,2.55413 c 2.57943,-1.53682 17.80861,-10.47838 33.12733,-19.52128 15.31873,-9.0429 30.62658,-18.12028 33.87037,-20.2411 l -1.62533,-2.48429 z m 18.66207,-12.06216 c -6.25237,4.03925 -12.50201,8.07938 -18.65628,12.05651 l 1.61371,2.49589 c 6.154,-3.97684 12.40385,-8.01697 18.65628,-12.05622 l -1.61371,-2.49618 z m 36.83654,-23.57271 c -11.7525,7.52273 -24.29422,15.5492 -36.83074,23.57271 l 1.60209,2.50183 c 12.53657,-8.02351 25.07817,-16.04999 36.83074,-23.57271 l -1.60209,-2.50183 z m 7.38937,-4.36527 c -2.41653,1.40159 -4.92647,2.78892 -7.38937,4.36527 l 1.60209,2.50183 c 2.35507,-1.5074 4.82593,-2.87303 7.27908,-4.29543 l -1.4918,-2.57167 z m 7.31388,-3.8425 c -1.85164,-0.3501 -3.32849,0.66959 -4.51021,1.59032 -1.18176,0.92072 -2.25159,1.93239 -2.80367,2.25218 l 1.4918,2.57167 c 1.1833,-0.68594 2.15859,-1.71395 3.14033,-2.47865 0.98174,-0.76499 1.78605,-1.07527 2.13033,-1.01018 l 0.55142,-2.92534 z m 0,0 -0.55142,2.91969 c -0.10164,-0.0297 -0.0996,-0.0921 0.0464,0.13969 0.14622,0.23181 0.34024,0.70466 0.49341,1.32937 0.30636,1.24884 0.47615,3.07364 0.53984,4.98018 0.1275,3.81337 -0.14266,7.84132 -0.0987,9.5315 l 2.972,-0.0802 c -0.0306,-1.1677 0.233,-5.52941 0.0987,-9.54874 -0.0672,-2.00937 -0.22825,-3.96435 -0.62692,-5.58974 -0.19942,-0.81284 -0.44898,-1.54633 -0.86488,-2.20582 -0.41593,-0.65948 -1.09144,-1.30054 -2.00845,-1.4744 z m 3.40158,18.8187 -2.972,0.0802 c 0.0722,2.75237 0.6092,5.9339 0.65592,8.87529 0.0467,2.94138 -0.40134,5.49403 -1.89813,7.16876 l 2.21738,1.97935 c 2.27123,-2.54106 2.70437,-5.94222 2.65275,-9.19448 -0.0517,-3.25226 -0.59289,-6.50541 -0.65592,-8.91035 z m -6.658,46.00804 c -0.35473,1.47827 -0.47121,2.85639 -0.75459,3.97623 -0.28353,1.11985 -0.65883,1.93775 -1.50924,2.64687 l 1.90395,2.2813 c 1.43518,-1.19682 2.11913,-2.75326 2.48442,-4.19676 0.36526,-1.4435 0.48087,-2.82191 0.76621,-4.01101 l -2.89075,-0.69663 z m -2.26383,6.6231 c 0.30086,-0.24965 0.11175,-0.0773 -0.15098,0 -0.26272,0.0892 -0.67131,0.21101 -1.18416,0.34267 -1.0257,0.26451 -2.48935,0.59499 -4.30705,0.96917 -3.63544,0.74864 -8.69655,1.68304 -14.68587,2.7167 -11.97864,2.06733 -27.67989,4.532 -43.27974,6.7509 -15.59985,2.21889 -31.1031,4.19082 -42.65283,5.25895 -5.77489,0.53407 -10.56694,0.84227 -13.83837,0.84762 -1.63573,0.003 -2.90792,-0.0802 -3.62795,-0.20804 -0.36,-0.0654 -0.58117,-0.15752 -0.55725,-0.14563 0.0238,0 0.45799,0.40627 0.43537,0.9231 l -2.972,-0.13374 c -0.0377,0.8604 0.6254,1.54812 1.10288,1.81084 0.47751,0.26154 0.93624,0.37447 1.46858,0.47017 1.06472,0.19021 2.42516,0.25856 4.15037,0.25559 3.4504,0 8.29105,-0.32097 14.11117,-0.8592 11.64028,-1.07646 27.16913,-3.05343 42.79795,-5.27649 15.62886,-2.22306 31.34999,-4.69427 43.36682,-6.76813 6.00844,-1.03693 11.08818,-1.9743 14.77875,-2.73395 1.84525,-0.38012 3.34076,-0.7112 4.45217,-0.99859 0.55574,-0.14265 1.01342,-0.27639 1.39313,-0.40627 0.37973,-0.1278 0.61573,-0.13968 1.1029,-0.54566 l -1.90395,-2.28131 z m -75.91369,-0.23776 c -3.10449,1.07972 -15.6759,4.70794 -27.33425,8.24848 -5.82919,1.77042 -11.45765,3.52509 -15.66104,4.96889 -2.10171,0.7219 -3.84544,1.36088 -5.11395,1.90386 -0.63425,0.27046 -1.1449,0.51654 -1.57305,0.77213 -0.21398,0.12779 -0.40363,0.24965 -0.61529,0.44699 -0.21161,0.19615 -0.5763,0.47492 -0.6095,1.2307 l 2.972,0.13374 c -0.0267,0.6372 -0.29973,0.77302 -0.34249,0.81255 -0.0428,0.0386 0.0119,0 0.12185,-0.0743 0.21755,-0.13077 0.65009,-0.34267 1.21899,-0.58608 1.1378,-0.48741 2.83832,-1.11866 4.90496,-1.82867 4.13322,-1.41973 9.74207,-3.16815 15.55655,-4.93382 11.62895,-3.53163 23.96742,-7.07782 27.45036,-8.2892 l -0.9752,-2.80379 z m 20.13646,-7.45318 c -6.83926,2.6109 -13.58213,5.12818 -20.14225,7.45318 l 0.99261,2.80378 c 6.59217,-2.33658 13.35337,-4.86635 20.20609,-7.4823 l -1.05645,-2.77466 z m 20.80399,-7.81309 c -6.96717,2.61655 -13.939,5.23636 -20.79817,7.81309 l 1.04484,2.7806 c 6.85899,-2.57672 13.83103,-5.19654 20.7982,-7.81309 l -1.04487,-2.7806 z m 21.50637,-7.97566 c -7.25557,2.47627 -14.38891,5.30264 -21.50637,7.97566 l 1.04487,2.7806 c 7.15003,-2.6855 14.25388,-5.49552 21.41929,-7.94088 l -0.95779,-2.81538 z m 16.41566,-5.0732 c -3.27577,-0.57925 -6.27092,0.38517 -8.96242,1.6022 -2.69153,1.21674 -5.16756,2.69115 -7.45324,3.471 l 0.95779,2.81538 c 2.72455,-0.92965 5.24795,-2.46379 7.72024,-3.58156 2.47226,-1.11777 4.80977,-1.80787 7.22101,-1.38139 l 0.51662,-2.92563 z m 0,0 -0.51662,2.92563 c 1.07782,0.19021 1.49117,0.46393 1.76462,0.80096 0.27343,0.33702 0.49683,0.93766 0.6153,2.00847 l 2.95458,-0.32513 c -0.14652,-1.32403 -0.44268,-2.55176 -1.25959,-3.55838 -0.81695,-1.00632 -2.06596,-1.58704 -3.55829,-1.85155 z m 4.81788,5.40993 -2.95458,0.32513 c 0.53695,4.87319 -1.28938,10.94469 -2.54826,16.19502 l 2.89075,0.69664 c 1.22149,-5.0946 3.25357,-11.39494 2.61209,-17.21679 z m -18.63304,36.73213 c -3.34451,0.58994 -11.57508,3.31526 -22.74855,6.65787 -11.1735,3.34261 -25.0667,7.27367 -38.86819,10.14076 -13.80149,2.86738 -27.53073,4.65534 -38.24708,3.79643 -5.35816,-0.42945 -9.94624,-1.52196 -13.40303,-3.37827 -3.45676,-1.85661 -5.78901,-4.39767 -6.92497,-7.98725 l -2.8327,0.89368 c 1.37568,4.34744 4.36801,7.57117 8.35295,9.71131 3.98495,2.14013 8.9495,3.27633 14.56976,3.72659 11.24051,0.90111 25.15286,-0.95788 39.09457,-3.85439 13.94171,-2.89621 27.89735,-6.8457 39.10616,-10.19871 11.20881,-3.35301 19.88808,-6.13629 22.4177,-6.58239 l -0.51662,-2.92563 z m -114.79348,7.83062 c -2.47746,0.14266 -4.77297,0.25857 -6.88434,0.35961 l 0.13939,2.972 c 2.12254,-0.10105 4.4276,-0.2229 6.91338,-0.36555 l -0.16822,-2.96606 z m 15.17928,-1.03931 c -5.55059,0.4464 -10.6509,0.75965 -15.18507,1.03931 l 0.1801,2.96606 c 4.5328,-0.27937 9.6634,-0.59589 15.24891,-1.04496 l -0.2437,-2.96041 z m 8.68959,-0.69634 c -3.00097,0.23776 -5.89968,0.47344 -8.68379,0.69634 l 0.23211,2.96041 c 2.78423,-0.2229 5.68957,-0.45174 8.68962,-0.69069 l -0.23806,-2.96606 z m 9.25849,-0.8592 c -3.18429,0.2972 -6.27873,0.58548 -9.2759,0.86485 l 0.27283,2.95476 c 2.99678,-0.27937 6.09756,-0.56319 9.2817,-0.8592 l -0.27848,-2.96041 z m 19.9623,-2.15946 c -6.917,0.83722 -13.60679,1.59181 -19.9565,2.15946 l 0.26689,2.96041 c 6.39722,-0.57182 13.11049,-1.32611 20.0436,-2.1651 l -0.35411,-2.95477 z m 21.25678,-2.99518 c -7.23816,1.09548 -14.36465,2.11874 -21.26837,2.99518 l 0.37729,2.94882 c 6.93748,-0.8809 14.08591,-1.90921 21.33804,-3.00677 l -0.44696,-2.93723 z m 21.98816,-3.20976 c -7.36512,1.07468 -14.7317,2.15025 -21.98236,3.20976 l 0.42954,2.93723 c 7.25025,-1.05952 14.61724,-2.12944 21.98236,-3.20411 l -0.42954,-2.94288 z m 27.22975,-3.85438 c -8.92744,1.26399 -18.07715,2.55889 -27.22396,3.85438 l 0.41793,2.94288 c 9.14692,-1.2955 18.29093,-2.5904 27.21819,-3.85439 l -0.41216,-2.94287 z m -1.05063,0.6791 c -2.38919,3.81278 -5.01016,5.82512 -7.72024,6.30391 l 0.51662,2.92563 c 3.78776,-0.66929 7.06064,-3.40234 9.72287,-7.65081 l -2.51925,-1.57873 z m -25.34325,20.56029 c -58.96874,14.78718 -103.27118,11.48737 -103.27118,11.48737 l -0.22052,2.96606 c 0,0 44.8003,3.32953 104.21152,-11.56851 l -0.71976,-2.88492 z m 1.48018,0.46423 -2.24059,1.95617 c 0,0 1.50297,1.77933 1.96196,3.98783 0.22944,1.10439 0.20834,2.25426 -0.32504,3.43652 -0.5333,1.18196 -1.61139,2.46349 -3.77887,3.70341 -4.33493,2.47924 -12.99864,4.59293 -28.768,4.71894 -15.7694,0.12779 -38.63597,-1.68364 -71.48473,-6.76219 l -0.45858,2.93693 c 32.94895,5.0943 55.94708,6.92565 71.96652,6.79726 16.01943,-0.1278 25.06789,-2.16748 30.2192,-5.11392 2.57565,-1.47292 4.18612,-3.22373 5.01525,-5.06161 0.8291,-1.83789 0.84791,-3.69271 0.52241,-5.25896 -0.65101,-3.13248 -2.62953,-5.34038 -2.62953,-5.34038 z m -104.0374,21.1116 -1.65433,2.473 c 18.71724,12.49458 51.05324,27.47405 78.34586,35.64645 13.64629,4.08621 25.98986,6.49026 34.9442,5.91488 4.47717,-0.28829 8.1744,-1.30917 10.72128,-3.51172 2.54686,-2.20255 3.66819,-5.61559 3.05905,-9.72854 l -2.94296,0.4351 c 0.50663,3.42137 -0.27462,5.50236 -2.06067,7.04691 -1.78602,1.54455 -4.85012,2.52768 -8.96824,2.79219 -8.23625,0.52931 -20.42338,-1.75794 -33.89937,-5.79302 -26.95197,-8.07046 -59.23329,-23.05142 -77.54482,-35.27525 z m -0.83005,-0.24965 0.006,2.972 c 0,0 30.0133,-0.0862 60.53127,3.57591 15.25899,1.83134 30.6428,4.60927 42.36259,8.74748 5.85992,2.06911 10.8017,4.48415 14.32598,7.20948 3.52429,2.72562 5.59048,5.68573 6.07751,8.97395 l 2.94296,-0.4351 c -0.62879,-4.2461 -3.29422,-7.86659 -7.20362,-10.8897 -3.90937,-3.02342 -9.10353,-5.52138 -15.15022,-7.65647 -12.09336,-4.27017 -27.62503,-7.05315 -43.00111,-8.89846 -30.7522,-3.69093 -60.89116,-3.59909 -60.89116,-3.59909 z m -3.12291,5.82214 -1.50924,2.56008 c 0,0 23.60653,13.92115 51.06382,26.3126 13.72865,6.19543 28.42539,12.01906 41.67765,15.53316 13.25227,3.51409 25.05981,4.83158 33.28988,1.51512 l -1.1145,-2.75712 c -7.01802,2.82785 -18.42316,1.81381 -31.41496,-1.63133 -12.9918,-3.44485 -27.57388,-9.20963 -41.21328,-15.36494 -27.27876,-12.31062 -50.7794,-26.16757 -50.77937,-26.16757 z m 0.53983,0.55161 -2.58891,1.46282 c 18.90578,33.43796 37.42137,52.53425 54.40732,62.42922 16.98596,9.89498 32.44681,10.50364 44.8412,7.02373 12.3944,-3.47992 21.71275,-10.93964 26.8467,-17.17014 2.56695,-3.11525 4.14023,-5.80877 4.45217,-8.10345 0.0779,-0.5736 0.0764,-1.14452 -0.1162,-1.7297 -0.19259,-0.58549 -0.64285,-1.17156 -1.23059,-1.486 -1.17548,-0.62917 -2.39709,-0.35724 -3.74403,0.18426 l 1.1145,2.75713 c 0.81834,-0.3296 1.01577,-0.24668 1.03324,-0.27343 0,0.0624 0.0119,0.0476 0,0.14563 -0.14652,1.07794 -1.42849,3.73105 -3.80208,6.61151 -4.74714,5.76122 -13.65779,12.9169 -25.35487,16.20096 -11.69707,3.28406 -26.18958,2.802 -42.54833,-6.72771 -16.35878,-9.52942 -34.57523,-28.19031 -53.31024,-61.32632 z m 3.88333,17.98297 -2.5947,1.45093 c 0,0 8.43944,15.09568 22.38867,29.88256 13.94922,14.78719 33.52641,29.46738 56.00943,28.18169 l -0.16821,-2.96605 c -21.08681,1.20574 -40.01464,-12.77069 -53.68174,-27.25889 -13.66713,-14.4879 -21.95333,-29.29024 -21.95333,-29.29024 z m 0.16257,0.44105 -2.91975,0.56884 c 6.0668,31.38699 16.72115,50.71925 28.77383,62.02295 12.05267,11.304 25.47604,14.47809 36.67982,13.66436 11.20376,-0.81373 20.18392,-5.37337 23.93853,-10.22219 0.93865,-1.21198 1.5702,-2.47865 1.70076,-3.82526 0.13047,-1.34632 -0.36184,-2.75653 -1.39312,-3.74977 -2.06254,-1.98619 -5.67914,-2.67242 -11.30751,-2.35085 l 0.16821,2.96605 c 5.26413,-0.30077 8.16611,0.65384 9.07272,1.52672 0.45332,0.43658 0.55953,0.75518 0.505,1.31778 -0.0547,0.5623 -0.38841,1.37752 -1.09709,2.2929 -2.83472,3.66061 -11.31891,8.31684 -21.8024,9.07857 -10.48346,0.76142 -22.97736,-2.12498 -34.43338,-12.86906 -11.45605,-10.74437 -21.89885,-29.44746 -27.88574,-60.42104 z m 29.92316,-105.63378 c -6.25169,5.615 -12.00191,11.75961 -17.33279,18.22103 l 2.29287,1.89227 c 5.25182,-6.36572 10.90141,-12.40185 17.02513,-17.90154 l -1.98521,-2.21176 z m 69.74332,-45.8104 c -25.5641,10.66294 -49.29516,27.44523 -69.74332,45.8104 l 1.98521,2.21176 c 20.26704,-18.2029 43.75779,-34.79498 68.90164,-45.28257 l -1.14353,-2.73959 z m 20.5602,-6.24001 c -7.28984,0.64017 -14.64289,3.77177 -20.5602,6.24001 l 1.14353,2.73959 c 7.88502,-3.28881 17.95739,-7.32865 26.06304,-5.75825 l 0.56884,-2.91969 c -2.35994,-0.45709 -4.78527,-0.51534 -7.21521,-0.30166 z m 7.21521,0.30166 -0.56884,2.91969 c 1.84223,0.35724 3.12952,0.81819 3.91234,1.26548 0.78283,0.44758 1.02683,0.817 1.1145,1.09132 0.0877,0.27342 0.0716,0.61609 -0.1914,1.18404 -0.26302,0.56825 -0.78065,1.2851 -1.49179,2.03166 -2.84459,2.98656 -8.53127,6.31818 -11.23208,7.90017 l 1.50342,2.56573 c 2.67067,-1.56446 8.47049,-4.8292 11.8822,-8.41106 0.8529,-0.89516 1.56746,-1.82332 2.03742,-2.83826 0.47,-1.01523 0.68419,-2.1963 0.31929,-3.33785 -0.36494,-1.14125 -1.2571,-2.07713 -2.467,-2.76871 -1.20993,-0.69159 -2.7727,-1.20574 -4.81791,-1.60221 z m -8.45742,16.3983 c -12.03163,7.06891 -24.8688,14.61035 -37.70144,22.15061 l 1.50924,2.55979 c 12.83264,-7.54026 25.6641,-15.08171 37.69562,-22.15061 l -1.50342,-2.55979 z m -37.69455,22.13962 c -6.43286,3.74323 -12.86248,7.48884 -19.19611,11.17382 l 1.49182,2.56573 c 6.33363,-3.68498 12.76896,-7.42495 19.20188,-11.16818 l -1.49759,-2.57137 z m -19.19029,11.16818 c -6.36037,3.65466 -12.59756,7.30012 -18.57499,10.93012 l 1.54404,2.5366 c 5.94798,-3.61217 12.16323,-7.24187 18.51113,-10.88941 l -1.48018,-2.57731 z m -18.58082,10.93012 c -5.94941,3.65972 -11.67473,7.25138 -17.03675,10.78509 l 1.63112,2.47864 c 5.32232,-3.50755 11.02568,-7.08168 16.96129,-10.73278 l -1.55566,-2.53095 z m -17.03095,10.77944 c -2.67751,1.75021 -5.28362,3.45584 -7.8015,5.10233 l 1.62533,2.49024 c 2.51847,-1.64679 5.12464,-3.35242 7.80149,-5.10233 l -1.62532,-2.49024 z m -7.81892,5.11392 c -0.64022,0.43094 -1.60211,1.23338 -2.93716,2.29854 -1.33503,1.06517 -2.96077,2.34372 -4.58571,3.51172 -1.62491,1.16829 -3.25865,2.22721 -4.52184,2.83291 -0.63161,0.30284 -1.17317,0.48176 -1.486,0.53407 -0.31286,0.0505 -0.26867,-0.0297 -0.10461,0.10402 l -1.8575,2.31608 c 0.763,0.61044 1.68586,0.63779 2.44958,0.51088 0.76371,-0.12779 1.50006,-0.40924 2.28125,-0.78371 1.56238,-0.74895 3.27874,-1.88633 4.97462,-3.10545 1.69585,-1.21941 3.35952,-2.52322 4.70759,-3.59879 1.3481,-1.07557 2.4675,-1.97044 2.73982,-2.15381 l -1.66016,-2.46676 z m -6.0775,-6.56515 c -0.66501,0.8066 -3.71729,4.40718 -6.29808,8.04521 -1.29041,1.81916 -2.47187,3.64069 -3.22741,5.25895 -0.37777,0.80927 -0.66154,1.5606 -0.76042,2.35115 -0.099,0.79055 0.0538,1.85363 0.87071,2.50747 l 1.8575,-2.31608 c 0.22438,0.1813 0.18812,0.44045 0.22052,0.1813 0.0327,-0.26154 0.20061,-0.81077 0.505,-1.46282 0.60885,-1.30441 1.7223,-3.05522 2.96041,-4.80067 2.47618,-3.49062 5.42741,-6.97677 6.16458,-7.87105 l -2.29287,-1.89227 z m -51.09865,68.43712 c 0,0 -23.50061,13.85695 -50.77938,26.16757 -13.63939,6.15531 -28.22148,11.92009 -41.21328,15.36494 -12.9918,3.44514 -24.40273,4.45919 -31.42078,1.63133 l -1.10867,2.75712 c 8.23009,3.31646 20.03757,1.99897 33.28987,-1.51512 13.25226,-3.5141 27.94318,-9.33773 41.67183,-15.53316 27.45729,-12.39145 51.06962,-26.3126 51.06962,-26.3126 l -1.50921,-2.56008 z m -0.53984,0.55161 c -18.73524,33.13601 -36.95726,51.79689 -53.31603,61.32631 -16.35878,9.52972 -30.84555,10.01178 -42.54254,6.72772 -11.69702,-3.28406 -20.60778,-10.43974 -25.35487,-16.20096 -2.37356,-2.88047 -3.65553,-5.53357 -3.80208,-6.61151 -0.0119,-0.0951 0,-0.0832 0,-0.14563 0.0178,0.0297 0.21488,-0.0565 1.03325,0.27342 l 1.10867,-2.75712 c -1.34691,-0.54299 -2.56272,-0.81492 -3.73821,-0.18427 -0.58774,0.31444 -1.03806,0.90052 -1.23058,1.486 -0.19259,0.58519 -0.19408,1.15611 -0.11621,1.72971 0.31194,2.29468 1.88529,4.9882 4.4522,8.10345 5.13387,6.2305 14.44657,13.69022 26.84087,17.17013 12.39434,3.47992 27.86104,2.87125 44.847,-7.02372 16.98599,-9.89498 35.50133,-28.99126 54.40735,-62.42923 l -2.58891,-1.46282 z m -3.88333,17.98297 c 0,0 -8.28638,14.80234 -21.95333,29.29024 -13.66692,14.4882 -32.59478,28.46463 -53.68174,27.25889 l -0.17416,2.96605 c 22.48315,1.28569 42.06619,-13.3945 56.01524,-28.18169 13.94902,-14.78688 22.38287,-29.88256 22.38284,-29.88256 l -2.58888,-1.45093 z m -0.16257,0.44105 c -5.98694,30.97358 -16.43551,49.67667 -27.8915,60.42104 -11.45599,10.74437 -23.95004,13.63048 -34.43341,12.86906 -10.48337,-0.76173 -18.96195,-5.41796 -21.79658,-9.07857 -0.70867,-0.91538 -1.04258,-1.7306 -1.09708,-2.2929 -0.0544,-0.5626 0.0458,-0.8812 0.49917,-1.31778 0.90667,-0.87288 3.80859,-1.82749 9.07274,-1.52672 l 0.17416,-2.96605 c -5.62837,-0.32157 -9.24497,0.36466 -11.30753,2.35085 -1.03126,0.99324 -1.52945,2.40345 -1.39892,3.74977 0.13047,1.34661 0.76796,2.61328 1.70658,3.82526 3.75452,4.84882 12.72904,9.40846 23.93274,10.22219 11.20366,0.81373 24.62717,-2.36036 36.67979,-13.66436 12.05264,-11.3037 22.70697,-30.63596 28.77383,-62.02295 l -2.91396,-0.56884 z m 1.46279,-24.79777 c 0,0 -30.14493,-0.0921 -60.89695,3.59909 -15.37603,1.84531 -30.90199,4.62829 -42.99532,8.89846 -6.04665,2.13509 -11.24085,4.63305 -15.15025,7.65647 -3.90936,3.02312 -6.57477,6.6436 -7.20359,10.8897 l 2.93717,0.4351 c 0.48702,-3.28822 2.55901,-6.24833 6.0833,-8.97395 3.52428,-2.72532 8.4603,-5.14037 14.32016,-7.20948 11.71975,-4.13821 27.10371,-6.91614 42.36261,-8.74748 30.5178,-3.66299 60.53128,-3.57591 60.53125,-3.57591 l 0.0119,-2.972 z m -0.83008,0.24965 c -18.31165,12.22383 -50.59303,27.20479 -77.54478,35.27525 -13.47591,4.03508 -25.66322,6.32234 -33.89937,5.79302 -4.11809,-0.26451 -7.18226,-1.24764 -8.96825,-2.79219 -1.78602,-1.54455 -2.5731,-3.62554 -2.06646,-7.04691 l -2.93717,-0.4351 c -0.60914,4.11295 0.5122,7.52599 3.05905,9.72854 2.54689,2.20255 6.24414,3.22403 10.72125,3.51172 8.95428,0.57538 21.29803,-1.82867 34.94424,-5.91488 27.2924,-8.1724 59.62267,-23.15187 78.34003,-35.64645 l -1.64854,-2.473 z m -102.55719,-21.57583 -0.71979,2.88492 c 59.41042,14.89804 104.21155,11.56851 104.21155,11.56851 l -0.22052,-2.96606 c 0,0 -44.30327,3.29981 -103.27118,-11.48737 z m -1.48018,0.46423 c 0,0 -1.97843,2.2079 -2.62953,5.34038 -0.32555,1.56625 -0.30665,3.42107 0.52242,5.25896 0.82907,1.83818 2.43383,3.58869 5.00945,5.06161 5.15122,2.94644 14.1998,4.98583 30.2192,5.11392 16.01938,0.12779 39.01748,-1.70296 71.96649,-6.79726 l -0.45275,-2.93693 c -32.84886,5.07855 -55.72119,6.8885 -71.49053,6.76219 -15.76934,-0.12483 -24.4274,-2.2397 -28.76224,-4.71894 -2.16741,-1.23992 -3.24557,-2.52145 -3.77883,-3.70341 -0.53327,-1.18226 -0.55461,-2.33213 -0.32508,-3.43652 0.45908,-2.2085 1.962,-3.98783 1.962,-3.98783 l -2.2406,-1.95617 z m -23.86307,-21.02452 -2.51925,1.57873 c 2.66202,4.24847 5.9281,6.98182 9.71705,7.65081 l 0.51662,-2.92563 c -2.71142,-0.47879 -5.32523,-2.49113 -7.71442,-6.30391 z m -1.05066,-0.6791 -0.41792,2.94287 c 8.92628,1.26399 18.07668,2.55889 27.22396,3.85439 l 0.41215,-2.94288 c -9.14716,-1.29549 -18.29167,-2.59039 -27.21819,-3.85438 z m 27.22399,3.85438 -0.42375,2.94288 c 7.36607,1.07467 14.72626,2.14459 21.97654,3.20411 l 0.42954,-2.93723 c -7.25067,-1.05951 -14.6162,-2.13508 -21.98233,-3.20976 z m 21.99395,3.20976 -0.44696,2.93723 c 7.25299,1.09756 14.39931,2.12587 21.33804,3.00677 l 0.37729,-2.94882 c -6.90487,-0.87644 -14.02929,-1.8997 -21.26837,-2.99518 z m 21.25675,2.99518 -0.35408,2.95477 c 6.93308,0.83899 13.64638,1.59329 20.04358,2.1651 l 0.26689,-2.96041 c -6.34971,-0.56765 -13.0395,-1.32224 -19.95654,-2.15946 z m 19.96233,2.15946 -0.27848,2.96041 c 3.18465,0.2972 6.28334,0.58043 9.28171,0.8592 l 0.27283,-2.95476 c -2.99854,-0.27937 -6.09213,-0.56765 -9.27588,-0.86485 z m 9.25846,0.8592 -0.23806,2.96606 c 2.99863,0.23776 5.89895,0.46809 8.6838,0.69069 l 0.23806,-2.96041 c -2.78349,-0.2229 -5.68259,-0.45858 -8.68383,-0.69634 z m 8.68383,0.69634 -0.23806,2.96041 c 5.58453,0.44907 10.71584,0.76618 15.24891,1.04496 l 0.17981,-2.96606 c -4.53391,-0.27937 -9.64111,-0.59291 -15.19087,-1.03931 z m 15.18504,1.03931 -0.16821,2.96606 c 2.48551,0.14265 4.79116,0.26451 6.9134,0.36555 l 0.13939,-2.972 c -2.11107,-0.10104 -4.40721,-0.21695 -6.88437,-0.35961 z m -114.79927,-7.83062 -0.51662,2.92563 c 2.52935,0.4461 11.20895,3.22938 22.4177,6.58239 11.20878,3.35301 25.17019,7.3025 39.11199,10.19871 13.94176,2.89651 27.84817,4.7555 39.08874,3.85439 5.62029,-0.45026 10.59063,-1.58646 14.57558,-3.72659 3.98495,-2.14014 6.9773,-5.36387 8.35295,-9.71131 l -2.8327,-0.89368 c -1.13593,3.58958 -3.4682,6.13064 -6.925,7.98725 -3.45679,1.85631 -8.05061,2.94882 -13.40883,3.37827 -10.7164,0.85891 -24.44549,-0.92905 -38.24707,-3.79643 -13.80155,-2.86709 -27.68893,-6.79815 -38.86237,-10.14076 -11.17344,-3.34261 -19.41013,-6.06793 -22.75437,-6.65787 z m -13.13021,-20.21198 -2.88492,0.69664 c 0.28532,1.1888 0.40105,2.56721 0.76622,4.01101 0.36517,1.4435 1.0484,2.99994 2.48441,4.19676 l 1.90392,-2.28131 c -0.85094,-0.70911 -1.22595,-1.52701 -1.50921,-2.64686 -0.28323,-1.11985 -0.40556,-2.49767 -0.76042,-3.97624 z m -5.49704,-16.52015 c -0.6426,5.82215 1.38968,12.12219 2.61212,17.21679 l 2.88492,-0.69664 c -1.25977,-5.25033 -3.08029,-11.32212 -2.54245,-16.19501 l -2.95459,-0.32514 z m 4.81791,-5.40993 c -1.49224,0.26451 -2.74152,0.84523 -3.55828,1.85155 -0.81674,1.00662 -1.11337,2.23435 -1.25963,3.55838 l 2.95459,0.32514 c 0.11828,-1.07082 0.33619,-1.67175 0.6095,-2.00848 0.27342,-0.33673 0.69277,-0.61015 1.77042,-0.80096 l -0.5166,-2.92563 z m 0,0 0.5166,2.92563 c 2.41192,-0.42648 4.74895,0.26451 7.22103,1.38139 2.47211,1.11777 4.98987,2.65191 7.71445,3.58156 l 0.96355,-2.81538 c -2.28561,-0.77985 -4.76182,-2.25426 -7.45321,-3.471 -2.69138,-1.21703 -5.6862,-2.18144 -8.96242,-1.6022 z m 16.41563,5.0732 -0.96355,2.81538 c 7.16558,2.44536 14.27484,5.25538 21.42509,7.94088 l 1.04483,-2.7806 c -7.1177,-2.67302 -14.25062,-5.49939 -21.50637,-7.97566 z m 21.50637,7.97566 -1.04483,2.7806 c 6.96693,2.61655 13.93335,5.23637 20.79237,7.81309 l 1.04487,-2.7806 c -6.85914,-2.57673 -13.82539,-5.19654 -20.79241,-7.81309 z m 20.804,7.81309 -1.06225,2.77466 c 6.85301,2.61595 13.61972,5.14572 20.21191,7.4823 l 0.99262,-2.80378 c -6.5601,-2.325 -13.30267,-4.84228 -20.14228,-7.45318 z m 20.13066,7.45318 -0.97518,2.80378 c 3.48331,1.21139 15.82153,4.75758 27.45034,8.28921 5.81442,1.76566 11.42345,3.51409 15.55658,4.93381 2.06655,0.71001 3.77298,1.34127 4.91075,1.82867 0.5689,0.24371 1.00142,0.4562 1.219,0.58608 0.10877,0.0654 0.16464,0.11591 0.12185,0.0743 -0.0428,-0.0386 -0.31447,-0.17535 -0.34247,-0.81254 l 2.96621,-0.13374 c -0.0333,-0.75578 -0.39204,-1.03426 -0.6037,-1.23071 -0.21161,-0.19615 -0.40702,-0.31919 -0.62109,-0.44699 -0.42815,-0.25559 -0.93883,-0.50048 -1.57308,-0.77212 -1.26848,-0.54299 -3.00648,-1.18197 -5.10813,-1.90387 -4.20329,-1.44379 -9.83193,-3.19846 -15.66104,-4.96888 -11.6582,-3.54054 -24.23475,-7.16846 -27.34007,-8.24849 z m -75.9079,0.23776 -1.90392,2.2813 c 0.48729,0.40657 0.71738,0.41638 1.09708,0.54566 0.37971,0.1278 0.83745,0.26154 1.39313,0.40628 1.11138,0.28828 2.60695,0.61847 4.4522,0.99859 3.69051,0.75964 8.77028,1.69701 14.77871,2.73394 12.0169,2.07386 27.74371,4.54508 43.37262,6.76813 15.62894,2.22306 31.15782,4.20003 42.79795,5.27649 5.82007,0.53823 10.65515,0.85356 14.10541,0.85921 1.72512,0.003 3.09153,-0.0654 4.15613,-0.2556 0.53232,-0.0951 0.9911,-0.20804 1.46861,-0.47017 0.47751,-0.26153 1.13519,-0.95074 1.09709,-1.81083 l -2.96621,0.13374 c -0.0238,-0.51654 0.41127,-0.90973 0.43534,-0.92311 0.0238,0 -0.20328,0.0803 -0.56304,0.14563 -0.71985,0.1278 -1.98649,0.21101 -3.62213,0.20804 -3.27125,0 -8.06357,-0.31355 -13.83837,-0.84761 -11.54961,-1.06814 -27.05289,-3.04006 -42.65283,-5.25896 -15.59996,-2.21889 -31.30686,-4.68357 -43.28553,-6.75089 -5.98936,-1.03366 -11.0447,-1.96806 -14.68008,-2.71671 -1.81767,-0.37417 -3.28141,-0.70406 -4.30708,-0.96917 -0.51282,-0.13374 -0.92158,-0.25262 -1.18413,-0.34267 -0.26243,-0.0892 -0.45198,-0.26153 -0.15098,0 z m -5.52025,-71.45549 0.55145,2.92534 c 0.34327,-0.0654 1.14859,0.24371 2.13033,1.01018 0.98171,0.7647 1.95787,1.79271 3.14034,2.47865 l 1.49179,-2.57167 c -0.55172,-0.31979 -1.62773,-1.33145 -2.80946,-2.25218 -1.18172,-0.92073 -2.65289,-1.94042 -4.50445,-1.59032 z m 7.31391,3.8425 -1.49179,2.57167 c 2.45317,1.4227 4.92543,2.78833 7.27908,4.29543 l 1.60208,-2.50183 c -2.46221,-1.57664 -4.97322,-2.96397 -7.38937,-4.36527 z m 7.38937,4.36527 -1.60208,2.50183 c 11.7536,7.52273 24.29327,15.54921 36.83071,23.57271 l 1.59629,-2.50183 c -12.53729,-8.0235 -25.07122,-16.04998 -36.82492,-23.57271 z m 36.83074,23.57271 -1.60791,2.49619 c 6.25169,4.03924 12.50133,8.07938 18.65625,12.05621 l 1.61371,-2.49589 c -6.1551,-3.97713 -12.41053,-8.01726 -18.66205,-12.05651 z m 18.66788,12.06216 -1.62533,2.4843 c 3.24385,2.12081 18.55158,11.19819 33.87036,20.24109 15.31875,9.04291 30.5479,17.98446 33.12733,19.52129 l 1.52083,-2.55414 C 335.128,377.76022 319.94468,368.8469 304.62964,359.80637 289.3146,350.76555 273.76546,341.53006 270.8754,339.64076 Z m 65.13436,40.96961 2.31608,0.8705 c 0.0835,-0.2229 0.16822,-0.50406 0.16822,-0.8705 l -2.48442,0 z m -116.4246,-42.31057 -0.92292,2.82696 c 1.74976,0.57389 9.97156,3.75126 21.0652,8.03361 11.09362,4.28265 25.19748,9.71279 39.18742,14.94708 13.98998,5.23458 27.86312,10.26707 38.5257,13.76868 5.33132,1.7511 9.85492,3.11941 13.22891,3.94146 1.68699,0.41103 3.08059,0.6901 4.20258,0.8069 0.561,0.0594 1.04956,0.0803 1.52663,0.0357 0.47706,-0.0446 0.99508,-0.10402 1.54404,-0.60956 l -2.01421,-2.18234 c 0.29334,-0.27045 0.35554,-0.18426 0.1914,-0.1694 -0.16406,0.0297 -0.49924,0.0297 -0.94034,-0.0297 -0.88224,-0.0921 -2.19289,-0.34387 -3.80791,-0.73736 -3.23,-0.78698 -7.70954,-2.13924 -13.0025,-3.87757 -10.58587,-3.47664 -24.44341,-8.50615 -38.41541,-13.7339 -13.97196,-5.22745 -28.06087,-10.65373 -39.15258,-14.93549 -11.09174,-4.28176 -19.04719,-7.37472 -21.21615,-8.08592 z m -17.40242,-6.88999 -1.8575,2.32172 c 5.40479,4.33407 12.54856,5.49761 18.337,7.39523 l 0.92292,-2.82696 c -6.09836,-1.99927 -12.82132,-3.2163 -17.40242,-6.88999 z m -0.70237,-0.66187 -2.21159,1.9853 c 0.31643,0.35248 0.66763,0.68267 1.05064,0.99265 l 1.86912,-2.31043 c -0.26362,-0.21399 -0.4968,-0.43213 -0.70817,-0.66752 z m -4.20841,-16.12547 c -0.063,2.40494 -0.60415,5.65809 -0.65592,8.91035 -0.0517,3.25226 0.38104,6.65342 2.65274,9.19448 l 2.21634,-1.97371 c -1.49708,-1.67472 -1.94496,-4.22737 -1.89812,-7.16876 0.0467,-2.94139 0.58391,-6.12291 0.65592,-8.87528 l -2.972,-0.0802 z m 3.40154,-18.8187 c -0.91695,0.17535 -1.59237,0.81492 -2.00842,1.47441 -0.41605,0.65949 -0.67128,1.39298 -0.8707,2.20582 -0.39882,1.62538 -0.55398,3.58036 -0.62109,5.58973 -0.13434,4.01934 0.12898,8.38104 0.0987,9.54874 l 2.972,0.0802 c 0.044,-1.68987 -0.23182,-5.71812 -0.10432,-9.53149 0.0636,-1.90654 0.23925,-3.73135 0.54563,-4.98018 0.15306,-0.62472 0.34725,-1.09756 0.49338,-1.32938 0.14622,-0.23182 0.14771,-0.15752 0.0464,-0.13968 l -0.55145,-2.9197 z m 15.7017,-12.26514 c -2.43015,-0.21399 -4.84921,-0.15455 -7.20945,0.30165 l 0.56308,2.9197 c 8.10693,-1.57041 18.18382,2.46943 26.06883,5.75824 l 1.14354,-2.73958 c -5.91732,-2.46825 -13.27563,-5.59985 -20.566,-6.24001 z m 20.566,6.24001 -1.14354,2.73958 c 25.14401,10.4876 48.63398,27.07967 68.90164,45.28258 l 1.98518,-2.21177 c -20.4487,-18.36517 -44.17902,-35.14745 -69.74326,-45.81039 z m 69.74328,45.81039 -1.98518,2.21177 c 6.12262,5.49998 11.77334,11.53581 17.02513,17.90154 l 2.29287,-1.89227 c -5.3309,-6.46143 -11.08241,-12.60633 -17.33282,-18.22104 z m 17.33282,18.22104 -2.29287,1.89227 c 0.73733,0.89487 3.68837,4.38043 6.16458,7.87104 1.23811,1.74546 2.35139,3.49626 2.96038,4.80067 0.30451,0.65206 0.47237,1.20218 0.50503,1.46282 0.0327,0.26154 -0.003,-3e-4 0.22053,-0.18129 l 1.8575,2.31608 c 0.81676,-0.65414 0.9697,-1.71722 0.8707,-2.50748 -0.099,-0.79055 -0.38258,-1.54187 -0.76041,-2.35115 -0.75566,-1.61825 -1.937,-3.43979 -3.22739,-5.25895 -2.58079,-3.63803 -5.63381,-7.2392 -6.29808,-8.0452 z m -6.07753,6.56514 -1.66013,2.46676 c 0.27224,0.18427 1.39158,1.07824 2.73983,2.15381 1.34822,1.07557 3.01164,2.37938 4.70758,3.59879 1.69595,1.21912 3.41225,2.3565 4.97463,3.10545 0.78119,0.37447 1.51753,0.65651 2.28124,0.78371 0.76369,0.1278 1.68658,0.10105 2.44956,-0.51088 l -1.8575,-2.31608 c 0.16435,-0.13077 0.20833,-0.0535 -0.10432,-0.10402 -0.31286,-0.0535 -0.85439,-0.23182 -1.486,-0.53407 -1.26322,-0.6057 -2.90263,-1.66462 -4.52766,-2.83291 -1.625,-1.16829 -3.25048,-2.44655 -4.58571,-3.51172 -1.33523,-1.06516 -2.29046,-1.8676 -2.93137,-2.29854 z m -7.81891,-5.11392 -1.6253,2.49024 c 2.6756,1.74991 5.28341,3.45554 7.8015,5.10233 l 1.62529,-2.49024 c -2.51767,-1.64649 -5.12571,-3.35212 -7.80149,-5.10233 z m -17.03093,-10.77944 -1.55566,2.53096 c 5.93529,3.6511 11.63181,7.22522 16.95549,10.73278 l 1.63692,-2.47865 c -5.36306,-3.53341 -11.08761,-7.12537 -17.03675,-10.78509 z m -18.58082,-10.93012 -1.48017,2.57732 c 6.34816,3.64753 12.56154,7.27723 18.51112,10.8894 l 1.54405,-2.5366 c -5.97883,-3.63 -12.2143,-7.27545 -18.575,-10.93012 z m -19.19029,-11.16818 -1.49759,2.57137 c 6.43319,3.74324 12.8695,7.4832 19.20188,11.16818 l 1.49183,-2.56572 c -6.3325,-3.68499 -12.76293,-7.4306 -19.19612,-11.17383 z m -37.69562,-22.14496 -1.50342,2.55978 c 12.03152,7.0689 24.86286,14.61065 37.69563,22.15061 l 1.50921,-2.55978 c -12.8328,-7.54026 -25.66988,-15.08171 -37.70142,-22.15061 z m -8.45745,-16.39831 c -2.04515,0.39647 -3.6138,0.91062 -4.82367,1.60221 -1.20987,0.69158 -2.10219,1.62747 -2.467,2.76871 -0.36481,1.14155 -0.14503,2.32262 0.32505,3.33786 0.47005,1.01493 1.18449,1.94309 2.03745,2.83826 3.41186,3.58185 9.21225,6.84689 11.8822,8.41105 l 1.50342,-2.56573 c -2.70045,-1.58199 -8.38728,-4.9136 -11.23208,-7.90017 -0.7112,-0.74656 -1.23451,-1.46341 -1.49762,-2.03165 -0.26302,-0.56795 -0.27342,-0.90973 -0.18575,-1.18405 0.0877,-0.27342 0.32594,-0.64373 1.10871,-1.09132 0.78276,-0.44728 2.07014,-0.90824 3.91237,-1.26547 l -0.56308,-2.9197 z m 307.65419,-12.4393 c -35.29707,2.07267 -69.30664,22.90847 -95.84116,45.31705 -26.53454,22.40858 -45.51757,46.29453 -50.88969,55.3419 l 2.55404,1.51512 c 4.96185,-8.35667 23.98154,-32.39658 50.25119,-54.58166 26.26963,-22.18479 59.85982,-42.6155 94.09978,-44.62635 l -0.17416,-2.96606 z m -317.3364,0 -0.17416,2.96606 c 34.24041,2.01085 67.82989,22.44156 94.09977,44.62635 26.26986,22.18508 45.2892,46.22499 50.25116,54.58166 l 2.55988,-1.51512 c -5.37228,-9.04737 -24.35494,-32.93332 -50.8897,-55.3419 -26.53475,-22.40858 -60.54943,-43.24438 -95.84698,-45.31705 z m 0,0 c 0,0 -0.38692,0 -0.78942,0.0654 -0.40253,0.0773 -0.92712,0.23776 -1.51504,0.55131 -1.17587,0.62888 -2.57405,1.87266 -3.82529,4.1504 -2.50245,4.55518 -4.5586,13.22391 -3.83108,30.55007 l 2.9662,-0.12185 c -0.71569,-17.04412 1.41773,-25.25665 3.47118,-28.99453 1.02673,-1.86879 2.00093,-2.62725 2.62374,-2.96041 0.3114,-0.16643 0.53793,-0.23181 0.66754,-0.25559 0.12958,-0.0297 0.0523,-0.0297 0.0523,-0.0297 l 0.1798,-2.96606 z m -6.99463,35.19382 -2.9662,0.12185 c 0.61678,14.68792 0.74707,32.19746 2.734,47.46492 1.98693,15.26745 5.68576,28.47175 14.36079,34.32302 l 1.66016,-2.46705 c -7.22279,-4.87171 -11.12075,-17.24444 -13.07216,-32.23907 -1.95142,-14.99462 -2.09645,-32.4358 -2.71659,-47.20367 z m 15.78875,79.44274 -1.66016,2.46705 c 1.92862,1.30055 4.10564,2.21711 6.51866,2.65281 l 0.52825,-2.92564 c -2.00515,-0.36199 -3.77575,-1.10766 -5.38675,-2.19422 z m 6.44317,2.97794 -2.64112,1.36415 c 0,0 0.25113,0.48354 0.69657,1.33502 l 2.63534,-1.38168 c -0.44262,-0.84583 -0.69079,-1.31749 -0.69079,-1.31749 z m 0.69079,1.31749 -2.63534,1.38168 c 1.50601,2.87125 5.38399,10.17821 10.65159,19.46303 l 2.58308,-1.46282 c -5.24611,-9.24678 -9.10424,-16.53145 -10.59933,-19.38189 z m 10.59933,19.38189 -2.58308,1.46282 c 2.22404,3.92215 6.62824,8.0342 13.71649,8.61434 l 0.23806,-2.96635 c -6.07236,-0.49692 -9.51961,-3.84518 -11.37138,-7.11081 z m 10.49488,7.31409 c -9.28937,5.48393 -17.18,10.48789 -20.79238,12.9386 l 1.66596,2.46111 c 3.50196,-2.37581 11.39922,-7.38393 20.64145,-12.83993 l -1.51503,-2.55978 z m -20.79238,12.9386 c -7.87422,5.33949 -11.52562,14.26144 -11.92283,24.39714 -0.39721,10.13571 2.37246,21.58563 7.37196,32.5642 9.99896,21.95713 28.9325,42.17713 50.46015,45.08493 l 0.39471,-2.94287 c -19.92018,-2.69055 -38.45654,-22.08671 -48.14987,-43.37276 -4.84667,-10.64273 -7.48316,-21.71432 -7.11074,-31.21759 0.37242,-9.50297 3.66013,-17.33092 10.62258,-22.05194 l -1.66596,-2.46111 z m 132.94473,-14.9123 -2.96621,0.14562 c 1.81899,36.5972 -10.04173,66.33919 -26.9105,86.2926 -16.8688,19.95311 -38.73012,30.01719 -56.76403,27.57808 l -0.40054,2.94287 c 19.41239,2.62546 42.06851,-8.05858 59.4342,-28.59955 17.36566,-20.54098 29.46181,-51.04231 27.60708,-88.35903 z m -0.0178,-0.15158 -2.93717,0.45294 c 2.55443,16.57068 5.15062,25.08872 7.29649,29.62132 1.07293,2.26615 2.03547,3.55184 2.91976,4.32426 0.88428,0.77272 1.75984,0.99829 2.31025,0.96947 l -0.15662,-2.96606 c 0.24905,0 0.23865,0.13671 -0.19735,-0.2437 -0.43602,-0.38072 -1.22779,-1.32611 -2.18834,-3.35509 -1.9211,-4.05767 -4.51562,-12.38195 -7.04691,-28.80284 z m 19.02195,0 c -2.53125,16.4209 -5.12572,24.74547 -7.04688,28.80284 -0.96058,2.02898 -1.75211,2.97408 -2.18837,3.35509 -0.43626,0.38131 -0.44354,0.23182 -0.20328,0.2437 l -0.14504,2.96606 c 0.54263,0.0297 1.42005,-0.19615 2.30446,-0.96947 0.88444,-0.77242 1.84677,-2.05811 2.91978,-4.32426 2.14599,-4.53259 4.74206,-13.05064 7.29647,-29.62132 l -2.93717,-0.45293 z m -0.0178,0.15158 c -1.85471,37.31672 10.24142,67.81805 27.60711,88.35902 17.36566,20.54098 40.0218,31.22502 59.43416,28.59955 l -0.4005,-2.94287 c -18.03395,2.43912 -39.89526,-7.62496 -56.76403,-27.57807 -16.86881,-19.95341 -28.72369,-49.6954 -26.90474,-86.2926 l -2.972,-0.14563 z m 132.94472,14.9123 -1.66592,2.46111 c 6.96218,4.72102 10.25022,12.54897 10.62258,22.05194 0.37236,9.50327 -2.25836,20.57486 -7.10495,31.21759 -9.69318,21.28605 -28.23569,40.68221 -48.15566,43.37276 l 0.4005,2.94287 c 21.52747,-2.9078 40.46131,-23.1278 50.46015,-45.08493 4.99941,-10.97857 7.76911,-22.42849 7.37196,-32.5642 -0.39715,-10.1357 -4.05467,-19.05765 -11.92866,-24.39714 z m -20.79237,-12.9386 -1.50921,2.55978 c 9.24226,5.456 17.13372,10.46412 20.63566,12.83993 l 1.67175,-2.46111 c -3.61235,-2.45071 -11.50874,-7.45467 -20.7982,-12.9386 z m 10.49487,-7.31409 c -1.85057,3.26534 -5.29922,6.61389 -11.37137,7.11081 l 0.2437,2.96635 c 7.08804,-0.58014 11.48761,-4.6919 13.71067,-8.61434 l -2.58309,-1.46282 z m 10.60517,-19.38189 c -1.49519,2.85074 -5.35798,10.13511 -10.60517,19.38189 l 2.58308,1.46282 c 5.26877,-9.28482 9.14556,-16.59178 10.65162,-19.46303 l -2.62953,-1.38168 z m 0.68495,-1.31749 c 0,0 -0.24251,0.47255 -0.68495,1.31749 l 2.62953,1.38168 c 0.44634,-0.85267 0.69655,-1.34097 0.69655,-1.34097 l -2.64113,-1.3582 z m 6.44321,-2.97794 c -1.61252,1.08686 -3.38187,1.83223 -5.38675,2.19422 l 0.52821,2.92564 c 2.41282,-0.4357 4.58916,-1.35226 6.51867,-2.65281 l -1.66013,-2.46705 z M 523.8138,306.5948 c -0.62013,14.76787 -0.75928,32.20905 -2.71079,47.20367 -1.9515,14.99463 -5.85567,27.36736 -13.07795,32.23907 l 1.66013,2.46705 c 8.67452,-5.85127 12.37959,-19.05557 14.36661,-34.32302 1.98702,-15.26746 2.11722,-32.777 2.734,-47.46492 l -2.972,-0.12185 z m -6.99466,-35.19382 0.18011,2.96606 c 0,0 -0.0773,0 0.0523,0.0297 0.12958,0.0297 0.36188,0.0892 0.67334,0.25559 0.62293,0.33316 1.59106,1.09161 2.61792,2.96041 2.05368,3.73788 4.18701,11.95041 3.4712,28.99453 l 2.972,0.12185 c 0.72764,-17.32616 -1.33416,-25.99489 -3.83691,-30.55008 -1.25136,-2.27774 -2.64933,-3.52152 -3.82529,-4.15039 -0.58798,-0.31444 -1.11248,-0.47463 -1.51501,-0.55131 -0.40255,-0.0773 -0.78945,-0.0654 -0.78945,-0.0654 z" />
  </g>
</svg>
