<?xml version="1.0" encoding="utf-8"?>
<!-- Generator: Adobe Illustrator 21.1.0, SVG Export Plug-In . SVG Version: 6.00 Build 0)  -->
<svg version="1.0" id="Layer_1" xmlns:x="&ns_extend;" xmlns:i="&ns_ai;" xmlns:graph="&ns_graphs;"
	 xmlns="http://www.w3.org/2000/svg" xmlns:xlink="http://www.w3.org/1999/xlink" x="0px" y="0px"
	 viewBox="0 0 539.2915039 539.2915039" style="enable-background:new 0 0 539.2915039 539.2915039;" xml:space="preserve">
<style type="text/css">
	.st0{fill:none;stroke:#000000;stroke-width:0.708661;stroke-linecap:round;stroke-linejoin:round;stroke-miterlimit:10;}
</style>
<metadata>
	<sfw  xmlns="&ns_sfw;">
		<slices></slices>
		<sliceSourceBounds  bottomLeftOrigin="true" height="539.2911377" width="539.2911377" x="155.8541718" y="-694.1453247">
			</sliceSourceBounds>
	</sfw>
</metadata>
<g id="LWPOLYLINE">
	<polyline class="st0" points="17.3618069,521.9287109 17.3618069,533.2675781 6.0234065,533.2675781 6.0234065,510.5907898 
		51.3779068,510.5907898 51.3779068,487.9130859 40.0391045,487.9130859 40.0391045,499.2518921 	"/>
</g>
<g id="LWPOLYLINE_1_">
	<polyline class="st0" points="40.0391045,521.9287109 51.3779068,521.9287109 51.3779068,533.2675781 28.7007065,533.2675781 
		28.7007065,487.9130859 6.0234065,487.9130859 6.0234065,499.2518921 17.3618069,499.2518921 	"/>
</g>
<g id="LWPOLYLINE_2_">
	<polyline class="st0" points="17.3618069,465.2362976 17.3618069,476.5741882 6.0234065,476.5741882 6.0234065,453.8974915 
		51.3779068,453.8974915 51.3779068,431.2207031 40.0391045,431.2207031 40.0391045,442.5585938 	"/>
</g>
<g id="LWPOLYLINE_3_">
	<polyline class="st0" points="40.0391045,465.2362976 51.3779068,465.2362976 51.3779068,476.5741882 28.7007065,476.5741882 
		28.7007065,431.2207031 6.0234065,431.2207031 6.0234065,442.5585938 17.3618069,442.5585938 	"/>
</g>
<g id="LWPOLYLINE_4_">
	<polyline class="st0" points="17.3618069,408.5429993 17.3618069,419.8818054 6.0234065,419.8818054 6.0234065,397.2041016 
		51.3779068,397.2041016 51.3779068,374.5273132 40.0391045,374.5273132 40.0391045,385.8662109 	"/>
</g>
<g id="LWPOLYLINE_5_">
	<polyline class="st0" points="40.0391045,408.5429993 51.3779068,408.5429993 51.3779068,419.8818054 28.7007065,419.8818054 
		28.7007065,374.5273132 6.0234065,374.5273132 6.0234065,385.8662109 17.3618069,385.8662109 	"/>
</g>
<g id="LWPOLYLINE_6_">
	<polyline class="st0" points="17.3618069,351.8505859 17.3618069,363.1885071 6.0234065,363.1885071 6.0234065,340.5116882 
		51.3779068,340.5116882 51.3779068,317.8349915 40.0391045,317.8349915 40.0391045,329.1727905 	"/>
</g>
<g id="LWPOLYLINE_7_">
	<polyline class="st0" points="40.0391045,351.8505859 51.3779068,351.8505859 51.3779068,363.1885071 28.7007065,363.1885071 
		28.7007065,317.8349915 6.0234065,317.8349915 6.0234065,329.1727905 17.3618069,329.1727905 	"/>
</g>
<g id="LWPOLYLINE_8_">
	<polyline class="st0" points="17.3618069,295.157196 17.3618069,306.4960938 6.0234065,306.4960938 6.0234065,283.8183899 
		51.3779068,283.8183899 51.3779068,261.1416016 40.0391045,261.1416016 40.0391045,272.4804993 	"/>
</g>
<g id="LWPOLYLINE_9_">
	<polyline class="st0" points="40.0391045,295.157196 51.3779068,295.157196 51.3779068,306.4960938 28.7007065,306.4960938 
		28.7007065,261.1416016 6.0234065,261.1416016 6.0234065,272.4804993 17.3618069,272.4804993 	"/>
</g>
<g id="LWPOLYLINE_10_">
	<polyline class="st0" points="17.3618069,238.4642944 17.3618069,249.8027039 6.0234065,249.8027039 6.0234065,227.1260071 
		51.3779068,227.1260071 51.3779068,204.4487 40.0391045,204.4487 40.0391045,215.7870941 	"/>
</g>
<g id="LWPOLYLINE_11_">
	<polyline class="st0" points="40.0391045,238.4642944 51.3779068,238.4642944 51.3779068,249.8027039 28.7007065,249.8027039 
		28.7007065,204.4487 6.0234065,204.4487 6.0234065,215.7870941 17.3618069,215.7870941 	"/>
</g>
<g id="LWPOLYLINE_12_">
	<polyline class="st0" points="17.3618069,181.7714996 17.3618069,193.1098938 6.0234065,193.1098938 6.0234065,170.4331055 
		51.3779068,170.4331055 51.3779068,147.7559052 40.0391045,147.7559052 40.0391045,159.0941925 	"/>
</g>
<g id="LWPOLYLINE_13_">
	<polyline class="st0" points="40.0391045,181.7714996 51.3779068,181.7714996 51.3779068,193.1098938 28.7007065,193.1098938 
		28.7007065,147.7559052 6.0234065,147.7559052 6.0234065,159.0941925 17.3618069,159.0941925 	"/>
</g>
<g id="LWPOLYLINE_14_">
	<polyline class="st0" points="17.3618069,125.078598 17.3618069,136.4170074 6.0234065,136.4170074 6.0234065,113.7401962 
		51.3779068,113.7401962 51.3779068,91.0630035 40.0391045,91.0630035 40.0391045,102.4013977 	"/>
</g>
<g id="LWPOLYLINE_15_">
	<polyline class="st0" points="40.0391045,125.078598 51.3779068,125.078598 51.3779068,136.4170074 28.7007065,136.4170074 
		28.7007065,91.0630035 6.0234065,91.0630035 6.0234065,102.4013977 17.3618069,102.4013977 	"/>
</g>
<g id="LWPOLYLINE_16_">
	<polyline class="st0" points="17.3618069,68.3856964 17.3618069,79.7240982 6.0234065,79.7240982 6.0234065,57.0469017 
		51.3779068,57.0469017 51.3779068,34.3700981 40.0391045,34.3700981 40.0391045,45.7084999 	"/>
</g>
<g id="LWPOLYLINE_17_">
	<polyline class="st0" points="40.0391045,68.3856964 51.3779068,68.3856964 51.3779068,79.7240982 28.7007065,79.7240982 
		28.7007065,34.3700981 6.0234065,34.3700981 6.0234065,45.7084999 17.3618069,45.7084999 	"/>
</g>
<g id="LWPOLYLINE_18_">
	<polyline class="st0" points="17.3618069,11.6928997 17.3618069,23.0312004 6.0234065,23.0312004 6.0234065,0.354 
		51.3779068,0.354 	"/>
</g>
<g id="LWPOLYLINE_19_">
	<polyline class="st0" points="40.0391045,11.6928997 51.3779068,11.6928997 51.3779068,23.0312004 28.7007065,23.0312004 
		28.7007065,0.354 	"/>
</g>
<g id="LWPOLYLINE_20_">
	<polyline class="st0" points="74.0552063,521.9287109 74.0552063,533.2675781 62.7163048,533.2675781 62.7163048,510.5907898 
		108.0708008,510.5907898 108.0708008,487.9130859 96.7319031,487.9130859 96.7319031,499.2518921 	"/>
</g>
<g id="LWPOLYLINE_21_">
	<polyline class="st0" points="96.7319031,521.9287109 108.0708008,521.9287109 108.0708008,533.2675781 85.3935089,533.2675781 
		85.3935089,487.9130859 62.7163048,487.9130859 62.7163048,499.2518921 74.0552063,499.2518921 	"/>
</g>
<g id="LWPOLYLINE_22_">
	<polyline class="st0" points="74.0552063,465.2362976 74.0552063,476.5741882 62.7163048,476.5741882 62.7163048,453.8974915 
		108.0708008,453.8974915 108.0708008,431.2207031 96.7319031,431.2207031 96.7319031,442.5585938 	"/>
</g>
<g id="LWPOLYLINE_23_">
	<polyline class="st0" points="96.7319031,465.2362976 108.0708008,465.2362976 108.0708008,476.5741882 85.3935089,476.5741882 
		85.3935089,431.2207031 62.7163048,431.2207031 62.7163048,442.5585938 74.0552063,442.5585938 	"/>
</g>
<g id="LWPOLYLINE_24_">
	<polyline class="st0" points="74.0552063,408.5429993 74.0552063,419.8818054 62.7163048,419.8818054 62.7163048,397.2041016 
		108.0708008,397.2041016 108.0708008,374.5273132 96.7319031,374.5273132 96.7319031,385.8662109 	"/>
</g>
<g id="LWPOLYLINE_25_">
	<polyline class="st0" points="96.7319031,408.5429993 108.0708008,408.5429993 108.0708008,419.8818054 85.3935089,419.8818054 
		85.3935089,374.5273132 62.7163048,374.5273132 62.7163048,385.8662109 74.0552063,385.8662109 	"/>
</g>
<g id="LWPOLYLINE_26_">
	<polyline class="st0" points="74.0552063,351.8505859 74.0552063,363.1885071 62.7163048,363.1885071 62.7163048,340.5116882 
		108.0708008,340.5116882 108.0708008,317.8349915 96.7319031,317.8349915 96.7319031,329.1727905 	"/>
</g>
<g id="LWPOLYLINE_27_">
	<polyline class="st0" points="96.7319031,351.8505859 108.0708008,351.8505859 108.0708008,363.1885071 85.3935089,363.1885071 
		85.3935089,317.8349915 62.7163048,317.8349915 62.7163048,329.1727905 74.0552063,329.1727905 	"/>
</g>
<g id="LWPOLYLINE_28_">
	<polyline class="st0" points="74.0552063,295.157196 74.0552063,306.4960938 62.7163048,306.4960938 62.7163048,283.8183899 
		108.0708008,283.8183899 108.0708008,261.1416016 96.7319031,261.1416016 96.7319031,272.4804993 	"/>
</g>
<g id="LWPOLYLINE_29_">
	<polyline class="st0" points="96.7319031,295.157196 108.0708008,295.157196 108.0708008,306.4960938 85.3935089,306.4960938 
		85.3935089,261.1416016 62.7163048,261.1416016 62.7163048,272.4804993 74.0552063,272.4804993 	"/>
</g>
<g id="LWPOLYLINE_30_">
	<polyline class="st0" points="74.0552063,238.4642944 74.0552063,249.8027039 62.7163048,249.8027039 62.7163048,227.1260071 
		108.0708008,227.1260071 108.0708008,204.4487 96.7319031,204.4487 96.7319031,215.7870941 	"/>
</g>
<g id="LWPOLYLINE_31_">
	<polyline class="st0" points="96.7319031,238.4642944 108.0708008,238.4642944 108.0708008,249.8027039 85.3935089,249.8027039 
		85.3935089,204.4487 62.7163048,204.4487 62.7163048,215.7870941 74.0552063,215.7870941 	"/>
</g>
<g id="LWPOLYLINE_32_">
	<polyline class="st0" points="74.0552063,181.7714996 74.0552063,193.1098938 62.7163048,193.1098938 62.7163048,170.4331055 
		108.0708008,170.4331055 108.0708008,147.7559052 96.7319031,147.7559052 96.7319031,159.0941925 	"/>
</g>
<g id="LWPOLYLINE_33_">
	<polyline class="st0" points="96.7319031,181.7714996 108.0708008,181.7714996 108.0708008,193.1098938 85.3935089,193.1098938 
		85.3935089,147.7559052 62.7163048,147.7559052 62.7163048,159.0941925 74.0552063,159.0941925 	"/>
</g>
<g id="LWPOLYLINE_34_">
	<polyline class="st0" points="74.0552063,125.078598 74.0552063,136.4170074 62.7163048,136.4170074 62.7163048,113.7401962 
		108.0708008,113.7401962 108.0708008,91.0630035 96.7319031,91.0630035 96.7319031,102.4013977 	"/>
</g>
<g id="LWPOLYLINE_35_">
	<polyline class="st0" points="96.7319031,125.078598 108.0708008,125.078598 108.0708008,136.4170074 85.3935089,136.4170074 
		85.3935089,91.0630035 62.7163048,91.0630035 62.7163048,102.4013977 74.0552063,102.4013977 	"/>
</g>
<g id="LWPOLYLINE_36_">
	<polyline class="st0" points="74.0552063,68.3856964 74.0552063,79.7240982 62.7163048,79.7240982 62.7163048,57.0469017 
		108.0708008,57.0469017 108.0708008,34.3700981 96.7319031,34.3700981 96.7319031,45.7084999 	"/>
</g>
<g id="LWPOLYLINE_37_">
	<polyline class="st0" points="96.7319031,68.3856964 108.0708008,68.3856964 108.0708008,79.7240982 85.3935089,79.7240982 
		85.3935089,34.3700981 62.7163048,34.3700981 62.7163048,45.7084999 74.0552063,45.7084999 	"/>
</g>
<g id="LWPOLYLINE_38_">
	<polyline class="st0" points="74.0552063,11.6928997 74.0552063,23.0312004 62.7163048,23.0312004 62.7163048,0.354 
		108.0708008,0.354 	"/>
</g>
<g id="LWPOLYLINE_39_">
	<polyline class="st0" points="96.7319031,11.6928997 108.0708008,11.6928997 108.0708008,23.0312004 85.3935089,23.0312004 
		85.3935089,0.354 	"/>
</g>
<g id="LWPOLYLINE_40_">
	<polyline class="st0" points="130.7480011,521.9287109 130.7480011,533.2675781 119.4092026,533.2675781 119.4092026,510.5907898 
		164.7637024,510.5907898 164.7637024,487.9130859 153.4248047,487.9130859 153.4248047,499.2518921 	"/>
</g>
<g id="LWPOLYLINE_41_">
	<polyline class="st0" points="153.4248047,521.9287109 164.7637024,521.9287109 164.7637024,533.2675781 142.0864105,533.2675781 
		142.0864105,487.9130859 119.4092026,487.9130859 119.4092026,499.2518921 130.7480011,499.2518921 	"/>
</g>
<g id="LWPOLYLINE_42_">
	<polyline class="st0" points="130.7480011,465.2362976 130.7480011,476.5741882 119.4092026,476.5741882 119.4092026,453.8974915 
		164.7637024,453.8974915 164.7637024,431.2207031 153.4248047,431.2207031 153.4248047,442.5585938 	"/>
</g>
<g id="LWPOLYLINE_43_">
	<polyline class="st0" points="153.4248047,465.2362976 164.7637024,465.2362976 164.7637024,476.5741882 142.0864105,476.5741882 
		142.0864105,431.2207031 119.4092026,431.2207031 119.4092026,442.5585938 130.7480011,442.5585938 	"/>
</g>
<g id="LWPOLYLINE_44_">
	<polyline class="st0" points="130.7480011,408.5429993 130.7480011,419.8818054 119.4092026,419.8818054 119.4092026,397.2041016 
		164.7637024,397.2041016 164.7637024,374.5273132 153.4248047,374.5273132 153.4248047,385.8662109 	"/>
</g>
<g id="LWPOLYLINE_45_">
	<polyline class="st0" points="153.4248047,408.5429993 164.7637024,408.5429993 164.7637024,419.8818054 142.0864105,419.8818054 
		142.0864105,374.5273132 119.4092026,374.5273132 119.4092026,385.8662109 130.7480011,385.8662109 	"/>
</g>
<g id="LWPOLYLINE_46_">
	<polyline class="st0" points="130.7480011,351.8505859 130.7480011,363.1885071 119.4092026,363.1885071 119.4092026,340.5116882 
		164.7637024,340.5116882 164.7637024,317.8349915 153.4248047,317.8349915 153.4248047,329.1727905 	"/>
</g>
<g id="LWPOLYLINE_47_">
	<polyline class="st0" points="153.4248047,351.8505859 164.7637024,351.8505859 164.7637024,363.1885071 142.0864105,363.1885071 
		142.0864105,317.8349915 119.4092026,317.8349915 119.4092026,329.1727905 130.7480011,329.1727905 	"/>
</g>
<g id="LWPOLYLINE_48_">
	<polyline class="st0" points="130.7480011,295.157196 130.7480011,306.4960938 119.4092026,306.4960938 119.4092026,283.8183899 
		164.7637024,283.8183899 164.7637024,261.1416016 153.4248047,261.1416016 153.4248047,272.4804993 	"/>
</g>
<g id="LWPOLYLINE_49_">
	<polyline class="st0" points="153.4248047,295.157196 164.7637024,295.157196 164.7637024,306.4960938 142.0864105,306.4960938 
		142.0864105,261.1416016 119.4092026,261.1416016 119.4092026,272.4804993 130.7480011,272.4804993 	"/>
</g>
<g id="LWPOLYLINE_50_">
	<polyline class="st0" points="130.7480011,238.4642944 130.7480011,249.8027039 119.4092026,249.8027039 119.4092026,227.1260071 
		164.7637024,227.1260071 164.7637024,204.4487 153.4248047,204.4487 153.4248047,215.7870941 	"/>
</g>
<g id="LWPOLYLINE_51_">
	<polyline class="st0" points="153.4248047,238.4642944 164.7637024,238.4642944 164.7637024,249.8027039 142.0864105,249.8027039 
		142.0864105,204.4487 119.4092026,204.4487 119.4092026,215.7870941 130.7480011,215.7870941 	"/>
</g>
<g id="LWPOLYLINE_52_">
	<polyline class="st0" points="130.7480011,181.7714996 130.7480011,193.1098938 119.4092026,193.1098938 119.4092026,170.4331055 
		164.7637024,170.4331055 164.7637024,147.7559052 153.4248047,147.7559052 153.4248047,159.0941925 	"/>
</g>
<g id="LWPOLYLINE_53_">
	<polyline class="st0" points="153.4248047,181.7714996 164.7637024,181.7714996 164.7637024,193.1098938 142.0864105,193.1098938 
		142.0864105,147.7559052 119.4092026,147.7559052 119.4092026,159.0941925 130.7480011,159.0941925 	"/>
</g>
<g id="LWPOLYLINE_54_">
	<polyline class="st0" points="130.7480011,125.078598 130.7480011,136.4170074 119.4092026,136.4170074 119.4092026,113.7401962 
		164.7637024,113.7401962 164.7637024,91.0630035 153.4248047,91.0630035 153.4248047,102.4013977 	"/>
</g>
<g id="LWPOLYLINE_55_">
	<polyline class="st0" points="153.4248047,125.078598 164.7637024,125.078598 164.7637024,136.4170074 142.0864105,136.4170074 
		142.0864105,91.0630035 119.4092026,91.0630035 119.4092026,102.4013977 130.7480011,102.4013977 	"/>
</g>
<g id="LWPOLYLINE_56_">
	<polyline class="st0" points="130.7480011,68.3856964 130.7480011,79.7240982 119.4092026,79.7240982 119.4092026,57.0469017 
		164.7637024,57.0469017 164.7637024,34.3700981 153.4248047,34.3700981 153.4248047,45.7084999 	"/>
</g>
<g id="LWPOLYLINE_57_">
	<polyline class="st0" points="153.4248047,68.3856964 164.7637024,68.3856964 164.7637024,79.7240982 142.0864105,79.7240982 
		142.0864105,34.3700981 119.4092026,34.3700981 119.4092026,45.7084999 130.7480011,45.7084999 	"/>
</g>
<g id="LWPOLYLINE_58_">
	<polyline class="st0" points="130.7480011,11.6928997 130.7480011,23.0312004 119.4092026,23.0312004 119.4092026,0.354 
		164.7637024,0.354 	"/>
</g>
<g id="LWPOLYLINE_59_">
	<polyline class="st0" points="153.4248047,11.6928997 164.7637024,11.6928997 164.7637024,23.0312004 142.0864105,23.0312004 
		142.0864105,0.354 	"/>
</g>
<g id="LWPOLYLINE_60_">
	<polyline class="st0" points="187.4409027,521.9287109 187.4409027,533.2675781 176.102005,533.2675781 176.102005,510.5907898 
		221.4565125,510.5907898 221.4565125,487.9130859 210.1181946,487.9130859 210.1181946,499.2518921 	"/>
</g>
<g id="LWPOLYLINE_61_">
	<polyline class="st0" points="210.1181946,521.9287109 221.4565125,521.9287109 221.4565125,533.2675781 198.7792969,533.2675781 
		198.7792969,487.9130859 176.102005,487.9130859 176.102005,499.2518921 187.4409027,499.2518921 	"/>
</g>
<g id="LWPOLYLINE_62_">
	<polyline class="st0" points="187.4409027,465.2362976 187.4409027,476.5741882 176.102005,476.5741882 176.102005,453.8974915 
		221.4565125,453.8974915 221.4565125,431.2207031 210.1181946,431.2207031 210.1181946,442.5585938 	"/>
</g>
<g id="LWPOLYLINE_63_">
	<polyline class="st0" points="210.1181946,465.2362976 221.4565125,465.2362976 221.4565125,476.5741882 198.7792969,476.5741882 
		198.7792969,431.2207031 176.102005,431.2207031 176.102005,442.5585938 187.4409027,442.5585938 	"/>
</g>
<g id="LWPOLYLINE_64_">
	<polyline class="st0" points="187.4409027,408.5429993 187.4409027,419.8818054 176.102005,419.8818054 176.102005,397.2041016 
		221.4565125,397.2041016 221.4565125,374.5273132 210.1181946,374.5273132 210.1181946,385.8662109 	"/>
</g>
<g id="LWPOLYLINE_65_">
	<polyline class="st0" points="210.1181946,408.5429993 221.4565125,408.5429993 221.4565125,419.8818054 198.7792969,419.8818054 
		198.7792969,374.5273132 176.102005,374.5273132 176.102005,385.8662109 187.4409027,385.8662109 	"/>
</g>
<g id="LWPOLYLINE_66_">
	<polyline class="st0" points="187.4409027,351.8505859 187.4409027,363.1885071 176.102005,363.1885071 176.102005,340.5116882 
		221.4565125,340.5116882 221.4565125,317.8349915 210.1181946,317.8349915 210.1181946,329.1727905 	"/>
</g>
<g id="LWPOLYLINE_67_">
	<polyline class="st0" points="210.1181946,351.8505859 221.4565125,351.8505859 221.4565125,363.1885071 198.7792969,363.1885071 
		198.7792969,317.8349915 176.102005,317.8349915 176.102005,329.1727905 187.4409027,329.1727905 	"/>
</g>
<g id="LWPOLYLINE_68_">
	<polyline class="st0" points="187.4409027,295.157196 187.4409027,306.4960938 176.102005,306.4960938 176.102005,283.8183899 
		221.4565125,283.8183899 221.4565125,261.1416016 210.1181946,261.1416016 210.1181946,272.4804993 	"/>
</g>
<g id="LWPOLYLINE_69_">
	<polyline class="st0" points="210.1181946,295.157196 221.4565125,295.157196 221.4565125,306.4960938 198.7792969,306.4960938 
		198.7792969,261.1416016 176.102005,261.1416016 176.102005,272.4804993 187.4409027,272.4804993 	"/>
</g>
<g id="LWPOLYLINE_70_">
	<polyline class="st0" points="187.4409027,238.4642944 187.4409027,249.8027039 176.102005,249.8027039 176.102005,227.1260071 
		221.4565125,227.1260071 221.4565125,204.4487 210.1181946,204.4487 210.1181946,215.7870941 	"/>
</g>
<g id="LWPOLYLINE_71_">
	<polyline class="st0" points="210.1181946,238.4642944 221.4565125,238.4642944 221.4565125,249.8027039 198.7792969,249.8027039 
		198.7792969,204.4487 176.102005,204.4487 176.102005,215.7870941 187.4409027,215.7870941 	"/>
</g>
<g id="LWPOLYLINE_72_">
	<polyline class="st0" points="187.4409027,181.7714996 187.4409027,193.1098938 176.102005,193.1098938 176.102005,170.4331055 
		221.4565125,170.4331055 221.4565125,147.7559052 210.1181946,147.7559052 210.1181946,159.0941925 	"/>
</g>
<g id="LWPOLYLINE_73_">
	<polyline class="st0" points="210.1181946,181.7714996 221.4565125,181.7714996 221.4565125,193.1098938 198.7792969,193.1098938 
		198.7792969,147.7559052 176.102005,147.7559052 176.102005,159.0941925 187.4409027,159.0941925 	"/>
</g>
<g id="LWPOLYLINE_74_">
	<polyline class="st0" points="187.4409027,125.078598 187.4409027,136.4170074 176.102005,136.4170074 176.102005,113.7401962 
		221.4565125,113.7401962 221.4565125,91.0630035 210.1181946,91.0630035 210.1181946,102.4013977 	"/>
</g>
<g id="LWPOLYLINE_75_">
	<polyline class="st0" points="210.1181946,125.078598 221.4565125,125.078598 221.4565125,136.4170074 198.7792969,136.4170074 
		198.7792969,91.0630035 176.102005,91.0630035 176.102005,102.4013977 187.4409027,102.4013977 	"/>
</g>
<g id="LWPOLYLINE_76_">
	<polyline class="st0" points="187.4409027,68.3856964 187.4409027,79.7240982 176.102005,79.7240982 176.102005,57.0469017 
		221.4565125,57.0469017 221.4565125,34.3700981 210.1181946,34.3700981 210.1181946,45.7084999 	"/>
</g>
<g id="LWPOLYLINE_77_">
	<polyline class="st0" points="210.1181946,68.3856964 221.4565125,68.3856964 221.4565125,79.7240982 198.7792969,79.7240982 
		198.7792969,34.3700981 176.102005,34.3700981 176.102005,45.7084999 187.4409027,45.7084999 	"/>
</g>
<g id="LWPOLYLINE_78_">
	<polyline class="st0" points="187.4409027,11.6928997 187.4409027,23.0312004 176.102005,23.0312004 176.102005,0.354 
		221.4565125,0.354 	"/>
</g>
<g id="LWPOLYLINE_79_">
	<polyline class="st0" points="210.1181946,11.6928997 221.4565125,11.6928997 221.4565125,23.0312004 198.7792969,23.0312004 
		198.7792969,0.354 	"/>
</g>
<g id="LWPOLYLINE_80_">
	<polyline class="st0" points="244.1338043,521.9287109 244.1338043,533.2675781 232.7949066,533.2675781 232.7949066,510.5907898 
		278.1494141,510.5907898 278.1494141,487.9130859 266.8110046,487.9130859 266.8110046,499.2518921 	"/>
</g>
<g id="LWPOLYLINE_81_">
	<polyline class="st0" points="266.8110046,521.9287109 278.1494141,521.9287109 278.1494141,533.2675781 255.4721985,533.2675781 
		255.4721985,487.9130859 232.7949066,487.9130859 232.7949066,499.2518921 244.1338043,499.2518921 	"/>
</g>
<g id="LWPOLYLINE_82_">
	<polyline class="st0" points="244.1338043,465.2362976 244.1338043,476.5741882 232.7949066,476.5741882 232.7949066,453.8974915 
		278.1494141,453.8974915 278.1494141,431.2207031 266.8110046,431.2207031 266.8110046,442.5585938 	"/>
</g>
<g id="LWPOLYLINE_83_">
	<polyline class="st0" points="266.8110046,465.2362976 278.1494141,465.2362976 278.1494141,476.5741882 255.4721985,476.5741882 
		255.4721985,431.2207031 232.7949066,431.2207031 232.7949066,442.5585938 244.1338043,442.5585938 	"/>
</g>
<g id="LWPOLYLINE_84_">
	<polyline class="st0" points="244.1338043,408.5429993 244.1338043,419.8818054 232.7949066,419.8818054 232.7949066,397.2041016 
		278.1494141,397.2041016 278.1494141,374.5273132 266.8110046,374.5273132 266.8110046,385.8662109 	"/>
</g>
<g id="LWPOLYLINE_85_">
	<polyline class="st0" points="266.8110046,408.5429993 278.1494141,408.5429993 278.1494141,419.8818054 255.4721985,419.8818054 
		255.4721985,374.5273132 232.7949066,374.5273132 232.7949066,385.8662109 244.1338043,385.8662109 	"/>
</g>
<g id="LWPOLYLINE_86_">
	<polyline class="st0" points="244.1338043,351.8505859 244.1338043,363.1885071 232.7949066,363.1885071 232.7949066,340.5116882 
		278.1494141,340.5116882 278.1494141,317.8349915 266.8110046,317.8349915 266.8110046,329.1727905 	"/>
</g>
<g id="LWPOLYLINE_87_">
	<polyline class="st0" points="266.8110046,351.8505859 278.1494141,351.8505859 278.1494141,363.1885071 255.4721985,363.1885071 
		255.4721985,317.8349915 232.7949066,317.8349915 232.7949066,329.1727905 244.1338043,329.1727905 	"/>
</g>
<g id="LWPOLYLINE_88_">
	<polyline class="st0" points="244.1338043,295.157196 244.1338043,306.4960938 232.7949066,306.4960938 232.7949066,283.8183899 
		278.1494141,283.8183899 278.1494141,261.1416016 266.8110046,261.1416016 266.8110046,272.4804993 	"/>
</g>
<g id="LWPOLYLINE_89_">
	<polyline class="st0" points="266.8110046,295.157196 278.1494141,295.157196 278.1494141,306.4960938 255.4721985,306.4960938 
		255.4721985,261.1416016 232.7949066,261.1416016 232.7949066,272.4804993 244.1338043,272.4804993 	"/>
</g>
<g id="LWPOLYLINE_90_">
	<polyline class="st0" points="244.1338043,238.4642944 244.1338043,249.8027039 232.7949066,249.8027039 232.7949066,227.1260071 
		278.1494141,227.1260071 278.1494141,204.4487 266.8110046,204.4487 266.8110046,215.7870941 	"/>
</g>
<g id="LWPOLYLINE_91_">
	<polyline class="st0" points="266.8110046,238.4642944 278.1494141,238.4642944 278.1494141,249.8027039 255.4721985,249.8027039 
		255.4721985,204.4487 232.7949066,204.4487 232.7949066,215.7870941 244.1338043,215.7870941 	"/>
</g>
<g id="LWPOLYLINE_92_">
	<polyline class="st0" points="244.1338043,181.7714996 244.1338043,193.1098938 232.7949066,193.1098938 232.7949066,170.4331055 
		278.1494141,170.4331055 278.1494141,147.7559052 266.8110046,147.7559052 266.8110046,159.0941925 	"/>
</g>
<g id="LWPOLYLINE_93_">
	<polyline class="st0" points="266.8110046,181.7714996 278.1494141,181.7714996 278.1494141,193.1098938 255.4721985,193.1098938 
		255.4721985,147.7559052 232.7949066,147.7559052 232.7949066,159.0941925 244.1338043,159.0941925 	"/>
</g>
<g id="LWPOLYLINE_94_">
	<polyline class="st0" points="244.1338043,125.078598 244.1338043,136.4170074 232.7949066,136.4170074 232.7949066,113.7401962 
		278.1494141,113.7401962 278.1494141,91.0630035 266.8110046,91.0630035 266.8110046,102.4013977 	"/>
</g>
<g id="LWPOLYLINE_95_">
	<polyline class="st0" points="266.8110046,125.078598 278.1494141,125.078598 278.1494141,136.4170074 255.4721985,136.4170074 
		255.4721985,91.0630035 232.7949066,91.0630035 232.7949066,102.4013977 244.1338043,102.4013977 	"/>
</g>
<g id="LWPOLYLINE_96_">
	<polyline class="st0" points="244.1338043,68.3856964 244.1338043,79.7240982 232.7949066,79.7240982 232.7949066,57.0469017 
		278.1494141,57.0469017 278.1494141,34.3700981 266.8110046,34.3700981 266.8110046,45.7084999 	"/>
</g>
<g id="LWPOLYLINE_97_">
	<polyline class="st0" points="266.8110046,68.3856964 278.1494141,68.3856964 278.1494141,79.7240982 255.4721985,79.7240982 
		255.4721985,34.3700981 232.7949066,34.3700981 232.7949066,45.7084999 244.1338043,45.7084999 	"/>
</g>
<g id="LWPOLYLINE_98_">
	<polyline class="st0" points="244.1338043,11.6928997 244.1338043,23.0312004 232.7949066,23.0312004 232.7949066,0.354 
		278.1494141,0.354 	"/>
</g>
<g id="LWPOLYLINE_99_">
	<polyline class="st0" points="266.8110046,11.6928997 278.1494141,11.6928997 278.1494141,23.0312004 255.4721985,23.0312004 
		255.4721985,0.354 	"/>
</g>
<g id="LWPOLYLINE_100_">
	<polyline class="st0" points="300.8262024,521.9287109 300.8262024,533.2675781 289.4883118,533.2675781 289.4883118,510.5907898 
		334.842804,510.5907898 334.842804,487.9130859 323.5039062,487.9130859 323.5039062,499.2518921 	"/>
</g>
<g id="LWPOLYLINE_101_">
	<polyline class="st0" points="323.5039062,521.9287109 334.842804,521.9287109 334.842804,533.2675781 312.1650085,533.2675781 
		312.1650085,487.9130859 289.4883118,487.9130859 289.4883118,499.2518921 300.8262024,499.2518921 	"/>
</g>
<g id="LWPOLYLINE_102_">
	<polyline class="st0" points="300.8262024,465.2362976 300.8262024,476.5741882 289.4883118,476.5741882 289.4883118,453.8974915 
		334.842804,453.8974915 334.842804,431.2207031 323.5039062,431.2207031 323.5039062,442.5585938 	"/>
</g>
<g id="LWPOLYLINE_103_">
	<polyline class="st0" points="323.5039062,465.2362976 334.842804,465.2362976 334.842804,476.5741882 312.1650085,476.5741882 
		312.1650085,431.2207031 289.4883118,431.2207031 289.4883118,442.5585938 300.8262024,442.5585938 	"/>
</g>
<g id="LWPOLYLINE_104_">
	<polyline class="st0" points="300.8262024,408.5429993 300.8262024,419.8818054 289.4883118,419.8818054 289.4883118,397.2041016 
		334.842804,397.2041016 334.842804,374.5273132 323.5039062,374.5273132 323.5039062,385.8662109 	"/>
</g>
<g id="LWPOLYLINE_105_">
	<polyline class="st0" points="323.5039062,408.5429993 334.842804,408.5429993 334.842804,419.8818054 312.1650085,419.8818054 
		312.1650085,374.5273132 289.4883118,374.5273132 289.4883118,385.8662109 300.8262024,385.8662109 	"/>
</g>
<g id="LWPOLYLINE_106_">
	<polyline class="st0" points="300.8262024,351.8505859 300.8262024,363.1885071 289.4883118,363.1885071 289.4883118,340.5116882 
		334.842804,340.5116882 334.842804,317.8349915 323.5039062,317.8349915 323.5039062,329.1727905 	"/>
</g>
<g id="LWPOLYLINE_107_">
	<polyline class="st0" points="323.5039062,351.8505859 334.842804,351.8505859 334.842804,363.1885071 312.1650085,363.1885071 
		312.1650085,317.8349915 289.4883118,317.8349915 289.4883118,329.1727905 300.8262024,329.1727905 	"/>
</g>
<g id="LWPOLYLINE_108_">
	<polyline class="st0" points="300.8262024,295.157196 300.8262024,306.4960938 289.4883118,306.4960938 289.4883118,283.8183899 
		334.842804,283.8183899 334.842804,261.1416016 323.5039062,261.1416016 323.5039062,272.4804993 	"/>
</g>
<g id="LWPOLYLINE_109_">
	<polyline class="st0" points="323.5039062,295.157196 334.842804,295.157196 334.842804,306.4960938 312.1650085,306.4960938 
		312.1650085,261.1416016 289.4883118,261.1416016 289.4883118,272.4804993 300.8262024,272.4804993 	"/>
</g>
<g id="LWPOLYLINE_110_">
	<polyline class="st0" points="300.8262024,238.4642944 300.8262024,249.8027039 289.4883118,249.8027039 289.4883118,227.1260071 
		334.842804,227.1260071 334.842804,204.4487 323.5039062,204.4487 323.5039062,215.7870941 	"/>
</g>
<g id="LWPOLYLINE_111_">
	<polyline class="st0" points="323.5039062,238.4642944 334.842804,238.4642944 334.842804,249.8027039 312.1650085,249.8027039 
		312.1650085,204.4487 289.4883118,204.4487 289.4883118,215.7870941 300.8262024,215.7870941 	"/>
</g>
<g id="LWPOLYLINE_112_">
	<polyline class="st0" points="300.8262024,181.7714996 300.8262024,193.1098938 289.4883118,193.1098938 289.4883118,170.4331055 
		334.842804,170.4331055 334.842804,147.7559052 323.5039062,147.7559052 323.5039062,159.0941925 	"/>
</g>
<g id="LWPOLYLINE_113_">
	<polyline class="st0" points="323.5039062,181.7714996 334.842804,181.7714996 334.842804,193.1098938 312.1650085,193.1098938 
		312.1650085,147.7559052 289.4883118,147.7559052 289.4883118,159.0941925 300.8262024,159.0941925 	"/>
</g>
<g id="LWPOLYLINE_114_">
	<polyline class="st0" points="300.8262024,125.078598 300.8262024,136.4170074 289.4883118,136.4170074 289.4883118,113.7401962 
		334.842804,113.7401962 334.842804,91.0630035 323.5039062,91.0630035 323.5039062,102.4013977 	"/>
</g>
<g id="LWPOLYLINE_115_">
	<polyline class="st0" points="323.5039062,125.078598 334.842804,125.078598 334.842804,136.4170074 312.1650085,136.4170074 
		312.1650085,91.0630035 289.4883118,91.0630035 289.4883118,102.4013977 300.8262024,102.4013977 	"/>
</g>
<g id="LWPOLYLINE_116_">
	<polyline class="st0" points="300.8262024,68.3856964 300.8262024,79.7240982 289.4883118,79.7240982 289.4883118,57.0469017 
		334.842804,57.0469017 334.842804,34.3700981 323.5039062,34.3700981 323.5039062,45.7084999 	"/>
</g>
<g id="LWPOLYLINE_117_">
	<polyline class="st0" points="323.5039062,68.3856964 334.842804,68.3856964 334.842804,79.7240982 312.1650085,79.7240982 
		312.1650085,34.3700981 289.4883118,34.3700981 289.4883118,45.7084999 300.8262024,45.7084999 	"/>
</g>
<g id="LWPOLYLINE_118_">
	<polyline class="st0" points="300.8262024,11.6928997 300.8262024,23.0312004 289.4883118,23.0312004 289.4883118,0.354 
		334.842804,0.354 	"/>
</g>
<g id="LWPOLYLINE_119_">
	<polyline class="st0" points="323.5039062,11.6928997 334.842804,11.6928997 334.842804,23.0312004 312.1650085,23.0312004 
		312.1650085,0.354 	"/>
</g>
<g id="LWPOLYLINE_120_">
	<polyline class="st0" points="357.5195007,521.9287109 357.5195007,533.2675781 346.1806946,533.2675781 346.1806946,510.5907898 
		391.5350952,510.5907898 391.5350952,487.9130859 380.1962891,487.9130859 380.1962891,499.2518921 	"/>
</g>
<g id="LWPOLYLINE_121_">
	<polyline class="st0" points="380.1962891,521.9287109 391.5350952,521.9287109 391.5350952,533.2675781 368.8583984,533.2675781 
		368.8583984,487.9130859 346.1806946,487.9130859 346.1806946,499.2518921 357.5195007,499.2518921 	"/>
</g>
<g id="LWPOLYLINE_122_">
	<polyline class="st0" points="357.5195007,465.2362976 357.5195007,476.5741882 346.1806946,476.5741882 346.1806946,453.8974915 
		391.5350952,453.8974915 391.5350952,431.2207031 380.1962891,431.2207031 380.1962891,442.5585938 	"/>
</g>
<g id="LWPOLYLINE_123_">
	<polyline class="st0" points="380.1962891,465.2362976 391.5350952,465.2362976 391.5350952,476.5741882 368.8583984,476.5741882 
		368.8583984,431.2207031 346.1806946,431.2207031 346.1806946,442.5585938 357.5195007,442.5585938 	"/>
</g>
<g id="LWPOLYLINE_124_">
	<polyline class="st0" points="357.5195007,408.5429993 357.5195007,419.8818054 346.1806946,419.8818054 346.1806946,397.2041016 
		391.5350952,397.2041016 391.5350952,374.5273132 380.1962891,374.5273132 380.1962891,385.8662109 	"/>
</g>
<g id="LWPOLYLINE_125_">
	<polyline class="st0" points="380.1962891,408.5429993 391.5350952,408.5429993 391.5350952,419.8818054 368.8583984,419.8818054 
		368.8583984,374.5273132 346.1806946,374.5273132 346.1806946,385.8662109 357.5195007,385.8662109 	"/>
</g>
<g id="LWPOLYLINE_126_">
	<polyline class="st0" points="357.5195007,351.8505859 357.5195007,363.1885071 346.1806946,363.1885071 346.1806946,340.5116882 
		391.5350952,340.5116882 391.5350952,317.8349915 380.1962891,317.8349915 380.1962891,329.1727905 	"/>
</g>
<g id="LWPOLYLINE_127_">
	<polyline class="st0" points="380.1962891,351.8505859 391.5350952,351.8505859 391.5350952,363.1885071 368.8583984,363.1885071 
		368.8583984,317.8349915 346.1806946,317.8349915 346.1806946,329.1727905 357.5195007,329.1727905 	"/>
</g>
<g id="LWPOLYLINE_128_">
	<polyline class="st0" points="357.5195007,295.157196 357.5195007,306.4960938 346.1806946,306.4960938 346.1806946,283.8183899 
		391.5350952,283.8183899 391.5350952,261.1416016 380.1962891,261.1416016 380.1962891,272.4804993 	"/>
</g>
<g id="LWPOLYLINE_129_">
	<polyline class="st0" points="380.1962891,295.157196 391.5350952,295.157196 391.5350952,306.4960938 368.8583984,306.4960938 
		368.8583984,261.1416016 346.1806946,261.1416016 346.1806946,272.4804993 357.5195007,272.4804993 	"/>
</g>
<g id="LWPOLYLINE_130_">
	<polyline class="st0" points="357.5195007,238.4642944 357.5195007,249.8027039 346.1806946,249.8027039 346.1806946,227.1260071 
		391.5350952,227.1260071 391.5350952,204.4487 380.1962891,204.4487 380.1962891,215.7870941 	"/>
</g>
<g id="LWPOLYLINE_131_">
	<polyline class="st0" points="380.1962891,238.4642944 391.5350952,238.4642944 391.5350952,249.8027039 368.8583984,249.8027039 
		368.8583984,204.4487 346.1806946,204.4487 346.1806946,215.7870941 357.5195007,215.7870941 	"/>
</g>
<g id="LWPOLYLINE_132_">
	<polyline class="st0" points="357.5195007,181.7714996 357.5195007,193.1098938 346.1806946,193.1098938 346.1806946,170.4331055 
		391.5350952,170.4331055 391.5350952,147.7559052 380.1962891,147.7559052 380.1962891,159.0941925 	"/>
</g>
<g id="LWPOLYLINE_133_">
	<polyline class="st0" points="380.1962891,181.7714996 391.5350952,181.7714996 391.5350952,193.1098938 368.8583984,193.1098938 
		368.8583984,147.7559052 346.1806946,147.7559052 346.1806946,159.0941925 357.5195007,159.0941925 	"/>
</g>
<g id="LWPOLYLINE_134_">
	<polyline class="st0" points="357.5195007,125.078598 357.5195007,136.4170074 346.1806946,136.4170074 346.1806946,113.7401962 
		391.5350952,113.7401962 391.5350952,91.0630035 380.1962891,91.0630035 380.1962891,102.4013977 	"/>
</g>
<g id="LWPOLYLINE_135_">
	<polyline class="st0" points="380.1962891,125.078598 391.5350952,125.078598 391.5350952,136.4170074 368.8583984,136.4170074 
		368.8583984,91.0630035 346.1806946,91.0630035 346.1806946,102.4013977 357.5195007,102.4013977 	"/>
</g>
<g id="LWPOLYLINE_136_">
	<polyline class="st0" points="357.5195007,68.3856964 357.5195007,79.7240982 346.1806946,79.7240982 346.1806946,57.0469017 
		391.5350952,57.0469017 391.5350952,34.3700981 380.1962891,34.3700981 380.1962891,45.7084999 	"/>
</g>
<g id="LWPOLYLINE_137_">
	<polyline class="st0" points="380.1962891,68.3856964 391.5350952,68.3856964 391.5350952,79.7240982 368.8583984,79.7240982 
		368.8583984,34.3700981 346.1806946,34.3700981 346.1806946,45.7084999 357.5195007,45.7084999 	"/>
</g>
<g id="LWPOLYLINE_138_">
	<polyline class="st0" points="357.5195007,11.6928997 357.5195007,23.0312004 346.1806946,23.0312004 346.1806946,0.354 
		391.5350952,0.354 	"/>
</g>
<g id="LWPOLYLINE_139_">
	<polyline class="st0" points="380.1962891,11.6928997 391.5350952,11.6928997 391.5350952,23.0312004 368.8583984,23.0312004 
		368.8583984,0.354 	"/>
</g>
<g id="LWPOLYLINE_140_">
	<polyline class="st0" points="414.2128906,521.9287109 414.2128906,533.2675781 402.8739929,533.2675781 402.8739929,510.5907898 
		448.2285156,510.5907898 448.2285156,487.9130859 436.8895874,487.9130859 436.8895874,499.2518921 	"/>
</g>
<g id="LWPOLYLINE_141_">
	<polyline class="st0" points="436.8895874,521.9287109 448.2285156,521.9287109 448.2285156,533.2675781 425.5507812,533.2675781 
		425.5507812,487.9130859 402.8739929,487.9130859 402.8739929,499.2518921 414.2128906,499.2518921 	"/>
</g>
<g id="LWPOLYLINE_142_">
	<polyline class="st0" points="414.2128906,465.2362976 414.2128906,476.5741882 402.8739929,476.5741882 402.8739929,453.8974915 
		448.2285156,453.8974915 448.2285156,431.2207031 436.8895874,431.2207031 436.8895874,442.5585938 	"/>
</g>
<g id="LWPOLYLINE_143_">
	<polyline class="st0" points="436.8895874,465.2362976 448.2285156,465.2362976 448.2285156,476.5741882 425.5507812,476.5741882 
		425.5507812,431.2207031 402.8739929,431.2207031 402.8739929,442.5585938 414.2128906,442.5585938 	"/>
</g>
<g id="LWPOLYLINE_144_">
	<polyline class="st0" points="414.2128906,408.5429993 414.2128906,419.8818054 402.8739929,419.8818054 402.8739929,397.2041016 
		448.2285156,397.2041016 448.2285156,374.5273132 436.8895874,374.5273132 436.8895874,385.8662109 	"/>
</g>
<g id="LWPOLYLINE_145_">
	<polyline class="st0" points="436.8895874,408.5429993 448.2285156,408.5429993 448.2285156,419.8818054 425.5507812,419.8818054 
		425.5507812,374.5273132 402.8739929,374.5273132 402.8739929,385.8662109 414.2128906,385.8662109 	"/>
</g>
<g id="LWPOLYLINE_146_">
	<polyline class="st0" points="414.2128906,351.8505859 414.2128906,363.1885071 402.8739929,363.1885071 402.8739929,340.5116882 
		448.2285156,340.5116882 448.2285156,317.8349915 436.8895874,317.8349915 436.8895874,329.1727905 	"/>
</g>
<g id="LWPOLYLINE_147_">
	<polyline class="st0" points="436.8895874,351.8505859 448.2285156,351.8505859 448.2285156,363.1885071 425.5507812,363.1885071 
		425.5507812,317.8349915 402.8739929,317.8349915 402.8739929,329.1727905 414.2128906,329.1727905 	"/>
</g>
<g id="LWPOLYLINE_148_">
	<polyline class="st0" points="414.2128906,295.157196 414.2128906,306.4960938 402.8739929,306.4960938 402.8739929,283.8183899 
		448.2285156,283.8183899 448.2285156,261.1416016 436.8895874,261.1416016 436.8895874,272.4804993 	"/>
</g>
<g id="LWPOLYLINE_149_">
	<polyline class="st0" points="436.8895874,295.157196 448.2285156,295.157196 448.2285156,306.4960938 425.5507812,306.4960938 
		425.5507812,261.1416016 402.8739929,261.1416016 402.8739929,272.4804993 414.2128906,272.4804993 	"/>
</g>
<g id="LWPOLYLINE_150_">
	<polyline class="st0" points="414.2128906,238.4642944 414.2128906,249.8027039 402.8739929,249.8027039 402.8739929,227.1260071 
		448.2285156,227.1260071 448.2285156,204.4487 436.8895874,204.4487 436.8895874,215.7870941 	"/>
</g>
<g id="LWPOLYLINE_151_">
	<polyline class="st0" points="436.8895874,238.4642944 448.2285156,238.4642944 448.2285156,249.8027039 425.5507812,249.8027039 
		425.5507812,204.4487 402.8739929,204.4487 402.8739929,215.7870941 414.2128906,215.7870941 	"/>
</g>
<g id="LWPOLYLINE_152_">
	<polyline class="st0" points="414.2128906,181.7714996 414.2128906,193.1098938 402.8739929,193.1098938 402.8739929,170.4331055 
		448.2285156,170.4331055 448.2285156,147.7559052 436.8895874,147.7559052 436.8895874,159.0941925 	"/>
</g>
<g id="LWPOLYLINE_153_">
	<polyline class="st0" points="436.8895874,181.7714996 448.2285156,181.7714996 448.2285156,193.1098938 425.5507812,193.1098938 
		425.5507812,147.7559052 402.8739929,147.7559052 402.8739929,159.0941925 414.2128906,159.0941925 	"/>
</g>
<g id="LWPOLYLINE_154_">
	<polyline class="st0" points="414.2128906,125.078598 414.2128906,136.4170074 402.8739929,136.4170074 402.8739929,113.7401962 
		448.2285156,113.7401962 448.2285156,91.0630035 436.8895874,91.0630035 436.8895874,102.4013977 	"/>
</g>
<g id="LWPOLYLINE_155_">
	<polyline class="st0" points="436.8895874,125.078598 448.2285156,125.078598 448.2285156,136.4170074 425.5507812,136.4170074 
		425.5507812,91.0630035 402.8739929,91.0630035 402.8739929,102.4013977 414.2128906,102.4013977 	"/>
</g>
<g id="LWPOLYLINE_156_">
	<polyline class="st0" points="414.2128906,68.3856964 414.2128906,79.7240982 402.8739929,79.7240982 402.8739929,57.0469017 
		448.2285156,57.0469017 448.2285156,34.3700981 436.8895874,34.3700981 436.8895874,45.7084999 	"/>
</g>
<g id="LWPOLYLINE_157_">
	<polyline class="st0" points="436.8895874,68.3856964 448.2285156,68.3856964 448.2285156,79.7240982 425.5507812,79.7240982 
		425.5507812,34.3700981 402.8739929,34.3700981 402.8739929,45.7084999 414.2128906,45.7084999 	"/>
</g>
<g id="LWPOLYLINE_158_">
	<polyline class="st0" points="414.2128906,11.6928997 414.2128906,23.0312004 402.8739929,23.0312004 402.8739929,0.354 
		448.2285156,0.354 	"/>
</g>
<g id="LWPOLYLINE_159_">
	<polyline class="st0" points="436.8895874,11.6928997 448.2285156,11.6928997 448.2285156,23.0312004 425.5507812,23.0312004 
		425.5507812,0.354 	"/>
</g>
<g id="LWPOLYLINE_160_">
	<polyline class="st0" points="470.905304,521.9287109 470.905304,533.2675781 459.5664062,533.2675781 459.5664062,510.5907898 
		504.9208984,510.5907898 504.9208984,487.9130859 493.5830078,487.9130859 493.5830078,499.2518921 	"/>
</g>
<g id="LWPOLYLINE_161_">
	<polyline class="st0" points="493.5830078,521.9287109 504.9208984,521.9287109 504.9208984,533.2675781 482.2440796,533.2675781 
		482.2440796,487.9130859 459.5664062,487.9130859 459.5664062,499.2518921 470.905304,499.2518921 	"/>
</g>
<g id="LWPOLYLINE_162_">
	<polyline class="st0" points="470.905304,465.2362976 470.905304,476.5741882 459.5664062,476.5741882 459.5664062,453.8974915 
		504.9208984,453.8974915 504.9208984,431.2207031 493.5830078,431.2207031 493.5830078,442.5585938 	"/>
</g>
<g id="LWPOLYLINE_163_">
	<polyline class="st0" points="493.5830078,465.2362976 504.9208984,465.2362976 504.9208984,476.5741882 482.2440796,476.5741882 
		482.2440796,431.2207031 459.5664062,431.2207031 459.5664062,442.5585938 470.905304,442.5585938 	"/>
</g>
<g id="LWPOLYLINE_164_">
	<polyline class="st0" points="470.905304,408.5429993 470.905304,419.8818054 459.5664062,419.8818054 459.5664062,397.2041016 
		504.9208984,397.2041016 504.9208984,374.5273132 493.5830078,374.5273132 493.5830078,385.8662109 	"/>
</g>
<g id="LWPOLYLINE_165_">
	<polyline class="st0" points="493.5830078,408.5429993 504.9208984,408.5429993 504.9208984,419.8818054 482.2440796,419.8818054 
		482.2440796,374.5273132 459.5664062,374.5273132 459.5664062,385.8662109 470.905304,385.8662109 	"/>
</g>
<g id="LWPOLYLINE_166_">
	<polyline class="st0" points="470.905304,351.8505859 470.905304,363.1885071 459.5664062,363.1885071 459.5664062,340.5116882 
		504.9208984,340.5116882 504.9208984,317.8349915 493.5830078,317.8349915 493.5830078,329.1727905 	"/>
</g>
<g id="LWPOLYLINE_167_">
	<polyline class="st0" points="493.5830078,351.8505859 504.9208984,351.8505859 504.9208984,363.1885071 482.2440796,363.1885071 
		482.2440796,317.8349915 459.5664062,317.8349915 459.5664062,329.1727905 470.905304,329.1727905 	"/>
</g>
<g id="LWPOLYLINE_168_">
	<polyline class="st0" points="470.905304,295.157196 470.905304,306.4960938 459.5664062,306.4960938 459.5664062,283.8183899 
		504.9208984,283.8183899 504.9208984,261.1416016 493.5830078,261.1416016 493.5830078,272.4804993 	"/>
</g>
<g id="LWPOLYLINE_169_">
	<polyline class="st0" points="493.5830078,295.157196 504.9208984,295.157196 504.9208984,306.4960938 482.2440796,306.4960938 
		482.2440796,261.1416016 459.5664062,261.1416016 459.5664062,272.4804993 470.905304,272.4804993 	"/>
</g>
<g id="LWPOLYLINE_170_">
	<polyline class="st0" points="470.905304,238.4642944 470.905304,249.8027039 459.5664062,249.8027039 459.5664062,227.1260071 
		504.9208984,227.1260071 504.9208984,204.4487 493.5830078,204.4487 493.5830078,215.7870941 	"/>
</g>
<g id="LWPOLYLINE_171_">
	<polyline class="st0" points="493.5830078,238.4642944 504.9208984,238.4642944 504.9208984,249.8027039 482.2440796,249.8027039 
		482.2440796,204.4487 459.5664062,204.4487 459.5664062,215.7870941 470.905304,215.7870941 	"/>
</g>
<g id="LWPOLYLINE_172_">
	<polyline class="st0" points="470.905304,181.7714996 470.905304,193.1098938 459.5664062,193.1098938 459.5664062,170.4331055 
		504.9208984,170.4331055 504.9208984,147.7559052 493.5830078,147.7559052 493.5830078,159.0941925 	"/>
</g>
<g id="LWPOLYLINE_173_">
	<polyline class="st0" points="493.5830078,181.7714996 504.9208984,181.7714996 504.9208984,193.1098938 482.2440796,193.1098938 
		482.2440796,147.7559052 459.5664062,147.7559052 459.5664062,159.0941925 470.905304,159.0941925 	"/>
</g>
<g id="LWPOLYLINE_174_">
	<polyline class="st0" points="470.905304,125.078598 470.905304,136.4170074 459.5664062,136.4170074 459.5664062,113.7401962 
		504.9208984,113.7401962 504.9208984,91.0630035 493.5830078,91.0630035 493.5830078,102.4013977 	"/>
</g>
<g id="LWPOLYLINE_175_">
	<polyline class="st0" points="493.5830078,125.078598 504.9208984,125.078598 504.9208984,136.4170074 482.2440796,136.4170074 
		482.2440796,91.0630035 459.5664062,91.0630035 459.5664062,102.4013977 470.905304,102.4013977 	"/>
</g>
<g id="LWPOLYLINE_176_">
	<polyline class="st0" points="470.905304,68.3856964 470.905304,79.7240982 459.5664062,79.7240982 459.5664062,57.0469017 
		504.9208984,57.0469017 504.9208984,34.3700981 493.5830078,34.3700981 493.5830078,45.7084999 	"/>
</g>
<g id="LWPOLYLINE_177_">
	<polyline class="st0" points="493.5830078,68.3856964 504.9208984,68.3856964 504.9208984,79.7240982 482.2440796,79.7240982 
		482.2440796,34.3700981 459.5664062,34.3700981 459.5664062,45.7084999 470.905304,45.7084999 	"/>
</g>
<g id="LWPOLYLINE_178_">
	<polyline class="st0" points="470.905304,11.6928997 470.905304,23.0312004 459.5664062,23.0312004 459.5664062,0.354 
		504.9208984,0.354 	"/>
</g>
<g id="LWPOLYLINE_179_">
	<polyline class="st0" points="493.5830078,11.6928997 504.9208984,11.6928997 504.9208984,23.0312004 482.2440796,23.0312004 
		482.2440796,0.354 	"/>
</g>
<g id="LWPOLYLINE_180_">
	<polyline class="st0" points="527.5985718,521.9287109 527.5985718,533.2675781 516.2597656,533.2675781 516.2597656,510.5907898 
		538.9365234,510.5907898 	"/>
</g>
<g id="LWPOLYLINE_181_">
	<polyline class="st0" points="538.9365234,533.2675781 538.9365234,487.9130859 516.2597656,487.9130859 516.2597656,499.2518921 
		527.5985718,499.2518921 	"/>
</g>
<g id="LWPOLYLINE_182_">
	<polyline class="st0" points="527.5985718,465.2362976 527.5985718,476.5741882 516.2597656,476.5741882 516.2597656,453.8974915 
		538.9365234,453.8974915 	"/>
</g>
<g id="LWPOLYLINE_183_">
	<polyline class="st0" points="538.9365234,476.5741882 538.9365234,431.2207031 516.2597656,431.2207031 516.2597656,442.5585938 
		527.5985718,442.5585938 	"/>
</g>
<g id="LWPOLYLINE_184_">
	<polyline class="st0" points="527.5985718,408.5429993 527.5985718,419.8818054 516.2597656,419.8818054 516.2597656,397.2041016 
		538.9365234,397.2041016 	"/>
</g>
<g id="LWPOLYLINE_185_">
	<polyline class="st0" points="538.9365234,419.8818054 538.9365234,374.5273132 516.2597656,374.5273132 516.2597656,385.8662109 
		527.5985718,385.8662109 	"/>
</g>
<g id="LWPOLYLINE_186_">
	<polyline class="st0" points="527.5985718,351.8505859 527.5985718,363.1885071 516.2597656,363.1885071 516.2597656,340.5116882 
		538.9365234,340.5116882 	"/>
</g>
<g id="LWPOLYLINE_187_">
	<polyline class="st0" points="538.9365234,363.1885071 538.9365234,317.8349915 516.2597656,317.8349915 516.2597656,329.1727905 
		527.5985718,329.1727905 	"/>
</g>
<g id="LWPOLYLINE_188_">
	<polyline class="st0" points="527.5985718,295.157196 527.5985718,306.4960938 516.2597656,306.4960938 516.2597656,283.8183899 
		538.9365234,283.8183899 	"/>
</g>
<g id="LWPOLYLINE_189_">
	<polyline class="st0" points="538.9365234,306.4960938 538.9365234,261.1416016 516.2597656,261.1416016 516.2597656,272.4804993 
		527.5985718,272.4804993 	"/>
</g>
<g id="LWPOLYLINE_190_">
	<polyline class="st0" points="527.5985718,238.4642944 527.5985718,249.8027039 516.2597656,249.8027039 516.2597656,227.1260071 
		538.9365234,227.1260071 	"/>
</g>
<g id="LWPOLYLINE_191_">
	<polyline class="st0" points="538.9365234,249.8027039 538.9365234,204.4487 516.2597656,204.4487 516.2597656,215.7870941 
		527.5985718,215.7870941 	"/>
</g>
<g id="LWPOLYLINE_192_">
	<polyline class="st0" points="527.5985718,181.7714996 527.5985718,193.1098938 516.2597656,193.1098938 516.2597656,170.4331055 
		538.9365234,170.4331055 	"/>
</g>
<g id="LWPOLYLINE_193_">
	<polyline class="st0" points="538.9365234,193.1098938 538.9365234,147.7559052 516.2597656,147.7559052 516.2597656,159.0941925 
		527.5985718,159.0941925 	"/>
</g>
<g id="LWPOLYLINE_194_">
	<polyline class="st0" points="527.5985718,125.078598 527.5985718,136.4170074 516.2597656,136.4170074 516.2597656,113.7401962 
		538.9365234,113.7401962 	"/>
</g>
<g id="LWPOLYLINE_195_">
	<polyline class="st0" points="538.9365234,136.4170074 538.9365234,91.0630035 516.2597656,91.0630035 516.2597656,102.4013977 
		527.5985718,102.4013977 	"/>
</g>
<g id="LWPOLYLINE_196_">
	<polyline class="st0" points="527.5985718,68.3856964 527.5985718,79.7240982 516.2597656,79.7240982 516.2597656,57.0469017 
		538.9365234,57.0469017 	"/>
</g>
<g id="LWPOLYLINE_197_">
	<polyline class="st0" points="538.9365234,79.7240982 538.9365234,34.3700981 516.2597656,34.3700981 516.2597656,45.7084999 
		527.5985718,45.7084999 	"/>
</g>
<g id="LWPOLYLINE_198_">
	<polyline class="st0" points="527.5985718,11.6928997 527.5985718,23.0312004 516.2597656,23.0312004 516.2597656,0.354 
		538.9365234,0.354 	"/>
</g>
<g id="LWPOLYLINE_199_">
	<line class="st0" x1="538.9365234" y1="23.0312004" x2="538.9365234" y2="0.354"/>
</g>
<g id="LWPOLYLINE_200_">
	<polyline class="st0" points="0.3540068,538.9365234 23.0312061,538.9365234 23.0312061,516.2598267 11.6929064,516.2598267 
		11.6929064,527.5985718 	"/>
</g>
<g id="LWPOLYLINE_201_">
	<line class="st0" x1="0.3540068" y1="538.9365234" x2="0.3540068" y2="516.2598267"/>
</g>
<g id="LWPOLYLINE_202_">
	<polyline class="st0" points="0.3540068,482.2441101 23.0312061,482.2441101 23.0312061,459.5664062 11.6929064,459.5664062 
		11.6929064,470.905304 	"/>
</g>
<g id="LWPOLYLINE_203_">
	<polyline class="st0" points="11.6929064,493.5830078 23.0312061,493.5830078 23.0312061,504.9208984 0.3540068,504.9208984 
		0.3540068,459.5664062 	"/>
</g>
<g id="LWPOLYLINE_204_">
	<polyline class="st0" points="0.3540068,425.5508118 23.0312061,425.5508118 23.0312061,402.8739929 11.6929064,402.8739929 
		11.6929064,414.2128906 	"/>
</g>
<g id="LWPOLYLINE_205_">
	<polyline class="st0" points="11.6929064,436.8895874 23.0312061,436.8895874 23.0312061,448.2284851 0.3540068,448.2284851 
		0.3540068,402.8739929 	"/>
</g>
<g id="LWPOLYLINE_206_">
	<polyline class="st0" points="0.3540068,368.8583984 23.0312061,368.8583984 23.0312061,346.1806946 11.6929064,346.1806946 
		11.6929064,357.5195007 	"/>
</g>
<g id="LWPOLYLINE_207_">
	<polyline class="st0" points="11.6929064,380.1962891 23.0312061,380.1962891 23.0312061,391.5350952 0.3540068,391.5350952 
		0.3540068,346.1806946 	"/>
</g>
<g id="LWPOLYLINE_208_">
	<polyline class="st0" points="0.3540068,312.1650085 23.0312061,312.1650085 23.0312061,289.4883118 11.6929064,289.4883118 
		11.6929064,300.8262024 	"/>
</g>
<g id="LWPOLYLINE_209_">
	<polyline class="st0" points="11.6929064,323.5039062 23.0312061,323.5039062 23.0312061,334.842804 0.3540068,334.842804 
		0.3540068,289.4883118 	"/>
</g>
<g id="LWPOLYLINE_210_">
	<polyline class="st0" points="0.3540068,255.4721985 23.0312061,255.4721985 23.0312061,232.7949066 11.6929064,232.7949066 
		11.6929064,244.1338043 	"/>
</g>
<g id="LWPOLYLINE_211_">
	<polyline class="st0" points="11.6929064,266.8110046 23.0312061,266.8110046 23.0312061,278.1494141 0.3540068,278.1494141 
		0.3540068,232.7949066 	"/>
</g>
<g id="LWPOLYLINE_212_">
	<polyline class="st0" points="0.3540068,198.7792969 23.0312061,198.7792969 23.0312061,176.102005 11.6929064,176.102005 
		11.6929064,187.4409027 	"/>
</g>
<g id="LWPOLYLINE_213_">
	<polyline class="st0" points="11.6929064,210.1181946 23.0312061,210.1181946 23.0312061,221.4564972 0.3540068,221.4564972 
		0.3540068,176.102005 	"/>
</g>
<g id="LWPOLYLINE_214_">
	<polyline class="st0" points="0.3540068,142.0863953 23.0312061,142.0863953 23.0312061,119.4092026 11.6929064,119.4092026 
		11.6929064,130.7480011 	"/>
</g>
<g id="LWPOLYLINE_215_">
	<polyline class="st0" points="11.6929064,153.4248047 23.0312061,153.4248047 23.0312061,164.7637024 0.3540068,164.7637024 
		0.3540068,119.4092026 	"/>
</g>
<g id="LWPOLYLINE_216_">
	<polyline class="st0" points="0.3540068,85.3935013 23.0312061,85.3935013 23.0312061,62.716301 11.6929064,62.716301 
		11.6929064,74.0551987 	"/>
</g>
<g id="LWPOLYLINE_217_">
	<polyline class="st0" points="11.6929064,96.7319031 23.0312061,96.7319031 23.0312061,108.0708008 0.3540068,108.0708008 
		0.3540068,62.716301 	"/>
</g>
<g id="LWPOLYLINE_218_">
	<polyline class="st0" points="0.3540068,28.7007008 23.0312061,28.7007008 23.0312061,6.0233998 11.6929064,6.0233998 
		11.6929064,17.3617992 	"/>
</g>
<g id="LWPOLYLINE_219_">
	<polyline class="st0" points="11.6929064,40.0391006 23.0312061,40.0391006 23.0312061,51.3778992 0.3540068,51.3778992 
		0.3540068,6.0233998 	"/>
</g>
<g id="LWPOLYLINE_220_">
	<polyline class="st0" points="34.3701057,538.9365234 79.7241058,538.9365234 79.7241058,516.2598267 68.385704,516.2598267 
		68.385704,527.5985718 	"/>
</g>
<g id="LWPOLYLINE_221_">
	<polyline class="st0" points="57.0469055,538.9365234 57.0469055,516.2598267 34.3701057,516.2598267 34.3701057,527.5985718 
		45.7085114,527.5985718 	"/>
</g>
<g id="LWPOLYLINE_222_">
	<polyline class="st0" points="45.7085114,493.5830078 45.7085114,504.9208984 34.3701057,504.9208984 34.3701057,482.2441101 
		79.7241058,482.2441101 79.7241058,459.5664062 68.385704,459.5664062 68.385704,470.905304 	"/>
</g>
<g id="LWPOLYLINE_223_">
	<polyline class="st0" points="68.385704,493.5830078 79.7241058,493.5830078 79.7241058,504.9208984 57.0469055,504.9208984 
		57.0469055,459.5664062 34.3701057,459.5664062 34.3701057,470.905304 45.7085114,470.905304 	"/>
</g>
<g id="LWPOLYLINE_224_">
	<polyline class="st0" points="45.7085114,436.8895874 45.7085114,448.2284851 34.3701057,448.2284851 34.3701057,425.5508118 
		79.7241058,425.5508118 79.7241058,402.8739929 68.385704,402.8739929 68.385704,414.2128906 	"/>
</g>
<g id="LWPOLYLINE_225_">
	<polyline class="st0" points="68.385704,436.8895874 79.7241058,436.8895874 79.7241058,448.2284851 57.0469055,448.2284851 
		57.0469055,402.8739929 34.3701057,402.8739929 34.3701057,414.2128906 45.7085114,414.2128906 	"/>
</g>
<g id="LWPOLYLINE_226_">
	<polyline class="st0" points="45.7085114,380.1962891 45.7085114,391.5350952 34.3701057,391.5350952 34.3701057,368.8583984 
		79.7241058,368.8583984 79.7241058,346.1806946 68.385704,346.1806946 68.385704,357.5195007 	"/>
</g>
<g id="LWPOLYLINE_227_">
	<polyline class="st0" points="68.385704,380.1962891 79.7241058,380.1962891 79.7241058,391.5350952 57.0469055,391.5350952 
		57.0469055,346.1806946 34.3701057,346.1806946 34.3701057,357.5195007 45.7085114,357.5195007 	"/>
</g>
<g id="LWPOLYLINE_228_">
	<polyline class="st0" points="45.7085114,323.5039062 45.7085114,334.842804 34.3701057,334.842804 34.3701057,312.1650085 
		79.7241058,312.1650085 79.7241058,289.4883118 68.385704,289.4883118 68.385704,300.8262024 	"/>
</g>
<g id="LWPOLYLINE_229_">
	<polyline class="st0" points="68.385704,323.5039062 79.7241058,323.5039062 79.7241058,334.842804 57.0469055,334.842804 
		57.0469055,289.4883118 34.3701057,289.4883118 34.3701057,300.8262024 45.7085114,300.8262024 	"/>
</g>
<g id="LWPOLYLINE_230_">
	<polyline class="st0" points="45.7085114,266.8110046 45.7085114,278.1494141 34.3701057,278.1494141 34.3701057,255.4721985 
		79.7241058,255.4721985 79.7241058,232.7949066 68.385704,232.7949066 68.385704,244.1338043 	"/>
</g>
<g id="LWPOLYLINE_231_">
	<polyline class="st0" points="68.385704,266.8110046 79.7241058,266.8110046 79.7241058,278.1494141 57.0469055,278.1494141 
		57.0469055,232.7949066 34.3701057,232.7949066 34.3701057,244.1338043 45.7085114,244.1338043 	"/>
</g>
<g id="LWPOLYLINE_232_">
	<polyline class="st0" points="45.7085114,210.1181946 45.7085114,221.4564972 34.3701057,221.4564972 34.3701057,198.7792969 
		79.7241058,198.7792969 79.7241058,176.102005 68.385704,176.102005 68.385704,187.4409027 	"/>
</g>
<g id="LWPOLYLINE_233_">
	<polyline class="st0" points="68.385704,210.1181946 79.7241058,210.1181946 79.7241058,221.4564972 57.0469055,221.4564972 
		57.0469055,176.102005 34.3701057,176.102005 34.3701057,187.4409027 45.7085114,187.4409027 	"/>
</g>
<g id="LWPOLYLINE_234_">
	<polyline class="st0" points="45.7085114,153.4248047 45.7085114,164.7637024 34.3701057,164.7637024 34.3701057,142.0863953 
		79.7241058,142.0863953 79.7241058,119.4092026 68.385704,119.4092026 68.385704,130.7480011 	"/>
</g>
<g id="LWPOLYLINE_235_">
	<polyline class="st0" points="68.385704,153.4248047 79.7241058,153.4248047 79.7241058,164.7637024 57.0469055,164.7637024 
		57.0469055,119.4092026 34.3701057,119.4092026 34.3701057,130.7480011 45.7085114,130.7480011 	"/>
</g>
<g id="LWPOLYLINE_236_">
	<polyline class="st0" points="45.7085114,96.7319031 45.7085114,108.0708008 34.3701057,108.0708008 34.3701057,85.3935013 
		79.7241058,85.3935013 79.7241058,62.716301 68.385704,62.716301 68.385704,74.0551987 	"/>
</g>
<g id="LWPOLYLINE_237_">
	<polyline class="st0" points="68.385704,96.7319031 79.7241058,96.7319031 79.7241058,108.0708008 57.0469055,108.0708008 
		57.0469055,62.716301 34.3701057,62.716301 34.3701057,74.0551987 45.7085114,74.0551987 	"/>
</g>
<g id="LWPOLYLINE_238_">
	<polyline class="st0" points="45.7085114,40.0391006 45.7085114,51.3778992 34.3701057,51.3778992 34.3701057,28.7007008 
		79.7241058,28.7007008 79.7241058,6.0233998 68.385704,6.0233998 68.385704,17.3617992 	"/>
</g>
<g id="LWPOLYLINE_239_">
	<polyline class="st0" points="68.385704,40.0391006 79.7241058,40.0391006 79.7241058,51.3778992 57.0469055,51.3778992 
		57.0469055,6.0233998 34.3701057,6.0233998 34.3701057,17.3617992 45.7085114,17.3617992 	"/>
</g>
<g id="LWPOLYLINE_240_">
	<polyline class="st0" points="91.0630035,538.9365234 136.4170074,538.9365234 136.4170074,516.2598267 125.0786057,516.2598267 
		125.0786057,527.5985718 	"/>
</g>
<g id="LWPOLYLINE_241_">
	<polyline class="st0" points="113.7402039,538.9365234 113.7402039,516.2598267 91.0630035,516.2598267 91.0630035,527.5985718 
		102.4014053,527.5985718 	"/>
</g>
<g id="LWPOLYLINE_242_">
	<polyline class="st0" points="102.4014053,493.5830078 102.4014053,504.9208984 91.0630035,504.9208984 91.0630035,482.2441101 
		136.4170074,482.2441101 136.4170074,459.5664062 125.0786057,459.5664062 125.0786057,470.905304 	"/>
</g>
<g id="LWPOLYLINE_243_">
	<polyline class="st0" points="125.0786057,493.5830078 136.4170074,493.5830078 136.4170074,504.9208984 113.7402039,504.9208984 
		113.7402039,459.5664062 91.0630035,459.5664062 91.0630035,470.905304 102.4014053,470.905304 	"/>
</g>
<g id="LWPOLYLINE_244_">
	<polyline class="st0" points="102.4014053,436.8895874 102.4014053,448.2284851 91.0630035,448.2284851 91.0630035,425.5508118 
		136.4170074,425.5508118 136.4170074,402.8739929 125.0786057,402.8739929 125.0786057,414.2128906 	"/>
</g>
<g id="LWPOLYLINE_245_">
	<polyline class="st0" points="125.0786057,436.8895874 136.4170074,436.8895874 136.4170074,448.2284851 113.7402039,448.2284851 
		113.7402039,402.8739929 91.0630035,402.8739929 91.0630035,414.2128906 102.4014053,414.2128906 	"/>
</g>
<g id="LWPOLYLINE_246_">
	<polyline class="st0" points="102.4014053,380.1962891 102.4014053,391.5350952 91.0630035,391.5350952 91.0630035,368.8583984 
		136.4170074,368.8583984 136.4170074,346.1806946 125.0786057,346.1806946 125.0786057,357.5195007 	"/>
</g>
<g id="LWPOLYLINE_247_">
	<polyline class="st0" points="125.0786057,380.1962891 136.4170074,380.1962891 136.4170074,391.5350952 113.7402039,391.5350952 
		113.7402039,346.1806946 91.0630035,346.1806946 91.0630035,357.5195007 102.4014053,357.5195007 	"/>
</g>
<g id="LWPOLYLINE_248_">
	<polyline class="st0" points="102.4014053,323.5039062 102.4014053,334.842804 91.0630035,334.842804 91.0630035,312.1650085 
		136.4170074,312.1650085 136.4170074,289.4883118 125.0786057,289.4883118 125.0786057,300.8262024 	"/>
</g>
<g id="LWPOLYLINE_249_">
	<polyline class="st0" points="125.0786057,323.5039062 136.4170074,323.5039062 136.4170074,334.842804 113.7402039,334.842804 
		113.7402039,289.4883118 91.0630035,289.4883118 91.0630035,300.8262024 102.4014053,300.8262024 	"/>
</g>
<g id="LWPOLYLINE_250_">
	<polyline class="st0" points="102.4014053,266.8110046 102.4014053,278.1494141 91.0630035,278.1494141 91.0630035,255.4721985 
		136.4170074,255.4721985 136.4170074,232.7949066 125.0786057,232.7949066 125.0786057,244.1338043 	"/>
</g>
<g id="LWPOLYLINE_251_">
	<polyline class="st0" points="125.0786057,266.8110046 136.4170074,266.8110046 136.4170074,278.1494141 113.7402039,278.1494141 
		113.7402039,232.7949066 91.0630035,232.7949066 91.0630035,244.1338043 102.4014053,244.1338043 	"/>
</g>
<g id="LWPOLYLINE_252_">
	<polyline class="st0" points="102.4014053,210.1181946 102.4014053,221.4564972 91.0630035,221.4564972 91.0630035,198.7792969 
		136.4170074,198.7792969 136.4170074,176.102005 125.0786057,176.102005 125.0786057,187.4409027 	"/>
</g>
<g id="LWPOLYLINE_253_">
	<polyline class="st0" points="125.0786057,210.1181946 136.4170074,210.1181946 136.4170074,221.4564972 113.7402039,221.4564972 
		113.7402039,176.102005 91.0630035,176.102005 91.0630035,187.4409027 102.4014053,187.4409027 	"/>
</g>
<g id="LWPOLYLINE_254_">
	<polyline class="st0" points="102.4014053,153.4248047 102.4014053,164.7637024 91.0630035,164.7637024 91.0630035,142.0863953 
		136.4170074,142.0863953 136.4170074,119.4092026 125.0786057,119.4092026 125.0786057,130.7480011 	"/>
</g>
<g id="LWPOLYLINE_255_">
	<polyline class="st0" points="125.0786057,153.4248047 136.4170074,153.4248047 136.4170074,164.7637024 113.7402039,164.7637024 
		113.7402039,119.4092026 91.0630035,119.4092026 91.0630035,130.7480011 102.4014053,130.7480011 	"/>
</g>
<g id="LWPOLYLINE_256_">
	<polyline class="st0" points="102.4014053,96.7319031 102.4014053,108.0708008 91.0630035,108.0708008 91.0630035,85.3935013 
		136.4170074,85.3935013 136.4170074,62.716301 125.0786057,62.716301 125.0786057,74.0551987 	"/>
</g>
<g id="LWPOLYLINE_257_">
	<polyline class="st0" points="125.0786057,96.7319031 136.4170074,96.7319031 136.4170074,108.0708008 113.7402039,108.0708008 
		113.7402039,62.716301 91.0630035,62.716301 91.0630035,74.0551987 102.4014053,74.0551987 	"/>
</g>
<g id="LWPOLYLINE_258_">
	<polyline class="st0" points="102.4014053,40.0391006 102.4014053,51.3778992 91.0630035,51.3778992 91.0630035,28.7007008 
		136.4170074,28.7007008 136.4170074,6.0233998 125.0786057,6.0233998 125.0786057,17.3617992 	"/>
</g>
<g id="LWPOLYLINE_259_">
	<polyline class="st0" points="125.0786057,40.0391006 136.4170074,40.0391006 136.4170074,51.3778992 113.7402039,51.3778992 
		113.7402039,6.0233998 91.0630035,6.0233998 91.0630035,17.3617992 102.4014053,17.3617992 	"/>
</g>
<g id="LWPOLYLINE_260_">
	<polyline class="st0" points="147.7559052,538.9365234 193.1099091,538.9365234 193.1099091,516.2598267 181.7715149,516.2598267 
		181.7715149,527.5985718 	"/>
</g>
<g id="LWPOLYLINE_261_">
	<polyline class="st0" points="170.4331055,538.9365234 170.4331055,516.2598267 147.7559052,516.2598267 147.7559052,527.5985718 
		159.0942078,527.5985718 	"/>
</g>
<g id="LWPOLYLINE_262_">
	<polyline class="st0" points="159.0942078,493.5830078 159.0942078,504.9208984 147.7559052,504.9208984 147.7559052,482.2441101 
		193.1099091,482.2441101 193.1099091,459.5664062 181.7715149,459.5664062 181.7715149,470.905304 	"/>
</g>
<g id="LWPOLYLINE_263_">
	<polyline class="st0" points="181.7715149,493.5830078 193.1099091,493.5830078 193.1099091,504.9208984 170.4331055,504.9208984 
		170.4331055,459.5664062 147.7559052,459.5664062 147.7559052,470.905304 159.0942078,470.905304 	"/>
</g>
<g id="LWPOLYLINE_264_">
	<polyline class="st0" points="159.0942078,436.8895874 159.0942078,448.2284851 147.7559052,448.2284851 147.7559052,425.5508118 
		193.1099091,425.5508118 193.1099091,402.8739929 181.7715149,402.8739929 181.7715149,414.2128906 	"/>
</g>
<g id="LWPOLYLINE_265_">
	<polyline class="st0" points="181.7715149,436.8895874 193.1099091,436.8895874 193.1099091,448.2284851 170.4331055,448.2284851 
		170.4331055,402.8739929 147.7559052,402.8739929 147.7559052,414.2128906 159.0942078,414.2128906 	"/>
</g>
<g id="LWPOLYLINE_266_">
	<polyline class="st0" points="159.0942078,380.1962891 159.0942078,391.5350952 147.7559052,391.5350952 147.7559052,368.8583984 
		193.1099091,368.8583984 193.1099091,346.1806946 181.7715149,346.1806946 181.7715149,357.5195007 	"/>
</g>
<g id="LWPOLYLINE_267_">
	<polyline class="st0" points="181.7715149,380.1962891 193.1099091,380.1962891 193.1099091,391.5350952 170.4331055,391.5350952 
		170.4331055,346.1806946 147.7559052,346.1806946 147.7559052,357.5195007 159.0942078,357.5195007 	"/>
</g>
<g id="LWPOLYLINE_268_">
	<polyline class="st0" points="159.0942078,323.5039062 159.0942078,334.842804 147.7559052,334.842804 147.7559052,312.1650085 
		193.1099091,312.1650085 193.1099091,289.4883118 181.7715149,289.4883118 181.7715149,300.8262024 	"/>
</g>
<g id="LWPOLYLINE_269_">
	<polyline class="st0" points="181.7715149,323.5039062 193.1099091,323.5039062 193.1099091,334.842804 170.4331055,334.842804 
		170.4331055,289.4883118 147.7559052,289.4883118 147.7559052,300.8262024 159.0942078,300.8262024 	"/>
</g>
<g id="LWPOLYLINE_270_">
	<polyline class="st0" points="159.0942078,266.8110046 159.0942078,278.1494141 147.7559052,278.1494141 147.7559052,255.4721985 
		193.1099091,255.4721985 193.1099091,232.7949066 181.7715149,232.7949066 181.7715149,244.1338043 	"/>
</g>
<g id="LWPOLYLINE_271_">
	<polyline class="st0" points="181.7715149,266.8110046 193.1099091,266.8110046 193.1099091,278.1494141 170.4331055,278.1494141 
		170.4331055,232.7949066 147.7559052,232.7949066 147.7559052,244.1338043 159.0942078,244.1338043 	"/>
</g>
<g id="LWPOLYLINE_272_">
	<polyline class="st0" points="159.0942078,210.1181946 159.0942078,221.4564972 147.7559052,221.4564972 147.7559052,198.7792969 
		193.1099091,198.7792969 193.1099091,176.102005 181.7715149,176.102005 181.7715149,187.4409027 	"/>
</g>
<g id="LWPOLYLINE_273_">
	<polyline class="st0" points="181.7715149,210.1181946 193.1099091,210.1181946 193.1099091,221.4564972 170.4331055,221.4564972 
		170.4331055,176.102005 147.7559052,176.102005 147.7559052,187.4409027 159.0942078,187.4409027 	"/>
</g>
<g id="LWPOLYLINE_274_">
	<polyline class="st0" points="159.0942078,153.4248047 159.0942078,164.7637024 147.7559052,164.7637024 147.7559052,142.0863953 
		193.1099091,142.0863953 193.1099091,119.4092026 181.7715149,119.4092026 181.7715149,130.7480011 	"/>
</g>
<g id="LWPOLYLINE_275_">
	<polyline class="st0" points="181.7715149,153.4248047 193.1099091,153.4248047 193.1099091,164.7637024 170.4331055,164.7637024 
		170.4331055,119.4092026 147.7559052,119.4092026 147.7559052,130.7480011 159.0942078,130.7480011 	"/>
</g>
<g id="LWPOLYLINE_276_">
	<polyline class="st0" points="159.0942078,96.7319031 159.0942078,108.0708008 147.7559052,108.0708008 147.7559052,85.3935013 
		193.1099091,85.3935013 193.1099091,62.716301 181.7715149,62.716301 181.7715149,74.0551987 	"/>
</g>
<g id="LWPOLYLINE_277_">
	<polyline class="st0" points="181.7715149,96.7319031 193.1099091,96.7319031 193.1099091,108.0708008 170.4331055,108.0708008 
		170.4331055,62.716301 147.7559052,62.716301 147.7559052,74.0551987 159.0942078,74.0551987 	"/>
</g>
<g id="LWPOLYLINE_278_">
	<polyline class="st0" points="159.0942078,40.0391006 159.0942078,51.3778992 147.7559052,51.3778992 147.7559052,28.7007008 
		193.1099091,28.7007008 193.1099091,6.0233998 181.7715149,6.0233998 181.7715149,17.3617992 	"/>
</g>
<g id="LWPOLYLINE_279_">
	<polyline class="st0" points="181.7715149,40.0391006 193.1099091,40.0391006 193.1099091,51.3778992 170.4331055,51.3778992 
		170.4331055,6.0233998 147.7559052,6.0233998 147.7559052,17.3617992 159.0942078,17.3617992 	"/>
</g>
<g id="LWPOLYLINE_280_">
	<polyline class="st0" points="204.4487,538.9365234 249.8027039,538.9365234 249.8027039,516.2598267 238.4642944,516.2598267 
		238.4642944,527.5985718 	"/>
</g>
<g id="LWPOLYLINE_281_">
	<polyline class="st0" points="227.1260071,538.9365234 227.1260071,516.2598267 204.4487,516.2598267 204.4487,527.5985718 
		215.7870941,527.5985718 	"/>
</g>
<g id="LWPOLYLINE_282_">
	<polyline class="st0" points="215.7870941,493.5830078 215.7870941,504.9208984 204.4487,504.9208984 204.4487,482.2441101 
		249.8027039,482.2441101 249.8027039,459.5664062 238.4642944,459.5664062 238.4642944,470.905304 	"/>
</g>
<g id="LWPOLYLINE_283_">
	<polyline class="st0" points="238.4642944,493.5830078 249.8027039,493.5830078 249.8027039,504.9208984 227.1260071,504.9208984 
		227.1260071,459.5664062 204.4487,459.5664062 204.4487,470.905304 215.7870941,470.905304 	"/>
</g>
<g id="LWPOLYLINE_284_">
	<polyline class="st0" points="215.7870941,436.8895874 215.7870941,448.2284851 204.4487,448.2284851 204.4487,425.5508118 
		249.8027039,425.5508118 249.8027039,402.8739929 238.4642944,402.8739929 238.4642944,414.2128906 	"/>
</g>
<g id="LWPOLYLINE_285_">
	<polyline class="st0" points="238.4642944,436.8895874 249.8027039,436.8895874 249.8027039,448.2284851 227.1260071,448.2284851 
		227.1260071,402.8739929 204.4487,402.8739929 204.4487,414.2128906 215.7870941,414.2128906 	"/>
</g>
<g id="LWPOLYLINE_286_">
	<polyline class="st0" points="215.7870941,380.1962891 215.7870941,391.5350952 204.4487,391.5350952 204.4487,368.8583984 
		249.8027039,368.8583984 249.8027039,346.1806946 238.4642944,346.1806946 238.4642944,357.5195007 	"/>
</g>
<g id="LWPOLYLINE_287_">
	<polyline class="st0" points="238.4642944,380.1962891 249.8027039,380.1962891 249.8027039,391.5350952 227.1260071,391.5350952 
		227.1260071,346.1806946 204.4487,346.1806946 204.4487,357.5195007 215.7870941,357.5195007 	"/>
</g>
<g id="LWPOLYLINE_288_">
	<polyline class="st0" points="215.7870941,323.5039062 215.7870941,334.842804 204.4487,334.842804 204.4487,312.1650085 
		249.8027039,312.1650085 249.8027039,289.4883118 238.4642944,289.4883118 238.4642944,300.8262024 	"/>
</g>
<g id="LWPOLYLINE_289_">
	<polyline class="st0" points="238.4642944,323.5039062 249.8027039,323.5039062 249.8027039,334.842804 227.1260071,334.842804 
		227.1260071,289.4883118 204.4487,289.4883118 204.4487,300.8262024 215.7870941,300.8262024 	"/>
</g>
<g id="LWPOLYLINE_290_">
	<polyline class="st0" points="215.7870941,266.8110046 215.7870941,278.1494141 204.4487,278.1494141 204.4487,255.4721985 
		249.8027039,255.4721985 249.8027039,232.7949066 238.4642944,232.7949066 238.4642944,244.1338043 	"/>
</g>
<g id="LWPOLYLINE_291_">
	<polyline class="st0" points="238.4642944,266.8110046 249.8027039,266.8110046 249.8027039,278.1494141 227.1260071,278.1494141 
		227.1260071,232.7949066 204.4487,232.7949066 204.4487,244.1338043 215.7870941,244.1338043 	"/>
</g>
<g id="LWPOLYLINE_292_">
	<polyline class="st0" points="215.7870941,210.1181946 215.7870941,221.4564972 204.4487,221.4564972 204.4487,198.7792969 
		249.8027039,198.7792969 249.8027039,176.102005 238.4642944,176.102005 238.4642944,187.4409027 	"/>
</g>
<g id="LWPOLYLINE_293_">
	<polyline class="st0" points="238.4642944,210.1181946 249.8027039,210.1181946 249.8027039,221.4564972 227.1260071,221.4564972 
		227.1260071,176.102005 204.4487,176.102005 204.4487,187.4409027 215.7870941,187.4409027 	"/>
</g>
<g id="LWPOLYLINE_294_">
	<polyline class="st0" points="215.7870941,153.4248047 215.7870941,164.7637024 204.4487,164.7637024 204.4487,142.0863953 
		249.8027039,142.0863953 249.8027039,119.4092026 238.4642944,119.4092026 238.4642944,130.7480011 	"/>
</g>
<g id="LWPOLYLINE_295_">
	<polyline class="st0" points="238.4642944,153.4248047 249.8027039,153.4248047 249.8027039,164.7637024 227.1260071,164.7637024 
		227.1260071,119.4092026 204.4487,119.4092026 204.4487,130.7480011 215.7870941,130.7480011 	"/>
</g>
<g id="LWPOLYLINE_296_">
	<polyline class="st0" points="215.7870941,96.7319031 215.7870941,108.0708008 204.4487,108.0708008 204.4487,85.3935013 
		249.8027039,85.3935013 249.8027039,62.716301 238.4642944,62.716301 238.4642944,74.0551987 	"/>
</g>
<g id="LWPOLYLINE_297_">
	<polyline class="st0" points="238.4642944,96.7319031 249.8027039,96.7319031 249.8027039,108.0708008 227.1260071,108.0708008 
		227.1260071,62.716301 204.4487,62.716301 204.4487,74.0551987 215.7870941,74.0551987 	"/>
</g>
<g id="LWPOLYLINE_298_">
	<polyline class="st0" points="215.7870941,40.0391006 215.7870941,51.3778992 204.4487,51.3778992 204.4487,28.7007008 
		249.8027039,28.7007008 249.8027039,6.0233998 238.4642944,6.0233998 238.4642944,17.3617992 	"/>
</g>
<g id="LWPOLYLINE_299_">
	<polyline class="st0" points="238.4642944,40.0391006 249.8027039,40.0391006 249.8027039,51.3778992 227.1260071,51.3778992 
		227.1260071,6.0233998 204.4487,6.0233998 204.4487,17.3617992 215.7870941,17.3617992 	"/>
</g>
<g id="LWPOLYLINE_300_">
	<polyline class="st0" points="261.1416016,538.9365234 306.4960938,538.9365234 306.4960938,516.2598267 295.157196,516.2598267 
		295.157196,527.5985718 	"/>
</g>
<g id="LWPOLYLINE_301_">
	<polyline class="st0" points="283.8183899,538.9365234 283.8183899,516.2598267 261.1416016,516.2598267 261.1416016,527.5985718 
		272.4804993,527.5985718 	"/>
</g>
<g id="LWPOLYLINE_302_">
	<polyline class="st0" points="272.4804993,493.5830078 272.4804993,504.9208984 261.1416016,504.9208984 261.1416016,482.2441101 
		306.4960938,482.2441101 306.4960938,459.5664062 295.157196,459.5664062 295.157196,470.905304 	"/>
</g>
<g id="LWPOLYLINE_303_">
	<polyline class="st0" points="295.157196,493.5830078 306.4960938,493.5830078 306.4960938,504.9208984 283.8183899,504.9208984 
		283.8183899,459.5664062 261.1416016,459.5664062 261.1416016,470.905304 272.4804993,470.905304 	"/>
</g>
<g id="LWPOLYLINE_304_">
	<polyline class="st0" points="272.4804993,436.8895874 272.4804993,448.2284851 261.1416016,448.2284851 261.1416016,425.5508118 
		306.4960938,425.5508118 306.4960938,402.8739929 295.157196,402.8739929 295.157196,414.2128906 	"/>
</g>
<g id="LWPOLYLINE_305_">
	<polyline class="st0" points="295.157196,436.8895874 306.4960938,436.8895874 306.4960938,448.2284851 283.8183899,448.2284851 
		283.8183899,402.8739929 261.1416016,402.8739929 261.1416016,414.2128906 272.4804993,414.2128906 	"/>
</g>
<g id="LWPOLYLINE_306_">
	<polyline class="st0" points="272.4804993,380.1962891 272.4804993,391.5350952 261.1416016,391.5350952 261.1416016,368.8583984 
		306.4960938,368.8583984 306.4960938,346.1806946 295.157196,346.1806946 295.157196,357.5195007 	"/>
</g>
<g id="LWPOLYLINE_307_">
	<polyline class="st0" points="295.157196,380.1962891 306.4960938,380.1962891 306.4960938,391.5350952 283.8183899,391.5350952 
		283.8183899,346.1806946 261.1416016,346.1806946 261.1416016,357.5195007 272.4804993,357.5195007 	"/>
</g>
<g id="LWPOLYLINE_308_">
	<polyline class="st0" points="272.4804993,323.5039062 272.4804993,334.842804 261.1416016,334.842804 261.1416016,312.1650085 
		306.4960938,312.1650085 306.4960938,289.4883118 295.157196,289.4883118 295.157196,300.8262024 	"/>
</g>
<g id="LWPOLYLINE_309_">
	<polyline class="st0" points="295.157196,323.5039062 306.4960938,323.5039062 306.4960938,334.842804 283.8183899,334.842804 
		283.8183899,289.4883118 261.1416016,289.4883118 261.1416016,300.8262024 272.4804993,300.8262024 	"/>
</g>
<g id="LWPOLYLINE_310_">
	<polyline class="st0" points="272.4804993,266.8110046 272.4804993,278.1494141 261.1416016,278.1494141 261.1416016,255.4721985 
		306.4960938,255.4721985 306.4960938,232.7949066 295.157196,232.7949066 295.157196,244.1338043 	"/>
</g>
<g id="LWPOLYLINE_311_">
	<polyline class="st0" points="295.157196,266.8110046 306.4960938,266.8110046 306.4960938,278.1494141 283.8183899,278.1494141 
		283.8183899,232.7949066 261.1416016,232.7949066 261.1416016,244.1338043 272.4804993,244.1338043 	"/>
</g>
<g id="LWPOLYLINE_312_">
	<polyline class="st0" points="272.4804993,210.1181946 272.4804993,221.4564972 261.1416016,221.4564972 261.1416016,198.7792969 
		306.4960938,198.7792969 306.4960938,176.102005 295.157196,176.102005 295.157196,187.4409027 	"/>
</g>
<g id="LWPOLYLINE_313_">
	<polyline class="st0" points="295.157196,210.1181946 306.4960938,210.1181946 306.4960938,221.4564972 283.8183899,221.4564972 
		283.8183899,176.102005 261.1416016,176.102005 261.1416016,187.4409027 272.4804993,187.4409027 	"/>
</g>
<g id="LWPOLYLINE_314_">
	<polyline class="st0" points="272.4804993,153.4248047 272.4804993,164.7637024 261.1416016,164.7637024 261.1416016,142.0863953 
		306.4960938,142.0863953 306.4960938,119.4092026 295.157196,119.4092026 295.157196,130.7480011 	"/>
</g>
<g id="LWPOLYLINE_315_">
	<polyline class="st0" points="295.157196,153.4248047 306.4960938,153.4248047 306.4960938,164.7637024 283.8183899,164.7637024 
		283.8183899,119.4092026 261.1416016,119.4092026 261.1416016,130.7480011 272.4804993,130.7480011 	"/>
</g>
<g id="LWPOLYLINE_316_">
	<polyline class="st0" points="272.4804993,96.7319031 272.4804993,108.0708008 261.1416016,108.0708008 261.1416016,85.3935013 
		306.4960938,85.3935013 306.4960938,62.716301 295.157196,62.716301 295.157196,74.0551987 	"/>
</g>
<g id="LWPOLYLINE_317_">
	<polyline class="st0" points="295.157196,96.7319031 306.4960938,96.7319031 306.4960938,108.0708008 283.8183899,108.0708008 
		283.8183899,62.716301 261.1416016,62.716301 261.1416016,74.0551987 272.4804993,74.0551987 	"/>
</g>
<g id="LWPOLYLINE_318_">
	<polyline class="st0" points="272.4804993,40.0391006 272.4804993,51.3778992 261.1416016,51.3778992 261.1416016,28.7007008 
		306.4960938,28.7007008 306.4960938,6.0233998 295.157196,6.0233998 295.157196,17.3617992 	"/>
</g>
<g id="LWPOLYLINE_319_">
	<polyline class="st0" points="295.157196,40.0391006 306.4960938,40.0391006 306.4960938,51.3778992 283.8183899,51.3778992 
		283.8183899,6.0233998 261.1416016,6.0233998 261.1416016,17.3617992 272.4804993,17.3617992 	"/>
</g>
<g id="LWPOLYLINE_320_">
	<polyline class="st0" points="317.8349915,538.9365234 363.1885071,538.9365234 363.1885071,516.2598267 351.8505859,516.2598267 
		351.8505859,527.5985718 	"/>
</g>
<g id="LWPOLYLINE_321_">
	<polyline class="st0" points="340.5116882,538.9365234 340.5116882,516.2598267 317.8349915,516.2598267 317.8349915,527.5985718 
		329.1727905,527.5985718 	"/>
</g>
<g id="LWPOLYLINE_322_">
	<polyline class="st0" points="329.1727905,493.5830078 329.1727905,504.9208984 317.8349915,504.9208984 317.8349915,482.2441101 
		363.1885071,482.2441101 363.1885071,459.5664062 351.8505859,459.5664062 351.8505859,470.905304 	"/>
</g>
<g id="LWPOLYLINE_323_">
	<polyline class="st0" points="351.8505859,493.5830078 363.1885071,493.5830078 363.1885071,504.9208984 340.5116882,504.9208984 
		340.5116882,459.5664062 317.8349915,459.5664062 317.8349915,470.905304 329.1727905,470.905304 	"/>
</g>
<g id="LWPOLYLINE_324_">
	<polyline class="st0" points="329.1727905,436.8895874 329.1727905,448.2284851 317.8349915,448.2284851 317.8349915,425.5508118 
		363.1885071,425.5508118 363.1885071,402.8739929 351.8505859,402.8739929 351.8505859,414.2128906 	"/>
</g>
<g id="LWPOLYLINE_325_">
	<polyline class="st0" points="351.8505859,436.8895874 363.1885071,436.8895874 363.1885071,448.2284851 340.5116882,448.2284851 
		340.5116882,402.8739929 317.8349915,402.8739929 317.8349915,414.2128906 329.1727905,414.2128906 	"/>
</g>
<g id="LWPOLYLINE_326_">
	<polyline class="st0" points="329.1727905,380.1962891 329.1727905,391.5350952 317.8349915,391.5350952 317.8349915,368.8583984 
		363.1885071,368.8583984 363.1885071,346.1806946 351.8505859,346.1806946 351.8505859,357.5195007 	"/>
</g>
<g id="LWPOLYLINE_327_">
	<polyline class="st0" points="351.8505859,380.1962891 363.1885071,380.1962891 363.1885071,391.5350952 340.5116882,391.5350952 
		340.5116882,346.1806946 317.8349915,346.1806946 317.8349915,357.5195007 329.1727905,357.5195007 	"/>
</g>
<g id="LWPOLYLINE_328_">
	<polyline class="st0" points="329.1727905,323.5039062 329.1727905,334.842804 317.8349915,334.842804 317.8349915,312.1650085 
		363.1885071,312.1650085 363.1885071,289.4883118 351.8505859,289.4883118 351.8505859,300.8262024 	"/>
</g>
<g id="LWPOLYLINE_329_">
	<polyline class="st0" points="351.8505859,323.5039062 363.1885071,323.5039062 363.1885071,334.842804 340.5116882,334.842804 
		340.5116882,289.4883118 317.8349915,289.4883118 317.8349915,300.8262024 329.1727905,300.8262024 	"/>
</g>
<g id="LWPOLYLINE_330_">
	<polyline class="st0" points="329.1727905,266.8110046 329.1727905,278.1494141 317.8349915,278.1494141 317.8349915,255.4721985 
		363.1885071,255.4721985 363.1885071,232.7949066 351.8505859,232.7949066 351.8505859,244.1338043 	"/>
</g>
<g id="LWPOLYLINE_331_">
	<polyline class="st0" points="351.8505859,266.8110046 363.1885071,266.8110046 363.1885071,278.1494141 340.5116882,278.1494141 
		340.5116882,232.7949066 317.8349915,232.7949066 317.8349915,244.1338043 329.1727905,244.1338043 	"/>
</g>
<g id="LWPOLYLINE_332_">
	<polyline class="st0" points="329.1727905,210.1181946 329.1727905,221.4564972 317.8349915,221.4564972 317.8349915,198.7792969 
		363.1885071,198.7792969 363.1885071,176.102005 351.8505859,176.102005 351.8505859,187.4409027 	"/>
</g>
<g id="LWPOLYLINE_333_">
	<polyline class="st0" points="351.8505859,210.1181946 363.1885071,210.1181946 363.1885071,221.4564972 340.5116882,221.4564972 
		340.5116882,176.102005 317.8349915,176.102005 317.8349915,187.4409027 329.1727905,187.4409027 	"/>
</g>
<g id="LWPOLYLINE_334_">
	<polyline class="st0" points="329.1727905,153.4248047 329.1727905,164.7637024 317.8349915,164.7637024 317.8349915,142.0863953 
		363.1885071,142.0863953 363.1885071,119.4092026 351.8505859,119.4092026 351.8505859,130.7480011 	"/>
</g>
<g id="LWPOLYLINE_335_">
	<polyline class="st0" points="351.8505859,153.4248047 363.1885071,153.4248047 363.1885071,164.7637024 340.5116882,164.7637024 
		340.5116882,119.4092026 317.8349915,119.4092026 317.8349915,130.7480011 329.1727905,130.7480011 	"/>
</g>
<g id="LWPOLYLINE_336_">
	<polyline class="st0" points="329.1727905,96.7319031 329.1727905,108.0708008 317.8349915,108.0708008 317.8349915,85.3935013 
		363.1885071,85.3935013 363.1885071,62.716301 351.8505859,62.716301 351.8505859,74.0551987 	"/>
</g>
<g id="LWPOLYLINE_337_">
	<polyline class="st0" points="351.8505859,96.7319031 363.1885071,96.7319031 363.1885071,108.0708008 340.5116882,108.0708008 
		340.5116882,62.716301 317.8349915,62.716301 317.8349915,74.0551987 329.1727905,74.0551987 	"/>
</g>
<g id="LWPOLYLINE_338_">
	<polyline class="st0" points="329.1727905,40.0391006 329.1727905,51.3778992 317.8349915,51.3778992 317.8349915,28.7007008 
		363.1885071,28.7007008 363.1885071,6.0233998 351.8505859,6.0233998 351.8505859,17.3617992 	"/>
</g>
<g id="LWPOLYLINE_339_">
	<polyline class="st0" points="351.8505859,40.0391006 363.1885071,40.0391006 363.1885071,51.3778992 340.5116882,51.3778992 
		340.5116882,6.0233998 317.8349915,6.0233998 317.8349915,17.3617992 329.1727905,17.3617992 	"/>
</g>
<g id="LWPOLYLINE_340_">
	<polyline class="st0" points="374.5272827,538.9365234 419.8818054,538.9365234 419.8818054,516.2598267 408.5429993,516.2598267 
		408.5429993,527.5985718 	"/>
</g>
<g id="LWPOLYLINE_341_">
	<polyline class="st0" points="397.2041016,538.9365234 397.2041016,516.2598267 374.5272827,516.2598267 374.5272827,527.5985718 
		385.8662109,527.5985718 	"/>
</g>
<g id="LWPOLYLINE_342_">
	<polyline class="st0" points="385.8662109,493.5830078 385.8662109,504.9208984 374.5272827,504.9208984 374.5272827,482.2441101 
		419.8818054,482.2441101 419.8818054,459.5664062 408.5429993,459.5664062 408.5429993,470.905304 	"/>
</g>
<g id="LWPOLYLINE_343_">
	<polyline class="st0" points="408.5429993,493.5830078 419.8818054,493.5830078 419.8818054,504.9208984 397.2041016,504.9208984 
		397.2041016,459.5664062 374.5272827,459.5664062 374.5272827,470.905304 385.8662109,470.905304 	"/>
</g>
<g id="LWPOLYLINE_344_">
	<polyline class="st0" points="385.8662109,436.8895874 385.8662109,448.2284851 374.5272827,448.2284851 374.5272827,425.5508118 
		419.8818054,425.5508118 419.8818054,402.8739929 408.5429993,402.8739929 408.5429993,414.2128906 	"/>
</g>
<g id="LWPOLYLINE_345_">
	<polyline class="st0" points="408.5429993,436.8895874 419.8818054,436.8895874 419.8818054,448.2284851 397.2041016,448.2284851 
		397.2041016,402.8739929 374.5272827,402.8739929 374.5272827,414.2128906 385.8662109,414.2128906 	"/>
</g>
<g id="LWPOLYLINE_346_">
	<polyline class="st0" points="385.8662109,380.1962891 385.8662109,391.5350952 374.5272827,391.5350952 374.5272827,368.8583984 
		419.8818054,368.8583984 419.8818054,346.1806946 408.5429993,346.1806946 408.5429993,357.5195007 	"/>
</g>
<g id="LWPOLYLINE_347_">
	<polyline class="st0" points="408.5429993,380.1962891 419.8818054,380.1962891 419.8818054,391.5350952 397.2041016,391.5350952 
		397.2041016,346.1806946 374.5272827,346.1806946 374.5272827,357.5195007 385.8662109,357.5195007 	"/>
</g>
<g id="LWPOLYLINE_348_">
	<polyline class="st0" points="385.8662109,323.5039062 385.8662109,334.842804 374.5272827,334.842804 374.5272827,312.1650085 
		419.8818054,312.1650085 419.8818054,289.4883118 408.5429993,289.4883118 408.5429993,300.8262024 	"/>
</g>
<g id="LWPOLYLINE_349_">
	<polyline class="st0" points="408.5429993,323.5039062 419.8818054,323.5039062 419.8818054,334.842804 397.2041016,334.842804 
		397.2041016,289.4883118 374.5272827,289.4883118 374.5272827,300.8262024 385.8662109,300.8262024 	"/>
</g>
<g id="LWPOLYLINE_350_">
	<polyline class="st0" points="385.8662109,266.8110046 385.8662109,278.1494141 374.5272827,278.1494141 374.5272827,255.4721985 
		419.8818054,255.4721985 419.8818054,232.7949066 408.5429993,232.7949066 408.5429993,244.1338043 	"/>
</g>
<g id="LWPOLYLINE_351_">
	<polyline class="st0" points="408.5429993,266.8110046 419.8818054,266.8110046 419.8818054,278.1494141 397.2041016,278.1494141 
		397.2041016,232.7949066 374.5272827,232.7949066 374.5272827,244.1338043 385.8662109,244.1338043 	"/>
</g>
<g id="LWPOLYLINE_352_">
	<polyline class="st0" points="385.8662109,210.1181946 385.8662109,221.4564972 374.5272827,221.4564972 374.5272827,198.7792969 
		419.8818054,198.7792969 419.8818054,176.102005 408.5429993,176.102005 408.5429993,187.4409027 	"/>
</g>
<g id="LWPOLYLINE_353_">
	<polyline class="st0" points="408.5429993,210.1181946 419.8818054,210.1181946 419.8818054,221.4564972 397.2041016,221.4564972 
		397.2041016,176.102005 374.5272827,176.102005 374.5272827,187.4409027 385.8662109,187.4409027 	"/>
</g>
<g id="LWPOLYLINE_354_">
	<polyline class="st0" points="385.8662109,153.4248047 385.8662109,164.7637024 374.5272827,164.7637024 374.5272827,142.0863953 
		419.8818054,142.0863953 419.8818054,119.4092026 408.5429993,119.4092026 408.5429993,130.7480011 	"/>
</g>
<g id="LWPOLYLINE_355_">
	<polyline class="st0" points="408.5429993,153.4248047 419.8818054,153.4248047 419.8818054,164.7637024 397.2041016,164.7637024 
		397.2041016,119.4092026 374.5272827,119.4092026 374.5272827,130.7480011 385.8662109,130.7480011 	"/>
</g>
<g id="LWPOLYLINE_356_">
	<polyline class="st0" points="385.8662109,96.7319031 385.8662109,108.0708008 374.5272827,108.0708008 374.5272827,85.3935013 
		419.8818054,85.3935013 419.8818054,62.716301 408.5429993,62.716301 408.5429993,74.0551987 	"/>
</g>
<g id="LWPOLYLINE_357_">
	<polyline class="st0" points="408.5429993,96.7319031 419.8818054,96.7319031 419.8818054,108.0708008 397.2041016,108.0708008 
		397.2041016,62.716301 374.5272827,62.716301 374.5272827,74.0551987 385.8662109,74.0551987 	"/>
</g>
<g id="LWPOLYLINE_358_">
	<polyline class="st0" points="385.8662109,40.0391006 385.8662109,51.3778992 374.5272827,51.3778992 374.5272827,28.7007008 
		419.8818054,28.7007008 419.8818054,6.0233998 408.5429993,6.0233998 408.5429993,17.3617992 	"/>
</g>
<g id="LWPOLYLINE_359_">
	<polyline class="st0" points="408.5429993,40.0391006 419.8818054,40.0391006 419.8818054,51.3778992 397.2041016,51.3778992 
		397.2041016,6.0233998 374.5272827,6.0233998 374.5272827,17.3617992 385.8662109,17.3617992 	"/>
</g>
<g id="LWPOLYLINE_360_">
	<polyline class="st0" points="431.2207031,538.9365234 476.5741882,538.9365234 476.5741882,516.2598267 465.2362976,516.2598267 
		465.2362976,527.5985718 	"/>
</g>
<g id="LWPOLYLINE_361_">
	<polyline class="st0" points="453.897522,538.9365234 453.897522,516.2598267 431.2207031,516.2598267 431.2207031,527.5985718 
		442.5585938,527.5985718 	"/>
</g>
<g id="LWPOLYLINE_362_">
	<polyline class="st0" points="442.5585938,493.5830078 442.5585938,504.9208984 431.2207031,504.9208984 431.2207031,482.2441101 
		476.5741882,482.2441101 476.5741882,459.5664062 465.2362976,459.5664062 465.2362976,470.905304 	"/>
</g>
<g id="LWPOLYLINE_363_">
	<polyline class="st0" points="465.2362976,493.5830078 476.5741882,493.5830078 476.5741882,504.9208984 453.897522,504.9208984 
		453.897522,459.5664062 431.2207031,459.5664062 431.2207031,470.905304 442.5585938,470.905304 	"/>
</g>
<g id="LWPOLYLINE_364_">
	<polyline class="st0" points="442.5585938,436.8895874 442.5585938,448.2284851 431.2207031,448.2284851 431.2207031,425.5508118 
		476.5741882,425.5508118 476.5741882,402.8739929 465.2362976,402.8739929 465.2362976,414.2128906 	"/>
</g>
<g id="LWPOLYLINE_365_">
	<polyline class="st0" points="465.2362976,436.8895874 476.5741882,436.8895874 476.5741882,448.2284851 453.897522,448.2284851 
		453.897522,402.8739929 431.2207031,402.8739929 431.2207031,414.2128906 442.5585938,414.2128906 	"/>
</g>
<g id="LWPOLYLINE_366_">
	<polyline class="st0" points="442.5585938,380.1962891 442.5585938,391.5350952 431.2207031,391.5350952 431.2207031,368.8583984 
		476.5741882,368.8583984 476.5741882,346.1806946 465.2362976,346.1806946 465.2362976,357.5195007 	"/>
</g>
<g id="LWPOLYLINE_367_">
	<polyline class="st0" points="465.2362976,380.1962891 476.5741882,380.1962891 476.5741882,391.5350952 453.897522,391.5350952 
		453.897522,346.1806946 431.2207031,346.1806946 431.2207031,357.5195007 442.5585938,357.5195007 	"/>
</g>
<g id="LWPOLYLINE_368_">
	<polyline class="st0" points="442.5585938,323.5039062 442.5585938,334.842804 431.2207031,334.842804 431.2207031,312.1650085 
		476.5741882,312.1650085 476.5741882,289.4883118 465.2362976,289.4883118 465.2362976,300.8262024 	"/>
</g>
<g id="LWPOLYLINE_369_">
	<polyline class="st0" points="465.2362976,323.5039062 476.5741882,323.5039062 476.5741882,334.842804 453.897522,334.842804 
		453.897522,289.4883118 431.2207031,289.4883118 431.2207031,300.8262024 442.5585938,300.8262024 	"/>
</g>
<g id="LWPOLYLINE_370_">
	<polyline class="st0" points="442.5585938,266.8110046 442.5585938,278.1494141 431.2207031,278.1494141 431.2207031,255.4721985 
		476.5741882,255.4721985 476.5741882,232.7949066 465.2362976,232.7949066 465.2362976,244.1338043 	"/>
</g>
<g id="LWPOLYLINE_371_">
	<polyline class="st0" points="465.2362976,266.8110046 476.5741882,266.8110046 476.5741882,278.1494141 453.897522,278.1494141 
		453.897522,232.7949066 431.2207031,232.7949066 431.2207031,244.1338043 442.5585938,244.1338043 	"/>
</g>
<g id="LWPOLYLINE_372_">
	<polyline class="st0" points="442.5585938,210.1181946 442.5585938,221.4564972 431.2207031,221.4564972 431.2207031,198.7792969 
		476.5741882,198.7792969 476.5741882,176.102005 465.2362976,176.102005 465.2362976,187.4409027 	"/>
</g>
<g id="LWPOLYLINE_373_">
	<polyline class="st0" points="465.2362976,210.1181946 476.5741882,210.1181946 476.5741882,221.4564972 453.897522,221.4564972 
		453.897522,176.102005 431.2207031,176.102005 431.2207031,187.4409027 442.5585938,187.4409027 	"/>
</g>
<g id="LWPOLYLINE_374_">
	<polyline class="st0" points="442.5585938,153.4248047 442.5585938,164.7637024 431.2207031,164.7637024 431.2207031,142.0863953 
		476.5741882,142.0863953 476.5741882,119.4092026 465.2362976,119.4092026 465.2362976,130.7480011 	"/>
</g>
<g id="LWPOLYLINE_375_">
	<polyline class="st0" points="465.2362976,153.4248047 476.5741882,153.4248047 476.5741882,164.7637024 453.897522,164.7637024 
		453.897522,119.4092026 431.2207031,119.4092026 431.2207031,130.7480011 442.5585938,130.7480011 	"/>
</g>
<g id="LWPOLYLINE_376_">
	<polyline class="st0" points="442.5585938,96.7319031 442.5585938,108.0708008 431.2207031,108.0708008 431.2207031,85.3935013 
		476.5741882,85.3935013 476.5741882,62.716301 465.2362976,62.716301 465.2362976,74.0551987 	"/>
</g>
<g id="LWPOLYLINE_377_">
	<polyline class="st0" points="465.2362976,96.7319031 476.5741882,96.7319031 476.5741882,108.0708008 453.897522,108.0708008 
		453.897522,62.716301 431.2207031,62.716301 431.2207031,74.0551987 442.5585938,74.0551987 	"/>
</g>
<g id="LWPOLYLINE_378_">
	<polyline class="st0" points="442.5585938,40.0391006 442.5585938,51.3778992 431.2207031,51.3778992 431.2207031,28.7007008 
		476.5741882,28.7007008 476.5741882,6.0233998 465.2362976,6.0233998 465.2362976,17.3617992 	"/>
</g>
<g id="LWPOLYLINE_379_">
	<polyline class="st0" points="465.2362976,40.0391006 476.5741882,40.0391006 476.5741882,51.3778992 453.897522,51.3778992 
		453.897522,6.0233998 431.2207031,6.0233998 431.2207031,17.3617992 442.5585938,17.3617992 	"/>
</g>
<g id="LWPOLYLINE_380_">
	<polyline class="st0" points="487.9130859,538.9365234 533.2675781,538.9365234 533.2675781,516.2598267 521.9287109,516.2598267 
		521.9287109,527.5985718 	"/>
</g>
<g id="LWPOLYLINE_381_">
	<polyline class="st0" points="510.5907898,538.9365234 510.5907898,516.2598267 487.9130859,516.2598267 487.9130859,527.5985718 
		499.2518921,527.5985718 	"/>
</g>
<g id="LWPOLYLINE_382_">
	<polyline class="st0" points="499.2518921,493.5830078 499.2518921,504.9208984 487.9130859,504.9208984 487.9130859,482.2441101 
		533.2675781,482.2441101 533.2675781,459.5664062 521.9287109,459.5664062 521.9287109,470.905304 	"/>
</g>
<g id="LWPOLYLINE_383_">
	<polyline class="st0" points="521.9287109,493.5830078 533.2675781,493.5830078 533.2675781,504.9208984 510.5907898,504.9208984 
		510.5907898,459.5664062 487.9130859,459.5664062 487.9130859,470.905304 499.2518921,470.905304 	"/>
</g>
<g id="LWPOLYLINE_384_">
	<polyline class="st0" points="499.2518921,436.8895874 499.2518921,448.2284851 487.9130859,448.2284851 487.9130859,425.5508118 
		533.2675781,425.5508118 533.2675781,402.8739929 521.9287109,402.8739929 521.9287109,414.2128906 	"/>
</g>
<g id="LWPOLYLINE_385_">
	<polyline class="st0" points="521.9287109,436.8895874 533.2675781,436.8895874 533.2675781,448.2284851 510.5907898,448.2284851 
		510.5907898,402.8739929 487.9130859,402.8739929 487.9130859,414.2128906 499.2518921,414.2128906 	"/>
</g>
<g id="LWPOLYLINE_386_">
	<polyline class="st0" points="499.2518921,380.1962891 499.2518921,391.5350952 487.9130859,391.5350952 487.9130859,368.8583984 
		533.2675781,368.8583984 533.2675781,346.1806946 521.9287109,346.1806946 521.9287109,357.5195007 	"/>
</g>
<g id="LWPOLYLINE_387_">
	<polyline class="st0" points="521.9287109,380.1962891 533.2675781,380.1962891 533.2675781,391.5350952 510.5907898,391.5350952 
		510.5907898,346.1806946 487.9130859,346.1806946 487.9130859,357.5195007 499.2518921,357.5195007 	"/>
</g>
<g id="LWPOLYLINE_388_">
	<polyline class="st0" points="499.2518921,323.5039062 499.2518921,334.842804 487.9130859,334.842804 487.9130859,312.1650085 
		533.2675781,312.1650085 533.2675781,289.4883118 521.9287109,289.4883118 521.9287109,300.8262024 	"/>
</g>
<g id="LWPOLYLINE_389_">
	<polyline class="st0" points="521.9287109,323.5039062 533.2675781,323.5039062 533.2675781,334.842804 510.5907898,334.842804 
		510.5907898,289.4883118 487.9130859,289.4883118 487.9130859,300.8262024 499.2518921,300.8262024 	"/>
</g>
<g id="LWPOLYLINE_390_">
	<polyline class="st0" points="499.2518921,266.8110046 499.2518921,278.1494141 487.9130859,278.1494141 487.9130859,255.4721985 
		533.2675781,255.4721985 533.2675781,232.7949066 521.9287109,232.7949066 521.9287109,244.1338043 	"/>
</g>
<g id="LWPOLYLINE_391_">
	<polyline class="st0" points="521.9287109,266.8110046 533.2675781,266.8110046 533.2675781,278.1494141 510.5907898,278.1494141 
		510.5907898,232.7949066 487.9130859,232.7949066 487.9130859,244.1338043 499.2518921,244.1338043 	"/>
</g>
<g id="LWPOLYLINE_392_">
	<polyline class="st0" points="499.2518921,210.1181946 499.2518921,221.4564972 487.9130859,221.4564972 487.9130859,198.7792969 
		533.2675781,198.7792969 533.2675781,176.102005 521.9287109,176.102005 521.9287109,187.4409027 	"/>
</g>
<g id="LWPOLYLINE_393_">
	<polyline class="st0" points="521.9287109,210.1181946 533.2675781,210.1181946 533.2675781,221.4564972 510.5907898,221.4564972 
		510.5907898,176.102005 487.9130859,176.102005 487.9130859,187.4409027 499.2518921,187.4409027 	"/>
</g>
<g id="LWPOLYLINE_394_">
	<polyline class="st0" points="499.2518921,153.4248047 499.2518921,164.7637024 487.9130859,164.7637024 487.9130859,142.0863953 
		533.2675781,142.0863953 533.2675781,119.4092026 521.9287109,119.4092026 521.9287109,130.7480011 	"/>
</g>
<g id="LWPOLYLINE_395_">
	<polyline class="st0" points="521.9287109,153.4248047 533.2675781,153.4248047 533.2675781,164.7637024 510.5907898,164.7637024 
		510.5907898,119.4092026 487.9130859,119.4092026 487.9130859,130.7480011 499.2518921,130.7480011 	"/>
</g>
<g id="LWPOLYLINE_396_">
	<polyline class="st0" points="499.2518921,96.7319031 499.2518921,108.0708008 487.9130859,108.0708008 487.9130859,85.3935013 
		533.2675781,85.3935013 533.2675781,62.716301 521.9287109,62.716301 521.9287109,74.0551987 	"/>
</g>
<g id="LWPOLYLINE_397_">
	<polyline class="st0" points="521.9287109,96.7319031 533.2675781,96.7319031 533.2675781,108.0708008 510.5907898,108.0708008 
		510.5907898,62.716301 487.9130859,62.716301 487.9130859,74.0551987 499.2518921,74.0551987 	"/>
</g>
<g id="LWPOLYLINE_398_">
	<polyline class="st0" points="499.2518921,40.0391006 499.2518921,51.3778992 487.9130859,51.3778992 487.9130859,28.7007008 
		533.2675781,28.7007008 533.2675781,6.0233998 521.9287109,6.0233998 521.9287109,17.3617992 	"/>
</g>
<g id="LWPOLYLINE_399_">
	<polyline class="st0" points="521.9287109,40.0391006 533.2675781,40.0391006 533.2675781,51.3778992 510.5907898,51.3778992 
		510.5907898,6.0233998 487.9130859,6.0233998 487.9130859,17.3617992 499.2518921,17.3617992 	"/>
</g>
<g id="LWPOLYLINE_400_">
	<rect x="0.3540068" y="0.354" class="st0" width="538.5825195" height="538.5825195"/>
</g>
</svg>
