  0
SECTION
  2
HEADER
  9
$ACADVER
  1
AC1014
  9
$HANDSEED
  5
FFFF
  9
$MEASUREMENT
 70
     1
  0
ENDSEC
  0
SECTION
  2
TABLES
  0
TABLE
  2
VPORT
  5
8
330
0
100
AcDbSymbolTable
 70
     4
  0
VPORT
  5
2E
330
8
100
AcDbSymbolTableRecord
100
AcDbViewportTableRecord
  2
*ACTIVE
 70
     0
 10
0.0
 20
0.0
 11
1.0
 21
1.0
 12
210.0
 22
148.5
 13
0.0
 23
0.0
 14
10.0
 24
10.0
 15
10.0
 25
10.0
 16
0.0
 26
0.0
 36
1.0
 17
0.0
 27
0.0
 37
0.0
 40
341.0
 41
1.24
 42
50.0
 43
0.0
 44
0.0
 50
0.0
 51
0.0
 71
     0
 72
   100
 73
     1
 74
     3
 75
     0
 76
     0
 77
     0
 78
     0
  0
ENDTAB
  0
TABLE
  2
LTYPE
  5
5
330
0
100
AcDbSymbolTable
 70
     1
  0
LTYPE
  5
14
330
5
100
AcDbSymbolTableRecord
100
AcDbLinetypeTableRecord
  2
BYBLOCK
 70
     0
  3

 72
    65
 73
     0
 40
0.0
  0
LTYPE
  5
15
330
5
100
AcDbSymbolTableRecord
100
AcDbLinetypeTableRecord
  2
BYLAYER
 70
     0
  3

 72
    65
 73
     0
 40
0.0
  0
LTYPE
  5
16
330
5
100
AcDbSymbolTableRecord
100
AcDbLinetypeTableRecord
  2
CONTINUOUS
 70
     0
  3
Solid line
 72
    65
 73
     0
 40
0.0
  0
ENDTAB
  0
TABLE
  2
LAYER
  5
2
100
AcDbSymbolTable
 70
2
  0
LAYER
  5
50
100
AcDbSymbolTableRecord
100
AcDbLayerTableRecord
  2
0
 70
0
  6
CONTINUOUS
  0
LAYER
  5
51
100
AcDbSymbolTableRecord
100
AcDbLayerTableRecord
  2
Layer_1
 70
0
  6
CONTINUOUS
  0
ENDTAB
  0
TABLE
  2
STYLE
  5
3
330
0
100
AcDbSymbolTable
 70
     1
  0
STYLE
  5
11
330
3
100
AcDbSymbolTableRecord
100
AcDbTextStyleTableRecord
  2
STANDARD
 70
     0
 40
0.0
 41
1.0
 50
0.0
 71
     0
 42
2.5
  3
txt
  4

  0
ENDTAB
  0
TABLE
  2
VIEW
  5
6
330
0
100
AcDbSymbolTable
 70
     0
  0
ENDTAB
  0
TABLE
  2
UCS
  5
7
330
0
100
AcDbSymbolTable
 70
     0
  0
ENDTAB
  0
TABLE
  2
APPID
  5
9
330
0
100
AcDbSymbolTable
 70
     2
  0
APPID
  5
12
330
9
100
AcDbSymbolTableRecord
100
AcDbRegAppTableRecord
  2
ACAD
 70
     0
  0
ENDTAB
  0
TABLE
  2
DIMSTYLE
  5
A
330
0
100
AcDbSymbolTable
 70
     1
  0
DIMSTYLE
105
27
330
A
100
AcDbSymbolTableRecord
100
AcDbDimStyleTableRecord
  2
ISO-25
 70
     0
  3

  4

  5

  6

  7

 40
1.0
 41
2.5
 42
0.625
 43
3.75
 44
1.25
 45
0.0
 46
0.0
 47
0.0
 48
0.0
140
2.5
141
2.5
142
0.0
143
0.03937007874016
144
1.0
145
0.0
146
1.0
147
0.625
 71
     0
 72
     0
 73
     0
 74
     0
 75
     0
 76
     0
 77
     1
 78
     8
170
     0
171
     3
172
     1
173
     0
174
     0
175
     0
176
     0
177
     0
178
     0
270
     2
271
     2
272
     2
273
     2
274
     3
340
11
275
     0
280
     0
281
     0
282
     0
283
     0
284
     8
285
     0
286
     0
287
     3
288
     0
  0
ENDTAB
  0
TABLE
  2
BLOCK_RECORD
  5
1
330
0
100
AcDbSymbolTable
 70
     1
  0
BLOCK_RECORD
  5
1F
330
1
100
AcDbSymbolTableRecord
100
AcDbBlockTableRecord
  2
*MODEL_SPACE
  0
BLOCK_RECORD
  5
1B
330
1
100
AcDbSymbolTableRecord
100
AcDbBlockTableRecord
  2
*PAPER_SPACE
  0
ENDTAB
  0
ENDSEC
  0
SECTION
  2
BLOCKS
  0
BLOCK
  5
20
330
1F
100
AcDbEntity
  8
0
100
AcDbBlockBegin
  2
*MODEL_SPACE
 70
     0
 10
0.0
 20
0.0
 30
0.0
  3
*MODEL_SPACE
  1

  0
ENDBLK
  5
21
330
1F
100
AcDbEntity
  8
0
100
AcDbBlockEnd
  0
BLOCK
  5
1C
330
1B
100
AcDbEntity
 67
     1
  8
0
100
AcDbBlockBegin
  2
*PAPER_SPACE
  1

  0
ENDBLK
  5
1D
330
1B
100
AcDbEntity
 67
     1
  8
0
100
AcDbBlockEnd
  0
ENDSEC
  0
SECTION
  2
ENTITIES
  0
SPLINE
  5
100
100
AcDbEntity
  8
Layer_1
 62
1
100
AcDbSpline
 70
8
 71
3
 72
8
 73
4
 74
0
 40
0
 40
0
 40
0
 40
0
 40
1
 40
1
 40
1
 40
1
 10
273.890459
 20
235.416818
 30
0.0
 10
263.957427
 20
234.162255
 30
0.0
 10
265.163214
 20
220.331996
 30
0.0
 10
266.852403
 20
214.842410
 30
0.0
  0
SPLINE
  5
101
100
AcDbEntity
  8
Layer_1
 62
1
100
AcDbSpline
 70
8
 71
3
 72
8
 73
4
 74
0
 40
0
 40
0
 40
0
 40
0
 40
1
 40
1
 40
1
 40
1
 10
266.852403
 20
214.842410
 30
0.0
 10
260.789640
 20
219.579556
 30
0.0
 10
248.053359
 20
223.100920
 30
0.0
 10
244.610320
 20
213.731474
 30
0.0
  0
SPLINE
  5
102
100
AcDbEntity
  8
Layer_1
 62
1
100
AcDbSpline
 70
8
 71
3
 72
8
 73
4
 74
0
 40
0
 40
0
 40
0
 40
0
 40
1
 40
1
 40
1
 40
1
 10
244.610320
 20
213.731474
 30
0.0
 10
243.096927
 20
206.687641
 30
0.0
 10
248.880284
 20
200.540148
 30
0.0
 10
254.039516
 20
196.756476
 30
0.0
  0
SPLINE
  5
103
100
AcDbEntity
  8
Layer_1
 62
1
100
AcDbSpline
 70
8
 71
3
 72
8
 73
4
 74
0
 40
0
 40
0
 40
0
 40
0
 40
1
 40
1
 40
1
 40
1
 10
254.039516
 20
196.756476
 30
0.0
 10
246.056842
 20
197.438185
 30
0.0
 10
232.705796
 20
192.256740
 30
0.0
 10
236.579712
 20
182.358836
 30
0.0
  0
SPLINE
  5
104
100
AcDbEntity
  8
Layer_1
 62
1
100
AcDbSpline
 70
8
 71
3
 72
8
 73
4
 74
0
 40
0
 40
0
 40
0
 40
0
 40
1
 40
1
 40
1
 40
1
 10
236.579712
 20
182.358836
 30
0.0
 10
239.770736
 20
176.224202
 30
0.0
 10
248.122815
 20
174.892675
 30
0.0
 10
253.904179
 20
174.626762
 30
0.0
  0
SPLINE
  5
105
100
AcDbEntity
  8
Layer_1
 62
1
100
AcDbSpline
 70
8
 71
3
 72
8
 73
4
 74
0
 40
0
 40
0
 40
0
 40
0
 40
1
 40
1
 40
1
 40
1
 10
253.904179
 20
174.626762
 30
0.0
 10
247.466577
 20
170.566043
 30
0.0
 10
239.919853
 20
159.775058
 30
0.0
 10
247.633085
 20
153.519113
 30
0.0
  0
SPLINE
  5
106
100
AcDbEntity
  8
Layer_1
 62
1
100
AcDbSpline
 70
8
 71
3
 72
8
 73
4
 74
0
 40
0
 40
0
 40
0
 40
0
 40
1
 40
1
 40
1
 40
1
 10
247.633085
 20
153.519113
 30
0.0
 10
253.853129
 20
149.624230
 30
0.0
 10
261.750103
 20
153.120970
 30
0.0
 10
267.168209
 20
156.896338
 30
0.0
  0
SPLINE
  5
107
100
AcDbEntity
  8
Layer_1
 62
1
100
AcDbSpline
 70
8
 71
3
 72
8
 73
4
 74
0
 40
0
 40
0
 40
0
 40
0
 40
1
 40
1
 40
1
 40
1
 10
267.168209
 20
156.896338
 30
0.0
 10
264.178283
 20
149.678997
 30
0.0
 10
264.808592
 20
135.904421
 30
0.0
 10
275.379287
 20
136.055304
 30
0.0
  0
SPLINE
  5
108
100
AcDbEntity
  8
Layer_1
 62
1
100
AcDbSpline
 70
8
 71
3
 72
8
 73
4
 74
0
 40
0
 40
0
 40
0
 40
0
 40
1
 40
1
 40
1
 40
1
 10
275.379287
 20
136.055304
 30
0.0
 10
282.461595
 20
137.189805
 30
0.0
 10
286.295354
 20
144.010394
 30
0.0
 10
288.462860
 20
150.097446
 30
0.0
  0
SPLINE
  5
109
100
AcDbEntity
  8
Layer_1
 62
1
100
AcDbSpline
 70
8
 71
3
 72
8
 73
4
 74
0
 40
0
 40
0
 40
0
 40
0
 40
1
 40
1
 40
1
 40
1
 10
288.462860
 20
150.097446
 30
0.0
 10
290.459558
 20
142.846095
 30
0.0
 10
297.917635
 20
132.670394
 30
0.0
 10
306.554289
 20
137.299541
 30
0.0
  0
SPLINE
  5
10a
100
AcDbEntity
  8
Layer_1
 62
1
100
AcDbSpline
 70
8
 71
3
 72
8
 73
4
 74
0
 40
0
 40
0
 40
0
 40
0
 40
1
 40
1
 40
1
 40
1
 10
306.554289
 20
137.299541
 30
0.0
 10
312.986180
 20
141.501805
 30
0.0
 10
311.269165
 20
151.427605
 30
0.0
 10
309.983089
 20
156.718584
 30
0.0
  0
SPLINE
  5
10b
100
AcDbEntity
  8
Layer_1
 62
1
100
AcDbSpline
 70
8
 71
3
 72
8
 73
4
 74
0
 40
0
 40
0
 40
0
 40
0
 40
1
 40
1
 40
1
 40
1
 10
309.983089
 20
156.718584
 30
0.0
 10
315.963558
 20
151.813888
 30
0.0
 10
329.227419
 20
148.329960
 30
0.0
 10
332.315400
 20
158.007262
 30
0.0
  0
SPLINE
  5
10c
100
AcDbEntity
  8
Layer_1
 62
1
100
AcDbSpline
 70
8
 71
3
 72
8
 73
4
 74
0
 40
0
 40
0
 40
0
 40
0
 40
1
 40
1
 40
1
 40
1
 10
332.315400
 20
158.007262
 30
0.0
 10
334.536553
 20
164.962046
 30
0.0
 10
325.930140
 20
171.869782
 30
0.0
 10
323.608058
 20
174.715646
 30
0.0
  0
SPLINE
  5
10d
100
AcDbEntity
  8
Layer_1
 62
1
100
AcDbSpline
 70
8
 71
3
 72
8
 73
4
 74
0
 40
0
 40
0
 40
0
 40
0
 40
1
 40
1
 40
1
 40
1
 10
323.608058
 20
174.715646
 30
0.0
 10
331.632532
 20
174.181596
 30
0.0
 10
344.701165
 20
179.914517
 30
0.0
 10
340.030202
 20
189.646527
 30
0.0
  0
SPLINE
  5
10e
100
AcDbEntity
  8
Layer_1
 62
1
100
AcDbSpline
 70
8
 71
3
 72
8
 73
4
 74
0
 40
0
 40
0
 40
0
 40
0
 40
1
 40
1
 40
1
 40
1
 10
340.030202
 20
189.646527
 30
0.0
 10
336.609869
 20
195.322981
 30
0.0
 10
328.586108
 20
196.617453
 30
0.0
 10
322.931313
 20
196.845359
 30
0.0
  0
SPLINE
  5
10f
100
AcDbEntity
  8
Layer_1
 62
1
100
AcDbSpline
 70
8
 71
3
 72
8
 73
4
 74
0
 40
0
 40
0
 40
0
 40
0
 40
1
 40
1
 40
1
 40
1
 10
322.931313
 20
196.845359
 30
0.0
 10
329.552899
 20
200.761262
 30
0.0
 10
337.242243
 20
212.300691
 30
0.0
 10
328.796372
 20
218.264065
 30
0.0
  0
SPLINE
  5
110
100
AcDbEntity
  8
Layer_1
 62
1
100
AcDbSpline
 70
8
 71
3
 72
8
 73
4
 74
0
 40
0
 40
0
 40
0
 40
0
 40
1
 40
1
 40
1
 40
1
 10
328.796372
 20
218.264065
 30
0.0
 10
322.477041
 20
221.645906
 30
0.0
 10
315.007769
 20
218.226237
 30
0.0
 10
309.712391
 20
214.575783
 30
0.0
  0
SPLINE
  5
111
100
AcDbEntity
  8
Layer_1
 62
1
100
AcDbSpline
 70
8
 71
3
 72
8
 73
4
 74
0
 40
0
 40
0
 40
0
 40
0
 40
1
 40
1
 40
1
 40
1
 10
309.712391
 20
214.575783
 30
0.0
 10
312.965189
 20
221.871576
 30
0.0
 10
311.828242
 20
236.249779
 30
0.0
 10
301.005049
 20
235.327946
 30
0.0
  0
SPLINE
  5
112
100
AcDbEntity
  8
Layer_1
 62
1
100
AcDbSpline
 70
8
 71
3
 72
8
 73
4
 74
0
 40
0
 40
0
 40
0
 40
0
 40
1
 40
1
 40
1
 40
1
 10
301.005049
 20
235.327946
 30
0.0
 10
294.228041
 20
233.921728
 30
0.0
 10
290.524570
 20
227.353942
 30
0.0
 10
288.462860
 20
221.374675
 30
0.0
  0
SPLINE
  5
113
100
AcDbEntity
  8
Layer_1
 62
1
100
AcDbSpline
 70
8
 71
3
 72
8
 73
4
 74
0
 40
0
 40
0
 40
0
 40
0
 40
1
 40
1
 40
1
 40
1
 10
288.462860
 20
221.374675
 30
0.0
 10
286.212143
 20
227.694392
 30
0.0
 10
281.740308
 20
235.620089
 30
0.0
 10
273.890459
 20
235.416818
 30
0.0
  0
SPLINE
  5
114
100
AcDbEntity
  8
Layer_1
 62
5
100
AcDbSpline
 70
8
 71
3
 72
8
 73
4
 74
0
 40
0
 40
0
 40
0
 40
0
 40
1
 40
1
 40
1
 40
1
 10
338.223261
 20
185.738476
 30
0.0
 10
338.223261
 20
186.815569
 30
0.0
 10
337.841827
 20
187.892412
 30
0.0
 10
337.092159
 20
188.890292
 30
0.0
  0
SPLINE
  5
115
100
AcDbEntity
  8
Layer_1
 62
5
100
AcDbSpline
 70
8
 71
3
 72
8
 73
4
 74
0
 40
0
 40
0
 40
0
 40
0
 40
1
 40
1
 40
1
 40
1
 10
337.092159
 20
188.890292
 30
0.0
 10
336.342468
 20
189.888173
 30
0.0
 10
335.224675
 20
190.806639
 30
0.0
 10
333.777248
 20
191.573853
 30
0.0
  0
SPLINE
  5
116
100
AcDbEntity
  8
Layer_1
 62
5
100
AcDbSpline
 70
8
 71
3
 72
8
 73
4
 74
0
 40
0
 40
0
 40
0
 40
0
 40
1
 40
1
 40
1
 40
1
 10
333.777248
 20
191.573853
 30
0.0
 10
332.329808
 20
192.341080
 30
0.0
 10
330.552975
 20
192.956685
 30
0.0
 10
328.507546
 20
193.362073
 30
0.0
  0
SPLINE
  5
117
100
AcDbEntity
  8
Layer_1
 62
5
100
AcDbSpline
 70
8
 71
3
 72
8
 73
4
 74
0
 40
0
 40
0
 40
0
 40
0
 40
1
 40
1
 40
1
 40
1
 10
328.507546
 20
193.362073
 30
0.0
 10
326.462104
 20
193.767473
 30
0.0
 10
324.148404
 20
193.962370
 30
0.0
 10
321.644729
 20
193.906687
 30
0.0
  0
SPLINE
  5
118
100
AcDbEntity
  8
Layer_1
 62
5
100
AcDbSpline
 70
8
 71
3
 72
8
 73
4
 74
0
 40
0
 40
0
 40
0
 40
0
 40
1
 40
1
 40
1
 40
1
 10
321.644729
 20
193.906687
 30
0.0
 10
319.141055
 20
193.850897
 30
0.0
 10
316.447865
 20
193.544575
 30
0.0
 10
313.654833
 20
192.969556
 30
0.0
  0
SPLINE
  5
119
100
AcDbEntity
  8
Layer_1
 62
5
100
AcDbSpline
 70
8
 71
3
 72
8
 73
4
 74
0
 40
0
 40
0
 40
0
 40
0
 40
1
 40
1
 40
1
 40
1
 10
313.654833
 20
192.969556
 30
0.0
 10
310.861813
 20
192.394526
 30
0.0
 10
307.969422
 20
191.550859
 30
0.0
 10
305.071826
 20
190.444848
 30
0.0
  0
SPLINE
  5
11a
100
AcDbEntity
  8
Layer_1
 62
5
100
AcDbSpline
 70
8
 71
3
 72
8
 73
4
 74
0
 40
0
 40
0
 40
0
 40
0
 40
1
 40
1
 40
1
 40
1
 10
305.071826
 20
190.444848
 30
0.0
 10
302.174206
 20
189.338837
 30
0.0
 10
299.271851
 20
187.970542
 30
0.0
 10
296.456005
 20
186.370354
 30
0.0
  0
SPLINE
  5
11b
100
AcDbEntity
  8
Layer_1
 62
5
100
AcDbSpline
 70
8
 71
3
 72
8
 73
4
 74
0
 40
0
 40
0
 40
0
 40
0
 40
1
 40
1
 40
1
 40
1
 10
296.456005
 20
186.370354
 30
0.0
 10
293.640160
 20
184.770143
 30
0.0
 10
290.911270
 20
182.938207
 30
0.0
 10
288.350724
 20
180.926863
 30
0.0
  0
SPLINE
  5
11c
100
AcDbEntity
  8
Layer_1
 62
5
100
AcDbSpline
 70
8
 71
3
 72
8
 73
4
 74
0
 40
0
 40
0
 40
0
 40
0
 40
1
 40
1
 40
1
 40
1
 10
288.350724
 20
180.926863
 30
0.0
 10
285.790178
 20
178.915519
 30
0.0
 10
283.398350
 20
176.725075
 30
0.0
 10
281.240578
 20
174.425859
 30
0.0
  0
SPLINE
  5
11d
100
AcDbEntity
  8
Layer_1
 62
5
100
AcDbSpline
 70
8
 71
3
 72
8
 73
4
 74
0
 40
0
 40
0
 40
0
 40
0
 40
1
 40
1
 40
1
 40
1
 10
281.240578
 20
174.425859
 30
0.0
 10
279.082819
 20
172.126642
 30
0.0
 10
277.159405
 20
169.719058
 30
0.0
 10
275.514806
 20
167.286076
 30
0.0
  0
SPLINE
  5
11e
100
AcDbEntity
  8
Layer_1
 62
5
100
AcDbSpline
 70
8
 71
3
 72
8
 73
4
 74
0
 40
0
 40
0
 40
0
 40
0
 40
1
 40
1
 40
1
 40
1
 10
275.514806
 20
167.286076
 30
0.0
 10
273.870218
 20
164.853083
 30
0.0
 10
272.504626
 20
162.395144
 30
0.0
 10
271.438499
 20
160.001323
 30
0.0
  0
SPLINE
  5
11f
100
AcDbEntity
  8
Layer_1
 62
5
100
AcDbSpline
 70
8
 71
3
 72
8
 73
4
 74
0
 40
0
 40
0
 40
0
 40
0
 40
1
 40
1
 40
1
 40
1
 10
271.438499
 20
160.001323
 30
0.0
 10
270.372397
 20
157.607489
 30
0.0
 10
269.605798
 20
155.278237
 30
0.0
 10
269.134123
 20
153.101675
 30
0.0
  0
SPLINE
  5
120
100
AcDbEntity
  8
Layer_1
 62
5
100
AcDbSpline
 70
8
 71
3
 72
8
 73
4
 74
0
 40
0
 40
0
 40
0
 40
0
 40
1
 40
1
 40
1
 40
1
 10
269.134123
 20
153.101675
 30
0.0
 10
268.662436
 20
150.925102
 30
0.0
 10
268.485553
 20
148.901671
 30
0.0
 10
268.574659
 20
147.111453
 30
0.0
  0
SPLINE
  5
121
100
AcDbEntity
  8
Layer_1
 62
5
100
AcDbSpline
 70
8
 71
3
 72
8
 73
4
 74
0
 40
0
 40
0
 40
0
 40
0
 40
1
 40
1
 40
1
 40
1
 10
268.574659
 20
147.111453
 30
0.0
 10
268.663789
 20
145.321223
 30
0.0
 10
269.018629
 20
143.764621
 30
0.0
 10
269.589095
 20
142.507227
 30
0.0
  0
SPLINE
  5
122
100
AcDbEntity
  8
Layer_1
 62
5
100
AcDbSpline
 70
8
 71
3
 72
8
 73
4
 74
0
 40
0
 40
0
 40
0
 40
0
 40
1
 40
1
 40
1
 40
1
 10
269.589095
 20
142.507227
 30
0.0
 10
270.159573
 20
141.249846
 30
0.0
 10
270.945291
 20
140.291982
 30
0.0
 10
271.879401
 20
139.679409
 30
0.0
  0
SPLINE
  5
123
100
AcDbEntity
  8
Layer_1
 62
5
100
AcDbSpline
 70
8
 71
3
 72
8
 73
4
 74
0
 40
0
 40
0
 40
0
 40
0
 40
1
 40
1
 40
1
 40
1
 10
271.879401
 20
139.679409
 30
0.0
 10
272.813524
 20
139.066849
 30
0.0
 10
273.895604
 20
138.799782
 30
0.0
 10
275.047986
 20
138.900311
 30
0.0
  0
SPLINE
  5
124
100
AcDbEntity
  8
Layer_1
 62
5
100
AcDbSpline
 70
8
 71
3
 72
8
 73
4
 74
0
 40
0
 40
0
 40
0
 40
0
 40
1
 40
1
 40
1
 40
1
 10
275.047986
 20
138.900311
 30
0.0
 10
276.200367
 20
139.000828
 30
0.0
 10
277.422591
 20
139.469048
 30
0.0
 10
278.633004
 20
140.301427
 30
0.0
  0
SPLINE
  5
125
100
AcDbEntity
  8
Layer_1
 62
5
100
AcDbSpline
 70
8
 71
3
 72
8
 73
4
 74
0
 40
0
 40
0
 40
0
 40
0
 40
1
 40
1
 40
1
 40
1
 10
278.633004
 20
140.301427
 30
0.0
 10
279.843440
 20
141.133793
 30
0.0
 10
281.041582
 20
142.330257
 30
0.0
 10
282.148952
 20
143.861772
 30
0.0
  0
SPLINE
  5
126
100
AcDbEntity
  8
Layer_1
 62
5
100
AcDbSpline
 70
8
 71
3
 72
8
 73
4
 74
0
 40
0
 40
0
 40
0
 40
0
 40
1
 40
1
 40
1
 40
1
 10
282.148952
 20
143.861772
 30
0.0
 10
283.256310
 20
145.393286
 30
0.0
 10
284.272449
 20
147.259624
 30
0.0
 10
285.128782
 20
149.408255
 30
0.0
  0
SPLINE
  5
127
100
AcDbEntity
  8
Layer_1
 62
5
100
AcDbSpline
 70
8
 71
3
 72
8
 73
4
 74
0
 40
0
 40
0
 40
0
 40
0
 40
1
 40
1
 40
1
 40
1
 10
285.128782
 20
149.408255
 30
0.0
 10
285.985103
 20
151.556862
 30
0.0
 10
286.681269
 20
153.987452
 30
0.0
 10
287.164586
 20
156.627880
 30
0.0
  0
SPLINE
  5
128
100
AcDbEntity
  8
Layer_1
 62
5
100
AcDbSpline
 70
8
 71
3
 72
8
 73
4
 74
0
 40
0
 40
0
 40
0
 40
0
 40
1
 40
1
 40
1
 40
1
 10
287.164586
 20
156.627880
 30
0.0
 10
287.647891
 20
159.268284
 30
0.0
 10
287.918094
 20
162.118109
 30
0.0
 10
287.943058
 20
165.091124
 30
0.0
  0
SPLINE
  5
129
100
AcDbEntity
  8
Layer_1
 62
5
100
AcDbSpline
 70
8
 71
3
 72
8
 73
4
 74
0
 40
0
 40
0
 40
0
 40
0
 40
1
 40
1
 40
1
 40
1
 10
287.943058
 20
165.091124
 30
0.0
 10
287.968058
 20
168.064103
 30
0.0
 10
287.747589
 20
171.159797
 30
0.0
 10
287.273136
 20
174.284361
 30
0.0
  0
SPLINE
  5
12a
100
AcDbEntity
  8
Layer_1
 62
5
100
AcDbSpline
 70
8
 71
3
 72
8
 73
4
 74
0
 40
0
 40
0
 40
0
 40
0
 40
1
 40
1
 40
1
 40
1
 10
287.273136
 20
174.284361
 30
0.0
 10
286.798659
 20
177.408949
 30
0.0
 10
286.070151
 20
180.561908
 30
0.0
 10
285.103372
 20
183.649025
 30
0.0
  0
SPLINE
  5
12b
100
AcDbEntity
  8
Layer_1
 62
5
100
AcDbSpline
 70
8
 71
3
 72
8
 73
4
 74
0
 40
0
 40
0
 40
0
 40
0
 40
1
 40
1
 40
1
 40
1
 10
285.103372
 20
183.649025
 30
0.0
 10
284.136580
 20
186.736130
 30
0.0
 10
282.931651
 20
189.756918
 30
0.0
 10
281.527702
 20
192.623848
 30
0.0
  0
SPLINE
  5
12c
100
AcDbEntity
  8
Layer_1
 62
5
100
AcDbSpline
 70
8
 71
3
 72
8
 73
4
 74
0
 40
0
 40
0
 40
0
 40
0
 40
1
 40
1
 40
1
 40
1
 10
281.527702
 20
192.623848
 30
0.0
 10
280.123764
 20
195.490791
 30
0.0
 10
278.521072
 20
198.203472
 30
0.0
 10
276.779070
 20
200.687640
 30
0.0
  0
SPLINE
  5
12d
100
AcDbEntity
  8
Layer_1
 62
5
100
AcDbSpline
 70
8
 71
3
 72
8
 73
4
 74
0
 40
0
 40
0
 40
0
 40
0
 40
1
 40
1
 40
1
 40
1
 10
276.779070
 20
200.687640
 30
0.0
 10
275.037068
 20
203.171797
 30
0.0
 10
273.156142
 20
205.427142
 30
0.0
 10
271.211340
 20
207.398197
 30
0.0
  0
SPLINE
  5
12e
100
AcDbEntity
  8
Layer_1
 62
5
100
AcDbSpline
 70
8
 71
3
 72
8
 73
4
 74
0
 40
0
 40
0
 40
0
 40
0
 40
1
 40
1
 40
1
 40
1
 10
271.211340
 20
207.398197
 30
0.0
 10
269.266525
 20
209.369239
 30
0.0
 10
267.258269
 20
211.055788
 30
0.0
 10
265.271136
 20
212.425142
 30
0.0
  0
SPLINE
  5
12f
100
AcDbEntity
  8
Layer_1
 62
5
100
AcDbSpline
 70
8
 71
3
 72
8
 73
4
 74
0
 40
0
 40
0
 40
0
 40
0
 40
1
 40
1
 40
1
 40
1
 10
265.271136
 20
212.425142
 30
0.0
 10
263.284027
 20
213.794473
 30
0.0
 10
261.318513
 20
214.846502
 30
0.0
 10
259.461801
 20
215.573390
 30
0.0
  0
SPLINE
  5
130
100
AcDbEntity
  8
Layer_1
 62
5
100
AcDbSpline
 70
8
 71
3
 72
8
 73
4
 74
0
 40
0
 40
0
 40
0
 40
0
 40
1
 40
1
 40
1
 40
1
 10
259.461801
 20
215.573390
 30
0.0
 10
257.605102
 20
216.300279
 30
0.0
 10
255.857665
 20
216.702062
 30
0.0
 10
254.302135
 20
216.795847
 30
0.0
  0
SPLINE
  5
131
100
AcDbEntity
  8
Layer_1
 62
5
100
AcDbSpline
 70
8
 71
3
 72
8
 73
4
 74
0
 40
0
 40
0
 40
0
 40
0
 40
1
 40
1
 40
1
 40
1
 10
254.302135
 20
216.795847
 30
0.0
 10
252.746616
 20
216.889702
 30
0.0
 10
251.383427
 20
216.675690
 30
0.0
 10
250.283751
 20
216.194075
 30
0.0
  0
SPLINE
  5
132
100
AcDbEntity
  8
Layer_1
 62
5
100
AcDbSpline
 70
8
 71
3
 72
8
 73
4
 74
0
 40
0
 40
0
 40
0
 40
0
 40
1
 40
1
 40
1
 40
1
 10
250.283751
 20
216.194075
 30
0.0
 10
249.184062
 20
215.712497
 30
0.0
 10
248.348272
 20
214.963649
 30
0.0
 10
247.830088
 20
214.007058
 30
0.0
  0
SPLINE
  5
133
100
AcDbEntity
  8
Layer_1
 62
5
100
AcDbSpline
 70
8
 71
3
 72
8
 73
4
 74
0
 40
0
 40
0
 40
0
 40
0
 40
1
 40
1
 40
1
 40
1
 10
247.830088
 20
214.007058
 30
0.0
 10
247.311904
 20
213.050490
 30
0.0
 10
247.111567
 20
211.886584
 30
0.0
 10
247.260721
 20
210.589043
 30
0.0
  0
SPLINE
  5
134
100
AcDbEntity
  8
Layer_1
 62
5
100
AcDbSpline
 70
8
 71
3
 72
8
 73
4
 74
0
 40
0
 40
0
 40
0
 40
0
 40
1
 40
1
 40
1
 40
1
 10
247.260721
 20
210.589043
 30
0.0
 10
247.409874
 20
209.291478
 30
0.0
 10
247.908626
 20
207.860695
 30
0.0
 10
248.763570
 20
206.378083
 30
0.0
  0
SPLINE
  5
135
100
AcDbEntity
  8
Layer_1
 62
5
100
AcDbSpline
 70
8
 71
3
 72
8
 73
4
 74
0
 40
0
 40
0
 40
0
 40
0
 40
1
 40
1
 40
1
 40
1
 10
248.763570
 20
206.378083
 30
0.0
 10
249.618539
 20
204.895483
 30
0.0
 10
250.829676
 20
203.361507
 30
0.0
 10
252.377646
 20
201.858316
 30
0.0
  0
SPLINE
  5
136
100
AcDbEntity
  8
Layer_1
 62
5
100
AcDbSpline
 70
8
 71
3
 72
8
 73
4
 74
0
 40
0
 40
0
 40
0
 40
0
 40
1
 40
1
 40
1
 40
1
 10
252.377646
 20
201.858316
 30
0.0
 10
253.925604
 20
200.355125
 30
0.0
 10
255.810238
 20
198.883183
 30
0.0
 10
257.987345
 20
197.518409
 30
0.0
  0
SPLINE
  5
137
100
AcDbEntity
  8
Layer_1
 62
5
100
AcDbSpline
 70
8
 71
3
 72
8
 73
4
 74
0
 40
0
 40
0
 40
0
 40
0
 40
1
 40
1
 40
1
 40
1
 10
257.987345
 20
197.518409
 30
0.0
 10
260.164464
 20
196.153658
 30
0.0
 10
262.633791
 20
194.896490
 30
0.0
 10
265.329396
 20
193.810285
 30
0.0
  0
SPLINE
  5
138
100
AcDbEntity
  8
Layer_1
 62
5
100
AcDbSpline
 70
8
 71
3
 72
8
 73
4
 74
0
 40
0
 40
0
 40
0
 40
0
 40
1
 40
1
 40
1
 40
1
 10
265.329396
 20
193.810285
 30
0.0
 10
268.024978
 20
192.724068
 30
0.0
 10
270.946475
 20
191.809135
 30
0.0
 10
274.011026
 20
191.110915
 30
0.0
  0
SPLINE
  5
139
100
AcDbEntity
  8
Layer_1
 62
5
100
AcDbSpline
 70
8
 71
3
 72
8
 73
4
 74
0
 40
0
 40
0
 40
0
 40
0
 40
1
 40
1
 40
1
 40
1
 10
274.011026
 20
191.110915
 30
0.0
 10
277.075589
 20
190.412683
 30
0.0
 10
280.282772
 20
189.931366
 30
0.0
 10
283.539049
 20
189.690672
 30
0.0
  0
SPLINE
  5
13a
100
AcDbEntity
  8
Layer_1
 62
5
100
AcDbSpline
 70
8
 71
3
 72
8
 73
4
 74
0
 40
0
 40
0
 40
0
 40
0
 40
1
 40
1
 40
1
 40
1
 10
283.539049
 20
189.690672
 30
0.0
 10
286.795326
 20
189.449989
 30
0.0
 10
290.100202
 20
189.449989
 30
0.0
 10
293.356466
 20
189.690672
 30
0.0
  0
SPLINE
  5
13b
100
AcDbEntity
  8
Layer_1
 62
5
100
AcDbSpline
 70
8
 71
3
 72
8
 73
4
 74
0
 40
0
 40
0
 40
0
 40
0
 40
1
 40
1
 40
1
 40
1
 10
293.356466
 20
189.690672
 30
0.0
 10
296.612743
 20
189.931366
 30
0.0
 10
299.819926
 20
190.412683
 30
0.0
 10
302.884490
 20
191.110915
 30
0.0
  0
SPLINE
  5
13c
100
AcDbEntity
  8
Layer_1
 62
5
100
AcDbSpline
 70
8
 71
3
 72
8
 73
4
 74
0
 40
0
 40
0
 40
0
 40
0
 40
1
 40
1
 40
1
 40
1
 10
302.884490
 20
191.110915
 30
0.0
 10
305.949041
 20
191.809135
 30
0.0
 10
308.870538
 20
192.724068
 30
0.0
 10
311.566143
 20
193.810285
 30
0.0
  0
SPLINE
  5
13d
100
AcDbEntity
  8
Layer_1
 62
5
100
AcDbSpline
 70
8
 71
3
 72
8
 73
4
 74
0
 40
0
 40
0
 40
0
 40
0
 40
1
 40
1
 40
1
 40
1
 10
311.566143
 20
193.810285
 30
0.0
 10
314.261724
 20
194.896490
 30
0.0
 10
316.731051
 20
196.153658
 30
0.0
 10
318.908170
 20
197.518409
 30
0.0
  0
SPLINE
  5
13e
100
AcDbEntity
  8
Layer_1
 62
5
100
AcDbSpline
 70
8
 71
3
 72
8
 73
4
 74
0
 40
0
 40
0
 40
0
 40
0
 40
1
 40
1
 40
1
 40
1
 10
318.908170
 20
197.518409
 30
0.0
 10
321.085290
 20
198.883183
 30
0.0
 10
322.969936
 20
200.355125
 30
0.0
 10
324.517894
 20
201.858316
 30
0.0
  0
SPLINE
  5
13f
100
AcDbEntity
  8
Layer_1
 62
5
100
AcDbSpline
 70
8
 71
3
 72
8
 73
4
 74
0
 40
0
 40
0
 40
0
 40
0
 40
1
 40
1
 40
1
 40
1
 10
324.517894
 20
201.858316
 30
0.0
 10
326.065864
 20
203.361507
 30
0.0
 10
327.277001
 20
204.895483
 30
0.0
 10
328.131957
 20
206.378083
 30
0.0
  0
SPLINE
  5
140
100
AcDbEntity
  8
Layer_1
 62
5
100
AcDbSpline
 70
8
 71
3
 72
8
 73
4
 74
0
 40
0
 40
0
 40
0
 40
0
 40
1
 40
1
 40
1
 40
1
 10
328.131957
 20
206.378083
 30
0.0
 10
328.986914
 20
207.860695
 30
0.0
 10
329.485666
 20
209.291478
 30
0.0
 10
329.634819
 20
210.589043
 30
0.0
  0
SPLINE
  5
141
100
AcDbEntity
  8
Layer_1
 62
5
100
AcDbSpline
 70
8
 71
3
 72
8
 73
4
 74
0
 40
0
 40
0
 40
0
 40
0
 40
1
 40
1
 40
1
 40
1
 10
329.634819
 20
210.589043
 30
0.0
 10
329.783960
 20
211.886584
 30
0.0
 10
329.583612
 20
213.050490
 30
0.0
 10
329.065440
 20
214.007058
 30
0.0
  0
SPLINE
  5
142
100
AcDbEntity
  8
Layer_1
 62
5
100
AcDbSpline
 70
8
 71
3
 72
8
 73
4
 74
0
 40
0
 40
0
 40
0
 40
0
 40
1
 40
1
 40
1
 40
1
 10
329.065440
 20
214.007058
 30
0.0
 10
328.547256
 20
214.963649
 30
0.0
 10
327.711466
 20
215.712497
 30
0.0
 10
326.611777
 20
216.194075
 30
0.0
  0
SPLINE
  5
143
100
AcDbEntity
  8
Layer_1
 62
5
100
AcDbSpline
 70
8
 71
3
 72
8
 73
4
 74
0
 40
0
 40
0
 40
0
 40
0
 40
1
 40
1
 40
1
 40
1
 10
326.611777
 20
216.194075
 30
0.0
 10
325.512112
 20
216.675666
 30
0.0
 10
324.148923
 20
216.889643
 30
0.0
 10
322.593393
 20
216.795847
 30
0.0
  0
SPLINE
  5
144
100
AcDbEntity
  8
Layer_1
 62
5
100
AcDbSpline
 70
8
 71
3
 72
8
 73
4
 74
0
 40
0
 40
0
 40
0
 40
0
 40
1
 40
1
 40
1
 40
1
 10
322.593393
 20
216.795847
 30
0.0
 10
321.037851
 20
216.701991
 30
0.0
 10
319.290426
 20
216.300279
 30
0.0
 10
317.433714
 20
215.573390
 30
0.0
  0
SPLINE
  5
145
100
AcDbEntity
  8
Layer_1
 62
5
100
AcDbSpline
 70
8
 71
3
 72
8
 73
4
 74
0
 40
0
 40
0
 40
0
 40
0
 40
1
 40
1
 40
1
 40
1
 10
317.433714
 20
215.573390
 30
0.0
 10
315.577015
 20
214.846502
 30
0.0
 10
313.611488
 20
213.794473
 30
0.0
 10
311.624379
 20
212.425142
 30
0.0
  0
SPLINE
  5
146
100
AcDbEntity
  8
Layer_1
 62
5
100
AcDbSpline
 70
8
 71
3
 72
8
 73
4
 74
0
 40
0
 40
0
 40
0
 40
0
 40
1
 40
1
 40
1
 40
1
 10
311.624379
 20
212.425142
 30
0.0
 10
309.637246
 20
211.055788
 30
0.0
 10
307.629003
 20
209.369239
 30
0.0
 10
305.684200
 20
207.398197
 30
0.0
  0
SPLINE
  5
147
100
AcDbEntity
  8
Layer_1
 62
5
100
AcDbSpline
 70
8
 71
3
 72
8
 73
4
 74
0
 40
0
 40
0
 40
0
 40
0
 40
1
 40
1
 40
1
 40
1
 10
305.684200
 20
207.398197
 30
0.0
 10
303.739386
 20
205.427142
 30
0.0
 10
301.858448
 20
203.171797
 30
0.0
 10
300.116445
 20
200.687640
 30
0.0
  0
SPLINE
  5
148
100
AcDbEntity
  8
Layer_1
 62
5
100
AcDbSpline
 70
8
 71
3
 72
8
 73
4
 74
0
 40
0
 40
0
 40
0
 40
0
 40
1
 40
1
 40
1
 40
1
 10
300.116445
 20
200.687640
 30
0.0
 10
298.374455
 20
198.203472
 30
0.0
 10
296.771763
 20
195.490791
 30
0.0
 10
295.367814
 20
192.623848
 30
0.0
  0
SPLINE
  5
149
100
AcDbEntity
  8
Layer_1
 62
5
100
AcDbSpline
 70
8
 71
3
 72
8
 73
4
 74
0
 40
0
 40
0
 40
0
 40
0
 40
1
 40
1
 40
1
 40
1
 10
295.367814
 20
192.623848
 30
0.0
 10
293.963865
 20
189.756918
 30
0.0
 10
292.758935
 20
186.736130
 30
0.0
 10
291.792144
 20
183.649025
 30
0.0
  0
SPLINE
  5
14a
100
AcDbEntity
  8
Layer_1
 62
5
100
AcDbSpline
 70
8
 71
3
 72
8
 73
4
 74
0
 40
0
 40
0
 40
0
 40
0
 40
1
 40
1
 40
1
 40
1
 10
291.792144
 20
183.649025
 30
0.0
 10
290.825364
 20
180.561908
 30
0.0
 10
290.096856
 20
177.408949
 30
0.0
 10
289.622392
 20
174.284361
 30
0.0
  0
SPLINE
  5
14b
100
AcDbEntity
  8
Layer_1
 62
5
100
AcDbSpline
 70
8
 71
3
 72
8
 73
4
 74
0
 40
0
 40
0
 40
0
 40
0
 40
1
 40
1
 40
1
 40
1
 10
289.622392
 20
174.284361
 30
0.0
 10
289.147927
 20
171.159797
 30
0.0
 10
288.927518
 20
168.064103
 30
0.0
 10
288.952482
 20
165.091124
 30
0.0
  0
SPLINE
  5
14c
100
AcDbEntity
  8
Layer_1
 62
5
100
AcDbSpline
 70
8
 71
3
 72
8
 73
4
 74
0
 40
0
 40
0
 40
0
 40
0
 40
1
 40
1
 40
1
 40
1
 10
288.952482
 20
165.091124
 30
0.0
 10
288.977482
 20
162.118109
 30
0.0
 10
289.247624
 20
159.268284
 30
0.0
 10
289.730941
 20
156.627880
 30
0.0
  0
SPLINE
  5
14d
100
AcDbEntity
  8
Layer_1
 62
5
100
AcDbSpline
 70
8
 71
3
 72
8
 73
4
 74
0
 40
0
 40
0
 40
0
 40
0
 40
1
 40
1
 40
1
 40
1
 10
289.730941
 20
156.627880
 30
0.0
 10
290.214259
 20
153.987452
 30
0.0
 10
290.910412
 20
151.556862
 30
0.0
 10
291.766733
 20
149.408255
 30
0.0
  0
SPLINE
  5
14e
100
AcDbEntity
  8
Layer_1
 62
5
100
AcDbSpline
 70
8
 71
3
 72
8
 73
4
 74
0
 40
0
 40
0
 40
0
 40
0
 40
1
 40
1
 40
1
 40
1
 10
291.766733
 20
149.408255
 30
0.0
 10
292.623067
 20
147.259624
 30
0.0
 10
293.639205
 20
145.393286
 30
0.0
 10
294.746575
 20
143.861772
 30
0.0
  0
SPLINE
  5
14f
100
AcDbEntity
  8
Layer_1
 62
5
100
AcDbSpline
 70
8
 71
3
 72
8
 73
4
 74
0
 40
0
 40
0
 40
0
 40
0
 40
1
 40
1
 40
1
 40
1
 10
294.746575
 20
143.861772
 30
0.0
 10
295.853933
 20
142.330257
 30
0.0
 10
297.052087
 20
141.133793
 30
0.0
 10
298.262512
 20
140.301427
 30
0.0
  0
SPLINE
  5
150
100
AcDbEntity
  8
Layer_1
 62
5
100
AcDbSpline
 70
8
 71
3
 72
8
 73
4
 74
0
 40
0
 40
0
 40
0
 40
0
 40
1
 40
1
 40
1
 40
1
 10
298.262512
 20
140.301427
 30
0.0
 10
299.472936
 20
139.469048
 30
0.0
 10
300.695160
 20
139.000840
 30
0.0
 10
301.847542
 20
138.900311
 30
0.0
  0
SPLINE
  5
151
100
AcDbEntity
  8
Layer_1
 62
5
100
AcDbSpline
 70
8
 71
3
 72
8
 73
4
 74
0
 40
0
 40
0
 40
0
 40
0
 40
1
 40
1
 40
1
 40
1
 10
301.847542
 20
138.900311
 30
0.0
 10
302.999911
 20
138.799794
 30
0.0
 10
304.082004
 20
139.066849
 30
0.0
 10
305.016126
 20
139.679409
 30
0.0
  0
SPLINE
  5
152
100
AcDbEntity
  8
Layer_1
 62
5
100
AcDbSpline
 70
8
 71
3
 72
8
 73
4
 74
0
 40
0
 40
0
 40
0
 40
0
 40
1
 40
1
 40
1
 40
1
 10
305.016126
 20
139.679409
 30
0.0
 10
305.950225
 20
140.291982
 30
0.0
 10
306.735967
 20
141.249846
 30
0.0
 10
307.306433
 20
142.507227
 30
0.0
  0
SPLINE
  5
153
100
AcDbEntity
  8
Layer_1
 62
5
100
AcDbSpline
 70
8
 71
3
 72
8
 73
4
 74
0
 40
0
 40
0
 40
0
 40
0
 40
1
 40
1
 40
1
 40
1
 10
307.306433
 20
142.507227
 30
0.0
 10
307.876899
 20
143.764621
 30
0.0
 10
308.231739
 20
145.321223
 30
0.0
 10
308.320869
 20
147.111453
 30
0.0
  0
SPLINE
  5
154
100
AcDbEntity
  8
Layer_1
 62
5
100
AcDbSpline
 70
8
 71
3
 72
8
 73
4
 74
0
 40
0
 40
0
 40
0
 40
0
 40
1
 40
1
 40
1
 40
1
 10
308.320869
 20
147.111453
 30
0.0
 10
308.409998
 20
148.901671
 30
0.0
 10
308.233068
 20
150.925102
 30
0.0
 10
307.761417
 20
153.101675
 30
0.0
  0
SPLINE
  5
155
100
AcDbEntity
  8
Layer_1
 62
5
100
AcDbSpline
 70
8
 71
3
 72
8
 73
4
 74
0
 40
0
 40
0
 40
0
 40
0
 40
1
 40
1
 40
1
 40
1
 10
307.761417
 20
153.101675
 30
0.0
 10
307.289730
 20
155.278237
 30
0.0
 10
306.523118
 20
157.607489
 30
0.0
 10
305.457016
 20
160.001323
 30
0.0
  0
SPLINE
  5
156
100
AcDbEntity
  8
Layer_1
 62
5
100
AcDbSpline
 70
8
 71
3
 72
8
 73
4
 74
0
 40
0
 40
0
 40
0
 40
0
 40
1
 40
1
 40
1
 40
1
 10
305.457016
 20
160.001323
 30
0.0
 10
304.390914
 20
162.395144
 30
0.0
 10
303.025298
 20
164.853083
 30
0.0
 10
301.380710
 20
167.286076
 30
0.0
  0
SPLINE
  5
157
100
AcDbEntity
  8
Layer_1
 62
5
100
AcDbSpline
 70
8
 71
3
 72
8
 73
4
 74
0
 40
0
 40
0
 40
0
 40
0
 40
1
 40
1
 40
1
 40
1
 10
301.380710
 20
167.286076
 30
0.0
 10
299.736122
 20
169.719058
 30
0.0
 10
297.812697
 20
172.126642
 30
0.0
 10
295.654937
 20
174.425859
 30
0.0
  0
SPLINE
  5
158
100
AcDbEntity
  8
Layer_1
 62
5
100
AcDbSpline
 70
8
 71
3
 72
8
 73
4
 74
0
 40
0
 40
0
 40
0
 40
0
 40
1
 40
1
 40
1
 40
1
 10
295.654937
 20
174.425859
 30
0.0
 10
293.497178
 20
176.725075
 30
0.0
 10
291.105350
 20
178.915519
 30
0.0
 10
288.544792
 20
180.926863
 30
0.0
  0
SPLINE
  5
159
100
AcDbEntity
  8
Layer_1
 62
5
100
AcDbSpline
 70
8
 71
3
 72
8
 73
4
 74
0
 40
0
 40
0
 40
0
 40
0
 40
1
 40
1
 40
1
 40
1
 10
288.544792
 20
180.926863
 30
0.0
 10
285.984246
 20
182.938207
 30
0.0
 10
283.255356
 20
184.770143
 30
0.0
 10
280.439510
 20
186.370354
 30
0.0
  0
SPLINE
  5
15a
100
AcDbEntity
  8
Layer_1
 62
5
100
AcDbSpline
 70
8
 71
3
 72
8
 73
4
 74
0
 40
0
 40
0
 40
0
 40
0
 40
1
 40
1
 40
1
 40
1
 10
280.439510
 20
186.370354
 30
0.0
 10
277.623665
 20
187.970542
 30
0.0
 10
274.721322
 20
189.338837
 30
0.0
 10
271.823701
 20
190.444848
 30
0.0
  0
SPLINE
  5
15b
100
AcDbEntity
  8
Layer_1
 62
5
100
AcDbSpline
 70
8
 71
3
 72
8
 73
4
 74
0
 40
0
 40
0
 40
0
 40
0
 40
1
 40
1
 40
1
 40
1
 10
271.823701
 20
190.444848
 30
0.0
 10
268.926093
 20
191.550859
 30
0.0
 10
266.033726
 20
192.394526
 30
0.0
 10
263.240682
 20
192.969556
 30
0.0
  0
SPLINE
  5
15c
100
AcDbEntity
  8
Layer_1
 62
5
100
AcDbSpline
 70
8
 71
3
 72
8
 73
4
 74
0
 40
0
 40
0
 40
0
 40
0
 40
1
 40
1
 40
1
 40
1
 10
263.240682
 20
192.969556
 30
0.0
 10
260.447650
 20
193.544575
 30
0.0
 10
257.754461
 20
193.851004
 30
0.0
 10
255.250786
 20
193.906687
 30
0.0
  0
SPLINE
  5
15d
100
AcDbEntity
  8
Layer_1
 62
5
100
AcDbSpline
 70
8
 71
3
 72
8
 73
4
 74
0
 40
0
 40
0
 40
0
 40
0
 40
1
 40
1
 40
1
 40
1
 10
255.250786
 20
193.906687
 30
0.0
 10
252.747148
 20
193.962477
 30
0.0
 10
250.433435
 20
193.767473
 30
0.0
 10
248.387994
 20
193.362073
 30
0.0
  0
SPLINE
  5
15e
100
AcDbEntity
  8
Layer_1
 62
5
100
AcDbSpline
 70
8
 71
3
 72
8
 73
4
 74
0
 40
0
 40
0
 40
0
 40
0
 40
1
 40
1
 40
1
 40
1
 10
248.387994
 20
193.362073
 30
0.0
 10
246.342552
 20
192.956685
 30
0.0
 10
244.565744
 20
192.341080
 30
0.0
 10
243.118292
 20
191.573853
 30
0.0
  0
SPLINE
  5
15f
100
AcDbEntity
  8
Layer_1
 62
5
100
AcDbSpline
 70
8
 71
3
 72
8
 73
4
 74
0
 40
0
 40
0
 40
0
 40
0
 40
1
 40
1
 40
1
 40
1
 10
243.118292
 20
191.573853
 30
0.0
 10
241.670853
 20
190.806639
 30
0.0
 10
240.553060
 20
189.888173
 30
0.0
 10
239.803380
 20
188.890292
 30
0.0
  0
SPLINE
  5
160
100
AcDbEntity
  8
Layer_1
 62
5
100
AcDbSpline
 70
8
 71
3
 72
8
 73
4
 74
0
 40
0
 40
0
 40
0
 40
0
 40
1
 40
1
 40
1
 40
1
 10
239.803380
 20
188.890292
 30
0.0
 10
239.053701
 20
187.892412
 30
0.0
 10
238.672279
 20
186.815569
 30
0.0
 10
238.672279
 20
185.738476
 30
0.0
  0
SPLINE
  5
161
100
AcDbEntity
  8
Layer_1
 62
5
100
AcDbSpline
 70
8
 71
3
 72
8
 73
4
 74
0
 40
0
 40
0
 40
0
 40
0
 40
1
 40
1
 40
1
 40
1
 10
238.672279
 20
185.738476
 30
0.0
 10
238.672279
 20
184.661406
 30
0.0
 10
239.053701
 20
183.584563
 30
0.0
 10
239.803380
 20
182.586683
 30
0.0
  0
SPLINE
  5
162
100
AcDbEntity
  8
Layer_1
 62
5
100
AcDbSpline
 70
8
 71
3
 72
8
 73
4
 74
0
 40
0
 40
0
 40
0
 40
0
 40
1
 40
1
 40
1
 40
1
 10
239.803380
 20
182.586683
 30
0.0
 10
240.553060
 20
181.588814
 30
0.0
 10
241.670853
 20
180.670348
 30
0.0
 10
243.118292
 20
179.903122
 30
0.0
  0
SPLINE
  5
163
100
AcDbEntity
  8
Layer_1
 62
5
100
AcDbSpline
 70
8
 71
3
 72
8
 73
4
 74
0
 40
0
 40
0
 40
0
 40
0
 40
1
 40
1
 40
1
 40
1
 10
243.118292
 20
179.903122
 30
0.0
 10
244.565744
 20
179.135895
 30
0.0
 10
246.342552
 20
178.520301
 30
0.0
 10
248.387994
 20
178.114914
 30
0.0
  0
SPLINE
  5
164
100
AcDbEntity
  8
Layer_1
 62
5
100
AcDbSpline
 70
8
 71
3
 72
8
 73
4
 74
0
 40
0
 40
0
 40
0
 40
0
 40
1
 40
1
 40
1
 40
1
 10
248.387994
 20
178.114914
 30
0.0
 10
250.433435
 20
177.709514
 30
0.0
 10
252.747148
 20
177.514617
 30
0.0
 10
255.250786
 20
177.570288
 30
0.0
  0
SPLINE
  5
165
100
AcDbEntity
  8
Layer_1
 62
5
100
AcDbSpline
 70
8
 71
3
 72
8
 73
4
 74
0
 40
0
 40
0
 40
0
 40
0
 40
1
 40
1
 40
1
 40
1
 10
255.250786
 20
177.570288
 30
0.0
 10
257.754461
 20
177.626078
 30
0.0
 10
260.447650
 20
177.932400
 30
0.0
 10
263.240682
 20
178.507419
 30
0.0
  0
SPLINE
  5
166
100
AcDbEntity
  8
Layer_1
 62
5
100
AcDbSpline
 70
8
 71
3
 72
8
 73
4
 74
0
 40
0
 40
0
 40
0
 40
0
 40
1
 40
1
 40
1
 40
1
 10
263.240682
 20
178.507419
 30
0.0
 10
266.033726
 20
179.082449
 30
0.0
 10
268.926093
 20
179.926116
 30
0.0
 10
271.823701
 20
181.032115
 30
0.0
  0
SPLINE
  5
167
100
AcDbEntity
  8
Layer_1
 62
5
100
AcDbSpline
 70
8
 71
3
 72
8
 73
4
 74
0
 40
0
 40
0
 40
0
 40
0
 40
1
 40
1
 40
1
 40
1
 10
271.823701
 20
181.032115
 30
0.0
 10
274.721322
 20
182.138138
 30
0.0
 10
277.623665
 20
183.506421
 30
0.0
 10
280.439510
 20
185.106621
 30
0.0
  0
SPLINE
  5
168
100
AcDbEntity
  8
Layer_1
 62
5
100
AcDbSpline
 70
8
 71
3
 72
8
 73
4
 74
0
 40
0
 40
0
 40
0
 40
0
 40
1
 40
1
 40
1
 40
1
 10
280.439510
 20
185.106621
 30
0.0
 10
283.255356
 20
186.706843
 30
0.0
 10
285.984246
 20
188.538756
 30
0.0
 10
288.544792
 20
190.550112
 30
0.0
  0
SPLINE
  5
169
100
AcDbEntity
  8
Layer_1
 62
5
100
AcDbSpline
 70
8
 71
3
 72
8
 73
4
 74
0
 40
0
 40
0
 40
0
 40
0
 40
1
 40
1
 40
1
 40
1
 10
288.544792
 20
190.550112
 30
0.0
 10
291.105350
 20
192.561456
 30
0.0
 10
293.497178
 20
194.751900
 30
0.0
 10
295.654937
 20
197.051116
 30
0.0
  0
SPLINE
  5
16a
100
AcDbEntity
  8
Layer_1
 62
5
100
AcDbSpline
 70
8
 71
3
 72
8
 73
4
 74
0
 40
0
 40
0
 40
0
 40
0
 40
1
 40
1
 40
1
 40
1
 10
295.654937
 20
197.051116
 30
0.0
 10
297.812697
 20
199.350333
 30
0.0
 10
299.736122
 20
201.757917
 30
0.0
 10
301.380710
 20
204.190911
 30
0.0
  0
SPLINE
  5
16b
100
AcDbEntity
  8
Layer_1
 62
5
100
AcDbSpline
 70
8
 71
3
 72
8
 73
4
 74
0
 40
0
 40
0
 40
0
 40
0
 40
1
 40
1
 40
1
 40
1
 10
301.380710
 20
204.190911
 30
0.0
 10
303.025298
 20
206.623892
 30
0.0
 10
304.390914
 20
209.081831
 30
0.0
 10
305.457016
 20
211.475652
 30
0.0
  0
SPLINE
  5
16c
100
AcDbEntity
  8
Layer_1
 62
5
100
AcDbSpline
 70
8
 71
3
 72
8
 73
4
 74
0
 40
0
 40
0
 40
0
 40
0
 40
1
 40
1
 40
1
 40
1
 10
305.457016
 20
211.475652
 30
0.0
 10
306.523118
 20
213.869486
 30
0.0
 10
307.289730
 20
216.198726
 30
0.0
 10
307.761417
 20
218.375300
 30
0.0
  0
SPLINE
  5
16d
100
AcDbEntity
  8
Layer_1
 62
5
100
AcDbSpline
 70
8
 71
3
 72
8
 73
4
 74
0
 40
0
 40
0
 40
0
 40
0
 40
1
 40
1
 40
1
 40
1
 10
307.761417
 20
218.375300
 30
0.0
 10
308.233092
 20
220.551861
 30
0.0
 10
308.409974
 20
222.575304
 30
0.0
 10
308.320869
 20
224.365534
 30
0.0
  0
SPLINE
  5
16e
100
AcDbEntity
  8
Layer_1
 62
5
100
AcDbSpline
 70
8
 71
3
 72
8
 73
4
 74
0
 40
0
 40
0
 40
0
 40
0
 40
1
 40
1
 40
1
 40
1
 10
308.320869
 20
224.365534
 30
0.0
 10
308.231739
 20
226.155740
 30
0.0
 10
307.876899
 20
227.712354
 30
0.0
 10
307.306433
 20
228.969748
 30
0.0
  0
SPLINE
  5
16f
100
AcDbEntity
  8
Layer_1
 62
5
100
AcDbSpline
 70
8
 71
3
 72
8
 73
4
 74
0
 40
0
 40
0
 40
0
 40
0
 40
1
 40
1
 40
1
 40
1
 10
307.306433
 20
228.969748
 30
0.0
 10
306.735967
 20
230.227129
 30
0.0
 10
305.950225
 20
231.184993
 30
0.0
 10
305.016126
 20
231.797554
 30
0.0
  0
SPLINE
  5
170
100
AcDbEntity
  8
Layer_1
 62
5
100
AcDbSpline
 70
8
 71
3
 72
8
 73
4
 74
0
 40
0
 40
0
 40
0
 40
0
 40
1
 40
1
 40
1
 40
1
 10
305.016126
 20
231.797554
 30
0.0
 10
304.082004
 20
232.410126
 30
0.0
 10
302.999911
 20
232.677205
 30
0.0
 10
301.847542
 20
232.576664
 30
0.0
  0
SPLINE
  5
171
100
AcDbEntity
  8
Layer_1
 62
5
100
AcDbSpline
 70
8
 71
3
 72
8
 73
4
 74
0
 40
0
 40
0
 40
0
 40
0
 40
1
 40
1
 40
1
 40
1
 10
301.847542
 20
232.576664
 30
0.0
 10
300.695160
 20
232.476147
 30
0.0
 10
299.472936
 20
232.007927
 30
0.0
 10
298.262512
 20
231.175548
 30
0.0
  0
SPLINE
  5
172
100
AcDbEntity
  8
Layer_1
 62
5
100
AcDbSpline
 70
8
 71
3
 72
8
 73
4
 74
0
 40
0
 40
0
 40
0
 40
0
 40
1
 40
1
 40
1
 40
1
 10
298.262512
 20
231.175548
 30
0.0
 10
297.052087
 20
230.343194
 30
0.0
 10
295.853933
 20
229.146718
 30
0.0
 10
294.746575
 20
227.615203
 30
0.0
  0
SPLINE
  5
173
100
AcDbEntity
  8
Layer_1
 62
5
100
AcDbSpline
 70
8
 71
3
 72
8
 73
4
 74
0
 40
0
 40
0
 40
0
 40
0
 40
1
 40
1
 40
1
 40
1
 10
294.746575
 20
227.615203
 30
0.0
 10
293.639205
 20
226.083689
 30
0.0
 10
292.623067
 20
224.217339
 30
0.0
 10
291.766733
 20
222.068720
 30
0.0
  0
SPLINE
  5
174
100
AcDbEntity
  8
Layer_1
 62
5
100
AcDbSpline
 70
8
 71
3
 72
8
 73
4
 74
0
 40
0
 40
0
 40
0
 40
0
 40
1
 40
1
 40
1
 40
1
 10
291.766733
 20
222.068720
 30
0.0
 10
290.910412
 20
219.920090
 30
0.0
 10
290.214259
 20
217.489511
 30
0.0
 10
289.730941
 20
214.849107
 30
0.0
  0
SPLINE
  5
175
100
AcDbEntity
  8
Layer_1
 62
5
100
AcDbSpline
 70
8
 71
3
 72
8
 73
4
 74
0
 40
0
 40
0
 40
0
 40
0
 40
1
 40
1
 40
1
 40
1
 10
289.730941
 20
214.849107
 30
0.0
 10
289.247624
 20
212.208679
 30
0.0
 10
288.977421
 20
209.358866
 30
0.0
 10
288.952482
 20
206.385863
 30
0.0
  0
SPLINE
  5
176
100
AcDbEntity
  8
Layer_1
 62
5
100
AcDbSpline
 70
8
 71
3
 72
8
 73
4
 74
0
 40
0
 40
0
 40
0
 40
0
 40
1
 40
1
 40
1
 40
1
 10
288.952482
 20
206.385863
 30
0.0
 10
288.927482
 20
203.412872
 30
0.0
 10
289.147927
 20
200.317178
 30
0.0
 10
289.622392
 20
197.192602
 30
0.0
  0
SPLINE
  5
177
100
AcDbEntity
  8
Layer_1
 62
5
100
AcDbSpline
 70
8
 71
3
 72
8
 73
4
 74
0
 40
0
 40
0
 40
0
 40
0
 40
1
 40
1
 40
1
 40
1
 10
289.622392
 20
197.192602
 30
0.0
 10
290.096856
 20
194.068038
 30
0.0
 10
290.825364
 20
190.915055
 30
0.0
 10
291.792144
 20
187.827962
 30
0.0
  0
SPLINE
  5
178
100
AcDbEntity
  8
Layer_1
 62
5
100
AcDbSpline
 70
8
 71
3
 72
8
 73
4
 74
0
 40
0
 40
0
 40
0
 40
0
 40
1
 40
1
 40
1
 40
1
 10
291.792144
 20
187.827962
 30
0.0
 10
292.758935
 20
184.740833
 30
0.0
 10
293.963865
 20
181.720045
 30
0.0
 10
295.367814
 20
178.853115
 30
0.0
  0
SPLINE
  5
179
100
AcDbEntity
  8
Layer_1
 62
5
100
AcDbSpline
 70
8
 71
3
 72
8
 73
4
 74
0
 40
0
 40
0
 40
0
 40
0
 40
1
 40
1
 40
1
 40
1
 10
295.367814
 20
178.853115
 30
0.0
 10
296.771763
 20
175.986172
 30
0.0
 10
298.374455
 20
173.273503
 30
0.0
 10
300.116445
 20
170.789346
 30
0.0
  0
SPLINE
  5
17a
100
AcDbEntity
  8
Layer_1
 62
5
100
AcDbSpline
 70
8
 71
3
 72
8
 73
4
 74
0
 40
0
 40
0
 40
0
 40
0
 40
1
 40
1
 40
1
 40
1
 10
300.116445
 20
170.789346
 30
0.0
 10
301.858448
 20
168.305166
 30
0.0
 10
303.739386
 20
166.049821
 30
0.0
 10
305.684200
 20
164.078778
 30
0.0
  0
SPLINE
  5
17b
100
AcDbEntity
  8
Layer_1
 62
5
100
AcDbSpline
 70
8
 71
3
 72
8
 73
4
 74
0
 40
0
 40
0
 40
0
 40
0
 40
1
 40
1
 40
1
 40
1
 10
305.684200
 20
164.078778
 30
0.0
 10
307.629003
 20
162.107724
 30
0.0
 10
309.637246
 20
160.421175
 30
0.0
 10
311.624379
 20
159.051833
 30
0.0
  0
SPLINE
  5
17c
100
AcDbEntity
  8
Layer_1
 62
5
100
AcDbSpline
 70
8
 71
3
 72
8
 73
4
 74
0
 40
0
 40
0
 40
0
 40
0
 40
1
 40
1
 40
1
 40
1
 10
311.624379
 20
159.051833
 30
0.0
 10
313.611488
 20
157.682502
 30
0.0
 10
315.577015
 20
156.630461
 30
0.0
 10
317.433714
 20
155.903585
 30
0.0
  0
SPLINE
  5
17d
100
AcDbEntity
  8
Layer_1
 62
5
100
AcDbSpline
 70
8
 71
3
 72
8
 73
4
 74
0
 40
0
 40
0
 40
0
 40
0
 40
1
 40
1
 40
1
 40
1
 10
317.433714
 20
155.903585
 30
0.0
 10
319.290426
 20
155.176696
 30
0.0
 10
321.037851
 20
154.774913
 30
0.0
 10
322.593393
 20
154.681117
 30
0.0
  0
SPLINE
  5
17e
100
AcDbEntity
  8
Layer_1
 62
5
100
AcDbSpline
 70
8
 71
3
 72
8
 73
4
 74
0
 40
0
 40
0
 40
0
 40
0
 40
1
 40
1
 40
1
 40
1
 10
322.593393
 20
154.681117
 30
0.0
 10
324.148923
 20
154.587261
 30
0.0
 10
325.512112
 20
154.801273
 30
0.0
 10
326.611777
 20
155.282888
 30
0.0
  0
SPLINE
  5
17f
100
AcDbEntity
  8
Layer_1
 62
5
100
AcDbSpline
 70
8
 71
3
 72
8
 73
4
 74
0
 40
0
 40
0
 40
0
 40
0
 40
1
 40
1
 40
1
 40
1
 10
326.611777
 20
155.282888
 30
0.0
 10
327.711466
 20
155.764478
 30
0.0
 10
328.547256
 20
156.513338
 30
0.0
 10
329.065440
 20
157.469905
 30
0.0
  0
SPLINE
  5
180
100
AcDbEntity
  8
Layer_1
 62
5
100
AcDbSpline
 70
8
 71
3
 72
8
 73
4
 74
0
 40
0
 40
0
 40
0
 40
0
 40
1
 40
1
 40
1
 40
1
 10
329.065440
 20
157.469905
 30
0.0
 10
329.583636
 20
158.426485
 30
0.0
 10
329.783960
 20
159.590379
 30
0.0
 10
329.634819
 20
160.887932
 30
0.0
  0
SPLINE
  5
181
100
AcDbEntity
  8
Layer_1
 62
5
100
AcDbSpline
 70
8
 71
3
 72
8
 73
4
 74
0
 40
0
 40
0
 40
0
 40
0
 40
1
 40
1
 40
1
 40
1
 10
329.634819
 20
160.887932
 30
0.0
 10
329.485666
 20
162.185497
 30
0.0
 10
328.986914
 20
163.616280
 30
0.0
 10
328.131957
 20
165.098880
 30
0.0
  0
SPLINE
  5
182
100
AcDbEntity
  8
Layer_1
 62
5
100
AcDbSpline
 70
8
 71
3
 72
8
 73
4
 74
0
 40
0
 40
0
 40
0
 40
0
 40
1
 40
1
 40
1
 40
1
 10
328.131957
 20
165.098880
 30
0.0
 10
327.277001
 20
166.581492
 30
0.0
 10
326.065864
 20
168.115468
 30
0.0
 10
324.517894
 20
169.618659
 30
0.0
  0
SPLINE
  5
183
100
AcDbEntity
  8
Layer_1
 62
5
100
AcDbSpline
 70
8
 71
3
 72
8
 73
4
 74
0
 40
0
 40
0
 40
0
 40
0
 40
1
 40
1
 40
1
 40
1
 10
324.517894
 20
169.618659
 30
0.0
 10
322.969936
 20
171.121850
 30
0.0
 10
321.085290
 20
172.593804
 30
0.0
 10
318.908170
 20
173.958566
 30
0.0
  0
SPLINE
  5
184
100
AcDbEntity
  8
Layer_1
 62
5
100
AcDbSpline
 70
8
 71
3
 72
8
 73
4
 74
0
 40
0
 40
0
 40
0
 40
0
 40
1
 40
1
 40
1
 40
1
 10
318.908170
 20
173.958566
 30
0.0
 10
316.731051
 20
175.323317
 30
0.0
 10
314.261724
 20
176.580485
 30
0.0
 10
311.566143
 20
177.666678
 30
0.0
  0
SPLINE
  5
185
100
AcDbEntity
  8
Layer_1
 62
5
100
AcDbSpline
 70
8
 71
3
 72
8
 73
4
 74
0
 40
0
 40
0
 40
0
 40
0
 40
1
 40
1
 40
1
 40
1
 10
311.566143
 20
177.666678
 30
0.0
 10
308.870538
 20
178.752895
 30
0.0
 10
305.949041
 20
179.667840
 30
0.0
 10
302.884490
 20
180.366060
 30
0.0
  0
SPLINE
  5
186
100
AcDbEntity
  8
Layer_1
 62
5
100
AcDbSpline
 70
8
 71
3
 72
8
 73
4
 74
0
 40
0
 40
0
 40
0
 40
0
 40
1
 40
1
 40
1
 40
1
 10
302.884490
 20
180.366060
 30
0.0
 10
299.819926
 20
181.064280
 30
0.0
 10
296.612743
 20
181.545609
 30
0.0
 10
293.356466
 20
181.786303
 30
0.0
  0
SPLINE
  5
187
100
AcDbEntity
  8
Layer_1
 62
5
100
AcDbSpline
 70
8
 71
3
 72
8
 73
4
 74
0
 40
0
 40
0
 40
0
 40
0
 40
1
 40
1
 40
1
 40
1
 10
293.356466
 20
181.786303
 30
0.0
 10
290.100202
 20
182.026986
 30
0.0
 10
286.795326
 20
182.026986
 30
0.0
 10
283.539049
 20
181.786303
 30
0.0
  0
SPLINE
  5
188
100
AcDbEntity
  8
Layer_1
 62
5
100
AcDbSpline
 70
8
 71
3
 72
8
 73
4
 74
0
 40
0
 40
0
 40
0
 40
0
 40
1
 40
1
 40
1
 40
1
 10
283.539049
 20
181.786303
 30
0.0
 10
280.282772
 20
181.545609
 30
0.0
 10
277.075589
 20
181.064280
 30
0.0
 10
274.011026
 20
180.366060
 30
0.0
  0
SPLINE
  5
189
100
AcDbEntity
  8
Layer_1
 62
5
100
AcDbSpline
 70
8
 71
3
 72
8
 73
4
 74
0
 40
0
 40
0
 40
0
 40
0
 40
1
 40
1
 40
1
 40
1
 10
274.011026
 20
180.366060
 30
0.0
 10
270.946475
 20
179.667840
 30
0.0
 10
268.024978
 20
178.752895
 30
0.0
 10
265.329396
 20
177.666678
 30
0.0
  0
SPLINE
  5
18a
100
AcDbEntity
  8
Layer_1
 62
5
100
AcDbSpline
 70
8
 71
3
 72
8
 73
4
 74
0
 40
0
 40
0
 40
0
 40
0
 40
1
 40
1
 40
1
 40
1
 10
265.329396
 20
177.666678
 30
0.0
 10
262.633791
 20
176.580485
 30
0.0
 10
260.164464
 20
175.323317
 30
0.0
 10
257.987345
 20
173.958566
 30
0.0
  0
SPLINE
  5
18b
100
AcDbEntity
  8
Layer_1
 62
5
100
AcDbSpline
 70
8
 71
3
 72
8
 73
4
 74
0
 40
0
 40
0
 40
0
 40
0
 40
1
 40
1
 40
1
 40
1
 10
257.987345
 20
173.958566
 30
0.0
 10
255.810238
 20
172.593804
 30
0.0
 10
253.925604
 20
171.121850
 30
0.0
 10
252.377646
 20
169.618659
 30
0.0
  0
SPLINE
  5
18c
100
AcDbEntity
  8
Layer_1
 62
5
100
AcDbSpline
 70
8
 71
3
 72
8
 73
4
 74
0
 40
0
 40
0
 40
0
 40
0
 40
1
 40
1
 40
1
 40
1
 10
252.377646
 20
169.618659
 30
0.0
 10
250.829676
 20
168.115468
 30
0.0
 10
249.618539
 20
166.581492
 30
0.0
 10
248.763570
 20
165.098880
 30
0.0
  0
SPLINE
  5
18d
100
AcDbEntity
  8
Layer_1
 62
5
100
AcDbSpline
 70
8
 71
3
 72
8
 73
4
 74
0
 40
0
 40
0
 40
0
 40
0
 40
1
 40
1
 40
1
 40
1
 10
248.763570
 20
165.098880
 30
0.0
 10
247.908626
 20
163.616280
 30
0.0
 10
247.409874
 20
162.185497
 30
0.0
 10
247.260721
 20
160.887932
 30
0.0
  0
SPLINE
  5
18e
100
AcDbEntity
  8
Layer_1
 62
5
100
AcDbSpline
 70
8
 71
3
 72
8
 73
4
 74
0
 40
0
 40
0
 40
0
 40
0
 40
1
 40
1
 40
1
 40
1
 10
247.260721
 20
160.887932
 30
0.0
 10
247.111567
 20
159.590379
 30
0.0
 10
247.311928
 20
158.426485
 30
0.0
 10
247.830088
 20
157.469905
 30
0.0
  0
SPLINE
  5
18f
100
AcDbEntity
  8
Layer_1
 62
5
100
AcDbSpline
 70
8
 71
3
 72
8
 73
4
 74
0
 40
0
 40
0
 40
0
 40
0
 40
1
 40
1
 40
1
 40
1
 10
247.830088
 20
157.469905
 30
0.0
 10
248.348272
 20
156.513338
 30
0.0
 10
249.184062
 20
155.764478
 30
0.0
 10
250.283751
 20
155.282888
 30
0.0
  0
SPLINE
  5
190
100
AcDbEntity
  8
Layer_1
 62
5
100
AcDbSpline
 70
8
 71
3
 72
8
 73
4
 74
0
 40
0
 40
0
 40
0
 40
0
 40
1
 40
1
 40
1
 40
1
 10
250.283751
 20
155.282888
 30
0.0
 10
251.383427
 20
154.801321
 30
0.0
 10
252.746616
 20
154.587320
 30
0.0
 10
254.302135
 20
154.681117
 30
0.0
  0
SPLINE
  5
191
100
AcDbEntity
  8
Layer_1
 62
5
100
AcDbSpline
 70
8
 71
3
 72
8
 73
4
 74
0
 40
0
 40
0
 40
0
 40
0
 40
1
 40
1
 40
1
 40
1
 10
254.302135
 20
154.681117
 30
0.0
 10
255.857665
 20
154.774972
 30
0.0
 10
257.605102
 20
155.176696
 30
0.0
 10
259.461801
 20
155.903585
 30
0.0
  0
SPLINE
  5
192
100
AcDbEntity
  8
Layer_1
 62
5
100
AcDbSpline
 70
8
 71
3
 72
8
 73
4
 74
0
 40
0
 40
0
 40
0
 40
0
 40
1
 40
1
 40
1
 40
1
 10
259.461801
 20
155.903585
 30
0.0
 10
261.318513
 20
156.630461
 30
0.0
 10
263.284027
 20
157.682502
 30
0.0
 10
265.271136
 20
159.051833
 30
0.0
  0
SPLINE
  5
193
100
AcDbEntity
  8
Layer_1
 62
5
100
AcDbSpline
 70
8
 71
3
 72
8
 73
4
 74
0
 40
0
 40
0
 40
0
 40
0
 40
1
 40
1
 40
1
 40
1
 10
265.271136
 20
159.051833
 30
0.0
 10
267.258269
 20
160.421175
 30
0.0
 10
269.266525
 20
162.107724
 30
0.0
 10
271.211340
 20
164.078778
 30
0.0
  0
SPLINE
  5
194
100
AcDbEntity
  8
Layer_1
 62
5
100
AcDbSpline
 70
8
 71
3
 72
8
 73
4
 74
0
 40
0
 40
0
 40
0
 40
0
 40
1
 40
1
 40
1
 40
1
 10
271.211340
 20
164.078778
 30
0.0
 10
273.156142
 20
166.049821
 30
0.0
 10
275.037068
 20
168.305166
 30
0.0
 10
276.779070
 20
170.789346
 30
0.0
  0
SPLINE
  5
195
100
AcDbEntity
  8
Layer_1
 62
5
100
AcDbSpline
 70
8
 71
3
 72
8
 73
4
 74
0
 40
0
 40
0
 40
0
 40
0
 40
1
 40
1
 40
1
 40
1
 10
276.779070
 20
170.789346
 30
0.0
 10
278.521072
 20
173.273503
 30
0.0
 10
280.123764
 20
175.986172
 30
0.0
 10
281.527702
 20
178.853115
 30
0.0
  0
SPLINE
  5
196
100
AcDbEntity
  8
Layer_1
 62
5
100
AcDbSpline
 70
8
 71
3
 72
8
 73
4
 74
0
 40
0
 40
0
 40
0
 40
0
 40
1
 40
1
 40
1
 40
1
 10
281.527702
 20
178.853115
 30
0.0
 10
282.931651
 20
181.720045
 30
0.0
 10
284.136580
 20
184.740833
 30
0.0
 10
285.103372
 20
187.827962
 30
0.0
  0
SPLINE
  5
197
100
AcDbEntity
  8
Layer_1
 62
5
100
AcDbSpline
 70
8
 71
3
 72
8
 73
4
 74
0
 40
0
 40
0
 40
0
 40
0
 40
1
 40
1
 40
1
 40
1
 10
285.103372
 20
187.827962
 30
0.0
 10
286.070151
 20
190.915055
 30
0.0
 10
286.798659
 20
194.068038
 30
0.0
 10
287.273136
 20
197.192602
 30
0.0
  0
SPLINE
  5
198
100
AcDbEntity
  8
Layer_1
 62
5
100
AcDbSpline
 70
8
 71
3
 72
8
 73
4
 74
0
 40
0
 40
0
 40
0
 40
0
 40
1
 40
1
 40
1
 40
1
 10
287.273136
 20
197.192602
 30
0.0
 10
287.747589
 20
200.317178
 30
0.0
 10
287.968021
 20
203.412872
 30
0.0
 10
287.943058
 20
206.385863
 30
0.0
  0
SPLINE
  5
199
100
AcDbEntity
  8
Layer_1
 62
5
100
AcDbSpline
 70
8
 71
3
 72
8
 73
4
 74
0
 40
0
 40
0
 40
0
 40
0
 40
1
 40
1
 40
1
 40
1
 10
287.943058
 20
206.385863
 30
0.0
 10
287.918058
 20
209.358866
 30
0.0
 10
287.647891
 20
212.208679
 30
0.0
 10
287.164586
 20
214.849107
 30
0.0
  0
SPLINE
  5
19a
100
AcDbEntity
  8
Layer_1
 62
5
100
AcDbSpline
 70
8
 71
3
 72
8
 73
4
 74
0
 40
0
 40
0
 40
0
 40
0
 40
1
 40
1
 40
1
 40
1
 10
287.164586
 20
214.849107
 30
0.0
 10
286.681269
 20
217.489511
 30
0.0
 10
285.985103
 20
219.920090
 30
0.0
 10
285.128782
 20
222.068720
 30
0.0
  0
SPLINE
  5
19b
100
AcDbEntity
  8
Layer_1
 62
5
100
AcDbSpline
 70
8
 71
3
 72
8
 73
4
 74
0
 40
0
 40
0
 40
0
 40
0
 40
1
 40
1
 40
1
 40
1
 10
285.128782
 20
222.068720
 30
0.0
 10
284.272449
 20
224.217339
 30
0.0
 10
283.256310
 20
226.083689
 30
0.0
 10
282.148952
 20
227.615203
 30
0.0
  0
SPLINE
  5
19c
100
AcDbEntity
  8
Layer_1
 62
5
100
AcDbSpline
 70
8
 71
3
 72
8
 73
4
 74
0
 40
0
 40
0
 40
0
 40
0
 40
1
 40
1
 40
1
 40
1
 10
282.148952
 20
227.615203
 30
0.0
 10
281.041582
 20
229.146718
 30
0.0
 10
279.843440
 20
230.343194
 30
0.0
 10
278.633004
 20
231.175548
 30
0.0
  0
SPLINE
  5
19d
100
AcDbEntity
  8
Layer_1
 62
5
100
AcDbSpline
 70
8
 71
3
 72
8
 73
4
 74
0
 40
0
 40
0
 40
0
 40
0
 40
1
 40
1
 40
1
 40
1
 10
278.633004
 20
231.175548
 30
0.0
 10
277.422591
 20
232.007927
 30
0.0
 10
276.200367
 20
232.476135
 30
0.0
 10
275.047986
 20
232.576664
 30
0.0
  0
SPLINE
  5
19e
100
AcDbEntity
  8
Layer_1
 62
5
100
AcDbSpline
 70
8
 71
3
 72
8
 73
4
 74
0
 40
0
 40
0
 40
0
 40
0
 40
1
 40
1
 40
1
 40
1
 10
275.047986
 20
232.576664
 30
0.0
 10
273.895604
 20
232.677181
 30
0.0
 10
272.813524
 20
232.410126
 30
0.0
 10
271.879401
 20
231.797554
 30
0.0
  0
SPLINE
  5
19f
100
AcDbEntity
  8
Layer_1
 62
5
100
AcDbSpline
 70
8
 71
3
 72
8
 73
4
 74
0
 40
0
 40
0
 40
0
 40
0
 40
1
 40
1
 40
1
 40
1
 10
271.879401
 20
231.797554
 30
0.0
 10
270.945291
 20
231.184993
 30
0.0
 10
270.159573
 20
230.227129
 30
0.0
 10
269.589095
 20
228.969748
 30
0.0
  0
SPLINE
  5
1a0
100
AcDbEntity
  8
Layer_1
 62
5
100
AcDbSpline
 70
8
 71
3
 72
8
 73
4
 74
0
 40
0
 40
0
 40
0
 40
0
 40
1
 40
1
 40
1
 40
1
 10
269.589095
 20
228.969748
 30
0.0
 10
269.018629
 20
227.712354
 30
0.0
 10
268.663777
 20
226.155740
 30
0.0
 10
268.574659
 20
224.365534
 30
0.0
  0
SPLINE
  5
1a1
100
AcDbEntity
  8
Layer_1
 62
5
100
AcDbSpline
 70
8
 71
3
 72
8
 73
4
 74
0
 40
0
 40
0
 40
0
 40
0
 40
1
 40
1
 40
1
 40
1
 10
268.574659
 20
224.365534
 30
0.0
 10
268.485529
 20
222.575304
 30
0.0
 10
268.662460
 20
220.551861
 30
0.0
 10
269.134123
 20
218.375300
 30
0.0
  0
SPLINE
  5
1a2
100
AcDbEntity
  8
Layer_1
 62
5
100
AcDbSpline
 70
8
 71
3
 72
8
 73
4
 74
0
 40
0
 40
0
 40
0
 40
0
 40
1
 40
1
 40
1
 40
1
 10
269.134123
 20
218.375300
 30
0.0
 10
269.605798
 20
216.198726
 30
0.0
 10
270.372397
 20
213.869486
 30
0.0
 10
271.438499
 20
211.475652
 30
0.0
  0
SPLINE
  5
1a3
100
AcDbEntity
  8
Layer_1
 62
5
100
AcDbSpline
 70
8
 71
3
 72
8
 73
4
 74
0
 40
0
 40
0
 40
0
 40
0
 40
1
 40
1
 40
1
 40
1
 10
271.438499
 20
211.475652
 30
0.0
 10
272.504626
 20
209.081831
 30
0.0
 10
273.870218
 20
206.623892
 30
0.0
 10
275.514806
 20
204.190911
 30
0.0
  0
SPLINE
  5
1a4
100
AcDbEntity
  8
Layer_1
 62
5
100
AcDbSpline
 70
8
 71
3
 72
8
 73
4
 74
0
 40
0
 40
0
 40
0
 40
0
 40
1
 40
1
 40
1
 40
1
 10
275.514806
 20
204.190911
 30
0.0
 10
277.159405
 20
201.757917
 30
0.0
 10
279.082819
 20
199.350333
 30
0.0
 10
281.240578
 20
197.051116
 30
0.0
  0
SPLINE
  5
1a5
100
AcDbEntity
  8
Layer_1
 62
5
100
AcDbSpline
 70
8
 71
3
 72
8
 73
4
 74
0
 40
0
 40
0
 40
0
 40
0
 40
1
 40
1
 40
1
 40
1
 10
281.240578
 20
197.051116
 30
0.0
 10
283.398350
 20
194.751900
 30
0.0
 10
285.790178
 20
192.561456
 30
0.0
 10
288.350724
 20
190.550112
 30
0.0
  0
SPLINE
  5
1a6
100
AcDbEntity
  8
Layer_1
 62
5
100
AcDbSpline
 70
8
 71
3
 72
8
 73
4
 74
0
 40
0
 40
0
 40
0
 40
0
 40
1
 40
1
 40
1
 40
1
 10
288.350724
 20
190.550112
 30
0.0
 10
290.911270
 20
188.538756
 30
0.0
 10
293.640160
 20
186.706843
 30
0.0
 10
296.456005
 20
185.106621
 30
0.0
  0
SPLINE
  5
1a7
100
AcDbEntity
  8
Layer_1
 62
5
100
AcDbSpline
 70
8
 71
3
 72
8
 73
4
 74
0
 40
0
 40
0
 40
0
 40
0
 40
1
 40
1
 40
1
 40
1
 10
296.456005
 20
185.106621
 30
0.0
 10
299.271851
 20
183.506421
 30
0.0
 10
302.174206
 20
182.138138
 30
0.0
 10
305.071826
 20
181.032115
 30
0.0
  0
SPLINE
  5
1a8
100
AcDbEntity
  8
Layer_1
 62
5
100
AcDbSpline
 70
8
 71
3
 72
8
 73
4
 74
0
 40
0
 40
0
 40
0
 40
0
 40
1
 40
1
 40
1
 40
1
 10
305.071826
 20
181.032115
 30
0.0
 10
307.969422
 20
179.926116
 30
0.0
 10
310.861813
 20
179.082449
 30
0.0
 10
313.654833
 20
178.507419
 30
0.0
  0
SPLINE
  5
1a9
100
AcDbEntity
  8
Layer_1
 62
5
100
AcDbSpline
 70
8
 71
3
 72
8
 73
4
 74
0
 40
0
 40
0
 40
0
 40
0
 40
1
 40
1
 40
1
 40
1
 10
313.654833
 20
178.507419
 30
0.0
 10
316.447865
 20
177.932400
 30
0.0
 10
319.141055
 20
177.625960
 30
0.0
 10
321.644729
 20
177.570288
 30
0.0
  0
SPLINE
  5
1aa
100
AcDbEntity
  8
Layer_1
 62
5
100
AcDbSpline
 70
8
 71
3
 72
8
 73
4
 74
0
 40
0
 40
0
 40
0
 40
0
 40
1
 40
1
 40
1
 40
1
 10
321.644729
 20
177.570288
 30
0.0
 10
324.148404
 20
177.514736
 30
0.0
 10
326.462104
 20
177.709502
 30
0.0
 10
328.507546
 20
178.114914
 30
0.0
  0
SPLINE
  5
1ab
100
AcDbEntity
  8
Layer_1
 62
5
100
AcDbSpline
 70
8
 71
3
 72
8
 73
4
 74
0
 40
0
 40
0
 40
0
 40
0
 40
1
 40
1
 40
1
 40
1
 10
328.507546
 20
178.114914
 30
0.0
 10
330.552975
 20
178.520301
 30
0.0
 10
332.329808
 20
179.135895
 30
0.0
 10
333.777248
 20
179.903122
 30
0.0
  0
SPLINE
  5
1ac
100
AcDbEntity
  8
Layer_1
 62
5
100
AcDbSpline
 70
8
 71
3
 72
8
 73
4
 74
0
 40
0
 40
0
 40
0
 40
0
 40
1
 40
1
 40
1
 40
1
 10
333.777248
 20
179.903122
 30
0.0
 10
335.224675
 20
180.670348
 30
0.0
 10
336.342468
 20
181.588814
 30
0.0
 10
337.092159
 20
182.586683
 30
0.0
  0
SPLINE
  5
1ad
100
AcDbEntity
  8
Layer_1
 62
5
100
AcDbSpline
 70
8
 71
3
 72
8
 73
4
 74
0
 40
0
 40
0
 40
0
 40
0
 40
1
 40
1
 40
1
 40
1
 10
337.092159
 20
182.586683
 30
0.0
 10
337.841827
 20
183.584563
 30
0.0
 10
338.223261
 20
184.661406
 30
0.0
 10
338.223261
 20
185.738476
 30
0.0
  0
LWPOLYLINE
  5
1ae
100
AcDbEntity
  8
Layer_1
 62
1
100
AcDbPolyline
 90
2
 70
1
 10
273.890459
 20
235.416818
 30
0.0
 10
273.890459
 20
235.416818
 30
0.0
  0
SPLINE
  5
1af
100
AcDbEntity
  8
Layer_1
 62
1
100
AcDbSpline
 70
8
 71
3
 72
8
 73
4
 74
0
 40
0
 40
0
 40
0
 40
0
 40
1
 40
1
 40
1
 40
1
 10
296.043435
 20
185.737370
 30
0.0
 10
296.043435
 20
183.754091
 30
0.0
 10
295.243546
 20
181.852042
 30
0.0
 10
293.819736
 20
180.449656
 30
0.0
  0
SPLINE
  5
1b0
100
AcDbEntity
  8
Layer_1
 62
1
100
AcDbSpline
 70
8
 71
3
 72
8
 73
4
 74
0
 40
0
 40
0
 40
0
 40
0
 40
1
 40
1
 40
1
 40
1
 10
293.819736
 20
180.449656
 30
0.0
 10
292.395927
 20
179.047269
 30
0.0
 10
290.464828
 20
178.259422
 30
0.0
 10
288.451262
 20
178.259432
 30
0.0
  0
SPLINE
  5
1b1
100
AcDbEntity
  8
Layer_1
 62
1
100
AcDbSpline
 70
8
 71
3
 72
8
 73
4
 74
0
 40
0
 40
0
 40
0
 40
0
 40
1
 40
1
 40
1
 40
1
 10
288.451262
 20
178.259432
 30
0.0
 10
284.258249
 20
178.259442
 30
0.0
 10
280.859145
 20
181.607426
 30
0.0
 10
280.859145
 20
185.737370
 30
0.0
  0
SPLINE
  5
1b2
100
AcDbEntity
  8
Layer_1
 62
1
100
AcDbSpline
 70
8
 71
3
 72
8
 73
4
 74
0
 40
0
 40
0
 40
0
 40
0
 40
1
 40
1
 40
1
 40
1
 10
280.859145
 20
185.737370
 30
0.0
 10
280.859144
 20
189.867315
 30
0.0
 10
284.258247
 20
193.215301
 30
0.0
 10
288.451262
 20
193.215310
 30
0.0
  0
SPLINE
  5
1b3
100
AcDbEntity
  8
Layer_1
 62
1
100
AcDbSpline
 70
8
 71
3
 72
8
 73
4
 74
0
 40
0
 40
0
 40
0
 40
0
 40
1
 40
1
 40
1
 40
1
 10
288.451262
 20
193.215310
 30
0.0
 10
290.464828
 20
193.215320
 30
0.0
 10
292.395928
 20
192.427473
 30
0.0
 10
293.819737
 20
191.025085
 30
0.0
  0
SPLINE
  5
1b4
100
AcDbEntity
  8
Layer_1
 62
1
100
AcDbSpline
 70
8
 71
3
 72
8
 73
4
 74
0
 40
0
 40
0
 40
0
 40
0
 40
1
 40
1
 40
1
 40
1
 10
293.819737
 20
191.025085
 30
0.0
 10
295.243547
 20
189.622698
 30
0.0
 10
296.043436
 20
187.720649
 30
0.0
 10
296.043435
 20
185.737370
 30
0.0
  0
LWPOLYLINE
  5
1b5
100
AcDbEntity
  8
Layer_1
 62
5
100
AcDbPolyline
 90
2
 70
1
 10
338.223261
 20
185.738476
 30
0.0
 10
338.223261
 20
185.738476
 30
0.0
  0
LWPOLYLINE
  5
1b6
100
AcDbEntity
  8
Layer_1
 62
1
100
AcDbPolyline
 90
2
 70
1
 10
296.043435
 20
185.737370
 30
0.0
 10
296.043435
 20
185.737370
 30
0.0
  0
ENDSEC
  0
SECTION
  2
OBJECTS
  0
DICTIONARY
  5
C
330
0
100
AcDbDictionary
  3
ACAD_GROUP
350
D
  3
ACAD_MLINESTYLE
350
17
  0
DICTIONARY
  5
D
330
C
100
AcDbDictionary
  0
DICTIONARY
  5
1A
330
C
100
AcDbDictionary
  0
DICTIONARY
  5
17
330
C
100
AcDbDictionary
  3
STANDARD
350
18
  0
DICTIONARY
  5
19
330
C
100
AcDbDictionary
  0
ENDSEC
  0
EOF
