<?xml version="1.0" encoding="UTF-8" standalone="no"?>
<!-- Created with Inkscape (http://www.inkscape.org/) -->

<svg
   xmlns:dc="http://purl.org/dc/elements/1.1/"
   xmlns:cc="http://creativecommons.org/ns#"
   xmlns:rdf="http://www.w3.org/1999/02/22-rdf-syntax-ns#"
   xmlns:svg="http://www.w3.org/2000/svg"
   xmlns="http://www.w3.org/2000/svg"
   xmlns:sodipodi="http://sodipodi.sourceforge.net/DTD/sodipodi-0.dtd"
   xmlns:inkscape="http://www.inkscape.org/namespaces/inkscape"
   width="903.03076mm"
   height="490.88614mm"
   viewBox="0 0 3199.7152 1739.3603"
   id="svg2"
   version="1.1"
   inkscape:version="0.91 r13725"
   sodipodi:docname="Snijbloem.svg">
  <defs
     id="defs4" />
  <sodipodi:namedview
     id="base"
     pagecolor="#000000"
     bordercolor="#666666"
     borderopacity="1.0"
     inkscape:pageopacity="0"
     inkscape:pageshadow="2"
     inkscape:zoom="0.99999997"
     inkscape:cx="900.65209"
     inkscape:cy="593.54653"
     inkscape:document-units="px"
     inkscape:current-layer="g5612-2-5"
     showgrid="true"
     inkscape:window-width="1920"
     inkscape:window-height="1017"
     inkscape:window-x="1280"
     inkscape:window-y="30"
     inkscape:window-maximized="1"
     showguides="true"
     fit-margin-top="0"
     fit-margin-left="0"
     fit-margin-right="0"
     fit-margin-bottom="0">
    <inkscape:grid
       type="xygrid"
       id="grid5085"
       units="mm"
       spacingx="3.5433072"
       spacingy="3.5433072"
       empspacing="10"
       color="#cf32ff"
       opacity="0.25490196"
       empcolor="#3f3fff"
       empopacity="0.54901961"
       originx="-735.81197"
       originy="-615.95073" />
  </sodipodi:namedview>
  <metadata
     id="metadata7">
    <rdf:RDF>
      <cc:Work
         rdf:about="">
        <dc:format>image/svg+xml</dc:format>
        <dc:type
           rdf:resource="http://purl.org/dc/dcmitype/StillImage" />
        <dc:title />
      </cc:Work>
    </rdf:RDF>
  </metadata>
  <g
     inkscape:label="Layer 1"
     inkscape:groupmode="layer"
     id="layer1"
     transform="translate(-735.812,1302.9489)">
    <text
       xml:space="preserve"
       style="font-style:normal;font-variant:normal;font-weight:normal;font-stretch:normal;font-size:40px;line-height:125.99999905%;font-family:OpenDyslexic;-inkscape-font-specification:OpenDyslexic;letter-spacing:0px;word-spacing:0px;fill:#000000;fill-opacity:1;stroke:none;stroke-width:1px;stroke-linecap:butt;stroke-linejoin:miter;stroke-opacity:1"
       x="-179.90103"
       y="-1243.9493"
       id="text4249"
       sodipodi:linespacing="126%"><tspan
         sodipodi:role="line"
         id="tspan4251"
         x="-179.90103"
         y="-1243.9493"
         style="font-style:normal;font-variant:normal;font-weight:normal;font-stretch:normal;font-size:375px;line-height:125.99999905%;font-family:OpenDyslexic;-inkscape-font-specification:OpenDyslexic;fill:#ff0000;fill-opacity:1" /></text>
    <flowRoot
       xml:space="preserve"
       id="flowRoot4265"
       style="font-style:normal;font-weight:normal;font-size:40px;line-height:125%;font-family:sans-serif;letter-spacing:0px;word-spacing:0px;fill:#000000;fill-opacity:1;stroke:none;stroke-width:1px;stroke-linecap:butt;stroke-linejoin:miter;stroke-opacity:1"
       transform="translate(0,-1073.622)"><flowRegion
         id="flowRegion4267"><rect
           id="rect4269"
           width="1062.9921"
           height="354.33072"
           x="-354.33072"
           y="141.73228" /></flowRegion><flowPara
         id="flowPara4271"
         style="font-size:375px;fill:#ff0000;fill-opacity:1">1 jaar</flowPara></flowRoot>    <flowRoot
       xml:space="preserve"
       id="flowRoot4273"
       style="font-style:normal;font-weight:normal;font-size:40px;line-height:125%;font-family:sans-serif;letter-spacing:0px;word-spacing:0px;fill:#ff0000;fill-opacity:1;stroke:none;stroke-width:1px;stroke-linecap:butt;stroke-linejoin:miter;stroke-opacity:1"
       transform="translate(0,-1073.622)"><flowRegion
         id="flowRegion4275"><rect
           id="rect4277"
           width="1346.4567"
           height="283.46457"
           x="-354.33072"
           y="212.59842"
           style="fill:#ff0000;fill-opacity:1" /></flowRegion><flowPara
         id="flowPara4279"
         style="font-size:375px;fill:#ff0000;fill-opacity:1">1 j&lt;zerwefew</flowPara></flowRoot>    <g
       style="stroke:#ff0000;stroke-width:0.44547564;stroke-miterlimit:4;stroke-dasharray:none;stroke-opacity:1"
       transform="matrix(4.2793202,0,0,4.2149529,-995.56095,-2289.5574)"
       id="g5612-2-5">
      <path
         inkscape:connector-curvature="0"
         id="path4121-1-1-1-7"
         d="m 631.37387,448.83414 c -8.22462,1.05465 -7.22622,12.68108 -5.82756,17.29591 -5.02001,-3.98229 -15.56574,-6.94253 -18.4166,0.93391 -1.2531,5.92141 3.53556,11.08931 7.80744,14.27006 -6.60971,-0.57308 -17.66447,3.78271 -14.45684,12.1034 2.64219,5.15709 9.55777,6.27644 14.34478,6.49998 -5.33038,3.41365 -11.57912,12.48511 -5.19251,17.74418 5.15024,3.27424 11.68899,0.3347 16.17522,-2.83907 -2.47568,6.06727 -1.95378,17.64689 6.79883,17.52005 5.8642,-0.95372 9.03858,-6.68746 10.83329,-11.80455 1.65328,6.09586 7.82862,14.65008 14.97983,10.75858 5.32565,-3.53264 3.90395,-11.87678 2.83907,-16.32465 4.95187,4.12314 15.93444,7.05191 18.49131,-1.08333 1.83913,-5.84655 -5.28704,-11.65355 -7.20974,-14.04593 6.64432,0.44895 17.46524,-4.37044 13.59765,-12.55167 -2.83206,-4.77192 -9.47579,-5.86012 -14.158,-6.05171 5.48272,-3.29191 11.84955,-12.99255 4.85631,-18.00567 -5.23245,-2.84295 -11.41706,0.0318 -15.80167,3.10056 2.69334,-6.13322 1.75194,-18.22028 -7.20974,-17.44534 -5.61141,1.18214 -8.67791,6.70336 -10.38502,11.72984 -1.86361,-5.31268 -5.56632,-11.97543 -12.06605,-11.80455 z"
         style="fill:none;stroke:#ff0000;stroke-width:0.53252059;stroke-miterlimit:4;stroke-dasharray:none;stroke-opacity:1" />
      <path
         style="fill:none;stroke:#0000ff;stroke-width:0.53252059;stroke-miterlimit:4;stroke-dasharray:none;stroke-opacity:1"
         d="m 684.64188,490.59632 c 0,-0.90546 -0.31583,-1.81071 -0.93656,-2.64958 -0.62075,-0.83887 -1.54629,-1.61098 -2.74477,-2.25594 -1.19849,-0.64497 -2.66972,-1.16248 -4.36335,-1.50327 -1.69364,-0.3408 -3.6094,-0.50464 -5.68246,-0.45783 -2.07306,0.0469 -4.30304,0.30441 -6.61569,0.7878 -2.31264,0.4834 -4.70756,1.19263 -7.10679,2.1224 -2.39925,0.92977 -4.80242,2.08003 -7.13396,3.42523 -2.33154,1.34522 -4.59108,2.88524 -6.71123,4.57608 -2.12015,1.69084 -4.1006,3.53224 -5.88725,5.46508 -1.78664,1.93284 -3.37924,3.95678 -4.74098,6.00207 -1.36173,2.0453 -2.49245,4.11157 -3.37521,6.12394 -0.88274,2.01238 -1.51749,3.97047 -1.90804,5.8002 -0.39056,1.82974 -0.53702,3.53074 -0.46324,5.03569 0.0738,1.50496 0.36761,2.81352 0.83996,3.87055 0.47236,1.05702 1.12294,1.86225 1.89639,2.37721 0.77346,0.51495 1.66943,0.73946 2.62361,0.65495 0.95418,-0.0845 1.96619,-0.47811 2.96842,-1.17785 1.00225,-0.69973 1.99432,-1.70554 2.91123,-2.99301 0.9169,-1.28747 1.75827,-2.85641 2.46732,-4.66266 0.70904,-1.80623 1.28547,-3.84951 1.68566,-6.06919 0.40018,-2.21966 0.62391,-4.61537 0.64458,-7.11464 0.0207,-2.49924 -0.16185,-5.10164 -0.5547,-7.72831 -0.39287,-2.62669 -0.99608,-5.27723 -1.79658,-7.87242 -0.80051,-2.59518 -1.7982,-5.13461 -2.96068,-7.5447 -1.16247,-2.4101 -2.48951,-4.69052 -3.9319,-6.77884 -1.44239,-2.08831 -2.99981,-3.98427 -4.61012,-5.64124 -1.61032,-1.65696 -3.27317,-3.07476 -4.91853,-4.22591 -1.64534,-1.15113 -3.2728,-2.03552 -4.81017,-2.64658 -1.53736,-0.61106 -2.98425,-0.94882 -4.27224,-1.02766 -1.28798,-0.0789 -2.41671,0.10101 -3.32725,0.50588 -0.91055,0.40484 -1.60259,1.03436 -2.03165,1.83852 -0.42906,0.80414 -0.59494,1.78258 -0.47144,2.87336 0.1235,1.0908 0.53647,2.29359 1.24437,3.53995 0.70792,1.24635 1.71075,2.53589 2.99248,3.79955 1.28172,1.26366 2.84221,2.50105 4.64487,3.64835 1.80267,1.14728 3.84729,2.20412 6.07927,3.11724 2.23196,0.91313 4.65098,1.68227 7.18845,2.26923 2.53748,0.58697 5.19305,0.99159 7.88927,1.19393 2.69622,0.20233 5.43268,0.20233 8.12889,0 2.69622,-0.20234 5.35179,-0.60696 7.88927,-1.19393 2.53747,-0.58696 4.95649,-1.3561 7.18847,-2.26923 2.23196,-0.91312 4.27658,-1.96996 6.07925,-3.11724 1.80267,-1.1473 3.36317,-2.38469 4.64489,-3.64835 1.28173,-1.26366 2.28456,-2.5532 2.99247,-3.79955 0.70791,-1.24636 1.12088,-2.44915 1.24438,-3.53995 0.12349,-1.09078 -0.0424,-2.06922 -0.47145,-2.87336 -0.42906,-0.80416 -1.1211,-1.43368 -2.03165,-1.83852 -0.91053,-0.40485 -2.03926,-0.58473 -3.32725,-0.50588 -1.288,0.0789 -2.73488,0.4166 -4.27225,1.02766 -1.53736,0.61106 -3.16483,1.49545 -4.81017,2.64658 -1.64536,1.15115 -3.3082,2.56895 -4.91851,4.22591 -1.61032,1.65697 -3.16775,3.55293 -4.61014,5.64124 -1.44238,2.08832 -2.76942,4.36874 -3.9319,6.77884 -1.16248,2.41009 -2.16017,4.94952 -2.96068,7.5447 -0.8005,2.59519 -1.40371,5.24573 -1.79657,7.87242 -0.39286,2.62667 -0.57536,5.22907 -0.55469,7.72831 0.0207,2.49927 0.24438,4.89498 0.64457,7.11464 0.40019,2.21968 0.97661,4.26296 1.68565,6.06919 0.70905,1.80625 1.55042,3.37519 2.46733,4.66266 0.9169,1.28747 1.90898,2.29328 2.91122,2.99301 1.00224,0.69974 2.01425,1.09334 2.96843,1.17785 0.95417,0.0845 1.85015,-0.14 2.62361,-0.65495 0.77344,-0.51496 1.42404,-1.32019 1.89639,-2.37721 0.47235,-1.05703 0.76616,-2.36559 0.83996,-3.87055 0.0738,-1.50495 -0.0727,-3.20595 -0.46323,-5.03569 -0.39056,-1.82973 -1.02532,-3.78782 -1.90806,-5.8002 -0.88274,-2.01237 -2.01348,-4.07864 -3.37521,-6.12394 -1.36173,-2.04529 -2.95434,-4.06923 -4.74098,-6.00207 -1.78664,-1.93284 -3.76709,-3.77424 -5.88725,-5.46508 -2.12015,-1.69084 -4.37969,-3.23086 -6.71123,-4.57608 -2.33154,-1.3452 -4.7347,-2.49546 -7.13395,-3.42523 -2.39924,-0.92977 -4.79414,-1.639 -7.1068,-2.1224 -2.31265,-0.48339 -4.54263,-0.74099 -6.61569,-0.7878 -2.07303,-0.0469 -3.9888,0.11703 -5.68244,0.45783 -1.69364,0.34079 -3.16485,0.8583 -4.36335,1.50327 -1.19849,0.64496 -2.12403,1.41707 -2.74477,2.25594 -0.62074,0.83887 -0.93656,1.74412 -0.93656,2.64958 0,0.90544 0.31582,1.81069 0.93656,2.64956 0.62074,0.83886 1.54628,1.61097 2.74477,2.25594 1.1985,0.64497 2.66971,1.16247 4.36335,1.50326 1.69364,0.3408 3.60941,0.50464 5.68244,0.45784 2.07306,-0.0469 4.30304,-0.30441 6.61569,-0.7878 2.31266,-0.4834 4.70756,-1.19263 7.1068,-2.12239 2.39925,-0.92978 4.80241,-2.08003 7.13395,-3.42524 2.33154,-1.34523 4.59108,-2.88523 6.71123,-4.57608 2.12016,-1.69084 4.10061,-3.53224 5.88725,-5.46508 1.78664,-1.93284 3.37925,-3.95678 4.74098,-6.00208 1.36173,-2.04529 2.49247,-4.11156 3.37521,-6.12393 0.88274,-2.01238 1.5175,-3.97046 1.90806,-5.8002 0.39055,-1.82973 0.53701,-3.53074 0.46323,-5.0357 -0.0738,-1.50494 -0.36761,-2.81351 -0.83996,-3.87054 -0.47235,-1.05702 -1.12295,-1.86225 -1.89639,-2.3772 -0.77346,-0.51496 -1.66944,-0.73948 -2.62361,-0.65496 -0.95418,0.0845 -1.96619,0.47811 -2.96843,1.17785 -1.00224,0.69972 -1.99432,1.70554 -2.91122,2.99301 -0.91691,1.28747 -1.75828,2.85642 -2.46733,4.66266 -0.70904,1.80625 -1.28546,3.84952 -1.68565,6.06918 -0.40019,2.21968 -0.62392,4.61538 -0.64457,7.11464 -0.0207,2.49925 0.16183,5.10165 0.55469,7.72833 0.39286,2.62667 0.99607,5.27723 1.79657,7.8724 0.80051,2.5952 1.7982,5.13463 2.96068,7.54472 1.16248,2.4101 2.48952,4.69051 3.9319,6.77882 1.44239,2.08833 2.99982,3.98429 4.61014,5.64125 1.61031,1.65697 3.27315,3.07477 4.91851,4.22591 1.64534,1.15113 3.27281,2.03553 4.81017,2.64658 1.53737,0.61106 2.98425,0.94882 4.27225,1.02767 1.28799,0.0789 2.41672,-0.10101 3.32725,-0.50588 0.91055,-0.40485 1.60259,-1.03438 2.03165,-1.83852 0.42907,-0.80415 0.59494,-1.78258 0.47145,-2.87337 -0.1235,-1.0908 -0.53647,-2.29359 -1.24438,-3.53994 -0.70791,-1.24636 -1.71074,-2.5359 -2.99247,-3.79956 -1.28172,-1.26366 -2.84222,-2.50106 -4.64489,-3.64835 -1.80267,-1.14728 -3.84729,-2.20412 -6.07925,-3.11723 -2.23198,-0.91313 -4.651,-1.68228 -7.18847,-2.26924 -2.53748,-0.58696 -5.19305,-0.99159 -7.88927,-1.19393 -2.69621,-0.20233 -5.43267,-0.20233 -8.12889,0 -2.69622,0.20234 -5.35179,0.60697 -7.88927,1.19393 -2.53747,0.58696 -4.95649,1.35611 -7.18845,2.26924 -2.23198,0.91311 -4.2766,1.96995 -6.07927,3.11723 -1.80266,1.14729 -3.36315,2.38469 -4.64487,3.64835 -1.28173,1.26366 -2.28456,2.5532 -2.99248,3.79956 -0.7079,1.24635 -1.12087,2.44914 -1.24437,3.53994 -0.1235,1.09079 0.0424,2.06922 0.47144,2.87337 0.42906,0.80414 1.1211,1.43367 2.03165,1.83852 0.91054,0.40483 2.03927,0.58473 3.32725,0.50588 1.28799,-0.0789 2.73488,-0.41661 4.27224,-1.02767 1.53737,-0.61105 3.16483,-1.49545 4.81017,-2.64658 1.64536,-1.15114 3.30821,-2.56894 4.91853,-4.22591 1.61031,-1.65696 3.16773,-3.55292 4.61012,-5.64125 1.44239,-2.08831 2.76943,-4.36872 3.9319,-6.77882 1.16248,-2.41009 2.16017,-4.94952 2.96068,-7.54472 0.8005,-2.59517 1.40371,-5.24573 1.79658,-7.8724 0.39285,-2.62668 0.57537,-5.22908 0.5547,-7.72833 -0.0207,-2.49926 -0.2444,-4.89496 -0.64458,-7.11464 -0.40019,-2.21966 -0.97662,-4.26293 -1.68566,-6.06918 -0.70905,-1.80624 -1.55042,-3.37519 -2.46732,-4.66266 -0.91691,-1.28747 -1.90898,-2.29329 -2.91123,-2.99301 -1.00223,-0.69974 -2.01424,-1.09334 -2.96842,-1.17785 -0.95418,-0.0845 -1.85015,0.14 -2.62361,0.65496 -0.77345,0.51495 -1.42403,1.32018 -1.89639,2.3772 -0.47235,1.05703 -0.76617,2.3656 -0.83996,3.87054 -0.0738,1.50496 0.0727,3.20597 0.46324,5.0357 0.39055,1.82974 1.0253,3.78782 1.90804,5.8002 0.88276,2.01237 2.01348,4.07864 3.37521,6.12393 1.36174,2.0453 2.95434,4.06924 4.74098,6.00208 1.78665,1.93284 3.7671,3.77424 5.88725,5.46508 2.12015,1.69085 4.37969,3.23085 6.71123,4.57608 2.33154,1.34521 4.73471,2.49546 7.13396,3.42524 2.39923,0.92976 4.79415,1.63899 7.10679,2.12239 2.31265,0.48339 4.54263,0.741 6.61569,0.7878 2.07306,0.0467 3.98882,-0.11703 5.68246,-0.45784 1.69363,-0.34079 3.16486,-0.85829 4.36335,-1.50326 1.19848,-0.64497 2.12402,-1.41708 2.74477,-2.25594 0.62073,-0.83887 0.93656,-1.74412 0.93656,-2.64956 z"
         id="path4121-1-1-2-6-6"
         inkscape:connector-curvature="0" />
    </g>
    <path
       inkscape:connector-curvature="0"
       id="path5673-8-1"
       d="m 1784.7848,-221.7131 a 26.901264,26.496629 0 0 1 -26.9014,26.49663 26.901264,26.496629 0 0 1 -26.9012,-26.49663 26.901264,26.496629 0 0 1 26.9012,-26.49664 26.901264,26.496629 0 0 1 26.9014,26.49664 z"
       style="color:#000000;display:inline;overflow:visible;visibility:visible;fill:none;stroke:#ff0000;stroke-width:2.26162267;stroke-linecap:butt;stroke-linejoin:miter;stroke-miterlimit:4;stroke-dasharray:none;stroke-dashoffset:0;stroke-opacity:1;marker:none;enable-background:accumulate" />
    <flowRoot
       xml:space="preserve"
       id="flowRoot6386"
       style="font-style:normal;font-weight:normal;font-size:40px;line-height:125%;font-family:sans-serif;letter-spacing:0px;word-spacing:0px;fill:#000000;fill-opacity:1;stroke:none;stroke-width:1px;stroke-linecap:butt;stroke-linejoin:miter;stroke-opacity:1"><flowRegion
         id="flowRegion6388"><rect
           id="rect6390"
           width="460.62991"
           height="106.29921"
           x="566.92914"
           y="2622.0474" /></flowRegion><flowPara
         id="flowPara6392" /></flowRoot>    <g
       transform="matrix(-1,0,0,1,1214.6315,364.7742)"
       id="g7698"
       style="fill:#0000ff;fill-opacity:1;stroke:#0000ff;stroke-width:5;stroke-miterlimit:4;stroke-dasharray:none;stroke-opacity:1" />
    <g
       transform="matrix(-1,0,0,1,1214.6315,364.7742)"
       id="g7700"
       style="fill:#0000ff;fill-opacity:1;stroke:#0000ff;stroke-width:5;stroke-miterlimit:4;stroke-dasharray:none;stroke-opacity:1" />
    <g
       transform="matrix(-1,0,0,1,1214.6315,364.7742)"
       id="g7702"
       style="fill:#0000ff;fill-opacity:1;stroke:#0000ff;stroke-width:5;stroke-miterlimit:4;stroke-dasharray:none;stroke-opacity:1" />
    <g
       transform="matrix(-1,0,0,1,1214.6315,364.7742)"
       id="g7704"
       style="fill:#0000ff;fill-opacity:1;stroke:#0000ff;stroke-width:5;stroke-miterlimit:4;stroke-dasharray:none;stroke-opacity:1" />
    <g
       transform="matrix(-1,0,0,1,1214.6315,364.7742)"
       id="g7706"
       style="fill:#0000ff;fill-opacity:1;stroke:#0000ff;stroke-width:5;stroke-miterlimit:4;stroke-dasharray:none;stroke-opacity:1" />
    <g
       transform="matrix(-1,0,0,1,1214.6315,364.7742)"
       id="g7708"
       style="fill:#0000ff;fill-opacity:1;stroke:#0000ff;stroke-width:5;stroke-miterlimit:4;stroke-dasharray:none;stroke-opacity:1" />
    <g
       transform="matrix(-1,0,0,1,1214.6315,364.7742)"
       id="g7710"
       style="fill:#0000ff;fill-opacity:1;stroke:#0000ff;stroke-width:5;stroke-miterlimit:4;stroke-dasharray:none;stroke-opacity:1" />
    <g
       transform="matrix(-1,0,0,1,1214.6315,364.7742)"
       id="g7712"
       style="fill:#0000ff;fill-opacity:1;stroke:#0000ff;stroke-width:5;stroke-miterlimit:4;stroke-dasharray:none;stroke-opacity:1" />
    <g
       transform="matrix(-1,0,0,1,1214.6315,364.7742)"
       id="g7714"
       style="fill:#0000ff;fill-opacity:1;stroke:#0000ff;stroke-width:5;stroke-miterlimit:4;stroke-dasharray:none;stroke-opacity:1" />
    <g
       transform="matrix(-1,0,0,1,1214.6315,364.7742)"
       id="g7716"
       style="fill:#0000ff;fill-opacity:1;stroke:#0000ff;stroke-width:5;stroke-miterlimit:4;stroke-dasharray:none;stroke-opacity:1" />
    <g
       transform="matrix(-1,0,0,1,1214.6315,364.7742)"
       id="g7718"
       style="fill:#0000ff;fill-opacity:1;stroke:#0000ff;stroke-width:5;stroke-miterlimit:4;stroke-dasharray:none;stroke-opacity:1" />
    <g
       transform="matrix(-1,0,0,1,1214.6315,364.7742)"
       id="g7720"
       style="fill:#0000ff;fill-opacity:1;stroke:#0000ff;stroke-width:5;stroke-miterlimit:4;stroke-dasharray:none;stroke-opacity:1" />
    <g
       transform="matrix(-1,0,0,1,1214.6315,364.7742)"
       id="g7722"
       style="fill:#0000ff;fill-opacity:1;stroke:#0000ff;stroke-width:5;stroke-miterlimit:4;stroke-dasharray:none;stroke-opacity:1" />
    <g
       transform="matrix(-1,0,0,1,1214.6315,364.7742)"
       id="g7724"
       style="fill:#0000ff;fill-opacity:1;stroke:#0000ff;stroke-width:5;stroke-miterlimit:4;stroke-dasharray:none;stroke-opacity:1" />
    <g
       transform="matrix(-1,0,0,1,1214.6315,364.7742)"
       id="g7726"
       style="fill:#0000ff;fill-opacity:1;stroke:#0000ff;stroke-width:5;stroke-miterlimit:4;stroke-dasharray:none;stroke-opacity:1" />
  </g>
</svg>
