<?xml version="1.0" encoding="UTF-8" standalone="no"?>
<!-- Created with Inkscape (http://www.inkscape.org/) -->

<svg
   xmlns:dc="http://purl.org/dc/elements/1.1/"
   xmlns:cc="http://creativecommons.org/ns#"
   xmlns:rdf="http://www.w3.org/1999/02/22-rdf-syntax-ns#"
   xmlns:svg="http://www.w3.org/2000/svg"
   xmlns="http://www.w3.org/2000/svg"
   xmlns:sodipodi="http://sodipodi.sourceforge.net/DTD/sodipodi-0.dtd"
   xmlns:inkscape="http://www.inkscape.org/namespaces/inkscape"
   width="148.79393mm"
   height="145.70103mm"
   viewBox="0 0 527.22259 516.26351"
   id="svg4198"
   version="1.1"
   inkscape:version="0.91 r13725"
   sodipodi:docname="rose.svg">
  <defs
     id="defs4200" />
  <sodipodi:namedview
     id="base"
     pagecolor="#000000"
     bordercolor="#666666"
     borderopacity="1.0"
     inkscape:pageopacity="0"
     inkscape:pageshadow="2"
     inkscape:zoom="0.7"
     inkscape:cx="5.7774356"
     inkscape:cy="177.92117"
     inkscape:document-units="px"
     inkscape:current-layer="layer1"
     showgrid="false"
     fit-margin-top="0"
     fit-margin-left="0"
     fit-margin-right="0"
     fit-margin-bottom="0"
     inkscape:window-width="1920"
     inkscape:window-height="1017"
     inkscape:window-x="1280"
     inkscape:window-y="30"
     inkscape:window-maximized="1" />
  <metadata
     id="metadata4203">
    <rdf:RDF>
      <cc:Work
         rdf:about="">
        <dc:format>image/svg+xml</dc:format>
        <dc:type
           rdf:resource="http://purl.org/dc/dcmitype/StillImage" />
        <dc:title></dc:title>
      </cc:Work>
    </rdf:RDF>
  </metadata>
  <g
     inkscape:label="Layer 1"
     inkscape:groupmode="layer"
     id="layer1"
     transform="translate(-882.55794,-136.44339)">
    <path
       style="fill:none;stroke:#0000ff;stroke-opacity:1"
       d="m 903.81935,651.63871 c -1.90901,-1.90901 -1.21612,-3.47071 2.04415,-4.60724 1.73208,-0.60381 3.74019,-1.09783 4.46249,-1.09783 0.7223,0 3.83453,-0.94333 6.91609,-2.09628 6.47223,-2.42158 8.5181,-5.31281 6.65415,-9.40372 -1.46792,-3.22175 -2.95375,-3.14879 -10.18195,0.5 -6.96827,3.51757 -9.90832,3.73975 -13.13922,0.99292 l -2.36078,-2.00707 4.641,-4.24293 c 2.95895,-2.70515 7.67056,-5.46921 13,-7.62642 4.59745,-1.86093 10.7215,-4.67727 13.609,-6.25855 l 5.25,-2.87505 0,3.40806 c 0,2.22103 -1.18872,5.17448 -3.41289,8.4796 -4.49068,6.67312 -5.92194,11.29301 -5.34826,17.26339 0.42009,4.37194 0.24376,4.94669 -1.63397,5.32613 -8.68423,1.75485 -13.54396,2.97269 -16.24981,4.07217 -2.29597,0.93293 -3.44324,0.97958 -4.25,0.17282 z m 379.39495,-4.35841 c -1.1,-0.23174 -6.6863,-1.34308 -12.4141,-2.46964 -14.663,-2.88401 -37.9005,-11.75005 -36.5449,-13.94336 0.3096,-0.50091 -0.031,-0.68272 -0.7577,-0.40402 -3.0025,1.15217 -26.781,-17.1064 -25.3317,-19.45129 0.4106,-0.66451 0.013,-0.81018 -1.0733,-0.39329 -1.3371,0.51312 -1.5765,0.27376 -1.0634,-1.06339 0.3812,-0.99347 0.2571,-1.47522 -0.2925,-1.13552 -2.1967,1.3576 -12.795,-16.77274 -13.2619,-22.68685 l -0.2605,-3.2993 5.63,-0.29632 5.63,-0.29633 0.6522,3.47628 c 1.8658,9.9459 12.2531,24.36176 24.45,33.93272 5.1264,4.02272 6.1378,4.49322 6.1378,2.85534 0,-4.51085 -4.3307,-15.42166 -8.8984,-22.41861 -4.6754,-7.16208 -10.1016,-16.40126 -10.1016,-17.20008 0,-0.20682 0.7875,-0.24972 1.75,-0.0953 1.0047,0.16116 4.167,-2.00577 7.4257,-5.08848 3.1217,-2.95305 6.3842,-5.36918 7.25,-5.36918 0.8659,0 1.5694,0.1125 1.5635,0.25 -0.01,0.1375 -0.681,2.45902 -1.5,5.15893 -2.9273,9.64927 -0.9034,23.05822 5.013,33.21391 5.7753,9.91356 20.2929,21.81562 30.313,24.85182 l 2.3153,0.70155 -2.1898,-4.2924 c -1.2044,-2.36081 -5.9778,-9.26296 -10.6075,-15.3381 -10.5512,-13.8454 -16.1277,-24.77545 -16.9875,-33.29571 -0.4424,-4.38455 -0.29,-6.25 0.5108,-6.25 1.4379,0 11.2254,9.59958 13.4442,13.1862 3.6703,5.93292 6.1306,10.71779 9.8305,19.11885 3.9363,8.93798 9.1392,17.82252 12.2712,20.95456 0.9488,0.94878 1.4019,2.24803 1.0068,2.88723 -0.4377,0.70817 -0.2826,0.89293 0.397,0.47293 0.6133,-0.37908 2.986,0.66597 5.2725,2.32233 4.7799,3.46253 6.399,3.79475 21.5731,4.42673 12.1185,0.50471 18.5191,2.408 14.7746,4.39337 -4.5993,2.4386 -28.4682,4.15568 -35.9264,2.58446 z m -343.98865,-7.49262 c 1.50312,-15.0343 4.74203,-23.06963 12.68371,-31.4668 5.47997,-5.79425 7.12991,-5.96258 8.80138,-0.89795 1.38095,4.18431 -0.635,13.552 -4.97743,23.129 -3.38655,7.46888 -3.78875,9.89106 -1.49635,9.01138 0.85262,-0.32718 2.45213,0.34514 3.63481,1.52782 2.70855,2.70855 1.56422,3.39347 -7.15749,4.28403 -3.575,0.36503 -7.78787,0.91184 -9.36194,1.21513 l -2.86194,0.55143 0.73525,-7.35404 z m 197.98865,6.05566 c -50.9927,-4.4115 -84.0738,-28.48989 -91.5304,-66.62116 l -1.2147,-6.21147 3.2608,-2.78853 c 15.0577,-12.87677 30.4968,-19.68958 47.4843,-20.95331 l 8,-0.59514 0.1054,7.37996 c 0.1886,13.20415 6.6194,22.8888 18.9456,28.53195 l 5.4013,2.47281 6.0419,-2.20298 c 7.2001,-2.62527 12.1913,-2.33711 28.668,1.65506 8.3224,2.01644 12.5165,2.52143 18.0708,2.17578 l 7.2331,-0.45012 0.6518,3.47427 c 1.1426,6.09056 -0.283,17.43742 -3.0484,24.26441 -3.4454,8.50542 -11.6482,22.02817 -12.8949,21.25771 -0.541,-0.33438 -0.7079,-0.16176 -0.3708,0.38358 1.0167,1.64511 -2.2555,5.31748 -4.7381,5.31748 -2.356,0 -4.9543,-2.14034 -4.057,-3.34201 0.2702,-0.36189 0.1872,-0.42887 -0.1845,-0.14884 -0.3717,0.28003 -1.7454,-0.49568 -3.0527,-1.7238 -2.0148,-1.8928 -2.5188,-2.00844 -3.3089,-0.75915 -1.5943,2.52104 -1.0721,4.00452 2.0311,5.77031 1.6465,0.93692 2.9965,2.00861 3,2.38153 0.015,1.57724 -10.9379,1.9044 -24.4937,0.73166 z m 198.862,-2.82855 c -8.2427,-2.23322 -15.6655,-5.78272 -20.3683,-9.7399 -3.3293,-2.80145 -8.9937,-9.99117 -8.9937,-11.4156 0,-0.42584 4.1625,1.40831 9.25,4.07589 5.0875,2.66759 15.325,7.09792 22.75,9.84517 7.425,2.74725 14.2875,5.30376 15.25,5.68114 2.9702,1.16456 1.9979,-1.51524 -2,-5.51233 -3.0924,-3.09167 -5.7669,-4.38052 -15.25,-7.34905 -11.6996,-3.66234 -16.4925,-6.06066 -15.4577,-7.73489 0.993,-1.60677 6.0552,-1.02611 14.6075,1.67555 6.085,1.92225 9.6613,2.49034 13.6142,2.16253 5.3183,-0.44103 5.376,-0.4155 7.218,3.19511 1.0213,2.00184 3.9566,5.97518 6.5231,8.82965 l 4.6662,5.18996 -2.8357,1.12817 c -5.3183,2.11592 -21.1111,2.09881 -28.9736,-0.0314 z m -369.09935,-5.17703 c 5.27045,-8.38715 6.01662,-21.79317 1.76145,-31.64663 -2.06755,-4.78768 -2.13252,-5.44311 -0.7489,-7.55478 0.83329,-1.27176 4.25362,-3.77192 7.60074,-5.55591 7.83232,-4.17459 11.91505,-7.64869 13.47158,-11.46331 l 1.2458,-3.05312 2.81422,4.8021 c 5.48929,9.36678 4.40896,18.74479 -4.08517,35.46206 -2.92061,5.74805 -5.10716,10.65403 -4.859,10.9022 0.24817,0.24816 2.13599,-0.54284 4.19516,-1.75778 3.37046,-1.98862 3.85974,-2.05063 4.90462,-0.62167 1.86007,2.5438 10.54015,-6.58173 12.74035,-13.39407 2.2843,-7.07299 2.1433,-11.60523 -0.8035,-25.82898 -2.4896,-12.01672 -3.0688,-20.10026 -1.8698,-26.09529 0.6712,-3.35625 1.5229,-3.44244 7.3193,-0.74069 6.6517,3.10039 8.7025,16.26556 5.1485,33.05105 -2.0397,9.63386 -2.6822,16.5907 -1.5323,16.5907 1.3752,0 5.1291,-2.52927 7.283,-4.90712 7.4877,-8.26599 10.0986,-22.87316 6.265,-35.04996 -1.1181,-3.55139 -1.9386,-6.51182 -1.8233,-6.57872 0.1153,-0.0669 3.5846,-0.68857 7.7096,-1.38147 14.5756,-2.44838 15.6058,-1.74573 7.2244,4.92763 -5.0247,4.00079 -5.2456,4.37368 -4.6472,7.84504 1.1255,6.52826 3.6136,14.51502 6.5635,21.06861 l 2.8916,6.42401 -3.8567,4.57599 c -14.0038,16.61527 -41.7678,29.49404 -68.36488,31.71215 l -8.05881,0.67208 1.51074,-2.40412 z m 325.89615,-7.44396 c -9.2989,-6.99009 -17.1112,-17.2141 -24.3128,-31.81831 l -3.2793,-6.65005 2.4339,-1.7459 c 7.5238,-5.39699 23.4515,-7.35395 39.6776,-4.87501 5.598,0.85523 11.3355,1.84543 12.75,2.20045 2.1673,0.54396 2.5718,0.30607 2.5718,-1.51259 0,-3.35941 -2.5866,-7.54935 -5.4721,-8.86406 -3.9153,-1.78394 -17.8564,-1.44493 -31.1998,0.7587 -23.4455,3.87197 -30.7684,3.84789 -35.8099,-0.11772 -2.533,-1.99245 -2.5617,-2.13014 -0.8407,-4.03184 4.1479,-4.58337 7.5675,-5.19509 32.2211,-5.76394 l 23.3986,-0.53989 -2.5659,-3.04605 c -4.4316,-5.26096 -12.0947,-8.74256 -19.1254,-8.68933 l -6.1059,0.0462 4,-2.10964 c 2.2,-1.1603 4.3375,-2.01774 4.75,-1.90543 0.4125,0.11232 0.6375,-0.35829 0.5,-1.04579 -0.1375,-0.6875 0.5019,-1.19343 1.4209,-1.12429 0.9321,0.0701 1.4647,-0.41171 1.2045,-1.08979 -0.2565,-0.66852 0.1926,-1.76246 0.9981,-2.43097 1.1811,-0.98021 2.6662,-0.60887 7.6731,1.91859 7.4445,3.75799 26.5086,22.08712 25.5557,24.57046 -0.3187,0.83043 -0.1702,1.25696 0.33,0.94785 0.5001,-0.30912 2.3823,2.03001 4.1826,5.19806 1.8002,3.16805 6.8453,10.02402 11.2113,15.23548 9.2223,11.00827 12.5997,17.52725 10.2817,19.84527 -4.6676,4.66761 -42.8387,1.0397 -50.5917,-4.80842 -2.4328,-1.83507 -2.4401,-1.88636 -0.5645,-3.95893 3.241,-3.58119 11.7556,-5.40807 22.0224,-4.72505 4.9642,0.33026 11.2549,1.275 13.9792,2.09943 2.7243,0.82443 5.0631,1.38925 5.1972,1.25514 0.775,-0.77506 -5.4078,-7.02622 -8.4947,-8.58851 -6.7574,-3.41998 -9.2709,-3.42519 -22.8446,-0.0474 -14.7694,3.67543 -20.5251,3.58666 -28.6658,-0.44212 -2.7901,-1.38084 -5.2645,-2.31906 -5.4987,-2.08495 -0.6407,0.64077 3.8672,6.09817 12.0469,14.58412 8.5704,8.89126 12.4052,15.39107 13.3695,22.66068 0.382,2.87942 0.4562,5.23531 0.1648,5.23531 -0.2914,0 -3.2475,-2.04293 -6.5691,-4.53984 z M 904.71428,620.08152 c 0,-1.76666 0.61958,-4.66016 1.37684,-6.43 1.80156,-4.21052 7.08037,-9.17138 8.69641,-8.17261 0.78538,0.48539 0.98107,0.35163 0.53692,-0.36701 -1.41043,-2.28212 10.72778,-6.88289 38.13983,-14.45619 l 12.25,-3.38439 0,2.25443 c 0,6.14609 -7.78102,10.42052 -29,15.93089 -14.07745,3.65579 -23.9024,8.37678 -28.42222,13.65717 l -3.57778,4.17983 0,-3.21212 z m 4.73059,-24.28879 c 0.14893,-4.5975 0.76733,-10.79357 1.3742,-13.76906 5.24487,-25.71516 26.31217,-36.84969 64.35057,-34.0107 10.42831,0.77832 12.35934,1.21326 15.71684,3.54001 2.10529,1.45896 3.8278,2.79912 3.8278,2.97812 0,1.60957 -11.60701,2.72542 -30,2.88408 -23.10368,0.19928 -29.31243,1.19117 -35.942,5.74198 -4.25924,2.92372 -8.11546,9.4514 -6.27425,10.62085 1.93422,1.22853 11.28306,-0.37381 25.16844,-4.31372 15.17467,-4.30575 25.13244,-6.41067 33.10594,-6.9981 5.02503,-0.3702 6.35618,-0.11824 7.98602,1.5116 1.07572,1.07572 1.95585,2.75572 1.95585,3.73334 0,2.69947 -2.99934,6.43674 -4.65569,5.80114 -0.7965,-0.30565 -1.20634,-0.16441 -0.91075,0.31386 0.29558,0.47827 -1.03627,1.93562 -2.95969,3.23855 -1.92341,1.30293 -4.03543,3.56964 -4.69338,5.03713 -1.10691,2.46885 -1.38618,2.57092 -3.73838,1.3663 -9.46349,-4.84648 -28.35191,-5.74581 -38.54211,-1.83509 -10.44343,4.0079 -19.70772,11.70075 -25.0201,20.77611 -0.73828,1.26124 -0.94529,-0.56667 -0.74931,-6.6164 z m 230.76943,-20.50879 c -15.6569,-3.32519 -24.4283,-13.2445 -26.0792,-29.49208 l -0.6748,-6.64178 9.5228,2.30218 c 24.6464,5.95835 44.8838,7.40023 57.6183,4.10518 7.4125,-1.918 16.189,-6.40798 20.9307,-10.70799 l 3.3178,-3.00875 -2.5529,-4.35611 c -3.4625,-5.90826 -13.7531,-15.02521 -20.6955,-18.33507 -3.133,-1.49373 -5.9222,-3.50338 -6.1982,-4.46588 -0.7285,-2.54055 5.5131,-2.31868 19.481,0.6925 13.7488,2.96395 24.7855,4.04338 32.0551,3.13511 5.3995,-0.67463 5.4698,-0.72802 10.5186,-7.99036 5.1892,-7.4642 11.8058,-13.70507 16.37,-15.4404 1.4023,-0.53314 4.9458,-1.27355 7.8745,-1.64535 l 5.3249,-0.67601 -0.627,9.33725 c -1.2665,18.85949 -7.402,35.58926 -18.5018,50.44886 -5.675,7.59733 -9.3319,11.53972 -23.382,25.20776 l -6.4961,6.31935 -15.9031,0.3707 c -8.7467,0.20388 -21.0781,0.84383 -27.4031,1.42209 -15.3227,1.40088 -26.0154,1.22075 -34.5,-0.5812 z m 99.0029,-11.45038 c 1.6484,-1.8848 5.2204,-6.00833 7.9378,-9.16341 5.3219,-6.17903 8.0741,-7.14284 9.522,-3.33453 0.972,2.55646 4.4028,4.0504 12.0373,5.24154 3.9418,0.61501 4.1899,0.79111 2,1.41977 -1.375,0.39471 -6.6704,2.33023 -11.7675,4.30113 -5.2915,2.04605 -12.1547,3.87927 -15.9971,4.27293 l -6.7296,0.68947 2.9971,-3.4269 z m 35.3096,-7.58303 c 0.7218,-0.28887 1.5844,-0.25335 1.9166,0.0789 0.3323,0.33229 -0.2583,0.56864 -1.3125,0.52522 -1.1649,-0.048 -1.4019,-0.28494 -0.6041,-0.60416 z m -264.4656,-5.30216 c -13.39921,-3.51257 -25.46837,-11.17815 -37.40725,-23.75876 -20.17126,-21.25548 -33.41224,-50.89323 -37.98702,-85.02766 -0.68344,-5.09942 -0.97254,-9.54176 -0.64244,-9.87185 0.33009,-0.3301 3.6481,-1.44534 7.37334,-2.47832 9.03137,-2.50432 19.70442,-2.44245 27.4267,0.159 11.80809,3.97786 17.31036,8.78447 35.39517,30.92011 6.047,7.40148 12.9428,14.93951 15.3239,16.75117 4.0129,3.05327 4.4858,3.18425 6.4725,1.79275 2.3324,-1.63367 10.2366,-2.05704 11.1392,-0.59664 0.3074,0.4975 -2.0285,2.35189 -5.191,4.12087 -7.6743,4.29272 -13.5872,9.19489 -18.3342,15.20035 -2.1537,2.72462 -3.9158,4.32713 -3.9158,3.56115 0,-0.76598 -1.7533,-4.96889 -3.8962,-9.3398 -2.7912,-5.69351 -5.6578,-9.64854 -10.1088,-13.9471 -3.87107,-3.73852 -8.31169,-9.58067 -11.78158,-15.5 -7.16992,-12.23125 -10.86913,-17.06908 -16.79802,-21.96843 -4.27376,-3.53162 -10.41542,-6.74201 -10.41542,-5.44437 0,0.26574 0.68814,1.5334 1.5292,2.81702 0.84106,1.28362 1.6711,4.9627 1.84453,8.17574 0.30135,5.58296 0.45152,5.87719 3.38789,6.63807 4.16984,1.08052 7.76429,5.63727 9.21414,11.68093 1.04082,4.33864 1.78549,5.35712 5.51487,7.54268 8.68457,5.0895 14.83202,14.23008 22.44179,33.3684 2.2546,5.67052 5.3927,12.87052 6.9734,16 2.9532,5.84683 10.457,15.1149 11.4541,14.14704 0.3076,-0.29861 -0.2601,-3.22361 -1.2615,-6.5 -1.0014,-3.2764 -2.1303,-7.24859 -2.5087,-8.82709 l -0.6881,-2.87002 4.1762,3.57466 c 4.5419,3.88767 15.6464,9.93165 25.9222,14.10891 3.575,1.4533 8.8761,3.80859 11.7803,5.23399 6.146,3.01647 5.9553,3.31601 -4.8147,7.56402 -12.9577,5.11095 -28.6996,6.15988 -41.6187,2.77318 z m 252.3184,-6.52213 c -2.659,-0.73071 -5.0902,-1.58417 -5.4026,-1.89658 -0.3124,-0.31241 0.6703,-1.54207 2.1838,-2.73258 7.3139,-5.75311 12.2343,-14.05846 15.6397,-26.39855 2.2825,-8.27128 7.9836,-42.45002 7.2804,-43.64699 -0.2204,-0.37515 -2.8871,-1.23853 -5.9261,-1.91862 -5.3305,-1.19293 -13.3495,-0.49711 -18.6941,1.62211 -1.4619,0.5797 -1.3361,-0.0295 0.7567,-3.66303 4.8535,-8.42691 7.6743,-19.40412 8.243,-32.07825 0.6113,-13.62293 -0.1339,-18.26927 -6.2445,-38.93352 -2.3833,-8.05938 -4.4836,-15.93438 -4.6674,-17.5 l -0.3342,-2.84659 10,0.0616 c 9.1701,0.0565 10.5647,0.33263 16.805,3.32732 7.4544,3.57741 18.1778,13.41037 17.253,15.8204 -0.2943,0.767 -0.1048,1.1286 0.4212,0.80353 1.332,-0.82324 7.2584,11.31946 10.4253,21.36057 1.4524,4.60538 3.3706,14.17313 4.2626,21.26166 1.5462,12.28772 1.5379,12.9809 -0.1777,14.87659 -0.9897,1.09358 -2.1989,1.98833 -2.6873,1.98833 -0.4883,0 -3.0527,-2.025 -5.6987,-4.5 -5.0129,-4.68905 -7.9782,-5.5607 -10.1235,-2.97583 -0.6957,0.83829 -1.0883,1.6445 -0.8724,1.79159 0.2158,0.14709 2.1925,1.42129 4.3925,2.83156 5.9972,3.84445 9.6025,7.97036 13.8723,15.87554 l 3.8545,7.13637 -4.6134,9.80803 c -2.5374,5.39442 -4.6134,10.09356 -4.6134,10.44254 0,1.50753 -9.292,24.22 -12.5795,30.74808 -4.697,9.32691 -12.1395,17.21764 -18.1815,19.27635 -5.4076,1.84255 -8.0427,1.8531 -14.5737,0.0584 z m -103.1653,-4.63789 c -3.3,-0.37468 -13.2,-2.57585 -22,-4.89149 l -16,-4.21024 -17,0.6292 c -9.35,0.34607 -23.4163,0.90945 -31.2584,1.25197 -15.2558,0.66632 -23.2915,-0.28907 -31.0653,-3.6934 -2.378,-1.04139 -4.0421,-2.34893 -3.698,-2.90564 0.3525,-0.5704 0.013,-0.77701 -0.7786,-0.47336 -3.4233,1.31362 -11.9094,-12.58477 -13.2158,-21.64456 -0.6574,-4.55904 -0.6345,-4.6049 4.4276,-8.84312 2.7987,-2.34317 5.0885,-4.94348 5.0885,-5.77848 0,-3.37918 13.5491,1.14906 36.2853,12.12687 18.9828,9.16557 31.8711,14.37999 47.5129,19.22315 15.2086,4.70902 30.9977,5.69461 40.916,2.55407 6.2743,-1.98671 15.8327,-6.98607 14.9825,-7.83632 -0.2532,-0.25318 -4.6431,-0.89306 -9.7553,-1.42197 -5.1123,-0.52891 -9.5155,-1.18209 -9.7849,-1.45152 -1.3222,-1.32222 1.7658,-1.98987 9.2035,-1.98987 6.8606,0 9.0023,0.42028 13.1667,2.58385 3.6707,1.90711 4.8969,3.0857 4.6816,4.5 -0.2438,1.60162 -0.1195,1.66993 0.7573,0.41615 0.8957,-1.28067 1.3499,-1.13445 3.1062,1 2.8851,3.50628 4.9282,8.42056 4.9282,11.85394 0,2.99354 -1.4547,4.08722 -9.5093,7.14959 -4.5891,1.74476 -14.348,2.6054 -20.9907,1.85118 z m 143.5,-5.8451 c 0,-2.76094 0.6376,-3.29618 8.3106,-6.9757 8.9799,-4.30625 22.3449,-12.89645 29.9159,-19.22809 2.7494,-2.2993 5.2194,-3.64828 5.9046,-3.22481 0.761,0.47038 0.9108,0.2959 0.4232,-0.49304 -0.4257,-0.68882 -0.094,-1.73688 0.7604,-2.4045 0.8332,-0.65091 2.0124,-3.65847 2.6203,-6.68347 1.6803,-8.36 6.0245,-14.94255 15.2781,-23.14997 11.2279,-9.9586 23.7869,-22.61766 23.7869,-23.97655 0,-0.61097 -1.4625,-0.004 -3.25,1.34898 -1.7875,1.35291 -7.75,5.5212 -13.25,9.26286 -11.9926,8.15859 -16.9335,12.27106 -21.2087,17.65268 l -3.2088,4.03913 -0.6615,-2.63578 c -1.7043,-6.79051 2.2058,-16.48463 8.8052,-21.8304 6.2715,-5.08015 9.6858,-6.60151 26.2674,-11.70457 l 14.9936,-4.61434 3.1234,-6.46319 c 3.5298,-7.30423 5.8773,-9.84091 7.5547,-8.16351 0.7741,0.77409 0.4725,1.93455 -1.0634,4.09154 -3.0214,4.24308 -4.9002,10.07652 -5.595,17.37102 -2.2114,23.21805 -4.7568,34.22897 -9.7211,42.05245 -5.1995,8.19423 -14.9949,12.05105 -24.9161,9.8105 l -4.6304,-1.04568 -7.3696,7.24836 c -8.9054,8.75878 -21.5612,17.37805 -36.9311,25.15205 -6.2912,3.18206 -11.8661,6.18356 -12.3886,6.67 -1.946,1.81165 -3.55,0.86009 -3.55,-2.10597 z m -190,-24.66262 c -14.2991,-1.28206 -28.9991,-6.15818 -35,-11.60978 -3.6247,-3.2929 -8,-8.72398 -8,-9.93043 0,-3.176 44.3787,5.76095 46.6206,9.38842 0.439,0.71027 -2.4946,0.81484 -9.2649,0.33026 -9.0512,-0.64783 -10.1212,-0.53475 -12.3815,1.30842 -2.2603,1.84308 -2.3181,2.07829 -0.6686,2.72017 2.9979,1.16658 33.7063,-0.28957 41.0486,-1.94647 9.5127,-2.14664 19.7211,-7.07628 24.2425,-11.70668 4.2434,-4.34561 4.1734,-4.63068 -0.5574,-2.27062 -4.4465,2.21819 -19.1138,1.3693 -28.0393,-1.62281 -6.6048,-2.21414 -26.6666,-11.65892 -27.447,-12.92162 -0.235,-0.38028 3.0319,-0.29905 7.2598,0.18051 19.2554,2.1841 41.7824,-2.58066 55.6174,-11.76381 23.0322,-15.2879 29.679,-40.88295 18.5128,-71.28715 -1.7966,-4.89183 -1.8109,-5.21496 -0.1919,-4.34757 3.8078,2.04018 11.2325,9.40344 14.5006,14.38071 5.9089,8.99922 6.7731,13.06254 7.748,36.43224 0.486,11.64943 1.185,22.78693 1.5533,24.75 0.5179,2.76057 0.3407,3.56922 -0.782,3.56922 -0.7984,0 -4.1171,1.33198 -7.375,2.95996 -4.1802,2.08887 -9.0094,6.0846 -16.4097,13.57743 -12.5427,12.6995 -19.6981,18.43364 -27.3158,21.88984 -3.1188,1.41503 -8.258,3.78269 -11.4205,5.26147 -5.0273,2.35078 -7.1326,2.71215 -16.75,2.87524 -6.05,0.10259 -13.025,0.005 -15.5,-0.21695 z m 81.25,-16.57584 c -7.9689,-1.05597 -8.7251,-2.03542 -5.845,-7.57081 2.2288,-4.28377 5.5509,-6.84137 14.6248,-11.25926 17.5288,-8.53437 18.4293,-10.29686 17.6998,-34.64053 -0.401,-13.38138 -0.933,-18.1234 -2.6138,-23.30055 -1.1606,-3.575 -1.8627,-7.16128 -1.5602,-7.96952 0.3026,-0.80823 0.2208,-1.14022 -0.1817,-0.73774 -0.4025,0.40248 -2.1492,-1.92105 -3.8815,-5.16341 -5.5003,-10.29451 -12.2753,-18.83066 -27.5976,-34.77171 -8.2443,-8.57709 -14.6174,-15.99747 -14.2502,-16.59167 0.379,-0.61321 0.1981,-0.78681 -0.421,-0.40415 -0.597,0.36895 -1.4109,0.14424 -1.8087,-0.49937 -1.3803,-2.23348 12.0247,0.0487 24.3827,4.15111 9.1563,3.03956 13.8306,4.03645 19.8403,4.23141 l 7.8621,0.25505 3.5179,7 c 1.9348,3.85 5.9293,13.075 8.8766,20.5 6.5461,16.49124 9.8024,22.4131 16.1341,29.34094 l 4.8827,5.34247 -0.9553,9.40829 c -2.1988,21.65468 -7.9171,37.63121 -20.3454,56.84334 l -4.5703,7.06496 -13.2702,-0.13407 c -7.2985,-0.0737 -16.5326,-0.56639 -20.5201,-1.09478 z m -89.4982,-3.67945 c -1.5114,-0.96915 -2.4114,-2.13341 -2,-2.58722 0.4115,-0.45382 0.1865,-0.50191 -0.5001,-0.10687 -1.1898,0.68466 -5.6851,-1.63089 -4.8287,-2.4873 0.2257,-0.22567 -0.5647,-0.4825 -1.7564,-0.57073 -1.1916,-0.0882 -4.6272,-0.87573 -7.6346,-1.75 -3.0073,-0.87427 -7.735,-1.58958 -10.5058,-1.58958 -4.53,0 -5.1625,-0.27732 -6.2729,-2.75 -0.6793,-1.5125 -6.4457,-8.81195 -12.8143,-16.221 -12.643,-14.70854 -19.203,-24.06867 -21.7464,-31.029 -1.669,-4.56752 -3.3149,-12.92184 -2.3624,-11.99116 4.013,3.92085 24.521,30.81948 24.1909,31.72916 -0.247,0.68091 -0.085,1.13091 0.3598,1 0.4449,-0.1309 5.7491,4.712 11.7872,10.762 17.6797,17.71453 34.8874,26.5 51.9044,26.5 8.7185,0 11.2433,1.27289 4.6775,2.35815 -7.6441,1.2635 -19.6023,0.59035 -22.4982,-1.26645 z m -56.2518,-8.33739 c -8.1869,-4.35595 -18.135,-14.57977 -22.6273,-23.25431 -8.0696,-15.58233 -11.179,-31.19963 -11.2492,-56.5 -0.068,-24.53122 4.5783,-62.29527 8.1561,-66.29029 0.8818,-0.98466 4.4255,-3.13719 7.8748,-4.78342 6.4231,-3.06544 12.3456,-7.39027 12.3456,-9.01518 0,-1.25079 -6.6412,-1.1359 -11.5,0.19893 -5.8959,1.61973 -11.7915,8.21624 -14.3325,16.0365 -1.1355,3.4944 -3.028,12.18177 -4.2055,19.30527 -1.9602,11.8574 -4.4614,20.70659 -6.9384,24.54819 -0.8247,1.27896 -1.1929,1.17971 -2.4985,-0.67347 -1.5928,-2.26079 -7.83127,-4.87339 -9.3684,-3.92339 -1.72531,1.0663 -3.40013,9.64807 -2.94769,15.10393 0.4076,4.91516 1.33911,6.84501 8.24906,17.08993 7.78333,11.53978 12.10483,20.49353 11.12443,23.04843 -0.8674,2.26048 -4.1193,1.54849 -12.08252,-2.64543 -7.92712,-4.17491 -10.35188,-4.74812 -12.21287,-2.88713 -2.01394,2.01394 -3.20501,-0.067 -6.81666,-11.90965 -1.96303,-6.43677 -4.89181,-15.31228 -6.5084,-19.72334 l -2.93926,-8.02013 1.531,-9.46594 c 7.90683,-48.88671 28.31912,-78.33539 61.69621,-89.00873 6.6096,-2.11361 6.75,-2.23019 6.75,-5.60392 0,-1.89497 0.6409,-4.97943 1.4243,-6.85437 2.0369,-4.87479 6.6292,-5.9739 25.0757,-6.00151 13.2978,-0.0199 15.6241,0.2332 20.5,2.2303 5.6724,2.32337 10.3354,5.90543 13.2999,10.21693 2.4346,3.5408 2.1694,4.02749 -2.1946,4.02749 -9.8442,0 -23.9633,6.98809 -33.497,16.57899 -5.9177,5.9532 -13.5496,17.32794 -16.6581,24.82773 -1.2552,3.0284 -2.545,5.34374 -2.8662,5.14522 -0.3212,-0.19853 -0.6364,0.60857 -0.7005,1.79355 -0.1834,3.39128 -2.7825,12.65451 -3.5506,12.65451 -0.3816,0 -0.8376,-0.96093 -1.0134,-2.1354 -0.1757,-1.17447 -1.3555,-2.81996 -2.6217,-3.65664 -1.2663,-0.83668 -2.1698,-1.11325 -2.0078,-0.6146 0.446,1.37343 -2.7615,5.50181 -3.6131,4.65028 -0.409,-0.409 -0.6322,-0.29364 -0.4961,0.25636 0.1361,0.55 -1.4041,4.38791 -3.4226,8.52869 -6.2925,12.90829 -7.758,27.09022 -3.6288,35.11779 1.4283,2.77687 7.0205,8.85352 8.1476,8.85352 0.4316,0 0.5131,-1.98181 0.1811,-4.40401 -0.7784,-5.6792 1.0923,-13.3938 4.1572,-17.14384 l 2.4127,-2.95215 0.028,7 c 0.035,8.5865 -1.3505,17.81718 -4.0225,26.80151 l -2.0228,6.80151 -3.0326,-2.5518 c -5.2633,-4.42871 -9.7062,-4.61034 -11.9129,-0.48703 -0.6408,1.19744 -0.7265,1.90604 -0.1903,1.57466 0.5382,-0.33263 1.2544,1.14541 1.5989,3.29979 0.9604,6.00647 7.9232,18.60798 15.781,28.56136 13.1323,16.63442 16.934,23.07996 20.2013,34.25 1.8464,6.31222 1.455,6.42661 -6.8565,2.00431 z m -123.23589,-8.00431 c -6.9789,-7.53301 -16.87598,-28.47466 -22.56677,-47.75 -3.76986,-12.76894 -11.68771,-49.34246 -11.69053,-54 -5.4e-4,-0.8882 3.15887,-2.99988 7.74613,-5.17737 9.80218,-4.65289 21.34236,-13.92657 32.62327,-26.21603 4.84933,-5.28288 9.19241,-9.3732 9.65127,-9.0896 0.45887,0.28359 1.15993,-0.0112 1.55791,-0.6552 0.45192,-0.73122 0.29014,-0.90292 -0.4309,-0.45729 -2.81417,1.73925 -0.40626,-1.37602 10.22069,-13.22318 11.90581,-13.27287 16.39704,-17.80626 16.94289,-17.10194 0.17929,0.23134 1.53727,2.53634 3.01774,5.12222 1.48047,2.58589 4.03556,5.49542 5.67797,6.46561 1.64241,0.9702 2.9862,2.49636 2.9862,3.39147 0,0.8951 -1.8,7.1687 -4,13.94131 -2.2,6.77261 -4,13.82137 -4,15.6639 l 0,3.35006 -7.01141,-0.65164 c -7.77784,-0.72287 -9.73318,0.19264 -11.976,5.60728 -0.96638,2.33305 -0.86422,3.40888 0.58665,6.17771 2.18704,4.17372 2.17513,14.26585 -0.0252,21.35269 -2.05995,6.63475 -2.03197,6.80908 1.33168,8.29798 4.03161,1.78456 7.89585,5.87321 10.57992,11.19432 2.44897,4.85503 6.89055,19.96484 6.10087,20.75452 -0.26425,0.26425 -4.66681,-0.3004 -9.78348,-1.25477 -11.0342,-2.05813 -26.5649,-2.34335 -32.66799,-0.59994 -5.0314,1.43726 -9.59411,5.46919 -8.73189,7.7161 0.32065,0.8356 1.49972,10.82808 2.62016,22.20553 1.12043,11.37744 2.43728,22.14876 2.92631,23.93626 1.05685,3.86293 0.99877,3.89739 -1.68549,1 z m 159.73589,-11.56428 c -7.8245,-2.04519 -14.6552,-5.89003 -18.7502,-10.554 -5.2233,-5.94899 -9.2949,-22.07711 -7.3806,-29.23511 1.1805,-4.41409 2.8162,-3.87644 4.0668,1.33677 1.7255,7.19255 8.2372,18.2196 13.8711,23.4894 2.7386,2.56164 4.8237,4.81303 4.6337,5.00309 -0.1901,0.19006 0.4205,0.43829 1.3568,0.55163 0.9363,0.11334 3.6149,0.48203 5.9524,0.81932 2.3375,0.33729 4.25,0.37066 4.25,0.0742 0,-0.29651 -2.4776,-3.83127 -5.5058,-7.85504 -9.8366,-13.07063 -16.3773,-27.58804 -18.9651,-42.09438 l -1.4667,-8.22156 2.5245,-2.25 c 4.8836,-4.35243 5.8981,-3.26083 6.0425,6.50193 0.2332,15.76262 4.2802,23.47333 21.8177,41.56891 8.7534,9.03194 16.5529,19.42198 16.5529,22.05089 0,1.39807 -22.6592,0.47138 -29,-1.18601 z m 48.5,-6.65327 c -2.75,-0.67026 -7.8901,-2.41426 -11.4224,-3.87555 -3.5324,-1.4613 -6.9501,-2.6569 -7.595,-2.6569 -1.9931,0 -4.2338,-3.24194 -6.5661,-9.5 -1.2299,-3.3 -3.7392,-7.5075 -5.5763,-9.35 -1.8371,-1.8425 -3.3402,-3.96973 -3.3402,-4.72717 0,-3.16321 5.2963,-15.08416 9.3929,-21.1417 7.4365,-10.99612 18.2609,-18.28113 27.1628,-18.28113 1.7596,0 3.731,0.64051 4.3807,1.42336 0.9663,1.1644 0.3063,1.92422 -3.6276,4.17622 -15.3388,8.78082 -26.3083,24.65042 -27.5022,39.78781 -0.2997,3.79935 -0.1739,3.96117 5.5553,7.14606 16.087,8.94276 35.7013,10.06821 45.2035,2.59371 1.4683,-1.15495 3.1793,-1.80889 3.8021,-1.45321 0.6229,0.35569 0.8291,0.30871 0.4584,-0.1044 -0.3708,-0.4131 0.8445,-2.74061 2.7006,-5.17223 1.8561,-2.43163 4.3629,-7.1313 5.5707,-10.44371 1.2077,-3.31241 2.6924,-5.85884 3.2993,-5.65872 0.6069,0.20012 1.2129,3.02813 1.3466,6.28448 0.2335,5.68405 0.1154,6.00055 -2.9553,7.92063 -1.7592,1.1 -4.5686,3.88857 -6.2432,6.19682 -1.6745,2.30825 -4.4698,6.17732 -6.2117,8.59793 -2.7399,3.80756 -4.0886,4.68214 -10,6.48493 -9.491,2.89445 -12.0976,3.15065 -17.8329,1.75277 z m -5.1943,-21.10042 c -1.5431,-1.41238 -2.1307,-2.36881 -1.3057,-2.1254 2.5208,0.74376 8.2394,-3.22176 13.5,-9.36138 5.891,-6.87545 9.2169,-8.68653 12.6592,-6.89354 3.2739,1.70522 3.2599,1.672 1.4598,3.4721 -0.9326,0.93263 -1.619,3.25503 -1.619,5.47781 0,3.74434 -0.082,3.83413 -2.75,3.02784 -1.5125,-0.45701 -4.416,-1.54763 -6.4521,-2.4236 l -3.7021,-1.59268 0.5893,4.97565 c 0.7336,6.19423 -0.5709,8.01117 -5.7518,8.01117 -2.7085,0 -4.6391,-0.74806 -6.6276,-2.56797 z m -79.4807,-7.47015 c -4.3095,-2.51443 -4.4333,-12.04653 -0.3321,-25.56552 2.0271,-6.68175 1.9469,-15.32341 -0.1701,-18.34588 -1.6031,-2.28874 -1.5783,-2.46425 0.5608,-3.97251 6.7328,-4.74724 7.4311,-5.62145 6.251,-7.82641 -1.5896,-2.97016 -1.4121,-7.41039 0.3996,-9.99692 1.9649,-2.80535 13.4658,-11.68677 13.4658,-10.39882 0,0.53499 -2.2093,7.01347 -4.9095,14.39662 -8.8199,24.11624 -12.0905,38.83846 -12.0905,54.42378 0,8.47797 -0.2294,9.00433 -3.175,7.28566 z m 73.925,-5.2048 c -2.0625,-2.32981 -3.75,-4.9801 -3.75,-5.88955 0,-2.14545 2.6686,-3.17352 3.3858,-1.30439 1.0073,2.62498 2.4761,1.49971 6.9353,-5.31314 7.97,-12.17693 14.628,-16.41788 22.4627,-14.3082 5.8769,1.58248 10.063,4.94068 13.8618,11.12023 5.6485,9.18869 5.5364,16.16712 -0.3025,18.82751 -3.6962,1.6841 -3.8695,1.49237 -3.4978,-3.87057 0.3057,-4.41186 0.01,-5.31855 -2.592,-7.91952 -1.6155,-1.6155 -4.9016,-3.4662 -7.3024,-4.11267 -5.511,-1.48396 -15.2597,-0.48575 -19.9509,2.04286 l -3.5,1.88653 4.691,0.0419 c 5.4163,0.0484 7.1601,1.52169 2.8269,2.38834 -2.2867,0.45734 -3.463,1.65336 -5.2338,5.32141 -1.2563,2.60232 -2.7341,4.86508 -3.2841,5.02837 -0.55,0.16328 -2.6875,-1.60932 -4.75,-3.93912 z m -34.2592,-0.1307 c -2.5289,-3.85961 -5.4908,-12.32154 -5.4908,-15.68677 0,-1.67141 0.6865,-4.36658 1.5257,-5.98927 1.3812,-2.67108 1.9995,-2.95034 6.5321,-2.95034 2.7535,0 6.567,-0.65204 8.4743,-1.44897 1.9073,-0.79694 3.4679,-1.35944 3.4679,-1.25 0,0.10943 -1.3973,4.47397 -3.105,9.69897 -3.3084,10.12254 -5.0935,14.10828 -7.9756,17.80758 l -1.7979,2.30759 -1.6307,-2.48879 z m 158.208,-27.37633 c -1.0951,-14.20032 -6.829,-24.78349 -17.943,-33.11771 -2.8907,-2.1677 -13.4076,-8.04871 -23.3709,-13.06891 -19.5645,-9.85799 -27.8331,-16.03332 -32.7873,-24.48706 -1.4287,-2.43788 -2.5976,-4.6376 -2.5976,-4.88826 0,-0.70355 13.8208,2.09468 19.4642,3.94082 6.9405,2.27047 17.1595,7.38164 25.248,12.6281 14.1785,9.19663 25.7229,22.29529 31.502,35.74297 2.9046,6.75896 3.226,8.48806 3.252,17.5 0.038,13.10729 -1.891,17.11501 -2.7674,5.75005 z m -79.6988,1.46164 c -1.925,-2.80004 -4.3354,-5.87117 -5.3564,-6.82474 -1.081,-1.00967 -1.5386,-2.24793 -1.0955,-2.96487 0.4913,-0.79491 0.3473,-0.97548 -0.4064,-0.50964 -0.6663,0.41176 -2.8722,-0.73783 -5.139,-2.67809 -4.909,-4.20194 -11.7733,-7.98481 -20.3401,-11.20937 -6.1189,-2.30314 -6.584,-2.34798 -7.1116,-0.68561 -0.3105,0.97829 -3.824,3.59602 -7.8078,5.81718 -5.5817,3.1121 -7.48,4.74868 -8.2755,7.13454 -0.7926,2.3771 -1.3731,2.8805 -2.5,2.1678 -2.8526,-1.80414 -10.5008,-1.04875 -15.3188,1.51298 l -4.6489,2.47186 0,-2.63432 c 0,-1.44887 -1.4289,-4.86095 -3.1752,-7.58239 -3.7211,-5.79879 -3.4491,-6.68228 3.5125,-11.40955 7.6795,-5.21485 17.1939,-7.2034 49.1627,-10.27525 6.05,-0.58134 11.8804,-1.16616 12.9565,-1.2996 1.5183,-0.18829 2.8139,1.43698 5.7851,7.25738 5.951,11.65761 10.5204,18.29671 14.2812,20.75 1.897,1.2375 3.8847,2.25 4.4171,2.25 0.5325,0 -0.1318,2.3625 -1.4762,5.25 -1.3443,2.8875 -2.4486,5.78594 -2.454,6.44098 -0.023,2.79987 -1.7377,1.78012 -5.0097,-2.97929 z m -98.9558,-13.89631 c -0.1806,-15.0553 9.4214,-36.04926 22.2465,-48.64032 4.7422,-4.65563 6.4788,-5.63369 13.8166,-7.78126 22.6552,-6.63058 48.7791,-5.17907 61.3927,3.41114 4.0666,2.76952 8.4994,9.89121 8.5006,13.65695 6e-4,1.82408 -0.522,2.00189 -4.9765,1.69318 -5.001,-0.34658 -7.0801,0.62931 -8.2296,3.86279 -0.2898,0.81518 0.9484,3.30973 2.7516,5.54346 1.8032,2.23373 5.6081,8.42123 8.4553,13.75 4.5335,8.48467 4.9354,9.68868 3.2337,9.68868 -3.3491,0 -6.9845,-4.48193 -11.7596,-14.49798 -4.1964,-8.80202 -4.9909,-9.84246 -8.8044,-11.52936 -3.7749,-1.6698 -5.4782,-1.76306 -17.1251,-0.93768 -16.3869,1.1613 -27.9568,3.32728 -37.5643,7.03231 -7.3406,2.83086 -15.7447,7.55287 -18.6974,10.50552 -0.7951,0.79507 -1.9718,1.14429 -2.6149,0.77606 -0.6432,-0.36824 -0.8309,-0.29639 -0.4172,0.15965 1.0086,1.11189 -2.2436,4.61487 -3.5404,3.81339 -0.6036,-0.37308 -0.7133,-0.13335 -0.2684,0.58659 0.4139,0.66964 0.087,1.97667 -0.7265,2.90451 -0.8134,0.92785 -2.4126,3.48699 -3.5537,5.68699 l -2.0748,4 -0.044,-3.68462 z m 184.4372,-20.24197 c -6.0145,-2.55489 -11.2968,-10.36072 -16.1269,-23.83127 -1.4282,-3.98318 -3.2311,-8.48404 -4.0064,-10.00192 -1.3806,-2.70306 -1.4722,-2.72741 -4.4551,-1.18492 -2.7592,1.42686 -3.2688,1.42849 -5.4225,0.0174 -1.3969,-0.9153 -2.643,-2.97525 -3.0221,-4.99581 -0.3548,-1.89107 -1.2758,-3.68035 -2.0467,-3.97619 -0.771,-0.29583 -1.4017,-1.38013 -1.4017,-2.40954 0,-1.02942 -1.3784,-4.63001 -3.063,-8.00132 -3.1352,-6.27394 -9.1012,-12.77687 -15.0776,-16.43447 -5.7479,-3.51775 -17.8558,-7.37837 -30.3594,-9.68013 -29.7288,-5.47269 -34.4133,-6.47956 -41,-8.81222 -3.85,-1.36347 -8.5117,-3.39751 -10.3593,-4.52009 -3.0646,-1.86201 -3.1969,-2.13196 -1.5078,-3.07719 3.3693,-1.88555 22.1508,-2.0471 30.8671,-0.26551 11.3476,2.31946 35.6792,10.07242 34.7658,11.0777 -0.4212,0.46352 -0.2196,0.5291 0.4481,0.14572 0.6677,-0.38338 3.8177,-0.0508 7,0.73913 12.3582,3.06747 21.3552,3.86156 30.1303,2.65932 4.5893,-0.62876 9.4268,-1.55481 10.75,-2.05788 2.1957,-0.83478 2.4058,-0.66329 2.4058,1.96359 0,2.12068 0.9797,3.66421 3.7223,5.86438 3.5429,2.84225 3.7107,3.2444 3.4824,8.34699 -0.132,2.94848 0.032,6.61151 0.3635,8.14007 0.5403,2.48818 0.9349,2.72157 3.7676,2.22881 1.7403,-0.30272 3.7359,-0.17108 4.4347,0.29252 3.0153,2.0004 11.9418,55.92177 9.6309,58.17589 -0.52,0.50723 -2.1786,0.33671 -3.92,-0.40301 z m -190.1235,-24.32341 c 0.9893,-8.98303 7.5067,-21.03246 15.1786,-28.06238 14.6998,-13.46971 38.8243,-21.9607 64.4635,-22.68891 35.9836,-1.02202 62.1211,12.64546 65.5828,34.29377 0.37,2.31414 0.4402,4.20752 0.1559,4.20752 -0.2843,0 -3.6017,-1.80265 -7.3721,-4.0059 -14.7537,-8.62157 -28.5057,-12.2792 -46.3666,-12.33217 -26.8297,-0.0796 -53.4945,8.82643 -79.8316,26.66361 -6.2323,4.22096 -11.5818,7.67446 -11.8876,7.67446 -0.3059,0 -0.2712,-2.5875 0.077,-5.75 z M 931.74777,302.79411 c -0.11151,-5.4584 5.38673,-28.5032 9.6036,-40.2516 1.40337,-3.90988 2.7648,-7.81292 3.02538,-8.67342 0.40654,-1.34244 1.41394,-1.42936 7.09637,-0.61228 7.76926,1.11714 17.28449,-0.27434 24.24116,-3.54496 4.89641,-2.302 11.77477,-7.26065 13.7283,-9.89682 1.51589,-2.0456 6.61535,-3.09055 15.77172,-3.23185 5.8835,-0.0908 8.2658,0.43429 14.9365,3.29218 7.6805,3.29054 18.5929,10.07485 22.9443,14.26457 l 2.1192,2.04053 -2.2795,-1.17439 c -1.2538,-0.64592 -7.9263,-1.83516 -14.8278,-2.64276 -12.2085,-1.42861 -20.3927,-4.04088 -20.3927,-6.50901 0,-0.57128 -0.4764,-0.7443 -1.0586,-0.38448 -0.6072,0.37529 -0.7865,1.89271 -0.4205,3.55902 0.3509,1.59764 0.2789,2.9048 -0.16,2.9048 -0.4389,0 -3.0622,-2.2026 -5.8295,-4.89466 -2.76727,-2.69206 -6.04392,-5.19739 -7.28142,-5.56739 -2.12282,-0.6347 -2.25,-0.39039 -2.25,4.3223 0,13.16657 3.58018,27.89061 10.10092,41.54175 l 3.25,6.80367 -3.9255,3.30701 -3.92542,3.30701 -2.24626,-6.59356 c -4.80305,-14.09859 -14.58347,-29.09978 -22.67041,-34.77183 -1.60416,-1.12514 -2.91666,-2.81264 -2.91666,-3.75 0,-0.93737 -0.12839,-1.7043 -0.2853,-1.7043 -0.15691,0 -1.7468,2.1375 -3.5331,4.75 -1.7863,2.6125 -7.55891,9.25 -12.82802,14.75 -11.46963,11.97222 -15.21019,17.20796 -17.91692,25.07868 -1.11999,3.25673 -2.05141,5.18353 -2.06984,4.28179 z m 0.82907,-58.06415 c -5.17943,-3.26978 -15.24097,-15.36783 -14.46425,-17.39191 0.3402,-0.88655 1.17726,-1.3834 1.86012,-1.1041 5.13018,2.09832 5.27756,2.1185 4.0028,0.54799 -0.68132,-0.83939 -5.40632,-2.76255 -10.5,-4.27369 -22.26058,-6.60405 -26.16301,-8.63927 -27.73102,-14.46243 -0.56891,-2.11275 -0.75241,-5.25118 -0.40779,-6.97429 0.35722,-1.78607 0.14689,-3.71093 -0.48924,-4.47742 -0.61371,-0.73947 -0.84145,-1.61887 -0.5061,-1.95422 0.33536,-0.33535 0.0609,-5.09002 -0.60989,-10.56592 -0.79531,-6.49233 -0.88484,-10.55441 -0.25735,-11.67567 0.75476,-1.34869 1.34099,-0.17411 2.71845,5.44675 1.63383,6.66699 1.63544,10.07249 0.007,14.28129 -0.51326,1.32633 0.7161,2.38476 5.67997,4.89024 6.97865,3.52242 10.56538,6.00433 18.92381,13.09472 6.79053,5.76035 27.51954,28.69117 27.13641,30.01881 -0.15112,0.52371 0.12096,0.70761 0.60464,0.40868 1.01627,-0.62809 5.78622,4.1121 4.96465,4.93367 -1.78743,1.78743 -7.54377,1.39645 -10.93195,-0.7425 z m 21.59589,0.2207 c -2.77285,-1.1007 -7.6466,-4.32311 -10.83054,-7.16092 -6.93502,-6.18108 -15.62791,-18.207 -15.62791,-21.61996 0,-3.76957 5.32922,-13.88391 11.97961,-22.73614 7.21115,-9.59866 10.09993,-15.1966 11.54551,-22.37321 l 1.08233,-5.37321 4.41162,5.37321 c 5.41763,6.59851 9.72457,10.65707 12.11406,11.41546 1.72744,0.54827 1.72016,0.73872 -0.16234,4.25106 -4.45481,8.31172 -1.73931,23.56614 7.52921,42.29555 3.025,6.11277 5.5,11.50931 5.5,11.99231 0,0.483 -1.9125,1.85847 -4.25,3.05659 -6.09115,3.12212 -16.63838,3.52028 -23.29155,0.87926 z m 42.48172,-15.41935 c 0.95419,-1.70372 2.15772,-4.37184 2.67452,-5.92915 0.84093,-2.53409 1.46773,-2.868 5.96803,-3.17918 5.389,-0.37263 8.597,0.74278 6.9089,2.40219 -0.5454,0.53615 -2.7916,1.11739 -4.9916,1.29164 -2.2,0.17426 -3.8875,0.65433 -3.75,1.06683 0.3526,1.05794 -0.1981,1.04521 10.5049,0.24278 6.9734,-0.52282 10.6089,-0.37761 12.75,0.50925 1.6473,0.68234 2.9951,1.56662 2.9951,1.96507 0,0.39845 -6.0015,0.99573 -13.3366,1.32728 -7.3351,0.33156 -15.1639,1.23241 -17.39731,2.0019 l -4.06083,1.39906 1.73489,-3.09767 z m -9.07039,-7.59767 c -1.95362,-6.18292 -2.36978,-9.64212 -2.36978,-19.6981 0,-7.57917 0.41892,-12.61775 1.10633,-13.30633 1.88304,-1.88628 6.982,3.31246 8.27144,8.43329 2.10105,8.34402 1.02063,27.57114 -1.54929,27.57114 -0.76611,0 -1.77453,1.0125 -2.24093,2.25 -0.72123,1.91364 -1.20226,1.12882 -3.21777,-5.25 z m -7.19278,-0.78495 c -4.32168,-9.62998 -4.99969,-14.97948 -4.39909,-34.70872 0.30148,-9.90348 1.09462,-21.5115 1.76252,-25.7956 0.66791,-4.28409 0.90757,-8.09606 0.5326,-8.47104 -1.36113,-1.36113 -2.54372,2.39325 -2.60191,8.26031 l -0.0595,6 -2.05505,-4 c -5.67097,-11.03811 -10.50406,-15.17118 -20.83128,-17.81411 -2.98442,-0.76377 -5.58178,-1.85535 -5.7719,-2.42573 -0.61161,-1.83482 8.07486,-5.26076 13.31233,-5.25039 9.78546,0.0194 22.51112,8.70658 27.05413,18.46857 l 2.31681,4.97834 -2.41472,2.52166 c -3.51504,3.67073 -6.2837,10.60304 -7.58542,18.99282 -1.22729,7.91011 -0.22632,22.11172 2.59946,36.88077 0.79017,4.12982 1.28347,7.66195 1.09623,7.84919 -0.18724,0.18724 -1.51708,-2.28149 -2.95521,-5.48607 z m -64.50452,-11.46505 c -2.22409,-1.7875 -4.31503,-3.89432 -4.64653,-4.68183 -0.74846,-1.77803 3.10076,-4.99082 10.47405,-8.74227 3.025,-1.53909 7.94481,-5.15973 10.93291,-8.04588 2.9881,-2.88615 5.62964,-5.0508 5.87009,-4.81035 1.578,1.578 -8.93517,18.18471 -10.78743,17.03995 -0.43437,-0.26845 -0.72887,0.0696 -0.65445,0.75114 0.21995,2.01427 -4.74817,11.73924 -5.99713,11.73924 -0.63124,0 -2.96742,-1.4625 -5.19151,-3.25 z m 0.003,-22.67595 c -1.35639,-3.89088 -4.30954,-5.67004 -12.60461,-7.5938 -8.18656,-1.89859 -12.12576,-3.77966 -13.57128,-6.48064 -0.8811,-1.64635 0.0821,-1.38385 5.72036,1.55901 4.39019,2.29144 8.7778,3.74413 12.44834,4.12153 l 5.6685,0.58283 2.06754,-6.88149 c 2.33502,-7.77178 5.64563,-13.77754 7.09942,-12.87905 0.53709,0.33194 0.72138,-0.0547 0.41128,-0.86275 -0.64585,-1.68307 7.99247,-8.49403 13.58477,-10.71103 5.27215,-2.09008 13.66321,-1.6742 19.6787,0.97532 6.47676,2.85269 8.7286,5.29945 8.87962,9.64823 0.067,1.92891 1.51537,5.6559 3.33647,8.58545 1.76996,2.84727 3.44767,6.56859 3.72823,8.2696 0.45557,2.76201 0.38124,2.87887 -0.6951,1.09274 -0.66287,-1.1 -4.07309,-4.84695 -7.57827,-8.32655 -3.50519,-3.4796 -6.07327,-6.81163 -5.70685,-7.40451 0.38501,-0.62295 0.20022,-0.78995 -0.4378,-0.39564 -0.61148,0.37792 -2.08858,-0.64939 -3.31095,-2.30274 l -2.20695,-2.98506 -2.97928,2.5069 c -3.34063,2.81095 -6.27358,2.64874 -12.91798,-0.71444 -2.04059,-1.03288 -4.0855,-1.87796 -4.54424,-1.87796 -0.45875,0 -2.6954,1.73565 -4.97035,3.857 -4.4597,4.15861 -4.45959,4.15311 -0.22216,10.87683 1.24753,1.97951 1.19666,2.43492 -0.44679,4 -1.78691,1.7017 -1.83217,1.66997 -1.24012,-0.86941 0.80986,-3.47355 -1.28604,-5.37472 -3.85464,-3.49652 -2.23025,1.6308 -2.26598,6.27249 -0.0808,10.49813 1.87138,3.61884 2.02273,7.28052 0.36928,8.93397 -2.09394,2.09394 -4.55612,1.33837 -5.62434,-1.72595 z m 11.92298,-1.88971 c -3.73163,-6.9726 3.0482,-13.62882 11.90134,-11.68434 4.84872,1.06496 3.71276,3.23984 -3.47102,6.64554 -2.73406,1.29617 -5.50216,3.42204 -6.15134,4.72417 -1.16755,2.34187 -1.19222,2.34527 -2.27898,0.31463 z m 15.54256,-12.59461 c -3.08675,-2.5248 -8.87159,-4.58973 -12.85803,-4.58973 -2.38174,0 -2.43935,-0.14513 -1.38929,-3.5 1.32069,-4.21955 2.08644,-4.36334 3.99404,-0.75 l 1.45181,2.75 1.05537,-2.75 c 0.58046,-1.5125 1.27948,-2.75 1.55338,-2.75 0.2739,0 2.49638,0.97089 4.93886,2.15754 4.24343,2.06161 4.4558,2.37286 4.77675,7.00062 0.18474,2.66369 0.11089,4.82662 -0.16411,4.8065 -0.275,-0.0201 -1.78645,-1.08884 -3.35878,-2.37493 z"
       id="path4277"
       inkscape:connector-curvature="0" />
  </g>
</svg>
