  0
SECTION
  2
HEADER
  9
$ACADVER
  1
AC1014
  9
$HANDSEED
  5
FFFF
  9
$MEASUREMENT
 70
     1
  0
ENDSEC
  0
SECTION
  2
TABLES
  0
TABLE
  2
VPORT
  5
8
330
0
100
AcDbSymbolTable
 70
     4
  0
VPORT
  5
2E
330
8
100
AcDbSymbolTableRecord
100
AcDbViewportTableRecord
  2
*ACTIVE
 70
     0
 10
0.0
 20
0.0
 11
1.0
 21
1.0
 12
210.0
 22
148.5
 13
0.0
 23
0.0
 14
10.0
 24
10.0
 15
10.0
 25
10.0
 16
0.0
 26
0.0
 36
1.0
 17
0.0
 27
0.0
 37
0.0
 40
341.0
 41
1.24
 42
50.0
 43
0.0
 44
0.0
 50
0.0
 51
0.0
 71
     0
 72
   100
 73
     1
 74
     3
 75
     0
 76
     0
 77
     0
 78
     0
  0
ENDTAB
  0
TABLE
  2
LTYPE
  5
5
330
0
100
AcDbSymbolTable
 70
     1
  0
LTYPE
  5
14
330
5
100
AcDbSymbolTableRecord
100
AcDbLinetypeTableRecord
  2
BYBLOCK
 70
     0
  3

 72
    65
 73
     0
 40
0.0
  0
LTYPE
  5
15
330
5
100
AcDbSymbolTableRecord
100
AcDbLinetypeTableRecord
  2
BYLAYER
 70
     0
  3

 72
    65
 73
     0
 40
0.0
  0
LTYPE
  5
16
330
5
100
AcDbSymbolTableRecord
100
AcDbLinetypeTableRecord
  2
CONTINUOUS
 70
     0
  3
Solid line
 72
    65
 73
     0
 40
0.0
  0
ENDTAB
  0
TABLE
  2
LAYER
  5
2
100
AcDbSymbolTable
 70
2
  0
LAYER
  5
50
100
AcDbSymbolTableRecord
100
AcDbLayerTableRecord
  2
0
 70
0
  6
CONTINUOUS
  0
LAYER
  5
51
100
AcDbSymbolTableRecord
100
AcDbLayerTableRecord
  2
Layer_1
 70
0
  6
CONTINUOUS
  0
ENDTAB
  0
TABLE
  2
STYLE
  5
3
330
0
100
AcDbSymbolTable
 70
     1
  0
STYLE
  5
11
330
3
100
AcDbSymbolTableRecord
100
AcDbTextStyleTableRecord
  2
STANDARD
 70
     0
 40
0.0
 41
1.0
 50
0.0
 71
     0
 42
2.5
  3
txt
  4

  0
ENDTAB
  0
TABLE
  2
VIEW
  5
6
330
0
100
AcDbSymbolTable
 70
     0
  0
ENDTAB
  0
TABLE
  2
UCS
  5
7
330
0
100
AcDbSymbolTable
 70
     0
  0
ENDTAB
  0
TABLE
  2
APPID
  5
9
330
0
100
AcDbSymbolTable
 70
     2
  0
APPID
  5
12
330
9
100
AcDbSymbolTableRecord
100
AcDbRegAppTableRecord
  2
ACAD
 70
     0
  0
ENDTAB
  0
TABLE
  2
DIMSTYLE
  5
A
330
0
100
AcDbSymbolTable
 70
     1
  0
DIMSTYLE
105
27
330
A
100
AcDbSymbolTableRecord
100
AcDbDimStyleTableRecord
  2
ISO-25
 70
     0
  3

  4

  5

  6

  7

 40
1.0
 41
2.5
 42
0.625
 43
3.75
 44
1.25
 45
0.0
 46
0.0
 47
0.0
 48
0.0
140
2.5
141
2.5
142
0.0
143
0.03937007874016
144
1.0
145
0.0
146
1.0
147
0.625
 71
     0
 72
     0
 73
     0
 74
     0
 75
     0
 76
     0
 77
     1
 78
     8
170
     0
171
     3
172
     1
173
     0
174
     0
175
     0
176
     0
177
     0
178
     0
270
     2
271
     2
272
     2
273
     2
274
     3
340
11
275
     0
280
     0
281
     0
282
     0
283
     0
284
     8
285
     0
286
     0
287
     3
288
     0
  0
ENDTAB
  0
TABLE
  2
BLOCK_RECORD
  5
1
330
0
100
AcDbSymbolTable
 70
     1
  0
BLOCK_RECORD
  5
1F
330
1
100
AcDbSymbolTableRecord
100
AcDbBlockTableRecord
  2
*MODEL_SPACE
  0
BLOCK_RECORD
  5
1B
330
1
100
AcDbSymbolTableRecord
100
AcDbBlockTableRecord
  2
*PAPER_SPACE
  0
ENDTAB
  0
ENDSEC
  0
SECTION
  2
BLOCKS
  0
BLOCK
  5
20
330
1F
100
AcDbEntity
  8
0
100
AcDbBlockBegin
  2
*MODEL_SPACE
 70
     0
 10
0.0
 20
0.0
 30
0.0
  3
*MODEL_SPACE
  1

  0
ENDBLK
  5
21
330
1F
100
AcDbEntity
  8
0
100
AcDbBlockEnd
  0
BLOCK
  5
1C
330
1B
100
AcDbEntity
 67
     1
  8
0
100
AcDbBlockBegin
  2
*PAPER_SPACE
  1

  0
ENDBLK
  5
1D
330
1B
100
AcDbEntity
 67
     1
  8
0
100
AcDbBlockEnd
  0
ENDSEC
  0
SECTION
  2
ENTITIES
  0
SPLINE
  5
100
100
AcDbEntity
  8
Layer_1
 62
5
100
AcDbSpline
 70
0
 71
3
 72
139
 73
135
 74
133
 40
0.000000
 40
0.000000
 40
0.000000
 40
0.000000
 40
0.345903
 40
1.136487
 40
2.824376
 40
4.746455
 40
7.181507
 40
9.602355
 40
11.881251
 40
13.944814
 40
15.347543
 40
16.212826
 40
16.866917
 40
17.175782
 40
17.691823
 40
18.901111
 40
20.546558
 40
22.270384
 40
23.685960
 40
24.491979
 40
25.130183
 40
26.099507
 40
27.195465
 40
28.448315
 40
29.833744
 40
31.059682
 40
32.776843
 40
35.447236
 40
38.494801
 40
48.269583
 40
58.438457
 40
65.632235
 40
67.699710
 40
70.852613
 40
76.222916
 40
78.770829
 40
80.967405
 40
82.337363
 40
86.538192
 40
90.989762
 40
95.012940
 40
96.442697
 40
98.143344
 40
99.755567
 40
101.543943
 40
102.937590
 40
104.425225
 40
108.663063
 40
112.984577
 40
117.602247
 40
119.361946
 40
121.249241
 40
122.858090
 40
124.323458
 40
125.133094
 40
125.547674
 40
126.527099
 40
128.201467
 40
130.540511
 40
131.992840
 40
133.509255
 40
134.764465
 40
136.954156
 40
139.387766
 40
142.811998
 40
144.983014
 40
146.991078
 40
148.980266
 40
152.798573
 40
155.183818
 40
158.613613
 40
160.945559
 40
161.500441
 40
163.270901
 40
167.648762
 40
171.993520
 40
175.125390
 40
176.423498
 40
177.879374
 40
179.184555
 40
180.444083
 40
181.774787
 40
182.889809
 40
184.426659
 40
185.700885
 40
187.387313
 40
189.970919
 40
193.221686
 40
196.160923
 40
198.508769
 40
200.756362
 40
202.588138
 40
203.416988
 40
204.572011
 40
205.803167
 40
207.354906
 40
209.355887
 40
211.376754
 40
214.100454
 40
217.036248
 40
221.350164
 40
222.002494
 40
222.549430
 40
222.941218
 40
223.318630
 40
223.827109
 40
224.877527
 40
227.674773
 40
231.570118
 40
235.248973
 40
236.410520
 40
237.483104
 40
238.239394
 40
241.560586
 40
246.512210
 40
250.067780
 40
251.420372
 40
253.365256
 40
255.485379
 40
257.545942
 40
259.336018
 40
260.475702
 40
261.481207
 40
262.901151
 40
264.428536
 40
266.028481
 40
267.639545
 40
268.914501
 40
270.059700
 40
271.335058
 40
272.471305
 40
278.410261
 40
285.870488
 40
290.969282
 40
290.969282
 40
290.969282
 40
290.969282
 10
0.275133
 20
0.350658
 30
0.0
 10
0.220076
 20
0.461533
 30
0.0
 10
0.039182
 20
0.825820
 30
0.0
 10
0.936720
 20
1.559890
 30
0.0
 10
1.836189
 20
2.549849
 30
0.0
 10
3.370776
 20
3.934711
 30
0.0
 10
4.995368
 20
5.478975
 30
0.0
 10
6.729470
 20
7.113925
 30
0.0
 10
8.385609
 20
8.642011
 30
0.0
 10
9.812874
 20
9.918705
 30
0.0
 10
10.930424
 20
10.836252
 30
0.0
 10
11.687857
 20
11.442468
 30
0.0
 10
12.172049
 20
11.825837
 30
0.0
 10
12.442257
 20
12.241657
 30
0.0
 10
12.924398
 20
12.723173
 30
0.0
 10
13.800062
 20
13.427088
 30
0.0
 10
15.007735
 20
14.360625
 30
0.0
 10
16.263402
 20
15.343130
 30
0.0
 10
17.277165
 20
16.184032
 30
0.0
 10
17.939594
 20
16.871278
 30
0.0
 10
18.450449
 20
17.494174
 30
0.0
 10
19.128518
 20
18.092720
 30
0.0
 10
19.992302
 20
18.782084
 30
0.0
 10
20.939103
 20
19.591433
 30
0.0
 10
21.847651
 20
20.508089
 30
0.0
 10
22.755450
 20
21.630475
 30
0.0
 10
23.943998
 20
23.075684
 30
0.0
 10
25.614929
 20
24.907779
 30
0.0
 10
29.179793
 20
28.642212
 30
0.0
 10
34.240712
 20
34.424702
 30
0.0
 10
39.567593
 20
41.690466
 30
0.0
 10
43.468093
 20
46.969536
 30
0.0
 10
44.797343
 20
50.918184
 30
0.0
 10
45.134436
 20
54.449869
 30
0.0
 10
45.358942
 20
58.126883
 30
0.0
 10
45.560075
 20
61.493266
 30
0.0
 10
45.681734
 20
63.528036
 30
0.0
 10
45.945342
 20
66.104079
 30
0.0
 10
45.787891
 20
69.471382
 30
0.0
 10
44.592180
 20
73.578198
 30
0.0
 10
42.833554
 20
76.410123
 30
0.0
 10
41.329301
 20
78.261170
 30
0.0
 10
40.489138
 20
79.604729
 30
0.0
 10
39.671843
 20
81.095848
 30
0.0
 10
39.004488
 20
82.551099
 30
0.0
 10
38.553881
 20
84.049604
 30
0.0
 10
38.328460
 20
86.419724
 30
0.0
 10
38.477137
 20
89.789346
 30
0.0
 10
39.663123
 20
94.063632
 30
0.0
 10
41.385241
 20
97.206429
 30
0.0
 10
42.825882
 20
99.553839
 30
0.0
 10
43.668181
 20
101.089472
 30
0.0
 10
44.391142
 20
102.583648
 30
0.0
 10
44.959313
 20
103.728270
 30
0.0
 10
45.365519
 20
104.562594
 30
0.0
 10
46.125894
 20
104.878697
 30
0.0
 10
46.873437
 20
103.836380
 30
0.0
 10
47.370311
 20
102.370587
 30
0.0
 10
47.683375
 20
100.524159
 30
0.0
 10
47.938406
 20
98.783012
 30
0.0
 10
48.215609
 20
97.398639
 30
0.0
 10
48.645355
 20
95.803963
 30
0.0
 10
49.129296
 20
93.891415
 30
0.0
 10
49.040771
 20
91.186291
 30
0.0
 10
48.657139
 20
88.540523
 30
0.0
 10
48.191905
 20
86.046837
 30
0.0
 10
47.638120
 20
84.063817
 30
0.0
 10
46.720699
 20
81.622301
 30
0.0
 10
45.462766
 20
79.188557
 30
0.0
 10
45.164767
 20
75.839287
 30
0.0
 10
46.565002
 20
73.506804
 30
0.0
 10
46.514090
 20
71.037663
 30
0.0
 10
48.204670
 20
70.329889
 30
0.0
 10
48.402891
 20
73.679019
 30
0.0
 10
50.135184
 20
76.062963
 30
0.0
 10
51.783579
 20
79.867685
 30
0.0
 10
53.379338
 20
82.296444
 30
0.0
 10
54.614318
 20
83.825629
 30
0.0
 10
55.351336
 20
84.962686
 30
0.0
 10
56.001489
 20
86.135354
 30
0.0
 10
56.580601
 20
87.297348
 30
0.0
 10
57.183667
 20
88.377230
 30
0.0
 10
57.867695
 20
89.509668
 30
0.0
 10
58.582822
 20
90.631542
 30
0.0
 10
58.735560
 20
92.178257
 30
0.0
 10
58.121106
 20
93.942400
 30
0.0
 10
57.721592
 20
96.423441
 30
0.0
 10
57.583780
 20
99.347272
 30
0.0
 10
57.681277
 20
102.203439
 30
0.0
 10
58.235960
 20
104.662343
 30
0.0
 10
58.919998
 20
106.697343
 30
0.0
 10
59.692637
 20
108.152443
 30
0.0
 10
60.458357
 20
109.168913
 30
0.0
 10
61.077708
 20
110.043356
 30
0.0
 10
61.824730
 20
111.123125
 30
0.0
 10
62.817108
 20
112.372713
 30
0.0
 10
64.043745
 20
113.769200
 30
0.0
 10
65.604170
 20
115.387816
 30
0.0
 10
67.388710
 20
117.227094
 30
0.0
 10
69.387461
 20
119.895083
 30
0.0
 10
70.751837
 20
122.146532
 30
0.0
 10
71.843615
 20
123.631198
 30
0.0
 10
72.248013
 20
123.982561
 30
0.0
 10
72.660372
 20
124.164298
 30
0.0
 10
73.134387
 20
124.038072
 30
0.0
 10
73.266498
 20
123.327791
 30
0.0
 10
73.375026
 20
121.934966
 30
0.0
 10
73.108091
 20
119.311595
 30
0.0
 10
72.574551
 20
115.917386
 30
0.0
 10
71.899159
 20
113.076038
 30
0.0
 10
71.393312
 20
111.172490
 30
0.0
 10
71.184041
 20
110.195156
 30
0.0
 10
71.060429
 20
108.480546
 30
0.0
 10
70.259170
 20
105.551627
 30
0.0
 10
68.959030
 20
101.864038
 30
0.0
 10
67.886097
 20
98.692233
 30
0.0
 10
66.430941
 20
96.915650
 30
0.0
 10
65.248746
 20
95.553697
 30
0.0
 10
63.832779
 20
94.080856
 30
0.0
 10
62.463715
 20
92.636099
 30
0.0
 10
61.380315
 20
91.373255
 30
0.0
 10
60.610518
 20
90.305674
 30
0.0
 10
60.081997
 20
89.238841
 30
0.0
 10
59.414671
 20
88.102609
 30
0.0
 10
58.642437
 20
86.798321
 30
0.0
 10
57.851237
 20
85.431361
 30
0.0
 10
57.135654
 20
84.117569
 30
0.0
 10
56.559916
 20
82.903199
 30
0.0
 10
56.001896
 20
81.804673
 30
0.0
 10
55.381736
 20
80.791258
 30
0.0
 10
53.665741
 20
78.594347
 30
0.0
 10
51.599163
 20
74.168084
 30
0.0
 10
49.351173
 20
68.384197
 30
0.0
 10
48.868205
 20
64.211367
 30
0.0
 10
48.672126
 20
62.517254
 30
0.0
 11
0.275133
 21
0.350658
 31
0.0
 11
0.160175
 21
0.676899
 31
0.0
 11
0.622979
 21
1.317864
 31
0.0
 11
1.827355
 21
2.500424
 31
0.0
 11
3.228536
 21
3.816129
 31
0.0
 11
5.002878
 21
5.483818
 31
0.0
 11
6.766244
 21
7.142446
 31
0.0
 11
8.442592
 21
8.686216
 31
0.0
 11
9.988804
 21
10.052789
 31
0.0
 11
11.070133
 21
10.946308
 31
0.0
 11
11.745376
 21
11.487383
 31
0.0
 11
12.226983
 21
11.929976
 31
0.0
 11
12.410688
 21
12.178270
 31
0.0
 11
12.763599
 21
12.554771
 31
0.0
 11
13.688798
 21
13.333477
 31
0.0
 11
14.985983
 21
14.345804
 31
0.0
 11
16.339109
 21
15.413805
 31
0.0
 11
17.410958
 21
16.338465
 31
0.0
 11
17.969481
 21
16.919600
 31
0.0
 11
18.390284
 21
17.399423
 31
0.0
 11
19.101083
 21
18.058477
 31
0.0
 11
19.947994
 21
18.754081
 31
0.0
 11
20.894525
 21
19.574882
 31
0.0
 11
21.866485
 21
20.562154
 31
0.0
 11
22.653453
 21
21.502158
 31
0.0
 11
23.750909
 21
22.822851
 31
0.0
 11
25.536855
 21
24.808146
 31
0.0
 11
27.624642
 21
27.028236
 31
0.0
 11
34.039792
 21
34.403344
 31
0.0
 11
40.178099
 21
42.510575
 31
0.0
 11
43.973761
 21
48.621498
 31
0.0
 11
44.619509
 21
50.585540
 31
0.0
 11
45.050386
 21
53.708863
 31
0.0
 11
45.414743
 21
59.066791
 31
0.0
 11
45.567078
 21
61.610146
 31
0.0
 11
45.717176
 21
63.801588
 31
0.0
 11
45.832542
 21
65.166680
 31
0.0
 11
45.631477
 21
69.362695
 31
0.0
 11
44.357161
 21
73.627972
 31
0.0
 11
42.275943
 21
77.071008
 31
0.0
 11
41.407897
 21
78.207097
 31
0.0
 11
40.488259
 21
79.637645
 31
0.0
 11
39.716129
 21
81.052946
 31
0.0
 11
38.992463
 21
82.688366
 31
0.0
 11
38.606654
 21
84.027546
 31
0.0
 11
38.433502
 21
85.505070
 31
0.0
 11
38.633696
 21
89.738177
 31
0.0
 11
39.784712
 21
93.903588
 31
0.0
 11
41.889906
 21
98.013458
 31
0.0
 11
42.791707
 21
99.524514
 31
0.0
 11
43.697986
 21
101.179973
 31
0.0
 11
44.412535
 21
102.621435
 31
0.0
 11
45.059713
 21
103.936146
 31
0.0
 11
45.529075
 21
104.595850
 31
0.0
 11
45.918487
 21
104.738102
 31
0.0
 11
46.652037
 21
104.089120
 31
0.0
 11
47.274658
 21
102.534819
 31
0.0
 11
47.720845
 21
100.238726
 31
0.0
 11
47.947815
 21
98.804243
 31
0.0
 11
48.250168
 21
97.318276
 31
0.0
 11
48.562446
 21
96.102531
 31
0.0
 11
49.012431
 21
93.959575
 31
0.0
 11
49.014481
 21
91.525966
 31
0.0
 11
48.569163
 21
88.130814
 31
0.0
 11
48.149688
 21
86.000708
 31
0.0
 11
47.608578
 21
84.066924
 31
0.0
 11
46.910772
 21
82.204148
 31
0.0
 11
45.530882
 21
78.643899
 31
0.0
 11
45.395503
 21
76.262499
 31
0.0
 11
46.386332
 21
72.978941
 31
0.0
 11
47.198733
 21
70.793083
 31
0.0
 11
47.719271
 21
70.600900
 31
0.0
 11
48.394877
 21
72.237385
 31
0.0
 11
50.083440
 21
76.276496
 31
0.0
 11
52.060310
 21
80.145464
 31
0.0
 11
53.774738
 21
82.766408
 31
0.0
 11
54.563928
 21
83.797070
 31
0.0
 11
55.363450
 21
85.013761
 31
0.0
 11
56.000210
 21
86.153075
 31
0.0
 11
56.578652
 21
87.271920
 31
0.0
 11
57.225285
 21
88.434951
 31
0.0
 11
57.800116
 21
89.390378
 31
0.0
 11
58.506150
 21
90.755451
 31
0.0
 11
58.642158
 21
92.022398
 31
0.0
 11
58.258972
 21
93.664715
 31
0.0
 11
57.799837
 21
96.207198
 31
0.0
 11
57.625198
 21
99.453270
 31
0.0
 11
57.789662
 21
102.387902
 31
0.0
 11
58.282698
 21
104.683398
 31
0.0
 11
59.027395
 21
106.804034
 31
0.0
 11
59.905073
 21
108.411854
 31
0.0
 11
60.390118
 21
109.083958
 31
0.0
 11
61.061396
 21
110.023886
 31
0.0
 11
61.773579
 21
111.028147
 31
0.0
 11
62.732482
 21
112.248147
 31
0.0
 11
64.050564
 21
113.753664
 31
0.0
 11
65.442468
 21
115.218760
 31
0.0
 11
67.297558
 21
117.213047
 31
0.0
 11
69.078287
 21
119.547119
 31
0.0
 11
71.479116
 21
123.131236
 31
0.0
 11
71.884406
 21
123.642386
 31
0.0
 11
72.306293
 21
123.990453
 31
0.0
 11
72.676388
 21
124.119013
 31
0.0
 11
73.037080
 21
124.007925
 31
0.0
 11
73.222338
 21
123.534395
 31
0.0
 11
73.314475
 21
122.488026
 31
0.0
 11
73.126108
 21
119.697129
 31
0.0
 11
72.511587
 21
115.850562
 31
0.0
 11
71.681512
 21
112.266577
 31
0.0
 11
71.395103
 21
111.140895
 31
0.0
 11
71.190829
 21
110.087942
 31
0.0
 11
71.112911
 21
109.335677
 31
0.0
 11
70.375624
 21
106.097356
 31
0.0
 11
68.808744
 21
101.400178
 31
0.0
 11
67.379737
 21
98.144412
 31
0.0
 11
66.553446
 21
97.073549
 31
0.0
 11
65.274942
 21
95.607942
 31
0.0
 11
63.821014
 21
94.064889
 31
0.0
 11
62.415140
 21
92.558424
 31
0.0
 11
61.262614
 21
91.188733
 31
0.0
 11
60.612951
 21
90.252347
 31
0.0
 11
60.134860
 21
89.367774
 31
0.0
 11
59.432124
 21
88.133916
 31
0.0
 11
58.656883
 21
86.817897
 31
0.0
 11
57.859041
 21
85.431076
 31
0.0
 11
57.097055
 21
84.011603
 31
0.0
 11
56.535890
 21
82.866786
 31
0.0
 11
56.008893
 21
81.850048
 31
0.0
 11
55.336481
 21
80.766351
 31
0.0
 11
54.664226
 21
79.850310
 31
0.0
 11
51.869805
 21
74.609852
 31
0.0
 11
49.432321
 21
67.559060
 31
0.0
 11
48.672126
 21
62.517254
 31
0.0
  0
LWPOLYLINE
  5
101
100
AcDbEntity
  8
Layer_1
 62
5
100
AcDbPolyline
 90
3
 70
1
 10
48.672126
 20
62.517254
 30
0.0
 10
48.863995
 20
61.494509
 30
0.0
 10
50.492965
 20
64.020093
 30
0.0
  0
SPLINE
  5
102
100
AcDbEntity
  8
Layer_1
 62
5
100
AcDbSpline
 70
0
 71
3
 72
133
 73
129
 74
127
 40
0.000000
 40
0.000000
 40
0.000000
 40
0.000000
 40
1.771126
 40
3.527512
 40
4.891925
 40
7.497650
 40
10.537394
 40
14.251916
 40
15.272963
 40
16.429662
 40
17.476123
 40
20.382129
 40
24.310827
 40
28.130486
 40
30.629125
 40
32.351332
 40
33.919765
 40
35.131448
 40
35.848407
 40
36.545108
 40
39.492920
 40
43.725410
 40
48.377685
 40
53.013935
 40
57.672873
 40
63.651095
 40
66.364668
 40
69.472532
 40
74.010119
 40
79.683089
 40
83.234770
 40
85.817704
 40
86.971414
 40
88.272239
 40
91.672229
 40
94.312110
 40
97.023162
 40
99.223575
 40
101.159851
 40
102.471078
 40
103.347461
 40
104.100343
 40
105.114903
 40
106.188447
 40
110.399749
 40
115.927345
 40
119.524813
 40
121.535241
 40
124.616839
 40
129.005337
 40
132.260093
 40
134.025879
 40
134.798850
 40
135.321645
 40
136.501972
 40
138.100286
 40
141.176775
 40
143.667382
 40
146.675356
 40
147.995516
 40
149.017206
 40
149.523079
 40
149.944313
 40
151.267522
 40
154.325686
 40
156.628267
 40
158.449473
 40
159.799628
 40
163.935380
 40
169.454656
 40
173.512589
 40
175.710593
 40
177.398201
 40
179.237869
 40
180.646379
 40
182.589267
 40
185.134569
 40
187.398773
 40
189.281156
 40
190.380882
 40
196.050692
 40
204.436118
 40
210.305077
 40
211.591010
 40
213.217794
 40
214.839375
 40
217.257551
 40
219.026825
 40
219.892545
 40
220.263204
 40
221.682431
 40
224.578703
 40
226.746414
 40
229.180346
 40
231.355468
 40
233.665033
 40
235.639608
 40
237.763800
 40
242.321400
 40
246.977042
 40
253.211136
 40
255.059721
 40
256.734136
 40
257.872284
 40
258.910355
 40
260.336753
 40
261.851589
 40
265.552707
 40
267.528221
 40
269.109963
 40
272.067410
 40
275.363176
 40
279.545359
 40
282.065895
 40
284.803799
 40
287.169798
 40
289.032701
 40
290.382003
 40
290.971505
 40
292.467965
 40
295.448998
 40
298.792027
 40
302.223910
 40
306.603390
 40
310.482398
 40
312.443205
 40
313.997231
 40
316.335069
 40
316.335069
 40
316.335069
 40
316.335069
 10
50.492965
 20
64.020093
 30
0.0
 10
50.821428
 20
64.510591
 30
0.0
 10
51.475622
 20
65.487505
 30
0.0
 10
52.433245
 20
66.809429
 30
0.0
 10
53.664378
 20
68.267436
 30
0.0
 10
55.087591
 20
70.132925
 30
0.0
 10
56.409987
 20
72.983457
 30
0.0
 10
57.166195
 20
75.461615
 30
0.0
 10
57.793043
 20
77.324454
 30
0.0
 10
58.223388
 20
78.309518
 30
0.0
 10
58.967111
 20
79.847061
 30
0.0
 10
60.730621
 20
81.837770
 30
0.0
 10
63.264005
 20
84.315379
 30
0.0
 10
65.952506
 20
86.438502
 30
0.0
 10
68.181012
 20
87.928508
 30
0.0
 10
69.661472
 20
89.174964
 30
0.0
 10
70.597119
 20
90.374913
 30
0.0
 10
71.262843
 20
91.283313
 30
0.0
 10
72.287776
 20
91.662740
 30
0.0
 10
72.956556
 20
90.045206
 30
0.0
 10
72.223174
 20
87.554043
 30
0.0
 10
71.358754
 20
83.682831
 30
0.0
 10
69.676632
 20
79.493196
 30
0.0
 10
67.358619
 20
75.408881
 30
0.0
 10
63.480135
 20
71.969754
 30
0.0
 10
59.490902
 20
70.001868
 30
0.0
 10
56.064960
 20
68.001482
 30
0.0
 10
53.814993
 20
65.321565
 30
0.0
 10
51.439052
 20
61.567027
 30
0.0
 10
49.068387
 20
57.700447
 30
0.0
 10
47.443538
 20
53.936113
 30
0.0
 10
47.311071
 20
51.710120
 30
0.0
 10
47.881172
 20
49.603095
 30
0.0
 10
50.050650
 20
51.045673
 30
0.0
 10
51.467793
 20
52.593691
 30
0.0
 10
53.716134
 20
54.600675
 30
0.0
 10
55.622109
 20
56.209295
 30
0.0
 10
57.458211
 20
57.579832
 30
0.0
 10
58.940470
 20
58.614183
 30
0.0
 10
60.025506
 20
59.489519
 30
0.0
 10
60.542245
 20
60.330673
 30
0.0
 10
60.986880
 20
61.092546
 30
0.0
 10
61.638591
 20
61.790403
 30
0.0
 10
63.228370
 20
63.159059
 30
0.0
 10
65.939408
 20
65.546266
 30
0.0
 10
69.023887
 20
68.719310
 30
0.0
 10
71.825166
 20
71.237284
 30
0.0
 10
73.147862
 20
73.844690
 30
0.0
 10
74.162837
 20
76.848039
 30
0.0
 10
75.053800
 20
80.263124
 30
0.0
 10
76.008740
 20
83.381150
 30
0.0
 10
76.414443
 20
85.054837
 30
0.0
 10
77.368239
 20
86.113455
 30
0.0
 10
77.885543
 20
85.226963
 30
0.0
 10
78.355413
 20
84.348546
 30
0.0
 10
79.147263
 20
82.505789
 30
0.0
 10
80.064399
 20
80.311484
 30
0.0
 10
81.980737
 20
78.105110
 30
0.0
 10
83.926885
 20
76.935248
 30
0.0
 10
85.512719
 20
76.047034
 30
0.0
 10
86.214375
 20
75.501724
 30
0.0
 10
86.914208
 20
75.172936
 30
0.0
 10
86.626935
 20
74.302442
 30
0.0
 10
84.801518
 20
74.165436
 30
0.0
 10
82.837223
 20
73.354678
 30
0.0
 10
80.495954
 20
72.730422
 30
0.0
 10
78.787535
 20
72.093511
 30
0.0
 10
76.619215
 20
70.960653
 30
0.0
 10
73.919667
 20
68.420112
 30
0.0
 10
70.548710
 20
65.360448
 30
0.0
 10
67.799321
 20
62.537007
 30
0.0
 10
66.248552
 20
60.385878
 30
0.0
 10
64.816094
 20
59.089346
 30
0.0
 10
63.325243
 20
58.373212
 30
0.0
 10
61.854510
 20
57.455194
 30
0.0
 10
60.366691
 20
56.160963
 30
0.0
 10
58.767695
 20
54.577950
 30
0.0
 10
57.172302
 20
53.020711
 30
0.0
 10
55.892125
 20
51.822945
 30
0.0
 10
53.535227
 20
50.156998
 30
0.0
 10
49.624785
 20
46.939931
 30
0.0
 10
44.960981
 20
42.224706
 30
0.0
 10
41.387656
 20
38.424750
 30
0.0
 10
39.835775
 20
35.940997
 30
0.0
 10
38.885676
 20
34.753415
 30
0.0
 10
37.662699
 20
33.356048
 30
0.0
 10
36.210196
 20
31.843727
 30
0.0
 10
35.495225
 20
30.770551
 30
0.0
 10
34.413115
 20
29.552479
 30
0.0
 10
35.522013
 20
29.486884
 30
0.0
 10
36.784808
 20
30.270297
 30
0.0
 10
38.874452
 20
31.014412
 30
0.0
 10
41.161739
 20
31.987940
 30
0.0
 10
43.286393
 20
32.768768
 30
0.0
 10
45.471295
 20
33.502512
 30
0.0
 10
47.522463
 20
34.163938
 30
0.0
 10
49.465482
 20
35.067395
 30
0.0
 10
51.910856
 20
36.603857
 30
0.0
 10
54.992935
 20
38.806819
 30
0.0
 10
58.696720
 20
42.407179
 30
0.0
 10
61.414317
 20
45.672303
 30
0.0
 10
63.508249
 20
48.160515
 30
0.0
 10
64.509576
 20
49.349000
 30
0.0
 10
65.395944
 20
50.278849
 30
0.0
 10
66.121678
 20
51.238903
 30
0.0
 10
66.803070
 20
52.379134
 30
0.0
 10
67.813808
 20
54.350465
 30
0.0
 10
68.794481
 20
56.533037
 30
0.0
 10
69.949579
 20
58.676169
 30
0.0
 10
71.414158
 20
60.293539
 30
0.0
 10
73.481561
 20
61.937122
 30
0.0
 10
76.766532
 20
63.208089
 30
0.0
 10
80.057071
 20
63.768375
 30
0.0
 10
83.159494
 20
64.281302
 30
0.0
 10
85.653212
 20
64.809200
 30
0.0
 10
87.885092
 20
65.378378
 30
0.0
 10
89.726498
 20
65.886060
 30
0.0
 10
90.859417
 20
66.129057
 30
0.0
 10
92.243434
 20
66.316318
 30
0.0
 10
91.113937
 20
63.846414
 30
0.0
 10
89.940544
 20
62.206522
 30
0.0
 10
87.705769
 20
59.533917
 30
0.0
 10
84.705335
 20
57.408255
 30
0.0
 10
81.445568
 20
55.239612
 30
0.0
 10
78.469542
 20
53.594778
 30
0.0
 10
76.245492
 20
52.502997
 30
0.0
 10
74.321461
 20
52.094755
 30
0.0
 10
73.022240
 20
52.072008
 30
0.0
 10
72.241799
 20
52.058344
 30
0.0
 11
50.492965
 21
64.020093
 31
0.0
 11
51.487516
 21
65.485615
 31
0.0
 11
52.528986
 21
66.899910
 31
0.0
 11
53.391903
 21
67.956791
 31
0.0
 11
54.925209
 21
70.063632
 31
0.0
 11
56.254427
 21
72.797352
 31
0.0
 11
57.454749
 21
76.312590
 31
0.0
 11
57.791579
 21
77.276479
 31
0.0
 11
58.245446
 21
78.340414
 31
0.0
 11
58.718089
 21
79.274057
 31
0.0
 11
60.519099
 21
81.554678
 31
0.0
 11
63.338916
 21
84.290239
 31
0.0
 11
66.333254
 21
86.661681
 31
0.0
 11
68.364502
 21
88.116752
 31
0.0
 11
69.657613
 21
89.254233
 31
0.0
 11
70.655818
 21
90.464013
 31
0.0
 11
71.509297
 21
91.324100
 31
0.0
 11
72.209485
 21
91.478262
 31
0.0
 11
72.578553
 21
90.887347
 31
0.0
 11
72.367048
 21
87.947132
 31
0.0
 11
71.285879
 21
83.855061
 31
0.0
 11
69.577266
 21
79.527902
 31
0.0
 11
67.159492
 21
75.571997
 31
0.0
 11
63.723599
 21
72.425515
 31
0.0
 11
58.550203
 21
69.429667
 31
0.0
 11
56.271958
 21
67.955529
 31
0.0
 11
54.174549
 21
65.662127
 31
0.0
 11
51.653973
 21
61.889013
 31
0.0
 11
48.823855
 21
56.972406
 31
0.0
 11
47.555819
 21
53.654799
 31
0.0
 11
47.519607
 21
51.072119
 31
0.0
 11
48.004101
 21
50.025069
 31
0.0
 11
49.208875
 21
50.515644
 31
0.0
 11
51.736783
 21
52.789322
 31
0.0
 11
53.691956
 21
54.563096
 31
0.0
 11
55.774536
 21
56.298799
 31
0.0
 11
57.533653
 21
57.620662
 31
0.0
 11
59.100179
 21
58.758714
 31
0.0
 11
60.071245
 21
59.639820
 31
0.0
 11
60.560387
 21
60.366997
 31
0.0
 11
60.962504
 21
61.003498
 31
0.0
 11
61.636385
 21
61.761928
 31
0.0
 11
62.436138
 21
62.478093
 31
0.0
 11
65.573950
 21
65.286865
 31
0.0
 11
69.538199
 21
69.139014
 31
0.0
 11
71.995140
 21
71.766791
 31
0.0
 11
72.948966
 21
73.536548
 31
0.0
 11
73.992432
 21
76.436104
 31
0.0
 11
75.194391
 21
80.656791
 31
0.0
 11
76.093467
 21
83.784906
 31
0.0
 11
76.780584
 21
85.411520
 31
0.0
 11
77.398860
 21
85.875436
 31
0.0
 11
77.737485
 21
85.477129
 31
0.0
 11
78.292373
 21
84.435366
 31
0.0
 11
78.943395
 21
82.975647
 31
0.0
 11
80.301723
 21
80.215261
 31
0.0
 11
81.934986
 21
78.334950
 31
0.0
 11
84.431635
 21
76.657256
 31
0.0
 11
85.563957
 21
75.978530
 31
0.0
 11
86.418493
 21
75.418515
 31
0.0
 11
86.810240
 21
75.098450
 31
0.0
 11
86.716404
 21
74.687800
 31
0.0
 11
85.495404
 21
74.177856
 31
0.0
 11
82.559150
 21
73.323004
 31
0.0
 11
80.356891
 21
72.650739
 31
0.0
 11
78.656584
 21
71.998247
 31
0.0
 11
77.462911
 21
71.367325
 31
0.0
 11
74.258113
 21
68.753187
 31
0.0
 11
70.228707
 21
64.981411
 31
0.0
 11
67.465770
 21
62.009375
 31
0.0
 11
66.080557
 21
60.302798
 31
0.0
 11
64.812274
 21
59.189479
 31
0.0
 11
63.214527
 21
58.277568
 31
0.0
 11
62.024265
 21
57.524456
 31
0.0
 11
60.531733
 21
56.280606
 31
0.0
 11
58.698971
 21
54.514383
 31
0.0
 11
57.074341
 21
52.937298
 31
0.0
 11
55.667401
 21
51.686743
 31
0.0
 11
54.782748
 21
51.033454
 31
0.0
 11
50.380281
 21
47.460635
 31
0.0
 11
44.392347
 21
41.590370
 31
0.0
 11
40.590052
 21
37.119661
 31
0.0
 11
39.877378
 21
36.049279
 31
0.0
 11
38.879463
 21
34.764526
 31
0.0
 11
37.812351
 21
33.543545
 31
0.0
 11
36.199532
 21
31.741770
 31
0.0
 11
35.107765
 21
30.349514
 31
0.0
 11
34.706244
 21
29.582539
 31
0.0
 11
35.072796
 21
29.527512
 31
0.0
 11
36.411447
 21
29.998914
 31
0.0
 11
39.080688
 21
31.122987
 31
0.0
 11
41.089170
 21
31.938446
 31
0.0
 11
43.370466
 21
32.786805
 31
0.0
 11
45.430688
 21
33.484399
 31
0.0
 11
47.610971
 21
34.246279
 31
0.0
 11
49.400419
 21
35.081035
 31
0.0
 11
51.216244
 21
36.183293
 31
0.0
 11
54.893953
 21
38.875165
 31
0.0
 11
58.265654
 21
42.085560
 31
0.0
 11
62.356009
 21
46.790124
 31
0.0
 11
63.545839
 21
48.204894
 31
0.0
 11
64.640094
 21
49.472281
 31
0.0
 11
65.401873
 21
50.317902
 31
0.0
 11
66.030240
 21
51.144186
 31
0.0
 11
66.774736
 21
52.360878
 31
0.0
 11
67.474180
 21
53.704569
 31
0.0
 11
69.084751
 21
57.036886
 31
0.0
 11
70.084291
 21
58.740873
 31
0.0
 11
71.126412
 21
59.930786
 31
0.0
 11
73.463515
 21
61.743089
 31
0.0
 11
76.508286
 21
63.004614
 31
0.0
 11
80.602675
 21
63.857039
 31
0.0
 11
83.086182
 21
64.287501
 31
0.0
 11
85.764996
 21
64.853251
 31
0.0
 11
88.059167
 21
65.431808
 31
0.0
 11
89.861356
 21
65.903532
 31
0.0
 11
91.184328
 21
66.168788
 31
0.0
 11
91.773779
 21
66.176590
 31
0.0
 11
91.481314
 21
64.708988
 31
0.0
 11
89.883808
 21
62.192137
 31
0.0
 11
87.660266
 21
59.695800
 31
0.0
 11
84.945377
 21
57.596466
 31
0.0
 11
81.277276
 21
55.203794
 31
0.0
 11
77.886244
 21
53.320287
 31
0.0
 11
76.092563
 21
52.528152
 31
0.0
 11
74.575979
 21
52.189085
 31
0.0
 11
72.241799
 21
52.058344
 31
0.0
  0
LWPOLYLINE
  5
103
100
AcDbEntity
  8
Layer_1
 62
5
100
AcDbPolyline
 90
3
 70
1
 10
72.241799
 20
52.058344
 30
0.0
 10
68.996244
 20
51.945396
 30
0.0
 10
67.302911
 20
49.804153
 30
0.0
  0
SPLINE
  5
104
100
AcDbEntity
  8
Layer_1
 62
5
100
AcDbSpline
 70
0
 71
3
 72
10
 73
6
 74
4
 40
0.000000
 40
0.000000
 40
0.000000
 40
0.000000
 40
1.559886
 40
3.025268
 40
4.079045
 40
4.079045
 40
4.079045
 40
4.079045
 10
67.302911
 20
49.804153
 30
0.0
 10
66.981811
 20
49.395187
 30
0.0
 10
66.359066
 20
48.602032
 30
0.0
 10
65.527971
 20
47.525839
 30
0.0
 10
65.026391
 20
46.852366
 30
0.0
 10
64.816578
 20
46.570649
 30
0.0
 11
67.302911
 21
49.804153
 31
0.0
 11
66.341302
 21
48.575922
 31
0.0
 11
65.448064
 21
47.414255
 31
0.0
 11
64.816578
 21
46.570649
 31
0.0
  0
LWPOLYLINE
  5
105
100
AcDbEntity
  8
Layer_1
 62
5
100
AcDbPolyline
 90
3
 70
1
 10
64.816578
 20
46.570649
 30
0.0
 10
64.023581
 20
45.478387
 30
0.0
 10
66.368800
 20
45.675417
 30
0.0
  0
SPLINE
  5
106
100
AcDbEntity
  8
Layer_1
 62
5
100
AcDbSpline
 70
0
 71
3
 72
43
 73
39
 74
37
 40
0.000000
 40
0.000000
 40
0.000000
 40
0.000000
 40
1.540726
 40
3.321262
 40
4.959553
 40
9.450827
 40
14.132820
 40
17.065057
 40
18.064373
 40
19.508505
 40
21.088962
 40
25.754036
 40
29.868182
 40
35.571321
 40
38.116309
 40
40.224587
 40
42.619281
 40
44.360089
 40
45.654768
 40
46.223569
 40
46.628022
 40
47.579348
 40
49.081399
 40
53.998072
 40
59.048263
 40
63.699163
 40
67.179168
 40
69.922231
 40
72.744463
 40
75.131772
 40
77.536407
 40
82.505978
 40
87.300059
 40
92.337929
 40
96.635110
 40
99.083962
 40
102.490594
 40
105.381051
 40
105.381051
 40
105.381051
 40
105.381051
 10
66.368800
 20
45.675417
 30
0.0
 10
66.879252
 20
45.732782
 30
0.0
 10
67.979607
 20
45.856442
 30
0.0
 10
69.608956
 20
46.142563
 30
0.0
 10
72.186698
 20
46.696792
 30
0.0
 10
75.637201
 20
47.796961
 30
0.0
 10
79.357014
 20
49.262435
 30
0.0
 10
82.125933
 20
50.263339
 30
0.0
 10
83.422508
 20
51.517651
 30
0.0
 10
84.346943
 20
52.487664
 30
0.0
 10
86.006763
 20
54.434945
 30
0.0
 10
88.289855
 20
57.118097
 30
0.0
 10
92.880210
 20
59.027537
 30
0.0
 10
97.017397
 20
59.263217
 30
0.0
 10
100.459191
 20
59.502271
 30
0.0
 10
102.780724
 20
59.923747
 30
0.0
 10
104.764754
 20
60.498004
 30
0.0
 10
106.517838
 20
61.117411
 30
0.0
 10
107.614711
 20
61.284865
 30
0.0
 10
108.430480
 20
61.762472
 30
0.0
 10
108.817081
 20
61.061082
 30
0.0
 10
108.230844
 20
60.187692
 30
0.0
 10
107.133007
 20
58.067698
 30
0.0
 10
104.438374
 20
55.196422
 30
0.0
 10
100.635482
 20
52.156392
 30
0.0
 10
96.616756
 20
50.264380
 30
0.0
 10
93.111754
 20
49.316943
 30
0.0
 10
90.093343
 20
48.958181
 30
0.0
 10
87.459132
 20
49.268561
 30
0.0
 10
84.932691
 20
49.846019
 30
0.0
 10
81.745257
 20
48.848848
 30
0.0
 10
78.112076
 20
47.115636
 30
0.0
 10
73.503522
 20
45.320810
 30
0.0
 10
69.105045
 20
43.637251
 30
0.0
 10
65.245906
 20
42.775559
 30
0.0
 10
62.203007
 20
41.261264
 30
0.0
 10
59.756801
 20
39.658530
 30
0.0
 10
58.167791
 20
38.284522
 30
0.0
 10
57.438411
 20
37.653832
 30
0.0
 11
66.368800
 21
45.675417
 31
0.0
 11
67.898171
 21
45.862135
 31
0.0
 11
69.653232
 21
46.162245
 31
0.0
 11
71.254022
 21
46.510772
 31
0.0
 11
75.550239
 21
47.819993
 31
0.0
 11
79.935503
 21
49.460274
 31
0.0
 11
82.571751
 21
50.744100
 31
0.0
 11
83.310540
 21
51.417022
 31
0.0
 11
84.306050
 21
52.463193
 31
0.0
 11
85.342758
 21
53.656123
 31
0.0
 11
88.650681
 21
56.945584
 31
0.0
 11
92.407078
 21
58.623586
 31
0.0
 11
98.065133
 21
59.339271
 31
0.0
 11
100.600227
 21
59.563460
 31
0.0
 11
102.674902
 21
59.938375
 31
0.0
 11
104.979577
 21
60.588782
 31
0.0
 11
106.643382
 21
61.100805
 31
0.0
 11
107.885421
 21
61.466225
 31
0.0
 11
108.436799
 21
61.605928
 31
0.0
 11
108.658241
 21
61.267481
 31
0.0
 11
108.364538
 21
60.362627
 31
0.0
 11
107.611421
 21
59.063023
 31
0.0
 11
104.408613
 21
55.332648
 31
0.0
 11
100.414007
 21
52.242736
 31
0.0
 11
96.213360
 21
50.246381
 31
0.0
 11
92.852090
 21
49.345106
 31
0.0
 11
90.123088
 21
49.067714
 31
0.0
 11
87.314199
 21
49.341817
 31
0.0
 11
84.944716
 21
49.633011
 31
0.0
 11
82.604706
 21
49.079277
 31
0.0
 11
78.027355
 21
47.144206
 31
0.0
 11
73.579547
 21
45.355291
 31
0.0
 11
68.830455
 21
43.674142
 31
0.0
 11
64.716629
 21
42.432292
 31
0.0
 11
62.510569
 21
41.369194
 31
0.0
 11
59.662844
 21
39.499541
 31
0.0
 11
57.438411
 21
37.653832
 31
0.0
  0
LWPOLYLINE
  5
107
100
AcDbEntity
  8
Layer_1
 62
5
100
AcDbPolyline
 90
3
 70
1
 10
57.438411
 20
37.653832
 30
0.0
 10
56.322801
 20
36.489013
 30
0.0
 10
58.567300
 20
36.484103
 30
0.0
  0
SPLINE
  5
108
100
AcDbEntity
  8
Layer_1
 62
5
100
AcDbSpline
 70
0
 71
3
 72
19
 73
15
 74
13
 40
0.000000
 40
0.000000
 40
0.000000
 40
0.000000
 40
2.646242
 40
5.391847
 40
8.197598
 40
9.645326
 40
11.393443
 40
13.402093
 40
16.974997
 40
19.633669
 40
24.091549
 40
26.255734
 40
28.507887
 40
31.044004
 40
31.044004
 40
31.044004
 40
31.044004
 10
58.567300
 20
36.484103
 30
0.0
 10
59.449259
 20
36.445709
 30
0.0
 10
61.246292
 20
36.367480
 30
0.0
 10
63.942679
 20
35.848349
 30
0.0
 10
66.149569
 20
35.088192
 30
0.0
 10
68.057288
 20
34.479403
 30
0.0
 10
69.768776
 20
34.169946
 30
0.0
 10
72.188918
 20
33.862407
 30
0.0
 10
74.965898
 20
33.775664
 30
0.0
 10
78.308801
 20
32.382459
 30
0.0
 10
80.732747
 20
30.440654
 30
0.0
 10
83.293612
 20
28.938718
 30
0.0
 10
85.501674
 20
28.180669
 30
0.0
 10
87.080100
 20
27.932094
 30
0.0
 10
87.916117
 20
27.800435
 30
0.0
 11
58.567300
 21
36.484103
 31
0.0
 11
61.207509
 21
36.305519
 31
0.0
 11
63.904411
 21
35.790669
 31
0.0
 11
66.582502
 21
34.953970
 31
0.0
 11
67.969004
 21
34.537404
 31
0.0
 11
69.684187
 21
34.199673
 31
0.0
 11
71.677355
 21
33.950760
 31
0.0
 11
75.224271
 21
33.520609
 31
0.0
 11
77.694936
 21
32.538595
 31
0.0
 11
81.414022
 21
30.080732
 31
0.0
 11
83.299005
 21
29.017466
 31
0.0
 11
85.424253
 21
28.272137
 31
0.0
 11
87.916117
 21
27.800435
 31
0.0
  0
LWPOLYLINE
  5
109
100
AcDbEntity
  8
Layer_1
 62
5
100
AcDbPolyline
 90
3
 70
1
 10
87.916117
 20
27.800435
 30
0.0
 10
89.598466
 20
27.583951
 30
0.0
 10
87.377482
 20
26.652031
 30
0.0
  0
SPLINE
  5
10a
100
AcDbEntity
  8
Layer_1
 62
5
100
AcDbSpline
 70
0
 71
3
 72
49
 73
45
 74
43
 40
0.000000
 40
0.000000
 40
0.000000
 40
0.000000
 40
4.586378
 40
8.478785
 40
11.963051
 40
14.475293
 40
16.775557
 40
19.726407
 40
22.020915
 40
26.506826
 40
31.557896
 40
34.978179
 40
37.496475
 40
39.766134
 40
40.760495
 40
42.007011
 40
43.238288
 40
44.517929
 40
45.896465
 40
47.083476
 40
49.804230
 40
53.462470
 40
55.813353
 40
56.579036
 40
58.365867
 40
60.791918
 40
63.619216
 40
65.943454
 40
67.648857
 40
69.037430
 40
70.630879
 40
72.089795
 40
73.677458
 40
75.606483
 40
77.461807
 40
79.908957
 40
83.126093
 40
87.389280
 40
93.356123
 40
96.593170
 40
99.545061
 40
100.766047
 40
101.714819
 40
102.247056
 40
102.247056
 40
102.247056
 40
102.247056
 10
87.377482
 20
26.652031
 30
0.0
 10
85.939422
 20
26.120858
 30
0.0
 10
83.280898
 20
25.138885
 30
0.0
 10
79.237689
 20
24.797282
 30
0.0
 10
75.987472
 20
25.629559
 30
0.0
 10
73.567991
 20
27.017229
 30
0.0
 10
71.736684
 20
28.927948
 30
0.0
 10
71.347888
 20
31.753506
 30
0.0
 10
67.999366
 20
32.888735
 30
0.0
 10
64.274246
 20
33.726597
 30
0.0
 10
59.939256
 20
34.294779
 30
0.0
 10
56.288204
 20
34.437182
 30
0.0
 10
53.532235
 20
34.186170
 30
0.0
 10
51.741967
 20
33.428922
 30
0.0
 10
50.374706
 20
32.807146
 30
0.0
 10
49.289049
 20
32.401588
 30
0.0
 10
48.094105
 20
32.026450
 30
0.0
 10
46.872081
 20
31.592632
 30
0.0
 10
45.695417
 20
31.076561
 30
0.0
 10
44.184847
 20
30.163656
 30
0.0
 10
41.845502
 20
29.203164
 30
0.0
 10
39.218857
 20
27.953611
 30
0.0
 10
36.824988
 20
27.842553
 30
0.0
 10
35.557924
 20
26.770427
 30
0.0
 10
34.367977
 20
25.626744
 30
0.0
 10
32.716612
 20
23.953219
 30
0.0
 10
30.925999
 20
22.174481
 30
0.0
 10
29.223548
 20
20.642672
 30
0.0
 10
27.745170
 20
19.601214
 30
0.0
 10
26.426131
 20
18.763123
 30
0.0
 10
25.250902
 20
17.859136
 30
0.0
 10
24.089568
 20
16.837482
 30
0.0
 10
22.852213
 20
15.732885
 30
0.0
 10
21.455004
 20
14.610948
 30
0.0
 10
19.775074
 20
13.389677
 30
0.0
 10
17.806725
 20
11.832830
 30
0.0
 10
15.436086
 20
9.520485
 30
0.0
 10
12.329571
 20
6.277800
 30
0.0
 10
9.361569
 20
2.961104
 30
0.0
 10
6.073696
 20
0.371375
 30
0.0
 10
3.524116
 20
0.160110
 30
0.0
 10
1.829798
 20
0.140569
 30
0.0
 10
0.918758
 20
0.153008
 30
0.0
 10
0.445287
 20
0.298406
 30
0.0
 10
0.275133
 20
0.350658
 30
0.0
 11
87.377482
 21
26.652031
 31
0.0
 11
83.002709
 21
25.274995
 31
0.0
 11
79.118852
 21
25.017136
 31
0.0
 11
75.743014
 21
25.879589
 31
0.0
 11
73.579256
 21
27.156112
 31
0.0
 11
72.075924
 21
28.897149
 31
0.0
 11
70.828385
 21
31.571314
 31
0.0
 11
68.776138
 21
32.597496
 31
0.0
 11
64.410591
 21
33.629676
 31
0.0
 11
59.400688
 21
34.273250
 31
0.0
 11
55.981586
 21
34.363104
 31
0.0
 11
53.483385
 21
34.045611
 31
0.0
 11
51.357355
 21
33.251035
 31
0.0
 11
50.446927
 21
32.851192
 31
0.0
 11
49.280931
 21
32.410446
 31
0.0
 11
48.111799
 21
32.024215
 31
0.0
 11
46.908192
 21
31.589694
 31
0.0
 11
45.651814
 21
31.022352
 31
0.0
 11
44.614665
 21
30.445016
 31
0.0
 11
42.145010
 21
29.303393
 31
0.0
 11
38.708648
 21
28.048746
 31
0.0
 11
36.433224
 21
27.457902
 31
0.0
 11
35.826248
 21
26.991158
 31
0.0
 11
34.524132
 21
25.767532
 31
0.0
 11
32.808779
 21
24.051932
 31
0.0
 11
30.788538
 21
22.073992
 31
0.0
 11
29.036962
 21
20.546228
 31
0.0
 11
27.650688
 21
19.552928
 31
0.0
 11
26.494623
 21
18.783744
 31
0.0
 11
25.227236
 21
17.817921
 31
0.0
 11
24.122911
 21
16.864558
 31
0.0
 11
22.928929
 21
15.818097
 31
0.0
 11
21.426497
 21
14.608206
 31
0.0
 11
19.940882
 21
13.496820
 31
0.0
 11
18.032559
 21
11.964879
 31
0.0
 11
15.696642
 21
9.752764
 31
0.0
 11
12.742023
 21
6.679494
 31
0.0
 11
8.566194
 21
2.417374
 31
0.0
 11
5.871958
 21
0.623058
 31
0.0
 11
2.956244
 21
0.162328
 31
0.0
 11
1.735377
 21
0.145315
 31
0.0
 11
0.788937
 21
0.211799
 31
0.0
 11
0.275133
 21
0.350658
 31
0.0
  0
LWPOLYLINE
  5
10b
100
AcDbEntity
  8
Layer_1
 62
5
100
AcDbPolyline
 90
2
 70
1
 10
0.275133
 20
0.350658
 30
0.0
 10
0.275133
 20
0.350658
 30
0.0
  0
SPLINE
  5
10c
100
AcDbEntity
  8
Layer_1
 62
5
100
AcDbSpline
 70
0
 71
3
 72
37
 73
33
 74
31
 40
0.000000
 40
0.000000
 40
0.000000
 40
0.000000
 40
2.270219
 40
4.308517
 40
6.552968
 40
8.584057
 40
9.670088
 40
12.818752
 40
15.159126
 40
17.373413
 40
20.036420
 40
22.164961
 40
23.967744
 40
25.062970
 40
26.101812
 40
27.752323
 40
30.307314
 40
34.067830
 40
36.423201
 40
39.022329
 40
41.201179
 40
42.495291
 40
43.616014
 40
44.178884
 40
44.897447
 40
46.035704
 40
49.326171
 40
54.044468
 40
58.459524
 40
61.243407
 40
63.650316
 40
65.755426
 40
65.755426
 40
65.755426
 40
65.755426
 10
92.088171
 20
74.737728
 30
0.0
 10
91.366208
 20
74.954400
 30
0.0
 10
89.996034
 20
75.365611
 30
0.0
 10
88.018657
 20
76.480613
 30
0.0
 10
86.744478
 20
77.899797
 30
0.0
 10
84.704110
 20
79.246752
 30
0.0
 10
86.379786
 20
81.126609
 30
0.0
 10
88.667438
 20
81.023910
 30
0.0
 10
91.131371
 20
81.760093
 30
0.0
 10
93.405652
 20
82.554161
 30
0.0
 10
95.502878
 20
83.585357
 30
0.0
 10
97.491941
 20
84.530540
 30
0.0
 10
99.042276
 20
85.141456
 30
0.0
 10
100.294534
 20
85.604291
 30
0.0
 10
101.575295
 20
85.475544
 30
0.0
 10
103.262046
 20
85.035076
 30
0.0
 10
105.784516
 20
84.193973
 30
0.0
 10
108.539523
 20
83.321278
 30
0.0
 10
111.135550
 20
81.943254
 30
0.0
 10
112.769858
 20
80.165561
 30
0.0
 10
114.118034
 20
78.712637
 30
0.0
 10
114.802924
 20
77.178438
 30
0.0
 10
114.206355
 20
76.232728
 30
0.0
 10
113.517872
 20
75.802649
 30
0.0
 10
112.694193
 20
75.723017
 30
0.0
 10
110.990613
 20
75.852030
 30
0.0
 10
107.931334
 20
75.697040
 30
0.0
 10
103.808192
 20
75.358195
 30
0.0
 10
99.872661
 20
74.797252
 30
0.0
 10
96.704512
 20
74.339058
 30
0.0
 10
94.255277
 20
74.300868
 30
0.0
 10
92.777594
 20
74.598753
 30
0.0
 10
92.088171
 20
74.737733
 30
0.0
 11
92.088171
 21
74.737728
 31
0.0
 11
89.941733
 21
75.477116
 31
0.0
 11
88.177821
 21
76.498523
 31
0.0
 11
86.490816
 21
77.978920
 31
0.0
 11
85.202037
 21
79.548751
 31
0.0
 11
85.850591
 21
80.419866
 31
0.0
 11
88.897957
 21
81.212106
 31
0.0
 11
91.165984
 21
81.789521
 31
0.0
 11
93.248432
 21
82.542164
 31
0.0
 11
95.666244
 21
83.658315
 31
0.0
 11
97.598033
 21
84.552114
 31
0.0
 11
99.271338
 21
85.222995
 31
0.0
 11
100.323896
 21
85.525717
 31
0.0
 11
101.361561
 21
85.476300
 31
0.0
 11
102.967911
 21
85.097052
 31
0.0
 11
105.403896
 21
84.326366
 31
0.0
 11
108.940080
 21
83.046960
 31
0.0
 11
110.985932
 21
81.879802
 31
0.0
 11
112.856137
 21
80.074863
 31
0.0
 11
114.214773
 21
78.371485
 31
0.0
 11
114.586434
 21
77.131891
 31
0.0
 11
114.030235
 21
76.158925
 31
0.0
 11
113.549194
 21
75.866653
 31
0.0
 11
112.839685
 21
75.752950
 31
0.0
 11
111.701902
 21
75.785796
 31
0.0
 11
108.412372
 21
75.707269
 31
0.0
 11
103.711540
 21
75.301672
 31
0.0
 11
99.335133
 21
74.718768
 31
0.0
 11
96.571394
 21
74.384478
 31
0.0
 11
94.164492
 21
74.390776
 31
0.0
 11
92.088171
 21
74.737733
 31
0.0
  0
LWPOLYLINE
  5
10d
100
AcDbEntity
  8
Layer_1
 62
5
100
AcDbPolyline
 90
2
 70
1
 10
92.088171
 20
74.737733
 30
0.0
 10
92.088171
 20
74.737728
 30
0.0
  0
SPLINE
  5
10e
100
AcDbEntity
  8
Layer_1
 62
5
100
AcDbSpline
 70
0
 71
3
 72
43
 73
39
 74
37
 40
0.000000
 40
0.000000
 40
0.000000
 40
0.000000
 40
1.065084
 40
1.903551
 40
2.358867
 40
3.670392
 40
6.059708
 40
8.823310
 40
12.922566
 40
18.078505
 40
24.685073
 40
28.958063
 40
32.619552
 40
35.749898
 40
37.980922
 40
39.113181
 40
39.784427
 40
40.392461
 40
41.539400
 40
43.475783
 40
49.686793
 40
55.235294
 40
62.511897
 40
65.054551
 40
66.891862
 40
68.627201
 40
70.723399
 40
72.006876
 40
72.931728
 40
73.837623
 40
75.588985
 40
77.808412
 40
81.103196
 40
83.434550
 40
84.763057
 40
85.183943
 40
86.013204
 40
87.071526
 40
87.071526
 40
87.071526
 40
87.071526
 10
83.625952
 20
82.135844
 30
0.0
 10
83.271172
 20
82.162699
 30
0.0
 10
82.637099
 20
82.210693
 30
0.0
 10
81.865342
 20
82.328716
 30
0.0
 10
81.020050
 20
82.651269
 30
0.0
 10
80.659277
 20
84.171449
 30
0.0
 10
79.730285
 20
86.021230
 30
0.0
 10
78.617198
 20
88.941727
 30
0.0
 10
77.937385
 20
92.927411
 30
0.0
 10
78.614015
 20
98.229217
 30
0.0
 10
79.995965
 20
103.387614
 30
0.0
 10
81.566750
 20
107.988830
 30
0.0
 10
83.001339
 20
111.359030
 30
0.0
 10
84.490191
 20
114.076195
 30
0.0
 10
85.699180
 20
115.654593
 30
0.0
 10
86.690184
 20
116.967575
 30
0.0
 10
87.570465
 20
116.454642
 30
0.0
 10
87.566185
 20
115.589367
 30
0.0
 10
87.323980
 20
114.404437
 30
0.0
 10
86.446584
 20
111.424349
 30
0.0
 10
85.408882
 20
106.843607
 30
0.0
 10
87.586275
 20
100.579278
 30
0.0
 10
91.206145
 20
96.860893
 30
0.0
 10
93.968817
 20
94.136183
 30
0.0
 10
95.255867
 20
92.544377
 30
0.0
 10
96.146139
 20
90.862364
 30
0.0
 10
96.813110
 20
89.321439
 30
0.0
 10
97.190938
 20
87.858245
 30
0.0
 10
96.646673
 20
86.870189
 30
0.0
 10
95.561436
 20
86.326096
 30
0.0
 10
94.183973
 20
85.478724
 30
0.0
 10
92.049126
 20
84.325917
 30
0.0
 10
89.718802
 20
83.137446
 30
0.0
 10
87.592845
 20
82.216374
 30
0.0
 10
86.230351
 20
81.940534
 30
0.0
 10
85.375172
 20
82.048874
 30
0.0
 10
84.606494
 20
82.082242
 30
0.0
 10
83.978214
 20
82.116588
 30
0.0
 10
83.625952
 20
82.135844
 30
0.0
 11
83.625952
 21
82.135844
 31
0.0
 11
82.565145
 21
82.231199
 31
0.0
 11
81.741465
 21
82.387974
 31
0.0
 11
81.325731
 21
82.573656
 31
0.0
 11
80.726387
 21
83.740224
 31
0.0
 11
79.810000
 21
85.946821
 31
0.0
 11
78.848822
 21
88.537889
 31
0.0
 11
78.177300
 21
92.581767
 31
0.0
 11
78.650497
 21
97.715947
 31
0.0
 11
80.284707
 21
104.117205
 31
0.0
 11
81.682579
 21
108.155075
 31
0.0
 11
83.139992
 21
111.514010
 31
0.0
 11
84.677284
 21
114.240877
 31
0.0
 11
85.991731
 21
116.043567
 31
0.0
 11
86.888296
 21
116.735075
 31
0.0
 11
87.464352
 21
116.390502
 31
0.0
 11
87.553685
 21
115.789066
 31
0.0
 11
87.363497
 21
114.658006
 31
0.0
 11
86.858689
 21
112.788581
 31
0.0
 11
85.982464
 21
106.639688
 31
0.0
 11
87.679466
 21
101.357071
 31
0.0
 11
92.329076
 21
95.759744
 31
0.0
 11
94.096810
 21
93.932120
 31
0.0
 11
95.226855
 21
92.483429
 31
0.0
 11
96.068521
 21
90.965864
 31
0.0
 11
96.863672
 21
89.026333
 31
0.0
 11
97.026572
 21
87.753236
 31
0.0
 11
96.583466
 21
86.941443
 31
0.0
 11
95.823910
 21
86.447762
 31
0.0
 11
94.307398
 21
85.571713
 31
0.0
 11
92.362246
 21
84.502958
 31
0.0
 11
89.415922
 21
83.028247
 31
0.0
 11
87.244414
 21
82.179857
 31
0.0
 11
85.929577
 21
81.989766
 31
0.0
 11
85.510414
 21
82.027811
 31
0.0
 11
84.682816
 21
82.080294
 31
0.0
 11
83.625952
 21
82.135844
 31
0.0
  0
LWPOLYLINE
  5
10f
100
AcDbEntity
  8
Layer_1
 62
5
100
AcDbPolyline
 90
2
 70
1
 10
83.625952
 20
82.135844
 30
0.0
 10
83.625952
 20
82.135844
 30
0.0
  0
SPLINE
  5
110
100
AcDbEntity
  8
Layer_1
 62
5
100
AcDbSpline
 70
0
 71
3
 72
31
 73
27
 74
25
 40
0.000000
 40
0.000000
 40
0.000000
 40
0.000000
 40
3.297600
 40
4.991153
 40
5.573354
 40
5.887541
 40
6.997076
 40
9.514908
 40
13.349665
 40
16.957108
 40
20.118653
 40
21.505059
 40
23.372978
 40
27.255086
 40
28.929435
 40
29.670465
 40
30.921376
 40
31.877545
 40
33.055761
 40
34.674730
 40
40.989854
 40
45.205933
 40
49.604807
 40
51.849209
 40
54.024774
 40
57.775748
 40
57.775748
 40
57.775748
 40
57.775748
 10
110.341799
 20
84.280462
 30
0.0
 10
109.255085
 20
84.676244
 30
0.0
 10
107.610265
 20
85.275289
 30
0.0
 10
106.184570
 20
85.786704
 30
0.0
 10
105.085013
 20
86.413039
 30
0.0
 10
105.774809
 20
86.882249
 30
0.0
 10
107.023651
 20
86.905304
 30
0.0
 10
109.526050
 20
87.358617
 30
0.0
 10
112.740119
 20
88.193753
 30
0.0
 10
115.782557
 20
90.143114
 30
0.0
 10
117.483406
 20
92.333547
 30
0.0
 10
118.222353
 20
94.387185
 30
0.0
 10
117.893037
 20
96.800538
 30
0.0
 10
117.661238
 20
99.197447
 30
0.0
 10
116.926441
 20
101.299702
 30
0.0
 10
117.709034
 20
102.509165
 30
0.0
 10
118.822682
 20
101.967901
 30
0.0
 10
119.806225
 20
101.540671
 30
0.0
 10
120.757779
 20
100.673424
 30
0.0
 10
122.733666
 20
98.392916
 30
0.0
 10
125.338008
 20
95.259174
 30
0.0
 10
126.833539
 20
90.178594
 30
0.0
 10
125.210060
 20
86.778701
 30
0.0
 10
123.611298
 20
84.197054
 30
0.0
 10
120.889789
 20
83.299197
 30
0.0
 10
118.923845
 20
83.249954
 30
0.0
 10
117.679577
 20
83.218788
 30
0.0
 11
110.341799
 21
84.280462
 31
0.0
 11
107.242316
 21
85.406238
 31
0.0
 11
105.687613
 21
86.077819
 31
0.0
 11
105.261799
 21
86.474859
 31
0.0
 11
105.499430
 21
86.680394
 31
0.0
 11
106.583727
 21
86.915698
 31
0.0
 11
109.071799
 21
87.301668
 31
0.0
 11
112.742782
 21
88.410384
 31
0.0
 11
115.759833
 21
90.388022
 31
0.0
 11
117.648392
 21
92.923512
 31
0.0
 11
118.071613
 21
94.243742
 31
0.0
 11
117.995040
 21
96.110090
 31
0.0
 11
117.360517
 21
99.939991
 31
0.0
 11
117.200719
 21
101.606697
 31
0.0
 11
117.645488
 21
102.199408
 31
0.0
 11
118.872186
 21
101.954479
 31
0.0
 11
119.725859
 21
101.523778
 31
0.0
 11
120.627833
 21
100.765732
 31
0.0
 11
121.714542
 21
99.565680
 31
0.0
 11
125.355551
 21
94.405850
 31
0.0
 11
126.300083
 21
90.296935
 31
0.0
 11
124.795373
 21
86.163421
 31
0.0
 11
123.425836
 21
84.385302
 31
0.0
 11
121.415593
 21
83.553430
 31
0.0
 11
117.679577
 21
83.218788
 31
0.0
  0
LWPOLYLINE
  5
111
100
AcDbEntity
  8
Layer_1
 62
5
100
AcDbPolyline
 90
4
 70
1
 10
117.679577
 20
83.218788
 30
0.0
 10
113.869577
 20
83.037756
 30
0.0
 10
110.341799
 20
84.280462
 30
0.0
 10
110.341799
 20
84.280462
 30
0.0
  0
SPLINE
  5
112
100
AcDbEntity
  8
Layer_1
 62
5
100
AcDbSpline
 70
0
 71
3
 72
46
 73
42
 74
40
 40
0.000000
 40
0.000000
 40
0.000000
 40
0.000000
 40
2.039794
 40
3.878475
 40
5.126593
 40
6.237773
 40
7.717418
 40
9.256611
 40
10.697938
 40
11.914984
 40
12.647175
 40
14.253476
 40
16.139720
 40
17.726527
 40
20.261604
 40
23.008602
 40
25.518540
 40
27.041575
 40
28.442917
 40
30.462583
 40
31.930773
 40
33.143716
 40
34.379116
 40
35.627553
 40
37.204272
 40
38.768143
 40
42.069451
 40
44.900530
 40
48.146397
 40
50.689868
 40
52.414565
 40
53.371833
 40
54.258835
 40
55.708801
 40
57.300143
 40
60.232906
 40
63.047958
 40
65.216248
 40
66.444635
 40
67.926961
 40
70.363958
 40
70.363958
 40
70.363958
 40
70.363958
 10
100.464022
 20
90.411715
 30
0.0
 10
99.864999
 20
90.734780
 30
0.0
 10
98.726013
 20
91.349057
 30
0.0
 10
97.288992
 20
92.266495
 30
0.0
 10
96.127606
 20
93.070785
 30
0.0
 10
95.351618
 20
94.102635
 30
0.0
 10
94.600341
 20
95.254087
 30
0.0
 10
93.904674
 20
96.570736
 30
0.0
 10
93.285244
 20
97.824231
 30
0.0
 10
92.752112
 20
98.822934
 30
0.0
 10
92.094573
 20
99.808843
 30
0.0
 10
91.281255
 20
100.965893
 30
0.0
 10
90.613929
 20
102.522383
 30
0.0
 10
89.912380
 20
104.431680
 30
0.0
 10
90.412651
 20
106.804669
 30
0.0
 10
91.953104
 20
108.967938
 30
0.0
 10
93.987900
 20
110.140011
 30
0.0
 10
95.901531
 20
110.199081
 30
0.0
 10
97.290807
 20
109.138258
 30
0.0
 10
97.971063
 20
107.633784
 30
0.0
 10
98.649181
 20
106.223955
 30
0.0
 10
99.418004
 20
105.154071
 30
0.0
 10
100.353162
 20
104.343660
 30
0.0
 10
101.408329
 20
103.497969
 30
0.0
 10
102.523973
 20
102.550536
 30
0.0
 10
104.146330
 20
101.144494
 30
0.0
 10
106.097014
 20
99.475207
 30
0.0
 10
108.733851
 20
97.766370
 30
0.0
 10
111.341867
 20
96.585864
 30
0.0
 10
113.629224
 20
95.469599
 30
0.0
 10
115.041318
 20
94.593559
 30
0.0
 10
115.932841
 20
93.499638
 30
0.0
 10
115.122300
 20
92.512436
 30
0.0
 10
114.186954
 20
91.690874
 30
0.0
 10
112.458454
 20
90.629889
 30
0.0
 10
110.171624
 20
89.763496
 30
0.0
 10
107.644761
 20
88.998507
 30
0.0
 10
105.587119
 20
88.648758
 30
0.0
 10
103.949278
 20
88.795900
 30
0.0
 10
102.342561
 20
89.436803
 30
0.0
 10
101.184249
 20
90.037936
 30
0.0
 10
100.464022
 20
90.411715
 30
0.0
 11
100.464022
 21
90.411715
 31
0.0
 11
98.681286
 21
91.402983
 31
0.0
 11
97.127454
 21
92.386016
 31
0.0
 11
96.138924
 21
93.147992
 31
0.0
 11
95.435739
 21
94.008370
 31
0.0
 11
94.629980
 21
95.249379
 31
0.0
 11
93.896090
 21
96.602347
 31
0.0
 11
93.244590
 21
97.888026
 31
0.0
 11
92.654829
 21
98.952631
 31
0.0
 11
92.254488
 21
99.565680
 31
0.0
 11
91.380311
 21
100.913278
 31
0.0
 11
90.589559
 21
102.625770
 31
0.0
 11
90.138927
 21
104.147245
 31
0.0
 11
90.549138
 21
106.648913
 31
0.0
 11
92.146991
 21
108.883385
 31
0.0
 11
94.365346
 21
110.057559
 31
0.0
 11
95.887956
 21
110.021587
 31
0.0
 11
97.035623
 21
109.217460
 31
0.0
 11
98.053782
 21
107.473211
 31
0.0
 11
98.727846
 21
106.168902
 31
0.0
 11
99.447645
 21
105.192625
 31
0.0
 11
100.354099
 21
104.353247
 31
0.0
 11
101.319895
 21
103.562150
 31
0.0
 11
102.525382
 21
102.545862
 31
0.0
 11
103.709577
 21
101.524404
 31
0.0
 11
106.265438
 21
99.434856
 31
0.0
 11
108.645419
 21
97.901657
 31
0.0
 11
111.557776
 21
96.468539
 31
0.0
 11
113.826667
 21
95.319027
 31
0.0
 11
115.226038
 21
94.310890
 31
0.0
 11
115.704022
 21
93.481497
 31
0.0
 11
115.263490
 21
92.711623
 31
0.0
 11
114.185202
 21
91.742245
 31
0.0
 11
112.834112
 21
90.901455
 31
0.0
 11
110.123555
 21
89.781644
 31
0.0
 11
107.419156
 21
89.000143
 31
0.0
 11
105.269628
 21
88.715514
 31
0.0
 11
104.047643
 21
88.840759
 31
0.0
 11
102.649833
 21
89.334132
 31
0.0
 11
100.464022
 21
90.411715
 31
0.0
  0
LWPOLYLINE
  5
113
100
AcDbEntity
  8
Layer_1
 62
5
100
AcDbPolyline
 90
2
 70
1
 10
100.464022
 20
90.411715
 30
0.0
 10
100.464022
 20
90.411715
 30
0.0
  0
SPLINE
  5
114
100
AcDbEntity
  8
Layer_1
 62
5
100
AcDbSpline
 70
0
 71
3
 72
25
 73
21
 74
19
 40
0.000000
 40
0.000000
 40
0.000000
 40
0.000000
 40
3.514163
 40
7.012443
 40
10.000203
 40
11.474847
 40
12.347074
 40
13.076585
 40
13.745189
 40
14.140869
 40
14.929040
 40
16.918202
 40
19.663410
 40
22.245836
 40
25.868182
 40
29.518817
 40
31.687471
 40
32.392873
 40
33.991631
 40
36.129685
 40
36.129685
 40
36.129685
 40
36.129685
 10
111.181684
 20
99.229768
 30
0.0
 10
110.123392
 20
99.734273
 30
0.0
 10
108.011590
 20
100.741003
 30
0.0
 10
105.172187
 20
102.490519
 30
0.0
 10
103.043328
 20
104.107429
 30
0.0
 10
101.760414
 20
105.305442
 30
0.0
 10
101.080289
 20
106.139485
 30
0.0
 10
101.043726
 20
106.893593
 30
0.0
 10
100.947547
 20
107.552150
 30
0.0
 10
101.485807
 20
107.974648
 30
0.0
 10
102.590604
 20
107.848495
 30
0.0
 10
104.365886
 20
107.505268
 30
0.0
 10
106.665744
 20
106.598125
 30
0.0
 10
109.324032
 20
105.314541
 30
0.0
 10
112.030668
 20
103.074971
 30
0.0
 10
113.598367
 20
101.130832
 30
0.0
 10
116.090497
 20
98.776447
 30
0.0
 10
114.443464
 20
98.101300
 30
0.0
 10
113.026819
 20
98.590754
 30
0.0
 10
111.853189
 20
98.997210
 30
0.0
 10
111.181684
 20
99.229768
 30
0.0
 11
111.181684
 21
99.229768
 31
0.0
 11
108.037126
 21
100.798554
 31
0.0
 11
105.058390
 21
102.632974
 31
0.0
 11
102.692567
 21
104.457692
 31
0.0
 11
101.633524
 21
105.483851
 31
0.0
 11
101.146095
 21
106.207171
 31
0.0
 11
101.028466
 21
106.927136
 31
0.0
 11
101.077481
 21
107.593941
 31
0.0
 11
101.379383
 21
107.849711
 31
0.0
 11
102.166460
 21
107.891236
 31
0.0
 11
104.116883
 21
107.500581
 31
0.0
 11
106.692426
 21
106.550449
 31
0.0
 11
108.991104
 21
105.373588
 31
0.0
 11
111.826982
 21
103.119884
 31
0.0
 11
114.338912
 21
100.470858
 31
0.0
 11
115.421799
 21
98.591917
 31
0.0
 11
114.783078
 21
98.292539
 31
0.0
 11
113.202109
 21
98.530368
 31
0.0
 11
111.181684
 21
99.229768
 31
0.0
  0
LWPOLYLINE
  5
115
100
AcDbEntity
  8
Layer_1
 62
5
100
AcDbPolyline
 90
2
 70
1
 10
111.181684
 20
99.229768
 30
0.0
 10
111.181684
 20
99.229768
 30
0.0
  0
SPLINE
  5
116
100
AcDbEntity
  8
Layer_1
 62
5
100
AcDbSpline
 70
0
 71
3
 72
28
 73
24
 74
22
 40
0.000000
 40
0.000000
 40
0.000000
 40
0.000000
 40
1.589593
 40
3.485504
 40
5.279705
 40
7.920597
 40
10.134079
 40
12.583417
 40
14.773509
 40
16.212363
 40
18.926003
 40
21.144462
 40
23.482152
 40
26.064527
 40
28.914552
 40
31.992328
 40
34.265061
 40
36.630947
 40
38.869275
 40
40.599740
 40
41.528450
 40
43.063966
 40
45.452741
 40
45.452741
 40
45.452741
 40
45.452741
 10
115.038536
 20
104.509426
 30
0.0
 10
114.546690
 20
104.706748
 30
0.0
 10
113.468218
 20
105.139415
 30
0.0
 10
111.870319
 20
105.877808
 30
0.0
 10
109.984925
 20
106.830756
 30
0.0
 10
108.038725
 20
107.868732
 30
0.0
 10
105.735633
 20
108.794777
 30
0.0
 10
103.699598
 20
109.392703
 30
0.0
 10
101.255480
 20
110.035698
 30
0.0
 10
101.677461
 20
112.571576
 30
0.0
 10
103.796934
 20
113.491501
 30
0.0
 10
106.025024
 20
114.366129
 30
0.0
 10
108.451563
 20
114.461657
 30
0.0
 10
111.017792
 20
114.039448
 30
0.0
 10
113.667953
 20
112.972019
 30
0.0
 10
116.068723
 20
111.683533
 30
0.0
 10
118.225307
 20
110.209970
 30
0.0
 10
119.385694
 20
108.127317
 30
0.0
 10
119.920093
 20
106.170705
 30
0.0
 10
120.011622
 20
104.287152
 30
0.0
 10
118.669312
 20
103.511982
 30
0.0
 10
117.017746
 20
103.856283
 30
0.0
 10
115.787441
 20
104.262286
 30
0.0
 10
115.038536
 20
104.509426
 30
0.0
 11
115.038536
 21
104.509426
 31
0.0
 11
113.567903
 21
105.112788
 31
0.0
 11
111.844257
 21
105.902422
 31
0.0
 11
110.240758
 21
106.707375
 31
0.0
 11
107.881132
 21
107.893322
 31
0.0
 11
105.829157
 21
108.723326
 31
0.0
 11
103.486797
 21
109.439289
 31
0.0
 11
101.572817
 21
110.503801
 31
0.0
 11
101.725340
 21
111.934548
 31
0.0
 11
103.922565
 21
113.527044
 31
0.0
 11
106.024598
 21
114.236280
 31
0.0
 11
108.357669
 21
114.383165
 31
0.0
 11
110.906244
 21
113.966721
 31
0.0
 11
113.571469
 21
112.957159
 31
0.0
 11
116.280900
 21
111.497126
 31
0.0
 11
118.075953
 21
110.103175
 31
0.0
 11
119.304641
 21
108.081359
 31
0.0
 11
119.880034
 21
105.918251
 31
0.0
 11
119.645204
 21
104.203793
 31
0.0
 11
118.856380
 21
103.713631
 31
0.0
 11
117.324233
 21
103.815282
 31
0.0
 11
115.038536
 21
104.509426
 31
0.0
  0
LWPOLYLINE
  5
117
100
AcDbEntity
  8
Layer_1
 62
5
100
AcDbPolyline
 90
2
 70
1
 10
115.038536
 20
104.509426
 30
0.0
 10
115.038536
 20
104.509426
 30
0.0
  0
SPLINE
  5
118
100
AcDbEntity
  8
Layer_1
 62
5
100
AcDbSpline
 70
0
 71
3
 72
37
 73
33
 74
31
 40
0.000000
 40
0.000000
 40
0.000000
 40
0.000000
 40
1.288011
 40
3.236559
 40
5.427372
 40
7.565199
 40
9.376158
 40
10.475500
 40
12.206657
 40
13.747914
 40
14.817877
 40
15.285621
 40
15.835083
 40
16.362860
 40
17.998712
 40
20.069376
 40
22.020322
 40
25.175043
 40
28.670240
 40
30.644987
 40
31.858669
 40
33.648268
 40
35.548573
 40
36.639445
 40
38.078716
 40
39.561316
 40
42.189634
 40
44.431386
 40
46.913210
 40
48.905248
 40
49.594788
 40
50.884404
 40
50.884404
 40
50.884404
 40
50.884404
 10
88.185176
 20
110.219569
 30
0.0
 10
88.269754
 20
110.640623
 30
0.0
 10
88.482283
 20
111.698662
 30
0.0
 10
88.983046
 20
113.438929
 30
0.0
 10
89.619158
 20
115.432062
 30
0.0
 10
90.231604
 20
117.384218
 30
0.0
 10
90.674210
 20
119.010693
 30
0.0
 10
90.921173
 20
120.538546
 30
0.0
 10
90.958329
 20
122.011185
 30
0.0
 10
91.375198
 20
123.385368
 30
0.0
 10
91.887450
 20
124.352174
 30
0.0
 10
92.538299
 20
124.640371
 30
0.0
 10
93.032576
 20
124.781013
 30
0.0
 10
93.938939
 20
124.880956
 30
0.0
 10
95.334707
 20
124.524890
 30
0.0
 10
97.105098
 20
123.890593
 30
0.0
 10
99.223627
 20
122.762274
 30
0.0
 10
101.395908
 20
120.757572
 30
0.0
 10
103.078099
 20
118.723334
 30
0.0
 10
105.091396
 20
116.894935
 30
0.0
 10
104.054011
 20
115.305909
 30
0.0
 10
102.837292
 20
114.296860
 30
0.0
 10
101.428202
 20
113.470621
 30
0.0
 10
99.991528
 20
113.113490
 30
0.0
 10
98.677282
 20
112.860383
 30
0.0
 10
96.840992
 20
112.647194
 30
0.0
 10
94.720321
 20
112.420896
 30
0.0
 10
92.432753
 20
111.477994
 30
0.0
 10
90.538259
 20
110.260615
 30
0.0
 10
89.449959
 20
108.826500
 30
0.0
 10
87.822223
 20
108.828033
 30
0.0
 10
88.041982
 20
109.670572
 30
0.0
 10
88.185176
 20
110.219569
 30
0.0
 11
88.185176
 21
110.219569
 31
0.0
 11
88.452544
 21
111.479524
 31
0.0
 11
88.969013
 21
113.358380
 31
0.0
 11
89.622771
 21
115.449375
 31
0.0
 11
90.250233
 21
117.493047
 31
0.0
 11
90.697760
 21
119.247839
 31
0.0
 11
90.868466
 21
120.333846
 31
0.0
 11
91.040078
 21
122.056476
 31
0.0
 11
91.484461
 21
123.532280
 31
0.0
 11
92.095938
 21
124.410298
 31
0.0
 11
92.514557
 21
124.618968
 31
0.0
 11
93.043479
 21
124.767798
 31
0.0
 11
93.568193
 21
124.824569
 31
0.0
 11
95.179319
 21
124.541219
 31
0.0
 11
97.123669
 21
123.829075
 31
0.0
 11
98.836469
 21
122.894993
 31
0.0
 11
101.223829
 21
120.832768
 31
0.0
 11
103.611801
 21
118.280516
 31
0.0
 11
104.697355
 21
116.630910
 31
0.0
 11
104.154538
 21
115.545380
 31
0.0
 11
102.824304
 21
114.348242
 31
0.0
 11
101.153976
 21
113.442061
 31
0.0
 11
100.102978
 21
113.149820
 31
0.0
 11
98.689110
 21
112.880603
 31
0.0
 11
97.218466
 21
112.692694
 31
0.0
 11
94.623432
 21
112.275732
 31
0.0
 11
92.538359
 21
111.452372
 31
0.0
 11
90.498295
 21
110.039012
 31
0.0
 11
88.880779
 21
108.876318
 31
0.0
 11
88.193330
 21
108.929979
 31
0.0
 11
88.185176
 21
110.219569
 31
0.0
  0
LWPOLYLINE
  5
119
100
AcDbEntity
  8
Layer_1
 62
5
100
AcDbPolyline
 90
2
 70
1
 10
88.185176
 20
110.219569
 30
0.0
 10
88.185176
 20
110.219569
 30
0.0
  0
ENDSEC
  0
SECTION
  2
OBJECTS
  0
DICTIONARY
  5
C
330
0
100
AcDbDictionary
  3
ACAD_GROUP
350
D
  3
ACAD_MLINESTYLE
350
17
  0
DICTIONARY
  5
D
330
C
100
AcDbDictionary
  0
DICTIONARY
  5
1A
330
C
100
AcDbDictionary
  0
DICTIONARY
  5
17
330
C
100
AcDbDictionary
  3
STANDARD
350
18
  0
DICTIONARY
  5
19
330
C
100
AcDbDictionary
  0
ENDSEC
  0
EOF
