<?xml version="1.0" encoding="UTF-8" standalone="no"?>
<!-- Created with Inkscape (http://www.inkscape.org/) -->

<svg
   xmlns:dc="http://purl.org/dc/elements/1.1/"
   xmlns:cc="http://creativecommons.org/ns#"
   xmlns:rdf="http://www.w3.org/1999/02/22-rdf-syntax-ns#"
   xmlns:svg="http://www.w3.org/2000/svg"
   xmlns="http://www.w3.org/2000/svg"
   xmlns:sodipodi="http://sodipodi.sourceforge.net/DTD/sodipodi-0.dtd"
   xmlns:inkscape="http://www.inkscape.org/namespaces/inkscape"
   width="126.46124mm"
   height="124.96568mm"
   viewBox="0 0 448.09102 442.79179"
   id="svg2"
   version="1.1"
   inkscape:version="0.91 r13725"
   sodipodi:docname="rose-stem.svg">
  <defs
     id="defs4" />
  <sodipodi:namedview
     id="base"
     pagecolor="#000000"
     bordercolor="#666666"
     borderopacity="1.0"
     inkscape:pageopacity="0"
     inkscape:pageshadow="2"
     inkscape:zoom="0.98994949"
     inkscape:cx="135.21357"
     inkscape:cy="41.308698"
     inkscape:document-units="px"
     inkscape:current-layer="layer1"
     showgrid="false"
     fit-margin-top="0"
     fit-margin-left="0"
     fit-margin-right="0"
     fit-margin-bottom="0"
     inkscape:window-width="1920"
     inkscape:window-height="1017"
     inkscape:window-x="1280"
     inkscape:window-y="30"
     inkscape:window-maximized="1" />
  <metadata
     id="metadata7">
    <rdf:RDF>
      <cc:Work
         rdf:about="">
        <dc:format>image/svg+xml</dc:format>
        <dc:type
           rdf:resource="http://purl.org/dc/dcmitype/StillImage" />
        <dc:title></dc:title>
      </cc:Work>
    </rdf:RDF>
  </metadata>
  <g
     inkscape:label="Layer 1"
     inkscape:groupmode="layer"
     id="layer1"
     transform="translate(574.11773,-253.14791)">
    <path
       style="fill:none;stroke:#0000ff;stroke-width:1;stroke-miterlimit:4;stroke-dasharray:none;stroke-opacity:1"
       d="m -573.14285,694.6972 c -1.23745,-0.86635 -0.27476,-2.19963 5.5,-7.61728 3.85,-3.61192 11.725,-11.01357 17.5,-16.44811 5.775,-5.43455 12.6375,-11.49976 15.25,-13.47825 2.6125,-1.9785 4.75,-3.94284 4.75,-4.36522 0,-0.42237 4.10628,-3.87848 9.12506,-7.68024 5.01879,-3.80177 9.77594,-7.90565 10.57145,-9.11975 0.79551,-1.2141 3.95022,-4.13916 7.01048,-6.50013 3.06026,-2.36097 7.37408,-6.74275 9.58627,-9.73728 2.21219,-2.99453 10.13869,-11.8058 17.61445,-19.58059 20.78139,-21.61265 51.07103,-61.618 57.92995,-76.51156 2.84397,-6.17543 3.75745,-12.79708 5.10584,-37.01088 0.50535,-9.075 1.17153,-18.8012 1.48039,-21.61378 1.50358,-13.6921 -4.11276,-32.49064 -12.60212,-42.18069 -2.7492,-3.13804 -6.8308,-9.48719 -9.07021,-14.10923 -3.31061,-6.83291 -4.16009,-9.78154 -4.54474,-15.77524 -0.97121,-15.13349 3.09331,-29.84257 12.2471,-44.32106 2.95569,-4.675 6.978,-12.02237 8.93845,-16.32748 2.72377,-5.98133 3.9823,-7.75024 5.33605,-7.5 2.71835,0.50249 5.19528,6.68585 6.38631,15.94267 0.59336,4.61164 1.93528,11.20676 2.98205,14.65581 2.38869,7.8706 2.39361,13.72027 0.0238,28.24624 -1.31225,8.04344 -3.08462,14.37741 -5.87619,21 -7.23394,17.16145 -7.22459,16.99689 -1.85825,32.68774 3.92354,11.47216 3.92041,11.47101 7.11689,2.62756 4.82183,-13.34016 14.1032,-31.5049 19.0625,-37.30756 2.5736,-3.01126 6.12209,-8.41126 7.88553,-12 1.76344,-3.58874 4.63337,-8.75058 6.37762,-11.47076 3.57162,-5.56997 3.84341,-8.10178 1.62587,-15.14529 -2.06639,-6.56342 -2.91093,-22.26125 -1.66291,-30.90893 1.16095,-8.04427 4.29024,-16.95541 7.49555,-21.34471 1.21707,-1.66664 4.19639,-5.83829 6.62069,-9.27033 2.42431,-3.43203 8.27431,-10.11392 13,-14.84863 7.52513,-7.5395 10.96399,-12.04695 21.3897,-28.03633 1.32589,-2.03345 3.10347,-3.5 4.2423,-3.5 1.68607,0 2.00223,0.80811 2.26094,5.77909 0.3363,6.46173 -2.71174,25.54077 -5.78609,36.21773 -1.10812,3.84825 -2.01473,8.52153 -2.01473,10.38508 0,5.46427 -9.55131,34.0971 -13.22778,39.65409 -1.79972,2.72029 -7.47406,9.22504 -12.60965,14.455 -5.13558,5.22995 -10.2508,11.30901 -11.36715,13.50901 -1.11634,2.2 -4.23527,7.67619 -6.93095,12.16931 -2.69568,4.49312 -6.07758,10.79312 -7.51533,14 -1.43775,3.20688 -4.42209,8.01662 -6.63188,10.6883 -8.97439,10.85026 -23.06929,51.62191 -21.23185,61.41634 l 0.67985,3.6239 5.77194,-8.94892 c 3.17457,-4.92191 7.79689,-11.19893 10.27183,-13.94893 5.88335,-6.53722 10.28235,-15.58437 14.39591,-29.60716 0.87009,-2.96606 2.88447,-7.68809 4.4764,-10.49339 3.57937,-6.30755 17.06101,-19.38636 26.98287,-26.17662 9.02856,-6.17892 11.77819,-8.59762 15.31617,-13.47283 3.08568,-4.25196 6.30179,-4.96006 6.81284,-1.5 1.0774,7.2946 -3.75481,25.58385 -10.63448,40.25 -7.61283,16.2291 -16.81342,24.65471 -39.07227,35.78115 -9.10629,4.55192 -14.04119,9.94796 -24.43546,26.71885 -13.18552,21.27448 -16.31331,29.45783 -14.64933,38.32758 1.15266,6.14422 2.92943,5.42074 14.94275,-6.08458 6.16954,-5.90865 15.41258,-13.61216 20.54009,-17.11892 6.73973,-4.60936 9.71117,-7.30553 10.72465,-9.73111 0.77104,-1.84537 3.7619,-5.21148 6.64636,-7.48026 6.89768,-5.42539 30.5916,-28.4493 33.87048,-32.91271 3.30221,-4.49516 6.7149,-13.97824 11.33593,-31.5 3.73026,-14.14417 5.57329,-18.5072 7.81111,-18.49126 0.67482,0.005 3.13756,4.62848 5.47276,10.27484 5.0209,12.14023 8.37549,16.00224 19.44652,22.388 4.2858,2.47205 8.07846,4.95755 8.42813,5.52333 0.96985,1.56924 -0.92543,2.36079 -15.06292,6.29095 -8.68703,2.41495 -14.7311,4.73436 -18.05754,6.92957 -7.42489,4.8999 -30.34652,26.35598 -35.42294,33.15809 -5.64263,7.56079 -8.29122,9.88577 -15.06346,13.22294 -3.72678,1.83645 -8.85836,6.11302 -16,13.33412 -5.78248,5.84682 -12.02685,11.39712 -13.87638,12.334 -8.33633,4.22278 -45.14264,40.30581 -50.28908,49.30084 -1.76471,3.08439 -6.19372,8.78646 -9.84225,12.67128 -6.438,6.85493 -11.00589,12.68005 -11.00589,14.03506 0,0.97852 3.2613,-0.16993 15.5,-5.45828 6.05,-2.61421 16.175,-6.37945 22.5,-8.36721 8.9106,-2.80033 13.52648,-4.95358 20.5,-9.56301 14.78363,-9.77182 22.49478,-17.11406 39.47161,-37.58326 4.10545,-4.95 8.96205,-10.575 10.79243,-12.5 1.83039,-1.925 5.13466,-7.325 7.34282,-12 7.56126,-16.00831 8.40101,-17.43988 12.94098,-22.0614 7.43121,-7.56467 16.80619,-11.44896 33.57731,-13.91192 7.76883,-1.14091 19.65812,-3.65186 26.42064,-5.57989 6.93436,-1.97703 12.67331,-3.12769 13.16201,-2.63899 2.07776,2.07776 -6.3896,15.41798 -14.57544,22.96343 -6.47783,5.97105 -24.56085,17.76646 -34.63236,22.5904 -8.13942,3.89852 -8.98785,4.08821 -20,4.47145 l -11.5,0.40021 -6,7.58708 c -3.3,4.17289 -7.26443,9.32868 -8.80984,11.4573 l -2.80983,3.87022 8.30983,-0.69814 c 4.57041,-0.38397 12.35984,-1.71594 17.30984,-2.95992 12.89412,-3.24042 36.03074,-11.89453 40.10219,-14.99998 1.90838,-1.45559 6.32672,-6.09878 9.81853,-10.31819 12.64281,-15.27723 19.94561,-18.53943 45.07928,-20.13714 10.61378,-0.6747 15.11089,-1.48737 24.5,-4.4274 6.325,-1.98055 11.8375,-3.60238 12.25,-3.60406 1.76311,-0.007 0.49206,3.90878 -2.92457,9.01029 -9.2539,13.81739 -25.82945,26.63893 -40.38683,31.24007 -13.8713,4.3843 -20.59704,5.06794 -31.53246,3.20515 -11.12536,-1.89515 -10.04605,-2.15055 -32.90614,7.78681 -14.12002,6.13803 -34.81907,13.46536 -47.16399,16.69576 -5.18589,1.35704 -20.50542,11.41496 -25.78896,16.93155 l -3.95295,4.12731 7.95295,0.0174 c 9.16545,0.02 19.03353,1.90387 28.40032,5.42173 4.27062,1.6039 10.55761,2.84185 18.05263,3.55468 17.22023,1.63777 16.36469,1.29772 34.5,13.7127 6.40264,4.38309 13.41073,6.84084 23.03892,8.07979 l 5.96108,0.76707 -7.86963,3.30208 c -16.3507,6.86071 -30.18309,7.77908 -41.22449,2.737 -9.31482,-4.25364 -12.96889,-8.48548 -17.41404,-20.16753 -1.20218,-3.15939 -23.56984,-8.44795 -40.49184,-9.57379 -14.39455,-0.95769 -20.97808,-0.121 -28.5,3.62202 -2.475,1.2316 -7.65,3.18775 -11.5,4.347 -3.85,1.15926 -9.42614,3.67727 -12.39142,5.59559 -4.52511,2.92737 -25.49658,10.58426 -28.98936,10.58426 -0.5862,0 -6.36534,5.43078 -12.84252,12.0684 -7.52018,7.70645 -14.12603,13.46822 -18.2767,15.94135 -3.575,2.13012 -9.2,6.4167 -12.5,9.52572 -3.3,3.10902 -9.96819,8.47884 -14.81821,11.93293 -6.22995,4.43686 -13.7168,11.52692 -25.50777,24.15588 -19.43262,20.81372 -21.93886,22.48284 -34.67402,23.09232 -4.62524,0.22135 -8.63277,-0.0602 -9.5,-0.66731 z m 325.32179,-263.57623 c -8.64416,-2.32926 -13.63086,-5.21685 -19.83315,-11.48454 -7.45377,-7.53237 -7.06343,-8.05667 8.52924,-11.45617 8.98038,-1.95789 14.20564,-3.84642 23.98212,-8.66767 6.875,-3.39039 14.30157,-6.36794 16.50349,-6.61678 2.97747,-0.33648 7.59052,0.75263 18,4.24967 16.72292,5.61805 18.53728,6.65314 26.40558,15.06438 6.63246,7.09012 7.705,10.66736 4.16019,13.87537 -1.5357,1.38979 -3.22374,1.66031 -8.25,1.32211 -7.10541,-0.47809 -30.93714,1.57816 -43.81926,3.78081 -10.45598,1.78781 -18.87583,1.76579 -25.67821,-0.0672 z m -29.98424,-26.2138 c -3.97712,-0.19065 -7.60181,-0.88056 -8.15039,-1.5513 -1.24042,-1.51666 -5.6129,-12.04529 -8.77645,-21.13311 -4.38821,-12.60586 -2.77888,-30.06706 5.08778,-55.2023 4.87162,-15.56561 9.95162,-27.2736 15.56425,-35.87128 5.51284,-8.44482 8.28712,-10.58458 9.87544,-7.61678 0.77029,1.4393 0.24149,4.5841 -2.14605,12.76271 -7.21551,24.71702 -2.77083,38.55293 19.38326,60.3384 7.80596,7.67607 10.36606,10.95807 13.25,16.98619 3.9686,8.29532 4.4373,11.95832 1.82461,14.25976 -0.9625,0.84783 -7.69318,4.73597 -14.95708,8.6403 -11.71576,6.29721 -19.74845,9.43551 -22.79292,8.90501 -0.55,-0.0958 -4.2231,-0.32876 -8.16245,-0.5176 z m 94.66245,-7.59904 c -14.21045,-5.00583 -18,-6.64279 -18,-7.77542 0,-0.81833 1.53899,-1.15231 13.5,-2.92964 13.60545,-2.02169 26.25756,-10.31498 30.3895,-19.91992 2.31638,-5.38458 2.28546,-6.13815 -1.02003,-24.86154 -1.42781,-8.08756 -0.58505,-9.21065 5.35631,-7.13795 3.10039,1.08159 5.73237,3.29359 10.07134,8.46425 17.97044,21.41501 20.29518,31.52814 10.91633,47.48832 -4.99916,8.50718 -7.63655,9.59858 -25.21345,10.43374 l -13.5,0.64145 -12.5,-4.40329 z m -35,-21.72491 c -6.325,-3.27559 -13.22132,-7.63856 -15.32515,-9.69547 -2.10384,-2.05691 -5.68001,-7.56484 -7.94705,-12.23984 -2.26704,-4.675 -4.88456,-9.4 -5.8167,-10.5 -2.94209,-3.4719 -6.80511,-11.83784 -7.49608,-16.23389 -1.32044,-8.40083 6.68572,-19.59681 14.9755,-20.94206 6.34923,-1.03033 9.40117,1.10805 13.06926,9.15714 2.47383,5.42847 4.44176,8.09761 8.15073,11.05499 2.68922,2.14427 8.03949,6.65483 11.88949,10.02346 10.20432,8.92846 15.70949,12.47492 27.80858,17.91448 9.5186,4.27941 14.69142,8.00602 14.69142,10.58401 0,1.98693 -5.32939,6.77803 -10.16897,9.14188 -8.96716,4.37992 -20.81798,7.8045 -26.80329,7.74546 -4.74141,-0.0468 -7.16363,-0.90172 -17.02774,-6.01016 z m 37.97597,-31.24507 c -10.90786,-4.76288 -23.31064,-12.40099 -30.07955,-18.52414 -5.00358,-4.52624 -5.89642,-5.85117 -5.89642,-8.75 0,-3.32334 0.10949,-3.4161 4.03226,-3.4161 4.73812,0 17.59273,4.74214 24.18181,8.9208 9.31708,5.90872 22.78593,20.11267 22.78593,24.02954 0,2.10187 -7.68033,0.9465 -15.02403,-2.2601 z m 13.66601,-18.70745 c -4.32191,-1.60598 -11.97191,-5.11058 -17,-7.78801 -9.61228,-5.11849 -14.41085,-7.05946 -23.93136,-9.68001 -10.46869,-2.88153 -9.83814,-8.79642 1.54406,-14.48417 7.02048,-3.50818 15.35149,-4.03268 24.74532,-1.55791 8.23321,2.16901 21.7962,9.47771 25.40448,13.68973 5.32569,6.21681 8.01319,16.32011 5.56034,20.90332 -1.49021,2.78448 -6.87681,2.42711 -16.32284,-1.08295 z m -95.1497,-20.23279 c 0.37398,-2.8875 2.66621,-11.22636 5.09384,-18.53081 2.42764,-7.30445 4.41388,-15.09268 4.41388,-17.30718 0,-6.12658 2.01144,-12.80662 4.34931,-14.44412 1.15263,-0.80734 3.50013,-1.46789 5.21665,-1.46789 4.4513,0 13.67543,3.37846 18.66712,6.83708 6.91905,4.79405 20.76692,19.59457 20.76692,22.19557 0,3.17316 -6.5626,9.07914 -12.55528,11.29907 -2.7196,1.00745 -8.99472,2.20231 -13.94472,2.65524 -10.64763,0.97428 -16.11364,3.13271 -23.81163,9.40281 -7.6753,6.25162 -9.07449,6.1424 -8.19609,-0.63977 z"
       id="path4177"
       inkscape:connector-curvature="0" />
  </g>
</svg>
